<svg xmlns="http://www.w3.org/2000/svg" width="15" height="15" viewBox="0 0 10 10">
  <path stroke="#000" stroke-width="2.5" d="M 0 4.5 L 10 4.5"/>
  <path stroke="#fc0" stroke-width="2" d="M 0.2 4.5 L 9.8 4.5"/>
  <path d="M4.501 5.3645h.2529l.5322-1.5439H5.0332L4.501 5.3645ZM7.75 4.7014V4.3615q0-.1377-.0322-.2427-.0322-.105-.0918-.1763-.0606-.0703-.1465-.1064Q7.3936 3.8 7.2861 3.8q-.1065 0-.1919.0361-.0855.0361-.145.1064-.0605.0713-.0928.1763-.0322.105-.0322.2427v.3399q0 .1377.0327.2427.0327.105.0933.1753.0596.0713.1455.1074.0859.0361.1924.0361.1074 0 .1934-.0361.0859-.0361.1455-.1074.0596-.0703.0913-.1753T7.75 4.7014Zm-3.6006 0V4.3615q0-.1377-.0322-.2427-.0322-.105-.0918-.1763-.0606-.0703-.1465-.1064Q3.793 3.8 3.6855 3.8q-.1064 0-.1919.0361-.0855.0361-.145.1064-.0606.0713-.0928.1763t-.0322.2427v.3399q0 .1377.0327.2427.0327.105.0933.1753.0596.0713.1455.1074.0859.0361.1924.0361.1074 0 .1934-.0361.0859-.0361.1455-.1074.0596-.0703.0913-.1753.0317-.105.0317-.2427Zm1.5693-.8809-.0811.7217.2168.0537q.0156-.0156.0332-.0298.0176-.0142.04-.0249t.0518-.0176q.0293-.0068.0693-.0068.0596 0 .1035.0186t.0732.0527.0435.0815.0142.104q0 .0576-.0112.1074-.0112.0498-.0347.0859-.0244.0361-.063.0566t-.0933.0205q-.0889 0-.146-.0508-.0571-.0508-.0669-.1435H5.6006q.0029.0986.0444.1753t.1079.1294q.0664.0527.1519.0801.0855.0273.1773.0273.1211 0 .21-.0381.0889-.0381.1475-.1035.0586-.0654.0869-.1514.0283-.0859.0283-.1816 0-.1123-.0293-.2012-.0293-.0889-.084-.1504-.0557-.0615-.1362-.0942-.0806-.0327-.1831-.0327-.0723 0-.1279.0186-.0557.0185-.0859.0361l.0342-.3125h.5654V3.8205H5.7188Zm-3.6006 0-.0811.7217.2168.0537q.0156-.0156.0332-.0298.0176-.0142.04-.0249.0225-.0107.0518-.0176t.0693-.0068q.0596 0 .1035.0186t.0732.0527.0435.0815.0142.104q0 .0576-.0112.1074-.0112.0498-.0347.0859-.0244.0361-.063.0566-.0386.0205-.0933.0205-.0889 0-.146-.0508-.0571-.0508-.0669-.1435H2q.0029.0986.0444.1753.0415.0767.1079.1294.0664.0527.1519.0801t.1772.0273q.1211 0 .21-.0381.0889-.0381.1475-.1035.0586-.0654.0869-.1514.0283-.0859.0283-.1816 0-.1123-.0293-.2012-.0293-.0889-.084-.1504-.0557-.0615-.1362-.0942-.0806-.0327-.1831-.0327-.0723 0-.1279.0186-.0557.0185-.0859.0361l.0342-.3125h.5654V3.8205H2.1182Z" />
</svg>
