<svg xmlns="http://www.w3.org/2000/svg" width="15" height="15" viewBox="0 0 10 10">
  <circle cx="5" cy="5" fill="#fc1" r="4.3"/>
  <path d="M 5.7486 3.9851 L 5.7469 2.3359 L 5.2701 2.3359 L 5.2684 3.9851 Q 5.2667 4.1064 5.2428 4.1987 Q 5.2188 4.291 5.171 4.3525 Q 5.1266 4.4123 5.0591 4.4422 Q 4.9916 4.4721 4.9044 4.4721 Q 4.8241 4.4721 4.7625 4.4439 Q 4.701 4.4157 4.6583 4.3593 Q 4.6121 4.2978 4.5891 4.2038 Q 4.566 4.1098 4.5643 3.9851 L 4.5626 2.3359 L 4.0824 2.3359 L 4.0807 3.9851 Q 4.0807 4.1936 4.1396 4.3568 Q 4.1986 4.52 4.3063 4.6311 Q 4.4139 4.7422 4.5652 4.8003 Q 4.7164 4.8584 4.9044 4.8584 Q 5.1044 4.8584 5.2607 4.8003 Q 5.4171 4.7422 5.5265 4.6294 Q 5.6341 4.5183 5.6914 4.3559 Q 5.7486 4.1936 5.7486 3.9851 Z M 3.7166 4.0449 L 3.2364 4.0449 Q 3.2296 4.1577 3.1989 4.238 Q 3.1681 4.3183 3.1151 4.3696 Q 3.0621 4.4209 2.9869 4.4448 Q 2.9117 4.4687 2.8177 4.4687 Q 2.7477 4.4687 2.6904 4.4525 Q 2.6331 4.4362 2.587 4.4021 Q 2.5443 4.3713 2.511 4.3252 Q 2.4776 4.279 2.4537 4.2192 Q 2.4195 4.132 2.4033 4.015 Q 2.3871 3.8979 2.3871 3.7492 L 2.3871 3.4108 Q 2.3871 3.3015 2.3973 3.2066 Q 2.4076 3.1118 2.4298 3.0331 Q 2.4588 2.9323 2.5076 2.8563 Q 2.5562 2.7802 2.6263 2.7392 Q 2.6673 2.7153 2.7161 2.7033 Q 2.7647 2.6914 2.8211 2.6914 Q 2.9271 2.6914 3.0032 2.7195 Q 3.0792 2.7478 3.1305 2.8025 Q 3.18 2.8588 3.2065 2.9426 Q 3.233 3.0263 3.2398 3.1374 L 3.7184 3.1374 Q 3.7013 2.9426 3.6364 2.7871 Q 3.5714 2.6316 3.4586 2.5239 Q 3.3458 2.4162 3.186 2.3581 Q 3.0262 2.3 2.8211 2.3 Q 2.6827 2.3 2.5622 2.335 Q 2.4418 2.3701 2.3409 2.435 Q 2.2281 2.5119 2.1393 2.623 Q 2.0504 2.7341 1.9957 2.8759 Q 1.9478 2.9922 1.9239 3.128 Q 1.9 3.2639 1.9 3.4143 L 1.9 3.7492 Q 1.9 3.9099 1.9265 4.0534 Q 1.953 4.197 2.0025 4.3166 Q 2.0538 4.4362 2.1282 4.5353 Q 2.2025 4.6345 2.2982 4.7045 Q 2.4025 4.7797 2.5332 4.8199 Q 2.6639 4.8601 2.8177 4.8601 Q 3.0125 4.8601 3.1732 4.8028 Q 3.3338 4.7456 3.45 4.6396 Q 3.5663 4.5337 3.6355 4.3833 Q 3.7047 4.2329 3.7166 4.0449 Z M 7.2508 2.7272 L 8.0182 2.7272 L 8.0182 2.3359 L 6.0118 2.3359 L 6.0118 2.7272 L 6.7689 2.7272 L 6.7689 4.8242 L 7.2508 4.8242 L 7.2508 2.7272 Z"/>
  <path d="M 4.6002 6.7919 L 5.6666 6.7919 L 5.6666 6.4023 L 4.6002 6.4023 L 4.6002 5.7255 L 5.7999 5.7255 L 5.7999 5.3342 L 4.1183 5.3342 L 4.1183 7.8224 L 4.6002 7.8224 L 4.6002 6.7919 Z M 6.7005 6.7919 L 7.7669 6.7919 L 7.7669 6.4023 L 6.7005 6.4023 L 6.7005 5.7255 L 7.9003 5.7255 L 7.9003 5.3342 L 6.2186 5.3342 L 6.2186 7.8224 L 6.7005 7.8224 L 6.7005 6.7919 Z M 3.7235 6.7612 L 3.7235 6.3989 Q 3.7235 6.2297 3.6919 6.0793 Q 3.6603 5.9289 3.6004 5.8025 Q 3.5458 5.6914 3.4697 5.5991 Q 3.3937 5.5068 3.2928 5.4419 Q 3.192 5.3735 3.0664 5.3367 Q 2.9408 5.3 2.7972 5.3 Q 2.6554 5.3 2.534 5.3359 Q 2.4127 5.3718 2.3153 5.4384 Q 2.2162 5.5068 2.1401 5.6025 Q 2.0641 5.6982 2.0111 5.8161 Q 1.9564 5.9409 1.9282 6.0878 Q 1.9 6.2348 1.9 6.3989 L 1.9 6.7612 Q 1.9 6.915 1.9248 7.0534 Q 1.9496 7.1919 1.9974 7.3098 Q 2.0504 7.4379 2.129 7.5396 Q 2.2076 7.6413 2.3067 7.7131 Q 2.4076 7.7815 2.5306 7.8191 Q 2.6537 7.8566 2.7989 7.8566 Q 2.9356 7.8566 3.0544 7.8233 Q 3.1732 7.79 3.2723 7.7302 Q 3.3817 7.6618 3.4672 7.5593 Q 3.5526 7.4567 3.6107 7.3337 Q 3.6654 7.2107 3.6945 7.0662 Q 3.7235 6.9218 3.7235 6.7612 Z M 3.2364 6.3955 L 3.2364 6.7612 Q 3.2364 6.8535 3.227 6.9389 Q 3.2176 7.0244 3.1989 7.0962 Q 3.1749 7.1884 3.1347 7.2611 Q 3.0946 7.3337 3.0365 7.3816 Q 2.9903 7.4209 2.9305 7.4414 Q 2.8707 7.4619 2.7989 7.4619 Q 2.7237 7.4619 2.6648 7.4397 Q 2.6058 7.4174 2.5597 7.3764 Q 2.5101 7.3303 2.4734 7.2559 Q 2.4366 7.1816 2.4178 7.091 Q 2.4007 7.0192 2.3939 6.9355 Q 2.3871 6.8518 2.3871 6.7612 L 2.3871 6.3955 Q 2.3871 6.2998 2.3948 6.2126 Q 2.4025 6.1254 2.4195 6.052 Q 2.4418 5.9562 2.4819 5.8845 Q 2.5221 5.8127 2.5802 5.7648 Q 2.6229 5.7324 2.6768 5.7153 Q 2.7306 5.6982 2.7972 5.6982 Q 2.8673 5.6982 2.9246 5.717 Q 2.9818 5.7358 3.0279 5.77 Q 3.086 5.8161 3.1288 5.8887 Q 3.1715 5.9614 3.1971 6.0537 Q 3.2176 6.1272 3.227 6.2135 Q 3.2364 6.2998 3.2364 6.3955 Z"/>
</svg>
