<?xml version="1.0" encoding="UTF-8"?>
<svg xmlns="http://www.w3.org/2000/svg" xmlns:xlink="http://www.w3.org/1999/xlink" width="10" height="26.542889" viewBox="0 0 10 26.542889">
<path fill-rule="nonzero" fill="rgb(14.901961%, 14.901961%, 14.901961%)" fill-opacity="1" d="M 0 0 L 10 0 L 10 26.542969 L 0 26.542969 Z M 0 0 "/>
<path fill-rule="nonzero" fill="rgb(29.803922%, 29.803922%, 29.803922%)" fill-opacity="1" d="M 6.976562 10.398438 C 6.976562 11.496094 6.097656 12.382812 5.015625 12.382812 C 3.925781 12.382812 3.050781 11.496094 3.050781 10.398438 C 3.050781 9.300781 3.925781 8.410156 5.015625 8.410156 C 6.097656 8.410156 6.976562 9.300781 6.976562 10.398438 Z M 6.976562 10.398438 "/>
<path fill-rule="nonzero" fill="rgb(100%, 84.705882%, 0%)" fill-opacity="1" d="M 6.976562 16.140625 C 6.976562 17.238281 6.097656 18.121094 5.015625 18.121094 C 3.925781 18.121094 3.050781 17.238281 3.050781 16.140625 C 3.050781 15.042969 3.925781 14.152344 5.015625 14.152344 C 6.097656 14.152344 6.976562 15.042969 6.976562 16.140625 Z M 6.976562 16.140625 "/>
<path fill-rule="nonzero" fill="rgb(29.803922%, 29.803922%, 29.803922%)" fill-opacity="1" d="M 6.976562 4.660156 C 6.976562 5.753906 6.097656 6.644531 5.015625 6.644531 C 3.925781 6.644531 3.050781 5.753906 3.050781 4.660156 C 3.050781 3.5625 3.925781 2.671875 5.015625 2.671875 C 6.097656 2.671875 6.976562 3.5625 6.976562 4.660156 Z M 6.976562 4.660156 "/>
<path fill-rule="nonzero" fill="rgb(29.803922%, 29.803922%, 29.803922%)" fill-opacity="1" d="M 6.949219 21.882812 C 6.949219 22.976562 6.070312 23.871094 4.984375 23.871094 C 3.902344 23.871094 3.023438 22.976562 3.023438 21.882812 C 3.023438 20.785156 3.902344 19.898438 4.984375 19.898438 C 6.070312 19.898438 6.949219 20.785156 6.949219 21.882812 Z M 6.949219 21.882812 "/>
</svg>
