<?xml version="1.0" encoding="UTF-8"?>
<svg xmlns="http://www.w3.org/2000/svg" xmlns:xlink="http://www.w3.org/1999/xlink" width="10" height="21.234007" viewBox="0 0 10 21.234007">
<path fill-rule="nonzero" fill="rgb(14.901961%, 14.901961%, 14.901961%)" fill-opacity="1" d="M 0 4.949219 L 10 4.949219 L 10 16.570312 L 0 16.570312 Z M 0 4.949219 "/>
<path fill-rule="nonzero" fill="rgb(14.901961%, 14.901961%, 14.901961%)" fill-opacity="1" d="M 10 16.289062 C 10 19.019531 7.761719 21.234375 5.003906 21.234375 C 2.238281 21.234375 0 19.019531 0 16.289062 C 0 13.554688 2.238281 11.339844 5.003906 11.339844 C 7.761719 11.339844 10 13.554688 10 16.289062 Z M 10 16.289062 "/>
<path fill-rule="nonzero" fill="rgb(14.901961%, 14.901961%, 14.901961%)" fill-opacity="1" d="M 10 4.949219 C 10 7.679688 7.761719 9.894531 5.003906 9.894531 C 2.238281 9.894531 0 7.679688 0 4.949219 C 0 2.214844 2.238281 0 5.003906 0 C 7.761719 0 10 2.214844 10 4.949219 Z M 10 4.949219 "/>
<path fill-rule="nonzero" fill="rgb(29.803922%, 29.803922%, 29.803922%)" fill-opacity="1" d="M 6.964844 4.804688 C 6.964844 5.902344 6.082031 6.789062 5.003906 6.789062 C 3.914062 6.789062 3.039062 5.902344 3.039062 4.804688 C 3.039062 3.707031 3.914062 2.820312 5.003906 2.820312 C 6.082031 2.820312 6.964844 3.707031 6.964844 4.804688 Z M 6.964844 4.804688 "/>
<path fill-rule="nonzero" fill="rgb(29.803922%, 29.803922%, 29.803922%)" fill-opacity="1" d="M 6.964844 10.546875 C 6.964844 11.644531 6.082031 12.527344 5.003906 12.527344 C 3.914062 12.527344 3.039062 11.644531 3.039062 10.546875 C 3.039062 9.445312 3.914062 8.558594 5.003906 8.558594 C 6.082031 8.558594 6.964844 9.445312 6.964844 10.546875 Z M 6.964844 10.546875 "/>
<path fill-rule="nonzero" fill="rgb(100%, 0%, 0%)" fill-opacity="1" d="M 6.9375 16.289062 C 6.9375 17.378906 6.058594 18.273438 4.972656 18.273438 C 3.890625 18.273438 3.011719 17.378906 3.011719 16.289062 C 3.011719 15.1875 3.890625 14.304688 4.972656 14.304688 C 6.058594 14.304688 6.9375 15.1875 6.9375 16.289062 Z M 6.9375 16.289062 "/>
</svg>
