<?xml version="1.0" encoding="UTF-8"?>
<svg xmlns="http://www.w3.org/2000/svg" xmlns:xlink="http://www.w3.org/1999/xlink" width="10" height="9.999949" viewBox="0 0 10 9.999949">
<path fill-rule="evenodd" fill="rgb(5.098039%, 5.098039%, 5.098039%)" fill-opacity="1" d="M 5 0 C 7.761719 0 10 2.238281 10 5 C 10 7.761719 7.761719 10 5 10 C 2.238281 10 0 7.761719 0 5 C 0 2.238281 2.238281 0 5 0 Z M 5 0 "/>
<path fill-rule="evenodd" fill="rgb(100%, 100%, 100%)" fill-opacity="1" d="M 4.292969 4.292969 C 4.683594 3.902344 5.316406 3.902344 5.707031 4.292969 C 6.097656 4.683594 6.097656 5.316406 5.707031 5.707031 C 5.316406 6.097656 4.683594 6.097656 4.292969 5.707031 C 3.902344 5.316406 3.902344 4.683594 4.292969 4.292969 Z M 4.292969 4.292969 "/>
<path fill-rule="evenodd" fill="rgb(100%, 100%, 100%)" fill-opacity="1" d="M 2.070312 6.511719 C 2.460938 6.121094 3.097656 6.121094 3.488281 6.511719 C 3.875 6.902344 3.875 7.539062 3.488281 7.929688 C 3.097656 8.320312 2.460938 8.320312 2.070312 7.929688 C 1.679688 7.539062 1.679688 6.902344 2.070312 6.511719 Z M 2.070312 6.511719 "/>
<path fill-rule="evenodd" fill="rgb(100%, 100%, 100%)" fill-opacity="1" d="M 6.511719 2.070312 C 6.902344 1.679688 7.539062 1.679688 7.929688 2.070312 C 8.320312 2.460938 8.320312 3.097656 7.929688 3.488281 C 7.539062 3.875 6.902344 3.875 6.511719 3.488281 C 6.125 3.097656 6.125 2.460938 6.511719 2.070312 Z M 6.511719 2.070312 "/>
</svg>
