<?xml version="1.0" encoding="UTF-8"?>
<svg xmlns="http://www.w3.org/2000/svg" xmlns:xlink="http://www.w3.org/1999/xlink" width="14" height="13.133429" viewBox="0 0 14 13.133429">
<path fill-rule="nonzero" fill="rgb(14.901961%, 14.901961%, 14.901961%)" fill-opacity="1" d="M 0 6.929688 L 14 6.929688 L 14 13.136719 L 0 13.136719 Z M 0 6.929688 "/>
<path fill-rule="nonzero" fill="rgb(14.901961%, 14.901961%, 14.901961%)" fill-opacity="1" d="M 14 6.929688 C 14 10.757812 10.527344 9.84375 6.671875 9.84375 C 2.800781 9.84375 0 10.757812 0 6.929688 C 0 3.101562 3.132812 0 7.003906 0 C 10.867188 0 14 3.101562 14 6.929688 Z M 14 6.929688 "/>
<path fill-rule="nonzero" fill="rgb(98.431373%, 0%, 0%)" fill-opacity="1" d="M 8.945312 9.84375 C 8.945312 10.769531 9.71875 11.523438 10.664062 11.523438 C 11.617188 11.523438 12.386719 10.769531 12.386719 9.84375 C 12.386719 8.914062 11.617188 8.160156 10.664062 8.160156 C 9.71875 8.160156 8.945312 8.914062 8.945312 9.84375 Z M 8.945312 9.84375 "/>
<path fill-rule="nonzero" fill="rgb(100%, 84.705882%, 0%)" fill-opacity="1" d="M 1.613281 9.84375 C 1.613281 10.769531 2.382812 11.523438 3.335938 11.523438 C 4.289062 11.523438 5.058594 10.769531 5.058594 9.84375 C 5.058594 8.914062 4.289062 8.160156 3.335938 8.160156 C 2.382812 8.160156 1.613281 8.914062 1.613281 9.84375 Z M 1.613281 9.84375 "/>
<path fill-rule="nonzero" fill="rgb(29.803922%, 29.803922%, 29.803922%)" fill-opacity="1" d="M 10.175781 4.441406 C 10.175781 5.390625 9.410156 6.164062 8.472656 6.164062 C 7.523438 6.164062 6.765625 5.390625 6.765625 4.441406 C 6.765625 3.484375 7.523438 2.71875 8.472656 2.71875 C 9.410156 2.71875 10.175781 3.484375 10.175781 4.441406 Z M 10.175781 4.441406 "/>
</svg>
