<?xml version="1.0" encoding="UTF-8"?>
<svg xmlns="http://www.w3.org/2000/svg" xmlns:xlink="http://www.w3.org/1999/xlink" width="10" height="9.381021" viewBox="0 0 10 9.381021">
<path fill-rule="nonzero" fill="rgb(14.901961%, 14.901961%, 14.901961%)" fill-opacity="1" d="M 0 4.949219 L 10 4.949219 L 10 9.382812 L 0 9.382812 Z M 0 4.949219 "/>
<path fill-rule="nonzero" fill="rgb(14.901961%, 14.901961%, 14.901961%)" fill-opacity="1" d="M 10 4.949219 C 10 7.683594 7.519531 7.03125 4.765625 7.03125 C 2 7.03125 0 7.683594 0 4.949219 C 0 2.214844 2.238281 0 5.003906 0 C 7.761719 0 10 2.214844 10 4.949219 Z M 10 4.949219 "/>
<path fill-rule="nonzero" fill="rgb(98.431373%, 0%, 0%)" fill-opacity="1" d="M 6.390625 7.03125 C 6.390625 7.691406 6.941406 8.230469 7.617188 8.230469 C 8.296875 8.230469 8.847656 7.691406 8.847656 7.03125 C 8.847656 6.367188 8.296875 5.828125 7.617188 5.828125 C 6.941406 5.828125 6.390625 6.367188 6.390625 7.03125 Z M 6.390625 7.03125 "/>
<path fill-rule="nonzero" fill="rgb(100%, 84.705882%, 0%)" fill-opacity="1" d="M 1.152344 7.03125 C 1.152344 7.691406 1.703125 8.230469 2.382812 8.230469 C 3.0625 8.230469 3.613281 7.691406 3.613281 7.03125 C 3.613281 6.367188 3.0625 5.828125 2.382812 5.828125 C 1.703125 5.828125 1.152344 6.367188 1.152344 7.03125 Z M 1.152344 7.03125 "/>
<path fill-rule="nonzero" fill="rgb(29.803922%, 29.803922%, 29.803922%)" fill-opacity="1" d="M 7.269531 3.171875 C 7.269531 3.851562 6.722656 4.402344 6.050781 4.402344 C 5.375 4.402344 4.832031 3.851562 4.832031 3.171875 C 4.832031 2.488281 5.375 1.941406 6.050781 1.941406 C 6.722656 1.941406 7.269531 2.488281 7.269531 3.171875 Z M 7.269531 3.171875 "/>
</svg>
