<?xml version="1.0" encoding="UTF-8"?>
<svg xmlns="http://www.w3.org/2000/svg" xmlns:xlink="http://www.w3.org/1999/xlink" width="12" height="17.310938" viewBox="0 0 12 17.310938">
<path fill-rule="nonzero" fill="rgb(0%, 0%, 0%)" fill-opacity="0.960784" d="M 3.078125 0.0546875 L 0 1.578125 L 0.0625 15.71875 L 3.140625 17.3125 L 9.304688 17.3125 L 12 15.71875 L 11.9375 1.578125 L 9.242188 0 Z M 3.078125 0.0546875 "/>
<path fill-rule="nonzero" fill="rgb(100%, 69.803922%, 0%)" fill-opacity="1" d="M 8.621094 5.550781 C 8.621094 7 7.445312 8.164062 6 8.164062 C 4.546875 8.164062 3.378906 7 3.378906 5.550781 C 3.378906 4.09375 4.546875 2.933594 6 2.933594 C 7.445312 2.933594 8.621094 4.09375 8.621094 5.550781 Z M 8.621094 5.550781 "/>
<path fill-rule="nonzero" fill="rgb(17.647059%, 17.647059%, 17.647059%)" fill-opacity="1" d="M 8.621094 11.757812 C 8.621094 13.195312 7.445312 14.371094 6 14.371094 C 4.546875 14.371094 3.378906 13.195312 3.378906 11.757812 C 3.378906 10.316406 4.546875 9.140625 6 9.140625 C 7.445312 9.140625 8.621094 10.316406 8.621094 11.757812 Z M 8.621094 11.757812 "/>
</svg>
