<?xml version="1.0" encoding="UTF-8"?>
<svg xmlns="http://www.w3.org/2000/svg" xmlns:xlink="http://www.w3.org/1999/xlink" width="4" height="24" viewBox="0 0 4 24">
<path fill-rule="nonzero" fill="rgb(100%, 0%, 0%)" fill-opacity="1" d="M 2.542969 0.179688 L 3.476562 0.179688 C 3.652344 0.179688 3.792969 0.316406 3.792969 0.492188 L 3.792969 5.789062 C 3.792969 5.957031 3.652344 6.097656 3.476562 6.097656 L 2.542969 6.097656 C 2.367188 6.097656 2.234375 5.957031 2.234375 5.789062 L 2.234375 0.492188 C 2.234375 0.316406 2.367188 0.179688 2.542969 0.179688 Z M 2.542969 0.179688 "/>
<path fill-rule="nonzero" fill="rgb(100%, 0%, 0%)" fill-opacity="1" d="M 2.542969 9.214844 L 3.476562 9.214844 C 3.652344 9.214844 3.792969 9.355469 3.792969 9.527344 L 3.792969 14.519531 C 3.792969 14.6875 3.652344 14.828125 3.476562 14.828125 L 2.542969 14.828125 C 2.367188 14.828125 2.234375 14.6875 2.234375 14.519531 L 2.234375 9.527344 C 2.234375 9.355469 2.367188 9.214844 2.542969 9.214844 Z M 2.542969 9.214844 "/>
<path fill-rule="nonzero" fill="rgb(100%, 0%, 0%)" fill-opacity="1" d="M 2.542969 17.945312 L 3.476562 17.945312 C 3.652344 17.945312 3.792969 18.085938 3.792969 18.257812 L 3.792969 23.554688 C 3.792969 23.730469 3.652344 23.863281 3.476562 23.863281 L 2.542969 23.863281 C 2.367188 23.863281 2.234375 23.730469 2.234375 23.554688 L 2.234375 18.257812 C 2.234375 18.085938 2.367188 17.945312 2.542969 17.945312 Z M 2.542969 17.945312 "/>
<path fill-rule="nonzero" fill="rgb(100%, 100%, 100%)" fill-opacity="1" d="M 2.539062 14.828125 L 3.480469 14.828125 C 3.652344 14.828125 3.792969 14.96875 3.792969 15.140625 L 3.792969 17.636719 C 3.792969 17.804688 3.652344 17.945312 3.480469 17.945312 L 2.539062 17.945312 C 2.367188 17.945312 2.234375 17.804688 2.234375 17.636719 L 2.234375 15.140625 C 2.234375 14.96875 2.367188 14.828125 2.539062 14.828125 Z M 2.539062 14.828125 "/>
<path fill-rule="nonzero" fill="rgb(100%, 100%, 100%)" fill-opacity="1" d="M 2.542969 6.097656 L 3.476562 6.097656 C 3.652344 6.097656 3.792969 6.238281 3.792969 6.410156 L 3.792969 8.90625 C 3.792969 9.074219 3.652344 9.214844 3.476562 9.214844 L 2.542969 9.214844 C 2.367188 9.214844 2.234375 9.074219 2.234375 8.90625 L 2.234375 6.410156 C 2.234375 6.238281 2.367188 6.097656 2.542969 6.097656 Z M 2.542969 6.097656 "/>
</svg>
