<?xml version="1.0" encoding="UTF-8"?>
<svg xmlns="http://www.w3.org/2000/svg" xmlns:xlink="http://www.w3.org/1999/xlink" width="18" height="8.64122" viewBox="0 0 18 8.64122">
<path fill-rule="evenodd" fill="rgb(0%, 0%, 0%)" fill-opacity="1" d="M 0 0 L 18 0 L 18 8.640625 L 0 8.640625 Z M 0 0 "/>
<path fill-rule="evenodd" fill="rgb(100%, 100%, 100%)" fill-opacity="1" d="M 5.773438 7.164062 C 5.773438 6.996094 5.632812 6.84375 5.460938 6.84375 L 4.203125 6.84375 C 3.902344 6.84375 3.652344 6.730469 3.492188 6.558594 C 3.300781 6.351562 3.257812 6.171875 3.257812 5.894531 L 3.257812 2.746094 C 3.257812 2.449219 3.332031 2.242188 3.558594 2.035156 C 3.75 1.863281 3.9375 1.796875 4.203125 1.796875 L 5.460938 1.796875 C 5.632812 1.796875 5.773438 1.65625 5.773438 1.484375 C 5.773438 1.3125 5.632812 1.164062 5.460938 1.164062 L 4.203125 1.164062 C 3.785156 1.164062 3.445312 1.296875 3.179688 1.503906 C 2.859375 1.761719 2.621094 2.226562 2.621094 2.746094 L 2.621094 5.894531 C 2.621094 6.351562 2.746094 6.671875 3.011719 6.976562 C 3.273438 7.28125 3.703125 7.476562 4.203125 7.476562 L 5.460938 7.476562 C 5.632812 7.476562 5.773438 7.335938 5.773438 7.164062 Z M 10.988281 7.089844 L 9.070312 1.351562 C 9.019531 1.230469 8.929688 1.164062 8.792969 1.164062 C 8.644531 1.164062 8.527344 1.242188 8.480469 1.371094 L 6.578125 7.050781 C 6.523438 7.242188 6.648438 7.476562 6.882812 7.476562 C 7.078125 7.476562 7.140625 7.390625 7.183594 7.25 L 7.742188 5.582031 L 9.816406 5.582031 L 10.367188 7.25 C 10.40625 7.390625 10.527344 7.476562 10.667969 7.476562 C 10.859375 7.476562 11.046875 7.269531 10.988281 7.089844 Z M 9.609375 4.949219 L 7.953125 4.949219 L 8.792969 2.449219 Z M 15.375 5.59375 C 15.410156 4.867188 15.175781 4.34375 14.605469 3.882812 C 14.929688 3.539062 15.058594 3.21875 15.058594 2.746094 C 15.058594 1.957031 14.585938 1.164062 13.792969 1.164062 L 11.898438 1.164062 C 11.804688 1.164062 11.75 1.191406 11.683594 1.257812 C 11.613281 1.332031 11.585938 1.390625 11.585938 1.484375 L 11.585938 7.164062 C 11.585938 7.261719 11.585938 7.335938 11.664062 7.410156 C 11.730469 7.476562 11.804688 7.476562 11.898438 7.476562 L 13.792969 7.476562 C 14.746094 7.476562 15.328125 6.550781 15.375 5.59375 Z M 14.425781 2.746094 C 14.425781 3.191406 14.238281 3.691406 13.792969 3.691406 L 12.222656 3.691406 L 12.222656 1.796875 L 13.792969 1.796875 C 14.238281 1.796875 14.425781 2.296875 14.425781 2.746094 Z M 14.738281 5.582031 C 14.738281 6.199219 14.417969 6.84375 13.792969 6.84375 L 12.222656 6.84375 L 12.222656 4.328125 L 13.792969 4.328125 C 14.417969 4.328125 14.738281 4.96875 14.738281 5.582031 Z M 14.738281 5.582031 "/>
</svg>
