<?xml version="1.0" encoding="UTF-8"?>
<svg xmlns="http://www.w3.org/2000/svg" xmlns:xlink="http://www.w3.org/1999/xlink" width="18" height="13.333333" viewBox="0 0 18 13.333333">
<path fill-rule="evenodd" fill="rgb(0%, 0%, 0%)" fill-opacity="1" d="M 0 0 L 18 0 L 18 13.332031 L 0 13.332031 Z M 0 0 "/>
<path fill-rule="nonzero" fill="rgb(100%, 100%, 100%)" fill-opacity="1" d="M 8.167969 9.386719 L 9.261719 9.386719 L 9.261719 10.753906 L 8.167969 10.753906 Z M 9.226562 8.597656 L 8.203125 8.597656 L 8.203125 7.769531 C 8.203125 7.410156 8.25 7.109375 8.351562 6.875 C 8.449219 6.644531 8.664062 6.371094 8.988281 6.0625 L 9.46875 5.585938 C 9.675781 5.394531 9.820312 5.21875 9.914062 5.046875 C 10.003906 4.878906 10.050781 4.710938 10.050781 4.53125 C 10.050781 4.214844 9.933594 3.953125 9.695312 3.757812 C 9.460938 3.558594 9.152344 3.464844 8.765625 3.464844 C 8.480469 3.464844 8.179688 3.523438 7.855469 3.648438 C 7.539062 3.777344 7.203125 3.957031 6.859375 4.195312 L 6.859375 3.1875 C 7.191406 2.980469 7.535156 2.828125 7.878906 2.730469 C 8.226562 2.628906 8.585938 2.578125 8.953125 2.578125 C 9.613281 2.578125 10.144531 2.75 10.542969 3.097656 C 10.941406 3.449219 11.140625 3.90625 11.140625 4.480469 C 11.140625 4.75 11.082031 5.007812 10.949219 5.257812 C 10.820312 5.503906 10.59375 5.777344 10.273438 6.085938 L 9.800781 6.550781 C 9.632812 6.71875 9.507812 6.847656 9.441406 6.945312 C 9.371094 7.039062 9.324219 7.132812 9.292969 7.222656 C 9.269531 7.296875 9.253906 7.386719 9.246094 7.496094 C 9.230469 7.605469 9.226562 7.746094 9.226562 7.933594 Z M 9.226562 8.597656 "/>
</svg>
