<?xml version="1.0" encoding="UTF-8" standalone="no"?>
<!-- Originally created with Inkscape, optimised by hand -->

<svg
   width="83.321564"
   height="40"
   version="1.1"
   id="svg9"
   xmlns="http://www.w3.org/2000/svg"
   xmlns:svg="http://www.w3.org/2000/svg">
  <defs
     id="defs8" />
  <!-- fill:none;stroke:#3d3d3d;stroke-opacity:1;stroke-width:0.75 -->
  <rect
     style="fill:#000000;fill-opacity:1;fill-rule:evenodd;stroke:none;stroke-width:0.449764"
     id="rect9"
     width="83.321564"
     height="40"
     x="0"
     y="0" />
  <path
     d="m 26.73036,33.16854 c 0,-0.788797 -0.65733,-1.489951 -1.44613,-1.489951 h -5.828335 c -1.402308,0 -2.541682,-0.525865 -3.286658,-1.314663 -0.876442,-0.964086 -1.095552,-1.796706 -1.095552,-3.067547 v -14.59276 c 0,-1.358485 0.350576,-2.322571 1.402307,-3.286658 0.876442,-0.788797 1.752884,-1.095552 2.979903,-1.095552 h 5.828335 c 0.7888,0 1.44613,-0.657332 1.44613,-1.44613 0,-0.788797 -0.65733,-1.489951 -1.44613,-1.489951 h -5.828335 c -1.928173,0 -3.505768,0.613509 -4.732787,1.577596 -1.489952,1.183196 -2.585504,3.330479 -2.585504,5.740695 v 14.59276 c 0,2.103461 0.569687,3.593412 1.796706,4.995719 1.227019,1.402308 3.199013,2.322572 5.521585,2.322572 h 5.828335 c 0.7888,0 1.44613,-0.657332 1.44613,-1.44613 z M 50.87633,32.817964 41.98045,6.26177 C 41.76134,5.692083 41.32311,5.385328 40.70961,5.385328 c -0.70116,0 -1.22702,0.350577 -1.44613,0.964086 l -8.80825,26.293261 c -0.26293,0.876442 0.30676,1.971995 1.40231,1.971995 0.92026,0 1.1832,-0.394399 1.40231,-1.051731 l 2.5855,-7.71269 h 9.59704 l 2.54168,7.71269 c 0.17529,0.657332 0.74498,1.051731 1.40231,1.051731 0.87644,0 1.75289,-0.964086 1.48995,-1.796706 z m -6.39802,-9.903795 h -7.66887 l 3.90017,-11.569035 z m 26.6876,2.979903 c 0.17529,-3.374302 -0.92026,-5.784518 -3.54959,-7.931801 1.48995,-1.577595 2.10346,-3.067547 2.10346,-5.258652 0,-3.637234 -2.1911,-7.318291 -5.87216,-7.318291 H 55.0832 c -0.43822,0 -0.70115,0.131466 -1.00791,0.438221 -0.30675,0.350577 -0.43822,0.613509 -0.43822,1.05173 V 33.16854 c 0,0.438221 0,0.788798 0.35058,1.139375 0.30675,0.306755 0.65733,0.306755 1.09555,0.306755 h 8.76442 c 4.42603,0 7.09918,-4.294566 7.31829,-8.720598 z M 66.7837,12.703619 c 0,2.059639 -0.87644,4.38221 -2.93608,4.38221 h -7.27447 v -8.76442 h 7.27447 c 2.05964,0 2.93608,2.322571 2.93608,4.38221 z m 1.44613,13.14663 c 0,2.848437 -1.48995,5.82834 -4.38221,5.82834 H 56.57315 V 20.02191 h 7.27447 c 2.89226,0 4.38221,2.979903 4.38221,5.828339 z"
     id="text13"
     style="font-weight:500;font-size:43.8221px;font-family:Isonorm;-inkscape-font-specification:'Isonorm, Medium';fill:#ffffff;fill-rule:evenodd;stroke-width:1.15033"
     aria-label="CAB" />
</svg>
