<?xml version="1.0" encoding="UTF-8"?>
<svg xmlns="http://www.w3.org/2000/svg" xmlns:xlink="http://www.w3.org/1999/xlink" width="16.415094" height="20" viewBox="0 0 16.415094 20">
<defs>
<radialGradient id="radial-pattern-0" gradientUnits="userSpaceOnUse" cx="22.376717" cy="23.62672" fx="22.376717" fy="23.62672" r="5.348282" gradientTransform="matrix(0.760968, 0.00000265015, -0.00000269638, 0.774247, 5.348805, 5.333729)">
<stop offset="0" stop-color="rgb(21.568627%, 99.215686%, 3.921569%)" stop-opacity="1"/>
<stop offset="1" stop-color="rgb(16.470588%, 85.882353%, 0.784314%)" stop-opacity="1"/>
</radialGradient>
<radialGradient id="radial-pattern-1" gradientUnits="userSpaceOnUse" cx="22.376717" cy="64.324425" fx="22.376717" fy="64.324425" r="5.148283" gradientTransform="matrix(0.696501, 0.00000164958, -0.00000184561, 0.779273, 6.791434, 14.19809)">
<stop offset="0" stop-color="rgb(100%, 81.176471%, 14.509804%)" stop-opacity="1"/>
<stop offset="1" stop-color="rgb(91.764706%, 60.392157%, 0%)" stop-opacity="1"/>
</radialGradient>
</defs>
<path fill-rule="nonzero" fill="rgb(0%, 0%, 0%)" fill-opacity="1" d="M 0.378906 0.3125 L 16.097656 0.3125 L 16.097656 6.085938 L 10.738281 11.253906 L 10.738281 19.746094 L 0.378906 19.746094 Z M 0.378906 0.3125 "/>
<path fill-rule="evenodd" fill="rgb(100%, 100%, 100%)" fill-opacity="1" d="M 3.949219 0.878906 L 11.949219 0.878906 C 14.605469 0.878906 16.769531 4.085938 14.492188 6.652344 L 10.265625 10.878906 L 10.265625 16.347656 C 10.265625 17.667969 8.945312 19.367188 7.246094 19.367188 L 3.960938 19.367188 C 2.339844 19.367188 0.832031 17.746094 0.832031 16.347656 L 0.832031 4.007812 C 0.832031 2.199219 2.527344 0.878906 3.949219 0.878906 Z M 4.136719 1.457031 L 12.152344 1.445312 C 14.335938 1.445312 15.847656 4.273438 14.152344 6.160156 L 9.699219 10.5 L 9.699219 15.972656 C 9.699219 17.667969 8.1875 18.914062 6.753906 18.914062 L 4.320312 18.914062 C 2.527344 18.914062 1.394531 17.46875 1.394531 16.160156 L 1.394531 4.207031 C 1.394531 2.574219 2.625 1.445312 4.136719 1.457031 Z M 4.136719 1.457031 "/>
<path fill-rule="nonzero" fill="url(#radial-pattern-0)" stroke-width="0.75" stroke-linecap="butt" stroke-linejoin="miter" stroke="rgb(16.470588%, 85.490196%, 0.784314%)" stroke-opacity="0.72549" stroke-miterlimit="4" d="M 27.328161 23.622297 C 27.328161 26.375816 25.112924 28.591054 22.380108 28.591054 C 19.647292 28.591054 17.411351 26.375816 17.411351 23.622297 C 17.411351 20.889481 19.647292 18.674244 22.380108 18.674244 C 25.112924 18.674244 27.328161 20.889481 27.328161 23.622297 Z M 27.328161 23.622297 " transform="matrix(0.188679, 0, 0, 0.188679, 0, 0)"/>
<path fill="none" stroke-width="0.75" stroke-linecap="butt" stroke-linejoin="miter" stroke="rgb(23.921569%, 23.921569%, 23.921569%)" stroke-opacity="1" stroke-miterlimit="4" d="M 27.328161 43.973496 C 27.328161 46.706312 25.112924 48.942252 22.380108 48.942252 C 19.647292 48.942252 17.411351 46.706312 17.411351 43.973496 C 17.411351 41.24068 19.647292 39.004739 22.380108 39.004739 C 25.112924 39.004739 27.328161 41.24068 27.328161 43.973496 Z M 27.328161 43.973496 " transform="matrix(0.188679, 0, 0, 0.188679, 0, 0)"/>
<path fill="none" stroke-width="0.75" stroke-linecap="butt" stroke-linejoin="miter" stroke="rgb(23.921569%, 23.921569%, 23.921569%)" stroke-opacity="1" stroke-miterlimit="4" d="M 27.328161 64.324695 C 27.328161 67.057511 25.112924 69.293451 22.380108 69.293451 C 19.647292 69.293451 17.411351 67.057511 17.411351 64.324695 C 17.411351 61.591879 19.647292 59.355938 22.380108 59.355938 C 25.112924 59.355938 27.328161 61.591879 27.328161 64.324695 Z M 27.328161 64.324695 " transform="matrix(0.188679, 0, 0, 0.188679, 0, 0)"/>
<path fill="none" stroke-width="0.75" stroke-linecap="butt" stroke-linejoin="miter" stroke="rgb(23.921569%, 23.921569%, 23.921569%)" stroke-opacity="1" stroke-miterlimit="4" d="M 27.328161 84.675894 C 27.328161 87.40871 25.112924 89.623947 22.380108 89.623947 C 19.647292 89.623947 17.411351 87.40871 17.411351 84.675894 C 17.411351 81.943078 19.647292 79.707137 22.380108 79.707137 C 25.112924 79.707137 27.328161 81.943078 27.328161 84.675894 Z M 27.328161 84.675894 " transform="matrix(0.188679, 0, 0, 0.188679, 0, 0)"/>
<path fill-rule="nonzero" fill="url(#radial-pattern-1)" stroke-width="0.75" stroke-linecap="butt" stroke-linejoin="miter" stroke="rgb(86.27451%, 52.54902%, 0%)" stroke-opacity="0.72549" stroke-miterlimit="4" d="M 27.334477 64.320055 C 27.334477 67.073574 25.11924 69.288811 22.386423 69.288811 C 19.632904 69.288811 17.417667 67.073574 17.417667 64.320055 C 17.417667 61.587239 19.632904 59.372001 22.386423 59.372001 C 25.11924 59.372001 27.334477 61.587239 27.334477 64.320055 Z M 27.334477 64.320055 " transform="matrix(0.188679, 0, 0, 0.188679, 7.838652, -7.678812)"/>
</svg>
