<?xml version="1.0" encoding="UTF-8"?>
<svg xmlns="http://www.w3.org/2000/svg" xmlns:xlink="http://www.w3.org/1999/xlink" width="18" height="22.253976" viewBox="0 0 18 22.253976">
<path fill-rule="nonzero" fill="rgb(0%, 0%, 0%)" fill-opacity="1" d="M 18 0 L 0 0 L 0 6.609375 L 6.136719 12.53125 L 6.136719 22.253906 L 18 22.253906 Z M 18 0 "/>
<path fill-rule="evenodd" fill="rgb(100%, 100%, 100%)" fill-opacity="1" d="M 13.914062 0.648438 L 4.75 0.648438 C 1.707031 0.648438 -0.769531 4.320312 1.835938 7.257812 L 6.683594 12.097656 L 6.683594 18.363281 C 6.683594 19.871094 8.1875 21.820312 10.136719 21.820312 L 13.902344 21.820312 C 15.753906 21.820312 17.480469 19.960938 17.480469 18.363281 L 17.480469 4.230469 C 17.480469 2.160156 15.539062 0.648438 13.914062 0.648438 Z M 13.695312 1.3125 L 4.515625 1.296875 C 2.015625 1.296875 0.289062 4.535156 2.230469 6.699219 L 7.328125 11.664062 L 7.328125 17.933594 C 7.328125 19.871094 9.054688 21.300781 10.699219 21.300781 L 13.484375 21.300781 C 15.539062 21.300781 16.835938 19.644531 16.835938 18.148438 L 16.835938 4.460938 C 16.835938 2.59375 15.429688 1.296875 13.695312 1.3125 Z M 13.695312 1.3125 "/>
<path fill="none" stroke-width="0.142" stroke-linecap="butt" stroke-linejoin="miter" stroke="rgb(23.921569%, 23.921569%, 23.921569%)" stroke-opacity="1" stroke-miterlimit="4" d="M 10.943081 4.14459 C 10.943081 4.666501 11.359246 5.082666 11.877746 5.082666 C 12.386013 5.082666 12.815822 4.666501 12.815822 4.14459 C 12.815822 3.629501 12.386013 3.213336 11.877746 3.213336 C 11.359246 3.213336 10.943081 3.629501 10.943081 4.14459 Z M 10.943081 4.14459 " transform="matrix(1.14513, 0, 0, 1.14513, 0, 0)"/>
<path fill="none" stroke-width="0.142" stroke-linecap="butt" stroke-linejoin="miter" stroke="rgb(23.921569%, 23.921569%, 23.921569%)" stroke-opacity="1" stroke-miterlimit="4" d="M 10.943081 7.985584 C 10.943081 8.497262 11.359246 8.92366 11.877746 8.92366 C 12.386013 8.92366 12.815822 8.497262 12.815822 7.985584 C 12.815822 7.470495 12.386013 7.050919 11.877746 7.050919 C 11.359246 7.050919 10.943081 7.470495 10.943081 7.985584 Z M 10.943081 7.985584 " transform="matrix(1.14513, 0, 0, 1.14513, 0, 0)"/>
<path fill="none" stroke-width="0.142" stroke-linecap="butt" stroke-linejoin="miter" stroke="rgb(23.921569%, 23.921569%, 23.921569%)" stroke-opacity="1" stroke-miterlimit="4" d="M 10.943081 15.664161 C 10.943081 16.17925 11.359246 16.598826 11.877746 16.598826 C 12.386013 16.598826 12.815822 16.17925 12.815822 15.664161 C 12.815822 15.149072 12.386013 14.726085 11.877746 14.726085 C 11.359246 14.726085 10.943081 15.149072 10.943081 15.664161 Z M 10.943081 15.664161 " transform="matrix(1.14513, 0, 0, 1.14513, 0, 0)"/>
<path fill-rule="nonzero" fill="rgb(100%, 81.176471%, 14.509804%)" fill-opacity="1" stroke-width="0.75" stroke-linecap="butt" stroke-linejoin="miter" stroke="rgb(100%, 81.176471%, 14.509804%)" stroke-opacity="1" stroke-miterlimit="4" d="M 11.262032 12.17128 C 11.262032 12.697871 11.690326 13.133186 12.223939 13.133186 C 12.74702 13.133186 13.189356 12.697871 13.189356 12.17128 C 13.189356 11.637667 12.74702 11.202352 12.223939 11.202352 C 11.690326 11.202352 11.262032 11.637667 11.262032 12.17128 Z M 11.262032 12.17128 " transform="matrix(1.112699, 0, 0, 1.112699, 0, 0)"/>
<path fill-rule="nonzero" fill="rgb(100%, 81.176471%, 14.509804%)" fill-opacity="1" stroke-width="0.75" stroke-linecap="butt" stroke-linejoin="miter" stroke="rgb(100%, 81.176471%, 14.509804%)" stroke-opacity="1" stroke-miterlimit="4" d="M 3.191143 4.265389 C 3.191143 4.802512 3.622948 5.230807 4.149539 5.230807 C 4.686662 5.230807 5.118467 4.802512 5.118467 4.265389 C 5.118467 3.735287 4.686662 3.306993 4.149539 3.306993 C 3.622948 3.306993 3.191143 3.735287 3.191143 4.265389 Z M 3.191143 4.265389 " transform="matrix(1.112699, 0, 0, 1.112699, 0, 0)"/>
</svg>
