<?xml version="1.0" encoding="UTF-8"?>
<svg xmlns="http://www.w3.org/2000/svg" xmlns:xlink="http://www.w3.org/1999/xlink" width="18" height="22.253976" viewBox="0 0 18 22.253976">
<path fill-rule="nonzero" fill="rgb(0%, 0%, 0%)" fill-opacity="1" d="M 0 0 L 18 0 L 18 6.609375 L 11.863281 12.53125 L 11.863281 22.253906 L 0 22.253906 Z M 0 0 "/>
<path fill-rule="evenodd" fill="rgb(100%, 100%, 100%)" fill-opacity="1" d="M 4.085938 0.648438 L 13.25 0.648438 C 16.292969 0.648438 18.769531 4.320312 16.160156 7.257812 L 11.316406 12.097656 L 11.316406 18.363281 C 11.316406 19.871094 9.8125 21.820312 7.863281 21.820312 L 4.097656 21.820312 C 2.246094 21.820312 0.519531 19.960938 0.519531 18.363281 L 0.519531 4.230469 C 0.519531 2.160156 2.460938 0.648438 4.085938 0.648438 Z M 4.304688 1.3125 L 13.480469 1.296875 C 15.984375 1.296875 17.714844 4.535156 15.769531 6.699219 L 10.671875 11.664062 L 10.671875 17.933594 C 10.671875 19.871094 8.941406 21.300781 7.296875 21.300781 L 4.511719 21.300781 C 2.460938 21.300781 1.160156 19.644531 1.160156 18.148438 L 1.160156 4.460938 C 1.160156 2.59375 2.570312 1.296875 4.304688 1.3125 Z M 4.304688 1.3125 "/>
<path fill="none" stroke-width="0.141509" stroke-linecap="butt" stroke-linejoin="miter" stroke="rgb(23.921569%, 23.921569%, 23.921569%)" stroke-opacity="1" stroke-miterlimit="4" d="M 4.914852 4.265389 C 4.914852 4.802512 4.486558 5.230807 3.952945 5.230807 C 3.426354 5.230807 2.987528 4.802512 2.987528 4.265389 C 2.987528 3.735287 3.426354 3.306993 3.952945 3.306993 C 4.486558 3.306993 4.914852 3.735287 4.914852 4.265389 Z M 4.914852 4.265389 " transform="matrix(1.112699, 0, 0, 1.112699, 0, 0)"/>
<path fill="none" stroke-width="0.141509" stroke-linecap="butt" stroke-linejoin="miter" stroke="rgb(23.921569%, 23.921569%, 23.921569%)" stroke-opacity="1" stroke-miterlimit="4" d="M 4.914852 12.17128 C 4.914852 12.697871 4.486558 13.133186 3.952945 13.133186 C 3.426354 13.133186 2.987528 12.697871 2.987528 12.17128 C 2.987528 11.637667 3.426354 11.202352 3.952945 11.202352 C 4.486558 11.202352 4.914852 11.637667 4.914852 12.17128 Z M 4.914852 12.17128 " transform="matrix(1.112699, 0, 0, 1.112699, 0, 0)"/>
<path fill-rule="nonzero" fill="rgb(100%, 100%, 100%)" fill-opacity="1" stroke-width="0.75" stroke-linecap="butt" stroke-linejoin="miter" stroke="rgb(100%, 100%, 100%)" stroke-opacity="1" stroke-miterlimit="4" d="M 4.914852 16.120714 C 4.914852 16.650816 4.486558 17.082621 3.952945 17.082621 C 3.426354 17.082621 2.987528 16.650816 2.987528 16.120714 C 2.987528 15.590612 3.426354 15.155297 3.952945 15.155297 C 4.486558 15.155297 4.914852 15.590612 4.914852 16.120714 Z M 4.914852 16.120714 " transform="matrix(1.112699, 0, 0, 1.112699, 0, 0)"/>
<path fill="none" stroke-width="0.141509" stroke-linecap="butt" stroke-linejoin="miter" stroke="rgb(23.921569%, 23.921569%, 23.921569%)" stroke-opacity="1" stroke-miterlimit="4" d="M 12.98223 4.265389 C 12.98223 4.802512 12.553936 5.230807 12.023834 5.230807 C 11.486711 5.230807 11.058417 4.802512 11.058417 4.265389 C 11.058417 3.735287 11.486711 3.306993 12.023834 3.306993 C 12.553936 3.306993 12.98223 3.735287 12.98223 4.265389 Z M 12.98223 4.265389 " transform="matrix(1.112699, 0, 0, 1.112699, 0, 0)"/>
<path fill-rule="nonzero" fill="rgb(100%, 0%, 0%)" fill-opacity="1" stroke-width="0.75" stroke-linecap="butt" stroke-linejoin="miter" stroke="rgb(100%, 0%, 0%)" stroke-opacity="1" stroke-miterlimit="4" d="M 4.914852 8.218335 C 4.914852 8.744926 4.486558 9.183752 3.952945 9.183752 C 3.426354 9.183752 2.987528 8.744926 2.987528 8.218335 C 2.987528 7.688233 3.426354 7.256428 3.952945 7.256428 C 4.486558 7.256428 4.914852 7.688233 4.914852 8.218335 Z M 4.914852 8.218335 " transform="matrix(1.112699, 0, 0, 1.112699, 0, 0)"/>
</svg>
