<?xml version="1.0" encoding="UTF-8"?>
<svg xmlns="http://www.w3.org/2000/svg" xmlns:xlink="http://www.w3.org/1999/xlink" width="18" height="12.78261" viewBox="0 0 18 12.78261">
<path fill-rule="evenodd" fill="rgb(100%, 100%, 100%)" fill-opacity="1" stroke-width="0.04" stroke-linecap="butt" stroke-linejoin="miter" stroke="rgb(0%, 0%, 0%)" stroke-opacity="1" stroke-miterlimit="1.7" d="M 0.0202148 0.0202148 L 31.023 0.0202148 L 31.023 22.02067 L 0.0202148 22.02067 Z M 0.0202148 0.0202148 " transform="matrix(0.579711, 0, 0, 0.579711, 0, 0)"/>
<path fill-rule="evenodd" fill="rgb(0%, 0%, 0%)" fill-opacity="1" d="M 0.0195312 6.398438 L 18 12.78125 L 0.0117188 12.78125 Z M 0.0195312 6.398438 "/>
<path fill-rule="evenodd" fill="rgb(0%, 0%, 0%)" fill-opacity="1" d="M 5.6875 7.472656 L 6.535156 7.472656 L 9.898438 4.097656 L 6.535156 0.734375 L 5.6875 0.734375 L 9.0625 4.097656 Z M 5.6875 7.472656 "/>
<path fill-rule="evenodd" fill="rgb(0%, 0%, 0%)" fill-opacity="1" d="M 13.210938 7.125 L 13.210938 1.097656 C 13.210938 1.011719 13.1875 0.925781 13.117188 0.855469 C 13.054688 0.785156 12.777344 0.714844 12.644531 0.84375 L 11.296875 2.191406 C 11.160156 2.328125 11.199219 2.59375 11.300781 2.699219 C 11.398438 2.789062 11.636719 2.8125 11.761719 2.679688 L 12.542969 1.894531 L 12.542969 7.132812 C 12.542969 7.3125 12.699219 7.460938 12.882812 7.460938 C 13.066406 7.460938 13.210938 7.3125 13.210938 7.125 Z M 17.390625 7.132812 C 17.390625 6.949219 17.234375 6.789062 17.0625 6.789062 L 14.980469 6.789062 L 17.148438 3.339844 C 17.332031 3.035156 17.390625 2.789062 17.390625 2.441406 C 17.414062 1.4375 16.648438 0.804688 15.726562 0.765625 C 14.996094 0.742188 14.488281 1.074219 14.09375 1.707031 C 14.011719 1.84375 13.980469 2.242188 14.382812 2.273438 C 14.5 2.273438 14.601562 2.226562 14.65625 2.117188 C 14.925781 1.65625 15.164062 1.421875 15.726562 1.4375 C 16.417969 1.449219 16.71875 1.890625 16.722656 2.441406 C 16.722656 2.652344 16.699219 2.777344 16.585938 2.96875 L 14.09375 6.925781 C 14.058594 7 14.042969 7.050781 14.042969 7.132812 C 14.058594 7.3125 14.195312 7.453125 14.382812 7.460938 L 17.0625 7.460938 C 17.234375 7.460938 17.390625 7.3125 17.390625 7.132812 Z M 17.390625 7.132812 "/>
<path fill-rule="evenodd" fill="rgb(0%, 0%, 0%)" fill-opacity="1" d="M 4.847656 1.28125 C 4.847656 0.734375 3.988281 0.734375 3.988281 1.28125 C 3.988281 1.832031 4.847656 1.832031 4.847656 1.28125 Z M 4.765625 7.152344 L 4.765625 3.242188 C 4.765625 3.058594 4.597656 2.90625 4.414062 2.90625 C 4.238281 2.90625 4.085938 3.058594 4.085938 3.242188 L 4.085938 7.152344 C 4.085938 7.332031 4.238281 7.472656 4.414062 7.472656 C 4.597656 7.472656 4.765625 7.332031 4.765625 7.152344 Z M 4.765625 7.152344 "/>
</svg>
