<?xml version="1.0" encoding="UTF-8"?>
<svg xmlns="http://www.w3.org/2000/svg" xmlns:xlink="http://www.w3.org/1999/xlink" width="18" height="12.782604" viewBox="0 0 18 12.782604">
<path fill-rule="evenodd" fill="rgb(100%, 100%, 100%)" fill-opacity="1" stroke-width="0.03996" stroke-linecap="butt" stroke-linejoin="miter" stroke="rgb(0%, 0%, 0%)" stroke-opacity="1" stroke-miterlimit="1.7" d="M 0.0202148 0.0202148 L 31.023 0.0202148 L 31.023 22.02067 L 0.0202148 22.02067 Z M 0.0202148 0.0202148 " transform="matrix(0.579711, 0, 0, 0.579711, 0, 0)"/>
<path fill-rule="evenodd" fill="rgb(0%, 0%, 0%)" fill-opacity="1" d="M 0.0195312 6.398438 L 18 12.78125 L 0.0117188 12.78125 Z M 0.0195312 6.398438 "/>
<path fill-rule="evenodd" fill="rgb(0%, 0%, 0%)" fill-opacity="1" d="M 5.121094 7.160156 L 5.929688 7.160156 L 9.140625 3.945312 L 5.929688 0.742188 L 5.121094 0.742188 L 8.335938 3.945312 Z M 5.121094 7.160156 "/>
<path fill-rule="evenodd" fill="rgb(0%, 0%, 0%)" fill-opacity="1" d="M 13.445312 6.835938 L 13.445312 1.058594 C 13.445312 0.960938 13.417969 0.886719 13.347656 0.824219 C 13.296875 0.75 13.023438 0.679688 12.894531 0.8125 L 11.597656 2.105469 C 11.46875 2.234375 11.519531 2.484375 11.617188 2.582031 C 11.695312 2.679688 11.933594 2.699219 12.054688 2.578125 L 12.796875 1.820312 L 12.796875 6.839844 C 12.796875 7.015625 12.957031 7.160156 13.125 7.160156 C 13.300781 7.160156 13.445312 7.015625 13.445312 6.835938 Z M 14.597656 3.308594 C 14.660156 3.410156 14.734375 3.492188 14.808594 3.566406 C 14.660156 3.6875 14.570312 3.78125 14.464844 3.957031 C 14.328125 4.175781 14.246094 4.332031 14.246094 4.589844 L 14.246094 5.882812 C 14.246094 6.683594 15.050781 7.160156 15.851562 7.160156 C 16.65625 7.160156 17.457031 6.683594 17.457031 5.882812 L 17.457031 4.589844 C 17.457031 4.335938 17.4375 4.175781 17.296875 3.957031 C 17.179688 3.765625 17.066406 3.664062 16.882812 3.566406 C 16.980469 3.476562 17.03125 3.410156 17.105469 3.308594 C 17.242188 3.085938 17.296875 2.933594 17.296875 2.664062 L 17.296875 2.027344 C 17.296875 1.277344 16.609375 0.730469 15.851562 0.730469 C 15.101562 0.730469 14.402344 1.277344 14.402344 2.027344 L 14.402344 2.664062 C 14.402344 2.933594 14.464844 3.085938 14.597656 3.308594 Z M 16.65625 2.664062 C 16.65625 3.0625 16.25 3.308594 15.851562 3.308594 C 15.449219 3.308594 15.050781 3.0625 15.050781 2.664062 L 15.050781 2.027344 C 15.050781 1.625 15.449219 1.378906 15.851562 1.378906 C 16.25 1.378906 16.65625 1.625 16.65625 2.027344 Z M 16.8125 5.882812 C 16.8125 6.320312 16.304688 6.515625 15.863281 6.515625 C 15.410156 6.527344 14.886719 6.332031 14.886719 5.882812 L 14.886719 4.589844 C 14.886719 4.136719 15.390625 3.933594 15.851562 3.933594 C 16.304688 3.933594 16.8125 4.136719 16.8125 4.589844 Z M 16.8125 5.882812 "/>
<path fill-rule="evenodd" fill="rgb(0%, 0%, 0%)" fill-opacity="1" d="M 6.726562 7.160156 L 7.53125 7.160156 L 10.746094 3.945312 L 9.941406 3.945312 Z M 6.726562 7.160156 "/>
<path fill-rule="evenodd" fill="rgb(0%, 0%, 0%)" fill-opacity="1" d="M 4.320312 1.265625 C 4.320312 0.742188 3.507812 0.742188 3.507812 1.265625 C 3.507812 1.789062 4.320312 1.789062 4.320312 1.265625 Z M 4.246094 6.855469 L 4.246094 3.132812 C 4.246094 2.957031 4.09375 2.8125 3.917969 2.8125 C 3.75 2.8125 3.601562 2.957031 3.601562 3.132812 L 3.601562 6.855469 C 3.601562 7.027344 3.75 7.160156 3.917969 7.160156 C 4.09375 7.160156 4.246094 7.027344 4.246094 6.855469 Z M 4.246094 6.855469 "/>
</svg>
