<?xml version="1.0" encoding="UTF-8"?>
<svg xmlns="http://www.w3.org/2000/svg" xmlns:xlink="http://www.w3.org/1999/xlink" width="10" height="10" viewBox="0 0 10 10">
<path fill-rule="evenodd" fill="rgb(3.921569%, 3.921569%, 3.921569%)" fill-opacity="1" stroke-width="1.00004" stroke-linecap="butt" stroke-linejoin="bevel" stroke="rgb(15.686275%, 15.686275%, 15.686275%)" stroke-opacity="1" stroke-miterlimit="4" d="M 32.004883 16.25 C 32.004883 24.946289 24.946289 32.004883 16.25 32.004883 C 7.553711 32.004883 0.495117 24.946289 0.495117 16.25 C 0.495117 7.553711 7.553711 0.495117 16.25 0.495117 C 24.946289 0.495117 32.004883 7.553711 32.004883 16.25 Z M 32.004883 16.25 " transform="matrix(0.307692, 0, 0, 0.307692, 0, 0)"/>
<path fill="none" stroke-width="1.21502" stroke-linecap="round" stroke-linejoin="bevel" stroke="rgb(100%, 100%, 100%)" stroke-opacity="1" stroke-dasharray="0 1.944032" stroke-miterlimit="0" d="M 30.494141 16.25 C 30.494141 24.121094 24.121094 30.494141 16.25 30.494141 C 8.378906 30.494141 2.005859 24.121094 2.005859 16.25 C 2.005859 8.378906 8.378906 2.005859 16.25 2.005859 C 24.121094 2.005859 30.494141 8.378906 30.494141 16.25 Z M 30.494141 16.25 " transform="matrix(0.307692, 0, 0, 0.307692, 0, 0)"/>
<path fill="none" stroke-width="1.22904" stroke-linecap="round" stroke-linejoin="bevel" stroke="rgb(100%, 100%, 100%)" stroke-opacity="1" stroke-dasharray="0 1.96647" stroke-miterlimit="0" d="M 28.767578 16.25 C 28.767578 23.15625 23.15625 28.767578 16.25 28.767578 C 9.34375 28.767578 3.732422 23.15625 3.732422 16.25 C 3.732422 9.34375 9.34375 3.732422 16.25 3.732422 C 23.15625 3.732422 28.767578 9.34375 28.767578 16.25 Z M 28.767578 16.25 " transform="matrix(0.307692, 0, 0, 0.307692, 0, 0)"/>
</svg>
