<?xml version="1.0" encoding="UTF-8" standalone="no"?>
<!-- Created with Inkscape (http://www.inkscape.org/) -->

<svg
   width="31"
   height="22"
   viewBox="0 0 31 22"
   version="1.1"
   id="svg1"
   xmlns="http://www.w3.org/2000/svg"
   xmlns:svg="http://www.w3.org/2000/svg">
  <defs
     id="defs1" />
  <g
     id="layer1"
     transform="translate(-10,-9)">
    <rect
       style="fill:#0028ff;fill-opacity:1;fill-rule:evenodd;stroke-width:0.030706;stroke-linejoin:bevel"
       id="rect1"
       width="31"
       height="22"
       x="10"
       y="9"
       ry="1"
       rx="1" />
    <path
       d="m 18.196049,22.407419 v -7.78049 c 0,-0.341408 -0.269532,-0.628908 -0.610939,-0.628908 -0.323439,0 -0.61094,0.2875 -0.592971,0.628908 v 7.78049 c -0.08984,1.006253 -0.431251,1.455473 -1.060159,1.886724 -0.521095,0.359376 -1.563285,0.467189 -2.012505,0.521095 -0.197657,0.01797 -0.539064,0.161719 -0.521096,0.59297 0.01797,0.323439 0.197657,0.61094 0.646877,0.592971 0.970315,-0.01797 2.10235,-0.269532 2.677351,-0.772659 0.646877,-0.575001 1.401567,-1.167972 1.473442,-2.821101 z m 9.882812,2.857039 -3.647666,-10.889093 c -0.08984,-0.233594 -0.269532,-0.359376 -0.521095,-0.359376 -0.287501,0 -0.503127,0.143751 -0.592971,0.395314 l -3.611728,10.78128 c -0.107813,0.359376 0.125781,0.808596 0.575001,0.808596 0.377345,0 0.485158,-0.161719 0.575002,-0.431251 l 1.060159,-3.162509 h 3.935167 l 1.04219,3.162509 c 0.07188,0.269532 0.30547,0.431251 0.575002,0.431251 0.359376,0 0.718752,-0.395314 0.610939,-0.736721 z M 25.455416,21.203509 H 22.310877 L 23.9101,16.459746 Z m 12.146887,4.204699 V 14.626929 c 0,-0.323439 -0.287501,-0.592971 -0.610939,-0.61094 -0.215626,0 -0.359376,0.05391 -0.485158,0.233595 L 33.397604,18.903503 30.30697,14.30349 c -0.125781,-0.179688 -0.2875,-0.287501 -0.503126,-0.287501 -0.323438,0 -0.59297,0.287501 -0.59297,0.61094 v 10.781279 c 0,0.323439 0.269532,0.575002 0.59297,0.575002 0.323438,0 0.610939,-0.251563 0.610939,-0.575002 v -8.804711 l 2.479695,3.755479 c 0.125781,0.179688 0.2875,0.251563 0.503126,0.251563 0.233594,0 0.377345,-0.08984 0.503126,-0.287501 l 2.497663,-3.755479 v 8.840649 c 0,0.323439 0.269532,0.592971 0.592971,0.592971 0.323438,0 0.610939,-0.269532 0.610939,-0.592971 z"
       id="text1"
       style="font-size:17.9688px;font-family:Isonorm;-inkscape-font-specification:'Isonorm, Normal';fill:#ffffff;fill-rule:evenodd;stroke-width:0.0367542;stroke-linejoin:bevel"
       aria-label="JAM" />
  </g>
</svg>
