<?xml version="1.0" encoding="UTF-8" standalone="no"?>
<!-- Created with Inkscape (http://www.inkscape.org/) -->

<svg
   width="32.021107"
   height="37.839622"
   viewBox="0 0 32.021107 37.839622"
   version="1.1"
   id="svg1"
   xmlns:inkscape="http://www.inkscape.org/namespaces/inkscape"
   xmlns:sodipodi="http://sodipodi.sourceforge.net/DTD/sodipodi-0.dtd"
   xmlns="http://www.w3.org/2000/svg"
   xmlns:svg="http://www.w3.org/2000/svg">
  <sodipodi:namedview
     id="namedview1"
     pagecolor="#ffffff"
     bordercolor="#000000"
     borderopacity="0.25"
     inkscape:showpageshadow="2"
     inkscape:pageopacity="0.0"
     inkscape:pagecheckerboard="0"
     inkscape:deskcolor="#d1d1d1"
     inkscape:document-units="mm"
     showgrid="true">
    <inkscape:grid
       id="grid1"
       units="mm"
       originx="-3.9336269"
       originy="-3.7573529"
       spacingx="3.7795276"
       spacingy="3.7795276"
       empcolor="#0099e5"
       empopacity="0.30196078"
       color="#0099e5"
       opacity="0.14901961"
       empspacing="5"
       enabled="true"
       visible="true" />
    <inkscape:page
       x="0"
       y="0"
       width="32.021107"
       height="37.839622"
       id="page2"
       margin="0"
       bleed="0" />
  </sodipodi:namedview>
  <defs
     id="defs1" />
  <g
     inkscape:label="Calque 1"
     inkscape:groupmode="layer"
     id="layer1"
     transform="translate(-3.9336269,-3.7573528)">
    <rect
       style="fill:#ffffff;fill-opacity:1;fill-rule:evenodd;stroke:#000000;stroke-width:0.0192436;stroke-linecap:round;stroke-linejoin:bevel;stroke-miterlimit:0;stroke-dasharray:none;stroke-opacity:1"
       id="rect1"
       width="32.001865"
       height="37.820381"
       x="3.9432487"
       y="3.7669747" />
    <path
       d="m 28.007273,30.573269 v -3.1489 c 0,-2.671794 -1.240476,-5.295877 -3.101189,-6.393221 1.57445,-1.288186 2.862636,-3.626005 2.862636,-6.250088 0,-2.242399 -0.572527,-3.864559 -1.956135,-5.439009 C 24.524399,7.8630224 22.329711,6.8133891 19.84876,6.8133891 h -6.393221 c -0.858791,0 -1.57445,0.7633697 -1.57445,1.6221605 0,0.8587908 0.715659,1.5744494 1.57445,1.5744494 h 6.393221 c 1.479029,0 2.719504,0.572528 3.530584,1.479029 0.954213,1.001923 1.240476,3.244321 1.240476,3.244321 0,1.479029 -0.429395,2.528662 -1.526739,3.530585 -1.001923,0.906501 -1.908424,1.192765 -3.244321,1.192765 h -3.005768 c -0.858791,0 -1.57445,0.715659 -1.57445,1.574449 0,0.858791 0.715659,1.622161 1.57445,1.622161 h 3.19661 c 1.335897,0 2.290109,0.286264 3.244321,1.192765 1.145055,1.001923 1.52674,2.051556 1.52674,3.578295 v 3.1489 c 0,1.383607 -0.238553,2.290109 -1.192766,3.339742 -0.81108,0.858791 -2.051555,1.431318 -3.578295,1.431318 h -6.34551 c -0.858791,0 -1.57445,0.76337 -1.57445,1.62216 0,0.858791 0.715659,1.57445 1.57445,1.57445 h 6.34551 c 2.528662,0 4.675639,-1.001922 6.011536,-2.528662 1.335897,-1.526739 1.956135,-3.148899 1.956135,-5.439008 z"
       id="text1"
       style="font-weight:500;font-size:47.7106px;font-family:Isonorm;-inkscape-font-specification:'Isonorm, Medium';fill:#0014ff;fill-rule:evenodd;stroke-width:0.111822;stroke-linecap:round;stroke-linejoin:bevel;stroke-miterlimit:0"
       aria-label="3" />
  </g>
</svg>
