<?xml version="1.0" encoding="UTF-8" standalone="no"?>
<!-- Created with Inkscape (http://www.inkscape.org/) -->

<svg
   width="30.030001"
   height="30.030001"
   viewBox="0 0 30.030001 30.030001"
   version="1.1"
   id="svg1"
   xmlns="http://www.w3.org/2000/svg"
   xmlns:svg="http://www.w3.org/2000/svg">
  <defs
     id="defs1" />
  <g
     id="layer1"
     transform="translate(-9.9849996,-9.9849996)">
    <circle
       style="fill:#ffffff;fill-opacity:1;fill-rule:evenodd;stroke:#000000;stroke-width:0.03;stroke-linecap:butt;stroke-linejoin:bevel;stroke-dasharray:none;stroke-opacity:1"
       id="path3"
       cx="25"
       cy="25"
       r="15" />
    <circle
       style="fill:none;fill-opacity:1;fill-rule:evenodd;stroke:#000000;stroke-width:0.41791;stroke-linecap:butt;stroke-linejoin:bevel;stroke-dasharray:none;stroke-opacity:1"
       id="path2"
       cx="25"
       cy="25"
       r="13.791045" />
    <path
       d="m 23.429849,27.795636 c 0.08314,-1.600476 -0.436493,-2.743673 -1.683617,-3.762158 0.706704,-0.748274 0.997699,-1.454978 0.997699,-2.494248 0,-1.725188 -1.03927,-3.471162 -2.785243,-3.471162 h -4.157081 c -0.207854,0 -0.332566,0.06236 -0.478064,0.207854 -0.145498,0.166284 -0.207854,0.290996 -0.207854,0.49885 v 12.47124 c 0,0.207854 0,0.374138 0.166283,0.540421 0.145498,0.145498 0.311781,0.145498 0.519635,0.145498 h 4.157081 c 2.099325,0 3.367234,-2.03697 3.471161,-4.136295 z m -2.07854,-6.256406 c 0,0.976914 -0.415708,2.07854 -1.392621,2.07854 h -3.450377 v -4.15708 h 3.450377 c 0.976913,0 1.392621,1.101627 1.392621,2.07854 z m 0.685919,6.23562 c 0,1.351051 -0.706704,2.764459 -2.07854,2.764459 h -3.450377 v -5.528917 h 3.450377 c 1.371836,0 2.07854,1.413407 2.07854,2.764458 z m 12.824587,3.304879 -4.219436,-12.595953 c -0.103927,-0.27021 -0.311781,-0.415708 -0.602777,-0.415708 -0.332566,0 -0.581991,0.166284 -0.685918,0.457279 l -4.177865,12.471241 c -0.124713,0.415708 0.145497,0.935343 0.665132,0.935343 0.436494,0 0.561206,-0.187069 0.665133,-0.49885 l 1.226339,-3.658231 h 4.552002 l 1.205554,3.658231 c 0.08314,0.311781 0.353351,0.49885 0.665132,0.49885 0.415708,0 0.831416,-0.457279 0.706704,-0.852202 z m -3.034668,-4.6975 h -3.637445 l 1.8499,-5.487346 z"
       id="text3"
       style="font-size:20.7854px;font-family:Isonorm;-inkscape-font-specification:'Isonorm, Normal';fill-rule:evenodd;stroke-width:0.0425154;stroke-linejoin:bevel"
       aria-label="BA" />
  </g>
</svg>
