<?xml version="1.0" encoding="UTF-8"?>
<svg xmlns="http://www.w3.org/2000/svg" xmlns:xlink="http://www.w3.org/1999/xlink" width="19.719474" height="14" viewBox="0 0 19.719474 14">
<path fill-rule="evenodd" fill="rgb(100%, 100%, 100%)" fill-opacity="1" stroke-width="0.03" stroke-linecap="butt" stroke-linejoin="bevel" stroke="rgb(0%, 0%, 0%)" stroke-opacity="1" stroke-miterlimit="4" d="M 1.014216 0.0122935 L 30.014644 0.0122935 C 30.567853 0.0122935 31.016566 0.461007 31.016566 1.014216 L 31.016566 21.015783 C 31.016566 21.568992 30.567853 22.017705 30.014644 22.017705 L 1.014216 22.017705 C 0.461007 22.017705 0.0122935 21.568992 0.0122935 21.015783 L 0.0122935 1.014216 C 0.0122935 0.461007 0.461007 0.0122935 1.014216 0.0122935 Z M 1.014216 0.0122935 " transform="matrix(0.635497, 0, 0, 0.635497, 0, 0)"/>
<path fill-rule="evenodd" fill="rgb(0%, 0%, 0%)" fill-opacity="1" stroke-width="0.0529917" stroke-linecap="butt" stroke-linejoin="bevel" stroke="rgb(0%, 0%, 0%)" stroke-opacity="1" stroke-miterlimit="4" d="M 20.696151 18.802948 L 20.696151 3.257784 C 20.696151 2.79063 20.308905 2.372651 19.841751 2.372651 C 19.374597 2.372651 18.962764 2.79063 18.962764 3.257784 L 18.962764 9.293906 L 12.072243 9.293906 L 12.072243 3.257784 C 12.072243 2.79063 11.654263 2.372651 11.187109 2.372651 C 10.719955 2.372651 10.332709 2.79063 10.332709 3.257784 L 10.332709 18.802948 C 10.332709 19.263955 10.719955 19.657348 11.187109 19.657348 C 11.654263 19.657348 12.072243 19.263955 12.072243 18.802948 L 12.072243 11.027293 L 18.962764 11.027293 L 18.962764 18.802948 C 18.962764 19.263955 19.374597 19.657348 19.841751 19.657348 C 20.308905 19.657348 20.696151 19.263955 20.696151 18.802948 Z M 20.696151 18.802948 " transform="matrix(0.635497, 0, 0, 0.635497, 0, 0)"/>
</svg>
