<?xml version="1.0" encoding="UTF-8" standalone="no"?>
<!-- Initially created with Inkscape, optimized by hand -->

<svg
   version="1.1"
   width="20"
   height="17.320995"
   id="svg1"
   xmlns="http://www.w3.org/2000/svg"
   xmlns:svg="http://www.w3.org/2000/svg">
  <defs
     id="defs1" />
  <path
     id="Fond"
     d="M 20,-1.2580566e-6 H 3.1098633e-6 L 10.000003,17.320999 Z"
     fill="#edd827"
     style="stroke-width:0.1" />
  <path
     d="m 12.137598,7.8081727 c 0,-0.192 -0.16,-0.352001 -0.352001,-0.352001 h -0.714669 v -1.077337 c 0,-0.192 -0.16,-0.341334 -0.352001,-0.341334 -0.192,0 -0.362668,0.16 -0.362668,0.352001 v 1.06667 H 8.6922541 l 1.301338,-4.554681 c 0.05333,-0.202667 -0.08533,-0.426668 -0.341335,-0.426668 -0.128,-0.01067 -0.298667,0.07467 -0.341334,0.234667 l -1.440005,5.01335 c -0.032,0.138667 0.032,0.298667 0.096,0.341334 0.08533,0.07467 0.149334,0.106667 0.256001,0.106667 h 2.1333399 v 1.06667 c 0,0.192001 0.170668,0.352001 0.362668,0.352001 0.192001,0 0.352001,-0.16 0.352001,-0.352001 v -1.06667 h 0.714669 c 0.192001,0 0.352001,-0.170667 0.352001,-0.362668 z"
     id="text1"
     style="font-size:10.6667px;font-family:Isonorm;-inkscape-font-specification:'Isonorm, Normal';fill-rule:evenodd;stroke-width:0.08"
     aria-label="4" />
</svg>
