<?xml version="1.0" encoding="UTF-8" standalone="no"?>
<!-- Initially created with Inkscape, optimized by hand -->

<svg
   version="1.1"
   width="20"
   height="17.320995"
   id="svg1"
   xmlns="http://www.w3.org/2000/svg"
   xmlns:svg="http://www.w3.org/2000/svg">
  <defs
     id="defs1" />
  <path
     id="Fond"
     d="M 20,-1.2580566e-6 H 3.1098633e-6 L 10.000003,17.320999 Z"
     fill="#edd827"
     style="stroke-width:0.1" />
  <path
     d="m 8.8458641,9.2268437 v -6.389353 c 0,-0.106667 -0.032,-0.192001 -0.106667,-0.266668 -0.064,-0.07467 -0.362667,-0.149334 -0.501335,-0.01067 l -1.429337,1.429337 c -0.149334,0.149334 -0.096,0.426668 0.01067,0.533335 0.096,0.106667 0.352001,0.128001 0.490669,-0.01067 l 0.821335,-0.832003 v 5.557351 c 0,0.192001 0.170668,0.352001 0.362668,0.352001 0.192001,0 0.352001,-0.16 0.352001,-0.362668 z m 4.4373379,0.01067 c 0,-0.192001 -0.160001,-0.362668 -0.352002,-0.362668 h -2.208007 l 2.304008,-3.669345 c 0.192,-0.320001 0.256001,-0.576002 0.256001,-0.949336 0.02133,-1.06667 -0.789336,-1.738672 -1.770673,-1.781339 -0.778669,-0.02133 -1.312004,0.330668 -1.7280049,1.00267 -0.08533,0.149334 -0.128001,0.565335 0.2986669,0.597335 0.128001,0 0.234668,-0.04267 0.298668,-0.16 0.277334,-0.490669 0.533335,-0.736003 1.13067,-0.725336 0.736003,0.01067 1.056004,0.480001 1.06667,1.06667 0,0.224001 -0.032,0.352001 -0.149333,0.565335 l -2.6453419,4.20268 c -0.04267,0.07467 -0.05333,0.128 -0.05333,0.213334 0.01067,0.192001 0.160001,0.341334 0.3520009,0.352001 H 12.9312 c 0.192001,0 0.352002,-0.16 0.352002,-0.352001 z"
     id="text1"
     style="font-size:10.6667px;font-family:Isonorm;-inkscape-font-specification:'Isonorm, Normal';fill-rule:evenodd;stroke-width:0.08"
     aria-label="12" />
</svg>
