<?xml version="1.0" encoding="UTF-8"?>
<svg xmlns="http://www.w3.org/2000/svg" xmlns:xlink="http://www.w3.org/1999/xlink" width="18" height="15.588901" viewBox="0 0 18 15.588901">
<path fill-rule="nonzero" fill="rgb(92.941176%, 84.705882%, 15.294118%)" fill-opacity="1" d="M 18 0 L 0 0 L 9 15.589844 Z M 18 0 "/>
<path fill-rule="nonzero" fill="rgb(0%, 0%, 0%)" fill-opacity="1" d="M 8.335938 6.527344 C 8.335938 6.304688 8.355469 6.117188 8.398438 5.957031 C 8.445312 5.796875 8.519531 5.640625 8.625 5.496094 C 8.734375 5.351562 8.882812 5.199219 9.070312 5.042969 C 9.296875 4.851562 9.472656 4.691406 9.59375 4.5625 C 9.722656 4.433594 9.8125 4.308594 9.863281 4.1875 C 9.917969 4.0625 9.941406 3.914062 9.941406 3.742188 C 9.941406 3.460938 9.851562 3.246094 9.671875 3.09375 C 9.492188 2.945312 9.230469 2.867188 8.886719 2.867188 C 8.601562 2.867188 8.347656 2.90625 8.128906 2.980469 C 7.90625 3.050781 7.695312 3.136719 7.488281 3.234375 L 7.21875 2.625 C 7.453125 2.503906 7.707031 2.398438 7.988281 2.320312 C 8.273438 2.238281 8.589844 2.195312 8.9375 2.195312 C 9.492188 2.195312 9.917969 2.332031 10.222656 2.605469 C 10.523438 2.878906 10.675781 3.253906 10.675781 3.722656 C 10.675781 3.984375 10.632812 4.210938 10.542969 4.394531 C 10.464844 4.578125 10.34375 4.746094 10.1875 4.902344 C 10.035156 5.054688 9.855469 5.214844 9.644531 5.390625 C 9.453125 5.554688 9.304688 5.695312 9.199219 5.820312 C 9.101562 5.941406 9.035156 6.0625 9 6.183594 C 8.964844 6.300781 8.949219 6.445312 8.949219 6.613281 L 8.949219 6.761719 L 8.335938 6.761719 Z M 8.136719 8.042969 C 8.136719 7.828125 8.183594 7.679688 8.285156 7.589844 C 8.390625 7.503906 8.519531 7.460938 8.675781 7.460938 C 8.824219 7.460938 8.949219 7.503906 9.050781 7.589844 C 9.15625 7.679688 9.210938 7.828125 9.210938 8.042969 C 9.210938 8.253906 9.15625 8.40625 9.050781 8.5 C 8.949219 8.589844 8.824219 8.636719 8.675781 8.636719 C 8.519531 8.636719 8.390625 8.589844 8.285156 8.5 C 8.183594 8.40625 8.136719 8.253906 8.136719 8.042969 Z M 8.136719 8.042969 "/>
</svg>
