<?xml version="1.0" encoding="UTF-8" standalone="no"?>
<!-- Initially created with Inkscape, optimized by hand -->

<svg
   version="1.1"
   width="20"
   height="17.320995"
   id="svg1"
   xmlns="http://www.w3.org/2000/svg"
   xmlns:svg="http://www.w3.org/2000/svg">
  <defs
     id="defs1" />
  <path
     id="Fond"
     d="M 20,-1.2580566e-6 H 3.1098633e-6 L 10.000003,17.320999 Z"
     fill="#edd827"
     style="stroke-width:0.1" />
  <path
     d="m 11.776009,8.1921737 v -1.429337 c 0,-0.426668 -0.08533,-0.714669 -0.394668,-1.024004 -0.309335,-0.298667 -0.597336,-0.394668 -1.024004,-0.394668 H 9.1733341 c 0.138667,-0.416001 0.256,-0.640002 0.501335,-1.013336 0.4906679,-0.736002 0.9493359,-0.93867 1.2693369,-1.173337 0.16,-0.128001 0.181334,-0.373335 0.064,-0.533335 -0.138667,-0.192001 -0.352001,-0.170667 -0.512002,-0.05333 -0.352001,0.277334 -1.0240029,0.757336 -1.4506709,1.418671 -0.533335,0.832003 -0.821336,1.685339 -0.821336,2.773343 v 1.429337 c 0,0.885337 0.885336,1.418672 1.7813389,1.418672 0.885336,0 1.770673,-0.533335 1.770673,-1.418672 z m -0.704003,-0.02133 c 0,0.501335 -0.576002,0.714669 -1.06667,0.714669 -0.5013349,0 -1.0666699,-0.213334 -1.0666699,-0.714669 v -1.408007 c 0,-0.128001 0,-0.202668 0.01067,-0.341335 0.01067,-0.138667 0.032,-0.234667 0.064,-0.362668 h 1.3333379 c 0.213334,0 0.352001,0.032 0.512001,0.181334 0.149334,0.149334 0.213334,0.298668 0.213334,0.512002 z"
     id="text1"
     style="font-size:10.6667px;font-family:Isonorm;-inkscape-font-specification:'Isonorm, Normal';fill-rule:evenodd;stroke-width:0.08"
     aria-label="6" />
</svg>
