<?xml version="1.0" encoding="UTF-8" standalone="no"?>
<!-- Initially created with Inkscape, optimized by hand -->

<svg
   version="1.1"
   width="20"
   height="17.320999"
   id="svg1"
   xml:space="preserve"
   xmlns="http://www.w3.org/2000/svg"
   xmlns:svg="http://www.w3.org/2000/svg"><defs
     id="defs1" /><path
     id="Fond-7"
     d="M 20,0 H 0 l 10,17.321 z"
     fill="#edd827"
     style="stroke-width:0.1" /><g
     id="g6"
     transform="translate(-210.42999)"><path
       d="M 220.7,7.83335 V 4.2813389 C 220.7,3.3000025 219.91066,2.5 218.92933,2.5 c -0.98134,0 -1.78134,0.8000025 -1.78134,1.7813389 V 7.83335 c 0,0.9813364 0.8,1.7813389 1.78134,1.7813389 0.98133,0 1.77067,-0.8000025 1.77067,-1.7813389 z m -0.704,0 c 0,0.5973352 -0.48,1.06667 -1.06667,1.06667 -0.59734,0 -1.06667,-0.4693348 -1.06667,-1.06667 V 4.2813389 c 0,-0.5866685 0.46933,-1.06667 1.06667,-1.06667 0.58667,0 1.06667,0.4800015 1.06667,1.06667 z"
       id="text5"
       style="font-size:106.667px;font-family:Isonorm;-inkscape-font-specification:'Isonorm, Normal';fill-rule:evenodd;stroke-width:0.08"
       aria-label="0" /><path
       d="m 223.712,2.7448002 c 0,-0.1368 -0.108,-0.2448 -0.2376,-0.2448 h -1.9224 c -0.0648,0 -0.1152,0.0144 -0.1584,0.0576 -0.0576,0.0576 -0.0792,0.108 -0.0792,0.1872 v 1.9152 c 0,0.0792 0.0216,0.1296 0.0792,0.1872 0.0432,0.0432 0.0936,0.0576 0.1584,0.0576 h 0.9504 c 0.2016,0 0.3384,0.0432 0.4896,0.18 0.1656,0.1512 0.2304,0.3096 0.2304,0.54 v 0.4752 c 0,0.2088 -0.0432,0.3456 -0.1872,0.504 -0.1224,0.1296 -0.3096,0.216 -0.5328,0.216 h -0.9648 c -0.1296,0 -0.2376,0.1152 -0.2376,0.2448 0,0.1296 0.108,0.2376 0.2376,0.2376 h 0.9648 c 0.3744,0 0.7056,-0.1512 0.9,-0.3816 0.2088,-0.2304 0.2952,-0.4752 0.2952,-0.8208 v -0.4752 c 0,-0.4032 -0.18,-0.7488 -0.4176,-0.9432 -0.2016,-0.1656 -0.5688,-0.2592 -0.7776,-0.2592 h -0.7056 v -1.44 h 1.6776 c 0.1296,0 0.2376,-0.0936 0.2376,-0.2376 z"
       id="text6"
       style="font-size:72px;font-family:Isonorm;-inkscape-font-specification:'Isonorm, Normal';fill-rule:evenodd;stroke-width:0.08"
       aria-label="5" /></g></svg>
