<?xml version="1.0" encoding="UTF-8" standalone="no"?>
<!-- Initially created with Inkscape, optimized by hand -->

<svg
   version="1.1"
   width="20"
   height="17.320995"
   id="svg1"
   xmlns="http://www.w3.org/2000/svg"
   xmlns:svg="http://www.w3.org/2000/svg">
  <defs
     id="defs1" />
  <path
     id="Fond"
     d="M 20,-1.2580566e-6 H 3.1098633e-6 L 10.000003,17.320999 Z"
     fill="#edd827"
     style="stroke-width:0.1" />
  <path
     d="m 11.802676,7.8081727 v -0.704002 c 0,-0.597335 -0.277335,-1.184004 -0.693336,-1.429338 0.352001,-0.288001 0.640002,-0.810669 0.640002,-1.397338 0,-0.501335 -0.128,-0.864002 -0.437335,-1.216003 -0.288,-0.330668 -0.778669,-0.565336 -1.3333369,-0.565336 h -1.429338 c -0.192001,0 -0.352001,0.170668 -0.352001,0.362668 0,0.192001 0.16,0.352001 0.352001,0.352001 h 1.429338 c 0.3306679,0 0.6080019,0.128001 0.7893359,0.330668 0.213334,0.224001 0.277334,0.725336 0.277334,0.725336 0,0.330667 -0.096,0.565335 -0.341334,0.789335 -0.224001,0.202668 -0.426668,0.266668 -0.7253359,0.266668 h -0.672002 c -0.192001,0 -0.352001,0.16 -0.352001,0.352001 0,0.192001 0.16,0.362668 0.352001,0.362668 h 0.7146689 c 0.298667,0 0.512001,0.064 0.725335,0.266667 0.256001,0.224001 0.341335,0.458669 0.341335,0.800003 v 0.704002 c 0,0.309334 -0.05333,0.512002 -0.266668,0.746669 -0.181334,0.192001 -0.458668,0.320001 -0.800002,0.320001 H 8.6026661 c -0.192001,0 -0.352002,0.170667 -0.352002,0.362668 0,0.192001 0.160001,0.352001 0.352002,0.352001 h 1.4186709 c 0.565335,0 1.045336,-0.224001 1.344004,-0.565335 0.298668,-0.341334 0.437335,-0.704002 0.437335,-1.216004 z"
     id="text1"
     style="font-size:10.6667px;font-family:Isonorm;-inkscape-font-specification:'Isonorm, Normal';fill-rule:evenodd;stroke-width:0.08"
     aria-label="3" />
</svg>
