<?xml version="1.0" encoding="UTF-8" standalone="no"?>
<!-- Initially created with Inkscape, optimized by hand -->

<svg
   version="1.1"
   width="20"
   height="17.320995"
   id="svg1"
   xmlns="http://www.w3.org/2000/svg"
   xmlns:svg="http://www.w3.org/2000/svg">
  <defs
     id="defs1" />
  <path
     id="Fond"
     d="M 20,-1.2580566e-6 H 3.1098633e-6 L 10.000003,17.320999 Z"
     fill="#edd827"
     style="stroke-width:0.1" />
  <path
     d="m 8.8460701,9.2268437 v -6.389353 c 0,-0.106667 -0.032,-0.192001 -0.106667,-0.266668 -0.064,-0.07467 -0.362667,-0.149334 -0.501335,-0.01067 l -1.429337,1.429337 c -0.149334,0.149334 -0.096,0.426668 0.01067,0.533335 0.096,0.106667 0.352001,0.128001 0.490669,-0.01067 l 0.821335,-0.832003 v 5.557351 c 0,0.192001 0.170668,0.352001 0.362668,0.352001 0.192001,0 0.352001,-0.16 0.352001,-0.362668 z m 4.4373379,-6.389353 c 0,-0.202668 -0.160001,-0.362668 -0.352002,-0.362668 h -2.848009 c -0.096,0 -0.1706669,0.02133 -0.2346669,0.08533 -0.08533,0.08533 -0.117334,0.16 -0.117334,0.277334 v 2.837342 c 0,0.117334 0.032,0.192001 0.117334,0.277334 0.064,0.064 0.138667,0.08533 0.2346669,0.08533 h 1.408005 c 0.298667,0 0.501335,0.064 0.725336,0.266667 0.245334,0.224001 0.341334,0.458669 0.341334,0.800003 v 0.704002 c 0,0.309334 -0.064,0.512002 -0.277334,0.746669 -0.181334,0.192001 -0.458668,0.320001 -0.789336,0.320001 h -1.429338 c -0.1920009,0 -0.3520009,0.170667 -0.3520009,0.362668 0,0.192001 0.16,0.352001 0.3520009,0.352001 h 1.429338 c 0.554668,0 1.045337,-0.224001 1.333337,-0.565335 0.309335,-0.341334 0.437335,-0.704002 0.437335,-1.216004 v -0.704002 c 0,-0.597335 -0.266667,-1.109337 -0.618668,-1.397338 -0.298668,-0.245334 -0.84267,-0.384001 -1.152004,-0.384001 h -1.045337 v -2.13334 h 2.485341 c 0.192001,0 0.352002,-0.138667 0.352002,-0.352001 z"
     id="text1"
     style="font-size:10.6667px;font-family:Isonorm;-inkscape-font-specification:'Isonorm, Normal';fill-rule:evenodd;stroke-width:0.08"
     aria-label="15" />
</svg>
