<?xml version="1.0" encoding="UTF-8" standalone="no"?>
<!-- Initially created with Inkscape, optimized by hand -->

<svg
   version="1.1"
   width="20"
   height="17.320995"
   id="svg1"
   xmlns="http://www.w3.org/2000/svg"
   xmlns:svg="http://www.w3.org/2000/svg">
  <defs
     id="defs1" />
  <path
     id="Fond"
     d="M 20,-1.2580566e-6 H 3.1098633e-6 L 10.000003,17.320999 Z"
     fill="#edd827"
     style="stroke-width:0.1" />
  <path
     d="m 8.8460701,9.2268437 v -6.389353 c 0,-0.106667 -0.032,-0.192001 -0.106667,-0.266668 -0.064,-0.07467 -0.362667,-0.149334 -0.501335,-0.01067 l -1.429337,1.429337 c -0.149334,0.149334 -0.096,0.426668 0.01067,0.533335 0.096,0.106667 0.352001,0.128001 0.490669,-0.01067 l 0.821335,-0.832003 v 5.557351 c 0,0.192001 0.170668,0.352001 0.362668,0.352001 0.192001,0 0.352001,-0.16 0.352001,-0.362668 z m 4.4373379,-1.418671 v -3.552011 c 0,-0.981336 -0.789336,-1.781339 -1.770673,-1.781339 -0.981336,0 -1.7813389,0.800003 -1.7813389,1.781339 v 3.552011 c 0,0.981337 0.8000029,1.781339 1.7813389,1.781339 0.981337,0 1.770673,-0.800002 1.770673,-1.781339 z m -0.704003,0 c 0,0.597335 -0.480001,1.06667 -1.06667,1.06667 -0.597335,0 -1.06667,-0.469335 -1.06667,-1.06667 v -3.552011 c 0,-0.586669 0.469335,-1.06667 1.06667,-1.06667 0.586669,0 1.06667,0.480001 1.06667,1.06667 z"
     id="text1"
     style="font-size:10.6667px;font-family:Isonorm;-inkscape-font-specification:'Isonorm, Normal';fill-rule:evenodd;stroke-width:0.08"
     aria-label="10" />
</svg>
