<?xml version="1.0" encoding="UTF-8" standalone="no"?>
<!-- Initially created with Inkscape, optimized by hand -->

<svg
   version="1.1"
   width="20"
   height="17.320995"
   id="svg1"
   xmlns="http://www.w3.org/2000/svg"
   xmlns:svg="http://www.w3.org/2000/svg">
  <defs
     id="defs1" />
  <path
     id="Fond"
     d="M 20,-1.2580566e-6 H 3.1098633e-6 L 10.000003,17.320999 Z"
     fill="#edd827"
     style="stroke-width:0.1" />
  <path
     d="m 8.6186671,5.3228317 c 0.064,0.117334 0.149334,0.202667 0.234667,0.288001 -0.170667,0.138667 -0.266667,0.234667 -0.384001,0.426668 -0.149334,0.245334 -0.245334,0.416001 -0.245334,0.704002 v 1.429338 c 0,0.885336 0.885336,1.418671 1.7813389,1.418671 0.885336,0 1.770672,-0.533335 1.770672,-1.418671 v -1.429338 c 0,-0.277334 -0.02133,-0.458668 -0.170667,-0.704002 -0.128,-0.202667 -0.256001,-0.320001 -0.458668,-0.426668 0.106667,-0.096 0.16,-0.170667 0.245334,-0.288001 0.149334,-0.245334 0.213334,-0.416001 0.213334,-0.714669 v -0.704002 c 0,-0.832003 -0.768002,-1.429338 -1.600005,-1.429338 -0.8320029,0 -1.6000049,0.597335 -1.6000049,1.429338 v 0.704002 c 0,0.298668 0.064,0.469335 0.213334,0.714669 z m 2.2720069,-0.714669 c 0,0.448001 -0.448001,0.714669 -0.885336,0.714669 -0.4480019,0 -0.8960029,-0.266668 -0.8960029,-0.714669 v -0.704002 c 0,-0.448002 0.448001,-0.714669 0.8960029,-0.714669 0.437335,0 0.885336,0.266667 0.885336,0.714669 z m 0.181334,3.562678 c 0,0.490668 -0.565335,0.704002 -1.056003,0.704002 -0.5013349,0.01067 -1.0773369,-0.202667 -1.0773369,-0.704002 v -1.429338 c 0,-0.501335 0.554668,-0.725335 1.0666699,-0.725335 0.501335,0 1.06667,0.224 1.06667,0.725335 z"
     id="text1"
     style="font-size:10.6667px;font-family:Isonorm;-inkscape-font-specification:'Isonorm, Normal';fill-rule:evenodd;stroke-width:0.08"
     aria-label="8" />
</svg>
