<?xml version="1.0" encoding="UTF-8" standalone="no"?>
<!-- Initially created with Inkscape, optimized by hand -->

<svg
   version="1.1"
   width="200"
   height="173.21"
   id="svg16562"
   sodipodi:docname="PVA-empty.svg"
   inkscape:version="1.2.2 (b0a8486541, 2022-12-01)"
   xmlns:inkscape="http://www.inkscape.org/namespaces/inkscape"
   xmlns:sodipodi="http://sodipodi.sourceforge.net/DTD/sodipodi-0.dtd"
   xmlns="http://www.w3.org/2000/svg"
   xmlns:svg="http://www.w3.org/2000/svg">
  <defs
     id="defs16566" />
  <sodipodi:namedview
     id="namedview16564"
     pagecolor="#ffffff"
     bordercolor="#666666"
     borderopacity="1.0"
     inkscape:showpageshadow="2"
     inkscape:pageopacity="0.0"
     inkscape:pagecheckerboard="0"
     inkscape:deskcolor="#d1d1d1"
     showgrid="false"
     inkscape:zoom="2.6104483"
     inkscape:cx="-96.918219"
     inkscape:cy="80.829028"
     inkscape:window-width="1920"
     inkscape:window-height="1129"
     inkscape:window-x="0"
     inkscape:window-y="0"
     inkscape:window-maximized="1"
     inkscape:current-layer="svg16562" />
  <path
     id="Fond"
     d="M200,0 L0,0 L100,173.21 z"
     fill="#edd827" />
  <g
     aria-label="?"
     id="text6048"
     style="font-weight:200;font-size:96.9804px;line-height:1.25;font-family:'Cascadia Code';-inkscape-font-specification:'Cascadia Code Ultra-Light';font-variant-ligatures:none;text-align:center;letter-spacing:-10px;word-spacing:0px;text-anchor:middle;fill:#ffffff;stroke-width:7.27354">
    <path
       d="m 92.629516,72.508273 q 0,-3.685255 0.678863,-6.303726 0.775843,-2.715451 2.52149,-5.139961 1.842628,-2.42451 4.946001,-5.042981 3.78224,-3.200353 5.81882,-5.333922 2.13357,-2.133569 3.0064,-4.170157 0.87282,-2.036588 0.87282,-4.946 0,-4.65506 -3.00639,-7.17655 -3.00639,-2.52149 -8.728239,-2.52149 -4.752039,0 -8.437294,1.260745 -3.685256,1.163765 -7.07957,2.812431 l -3.006392,-6.788628 q 3.879216,-2.036588 8.534275,-3.394314 4.75204,-1.357725 10.570864,-1.357725 9.213136,0 14.256116,4.558079 5.04298,4.558078 5.04298,12.413491 0,4.364118 -1.4547,7.467491 -1.35773,3.006392 -3.9762,5.624863 -2.52149,2.52149 -6.01278,5.430902 -3.20036,2.715451 -4.946,4.75204 -1.64867,2.036588 -2.23055,4.073177 -0.581886,1.939608 -0.581886,4.752039 v 1.648667 h -6.788628 z m -2.230549,16.87459 q 0,-3.588275 1.648667,-5.042981 1.745647,-1.454706 4.364118,-1.454706 2.42451,0 4.170158,1.454706 1.74565,1.454706 1.74565,5.042981 0,3.491294 -1.74565,5.042981 -1.745648,1.551686 -4.170158,1.551686 -2.618471,0 -4.364118,-1.551686 -1.648667,-1.551687 -1.648667,-5.042981 z"
       style="font-weight:normal;font-family:System-ui;-inkscape-font-specification:System-ui;fill:#000000"
       id="path9626" />
  </g>
</svg>
