<?xml version="1.0" encoding="UTF-8" standalone="no"?>
<!-- Initially created with Inkscape, optimized by hand -->

<svg
   version="1.1"
   width="20"
   height="17.320995"
   id="svg1"
   xmlns="http://www.w3.org/2000/svg"
   xmlns:svg="http://www.w3.org/2000/svg">
  <defs
     id="defs1" />
  <path
     id="Fond"
     d="M 20,-1.2580566e-6 H 3.1098633e-6 L 10.000003,17.320999 Z"
     fill="#edd827"
     style="stroke-width:0.1" />
  <path
     d="m 11.781343,5.3228317 v -1.418671 c 0,-0.896003 -0.896003,-1.429338 -1.781339,-1.429338 -0.8853359,0 -1.7813389,0.533335 -1.7813389,1.429338 v 1.418671 c 0,0.426668 0.096,0.714669 0.405335,1.024003 0.298667,0.309335 0.597335,0.394668 1.024003,0.394668 H 10.82134 c -0.128,0.426668 -0.245334,0.640002 -0.490668,1.013337 -0.4906679,0.736002 -0.9600029,0.949336 -1.2693379,1.184003 -0.16,0.117334 -0.181333,0.362668 -0.07467,0.522669 0.149333,0.192 0.362667,0.181334 0.512001,0.05333 0.362668,-0.277334 1.0240029,-0.757335 1.4506709,-1.418671 0.544002,-0.832003 0.832003,-1.685339 0.832003,-2.773342 z m -0.714669,0 c 0,0.138667 0,0.202667 -0.01067,0.341334 -0.02133,0.138668 -0.032,0.234668 -0.064,0.373335 H 9.6586701 c -0.213334,0 -0.352001,-0.04267 -0.512002,-0.192001 -0.16,-0.149334 -0.213334,-0.298667 -0.213334,-0.512001 v -1.418671 c 0,-0.501335 0.565335,-0.714669 1.0666699,-0.714669 0.501335,0 1.06667,0.213334 1.06667,0.714669 z"
     id="text1"
     style="font-size:10.6667px;font-family:Isonorm;-inkscape-font-specification:'Isonorm, Normal';fill-rule:evenodd;stroke-width:0.08"
     aria-label="9" />
</svg>
