<?xml version="1.0" encoding="UTF-8"?>
<svg xmlns="http://www.w3.org/2000/svg" xmlns:xlink="http://www.w3.org/1999/xlink" width="18" height="15.588901" viewBox="0 0 18 15.588901">
<path fill-rule="nonzero" fill="rgb(92.941176%, 84.705882%, 15.294118%)" fill-opacity="1" d="M 18 0 L 0 0 L 9 15.589844 Z M 18 0 "/>
<path fill-rule="nonzero" fill="rgb(0%, 0%, 0%)" fill-opacity="1" d="M 11.050781 4.945312 C 11.050781 5.394531 11.011719 5.835938 10.929688 6.273438 C 10.851562 6.703125 10.710938 7.097656 10.5 7.449219 C 10.296875 7.800781 10.007812 8.078125 9.628906 8.289062 C 9.257812 8.5 8.777344 8.601562 8.1875 8.601562 C 8.070312 8.601562 7.933594 8.59375 7.777344 8.578125 C 7.625 8.566406 7.5 8.542969 7.402344 8.515625 L 7.402344 7.859375 C 7.628906 7.9375 7.886719 7.976562 8.171875 7.976562 C 8.578125 7.976562 8.914062 7.90625 9.175781 7.773438 C 9.441406 7.640625 9.65625 7.460938 9.8125 7.234375 C 9.96875 7 10.082031 6.730469 10.152344 6.429688 C 10.222656 6.121094 10.261719 5.796875 10.273438 5.460938 L 10.222656 5.460938 C 10.09375 5.660156 9.90625 5.832031 9.664062 5.976562 C 9.425781 6.117188 9.117188 6.183594 8.738281 6.183594 C 8.203125 6.183594 7.769531 6.023438 7.4375 5.695312 C 7.113281 5.363281 6.949219 4.898438 6.949219 4.300781 C 6.949219 3.863281 7.03125 3.488281 7.191406 3.175781 C 7.363281 2.859375 7.59375 2.617188 7.890625 2.449219 C 8.1875 2.28125 8.539062 2.195312 8.9375 2.195312 C 9.335938 2.195312 9.691406 2.296875 10.011719 2.503906 C 10.332031 2.699219 10.585938 3.003906 10.773438 3.410156 C 10.957031 3.8125 11.050781 4.324219 11.050781 4.945312 Z M 8.9375 2.84375 C 8.578125 2.84375 8.28125 2.960938 8.046875 3.199219 C 7.820312 3.4375 7.707031 3.800781 7.707031 4.292969 C 7.707031 4.691406 7.804688 5.011719 7.996094 5.242188 C 8.195312 5.46875 8.496094 5.582031 8.902344 5.582031 C 9.183594 5.582031 9.425781 5.527344 9.628906 5.417969 C 9.832031 5.300781 9.988281 5.15625 10.101562 4.980469 C 10.214844 4.804688 10.273438 4.625 10.273438 4.441406 C 10.273438 4.191406 10.226562 3.941406 10.125 3.699219 C 10.027344 3.453125 9.878906 3.25 9.679688 3.085938 C 9.484375 2.925781 9.234375 2.84375 8.9375 2.84375 Z M 8.9375 2.84375 "/>
</svg>
