<?xml version="1.0" encoding="UTF-8" standalone="no"?>
<!-- Initially created with Inkscape, optimized by hand -->

<svg
   version="1.1"
   width="20"
   height="17.320999"
   id="svg1"
   xml:space="preserve"
   xmlns="http://www.w3.org/2000/svg"
   xmlns:svg="http://www.w3.org/2000/svg"><defs
     id="defs1" /><g
     id="g1"
     transform="scale(0.1)"><path
       id="Bord"
       d="M 200,0 H 0 l 100,173.21 z"
       fill="#0b9b7b" /><path
       id="Fond"
       d="M 183,9.21 H 17 l 83,143 z"
       fill="#edd827" /></g><g
     id="g6"
     transform="translate(-1.10533)"><path
       style="font-size:10.6667px;font-family:Isonorm;-inkscape-font-specification:'Isonorm, Normal';fill-rule:evenodd;stroke-width:0.08"
       d="M 12.908003,7.8333499 V 7.1293477 c 0,-0.5973352 -0.277334,-1.1840038 -0.693335,-1.4293379 0.352001,-0.2880009 0.640002,-0.8106692 0.640002,-1.3973377 0,-0.5013349 -0.128001,-0.8640027 -0.437335,-1.2160038 C 12.129334,2.7560005 11.638666,2.5213331 11.083998,2.5213331 H 9.6546598 c -0.1920006,0 -0.3520011,0.1706672 -0.3520011,0.3626678 0,0.1920007 0.1600005,0.3520012 0.3520011,0.3520012 h 1.4293382 c 0.330667,0 0.608002,0.1280004 0.789335,0.3306677 0.213334,0.2240007 0.277335,0.7253356 0.277335,0.7253356 0,0.3306677 -0.096,0.5653351 -0.341335,0.7893358 -0.224,0.2026673 -0.426668,0.2666675 -0.725335,0.2666675 h -0.672002 c -0.192001,0 -0.352002,0.1600005 -0.352002,0.3520011 0,0.1920006 0.160001,0.3626679 0.352002,0.3626679 h 0.714668 c 0.298668,0 0.512002,0.064 0.725336,0.2666675 0.256001,0.2240007 0.341334,0.4586681 0.341334,0.8000025 v 0.7040022 c 0,0.3093343 -0.05333,0.5120016 -0.266667,0.746669 -0.181334,0.1920006 -0.458668,0.320001 -0.800003,0.320001 H 9.7079933 c -0.1920006,0 -0.3520011,0.1706673 -0.3520011,0.3626679 0,0.1920006 0.1600005,0.3520011 0.3520011,0.3520011 h 1.4186707 c 0.565336,0 1.045337,-0.2240007 1.344005,-0.5653351 0.298667,-0.3413345 0.437334,-0.7040023 0.437334,-1.2160039 z"
       id="text1"
       aria-label="3" /></g></svg>
