<?xml version="1.0" encoding="UTF-8" standalone="no"?>
<!-- Initially created with Inkscape, optimized by hand -->

<svg
   version="1.1"
   width="20"
   height="17.320999"
   id="svg1"
   xml:space="preserve"
   xmlns="http://www.w3.org/2000/svg"
   xmlns:svg="http://www.w3.org/2000/svg"><defs
     id="defs1" /><g
     id="g1"
     transform="scale(0.1)"><path
       id="Bord"
       d="M 200,0 H 0 l 100,173.21 z"
       fill="#0b9b7b" /><path
       id="Fond"
       d="M 183,9.21 H 17 l 83,143 z"
       fill="#edd827" /></g><g
     id="g6"
     transform="translate(-1.10533)"><path
       style="font-size:10.6667px;font-family:Isonorm;-inkscape-font-specification:'Isonorm, Normal';fill-rule:evenodd;stroke-width:0.08"
       d="m 12.892003,2.8626675 c 0,-0.2026673 -0.160001,-0.3626678 -0.352001,-0.3626678 H 9.6919927 c -0.096,0 -0.1706672,0.021333 -0.2346674,0.085334 -0.085334,0.085334 -0.1173337,0.1600005 -0.1173337,0.2773342 v 2.8373423 c 0,0.1173337 0.032,0.1920006 0.1173337,0.2773342 0.064,0.064 0.1386671,0.085334 0.2346674,0.085334 h 1.4080043 c 0.298668,0 0.501335,0.064 0.725336,0.2666675 0.245334,0.2240007 0.341334,0.4586681 0.341334,0.8000025 v 0.7040022 c 0,0.3093343 -0.064,0.5120016 -0.277334,0.746669 -0.181334,0.1920006 -0.458668,0.320001 -0.789336,0.320001 H 9.6706593 c -0.1920006,0 -0.3520011,0.1706673 -0.3520011,0.3626679 0,0.1920006 0.1600005,0.3520011 0.3520011,0.3520011 h 1.4293377 c 0.554669,0 1.045337,-0.2240007 1.333338,-0.5653351 C 12.742669,8.70802 12.870669,8.3453522 12.870669,7.8333506 V 7.1293477 c 0,-0.5973352 -0.266667,-1.1093368 -0.618668,-1.3973378 C 11.953333,5.4866758 11.409331,5.3480087 11.099997,5.3480087 H 10.05466 v -2.13334 h 2.485342 c 0.192,0 0.352001,-0.1386671 0.352001,-0.3520012 z"
       id="text1"
       aria-label="5" /></g></svg>
