<?xml version="1.0" encoding="UTF-8"?>
<svg xmlns="http://www.w3.org/2000/svg" xmlns:xlink="http://www.w3.org/1999/xlink" width="18" height="15.588901" viewBox="0 0 18 15.588901">
<path fill-rule="nonzero" fill="rgb(4.313725%, 60.784314%, 48.235294%)" fill-opacity="1" d="M 18 0 L 0 0 L 9 15.589844 Z M 18 0 "/>
<path fill-rule="nonzero" fill="rgb(92.941176%, 84.705882%, 15.294118%)" fill-opacity="1" d="M 16.46875 0.828125 L 1.53125 0.828125 L 9 13.699219 Z M 16.46875 0.828125 "/>
<path fill-rule="nonzero" fill="rgb(0%, 0%, 0%)" fill-opacity="1" d="M 7.597656 8.097656 L 6.949219 8.097656 L 6.949219 4.324219 C 6.949219 4.109375 6.953125 3.9375 6.957031 3.804688 C 6.960938 3.671875 6.96875 3.539062 6.980469 3.398438 C 6.898438 3.476562 6.824219 3.546875 6.761719 3.601562 C 6.695312 3.65625 6.609375 3.726562 6.511719 3.8125 L 5.9375 4.28125 L 5.589844 3.835938 L 7.046875 2.703125 L 7.597656 2.703125 Z M 7.597656 8.097656 "/>
<path fill-rule="nonzero" fill="rgb(0%, 0%, 0%)" fill-opacity="1" d="M 12.410156 5.390625 C 12.410156 5.972656 12.351562 6.46875 12.230469 6.886719 C 12.109375 7.300781 11.917969 7.617188 11.65625 7.839844 C 11.394531 8.0625 11.046875 8.171875 10.613281 8.171875 C 10.003906 8.171875 9.550781 7.929688 9.261719 7.441406 C 8.972656 6.945312 8.828125 6.261719 8.828125 5.390625 C 8.828125 4.808594 8.886719 4.308594 9.003906 3.894531 C 9.125 3.480469 9.316406 3.167969 9.578125 2.949219 C 9.839844 2.730469 10.183594 2.617188 10.613281 2.617188 C 11.21875 2.617188 11.667969 2.863281 11.964844 3.351562 C 12.261719 3.835938 12.410156 4.515625 12.410156 5.390625 Z M 9.496094 5.390625 C 9.496094 6.132812 9.578125 6.6875 9.742188 7.054688 C 9.914062 7.421875 10.203125 7.605469 10.613281 7.605469 C 11.015625 7.605469 11.304688 7.425781 11.472656 7.0625 C 11.652344 6.695312 11.738281 6.136719 11.738281 5.390625 C 11.738281 4.65625 11.652344 4.105469 11.472656 3.738281 C 11.304688 3.367188 11.015625 3.183594 10.613281 3.183594 C 10.203125 3.183594 9.914062 3.367188 9.742188 3.738281 C 9.578125 4.105469 9.496094 4.65625 9.496094 5.390625 Z M 9.496094 5.390625 "/>
</svg>
