<?xml version="1.0" encoding="UTF-8" standalone="no"?>
<!-- Initially created with Inkscape, optimized by hand -->

<svg
   version="1.1"
   width="20"
   height="17.320999"
   id="svg1"
   xml:space="preserve"
   xmlns="http://www.w3.org/2000/svg"
   xmlns:svg="http://www.w3.org/2000/svg"><defs
     id="defs1" /><g
     id="g1"
     transform="scale(0.1)"><path
       id="Bord"
       d="M 200,0 H 0 l 100,173.21 z"
       fill="#0b9b7b" /><path
       id="Fond"
       d="M 183,9.21 H 17 l 83,143 z"
       fill="#edd827" /></g><g
     id="g6"
     transform="translate(-1.12733)"><path
       style="font-size:10.6667px;font-family:Isonorm;-inkscape-font-specification:'Isonorm, Normal';fill-rule:evenodd;stroke-width:0.08"
       d="m 12.892003,2.916001 c 0.032,-0.1386671 0,-0.2346674 -0.096,-0.3306677 -0.07467,-0.064 -0.149334,-0.085334 -0.245334,-0.085334 H 9.7026595 c -0.085334,0 -0.1600005,0.021333 -0.2346674,0.085334 -0.085334,0.064 -0.1173337,0.1600005 -0.1173337,0.2773342 v 0.7040023 c 0,0.1920006 0.1600005,0.3626678 0.3520011,0.3626678 0.1920006,0 0.3626675,-0.1706672 0.3626675,-0.3626678 V 3.2146687 h 2.03734 l -1.312004,5.9413521 c -0.05333,0.213334 0.04267,0.4693348 0.341334,0.4586681 0.160001,-0.010667 0.298668,-0.106667 0.330668,-0.2666675 z"
       id="text1"
       aria-label="7" /></g></svg>
