<?xml version="1.0" encoding="UTF-8" standalone="no"?>
<!-- Initially created with Inkscape, optimized by hand -->

<svg
   version="1.1"
   width="20"
   height="17.320999"
   id="svg1"
   xml:space="preserve"
   xmlns="http://www.w3.org/2000/svg"
   xmlns:svg="http://www.w3.org/2000/svg"><defs
     id="defs1" /><g
     id="g1"
     transform="scale(0.1)"><path
       id="Bord"
       d="M 200,0 H 0 l 100,173.21 z"
       fill="#0b9b7b" /><path
       id="Fond"
       d="M 183,9.21 H 17 l 83,143 z"
       fill="#edd827" /></g><g
     id="g6"
     transform="translate(-1.12733)"><path
       style="font-size:10.6667px;font-family:Isonorm;-inkscape-font-specification:'Isonorm, Normal';fill-rule:evenodd;stroke-width:0.08"
       d="M 12.908669,5.3480087 V 3.9293376 c 0,-0.8960029 -0.896003,-1.4293379 -1.781339,-1.4293379 -0.885336,0 -1.7813387,0.533335 -1.7813387,1.4293379 v 1.4186711 c 0,0.426668 0.096,0.714669 0.4053346,1.0240033 0.2986681,0.3093343 0.5973351,0.3946679 1.0240031,0.3946679 h 1.173337 c -0.128,0.426668 -0.245334,0.640002 -0.490668,1.0133365 -0.490668,0.7360023 -0.960003,0.9493363 -1.269337,1.1840038 -0.160001,0.1173337 -0.181334,0.3626678 -0.07467,0.5226683 0.149334,0.1920006 0.362668,0.1813339 0.512001,0.053334 0.362668,-0.2773342 1.024004,-0.7573358 1.450672,-1.4186712 0.544001,-0.8320026 0.832002,-1.6853386 0.832002,-2.7733421 z m -0.714669,0 c 0,0.1386671 0,0.2026673 -0.01067,0.3413344 -0.02133,0.1386671 -0.032,0.2346674 -0.064,0.3733346 h -1.333337 c -0.213334,0 -0.352001,-0.042667 -0.512002,-0.1920007 -0.16,-0.1493338 -0.213334,-0.2986676 -0.213334,-0.5120016 V 3.9400043 c 0,-0.5013349 0.565335,-0.7146689 1.06667,-0.7146689 0.501335,0 1.06667,0.213334 1.06667,0.7146689 z"
       id="text1"
       aria-label="9" /></g></svg>
