<?xml version="1.0" encoding="UTF-8" standalone="no"?>
<!-- Initially created with Inkscape, optimized by hand -->

<svg
   version="1.1"
   width="20"
   height="17.320999"
   id="svg1"
   xml:space="preserve"
   xmlns="http://www.w3.org/2000/svg"
   xmlns:svg="http://www.w3.org/2000/svg"><defs
     id="defs1" /><g
     id="g1"
     transform="scale(0.1)"><path
       id="Bord"
       d="M 200,0 H 0 l 100,173.21 z"
       fill="#0b9b7b" /><path
       id="Fond"
       d="M 183,9.21 H 17 l 83,143 z"
       fill="#edd827" /></g><g
     id="g6"
     transform="translate(-1.12733)"><path
       style="font-size:10.6667px;font-family:Isonorm;-inkscape-font-specification:'Isonorm, Normal';fill-rule:evenodd;stroke-width:0.08"
       d="M 9.9733979,9.2520211 V 2.8626675 c 0,-0.106667 -0.032,-0.1920006 -0.106667,-0.2666675 C 9.8027309,2.521333 9.5040631,2.4466662 9.365396,2.585333 L 7.9360582,4.0146712 c -0.1493339,0.1493338 -0.096,0.426668 0.010667,0.533335 0.096,0.106667 0.3520011,0.1280004 0.4906682,-0.010667 L 9.258729,3.7053369 v 5.5573509 c 0,0.1920006 0.1706672,0.3520011 0.3626678,0.3520011 0.1920006,0 0.3520011,-0.1600005 0.3520011,-0.3626678 z M 14.410735,7.8333499 V 4.2813387 c 0,-0.9813364 -0.789336,-1.781339 -1.770672,-1.781339 -0.981337,0 -1.781339,0.8000026 -1.781339,1.781339 v 3.5520112 c 0,0.9813364 0.800002,1.781339 1.781339,1.781339 0.981336,0 1.770672,-0.8000026 1.770672,-1.781339 z m -0.704002,0 c 0,0.5973352 -0.480002,1.06667 -1.06667,1.06667 -0.597335,0 -1.06667,-0.4693348 -1.06667,-1.06667 V 4.2813387 c 0,-0.5866685 0.469335,-1.06667 1.06667,-1.06667 0.586668,0 1.06667,0.4800015 1.06667,1.06667 z"
       id="text1"
       aria-label="10" /></g></svg>
