<?xml version="1.0" encoding="UTF-8" standalone="no"?>
<!-- Initially created with Inkscape, optimized by hand -->

<svg
   version="1.1"
   width="20"
   height="17.320999"
   id="svg1"
   xml:space="preserve"
   xmlns="http://www.w3.org/2000/svg"
   xmlns:svg="http://www.w3.org/2000/svg"><defs
     id="defs1" /><g
     id="g1"
     transform="scale(0.1)"><path
       id="Bord"
       d="M 200,0 H 0 l 100,173.21 z"
       fill="#0b9b7b" /><path
       id="Fond"
       d="M 183,9.21 H 17 l 83,143 z"
       fill="#edd827" /></g><g
     id="g6"
     transform="translate(-0.41799)"><path
       style="font-size:10.6667px;font-family:Isonorm;-inkscape-font-specification:'Isonorm, Normal';fill-rule:evenodd;stroke-width:0.08"
       d="M 9.2640621,9.2520211 V 2.8626675 c 0,-0.106667 -0.032,-0.1920006 -0.106667,-0.2666675 C 9.0933951,2.521333 8.7947273,2.4466662 8.6560602,2.585333 L 7.2267223,4.0146712 c -0.1493338,0.1493338 -0.096,0.426668 0.010667,0.533335 0.096,0.106667 0.3520012,0.1280004 0.4906683,-0.010667 L 8.5493932,3.7053369 v 5.5573509 c 0,0.1920006 0.1706672,0.3520011 0.3626678,0.3520011 0.1920006,0 0.3520011,-0.1600005 0.3520011,-0.3626678 z M 13.701399,2.8626675 c 0,-0.2026673 -0.16,-0.3626678 -0.352001,-0.3626678 h -2.848009 c -0.096,0 -0.170667,0.021333 -0.234667,0.085334 -0.08533,0.085334 -0.117334,0.1600005 -0.117334,0.2773342 v 2.8373423 c 0,0.1173337 0.032,0.1920006 0.117334,0.2773342 0.064,0.064 0.138667,0.085334 0.234667,0.085334 h 1.408005 c 0.298667,0 0.501335,0.064 0.725335,0.2666675 0.245334,0.2240007 0.341335,0.4586681 0.341335,0.8000025 v 0.7040022 c 0,0.3093343 -0.064,0.5120016 -0.277335,0.746669 -0.181333,0.1920006 -0.458668,0.320001 -0.789335,0.320001 h -1.429338 c -0.192001,0 -0.352001,0.1706673 -0.352001,0.3626679 0,0.1920006 0.16,0.3520011 0.352001,0.3520011 h 1.429338 c 0.554668,0 1.045336,-0.2240007 1.333337,-0.5653351 C 13.552065,8.70802 13.680066,8.3453522 13.680066,7.8333506 V 7.1293477 c 0,-0.5973352 -0.266668,-1.1093368 -0.618669,-1.3973378 C 12.76273,5.4866758 12.218728,5.3480087 11.909394,5.3480087 h -1.045337 v -2.13334 h 2.485341 c 0.192001,0 0.352001,-0.1386671 0.352001,-0.3520012 z"
       id="text1"
       aria-label="15" /></g></svg>
