<?xml version="1.0" encoding="UTF-8"?>
<svg xmlns="http://www.w3.org/2000/svg" xmlns:xlink="http://www.w3.org/1999/xlink" width="18" height="15.588901" viewBox="0 0 18 15.588901">
<path fill-rule="nonzero" fill="rgb(4.313725%, 60.784314%, 48.235294%)" fill-opacity="1" d="M 18 0 L 0 0 L 9 15.589844 Z M 18 0 "/>
<path fill-rule="nonzero" fill="rgb(92.941176%, 84.705882%, 15.294118%)" fill-opacity="1" d="M 16.46875 0.828125 L 1.53125 0.828125 L 9 13.699219 Z M 16.46875 0.828125 "/>
<path fill-rule="nonzero" fill="rgb(0%, 0%, 0%)" fill-opacity="1" d="M 11.332031 7.101562 L 10.421875 7.101562 L 10.421875 8.515625 L 9.679688 8.515625 L 9.679688 7.101562 L 6.695312 7.101562 L 6.695312 6.445312 L 9.628906 2.25 L 10.421875 2.25 L 10.421875 6.414062 L 11.332031 6.414062 Z M 9.679688 4.449219 C 9.679688 4.144531 9.6875 3.890625 9.699219 3.679688 C 9.710938 3.464844 9.71875 3.261719 9.722656 3.070312 L 9.691406 3.070312 C 9.644531 3.179688 9.585938 3.300781 9.515625 3.425781 C 9.445312 3.554688 9.378906 3.664062 9.3125 3.75 L 7.445312 6.414062 L 9.679688 6.414062 Z M 9.679688 4.449219 "/>
</svg>
