<?xml version="1.0" encoding="UTF-8" standalone="no"?>
<!-- Initially created with Inkscape, optimized by hand -->

<svg
   version="1.1"
   width="20"
   height="17.320999"
   id="svg1"
   xml:space="preserve"
   xmlns="http://www.w3.org/2000/svg"
   xmlns:svg="http://www.w3.org/2000/svg"><defs
     id="defs1" /><g
     id="g1"
     transform="scale(0.1)"><path
       id="Bord"
       d="M 200,0 H 0 l 100,173.21 z"
       fill="#0b9b7b" /><path
       id="Fond"
       d="M 183,9.21 H 17 l 83,143 z"
       fill="#edd827" /></g><g
     id="g6"
     transform="translate(-1.10533)"><path
       style="font-size:10.6667px;font-family:Isonorm;-inkscape-font-specification:'Isonorm, Normal';fill-rule:evenodd;stroke-width:0.08"
       d="M 12.881336,8.2173511 V 6.7880133 c 0,-0.426668 -0.08533,-0.7146689 -0.394668,-1.0240033 C 12.177334,5.4653424 11.889333,5.3693421 11.462665,5.3693421 h -1.184004 c 0.138667,-0.4160013 0.256001,-0.640002 0.501335,-1.0133365 0.490668,-0.7360023 0.949337,-0.9386696 1.269338,-1.173337 0.16,-0.1280005 0.181334,-0.3733346 0.064,-0.5333351 C 11.974667,2.4573329 11.761333,2.4786663 11.601332,2.596 11.249331,2.8733342 10.577329,3.3533358 10.150661,4.0146712 9.6173259,4.8466738 9.329325,5.7000098 9.329325,6.7880133 v 1.4293378 c 0,0.8853362 0.885336,1.4186712 1.781339,1.4186712 0.885336,0 1.770672,-0.533335 1.770672,-1.4186712 z m -0.704002,-0.021333 c 0,0.5013349 -0.576002,0.7146689 -1.06667,0.7146689 -0.501335,0 -1.06667,-0.213334 -1.06667,-0.7146689 V 6.7880133 c 0,-0.1280004 0,-0.2026673 0.01067,-0.3413344 0.01067,-0.1386671 0.032,-0.2346674 0.064,-0.3626678 h 1.333337 c 0.213334,0 0.352002,0.032 0.512002,0.1813339 0.149334,0.1493338 0.213334,0.2986676 0.213334,0.5120016 z"
       id="text1"
       aria-label="6" /></g></svg>
