<?xml version="1.0" encoding="UTF-8" standalone="no"?>
<!-- Initially created with Inkscape, optimized by hand -->

<svg
   version="1.1"
   width="20"
   height="17.320999"
   id="svg1"
   xml:space="preserve"
   xmlns="http://www.w3.org/2000/svg"
   xmlns:svg="http://www.w3.org/2000/svg"><defs
     id="defs1" /><g
     id="g1"
     transform="scale(0.1)"><path
       id="Bord"
       d="M 200,0 H 0 l 100,173.21 z"
       fill="#0b9b7b" /><path
       id="Fond"
       d="M 183,9.21 H 17 l 83,143 z"
       fill="#edd827" /></g><g
     id="g6"
     transform="translate(-1.12733)"><path
       style="font-size:10.6667px;font-family:Isonorm;-inkscape-font-specification:'Isonorm, Normal';fill-rule:evenodd;stroke-width:0.08"
       d="m 9.7459929,5.3480087 c 0.064,0.1173337 0.1493339,0.2026673 0.2346675,0.2880009 C 9.8099932,5.7746767 9.7139928,5.870677 9.5966591,6.0626777 9.4473253,6.3080118 9.351325,6.478679 9.351325,6.7666799 v 1.4293378 c 0,0.8853362 0.885336,1.4186712 1.781339,1.4186712 0.885336,0 1.770672,-0.533335 1.770672,-1.4186712 V 6.7666799 c 0,-0.2773342 -0.02133,-0.4586681 -0.170667,-0.7040022 -0.128,-0.2026674 -0.256001,-0.3200011 -0.458668,-0.4266681 0.106667,-0.096 0.16,-0.1706672 0.245334,-0.2880009 0.149334,-0.2453341 0.213334,-0.4160013 0.213334,-0.7146689 V 3.9293376 c 0,-0.8320026 -0.768002,-1.4293379 -1.600005,-1.4293379 -0.832003,0 -1.6000051,0.5973353 -1.6000051,1.4293379 v 0.7040022 c 0,0.2986676 0.064,0.4693348 0.213334,0.7146689 z M 12.018,4.6333398 c 0,0.4480014 -0.448001,0.7146689 -0.885336,0.7146689 -0.448001,0 -0.896003,-0.2666675 -0.896003,-0.7146689 V 3.9293376 c 0,-0.4480014 0.448002,-0.7146689 0.896003,-0.7146689 0.437335,0 0.885336,0.2666675 0.885336,0.7146689 z m 0.181334,3.5626779 c 0,0.4906682 -0.565335,0.7040022 -1.056003,0.7040022 -0.501335,0.010667 -1.077337,-0.2026673 -1.077337,-0.7040022 V 6.7666799 c 0,-0.5013349 0.554668,-0.7253356 1.06667,-0.7253356 0.501335,0 1.06667,0.2240007 1.06667,0.7253356 z"
       id="text1"
       aria-label="8" /></g></svg>
