<?xml version="1.0" encoding="UTF-8" standalone="no"?>
<!-- Initially created with Inkscape, optimized by hand -->

<svg
   version="1.1"
   width="20"
   height="17.320999"
   id="svg1"
   xml:space="preserve"
   xmlns="http://www.w3.org/2000/svg"
   xmlns:svg="http://www.w3.org/2000/svg"><defs
     id="defs1" /><g
     id="g1"
     transform="scale(0.1)"><path
       id="Bord"
       d="M 200,0 H 0 l 100,173.21 z"
       fill="#0b9b7b" /><path
       id="Fond"
       d="M 183,9.21 H 17 l 83,143 z"
       fill="#edd827" /></g><g
     id="g6"
     transform="translate(-1.10533)"><path
       style="font-size:10.6667px;font-family:Isonorm;-inkscape-font-specification:'Isonorm, Normal';fill-rule:evenodd;stroke-width:0.08"
       d="m 12.882297,9.2626878 c 0,-0.1920006 -0.16,-0.3626679 -0.352001,-0.3626679 H 10.322289 L 12.626296,5.230675 c 0.192001,-0.320001 0.256001,-0.5760018 0.256001,-0.9493363 0.02133,-1.06667 -0.789336,-1.7386722 -1.770672,-1.781339 -0.778669,-0.021333 -1.3120042,0.3306677 -1.7280055,1.0026699 -0.085334,0.1493338 -0.1280004,0.5653351 0.2986676,0.5973352 0.1280004,0 0.2346674,-0.042667 0.2986676,-0.1600005 C 10.258289,3.4493361 10.51429,3.204002 11.111625,3.2146687 c 0.736002,0.010667 1.056003,0.4800015 1.06667,1.06667 0,0.2240007 -0.032,0.3520011 -0.149334,0.5653351 l -2.6453415,4.20268 c -0.042667,0.074667 -0.053334,0.1280004 -0.053334,0.213334 0.010667,0.1920006 0.1600005,0.3413344 0.3520011,0.3520011 h 2.8480094 c 0.192001,0 0.352001,-0.1600005 0.352001,-0.3520011 z"
       id="text1"
       aria-label="2" /></g></svg>
