<?xml version="1.0" encoding="UTF-8" standalone="no"?>
<!-- Initially created with Inkscape, optimized by hand -->

<svg
   version="1.1"
   width="20"
   height="17.320999"
   id="svg1"
   xml:space="preserve"
   xmlns="http://www.w3.org/2000/svg"
   xmlns:svg="http://www.w3.org/2000/svg"><defs
     id="defs1" /><g
     id="g1"
     transform="scale(0.1)"><path
       id="Bord"
       d="M 200,0 H 0 l 100,173.21 z"
       fill="#0b9b7b" /><path
       id="Fond"
       d="M 183,9.21 H 17 l 83,143 z"
       fill="#edd827" /></g><g
     id="g6"
     transform="translate(-0.418)"><path
       style="font-size:10.6667px;font-family:Isonorm;-inkscape-font-specification:'Isonorm, Normal';fill-rule:evenodd;stroke-width:0.08"
       d="M 9.2638566,9.2520211 V 2.8626675 c 0,-0.106667 -0.032,-0.1920006 -0.106667,-0.2666675 C 9.0931896,2.521333 8.7945218,2.4466662 8.6558547,2.585333 L 7.2265168,4.0146712 c -0.1493338,0.1493338 -0.096,0.426668 0.010667,0.533335 0.096,0.106667 0.3520011,0.1280004 0.4906682,-0.010667 L 8.549188,3.7053366 v 5.5573509 c 0,0.1920006 0.1706672,0.3520011 0.3626678,0.3520011 0.1920006,0 0.3520011,-0.1600005 0.3520008,-0.3626675 z m 4.4373374,0.010667 c 0,-0.1920006 -0.160001,-0.3626679 -0.352001,-0.3626679 H 11.141186 L 13.445193,5.230675 c 0.192001,-0.320001 0.256001,-0.5760018 0.256001,-0.9493363 0.02133,-1.06667 -0.789336,-1.7386722 -1.770672,-1.781339 -0.77867,-0.021333 -1.312005,0.3306677 -1.728006,1.0026699 -0.08533,0.1493338 -0.128,0.5653351 0.298668,0.5973352 0.128,0 0.234667,-0.042667 0.298667,-0.1600005 0.277334,-0.4906682 0.533335,-0.7360023 1.130671,-0.7253356 0.736002,0.010667 1.056003,0.4800015 1.06667,1.06667 0,0.2240007 -0.032,0.3520011 -0.149334,0.5653351 l -2.645342,4.20268 c -0.04267,0.074667 -0.05333,0.1280004 -0.05333,0.213334 0.01067,0.1920006 0.16,0.3413344 0.352001,0.3520011 h 2.848009 c 0.192,0 0.352001,-0.1600005 0.352001,-0.3520011 z"
       id="text1"
       aria-label="12" /></g></svg>
