<?xml version="1.0" encoding="UTF-8" standalone="no"?>
<!-- Initially created with Inkscape, optimized by hand -->

<svg
   version="1.1"
   width="20"
   height="17.320999"
   id="svg1"
   xml:space="preserve"
   xmlns="http://www.w3.org/2000/svg"
   xmlns:svg="http://www.w3.org/2000/svg"><defs
     id="defs1" /><g
     id="g1"
     transform="scale(0.1)"><path
       id="Bord"
       d="M 200,0 H 0 l 100,173.21 z"
       fill="#0b9b7b" /><path
       id="Fond"
       d="M 183,9.21 H 17 l 83,143 z"
       fill="#edd827" /></g><g
     id="g6"
     transform="translate(-0.41799)"><path
       style="font-size:10.6667px;font-family:Isonorm;-inkscape-font-specification:'Isonorm, Normal';fill-rule:evenodd;stroke-width:0.08"
       d="M 8.906728,9.2520211 V 2.8626675 C 8.906728,2.7560005 8.874728,2.6706669 8.800061,2.596 8.736061,2.521333 8.4373932,2.4466662 8.2987261,2.585333 L 6.8693882,4.0146712 c -0.1493338,0.1493338 -0.096,0.426668 0.010667,0.533335 0.096,0.106667 0.3520011,0.1280004 0.4906682,-0.010667 l 0.821336,-0.8320026 v 5.5573509 c 0,0.1920006 0.1706672,0.3520011 0.3626678,0.3520011 0.1920006,0 0.3520011,-0.1600005 0.3520008,-0.3626675 z m 5.152006,-1.4186712 c 0,-0.1920006 -0.16,-0.3520011 -0.352001,-0.3520011 H 12.992064 V 6.4040121 c 0,-0.1920006 -0.16,-0.3413344 -0.352001,-0.3413344 -0.192001,0 -0.362668,0.1600005 -0.362668,0.3520011 v 1.06667 H 10.61339 l 1.301337,-4.5546811 c 0.05333,-0.2026673 -0.08533,-0.426668 -0.341334,-0.426668 -0.128001,-0.010667 -0.298668,0.074667 -0.341335,0.2346674 L 9.7920539,7.7480163 c -0.032,0.1386671 0.032,0.2986676 0.096,0.3413344 0.085334,0.074667 0.1493341,0.106667 0.2560011,0.106667 h 2.13334 v 1.0666701 c 0,0.1920006 0.170667,0.3520011 0.362668,0.3520011 0.192001,0 0.352001,-0.1600005 0.352001,-0.3520011 V 8.1960177 h 0.714669 c 0.192001,0 0.352001,-0.1706672 0.352001,-0.3626678 z"
       id="text1"
       aria-label="14" /></g></svg>
