<?xml version="1.0" encoding="UTF-8" standalone="no"?>
<!-- Initially created with Inkscape, optimized by hand -->

<svg
   version="1.1"
   width="200"
   height="173.21"
   id="svg9007"
   sodipodi:docname="PVJ-{100}.svg"
   inkscape:version="1.2.2 (b0a8486541, 2022-12-01)"
   xmlns:inkscape="http://www.inkscape.org/namespaces/inkscape"
   xmlns:sodipodi="http://sodipodi.sourceforge.net/DTD/sodipodi-0.dtd"
   xmlns="http://www.w3.org/2000/svg"
   xmlns:svg="http://www.w3.org/2000/svg">
  <defs
     id="defs9011" />
  <sodipodi:namedview
     id="namedview9009"
     pagecolor="#ffffff"
     bordercolor="#666666"
     borderopacity="1.0"
     inkscape:showpageshadow="2"
     inkscape:pageopacity="0.0"
     inkscape:pagecheckerboard="0"
     inkscape:deskcolor="#d1d1d1"
     showgrid="false"
     inkscape:zoom="5.9061253"
     inkscape:cx="25.397362"
     inkscape:cy="87.028292"
     inkscape:window-width="1920"
     inkscape:window-height="1129"
     inkscape:window-x="0"
     inkscape:window-y="0"
     inkscape:window-maximized="1"
     inkscape:current-layer="svg9007" />
  <path
     id="Bord"
     d="M200,0 L0,0 L100,173.21 z"
     fill="#0b9b7b" />
  <path
     id="Fond"
     d="M 183,9.21 L 17,9.21 L 100,152.21 z"
     fill="#edd827" />
  <g
     aria-label="10"
     id="text6048"
     style="font-weight:200;font-size:83.9663px;line-height:1.25;font-family:'Cascadia Code';-inkscape-font-specification:'Cascadia Code Ultra-Light';font-variant-ligatures:none;text-align:center;letter-spacing:-8.65807px;word-spacing:0px;text-anchor:middle;fill:#ffffff;stroke-width:6.29748">
    <path
       d="M 84.428999,89.96727 H 77.207897 V 48.068086 q 0,-3.610551 0.08397,-5.793675 0.08397,-2.183124 0.251899,-4.53418 -1.343461,1.343461 -2.435023,2.26709 -1.091562,0.923629 -2.770888,2.351056 l -6.381439,5.205911 -3.86245,-4.954012 16.205496,-12.594945 h 6.12954 z"
       style="font-weight:normal;font-family:System-ui;-inkscape-font-specification:System-ui;fill:#000000"
       id="path13356" />
    <path
       d="m 137.90603,59.907334 q 0,9.656125 -2.01519,16.625328 -2.01519,6.885236 -6.38144,10.579754 -4.36624,3.694517 -11.58734,3.694517 -10.15993,0 -15.02997,-8.144731 -4.786082,-8.228698 -4.786082,-22.754868 0,-9.740091 1.931222,-16.625327 2.01519,-6.885237 6.38144,-10.495788 4.36625,-3.694517 11.50339,-3.694517 10.07595,0 15.02996,8.144731 4.95401,8.060765 4.95401,22.670901 z m -32.41099,0 q 0,12.343046 2.77089,18.472586 2.85485,6.12954 9.65613,6.12954 6.7173,0 9.57215,-6.045573 2.93882,-6.12954 2.93882,-18.556553 0,-12.25908 -2.93882,-18.38862 -2.85485,-6.12954 -9.57215,-6.12954 -6.80128,0 -9.65613,6.12954 -2.77089,6.12954 -2.77089,18.38862 z"
       style="font-weight:normal;font-family:System-ui;-inkscape-font-specification:System-ui;fill:#000000"
       id="path13358" />
  </g>
</svg>
