<?xml version="1.0" encoding="UTF-8"?>
<svg xmlns="http://www.w3.org/2000/svg" xmlns:xlink="http://www.w3.org/1999/xlink" width="18" height="15.588901" viewBox="0 0 18 15.588901">
<path fill-rule="nonzero" fill="rgb(4.313725%, 60.784314%, 48.235294%)" fill-opacity="1" d="M 18 0 L 0 0 L 9 15.589844 Z M 18 0 "/>
<path fill-rule="nonzero" fill="rgb(92.941176%, 84.705882%, 15.294118%)" fill-opacity="1" d="M 16.46875 0.828125 L 1.53125 0.828125 L 9 13.699219 Z M 16.46875 0.828125 "/>
<path fill-rule="nonzero" fill="rgb(0%, 0%, 0%)" fill-opacity="1" d="M 6.992188 5.855469 C 6.992188 5.40625 7.03125 4.964844 7.105469 4.535156 C 7.1875 4.097656 7.328125 3.707031 7.535156 3.355469 C 7.742188 3.003906 8.035156 2.71875 8.40625 2.511719 C 8.777344 2.300781 9.257812 2.195312 9.847656 2.195312 C 9.96875 2.195312 10.101562 2.203125 10.25 2.214844 C 10.398438 2.226562 10.523438 2.246094 10.613281 2.273438 L 10.613281 2.929688 C 10.511719 2.894531 10.390625 2.867188 10.257812 2.851562 C 10.128906 2.832031 9.996094 2.824219 9.863281 2.824219 C 9.460938 2.824219 9.128906 2.890625 8.859375 3.027344 C 8.59375 3.160156 8.378906 3.34375 8.222656 3.574219 C 8.070312 3.808594 7.960938 4.074219 7.890625 4.378906 C 7.820312 4.679688 7.777344 5.003906 7.761719 5.347656 L 7.8125 5.347656 C 7.945312 5.144531 8.132812 4.972656 8.371094 4.832031 C 8.609375 4.6875 8.914062 4.613281 9.289062 4.613281 C 9.828125 4.613281 10.265625 4.78125 10.597656 5.113281 C 10.929688 5.4375 11.09375 5.902344 11.09375 6.507812 C 11.09375 7.160156 10.914062 7.671875 10.554688 8.042969 C 10.199219 8.417969 9.71875 8.601562 9.113281 8.601562 C 8.71875 8.601562 8.359375 8.503906 8.039062 8.304688 C 7.71875 8.109375 7.464844 7.804688 7.273438 7.398438 C 7.085938 6.992188 6.992188 6.476562 6.992188 5.855469 Z M 9.105469 7.957031 C 9.472656 7.957031 9.769531 7.839844 9.996094 7.609375 C 10.222656 7.371094 10.335938 7.003906 10.335938 6.507812 C 10.335938 6.113281 10.234375 5.796875 10.03125 5.566406 C 9.832031 5.332031 9.53125 5.214844 9.132812 5.214844 C 8.859375 5.214844 8.617188 5.273438 8.414062 5.390625 C 8.210938 5.5 8.050781 5.644531 7.933594 5.820312 C 7.824219 5.992188 7.769531 6.171875 7.769531 6.359375 C 7.769531 6.609375 7.820312 6.859375 7.917969 7.109375 C 8.015625 7.355469 8.164062 7.558594 8.363281 7.722656 C 8.5625 7.878906 8.808594 7.957031 9.105469 7.957031 Z M 9.105469 7.957031 "/>
</svg>
