<?xml version="1.0" encoding="UTF-8" standalone="no"?>
<!-- Initially created with Inkscape, optimized by hand -->

<svg
   version="1.1"
   width="20"
   height="14.096813"
   id="svg1"
   xmlns="http://www.w3.org/2000/svg"
   xmlns:svg="http://www.w3.org/2000/svg">
  <defs
     id="defs1" />
  <rect
     x="0"
     y="0"
     width="20"
     height="14.096812"
     style="fill:#ffffff;stroke:none;stroke-width:0.0590319"
     id="Fond" />
  <circle
     cx="10"
     cy="7.0484047"
     r="5.8441563"
     style="fill:none;stroke:#000000;stroke-width:0.590319"
     id="circle1" />
  <path
     d="M 8.8458644,10.243541 V 3.8541876 c 0,-0.106667 -0.032,-0.192001 -0.106667,-0.266668 -0.064,-0.07467 -0.362668,-0.149333 -0.501335,-0.01067 l -1.429338,1.429338 c -0.149334,0.149333 -0.096,0.426668 0.01067,0.533335 0.096,0.106667 0.352001,0.128 0.490668,-0.01067 l 0.821336,-0.832003 v 5.5573514 c 0,0.192001 0.170667,0.352001 0.362668,0.352001 0.192001,0 0.352001,-0.16 0.352001,-0.362668 z m 4.4373366,0.01067 c 0,-0.192 -0.16,-0.3626684 -0.352001,-0.3626684 H 10.723193 L 13.0272,6.2221976 c 0.192001,-0.320001 0.256001,-0.576001 0.256001,-0.949336 0.02133,-1.06667 -0.789336,-1.738672 -1.770672,-1.781339 -0.778669,-0.02133 -1.312004,0.330668 -1.7280046,1.00267 -0.08533,0.149334 -0.128001,0.565335 0.2986666,0.597335 0.128001,0 0.234668,-0.04267 0.298668,-0.16 0.277334,-0.490669 0.533335,-0.736003 1.13067,-0.725336 0.736002,0.01067 1.056003,0.480002 1.06667,1.06667 0,0.224001 -0.032,0.352001 -0.149334,0.565335 L 9.7845244,10.040877 c -0.04267,0.07467 -0.05333,0.128001 -0.05333,0.213334 0.01067,0.192001 0.160001,0.341335 0.3520006,0.352001 h 2.848009 c 0.192001,0 0.352001,-0.16 0.352001,-0.352001 z"
     id="text1"
     style="font-size:10.6667px;font-family:Isonorm;-inkscape-font-specification:'Isonorm, Normal';fill-rule:evenodd;stroke-width:0.0944511"
     aria-label="12" />
</svg>
