<?xml version="1.0" encoding="UTF-8" standalone="no"?>
<!-- Initially created with Inkscape, optimized by hand -->

<svg
   version="1.1"
   width="20"
   height="14.096813"
   id="svg1"
   xmlns="http://www.w3.org/2000/svg"
   xmlns:svg="http://www.w3.org/2000/svg">
  <defs
     id="defs1" />
  <rect
     x="0"
     y="0"
     width="20"
     height="14.096812"
     style="fill:#ffffff;stroke:none;stroke-width:0.0590319"
     id="Fond" />
  <circle
     cx="10"
     cy="7.0484047"
     r="5.8441563"
     style="fill:none;stroke:#000000;stroke-width:0.590319"
     id="circle1" />
  <path
     d="M 8.8460704,10.243084 V 3.8537296 c 0,-0.106667 -0.032,-0.192 -0.106667,-0.266667 -0.064,-0.07467 -0.362668,-0.149334 -0.501335,-0.01067 l -1.429338,1.429338 c -0.149334,0.149334 -0.096,0.426668 0.01067,0.533335 0.096,0.106667 0.352001,0.128 0.490668,-0.01067 l 0.821336,-0.832003 v 5.5573514 c 0,0.192001 0.170667,0.352001 0.362668,0.352001 0.192001,0 0.352001,-0.16 0.352001,-0.362667 z M 13.283407,3.8537296 c 0,-0.202667 -0.16,-0.362668 -0.352001,-0.362668 h -2.848009 c -0.096,0 -0.1706666,0.02133 -0.2346666,0.08533 -0.08533,0.08533 -0.117334,0.16 -0.117334,0.277334 v 2.837342 c 0,0.117334 0.032,0.192001 0.117334,0.277335 0.064,0.064 0.138667,0.08533 0.2346666,0.08533 h 1.408005 c 0.298667,0 0.501334,0.064 0.725335,0.266668 0.245334,0.224 0.341335,0.458668 0.341335,0.800002 v 0.704003 c 0,0.309334 -0.064,0.512001 -0.277335,0.746669 -0.181334,0.192 -0.458668,0.320001 -0.789335,0.320001 h -1.429338 c -0.1920006,0 -0.3520006,0.1706674 -0.3520006,0.3626674 0,0.192001 0.16,0.352001 0.3520006,0.352001 h 1.429338 c 0.554668,0 1.045336,-0.224 1.333337,-0.565335 0.309334,-0.3413344 0.437335,-0.7040024 0.437335,-1.2160034 v -0.704003 c 0,-0.597335 -0.266668,-1.109337 -0.618669,-1.397337 -0.298667,-0.245335 -0.842669,-0.384002 -1.152003,-0.384002 h -1.045337 v -2.13334 h 2.485341 c 0.192001,0 0.352001,-0.138667 0.352001,-0.352001 z"
     id="text1"
     style="font-size:10.6667px;font-family:Isonorm;-inkscape-font-specification:'Isonorm, Normal';fill-rule:evenodd;stroke-width:0.0944511"
     aria-label="15" />
</svg>
