<?xml version="1.0" encoding="UTF-8" standalone="no"?>
<!-- Initially created with Inkscape, optimized by hand -->

<svg
   version="1.1"
   width="20"
   height="14.096813"
   id="svg1"
   xmlns="http://www.w3.org/2000/svg"
   xmlns:svg="http://www.w3.org/2000/svg">
  <defs
     id="defs1" />
  <rect
     x="0"
     y="0"
     width="20"
     height="14.096812"
     style="fill:#ffffff;stroke:none;stroke-width:0.0590319"
     id="Fond" />
  <circle
     cx="10"
     cy="7.0484047"
     r="5.8441563"
     style="fill:none;stroke:#000000;stroke-width:0.590319"
     id="circle1" />
  <path
     d="m 11.764672,3.9068996 c 0.032,-0.138667 0,-0.234668 -0.096,-0.330668 -0.07467,-0.064 -0.149333,-0.08533 -0.245334,-0.08533 H 8.5753294 c -0.08533,0 -0.16,0.02133 -0.234667,0.08533 -0.08533,0.064 -0.117334,0.16 -0.117334,0.277334 v 0.704002 c 0,0.192001 0.160001,0.362668 0.352001,0.362668 0.192001,0 0.362668,-0.170667 0.362668,-0.362668 V 4.2055666 H 10.975337 L 9.6633334,10.146919 c -0.05333,0.213334 0.04267,0.469335 0.3413336,0.458668 0.160001,-0.01067 0.298668,-0.106667 0.330668,-0.266667 z"
     id="text1"
     style="font-size:10.6667px;font-family:Isonorm;-inkscape-font-specification:'Isonorm, Normal';fill-rule:evenodd;stroke-width:0.0944511"
     aria-label="7" />
</svg>
