<?xml version="1.0" encoding="UTF-8" standalone="no"?>
<!-- Initially created with Inkscape, optimized by hand -->

<svg
   version="1.1"
   width="20"
   height="14.096813"
   id="svg1"
   xmlns="http://www.w3.org/2000/svg"
   xmlns:svg="http://www.w3.org/2000/svg">
  <defs
     id="defs1" />
  <rect
     x="0"
     y="0"
     width="20"
     height="14.096812"
     style="fill:#ffffff;stroke:none;stroke-width:0.0590319"
     id="Fond" />
  <circle
     cx="10"
     cy="7.0484047"
     r="5.8441563"
     style="fill:none;stroke:#000000;stroke-width:0.590319"
     id="circle1" />
  <path
     d="m 11.776008,9.1945656 v -1.429337 c 0,-0.426668 -0.08533,-0.714669 -0.394668,-1.024004 -0.309334,-0.298667 -0.597335,-0.394668 -1.024003,-0.394668 H 9.1733334 c 0.138667,-0.416001 0.256001,-0.640002 0.501335,-1.013336 0.4906676,-0.736002 0.9493366,-0.93867 1.2693376,-1.173337 0.16,-0.128001 0.181333,-0.373335 0.064,-0.533335 -0.138667,-0.192001 -0.352001,-0.170667 -0.512002,-0.05333 -0.352001,0.277335 -1.0240026,0.757336 -1.4506706,1.418671 -0.533335,0.832003 -0.821336,1.685339 -0.821336,2.773343 v 1.429337 c 0,0.8853374 0.885336,1.4186724 1.7813386,1.4186724 0.885336,0 1.770672,-0.533335 1.770672,-1.4186724 z m -0.704002,-0.02133 c 0,0.501335 -0.576002,0.714669 -1.06667,0.714669 -0.5013346,0 -1.0666696,-0.213334 -1.0666696,-0.714669 v -1.408004 c 0,-0.128001 0,-0.202668 0.01067,-0.341335 0.01067,-0.138667 0.032,-0.234667 0.064,-0.362668 h 1.3333366 c 0.213334,0 0.352001,0.032 0.512002,0.181334 0.149334,0.149334 0.213334,0.298668 0.213334,0.512002 z"
     id="text1"
     style="font-size:10.6667px;font-family:Isonorm;-inkscape-font-specification:'Isonorm, Normal';fill-rule:evenodd;stroke-width:0.0944511"
     aria-label="6" />
</svg>
