<?xml version="1.0" encoding="UTF-8" standalone="no"?>
<!-- Initially created with Inkscape, optimized by hand -->

<svg
   version="1.1"
   width="20"
   height="14.096813"
   id="svg1"
   xmlns="http://www.w3.org/2000/svg"
   xmlns:svg="http://www.w3.org/2000/svg">
  <defs
     id="defs1" />
  <rect
     x="0"
     y="0"
     width="20"
     height="14.096812"
     style="fill:#ffffff;stroke:none;stroke-width:0.0590319"
     id="Fond" />
  <circle
     cx="10"
     cy="7.0484047"
     r="5.8441563"
     style="fill:none;stroke:#000000;stroke-width:0.590319"
     id="circle1" />
  <path
     d="m 11.776963,10.254208 c 0,-0.192 -0.16,-0.3626684 -0.352001,-0.3626684 H 9.2169554 l 2.3040076,-3.669345 c 0.192,-0.320001 0.256,-0.576001 0.256,-0.949336 0.02133,-1.06667 -0.789335,-1.738672 -1.770672,-1.781339 -0.7786686,-0.02133 -1.3120036,0.330668 -1.7280046,1.00267 -0.08533,0.149334 -0.128001,0.565335 0.298667,0.597335 0.128001,0 0.234668,-0.04267 0.298668,-0.16 0.277334,-0.490669 0.533335,-0.736003 1.1306696,-0.725336 0.736003,0.01067 1.056004,0.480002 1.06667,1.06667 0,0.224001 -0.032,0.352001 -0.149334,0.565335 L 8.2782864,10.040874 c -0.04267,0.07467 -0.05333,0.128001 -0.05333,0.213334 0.01067,0.192001 0.160001,0.341335 0.352001,0.352001 h 2.8480086 c 0.192001,0 0.352001,-0.16 0.352001,-0.352001 z"
     id="text1"
     style="font-size:10.6667px;font-family:Isonorm;-inkscape-font-specification:'Isonorm, Normal';fill-rule:evenodd;stroke-width:0.0944511"
     aria-label="2" />
</svg>
