<?xml version="1.0" encoding="UTF-8" standalone="no"?>
<!-- Initially created with Inkscape, optimized by hand -->

<svg
   version="1.1"
   width="20"
   height="14.096813"
   id="svg1"
   xmlns="http://www.w3.org/2000/svg"
   xmlns:svg="http://www.w3.org/2000/svg">
  <defs
     id="defs1" />
  <rect
     x="0"
     y="0"
     width="20"
     height="14.096812"
     style="fill:#ffffff;stroke:none;stroke-width:0.0590319"
     id="Fond" />
  <circle
     cx="10"
     cy="7.0484047"
     r="5.8441563"
     style="fill:none;stroke:#000000;stroke-width:0.590319"
     id="circle1" />
  <path
     d="m 11.786668,3.8537296 c 0,-0.202667 -0.16,-0.362668 -0.352001,-0.362668 H 8.5866584 c -0.096,0 -0.170667,0.02133 -0.234667,0.08533 -0.08533,0.08533 -0.117334,0.16 -0.117334,0.277334 v 2.837342 c 0,0.117334 0.032,0.192001 0.117334,0.277335 0.064,0.064 0.138667,0.08533 0.234667,0.08533 h 1.408004 c 0.2986676,0 0.5013346,0.064 0.7253356,0.266668 0.245334,0.224 0.341334,0.458668 0.341334,0.800002 v 0.704003 c 0,0.309334 -0.064,0.512001 -0.277334,0.746669 -0.181334,0.192 -0.458668,0.320001 -0.7893356,0.320001 h -1.429337 c -0.192001,0 -0.352002,0.1706674 -0.352002,0.3626674 0,0.192001 0.160001,0.352001 0.352002,0.352001 h 1.429337 c 0.5546686,0 1.0453366,-0.224 1.3333376,-0.565335 0.309334,-0.3413344 0.437335,-0.7040024 0.437335,-1.2160034 v -0.704003 c 0,-0.597335 -0.266668,-1.109337 -0.618669,-1.397337 -0.298668,-0.245335 -0.842669,-0.384002 -1.1520036,-0.384002 h -1.045336 v -2.13334 h 2.4853406 c 0.192001,0 0.352001,-0.138667 0.352001,-0.352001 z"
     id="text1"
     style="font-size:10.6667px;font-family:Isonorm;-inkscape-font-specification:'Isonorm, Normal';fill-rule:evenodd;stroke-width:0.0944511"
     aria-label="5" />
</svg>
