<?xml version="1.0" encoding="UTF-8" standalone="no"?>
<!-- Initially created with Inkscape, optimized by hand -->

<svg
   version="1.1"
   width="20"
   height="14.096813"
   id="svg1"
   xmlns="http://www.w3.org/2000/svg"
   xmlns:svg="http://www.w3.org/2000/svg">
  <defs
     id="defs1" />
  <rect
     x="0"
     y="0"
     width="20"
     height="14.096812"
     style="fill:#ffffff;stroke:none;stroke-width:0.0590319"
     id="Fond" />
  <circle
     cx="10"
     cy="7.0484047"
     r="5.8441563"
     style="fill:none;stroke:#000000;stroke-width:0.590319"
     id="circle1" />
  <path
     d="m 11.802675,8.8137426 v -0.704002 c 0,-0.597336 -0.277334,-1.184004 -0.693335,-1.429338 0.352001,-0.288001 0.640002,-0.810669 0.640002,-1.397338 0,-0.501335 -0.128001,-0.864003 -0.437335,-1.216004 -0.288001,-0.330668 -0.778669,-0.565335 -1.3333366,-0.565335 h -1.429338 c -0.192001,0 -0.352001,0.170667 -0.352001,0.362668 0,0.192 0.16,0.352001 0.352001,0.352001 h 1.429338 c 0.3306666,0 0.6080016,0.128 0.7893346,0.330668 0.213334,0.224 0.277335,0.725335 0.277335,0.725335 0,0.330668 -0.096,0.565335 -0.341335,0.789336 -0.224,0.202667 -0.426668,0.266668 -0.7253346,0.266668 h -0.672003 c -0.192,0 -0.352001,0.16 -0.352001,0.352001 0,0.192 0.160001,0.362668 0.352001,0.362668 h 0.7146686 c 0.298668,0 0.512002,0.064 0.725336,0.266667 0.256001,0.224001 0.341334,0.458668 0.341334,0.800003 v 0.704002 c 0,0.309334 -0.05333,0.512001 -0.266667,0.746669 -0.181334,0.192 -0.458668,0.320001 -0.800003,0.320001 H 8.6026654 c -0.192,0 -0.352001,0.1706674 -0.352001,0.3626684 0,0.192 0.160001,0.352001 0.352001,0.352001 h 1.4186706 c 0.565336,0 1.045337,-0.224001 1.344005,-0.565335 0.298667,-0.3413354 0.437334,-0.7040034 0.437334,-1.2160044 z"
     id="text1"
     style="font-size:10.6667px;font-family:Isonorm;-inkscape-font-specification:'Isonorm, Normal';fill-rule:evenodd;stroke-width:0.0944511"
     aria-label="3" />
</svg>
