<?xml version="1.0" encoding="UTF-8" standalone="no"?>
<!-- Initially created with Inkscape, optimized by hand -->

<svg
   version="1.1"
   width="20"
   height="14.096813"
   id="svg1"
   xmlns="http://www.w3.org/2000/svg"
   xmlns:svg="http://www.w3.org/2000/svg">
  <defs
     id="defs1" />
  <rect
     x="0"
     y="0"
     width="20"
     height="14.096812"
     style="fill:#ffffff;stroke:none;stroke-width:0.0590319"
     id="Fond" />
  <circle
     cx="10"
     cy="7.0484047"
     r="5.8441563"
     style="fill:none;stroke:#000000;stroke-width:0.590319"
     id="circle1" />
  <path
     d="M 8.8407374,10.239254 V 3.8498996 c 0,-0.106667 -0.032,-0.192 -0.106667,-0.266667 -0.064,-0.07467 -0.362668,-0.149334 -0.501335,-0.01067 l -1.429338,1.429338 c -0.149333,0.149334 -0.096,0.426668 0.01067,0.533335 0.096,0.106667 0.352001,0.128 0.490668,-0.01067 l 0.821336,-0.832002 v 5.5573504 c 0,0.192001 0.170667,0.352002 0.362668,0.352002 0.192001,0 0.352001,-0.160001 0.352001,-0.362668 z M 13.288741,8.8205826 v -0.704003 c 0,-0.597335 -0.277334,-1.184003 -0.693336,-1.429338 0.352002,-0.288 0.640002,-0.810669 0.640002,-1.397337 0,-0.501335 -0.128,-0.864003 -0.437334,-1.216004 -0.288001,-0.330668 -0.778669,-0.565335 -1.333338,-0.565335 h -1.429338 c -0.1919996,0 -0.3520006,0.170667 -0.3520006,0.362668 0,0.192 0.160001,0.352001 0.3520006,0.352001 h 1.429338 c 0.330668,0 0.608002,0.128 0.789336,0.330667 0.213334,0.224001 0.277334,0.725336 0.277334,0.725336 0,0.330668 -0.096,0.565335 -0.341334,0.789336 -0.224001,0.202667 -0.426668,0.266667 -0.725336,0.266667 h -0.672002 c -0.192001,0 -0.352001,0.160001 -0.352001,0.352001 0,0.192001 0.16,0.362668 0.352001,0.362668 h 0.714669 c 0.298668,0 0.512002,0.064 0.725336,0.266668 0.256,0.224001 0.341334,0.458668 0.341334,0.800002 v 0.704003 c 0,0.309334 -0.05333,0.512001 -0.266667,0.746669 -0.181334,0.192 -0.458669,0.320001 -0.800003,0.320001 h -1.418671 c -0.1920006,0 -0.3520006,0.1706674 -0.3520006,0.3626674 0,0.192001 0.16,0.352002 0.3520006,0.352002 h 1.418671 c 0.565335,0 1.045337,-0.224001 1.344004,-0.565336 0.298668,-0.3413344 0.437335,-0.7040024 0.437335,-1.2160034 z"
     id="text1"
     style="font-size:10.6667px;font-family:Isonorm;-inkscape-font-specification:'Isonorm, Normal';fill-rule:evenodd;stroke-width:0.0944511"
     aria-label="13" />
</svg>
