<?xml version="1.0" encoding="UTF-8" standalone="no"?>
<!-- Initially created with Inkscape, optimized by hand -->

<svg
   version="1.1"
   width="20"
   height="14.096813"
   id="svg1"
   xmlns="http://www.w3.org/2000/svg"
   xmlns:svg="http://www.w3.org/2000/svg">
  <defs
     id="defs1" />
  <rect
     x="0"
     y="0"
     width="20"
     height="14.096812"
     style="fill:#ffffff;stroke:none;stroke-width:0.0590319"
     id="Fond" />
  <circle
     cx="10"
     cy="7.0484047"
     r="5.8441563"
     style="fill:none;stroke:#000000;stroke-width:0.590319"
     id="circle1" />
  <path
     d="m 8.6186594,6.3390706 c 0.064,0.117334 0.149334,0.202668 0.234667,0.288001 -0.170667,0.138667 -0.266667,0.234668 -0.384001,0.426668 -0.149334,0.245334 -0.245334,0.416002 -0.245334,0.704002 v 1.429338 c 0,0.8853364 0.885336,1.4186714 1.7813386,1.4186714 0.885336,0 1.770672,-0.533335 1.770672,-1.4186714 v -1.429338 c 0,-0.277334 -0.02133,-0.458668 -0.170667,-0.704002 -0.128,-0.202667 -0.256001,-0.320001 -0.458668,-0.426668 0.106667,-0.096 0.16,-0.170667 0.245334,-0.288001 0.149334,-0.245334 0.213334,-0.416001 0.213334,-0.714669 v -0.704002 c 0,-0.832002 -0.768002,-1.429338 -1.600005,-1.429338 -0.8320026,0 -1.6000046,0.597336 -1.6000046,1.429338 v 0.704002 c 0,0.298668 0.064,0.469335 0.213334,0.714669 z m 2.2720066,-0.714669 c 0,0.448002 -0.448001,0.714669 -0.885336,0.714669 -0.4480006,0 -0.8960026,-0.266667 -0.8960026,-0.714669 v -0.704002 c 0,-0.448001 0.448002,-0.714669 0.8960026,-0.714669 0.437335,0 0.885336,0.266668 0.885336,0.714669 z M 11.072,9.1870796 c 0,0.490669 -0.565335,0.704003 -1.056003,0.704003 -0.5013346,0.01067 -1.0773366,-0.202668 -1.0773366,-0.704003 v -1.429338 c 0,-0.501334 0.554668,-0.725335 1.0666696,-0.725335 0.501335,0 1.06667,0.224001 1.06667,0.725335 z"
     id="text1"
     style="font-size:10.6667px;font-family:Isonorm;-inkscape-font-specification:'Isonorm, Normal';fill-rule:evenodd;stroke-width:0.0944511"
     aria-label="8" />
</svg>
