<?xml version="1.0" encoding="UTF-8" standalone="no"?>
<!-- Initially created with Inkscape, optimized by hand -->

<svg
   version="1.1"
   width="20"
   height="14.096813"
   id="svg1"
   xmlns="http://www.w3.org/2000/svg"
   xmlns:svg="http://www.w3.org/2000/svg">
  <defs
     id="defs1" />
  <rect
     x="0"
     y="0"
     width="20"
     height="14.096812"
     style="fill:#ffffff;stroke:none;stroke-width:0.0590319"
     id="Fond" />
  <circle
     cx="10"
     cy="7.0484047"
     r="5.8441563"
     style="fill:none;stroke:#000000;stroke-width:0.590319"
     id="circle1" />
  <path
     d="m 11.781335,6.3294696 v -1.418671 c 0,-0.896003 -0.896003,-1.429338 -1.7813386,-1.429338 -0.885336,0 -1.781339,0.533335 -1.781339,1.429338 v 1.418671 c 0,0.426668 0.096,0.714669 0.405335,1.024003 0.298667,0.309334 0.597335,0.394668 1.024003,0.394668 h 1.1733366 c -0.128,0.426668 -0.245334,0.640002 -0.490668,1.013336 -0.4906676,0.736003 -0.9600026,0.949337 -1.2693366,1.184004 -0.160001,0.1173344 -0.181334,0.3626684 -0.07467,0.5226684 0.149333,0.192001 0.362667,0.181334 0.512001,0.05333 0.362668,-0.277334 1.0240026,-0.7573364 1.4506716,-1.4186714 0.544001,-0.832003 0.832002,-1.685339 0.832002,-2.773342 z m -0.714669,0 c 0,0.138667 0,0.202667 -0.01067,0.341334 -0.02133,0.138667 -0.032,0.234668 -0.064,0.373335 H 9.6586594 c -0.213334,0 -0.352001,-0.04267 -0.512002,-0.192001 -0.16,-0.149334 -0.213334,-0.298668 -0.213334,-0.512002 v -1.418671 c 0,-0.501335 0.565335,-0.714669 1.06667,-0.714669 0.5013346,0 1.0666696,0.213334 1.0666696,0.714669 z"
     id="text1"
     style="font-size:10.6667px;font-family:Isonorm;-inkscape-font-specification:'Isonorm, Normal';fill-rule:evenodd;stroke-width:0.0944511"
     aria-label="9" />
</svg>
