<?xml version="1.0" encoding="UTF-8" standalone="no"?>
<!-- Initially created with Inkscape, optimized by hand -->

<svg
   version="1.1"
   width="20"
   height="17.320999"
   id="svg1"
   xmlns="http://www.w3.org/2000/svg"
   xmlns:svg="http://www.w3.org/2000/svg">
  <defs
     id="defs1" />
  <path
     id="Fond"
     d="M 20,17.320999 H 0 L 10,-1.2114258e-6 Z"
     fill="#0b9b7b"
     style="stroke-width:0.1" />
  <path
     style="font-size:10.6667px;font-family:Isonorm;-inkscape-font-specification:'Isonorm, Normal';fill:#ffffff;fill-rule:evenodd;stroke-width:0.377953;stroke-linejoin:bevel"
     d="m 8.618659,11.226476 c 0.064,0.117334 0.149334,0.202668 0.234668,0.288001 -0.170667,0.138668 -0.266668,0.234668 -0.384001,0.426668 -0.149334,0.245335 -0.245335,0.416002 -0.245335,0.704003 v 1.429337 c 0,0.885337 0.885337,1.418672 1.781339,1.418672 0.88534,0 1.77067,-0.533335 1.77067,-1.418672 v -1.429337 c 0,-0.277335 -0.0213,-0.458668 -0.17066,-0.704003 -0.128,-0.202667 -0.25601,-0.320001 -0.45867,-0.426668 0.10666,-0.096 0.16,-0.170667 0.24533,-0.288001 0.14934,-0.245334 0.21334,-0.416001 0.21334,-0.714668 V 9.8078048 c 0,-0.832002 -0.76801,-1.429337 -1.60001,-1.429337 -0.832002,0 -1.600005,0.597335 -1.600005,1.429337 v 0.7040032 c 0,0.298667 0.064,0.469334 0.213334,0.714668 z m 2.272011,-0.714668 c 0,0.448001 -0.448,0.714668 -0.88534,0.714668 -0.448001,0 -0.896002,-0.266667 -0.896002,-0.714668 V 9.8078048 c 0,-0.448001 0.448001,-0.714669 0.896002,-0.714669 0.43734,0 0.88534,0.266668 0.88534,0.714669 z m 0.18133,3.562677 c 0,0.490669 -0.56533,0.704003 -1.056,0.704003 -0.501338,0.01067 -1.07734,-0.202668 -1.07734,-0.704003 v -1.429337 c 0,-0.501335 0.554669,-0.725336 1.06667,-0.725336 0.50134,0 1.06667,0.224001 1.06667,0.725336 z"
     id="text1"
     aria-label="8" />
</svg>
