<?xml version="1.0" encoding="UTF-8"?>
<svg xmlns="http://www.w3.org/2000/svg" xmlns:xlink="http://www.w3.org/1999/xlink" width="18" height="15.588901" viewBox="0 0 18 15.588901">
<path fill-rule="nonzero" fill="rgb(4.313725%, 60.784314%, 48.235294%)" fill-opacity="1" d="M 18 15.589844 L 0 15.589844 L 9 0 Z M 18 15.589844 "/>
<path fill-rule="nonzero" fill="rgb(100%, 100%, 100%)" fill-opacity="1" d="M 8.144531 11.824219 C 8.144531 11.601562 8.164062 11.414062 8.207031 11.257812 C 8.25 11.09375 8.328125 10.941406 8.433594 10.792969 C 8.542969 10.648438 8.691406 10.496094 8.875 10.339844 C 9.105469 10.148438 9.277344 9.988281 9.402344 9.859375 C 9.53125 9.730469 9.617188 9.609375 9.671875 9.484375 C 9.722656 9.363281 9.753906 9.214844 9.753906 9.039062 C 9.753906 8.761719 9.660156 8.546875 9.480469 8.394531 C 9.296875 8.242188 9.039062 8.167969 8.695312 8.167969 C 8.410156 8.167969 8.15625 8.207031 7.933594 8.28125 C 7.714844 8.351562 7.503906 8.433594 7.296875 8.53125 L 7.027344 7.921875 C 7.257812 7.800781 7.515625 7.699219 7.792969 7.617188 C 8.078125 7.535156 8.398438 7.496094 8.746094 7.496094 C 9.296875 7.496094 9.726562 7.632812 10.03125 7.90625 C 10.332031 8.175781 10.484375 8.550781 10.484375 9.019531 C 10.484375 9.285156 10.441406 9.507812 10.351562 9.691406 C 10.273438 9.875 10.152344 10.042969 9.996094 10.199219 C 9.84375 10.351562 9.664062 10.515625 9.453125 10.691406 C 9.261719 10.851562 9.113281 10.992188 9.007812 11.117188 C 8.910156 11.238281 8.84375 11.363281 8.804688 11.480469 C 8.773438 11.601562 8.753906 11.742188 8.753906 11.910156 L 8.753906 12.058594 L 8.144531 12.058594 Z M 7.945312 13.34375 C 7.945312 13.128906 7.996094 12.976562 8.09375 12.886719 C 8.199219 12.800781 8.328125 12.757812 8.488281 12.757812 C 8.632812 12.757812 8.753906 12.800781 8.859375 12.886719 C 8.964844 12.976562 9.015625 13.128906 9.015625 13.34375 C 9.015625 13.554688 8.964844 13.703125 8.859375 13.796875 C 8.753906 13.890625 8.632812 13.9375 8.488281 13.9375 C 8.328125 13.9375 8.199219 13.890625 8.09375 13.796875 C 7.996094 13.703125 7.945312 13.554688 7.945312 13.34375 Z M 7.945312 13.34375 "/>
</svg>
