<?xml version="1.0" encoding="UTF-8" standalone="no"?>
<!-- Initially created with Inkscape, optimized by hand -->

<svg
   version="1.1"
   width="20"
   height="17.320999"
   id="svg1"
   xmlns="http://www.w3.org/2000/svg"
   xmlns:svg="http://www.w3.org/2000/svg">
  <defs
     id="defs1" />
  <path
     id="Fond"
     d="M 20,17.320999 H 0 L 10,-1.2114258e-6 Z"
     fill="#0b9b7b"
     style="stroke-width:0.1" />
  <path
     style="font-size:10.6667px;font-family:Isonorm;-inkscape-font-specification:'Isonorm, Normal';fill:#ffffff;fill-rule:evenodd;stroke-width:0.377953;stroke-linejoin:bevel"
     d="M 11.78134,11.226476 V 9.8078048 c 0,-0.896002 -0.89601,-1.429337 -1.781343,-1.429337 -0.885337,0 -1.781339,0.533335 -1.781339,1.429337 v 1.4186712 c 0,0.426669 0.096,0.714669 0.405334,1.024004 0.298668,0.309334 0.597335,0.394668 1.024003,0.394668 h 1.173335 c -0.128,0.426668 -0.24533,0.640002 -0.49067,1.013336 -0.490664,0.736003 -0.959999,0.949337 -1.269333,1.184004 -0.160001,0.117334 -0.181334,0.362668 -0.07467,0.522668 0.149334,0.192001 0.362668,0.181334 0.512002,0.05333 0.362667,-0.277334 1.024001,-0.757336 1.450671,-1.418671 0.544,-0.832003 0.83201,-1.685339 0.83201,-2.773343 z m -0.71467,0 c 0,0.138668 0,0.202668 -0.0107,0.341335 -0.0213,0.138667 -0.032,0.234667 -0.064,0.373334 H 9.658632 c -0.213334,0 -0.352001,-0.04267 -0.512001,-0.192 C 8.98663,11.599811 8.933297,11.450477 8.933297,11.237143 V 9.8184718 c 0,-0.501335 0.565335,-0.714669 1.06667,-0.714669 0.501333,0 1.066673,0.213334 1.066673,0.714669 z"
     id="text1"
     aria-label="9" />
</svg>
