<?xml version="1.0" encoding="UTF-8" standalone="no"?>
<!-- Initially created with Inkscape, optimized by hand -->

<svg
   version="1.1"
   width="20"
   height="17.320999"
   id="svg1"
   xmlns="http://www.w3.org/2000/svg"
   xmlns:svg="http://www.w3.org/2000/svg">
  <defs
     id="defs1" />
  <path
     id="Fond"
     d="M 20,17.320999 H 0 L 10,-1.2114258e-6 Z"
     fill="#0b9b7b"
     style="stroke-width:0.1" />
  <path
     style="font-size:10.6667px;font-family:Isonorm;-inkscape-font-specification:'Isonorm, Normal';fill:#ffffff;fill-rule:evenodd;stroke-width:0.377953;stroke-linejoin:bevel"
     d="M 8.84607,15.130489 V 8.7411348 c 0,-0.106667 -0.032,-0.192 -0.106667,-0.266667 -0.064,-0.07467 -0.362667,-0.149334 -0.501334,-0.01067 l -1.429338,1.429338 c -0.149334,0.1493342 -0.096,0.4266682 0.01067,0.5333352 0.096,0.106667 0.352002,0.128 0.490669,-0.01067 L 8.131406,9.5837988 V 15.14115 c 0,0.192 0.170667,0.352001 0.362667,0.352001 0.192001,0 0.352001,-0.160001 0.352001,-0.362668 z m 4.43734,-1.418671 v -3.552012 c 0,-0.9813362 -0.78934,-1.7813382 -1.77067,-1.7813382 -0.98134,0 -1.781344,0.800002 -1.781344,1.7813382 v 3.552012 c 0,0.981336 0.800004,1.781339 1.781344,1.781339 0.98133,0 1.77067,-0.800003 1.77067,-1.781339 z m -0.704,0 c 0,0.597335 -0.48001,1.06667 -1.06667,1.06667 -0.59734,0 -1.06667,-0.469335 -1.06667,-1.06667 v -3.552012 c 0,-0.5866682 0.46933,-1.0666702 1.06667,-1.0666702 0.58666,0 1.06667,0.480002 1.06667,1.0666702 z"
     id="text1"
     aria-label="10" />
</svg>
