<?xml version="1.0" encoding="UTF-8" standalone="no"?>
<!-- Initially created with Inkscape, optimized by hand -->

<svg
   version="1.1"
   width="20"
   height="17.320999"
   id="svg1"
   xmlns="http://www.w3.org/2000/svg"
   xmlns:svg="http://www.w3.org/2000/svg">
  <defs
     id="defs1" />
  <path
     id="Fond"
     d="M 20,17.320999 H 0 L 10,-1.2114258e-6 Z"
     fill="#0b9b7b"
     style="stroke-width:0.1" />
  <path
     style="font-size:10.6667px;font-family:Isonorm;-inkscape-font-specification:'Isonorm, Normal';fill:#ffffff;fill-rule:evenodd;stroke-width:0.377953;stroke-linejoin:bevel"
     d="m 11.77601,14.095819 v -1.429338 c 0,-0.426668 -0.0853,-0.714669 -0.39467,-1.024003 -0.30933,-0.298668 -0.59733,-0.394668 -1.024,-0.394668 H 9.173334 C 9.312001,10.831809 9.429335,10.607808 9.674669,10.234473 10.16534,9.4984708 10.624,9.2958038 10.94401,9.0611358 c 0.16,-0.128 0.18133,-0.373334 0.064,-0.533335 -0.13867,-0.192 -0.352,-0.170667 -0.51201,-0.05333 -0.352,0.277334 -1.023999,0.757336 -1.450667,1.418671 C 8.511998,10.725145 8.223997,11.578481 8.223997,12.666484 v 1.429338 c 0,0.885336 0.885337,1.418671 1.781343,1.418671 0.88533,0 1.77067,-0.533335 1.77067,-1.418671 z m -0.704,-0.02133 c 0,0.501335 -0.57601,0.714669 -1.06667,0.714669 -0.501339,0 -1.066674,-0.213334 -1.066674,-0.714669 v -1.408004 c 0,-0.128 0,-0.202667 0.01067,-0.341334 0.01067,-0.138667 0.032,-0.234668 0.064,-0.362668 h 1.333334 c 0.21333,0 0.352,0.032 0.512,0.181334 0.14934,0.149334 0.21334,0.298667 0.21334,0.512001 z"
     id="text1"
     aria-label="6" />
</svg>
