<?xml version="1.0" encoding="UTF-8"?>
<svg xmlns="http://www.w3.org/2000/svg" xmlns:xlink="http://www.w3.org/1999/xlink" width="18" height="15.588901" viewBox="0 0 18 15.588901">
<path fill-rule="nonzero" fill="rgb(4.313725%, 60.784314%, 48.235294%)" fill-opacity="1" d="M 18 15.589844 L 0 15.589844 L 9 0 Z M 18 15.589844 "/>
<path fill-rule="nonzero" fill="rgb(100%, 100%, 100%)" fill-opacity="1" d="M 7.394531 13.8125 L 6.644531 13.8125 L 6.644531 9.457031 C 6.644531 9.207031 6.648438 9.007812 6.652344 8.855469 C 6.660156 8.703125 6.664062 8.546875 6.679688 8.382812 C 6.585938 8.480469 6.5 8.558594 6.425781 8.621094 C 6.347656 8.683594 6.253906 8.765625 6.136719 8.867188 L 5.472656 9.40625 L 5.074219 8.890625 L 6.757812 7.582031 L 7.394531 7.582031 Z M 7.394531 13.8125 "/>
<path fill-rule="nonzero" fill="rgb(100%, 100%, 100%)" fill-opacity="1" d="M 12.925781 13.8125 L 8.804688 13.8125 L 8.804688 13.175781 L 10.441406 11.527344 C 10.753906 11.210938 11.019531 10.933594 11.234375 10.691406 C 11.449219 10.445312 11.613281 10.207031 11.722656 9.972656 C 11.832031 9.734375 11.890625 9.476562 11.890625 9.195312 C 11.890625 8.851562 11.789062 8.59375 11.585938 8.421875 C 11.378906 8.242188 11.117188 8.148438 10.789062 8.148438 C 10.488281 8.148438 10.21875 8.203125 9.984375 8.308594 C 9.757812 8.414062 9.527344 8.558594 9.289062 8.742188 L 8.875 8.226562 C 9.125 8.023438 9.402344 7.855469 9.714844 7.714844 C 10.035156 7.570312 10.390625 7.496094 10.789062 7.496094 C 11.371094 7.496094 11.828125 7.644531 12.167969 7.9375 C 12.503906 8.230469 12.671875 8.632812 12.671875 9.15625 C 12.671875 9.476562 12.605469 9.785156 12.472656 10.070312 C 12.339844 10.351562 12.152344 10.636719 11.914062 10.914062 C 11.675781 11.191406 11.398438 11.480469 11.078125 11.796875 L 9.777344 13.082031 L 9.777344 13.117188 L 12.925781 13.117188 Z M 12.925781 13.8125 "/>
</svg>
