<?xml version="1.0" encoding="UTF-8" standalone="no"?>
<!-- Initially created with Inkscape, optimized by hand -->

<svg
   version="1.1"
   width="200"
   height="173.21"
   id="svg4782"
   sodipodi:docname="PVR-{120}.svg"
   inkscape:version="1.2.2 (b0a8486541, 2022-12-01)"
   xmlns:inkscape="http://www.inkscape.org/namespaces/inkscape"
   xmlns:sodipodi="http://sodipodi.sourceforge.net/DTD/sodipodi-0.dtd"
   xmlns="http://www.w3.org/2000/svg"
   xmlns:svg="http://www.w3.org/2000/svg">
  <defs
     id="defs4786" />
  <sodipodi:namedview
     id="namedview4784"
     pagecolor="#ffffff"
     bordercolor="#666666"
     borderopacity="1.0"
     inkscape:showpageshadow="2"
     inkscape:pageopacity="0.0"
     inkscape:pagecheckerboard="0"
     inkscape:deskcolor="#d1d1d1"
     showgrid="false"
     inkscape:zoom="3.8165078"
     inkscape:cx="31.180337"
     inkscape:cy="87.25254"
     inkscape:window-width="1920"
     inkscape:window-height="1129"
     inkscape:window-x="0"
     inkscape:window-y="0"
     inkscape:window-maximized="1"
     inkscape:current-layer="text6048" />
  <path
     id="Fond"
     d="M200,173.21 L0,173.21 L100,0 z"
     fill="#0b9b7b" />
  <g
     aria-label="12"
     id="text6048"
     style="font-weight:200;font-size:96.9804px;line-height:1.25;font-family:'Cascadia Code';-inkscape-font-specification:'Cascadia Code Ultra-Light';font-variant-ligatures:none;text-align:center;letter-spacing:-10px;word-spacing:0px;text-anchor:middle;fill:#ffffff;stroke-width:7.27354">
    <path
       d="m 82.161091,153.48885 h -8.340314 v -48.39322 q 0,-4.17016 0.09698,-6.691651 0.09698,-2.521491 0.290941,-5.236942 -1.551686,1.551686 -2.812431,2.618471 -1.260745,1.066784 -3.200353,2.715451 L 60.825403,104.51374 56.364305,98.7919 75.081522,84.24484 h 7.079569 z"
       style="font-weight:normal;font-family:System-ui;-inkscape-font-specification:System-ui"
       id="path8879" />
    <path
       d="M 143.6357,153.48885 H 97.860948 v -7.07957 l 18.135332,-18.3293 q 5.23694,-5.23694 8.82522,-9.31012 3.58827,-4.07317 5.4309,-7.95239 1.84263,-3.9762 1.84263,-8.63126 0,-5.721839 -3.39432,-8.631251 -3.39431,-3.006393 -8.82521,-3.006393 -5.04298,0 -8.9222,1.745647 -3.78223,1.745648 -7.75843,4.84902 L 98.636791,91.42139 q 4.073179,-3.394314 9.310119,-5.721844 5.33392,-2.42451 11.92859,-2.42451 9.69804,0 15.3229,4.946001 5.62486,4.84902 5.62486,13.480273 0,5.4309 -2.23054,10.18294 -2.23055,4.75204 -6.20675,9.4071 -3.9762,4.55808 -9.31012,9.79502 l -14.45008,14.25612 v 0.38792 h 35.00993 z"
       style="font-weight:normal;font-family:System-ui;-inkscape-font-specification:System-ui"
       id="path8881" />
  </g>
</svg>
