<?xml version="1.0" encoding="UTF-8" standalone="no"?>
<!-- Initially created with Inkscape, optimized by hand -->

<svg
   version="1.1"
   width="20"
   height="17.320999"
   id="svg1"
   xmlns="http://www.w3.org/2000/svg"
   xmlns:svg="http://www.w3.org/2000/svg">
  <defs
     id="defs1" />
  <path
     id="Fond"
     d="M 20,17.320999 H 0 L 10,-1.2114258e-6 Z"
     fill="#0b9b7b"
     style="stroke-width:0.1" />
  <path
     style="font-size:10.6667px;font-family:Isonorm;-inkscape-font-specification:'Isonorm, Normal';fill:#ffffff;fill-rule:evenodd;stroke-width:0.377953;stroke-linejoin:bevel"
     d="M 8.856736,15.130489 V 8.7411348 c 0,-0.106667 -0.032,-0.192 -0.106667,-0.266667 -0.064,-0.07467 -0.362667,-0.149334 -0.501335,-0.01067 l -1.429337,1.429338 c -0.149334,0.1493342 -0.096,0.4266682 0.01067,0.5333352 0.096,0.106667 0.352001,0.128 0.490669,-0.01067 L 8.142071,9.5837988 V 15.14115 c 0,0.192 0.170668,0.352001 0.362668,0.352001 0.192001,0 0.352001,-0.160001 0.352001,-0.362668 z m 4.416004,-1.03467 v -1.429338 c 0,-0.426668 -0.0853,-0.714669 -0.39467,-1.024003 -0.30933,-0.298668 -0.59733,-0.394668 -1.024,-0.394668 h -1.184 c 0.13866,-0.416001 0.256,-0.640002 0.50133,-1.013337 0.49067,-0.7360022 0.94934,-0.9386692 1.26934,-1.1733372 0.16,-0.128 0.18133,-0.373334 0.064,-0.533335 -0.13867,-0.192 -0.352,-0.170667 -0.512,-0.05333 -0.35201,0.277334 -1.02401,0.757336 -1.45068,1.418671 -0.53333,0.8320032 -0.821331,1.6853392 -0.821331,2.7733422 v 1.429338 c 0,0.885336 0.885341,1.418671 1.781341,1.418671 0.88533,0 1.77067,-0.533335 1.77067,-1.418671 z m -0.704,-0.02133 c 0,0.501335 -0.576,0.714669 -1.06667,0.714669 -0.50134,0 -1.06667,-0.213334 -1.06667,-0.714669 v -1.408004 c 0,-0.128 0,-0.202667 0.0107,-0.341334 0.0107,-0.138667 0.032,-0.234668 0.064,-0.362668 h 1.33334 c 0.21334,0 0.352,0.032 0.512,0.181334 0.14934,0.149334 0.21334,0.298667 0.21334,0.512001 z"
     id="text1"
     aria-label="16" />
</svg>
