<?xml version="1.0" encoding="UTF-8" standalone="no"?>
<!-- Initially created with Inkscape, optimized by hand -->

<svg
   version="1.1"
   width="20"
   height="17.320999"
   id="svg1"
   xmlns="http://www.w3.org/2000/svg"
   xmlns:svg="http://www.w3.org/2000/svg">
  <defs
     id="defs1" />
  <path
     id="Fond"
     d="M 20,17.320999 H 0 L 10,-1.2114258e-6 Z"
     fill="#0b9b7b"
     style="stroke-width:0.1" />
  <path
     style="font-size:10.6667px;font-family:Isonorm;-inkscape-font-specification:'Isonorm, Normal';fill:#ffffff;fill-rule:evenodd;stroke-width:0.377953;stroke-linejoin:bevel"
     d="M 8.488733,15.130489 V 8.7411348 c 0,-0.106667 -0.032,-0.192 -0.106667,-0.266667 -0.064,-0.07467 -0.362668,-0.149334 -0.501335,-0.01067 l -1.429338,1.429338 c -0.149334,0.1493342 -0.096,0.4266682 0.01067,0.5333352 0.096,0.106667 0.352002,0.128 0.490669,-0.01067 L 7.774068,9.5837988 V 15.14115 c 0,0.192 0.170667,0.352001 0.362667,0.352001 0.192001,0 0.352002,-0.160001 0.352002,-0.362668 z m 5.152007,-1.418671 c 0,-0.192001 -0.16,-0.352001 -0.352,-0.352001 H 12.57407 V 12.28248 c 0,-0.192001 -0.16,-0.341335 -0.352,-0.341335 -0.192,0 -0.36267,0.160001 -0.36267,0.352002 v 1.06667 h -1.66401 l 1.30134,-4.5546812 c 0.0533,-0.202668 -0.0853,-0.426668 -0.34133,-0.426668 -0.128,-0.01067 -0.29867,0.07467 -0.34134,0.234667 L 9.374058,13.626484 c -0.032,0.138667 0.032,0.298668 0.096,0.341334 0.08533,0.07467 0.149334,0.106667 0.256001,0.106667 H 11.8594 v 1.066671 c 0,0.192 0.17067,0.352001 0.36267,0.352001 0.192,0 0.352,-0.160001 0.352,-0.352001 v -1.066671 h 0.71467 c 0.192,0 0.352,-0.170667 0.352,-0.362667 z"
     id="text1"
     aria-label="14" />
</svg>
