<?xml version="1.0" encoding="UTF-8" standalone="no"?>
<!-- Initially created with Inkscape, optimized by hand -->

<svg
   version="1.1"
   width="20"
   height="17.320999"
   id="svg1"
   xmlns="http://www.w3.org/2000/svg"
   xmlns:svg="http://www.w3.org/2000/svg">
  <defs
     id="defs1" />
  <path
     id="Fond"
     d="M 20,17.320999 H 0 L 10,-1.2114258e-6 Z"
     fill="#0b9b7b"
     style="stroke-width:0.1" />
  <path
     style="font-size:10.6667px;font-family:Isonorm;-inkscape-font-specification:'Isonorm, Normal';fill:#ffffff;fill-rule:evenodd;stroke-width:0.377953;stroke-linejoin:bevel"
     d="M 8.84607,15.130489 V 8.7411348 c 0,-0.106667 -0.032,-0.192 -0.106667,-0.266667 -0.064,-0.07467 -0.362667,-0.149334 -0.501334,-0.01067 l -1.429338,1.429338 c -0.149334,0.1493342 -0.096,0.4266682 0.01067,0.5333352 0.096,0.106667 0.352002,0.128 0.490669,-0.01067 L 8.131406,9.5837988 V 15.14115 c 0,0.192 0.170667,0.352001 0.362667,0.352001 0.192001,0 0.352001,-0.160001 0.352001,-0.362668 z m 4.43734,-6.3893542 c 0,-0.202667 -0.16,-0.362667 -0.352,-0.362667 H 10.0834 c -0.096,0 -0.17067,0.02133 -0.23467,0.08533 -0.08533,0.08533 -0.117334,0.160001 -0.117334,0.277334 v 2.8373432 c 0,0.117333 0.032,0.192 0.117334,0.277334 0.064,0.064 0.138667,0.08533 0.23467,0.08533 h 1.408 c 0.29867,0 0.50134,0.064 0.72534,0.266668 0.24533,0.224001 0.34133,0.458668 0.34133,0.800002 v 0.704003 c 0,0.309334 -0.064,0.512001 -0.27733,0.746669 -0.18134,0.192 -0.45867,0.320001 -0.78934,0.320001 h -1.42934 c -0.191996,0 -0.351997,0.170667 -0.351997,0.362668 0,0.192 0.160001,0.352001 0.351997,0.352001 h 1.42934 c 0.55467,0 1.04534,-0.224001 1.33334,-0.565335 0.30933,-0.341335 0.43733,-0.704003 0.43733,-1.216004 v -0.704003 c 0,-0.597335 -0.26666,-1.109336 -0.61866,-1.397337 C 12.34474,11.365138 11.80074,11.22647 11.4914,11.22647 H 10.44607 V 9.0931298 h 2.48534 c 0.192,0 0.352,-0.138667 0.352,-0.352001 z"
     id="text1"
     aria-label="15" />
</svg>
