<?xml version="1.0" encoding="UTF-8" standalone="no"?>
<!-- Initially created with Inkscape, optimized by hand -->

<svg
   version="1.1"
   width="20"
   height="17.320999"
   id="svg1"
   xmlns="http://www.w3.org/2000/svg"
   xmlns:svg="http://www.w3.org/2000/svg">
  <defs
     id="defs1" />
  <path
     id="Fond"
     d="M 20,17.320999 H 0 L 10,-1.2114258e-6 Z"
     fill="#0b9b7b"
     style="stroke-width:0.1" />
  <path
     style="font-size:10.6667px;font-family:Isonorm;-inkscape-font-specification:'Isonorm, Normal';fill:#ffffff;fill-rule:evenodd;stroke-width:0.377953;stroke-linejoin:bevel"
     d="M 8.840738,15.130489 V 8.7411348 c 0,-0.106667 -0.032,-0.192 -0.106667,-0.266667 -0.064,-0.07467 -0.362668,-0.149334 -0.501335,-0.01067 l -1.429338,1.429338 c -0.149334,0.1493342 -0.096,0.4266682 0.01067,0.5333352 0.096,0.106667 0.352002,0.128 0.490669,-0.01067 L 8.126073,9.5837988 V 15.14115 c 0,0.192 0.170667,0.352001 0.362667,0.352001 0.192001,0 0.352002,-0.160001 0.352002,-0.362668 z m 4.448002,-1.418671 v -0.704003 c 0,-0.597335 -0.27733,-1.184003 -0.69333,-1.429337 0.352,-0.288001 0.64,-0.81067 0.64,-1.397338 0,-0.5013352 -0.128,-0.8640032 -0.43734,-1.2160042 -0.288,-0.330668 -0.77867,-0.565335 -1.33333,-0.565335 H 10.0354 c -0.192003,0 -0.352003,0.170667 -0.352003,0.362668 0,0.192 0.16,0.352001 0.352003,0.352001 h 1.42934 c 0.33066,0 0.608,0.128 0.78933,0.330668 0.21334,0.224 0.27734,0.7253352 0.27734,0.7253352 0,0.330668 -0.096,0.565335 -0.34134,0.789336 -0.224,0.202667 -0.42667,0.266667 -0.72533,0.266667 h -0.67201 c -0.192,0 -0.352,0.160001 -0.352,0.352002 0,0.192 0.16,0.362667 0.352,0.362667 h 0.71467 c 0.29867,0 0.512,0.064 0.72534,0.266668 0.256,0.224001 0.34133,0.458668 0.34133,0.800002 v 0.704003 c 0,0.309334 -0.0533,0.512001 -0.26667,0.746669 -0.18133,0.192 -0.45866,0.320001 -0.8,0.320001 h -1.41867 c -0.191999,0 -0.352,0.170667 -0.352,0.362668 0,0.192 0.160001,0.352001 0.352,0.352001 h 1.41867 c 0.56534,0 1.04534,-0.224001 1.34401,-0.565335 0.29866,-0.341335 0.43733,-0.704003 0.43733,-1.216004 z"
     id="text1"
     aria-label="13" />
</svg>
