<?xml version="1.0" encoding="UTF-8"?>
<svg xmlns="http://www.w3.org/2000/svg" xmlns:xlink="http://www.w3.org/1999/xlink" width="18" height="15.588901" viewBox="0 0 18 15.588901">
<path fill-rule="nonzero" fill="rgb(4.313725%, 60.784314%, 48.235294%)" fill-opacity="1" d="M 18 15.589844 L 0 15.589844 L 9 0 Z M 18 15.589844 "/>
<path fill-rule="nonzero" fill="rgb(100%, 100%, 100%)" fill-opacity="1" d="M 7.371094 13.8125 L 6.625 13.8125 L 6.625 9.457031 C 6.625 9.207031 6.625 9.007812 6.628906 8.855469 C 6.636719 8.703125 6.644531 8.546875 6.660156 8.382812 C 6.5625 8.480469 6.480469 8.558594 6.40625 8.621094 C 6.328125 8.683594 6.234375 8.765625 6.117188 8.867188 L 5.453125 9.40625 L 5.050781 8.890625 L 6.734375 7.582031 L 7.371094 7.582031 Z M 7.371094 13.8125 "/>
<path fill-rule="nonzero" fill="rgb(100%, 100%, 100%)" fill-opacity="1" d="M 8.84375 11.152344 C 8.84375 10.703125 8.882812 10.265625 8.960938 9.832031 C 9.042969 9.398438 9.183594 9.003906 9.386719 8.65625 C 9.597656 8.300781 9.890625 8.019531 10.261719 7.808594 C 10.632812 7.601562 11.113281 7.496094 11.699219 7.496094 C 11.824219 7.496094 11.957031 7.5 12.101562 7.511719 C 12.25 7.523438 12.375 7.542969 12.46875 7.574219 L 12.46875 8.226562 C 12.363281 8.191406 12.246094 8.167969 12.109375 8.148438 C 11.984375 8.132812 11.851562 8.125 11.71875 8.125 C 11.316406 8.125 10.984375 8.191406 10.714844 8.324219 C 10.449219 8.457031 10.234375 8.640625 10.074219 8.875 C 9.925781 9.105469 9.816406 9.371094 9.746094 9.679688 C 9.675781 9.980469 9.632812 10.300781 9.617188 10.644531 L 9.667969 10.644531 C 9.800781 10.441406 9.988281 10.269531 10.226562 10.132812 C 10.464844 9.984375 10.769531 9.914062 11.140625 9.914062 C 11.683594 9.914062 12.117188 10.078125 12.453125 10.410156 C 12.78125 10.738281 12.949219 11.199219 12.949219 11.804688 C 12.949219 12.460938 12.769531 12.96875 12.40625 13.34375 C 12.050781 13.714844 11.574219 13.902344 10.96875 13.902344 C 10.570312 13.902344 10.210938 13.800781 9.894531 13.605469 C 9.574219 13.40625 9.316406 13.101562 9.125 12.699219 C 8.941406 12.289062 8.84375 11.773438 8.84375 11.152344 Z M 10.957031 13.253906 C 11.324219 13.253906 11.621094 13.136719 11.847656 12.90625 C 12.078125 12.667969 12.1875 12.300781 12.1875 11.804688 C 12.1875 11.410156 12.085938 11.09375 11.882812 10.863281 C 11.6875 10.632812 11.386719 10.515625 10.984375 10.515625 C 10.710938 10.515625 10.472656 10.570312 10.269531 10.691406 C 10.066406 10.800781 9.90625 10.945312 9.789062 11.117188 C 9.679688 11.292969 9.621094 11.472656 9.621094 11.65625 C 9.621094 11.90625 9.671875 12.15625 9.773438 12.410156 C 9.871094 12.652344 10.019531 12.855469 10.214844 13.019531 C 10.414062 13.175781 10.664062 13.253906 10.957031 13.253906 Z M 10.957031 13.253906 "/>
</svg>
