<?xml version="1.0" encoding="UTF-8" standalone="no"?>
<!-- Initially created with Inkscape, optimized by hand -->

<svg
   version="1.1"
   width="20"
   height="17.320999"
   id="svg1"
   xmlns="http://www.w3.org/2000/svg"
   xmlns:svg="http://www.w3.org/2000/svg">
  <defs
     id="defs1" />
  <path
     id="Fond"
     d="M 20,17.320999 H 0 L 10,-1.2114258e-6 Z"
     fill="#0b9b7b"
     style="stroke-width:0.1" />
  <path
     style="font-size:10.6667px;font-family:Isonorm;-inkscape-font-specification:'Isonorm, Normal';fill:#ffffff;fill-rule:evenodd;stroke-width:0.377953;stroke-linejoin:bevel"
     d="M 9.555406,15.130489 V 8.7411348 c 0,-0.106667 -0.032,-0.192 -0.106667,-0.266667 -0.064,-0.07467 -0.362668,-0.149334 -0.501335,-0.01067 l -1.429338,1.429338 c -0.149334,0.1493342 -0.096,0.4266682 0.01067,0.5333352 0.096,0.106667 0.352001,0.128 0.490668,-0.01067 L 8.84074,9.5837988 V 15.14115 c 0,0.192 0.170667,0.352001 0.362668,0.352001 0.192,0 0.352001,-0.160001 0.352001,-0.362668 z m 3.018664,0 V 8.7411348 c 0,-0.106667 -0.032,-0.192 -0.10667,-0.266667 -0.064,-0.07467 -0.36266,-0.149334 -0.50133,-0.01067 l -1.42934,1.429338 c -0.14933,0.1493342 -0.096,0.4266682 0.0107,0.5333352 0.096,0.106667 0.352,0.128 0.49067,-0.01067 L 11.85943,9.5837988 V 15.14115 c 0,0.192 0.17067,0.352001 0.36267,0.352001 0.192,0 0.352,-0.160001 0.352,-0.362668 z"
     id="text1"
     aria-label="11" />
</svg>
