<?xml version="1.0" encoding="UTF-8" standalone="no"?>
<!-- Initially created with Inkscape, optimized by hand -->

<svg
   version="1.1"
   width="20"
   height="17.320999"
   id="svg1"
   xmlns="http://www.w3.org/2000/svg"
   xmlns:svg="http://www.w3.org/2000/svg">
  <defs
     id="defs1" />
  <path
     id="Fond"
     d="M 20,17.320999 H 0 L 10,-1.2114258e-6 Z"
     fill="#0b9b7b"
     style="stroke-width:0.1" />
  <path
     style="font-size:10.6667px;font-family:Isonorm;-inkscape-font-specification:'Isonorm, Normal';fill:#ffffff;fill-rule:evenodd;stroke-width:0.377953;stroke-linejoin:bevel"
     d="M 8.845864,15.130489 V 8.7411348 c 0,-0.106667 -0.032,-0.192 -0.106667,-0.266667 -0.064,-0.07467 -0.362667,-0.149334 -0.501334,-0.01067 l -1.429338,1.429338 c -0.149334,0.1493342 -0.096,0.4266682 0.01067,0.5333352 0.096,0.106667 0.352002,0.128 0.490669,-0.01067 L 8.1312,9.5837988 V 15.14115 c 0,0.192 0.170667,0.352001 0.362667,0.352001 0.192001,0 0.352001,-0.160001 0.352001,-0.362668 z m 4.437336,0.01067 c 0,-0.192001 -0.16,-0.362668 -0.352,-0.362668 h -2.20801 l 2.30401,-3.669345 c 0.192,-0.320001 0.256,-0.576002 0.256,-0.949337 0.0213,-1.0666702 -0.78933,-1.7386722 -1.77067,-1.7813382 -0.77867,-0.02133 -1.312,0.330667 -1.728006,1.002669 -0.08533,0.149334 -0.128,0.565335 0.298666,0.597336 0.128,0 0.23467,-0.04267 0.29867,-0.160001 0.27733,-0.490668 0.53333,-0.736002 1.13067,-0.725336 0.736,0.01067 1.056,0.480002 1.06667,1.0666702 0,0.224001 -0.032,0.352002 -0.14933,0.565336 l -2.645346,4.20268 c -0.04267,0.07467 -0.05333,0.128 -0.05333,0.213334 0.01067,0.192 0.160001,0.341334 0.351996,0.352001 h 2.84801 c 0.192,0 0.352,-0.160001 0.352,-0.352001 z"
     id="text1"
     aria-label="12" />
</svg>
