<?xml version="1.0" encoding="UTF-8" standalone="no"?>
<!-- Initially created with Inkscape, optimized by hand -->

<svg
   version="1.1"
   width="20"
   height="17.320999"
   id="svg1"
   xmlns="http://www.w3.org/2000/svg"
   xmlns:svg="http://www.w3.org/2000/svg">
  <defs
     id="defs1" />
  <path
     id="Fond"
     d="M 20,17.320999 H 0 L 10,-1.2114258e-6 Z"
     fill="#0b9b7b"
     style="stroke-width:0.1" />
  <path
     style="font-size:10.6667px;font-family:Isonorm;-inkscape-font-specification:'Isonorm, Normal';fill:#ffffff;fill-rule:evenodd;stroke-width:0.377953;stroke-linejoin:bevel"
     d="m 11.78667,8.7411348 c 0,-0.202667 -0.16,-0.362667 -0.352,-0.362667 H 8.586658 c -0.096,0 -0.170667,0.02133 -0.234667,0.08533 -0.08533,0.08533 -0.117334,0.160001 -0.117334,0.277334 v 2.8373432 c 0,0.117333 0.032,0.192 0.117334,0.277334 0.064,0.064 0.138667,0.08533 0.234667,0.08533 h 1.408005 c 0.298667,0 0.501337,0.064 0.725337,0.266668 0.24533,0.224001 0.34133,0.458668 0.34133,0.800002 v 0.704003 c 0,0.309334 -0.064,0.512001 -0.27733,0.746669 -0.18134,0.192 -0.45867,0.320001 -0.789337,0.320001 H 8.565325 c -0.192001,0 -0.352001,0.170667 -0.352001,0.362668 0,0.192 0.16,0.352001 0.352001,0.352001 h 1.429338 c 0.554667,0 1.045337,-0.224001 1.333337,-0.565335 0.30933,-0.341335 0.43734,-0.704003 0.43734,-1.216004 v -0.704003 c 0,-0.597335 -0.26667,-1.109336 -0.61867,-1.397337 C 10.848,11.365144 10.304,11.226476 9.994663,11.226476 H 8.949326 V 9.0931358 h 2.485344 c 0.192,0 0.352,-0.138667 0.352,-0.352001 z"
     id="text1"
     aria-label="5" />
</svg>
