<?xml version="1.0" encoding="UTF-8"?>
<svg xmlns="http://www.w3.org/2000/svg" xmlns:xlink="http://www.w3.org/1999/xlink" width="18" height="15.588901" viewBox="0 0 18 15.588901">
<path fill-rule="nonzero" fill="rgb(92.941176%, 84.705882%, 15.294118%)" fill-opacity="1" d="M 18 0 L 0 0 L 9 15.589844 Z M 18 0 "/>
<path fill-rule="nonzero" fill="rgb(4.313725%, 60.784314%, 48.235294%)" fill-opacity="1" d="M 16.46875 0.828125 L 1.53125 0.828125 L 9 13.699219 Z M 16.46875 0.828125 "/>
<path fill-rule="nonzero" fill="rgb(92.941176%, 84.705882%, 15.294118%)" fill-opacity="1" d="M 8.292969 6.609375 C 8.292969 6.390625 8.3125 6.199219 8.355469 6.042969 C 8.402344 5.878906 8.476562 5.726562 8.582031 5.578125 C 8.691406 5.433594 8.839844 5.28125 9.027344 5.125 C 9.253906 4.933594 9.425781 4.773438 9.550781 4.644531 C 9.679688 4.519531 9.769531 4.394531 9.820312 4.269531 C 9.871094 4.148438 9.898438 4 9.898438 3.824219 C 9.898438 3.546875 9.808594 3.332031 9.628906 3.179688 C 9.449219 3.027344 9.1875 2.953125 8.84375 2.953125 C 8.558594 2.953125 8.304688 2.992188 8.082031 3.066406 C 7.863281 3.136719 7.648438 3.21875 7.445312 3.320312 L 7.175781 2.707031 C 7.410156 2.585938 7.664062 2.484375 7.945312 2.402344 C 8.230469 2.320312 8.546875 2.28125 8.894531 2.28125 C 9.449219 2.28125 9.875 2.417969 10.179688 2.691406 C 10.480469 2.964844 10.632812 3.335938 10.632812 3.808594 C 10.632812 4.070312 10.589844 4.292969 10.5 4.480469 C 10.417969 4.660156 10.300781 4.828125 10.144531 4.988281 C 9.992188 5.136719 9.8125 5.300781 9.601562 5.476562 C 9.410156 5.636719 9.261719 5.78125 9.15625 5.902344 C 9.058594 6.023438 8.992188 6.148438 8.957031 6.269531 C 8.921875 6.386719 8.902344 6.527344 8.902344 6.695312 L 8.902344 6.84375 L 8.292969 6.84375 Z M 8.09375 8.128906 C 8.09375 7.914062 8.140625 7.761719 8.242188 7.675781 C 8.34375 7.585938 8.476562 7.542969 8.632812 7.542969 C 8.777344 7.542969 8.902344 7.585938 9.007812 7.675781 C 9.113281 7.761719 9.164062 7.914062 9.164062 8.128906 C 9.164062 8.339844 9.113281 8.488281 9.007812 8.582031 C 8.902344 8.675781 8.777344 8.722656 8.632812 8.722656 C 8.476562 8.722656 8.34375 8.675781 8.242188 8.582031 C 8.140625 8.488281 8.09375 8.339844 8.09375 8.128906 Z M 8.09375 8.128906 "/>
</svg>
