<?xml version="1.0" encoding="UTF-8"?>
<svg xmlns="http://www.w3.org/2000/svg" xmlns:xlink="http://www.w3.org/1999/xlink" width="18" height="15.588901" viewBox="0 0 18 15.588901">
<path fill-rule="nonzero" fill="rgb(92.941176%, 84.705882%, 15.294118%)" fill-opacity="1" d="M 18 0 L 0 0 L 9 15.589844 Z M 18 0 "/>
<path fill-rule="nonzero" fill="rgb(4.313725%, 60.784314%, 48.235294%)" fill-opacity="1" d="M 16.46875 0.828125 L 1.53125 0.828125 L 9 13.699219 Z M 16.46875 0.828125 "/>
<path fill-rule="nonzero" fill="rgb(92.941176%, 84.705882%, 15.294118%)" fill-opacity="1" d="M 6.949219 5.9375 C 6.949219 5.488281 6.988281 5.050781 7.0625 4.621094 C 7.144531 4.183594 7.285156 3.789062 7.488281 3.441406 C 7.699219 3.085938 7.992188 2.804688 8.363281 2.59375 C 8.734375 2.386719 9.214844 2.28125 9.804688 2.28125 C 9.925781 2.28125 10.058594 2.285156 10.203125 2.296875 C 10.355469 2.308594 10.476562 2.332031 10.570312 2.359375 L 10.570312 3.015625 C 10.464844 2.980469 10.347656 2.953125 10.214844 2.933594 C 10.085938 2.917969 9.953125 2.910156 9.820312 2.910156 C 9.417969 2.910156 9.085938 2.976562 8.816406 3.109375 C 8.550781 3.242188 8.335938 3.425781 8.179688 3.660156 C 8.027344 3.890625 7.917969 4.160156 7.847656 4.460938 C 7.777344 4.765625 7.734375 5.089844 7.71875 5.429688 L 7.769531 5.429688 C 7.902344 5.226562 8.089844 5.054688 8.328125 4.917969 C 8.566406 4.769531 8.871094 4.699219 9.246094 4.699219 C 9.785156 4.699219 10.222656 4.863281 10.554688 5.195312 C 10.886719 5.523438 11.050781 5.988281 11.050781 6.59375 C 11.050781 7.242188 10.871094 7.757812 10.511719 8.128906 C 10.15625 8.5 9.675781 8.6875 9.070312 8.6875 C 8.675781 8.6875 8.316406 8.589844 7.996094 8.390625 C 7.675781 8.191406 7.421875 7.890625 7.226562 7.484375 C 7.042969 7.074219 6.949219 6.558594 6.949219 5.9375 Z M 9.0625 8.042969 C 9.425781 8.042969 9.722656 7.925781 9.953125 7.691406 C 10.179688 7.453125 10.292969 7.085938 10.292969 6.59375 C 10.292969 6.195312 10.191406 5.882812 9.984375 5.648438 C 9.789062 5.417969 9.488281 5.300781 9.085938 5.300781 C 8.8125 5.300781 8.574219 5.359375 8.371094 5.476562 C 8.167969 5.585938 8.007812 5.726562 7.890625 5.902344 C 7.78125 6.078125 7.726562 6.257812 7.726562 6.445312 C 7.726562 6.695312 7.773438 6.945312 7.875 7.195312 C 7.972656 7.4375 8.121094 7.644531 8.320312 7.804688 C 8.515625 7.960938 8.765625 8.042969 9.0625 8.042969 Z M 9.0625 8.042969 "/>
</svg>
