<?xml version="1.0" encoding="UTF-8" standalone="no"?>
<!-- Originally created with Inkscape, optimised by hand -->
<svg
   xmlns="http://www.w3.org/2000/svg"
   xmlns:xlink="http://www.w3.org/1999/xlink"
   width="87"
   height="106"
   version="1.1">
  <defs>
    <radialGradient
       id="GradientVert"
       cx="22.376717"
       cy="23.62672"
       r="5.3482823"
       gradientUnits="userSpaceOnUse"
       gradientTransform="matrix(0.760968,2.650145e-6,-2.696383e-6,0.774247,5.348805,5.333729)">
      <stop stop-color="#37fd0a" offset="0"/>
      <stop stop-color="#2adb02" offset="1"/>
    </radialGradient>
    <radialGradient
       id="GradientRouge"
       cx="22.376717"
       cy="43.975574"
       r="5.3107824"
       gradientUnits="userSpaceOnUse"
       gradientTransform="matrix(0.786027,-5.593156e-6,5.688322e-6,0.799401,4.787762,8.82161)">
      <stop stop-color="#fd1111" offset="0"/>
      <stop stop-color="#da0101" offset="1"/>
    </radialGradient>
    <radialGradient
       id="GradientJaune"
       cx="22.376717"
       cy="64.324425"
       r="5.1482825"
       gradientUnits="userSpaceOnUse"
       gradientTransform="matrix(0.696501,1.649579e-6,-1.845613e-6,0.779273,6.791434,14.19809)">
      <stop stop-color="#ffcf25" offset="0"/>
      <stop stop-color="#ea9a00" offset="1"/>
    </radialGradient>
    <radialGradient
       id="GradientBlanc"
       cx="22.376717"
       cy="84.673286"
       r="5.3357825"
       gradientUnits="userSpaceOnUse"
       gradientTransform="matrix(0.733787,4.697551e-6,-4.867965e-6,0.760408,5.957388,20.28691)">
      <stop stop-color="#efeacf" offset="0"/>
      <stop stop-color="#d9d4b6" offset="1"/>
    </radialGradient>
  </defs>
  <path
     style="fill:#000;stroke:none"
     d="M 2,1.65 L 85.321568,1.65 L 85.321568,32.25 L 56.921568,59.65 L 56.921568,104.65 L 2,104.65 L 2,1.65 z " />
  <path
     style="fill:#fff;fill-rule:evenodd;stroke:none"
     d="M 20.921568,4.65 L 63.321568,4.65 C 77.4,4.65 88.878432,21.65 76.8,35.25 L 54.4,57.65 L 54.4,86.65 C 54.4,93.65 47.4,102.65 38.4,102.65 L 21,102.65 C 12.4,102.65 4.4,94.05 4.4,86.65 L 4.4,21.25 C 4.4,11.65 13.4,4.65 20.921568,4.65 z 
        M 21.929,7.7166683 L 64.4,7.65 C 75.984612,7.65 84,22.65 75,32.65 L 51.4,55.65 L 51.4,84.65 C 51.4,93.65 43.4,100.25247 35.8,100.25 L 22.89851,100.24581 C 13.4,100.24273 7.4,92.591598 7.4,85.65 L 7.4,22.301372 C 7.4,13.65 13.914564,7.65 21.929,7.7166683 z" />
  <!-- fill:none;stroke:#3d3d3d;stroke-opacity:1;stroke-width:0.75 -->
  <circle
     id="Vert"
     style="fill:none;stroke:#3d3d3d;stroke-opacity:1;stroke-width:0.75"
     cx="22.376717"
     cy="23.626719"
     r="4.960782"/>
  <circle
     id="Rouge"
     style="fill:url(#GradientRouge);stroke:#da0202;stroke-width:0.75;stroke-opacity:0.72549021"
     cx="22.376717"
     cy="43.975573"
     r="4.960783"/>
  <circle
     id="Jaune"
     style="fill:none;stroke:#3d3d3d;stroke-opacity:1;stroke-width:0.75"
     cx="22.376717"
     cy="64.324423"
     r="4.960782"/>
  <circle
     id="Blanc"
     style="fill:none;stroke:#3d3d3d;stroke-opacity:1;stroke-width:0.75"
     cx="22.376717"
     cy="84.673283"
     r="4.960782"/>
  <use
     x="41.544857"
     y="-40.697704"
     xlink:href="#Jaune"/>
</svg>
