<?xml version="1.0" encoding="UTF-8"?>
<svg xmlns="http://www.w3.org/2000/svg" xmlns:xlink="http://www.w3.org/1999/xlink" width="16" height="19.78125" viewBox="0 0 16 19.78125">
<defs>
<radialGradient id="radial-pattern-0" gradientUnits="userSpaceOnUse" cx="22.376717" cy="23.62672" fx="22.376717" fy="23.62672" r="5.348282" gradientTransform="matrix(0.146158, 0.00000050901, -0.000000517888, 0.148708, 0.641623, 0.706326)">
<stop offset="0" stop-color="rgb(21.568627%, 99.215686%, 3.921569%)" stop-opacity="1"/>
<stop offset="1" stop-color="rgb(16.470588%, 85.882353%, 0.784314%)" stop-opacity="1"/>
</radialGradient>
</defs>
<path fill-rule="nonzero" fill="rgb(0%, 0%, 0%)" fill-opacity="1" d="M 0 0 L 16 0 L 16 5.875 L 10.542969 11.140625 L 10.542969 19.78125 L 0 19.78125 Z M 0 0 "/>
<path fill-rule="evenodd" fill="rgb(100%, 100%, 100%)" fill-opacity="1" d="M 3.636719 0.574219 L 11.777344 0.574219 C 14.480469 0.574219 16.683594 3.839844 14.367188 6.453125 L 10.066406 10.757812 L 10.066406 16.324219 C 10.066406 17.664062 8.71875 19.394531 6.988281 19.394531 L 3.648438 19.394531 C 1.996094 19.394531 0.460938 17.746094 0.460938 16.324219 L 0.460938 3.761719 C 0.460938 1.921875 2.1875 0.574219 3.636719 0.574219 Z M 3.824219 1.167969 L 11.984375 1.152344 C 14.207031 1.152344 15.746094 4.035156 14.023438 5.953125 L 9.488281 10.371094 L 9.488281 15.941406 C 9.488281 17.664062 7.949219 18.9375 6.492188 18.9375 L 4.011719 18.9375 C 2.1875 18.9375 1.035156 17.464844 1.035156 16.132812 L 1.035156 3.964844 C 1.035156 2.304688 2.289062 1.152344 3.824219 1.167969 Z M 3.824219 1.167969 "/>
<path fill-rule="nonzero" fill="url(#radial-pattern-0)" stroke-width="0.14405" stroke-linecap="butt" stroke-linejoin="miter" stroke="rgb(16.470588%, 85.490196%, 0.784314%)" stroke-opacity="0.72549" stroke-miterlimit="4" d="M 4.863281 4.21875 C 4.863281 4.75 4.441406 5.171875 3.914062 5.171875 C 3.386719 5.171875 2.960938 4.75 2.960938 4.21875 C 2.960938 3.695312 3.386719 3.269531 3.914062 3.269531 C 4.441406 3.269531 4.863281 3.695312 4.863281 4.21875 Z M 4.863281 4.21875 "/>
<path fill="none" stroke-width="0.14405" stroke-linecap="butt" stroke-linejoin="miter" stroke="rgb(23.921569%, 23.921569%, 23.921569%)" stroke-opacity="1" stroke-miterlimit="4" d="M 4.863281 12.035156 C 4.863281 12.5625 4.441406 12.988281 3.914062 12.988281 C 3.386719 12.988281 2.960938 12.5625 2.960938 12.035156 C 2.960938 11.511719 3.386719 11.082031 3.914062 11.082031 C 4.441406 11.082031 4.863281 11.511719 4.863281 12.035156 Z M 4.863281 12.035156 "/>
<path fill="none" stroke-width="0.14405" stroke-linecap="butt" stroke-linejoin="miter" stroke="rgb(23.921569%, 23.921569%, 23.921569%)" stroke-opacity="1" stroke-miterlimit="4" d="M 12.84375 4.21875 C 12.84375 4.75 12.417969 5.171875 11.894531 5.171875 C 11.363281 5.171875 10.9375 4.75 10.9375 4.21875 C 10.9375 3.695312 11.363281 3.269531 11.894531 3.269531 C 12.417969 3.269531 12.84375 3.695312 12.84375 4.21875 Z M 12.84375 4.21875 "/>
</svg>
