<?xml version="1.0" encoding="UTF-8"?>
<svg xmlns="http://www.w3.org/2000/svg" xmlns:xlink="http://www.w3.org/1999/xlink" width="16" height="19.78125" viewBox="0 0 16 19.78125">
<defs>
<radialGradient id="radial-pattern-0" gradientUnits="userSpaceOnUse" cx="22.376717" cy="23.62672" fx="22.376717" fy="23.62672" r="5.348282" gradientTransform="matrix(-0.146158, 0.00000050901, 0.000000517888, 0.148708, 15.358376, 0.706326)">
<stop offset="0" stop-color="rgb(21.568627%, 99.215686%, 3.921569%)" stop-opacity="1"/>
<stop offset="1" stop-color="rgb(16.470588%, 85.882353%, 0.784314%)" stop-opacity="1"/>
</radialGradient>
</defs>
<path fill-rule="nonzero" fill="rgb(0%, 0%, 0%)" fill-opacity="1" d="M 16 0 L 0 0 L 0 5.875 L 5.457031 11.140625 L 5.457031 19.78125 L 16 19.78125 Z M 16 0 "/>
<path fill-rule="evenodd" fill="rgb(100%, 100%, 100%)" fill-opacity="1" d="M 12.363281 0.574219 L 4.222656 0.574219 C 1.519531 0.574219 -0.683594 3.839844 1.632812 6.453125 L 5.933594 10.757812 L 5.933594 16.324219 C 5.933594 17.664062 7.28125 19.394531 9.011719 19.394531 L 12.351562 19.394531 C 14.003906 19.394531 15.539062 17.746094 15.539062 16.324219 L 15.539062 3.761719 C 15.539062 1.921875 13.8125 0.574219 12.363281 0.574219 Z M 12.175781 1.167969 L 4.015625 1.152344 C 1.792969 1.152344 0.253906 4.035156 1.976562 5.953125 L 6.511719 10.371094 L 6.511719 15.941406 C 6.511719 17.664062 8.050781 18.9375 9.507812 18.9375 L 11.988281 18.9375 C 13.8125 18.9375 14.964844 17.464844 14.964844 16.132812 L 14.964844 3.964844 C 14.964844 2.304688 13.710938 1.152344 12.175781 1.167969 Z M 12.175781 1.167969 "/>
<path fill-rule="nonzero" fill="url(#radial-pattern-0)" stroke-width="0.74185" stroke-linecap="butt" stroke-linejoin="miter" stroke="rgb(16.470588%, 85.490196%, 0.784314%)" stroke-opacity="0.72549" stroke-miterlimit="4" d="M 11.136719 4.21875 C 11.136719 4.75 11.558594 5.171875 12.085938 5.171875 C 12.613281 5.171875 13.039062 4.75 13.039062 4.21875 C 13.039062 3.695312 12.613281 3.269531 12.085938 3.269531 C 11.558594 3.269531 11.136719 3.695312 11.136719 4.21875 Z M 11.136719 4.21875 "/>
<path fill="none" stroke-width="0.140457" stroke-linecap="butt" stroke-linejoin="miter" stroke="rgb(23.921569%, 23.921569%, 23.921569%)" stroke-opacity="1" stroke-miterlimit="4" d="M 11.164062 11.835938 C 11.164062 12.34375 11.574219 12.761719 12.085938 12.761719 C 12.597656 12.761719 13.011719 12.34375 13.011719 11.835938 C 13.011719 11.324219 12.597656 10.90625 12.085938 10.90625 C 11.574219 10.90625 11.164062 11.324219 11.164062 11.835938 Z M 11.164062 11.835938 "/>
<path fill="none" stroke-width="0.139971" stroke-linecap="butt" stroke-linejoin="miter" stroke="rgb(23.921569%, 23.921569%, 23.921569%)" stroke-opacity="1" stroke-miterlimit="4" d="M 3.066406 4.097656 C 3.066406 4.613281 3.480469 5.027344 3.992188 5.027344 C 4.503906 5.027344 4.917969 4.613281 4.917969 4.097656 C 4.917969 3.589844 4.503906 3.175781 3.992188 3.175781 C 3.480469 3.175781 3.066406 3.589844 3.066406 4.097656 Z M 3.066406 4.097656 "/>
</svg>
