<?xml version="1.0" encoding="UTF-8" standalone="no"?>
<svg
   width="16.176884"
   height="20"
   viewBox="0 0 16.176884 20"
   version="1.1"
   id="svg8"
   sodipodi:docname="SAI-opposite-V.svg"
   inkscape:version="1.4.2 (ebf0e940d0, 2025-05-08)"
   xmlns:inkscape="http://www.inkscape.org/namespaces/inkscape"
   xmlns:sodipodi="http://sodipodi.sourceforge.net/DTD/sodipodi-0.dtd"
   xmlns="http://www.w3.org/2000/svg"
   xmlns:svg="http://www.w3.org/2000/svg">
  <sodipodi:namedview
     id="namedview8"
     pagecolor="#ffffff"
     bordercolor="#666666"
     borderopacity="1.0"
     inkscape:showpageshadow="2"
     inkscape:pageopacity="0.0"
     inkscape:pagecheckerboard="0"
     inkscape:deskcolor="#d1d1d1"
     inkscape:zoom="46.4"
     inkscape:cx="8.0818966"
     inkscape:cy="10"
     inkscape:window-width="1920"
     inkscape:window-height="1128"
     inkscape:window-x="0"
     inkscape:window-y="0"
     inkscape:window-maximized="1"
     inkscape:current-layer="svg8" />
  <defs
     id="defs2">
    <radialGradient
       id="radial-pattern-0"
       gradientUnits="userSpaceOnUse"
       cx="22.376717"
       cy="23.62672"
       fx="22.376717"
       fy="23.62672"
       r="5.348282"
       gradientTransform="matrix(-0.143579, 0.000000500028, 0.00000050875, 0.146084, 15.088449, 0.693863)">
      <stop
         offset="0"
         stop-color="rgb(21.568627%, 99.215686%, 3.921569%)"
         stop-opacity="1"
         id="stop1" />
      <stop
         offset="1"
         stop-color="rgb(16.470588%, 85.882353%, 0.784314%)"
         stop-opacity="1"
         id="stop2" />
    </radialGradient>
  </defs>
  <path
     fill-rule="nonzero"
     fill="rgb(0%, 0%, 0%)"
     fill-opacity="1"
     d="M 16.175781 0 L 0 0 L 0 5.941406 L 5.515625 11.261719 L 5.515625 20 L 16.175781 20 Z M 16.175781 0 "
     id="path2" />
  <path
     fill-rule="evenodd"
     fill="rgb(100%, 100%, 100%)"
     fill-opacity="1"
     d="M 12.503906 0.582031 L 4.269531 0.582031 C 1.535156 0.582031 -0.691406 3.882812 1.652344 6.523438 L 6.003906 10.875 L 6.003906 16.503906 C 6.003906 17.859375 7.359375 19.609375 9.109375 19.609375 L 12.492188 19.609375 C 14.160156 19.609375 15.710938 17.941406 15.710938 16.503906 L 15.710938 3.804688 C 15.710938 1.941406 13.964844 0.582031 12.503906 0.582031 Z M 12.308594 1.179688 L 4.058594 1.164062 C 1.8125 1.164062 0.257812 4.078125 2.003906 6.019531 L 6.585938 10.484375 L 6.585938 16.117188 C 6.585938 17.859375 8.140625 19.144531 9.617188 19.144531 L 12.121094 19.144531 C 13.964844 19.144531 15.132812 17.65625 15.132812 16.308594 L 15.132812 4.007812 C 15.132812 2.328125 13.867188 1.164062 12.308594 1.179688 Z M 12.308594 1.179688 "
     id="path3" />
  <path
     fill="none"
     stroke-width="0.141509"
     stroke-linecap="butt"
     stroke-linejoin="miter"
     stroke="rgb(23.921569%, 23.921569%, 23.921569%)"
     stroke-opacity="1"
     stroke-miterlimit="4"
     d="M 10.942783 11.823368 C 10.942783 12.339573 11.360302 12.760887 11.876507 12.760887 C 12.388916 12.760887 12.814026 12.339573 12.814026 11.823368 C 12.814026 11.307163 12.388916 10.885849 11.876507 10.885849 C 11.360302 10.885849 10.942783 11.307163 10.942783 11.823368 Z M 10.942783 11.823368 "
     transform="matrix(1.029146, 0, 0, 1.029146, 0, 0)"
     id="path6" />
  <path
     fill="none"
     stroke-width="0.141509"
     stroke-linecap="butt"
     stroke-linejoin="miter"
     stroke="rgb(23.921569%, 23.921569%, 23.921569%)"
     stroke-opacity="1"
     stroke-miterlimit="4"
     d="M 3.101025 4.144821 C 3.101025 4.664822 3.518543 5.08234 4.034748 5.08234 C 4.554749 5.08234 4.972267 4.664822 4.972267 4.144821 C 4.972267 3.628616 4.554749 3.211098 4.034748 3.211098 C 3.518543 3.211098 3.101025 3.628616 3.101025 4.144821 Z M 3.101025 4.144821 "
     transform="matrix(1.029146, 0, 0, 1.029146, 0, 0)"
     id="path8" />
  <path
     fill-rule="nonzero"
     fill="url(#radial-pattern-0)"
     stroke-width="0.141509"
     stroke-linecap="butt"
     stroke-linejoin="miter"
     stroke="rgb(16.470588%, 85.490196%, 0.784314%)"
     stroke-opacity="0.72549"
     stroke-miterlimit="4"
     d="m 11.261721,4.265626 c 0,0.5351569 0.429688,0.9648439 0.960939,0.9648439 0.527343,0 0.964844,-0.429687 0.964844,-0.9648439 0,-0.5312504 -0.437501,-0.9609373 -0.964844,-0.9609373 -0.531251,0 -0.960939,0.4296869 -0.960939,0.9609373 z m 0,0"
     id="path6-3"
     style="fill:#37fd0a;fill-opacity:1;stroke:#37fd0a;stroke-width:0.75;stroke-dasharray:none;stroke-opacity:1" />
</svg>
