<?xml version="1.0" encoding="UTF-8"?>
<svg xmlns="http://www.w3.org/2000/svg" xmlns:xlink="http://www.w3.org/1999/xlink" width="18" height="22.253976" viewBox="0 0 18 22.253976">
<path fill-rule="nonzero" fill="rgb(0%, 0%, 0%)" fill-opacity="1" d="M 18 0 L 0 0 L 0 6.609375 L 6.136719 12.53125 L 6.136719 22.253906 L 18 22.253906 Z M 18 0 "/>
<path fill-rule="evenodd" fill="rgb(100%, 100%, 100%)" fill-opacity="1" d="M 13.914062 0.648438 L 4.75 0.648438 C 1.707031 0.648438 -0.769531 4.320312 1.835938 7.257812 L 6.683594 12.097656 L 6.683594 18.363281 C 6.683594 19.871094 8.1875 21.820312 10.136719 21.820312 L 13.902344 21.820312 C 15.753906 21.820312 17.480469 19.960938 17.480469 18.363281 L 17.480469 4.230469 C 17.480469 2.160156 15.539062 0.648438 13.914062 0.648438 Z M 13.695312 1.3125 L 4.515625 1.296875 C 2.015625 1.296875 0.289062 4.535156 2.230469 6.699219 L 7.328125 11.664062 L 7.328125 17.933594 C 7.328125 19.871094 9.054688 21.300781 10.699219 21.300781 L 13.484375 21.300781 C 15.539062 21.300781 16.835938 19.644531 16.835938 18.148438 L 16.835938 4.460938 C 16.835938 2.59375 15.429688 1.296875 13.695312 1.3125 Z M 13.695312 1.3125 "/>
<path fill-rule="nonzero" fill="rgb(21.568627%, 99.215686%, 3.921569%)" fill-opacity="1" stroke-width="0.72876" stroke-linecap="butt" stroke-linejoin="miter" stroke="rgb(21.568627%, 99.215686%, 3.921569%)" stroke-opacity="1" stroke-miterlimit="4" d="M 10.943081 4.14459 C 10.943081 4.666501 11.359246 5.082666 11.877746 5.082666 C 12.386013 5.082666 12.815822 4.666501 12.815822 4.14459 C 12.815822 3.629501 12.386013 3.213336 11.877746 3.213336 C 11.359246 3.213336 10.943081 3.629501 10.943081 4.14459 Z M 10.943081 4.14459 " transform="matrix(1.14513, 0, 0, 1.14513, 0, 0)"/>
<path fill="none" stroke-width="0.141509" stroke-linecap="butt" stroke-linejoin="miter" stroke="rgb(23.921569%, 23.921569%, 23.921569%)" stroke-opacity="1" stroke-miterlimit="4" d="M 10.943081 11.823167 C 10.943081 12.338256 11.359246 12.761243 11.877746 12.761243 C 12.386013 12.761243 12.815822 12.338256 12.815822 11.823167 C 12.815822 11.308078 12.386013 10.885091 11.877746 10.885091 C 11.359246 10.885091 10.943081 11.308078 10.943081 11.823167 Z M 10.943081 11.823167 " transform="matrix(1.14513, 0, 0, 1.14513, 0, 0)"/>
<path fill-rule="nonzero" fill="rgb(100%, 81.176471%, 14.509804%)" fill-opacity="1" stroke-width="0.72876" stroke-linecap="butt" stroke-linejoin="miter" stroke="rgb(100%, 81.176471%, 14.509804%)" stroke-opacity="1" stroke-miterlimit="4" d="M 3.100767 4.14459 C 3.100767 4.666501 3.520343 5.082666 4.032021 5.082666 C 4.553932 5.082666 4.973508 4.666501 4.973508 4.14459 C 4.973508 3.629501 4.553932 3.213336 4.032021 3.213336 C 3.520343 3.213336 3.100767 3.629501 3.100767 4.14459 Z M 3.100767 4.14459 " transform="matrix(1.14513, 0, 0, 1.14513, 0, 0)"/>
</svg>
