<?xml version="1.0" encoding="UTF-8"?>
<svg xmlns="http://www.w3.org/2000/svg" xmlns:xlink="http://www.w3.org/1999/xlink" width="16" height="19.78125" viewBox="0 0 16 19.78125">
<defs>
<radialGradient id="radial-pattern-0" gradientUnits="userSpaceOnUse" cx="22.376717" cy="64.324425" fx="22.376717" fy="64.324425" r="5.148283" gradientTransform="matrix(-0.133775, 0.000000316831, 0.000000354483, 0.149673, 15.082389, 2.408887)">
<stop offset="0" stop-color="rgb(100%, 81.176471%, 14.509804%)" stop-opacity="1"/>
<stop offset="1" stop-color="rgb(91.764706%, 60.392157%, 0%)" stop-opacity="1"/>
</radialGradient>
<radialGradient id="radial-pattern-1" gradientUnits="userSpaceOnUse" cx="22.376717" cy="64.324425" fx="22.376717" fy="64.324425" r="5.148283" gradientTransform="matrix(-0.133775, 0.000000316831, 0.000000354483, 0.149673, 7.102936, -5.407853)">
<stop offset="0" stop-color="rgb(100%, 81.176471%, 14.509804%)" stop-opacity="1"/>
<stop offset="1" stop-color="rgb(91.764706%, 60.392157%, 0%)" stop-opacity="1"/>
</radialGradient>
</defs>
<path fill-rule="nonzero" fill="rgb(0%, 0%, 0%)" fill-opacity="1" d="M 16 0 L 0 0 L 0 5.875 L 5.457031 11.140625 L 5.457031 19.78125 L 16 19.78125 Z M 16 0 "/>
<path fill-rule="evenodd" fill="rgb(100%, 100%, 100%)" fill-opacity="1" d="M 12.367188 0.574219 L 4.222656 0.574219 C 1.519531 0.574219 -0.683594 3.839844 1.632812 6.453125 L 5.9375 10.757812 L 5.9375 16.324219 C 5.9375 17.664062 7.28125 19.394531 9.011719 19.394531 L 12.355469 19.394531 C 14.007812 19.394531 15.539062 17.746094 15.539062 16.324219 L 15.539062 3.761719 C 15.539062 1.921875 13.8125 0.574219 12.367188 0.574219 Z M 12.175781 1.167969 L 4.015625 1.152344 C 1.792969 1.152344 0.253906 4.035156 1.980469 5.953125 L 6.515625 10.371094 L 6.515625 15.941406 C 6.515625 17.664062 8.050781 18.9375 9.511719 18.9375 L 11.988281 18.9375 C 13.8125 18.9375 14.96875 17.464844 14.96875 16.132812 L 14.96875 3.964844 C 14.96875 2.304688 13.714844 1.152344 12.175781 1.167969 Z M 12.175781 1.167969 "/>
<path fill="none" stroke-width="0.14405" stroke-linecap="butt" stroke-linejoin="miter" stroke="rgb(23.921569%, 23.921569%, 23.921569%)" stroke-opacity="1" stroke-miterlimit="4" d="M 11.140625 4.21875 C 11.140625 4.75 11.5625 5.171875 12.089844 5.171875 C 12.613281 5.171875 13.042969 4.75 13.042969 4.21875 C 13.042969 3.695312 12.613281 3.269531 12.089844 3.269531 C 11.5625 3.269531 11.140625 3.695312 11.140625 4.21875 Z M 11.140625 4.21875 "/>
<path fill-rule="nonzero" fill="url(#radial-pattern-0)" stroke-width="0.14405" stroke-linecap="butt" stroke-linejoin="miter" stroke="rgb(86.27451%, 52.54902%, 0%)" stroke-opacity="0.72549" stroke-miterlimit="4" d="M 11.140625 12.035156 C 11.140625 12.5625 11.5625 12.988281 12.089844 12.988281 C 12.613281 12.988281 13.042969 12.5625 13.042969 12.035156 C 13.042969 11.511719 12.613281 11.082031 12.089844 11.082031 C 11.5625 11.082031 11.140625 11.511719 11.140625 12.035156 Z M 11.140625 12.035156 "/>
<path fill-rule="nonzero" fill="url(#radial-pattern-1)" stroke-width="0.14405" stroke-linecap="butt" stroke-linejoin="miter" stroke="rgb(86.27451%, 52.54902%, 0%)" stroke-opacity="0.72549" stroke-miterlimit="4" d="M 3.15625 4.21875 C 3.15625 4.75 3.582031 5.171875 4.105469 5.171875 C 4.636719 5.171875 5.0625 4.75 5.0625 4.21875 C 5.0625 3.695312 4.636719 3.269531 4.105469 3.269531 C 3.582031 3.269531 3.15625 3.695312 3.15625 4.21875 Z M 3.15625 4.21875 "/>
</svg>
