<?xml version="1.0" encoding="UTF-8"?>
<svg xmlns="http://www.w3.org/2000/svg" xmlns:xlink="http://www.w3.org/1999/xlink" width="16" height="27.966446" viewBox="0 0 16 27.966446">
<defs>
<radialGradient id="radial-pattern-0" gradientUnits="userSpaceOnUse" cx="22.376717" cy="23.62672" fx="22.376717" fy="23.62672" r="5.348282" gradientTransform="matrix(-0.147764, 0.000000514602, 0.000000523578, 0.150342, 15.528217, 0.714086)">
<stop offset="0" stop-color="rgb(21.568627%, 99.215686%, 3.921569%)" stop-opacity="1"/>
<stop offset="1" stop-color="rgb(16.470588%, 85.882353%, 0.784314%)" stop-opacity="1"/>
</radialGradient>
<radialGradient id="radial-pattern-1" gradientUnits="userSpaceOnUse" cx="22.376717" cy="64.324425" fx="22.376717" fy="64.324425" r="5.148283" gradientTransform="matrix(-0.135245, 0.000000320312, 0.000000358377, 0.151317, 15.24809, 2.435352)">
<stop offset="0" stop-color="rgb(100%, 81.176471%, 14.509804%)" stop-opacity="1"/>
<stop offset="1" stop-color="rgb(91.764706%, 60.392157%, 0%)" stop-opacity="1"/>
</radialGradient>
</defs>
<path fill-rule="nonzero" fill="rgb(0%, 0%, 0%)" fill-opacity="1" d="M 16 0 L 0 0 L 0 5.875 L 5.457031 11.140625 L 5.457031 19.78125 L 16 19.78125 Z M 16 0 "/>
<path fill-rule="evenodd" fill="rgb(100%, 100%, 100%)" fill-opacity="1" d="M 12.367188 0.574219 L 4.222656 0.574219 C 1.519531 0.574219 -0.683594 3.839844 1.632812 6.453125 L 5.9375 10.757812 L 5.9375 16.324219 C 5.9375 17.664062 7.28125 19.394531 9.011719 19.394531 L 12.355469 19.394531 C 14.007812 19.394531 15.539062 17.746094 15.539062 16.324219 L 15.539062 3.761719 C 15.539062 1.921875 13.8125 0.574219 12.367188 0.574219 Z M 12.175781 1.167969 L 4.015625 1.152344 C 1.792969 1.152344 0.253906 4.035156 1.980469 5.953125 L 6.515625 10.371094 L 6.515625 15.941406 C 6.515625 17.664062 8.050781 18.9375 9.511719 18.9375 L 11.988281 18.9375 C 13.8125 18.9375 14.96875 17.464844 14.96875 16.132812 L 14.96875 3.964844 C 14.96875 2.304688 13.714844 1.152344 12.175781 1.167969 Z M 12.175781 1.167969 "/>
<path fill-rule="nonzero" fill="url(#radial-pattern-0)" stroke-width="0.145633" stroke-linecap="butt" stroke-linejoin="miter" stroke="rgb(16.470588%, 85.490196%, 0.784314%)" stroke-opacity="0.72549" stroke-miterlimit="4" d="M 11.26302 4.265099 C 11.26302 4.802185 11.68953 5.228695 12.222667 5.228695 C 12.751856 5.228695 13.186264 4.802185 13.186264 4.265099 C 13.186264 3.735911 12.751856 3.305452 12.222667 3.305452 C 11.68953 3.305452 11.26302 3.735911 11.26302 4.265099 Z M 11.26302 4.265099 " transform="matrix(0.989133, 0, 0, 0.989133, 0, 0)"/>
<path fill-rule="nonzero" fill="url(#radial-pattern-1)" stroke-width="0.145633" stroke-linecap="butt" stroke-linejoin="miter" stroke="rgb(86.27451%, 52.54902%, 0%)" stroke-opacity="0.72549" stroke-miterlimit="4" d="M 11.26302 12.167379 C 11.26302 12.700517 11.68953 13.130976 12.222667 13.130976 C 12.751856 13.130976 13.186264 12.700517 13.186264 12.167379 C 13.186264 11.638191 12.751856 11.203783 12.222667 11.203783 C 11.68953 11.203783 11.26302 11.638191 11.26302 12.167379 Z M 11.26302 12.167379 " transform="matrix(0.989133, 0, 0, 0.989133, 0, 0)"/>
<path fill="none" stroke-width="0.145633" stroke-linecap="butt" stroke-linejoin="miter" stroke="rgb(23.921569%, 23.921569%, 23.921569%)" stroke-opacity="1" stroke-miterlimit="4" d="M 3.190926 4.265099 C 3.190926 4.802185 3.621385 5.228695 4.150573 5.228695 C 4.68766 5.228695 5.118119 4.802185 5.118119 4.265099 C 5.118119 3.735911 4.68766 3.305452 4.150573 3.305452 C 3.621385 3.305452 3.190926 3.735911 3.190926 4.265099 Z M 3.190926 4.265099 " transform="matrix(0.989133, 0, 0, 0.989133, 0, 0)"/>
<path fill="none" stroke-width="0.5" stroke-linecap="round" stroke-linejoin="round" stroke="rgb(0%, 0%, 0%)" stroke-opacity="1" stroke-miterlimit="4" d="M 14.160156 24.386719 C 14.160156 26.226562 12.667969 27.71875 10.828125 27.71875 C 8.988281 27.71875 7.496094 26.226562 7.496094 24.386719 C 7.496094 22.546875 8.988281 21.054688 10.828125 21.054688 C 12.667969 21.054688 14.160156 22.546875 14.160156 24.386719 Z M 14.160156 24.386719 "/>
<path fill-rule="nonzero" fill="rgb(100%, 98.039216%, 0%)" fill-opacity="1" d="M 14.160156 24.386719 C 14.160156 26.226562 12.667969 27.71875 10.828125 27.71875 C 8.988281 27.71875 7.496094 26.226562 7.496094 24.386719 C 7.496094 22.546875 8.988281 21.054688 10.828125 21.054688 C 12.667969 21.054688 14.160156 22.546875 14.160156 24.386719 Z M 14.160156 24.386719 "/>
</svg>
