<?xml version="1.0" encoding="UTF-8"?>
<svg xmlns="http://www.w3.org/2000/svg" xmlns:xlink="http://www.w3.org/1999/xlink" width="16" height="27.966446" viewBox="0 0 16 27.966446">
<defs>
<radialGradient id="radial-pattern-0" gradientUnits="userSpaceOnUse" cx="22.376717" cy="64.324425" fx="22.376717" fy="64.324425" r="5.148283" gradientTransform="matrix(0.135245, 0.000000320312, -0.000000358377, 0.151317, 0.928799, 2.435352)">
<stop offset="0" stop-color="rgb(100%, 81.176471%, 14.509804%)" stop-opacity="1"/>
<stop offset="1" stop-color="rgb(91.764706%, 60.392157%, 0%)" stop-opacity="1"/>
</radialGradient>
<radialGradient id="radial-pattern-1" gradientUnits="userSpaceOnUse" cx="22.376717" cy="64.324425" fx="22.376717" fy="64.324425" r="5.148283" gradientTransform="matrix(0.135245, 0.000000320312, -0.000000358377, 0.151317, 8.995916, -5.467266)">
<stop offset="0" stop-color="rgb(100%, 81.176471%, 14.509804%)" stop-opacity="1"/>
<stop offset="1" stop-color="rgb(91.764706%, 60.392157%, 0%)" stop-opacity="1"/>
</radialGradient>
</defs>
<path fill-rule="nonzero" fill="rgb(0%, 0%, 0%)" fill-opacity="1" d="M 0 0 L 16 0 L 16 5.875 L 10.542969 11.140625 L 10.542969 19.78125 L 0 19.78125 Z M 0 0 "/>
<path fill-rule="evenodd" fill="rgb(100%, 100%, 100%)" fill-opacity="1" d="M 3.636719 0.574219 L 11.777344 0.574219 C 14.480469 0.574219 16.683594 3.839844 14.367188 6.453125 L 10.066406 10.757812 L 10.066406 16.324219 C 10.066406 17.664062 8.71875 19.394531 6.988281 19.394531 L 3.648438 19.394531 C 1.996094 19.394531 0.460938 17.746094 0.460938 16.324219 L 0.460938 3.761719 C 0.460938 1.921875 2.1875 0.574219 3.636719 0.574219 Z M 3.824219 1.167969 L 11.984375 1.152344 C 14.207031 1.152344 15.746094 4.035156 14.023438 5.953125 L 9.488281 10.371094 L 9.488281 15.941406 C 9.488281 17.664062 7.949219 18.9375 6.492188 18.9375 L 4.011719 18.9375 C 2.1875 18.9375 1.035156 17.464844 1.035156 16.132812 L 1.035156 3.964844 C 1.035156 2.304688 2.289062 1.152344 3.824219 1.167969 Z M 3.824219 1.167969 "/>
<path fill="none" stroke-width="0.145633" stroke-linecap="butt" stroke-linejoin="miter" stroke="rgb(23.921569%, 23.921569%, 23.921569%)" stroke-opacity="1" stroke-miterlimit="4" d="M 4.916711 4.265099 C 4.916711 4.802185 4.490201 5.228695 3.957064 5.228695 C 3.423927 5.228695 2.993468 4.802185 2.993468 4.265099 C 2.993468 3.735911 3.423927 3.305452 3.957064 3.305452 C 4.490201 3.305452 4.916711 3.735911 4.916711 4.265099 Z M 4.916711 4.265099 " transform="matrix(0.989133, 0, 0, 0.989133, 0, 0)"/>
<path fill-rule="nonzero" fill="url(#radial-pattern-0)" stroke-width="0.145633" stroke-linecap="butt" stroke-linejoin="miter" stroke="rgb(86.27451%, 52.54902%, 0%)" stroke-opacity="0.72549" stroke-miterlimit="4" d="M 4.916711 12.167379 C 4.916711 12.700517 4.490201 13.130976 3.957064 13.130976 C 3.423927 13.130976 2.993468 12.700517 2.993468 12.167379 C 2.993468 11.638191 3.423927 11.203783 3.957064 11.203783 C 4.490201 11.203783 4.916711 11.638191 4.916711 12.167379 Z M 4.916711 12.167379 " transform="matrix(0.989133, 0, 0, 0.989133, 0, 0)"/>
<path fill-rule="nonzero" fill="url(#radial-pattern-1)" stroke-width="0.145633" stroke-linecap="butt" stroke-linejoin="miter" stroke="rgb(86.27451%, 52.54902%, 0%)" stroke-opacity="0.72549" stroke-miterlimit="4" d="M 12.984856 4.265099 C 12.984856 4.802185 12.554397 5.228695 12.025209 5.228695 C 11.488123 5.228695 11.057664 4.802185 11.057664 4.265099 C 11.057664 3.735911 11.488123 3.305452 12.025209 3.305452 C 12.554397 3.305452 12.984856 3.735911 12.984856 4.265099 Z M 12.984856 4.265099 " transform="matrix(0.989133, 0, 0, 0.989133, 0, 0)"/>
<path fill="none" stroke-width="0.5" stroke-linecap="round" stroke-linejoin="round" stroke="rgb(0%, 0%, 0%)" stroke-opacity="1" stroke-miterlimit="4" d="M 8.585938 24.308594 C 8.585938 26.148438 7.09375 27.640625 5.253906 27.640625 C 3.414062 27.640625 1.921875 26.148438 1.921875 24.308594 C 1.921875 22.46875 3.414062 20.976562 5.253906 20.976562 C 7.09375 20.976562 8.585938 22.46875 8.585938 24.308594 Z M 8.585938 24.308594 "/>
<path fill-rule="nonzero" fill="rgb(100%, 98.039216%, 0%)" fill-opacity="1" d="M 8.585938 24.308594 C 8.585938 26.148438 7.09375 27.640625 5.253906 27.640625 C 3.414062 27.640625 1.921875 26.148438 1.921875 24.308594 C 1.921875 22.46875 3.414062 20.976562 5.253906 20.976562 C 7.09375 20.976562 8.585938 22.46875 8.585938 24.308594 Z M 8.585938 24.308594 "/>
</svg>
