<?xml version="1.0" encoding="UTF-8"?>
<svg xmlns="http://www.w3.org/2000/svg" xmlns:xlink="http://www.w3.org/1999/xlink" width="16" height="27.966446" viewBox="0 0 16 27.966446">
<defs>
<radialGradient id="radial-pattern-0" gradientUnits="userSpaceOnUse" cx="22.376717" cy="23.62672" fx="22.376717" fy="23.62672" r="5.348282" gradientTransform="matrix(-0.147764, 0.000000514602, 0.000000523578, 0.150342, 15.527109, 0.714086)">
<stop offset="0" stop-color="rgb(21.568627%, 99.215686%, 3.921569%)" stop-opacity="1"/>
<stop offset="1" stop-color="rgb(16.470588%, 85.882353%, 0.784314%)" stop-opacity="1"/>
</radialGradient>
</defs>
<path fill-rule="nonzero" fill="rgb(0%, 0%, 0%)" fill-opacity="1" d="M 16 0 L 0 0 L 0 5.875 L 5.457031 11.140625 L 5.457031 19.78125 L 16 19.78125 Z M 16 0 "/>
<path fill-rule="evenodd" fill="rgb(100%, 100%, 100%)" fill-opacity="1" d="M 12.363281 0.574219 L 4.222656 0.574219 C 1.519531 0.574219 -0.683594 3.839844 1.632812 6.453125 L 5.933594 10.757812 L 5.933594 16.324219 C 5.933594 17.664062 7.28125 19.394531 9.011719 19.394531 L 12.351562 19.394531 C 14.003906 19.394531 15.539062 17.746094 15.539062 16.324219 L 15.539062 3.761719 C 15.539062 1.921875 13.8125 0.574219 12.363281 0.574219 Z M 12.175781 1.167969 L 4.015625 1.152344 C 1.792969 1.152344 0.253906 4.035156 1.976562 5.953125 L 6.511719 10.371094 L 6.511719 15.941406 C 6.511719 17.664062 8.050781 18.9375 9.507812 18.9375 L 11.988281 18.9375 C 13.8125 18.9375 14.964844 17.464844 14.964844 16.132812 L 14.964844 3.964844 C 14.964844 2.304688 13.710938 1.152344 12.175781 1.167969 Z M 12.175781 1.167969 "/>
<path fill-rule="nonzero" fill="url(#radial-pattern-0)" stroke-width="0.75" stroke-linecap="butt" stroke-linejoin="miter" stroke="rgb(16.470588%, 85.490196%, 0.784314%)" stroke-opacity="0.72549" stroke-miterlimit="4" d="M 11.259071 4.265099 C 11.259071 4.802185 11.685581 5.228695 12.218718 5.228695 C 12.751856 5.228695 13.182315 4.802185 13.182315 4.265099 C 13.182315 3.735911 12.751856 3.305452 12.218718 3.305452 C 11.685581 3.305452 11.259071 3.735911 11.259071 4.265099 Z M 11.259071 4.265099 " transform="matrix(0.989133, 0, 0, 0.989133, 0, 0)"/>
<path fill="none" stroke-width="0.142" stroke-linecap="butt" stroke-linejoin="miter" stroke="rgb(23.921569%, 23.921569%, 23.921569%)" stroke-opacity="1" stroke-miterlimit="4" d="M 11.286715 11.965972 C 11.286715 12.479363 11.701378 12.901924 12.218718 12.901924 C 12.736059 12.901924 13.154671 12.479363 13.154671 11.965972 C 13.154671 11.448631 12.736059 11.02607 12.218718 11.02607 C 11.701378 11.02607 11.286715 11.448631 11.286715 11.965972 Z M 11.286715 11.965972 " transform="matrix(0.989133, 0, 0, 0.989133, 0, 0)"/>
<path fill="none" stroke-width="0.141509" stroke-linecap="butt" stroke-linejoin="miter" stroke="rgb(23.921569%, 23.921569%, 23.921569%)" stroke-opacity="1" stroke-miterlimit="4" d="M 3.100095 4.142675 C 3.100095 4.663965 3.518707 5.082576 4.036047 5.082576 C 4.553388 5.082576 4.971999 4.663965 4.971999 4.142675 C 4.971999 3.629283 4.553388 3.210672 4.036047 3.210672 C 3.518707 3.210672 3.100095 3.629283 3.100095 4.142675 Z M 3.100095 4.142675 " transform="matrix(0.989133, 0, 0, 0.989133, 0, 0)"/>
<path fill="none" stroke-width="0.5" stroke-linecap="round" stroke-linejoin="round" stroke="rgb(0%, 0%, 0%)" stroke-opacity="1" stroke-miterlimit="4" d="M 14.160156 24.386719 C 14.160156 26.226562 12.667969 27.71875 10.828125 27.71875 C 8.988281 27.71875 7.496094 26.226562 7.496094 24.386719 C 7.496094 22.546875 8.988281 21.054688 10.828125 21.054688 C 12.667969 21.054688 14.160156 22.546875 14.160156 24.386719 Z M 14.160156 24.386719 "/>
<path fill-rule="nonzero" fill="rgb(100%, 98.039216%, 0%)" fill-opacity="1" d="M 14.160156 24.386719 C 14.160156 26.226562 12.667969 27.71875 10.828125 27.71875 C 8.988281 27.71875 7.496094 26.226562 7.496094 24.386719 C 7.496094 22.546875 8.988281 21.054688 10.828125 21.054688 C 12.667969 21.054688 14.160156 22.546875 14.160156 24.386719 Z M 14.160156 24.386719 "/>
</svg>
