<?xml version="1.0" encoding="UTF-8"?>
<svg xmlns="http://www.w3.org/2000/svg" xmlns:xlink="http://www.w3.org/1999/xlink" width="16.176884" height="20" viewBox="0 0 16.176884 20">
<path fill-rule="nonzero" fill="rgb(0%, 0%, 0%)" fill-opacity="1" d="M 0 0 L 16.175781 0 L 16.175781 5.941406 L 10.660156 11.261719 L 10.660156 20 L 0 20 Z M 0 0 "/>
<path fill-rule="evenodd" fill="rgb(100%, 100%, 100%)" fill-opacity="1" d="M 3.671875 0.582031 L 11.90625 0.582031 C 14.640625 0.582031 16.867188 3.882812 14.523438 6.523438 L 10.171875 10.875 L 10.171875 16.503906 C 10.171875 17.859375 8.816406 19.609375 7.066406 19.609375 L 3.683594 19.609375 C 2.015625 19.609375 0.464844 17.941406 0.464844 16.503906 L 0.464844 3.804688 C 0.464844 1.941406 2.210938 0.582031 3.671875 0.582031 Z M 3.867188 1.179688 L 12.117188 1.164062 C 14.363281 1.164062 15.917969 4.078125 14.171875 6.019531 L 9.589844 10.484375 L 9.589844 16.117188 C 9.589844 17.859375 8.035156 19.144531 6.558594 19.144531 L 4.054688 19.144531 C 2.210938 19.144531 1.042969 17.65625 1.042969 16.308594 L 1.042969 4.007812 C 1.042969 2.328125 2.308594 1.164062 3.867188 1.179688 Z M 3.867188 1.179688 "/>
<path fill-rule="nonzero" fill="rgb(21.568627%, 99.215686%, 3.921569%)" fill-opacity="1" stroke-width="0.75" stroke-linecap="butt" stroke-linejoin="miter" stroke="rgb(21.568627%, 99.215686%, 3.921569%)" stroke-opacity="1" stroke-miterlimit="4" d="M 4.914062 4.265625 C 4.914062 4.800781 4.484375 5.230469 3.953125 5.230469 C 3.425781 5.230469 2.988281 4.800781 2.988281 4.265625 C 2.988281 3.734375 3.425781 3.304688 3.953125 3.304688 C 4.484375 3.304688 4.914062 3.734375 4.914062 4.265625 Z M 4.914062 4.265625 "/>
<path fill="none" stroke-width="0.141509" stroke-linecap="butt" stroke-linejoin="miter" stroke="rgb(23.921569%, 23.921569%, 23.921569%)" stroke-opacity="1" stroke-miterlimit="4" d="M 4.914062 12.167969 C 4.914062 12.699219 4.484375 13.132812 3.953125 13.132812 C 3.425781 13.132812 2.988281 12.699219 2.988281 12.167969 C 2.988281 11.636719 3.425781 11.203125 3.953125 11.203125 C 4.484375 11.203125 4.914062 11.636719 4.914062 12.167969 Z M 4.914062 12.167969 "/>
<path fill-rule="nonzero" fill="rgb(100%, 81.176471%, 14.509804%)" fill-opacity="1" stroke-width="0.75" stroke-linecap="butt" stroke-linejoin="miter" stroke="rgb(100%, 81.176471%, 14.509804%)" stroke-opacity="1" stroke-miterlimit="4" d="M 12.984375 4.265625 C 12.984375 4.800781 12.554688 5.230469 12.023438 5.230469 C 11.488281 5.230469 11.058594 4.800781 11.058594 4.265625 C 11.058594 3.734375 11.488281 3.304688 12.023438 3.304688 C 12.554688 3.304688 12.984375 3.734375 12.984375 4.265625 Z M 12.984375 4.265625 "/>
</svg>
