<?xml version="1.0" encoding="UTF-8"?>
<svg xmlns="http://www.w3.org/2000/svg" xmlns:xlink="http://www.w3.org/1999/xlink" width="14" height="14" viewBox="0 0 14 14">
<path fill-rule="evenodd" fill="rgb(100%, 100%, 100%)" fill-opacity="1" stroke-width="0.04" stroke-linecap="butt" stroke-linejoin="miter" stroke="rgb(0%, 0%, 0%)" stroke-opacity="1" stroke-miterlimit="1.7" d="M 5.998884 1.994978 L 44.001116 1.994978 L 44.001116 48.005022 L 5.998884 48.005022 Z M 5.998884 1.994978 " transform="matrix(0.28, 0, 0, 0.28, 0, 0)"/>
<path fill-rule="evenodd" fill="rgb(92.156863%, 0%, 0%)" fill-opacity="1" d="M 1.679688 11.761719 L 12.320312 11.761719 L 12.320312 13.441406 L 1.679688 13.441406 Z M 1.679688 11.761719 "/>
<path fill-rule="evenodd" fill="rgb(90.196078%, 0%, 0%)" fill-opacity="1" d="M 1.679688 0.558594 L 12.320312 0.558594 L 12.320312 2.238281 L 1.679688 2.238281 Z M 1.679688 0.558594 "/>
<path fill-rule="evenodd" fill="rgb(90.196078%, 0%, 0%)" fill-opacity="1" stroke-width="0.04" stroke-linecap="butt" stroke-linejoin="miter" stroke="rgb(0%, 0%, 0%)" stroke-opacity="1" stroke-miterlimit="1.7" d="M 23.493304 35.993304 L 26.506696 35.993304 L 26.506696 17.006138 L 32.50558 17.006138 L 32.50558 14.006696 L 17.49442 14.006696 L 17.49442 17.006138 L 23.493304 17.006138 Z M 23.493304 35.993304 " transform="matrix(0.28, 0, 0, 0.28, 0, 0)"/>
</svg>
