<?xml version="1.0" encoding="UTF-8"?>
<svg xmlns="http://www.w3.org/2000/svg" xmlns:xlink="http://www.w3.org/1999/xlink" width="21" height="14" viewBox="0 0 21 14">
<rect x="-2.1" y="-1.4" width="25.2" height="16.8" fill="rgb(0%, 0%, 0%)" fill-opacity="1"/>
<path fill-rule="nonzero" fill="rgb(100%, 100%, 100%)" fill-opacity="1" d="M 0.800781 0.800781 L 20.199219 0.800781 L 20.199219 13.199219 L 0.800781 13.199219 Z M 0.800781 0.800781 "/>
<path fill-rule="nonzero" fill="rgb(0%, 0%, 0%)" fill-opacity="1" d="M 5.929688 11.472656 L 4.144531 11.472656 L 4.144531 4.75 C 3.496094 5.359375 2.726562 5.808594 1.84375 6.101562 L 1.84375 4.484375 C 2.308594 4.332031 2.8125 4.042969 3.359375 3.617188 C 3.90625 3.191406 4.28125 2.695312 4.484375 2.128906 L 5.929688 2.128906 Z M 5.929688 11.472656 "/>
<path fill-rule="nonzero" fill="rgb(0%, 0%, 0%)" fill-opacity="1" d="M 9.523438 2.128906 C 10.421875 2.128906 11.128906 2.449219 11.636719 3.09375 C 12.242188 3.855469 12.542969 5.117188 12.542969 6.882812 C 12.542969 8.644531 12.238281 9.910156 11.628906 10.679688 C 11.125 11.3125 10.421875 11.628906 9.523438 11.628906 C 8.617188 11.628906 7.886719 11.28125 7.332031 10.585938 C 6.777344 9.890625 6.5 8.648438 6.5 6.863281 C 6.5 5.113281 6.804688 3.851562 7.414062 3.082031 C 7.917969 2.445312 8.621094 2.128906 9.523438 2.128906 Z M 9.523438 3.605469 C 9.304688 3.605469 9.113281 3.675781 8.945312 3.8125 C 8.777344 3.949219 8.644531 4.199219 8.550781 4.554688 C 8.429688 5.015625 8.367188 5.789062 8.367188 6.882812 C 8.367188 7.972656 8.421875 8.722656 8.53125 9.132812 C 8.640625 9.542969 8.78125 9.8125 8.949219 9.949219 C 9.113281 10.085938 9.304688 10.152344 9.523438 10.152344 C 9.738281 10.152344 9.929688 10.082031 10.101562 9.945312 C 10.269531 9.808594 10.402344 9.5625 10.492188 9.207031 C 10.617188 8.75 10.679688 7.972656 10.679688 6.882812 C 10.679688 5.789062 10.621094 5.039062 10.511719 4.632812 C 10.402344 4.222656 10.265625 3.949219 10.097656 3.8125 C 9.929688 3.675781 9.738281 3.605469 9.523438 3.605469 Z M 9.523438 3.605469 "/>
<path fill-rule="nonzero" fill="rgb(0%, 0%, 0%)" fill-opacity="1" d="M 16.136719 2.128906 C 17.039062 2.128906 17.742188 2.449219 18.25 3.09375 C 18.855469 3.855469 19.15625 5.117188 19.15625 6.882812 C 19.15625 8.644531 18.851562 9.910156 18.242188 10.679688 C 17.742188 11.3125 17.039062 11.628906 16.136719 11.628906 C 15.230469 11.628906 14.5 11.28125 13.945312 10.585938 C 13.390625 9.890625 13.117188 8.648438 13.117188 6.863281 C 13.117188 5.113281 13.421875 3.851562 14.03125 3.082031 C 14.53125 2.445312 15.234375 2.128906 16.136719 2.128906 Z M 16.136719 3.605469 C 15.921875 3.605469 15.726562 3.675781 15.558594 3.8125 C 15.390625 3.949219 15.257812 4.199219 15.164062 4.554688 C 15.042969 5.015625 14.980469 5.789062 14.980469 6.882812 C 14.980469 7.972656 15.035156 8.722656 15.148438 9.132812 C 15.257812 9.542969 15.394531 9.8125 15.5625 9.949219 C 15.730469 10.085938 15.921875 10.152344 16.136719 10.152344 C 16.351562 10.152344 16.546875 10.082031 16.714844 9.945312 C 16.882812 9.808594 17.015625 9.5625 17.109375 9.207031 C 17.230469 8.75 17.292969 7.972656 17.292969 6.882812 C 17.292969 5.789062 17.238281 5.039062 17.125 4.632812 C 17.015625 4.222656 16.878906 3.949219 16.710938 3.8125 C 16.542969 3.675781 16.351562 3.605469 16.136719 3.605469 Z M 16.136719 3.605469 "/>
</svg>
