<?xml version="1.0" encoding="UTF-8"?>
<svg xmlns="http://www.w3.org/2000/svg" xmlns:xlink="http://www.w3.org/1999/xlink" width="21" height="14" viewBox="0 0 21 14">
<rect x="-2.1" y="-1.4" width="25.2" height="16.8" fill="rgb(0%, 0%, 0%)" fill-opacity="1"/>
<path fill-rule="nonzero" fill="rgb(100%, 100%, 100%)" fill-opacity="1" d="M 0.800781 0.800781 L 20.199219 0.800781 L 20.199219 13.199219 L 0.800781 13.199219 Z M 0.800781 0.800781 "/>
<path fill-rule="nonzero" fill="rgb(0%, 0%, 0%)" fill-opacity="1" d="M 5.820312 11.472656 L 4.039062 11.472656 L 4.039062 4.75 C 3.386719 5.359375 2.617188 5.808594 1.734375 6.101562 L 1.734375 4.484375 C 2.199219 4.332031 2.703125 4.042969 3.25 3.617188 C 3.796875 3.191406 4.171875 2.695312 4.375 2.128906 L 5.820312 2.128906 Z M 5.820312 11.472656 "/>
<path fill-rule="nonzero" fill="rgb(0%, 0%, 0%)" fill-opacity="1" d="M 9.414062 2.128906 C 10.316406 2.128906 11.019531 2.449219 11.527344 3.09375 C 12.132812 3.855469 12.4375 5.117188 12.4375 6.882812 C 12.4375 8.644531 12.132812 9.910156 11.523438 10.679688 C 11.019531 11.3125 10.316406 11.628906 9.414062 11.628906 C 8.507812 11.628906 7.777344 11.28125 7.226562 10.585938 C 6.671875 9.890625 6.394531 8.648438 6.394531 6.863281 C 6.394531 5.113281 6.699219 3.851562 7.308594 3.082031 C 7.8125 2.445312 8.511719 2.128906 9.414062 2.128906 Z M 9.414062 3.605469 C 9.199219 3.605469 9.007812 3.675781 8.835938 3.8125 C 8.667969 3.949219 8.535156 4.199219 8.445312 4.554688 C 8.320312 5.015625 8.257812 5.789062 8.257812 6.882812 C 8.257812 7.972656 8.3125 8.722656 8.425781 9.132812 C 8.535156 9.542969 8.671875 9.8125 8.839844 9.949219 C 9.007812 10.085938 9.199219 10.152344 9.414062 10.152344 C 9.628906 10.152344 9.824219 10.082031 9.992188 9.945312 C 10.160156 9.808594 10.292969 9.5625 10.386719 9.207031 C 10.507812 8.75 10.570312 7.972656 10.570312 6.882812 C 10.570312 5.789062 10.515625 5.039062 10.40625 4.632812 C 10.292969 4.222656 10.15625 3.949219 9.988281 3.8125 C 9.820312 3.675781 9.628906 3.605469 9.414062 3.605469 Z M 9.414062 3.605469 "/>
<path fill-rule="nonzero" fill="rgb(0%, 0%, 0%)" fill-opacity="1" d="M 13.007812 9.078125 L 14.785156 8.894531 C 14.835938 9.296875 14.984375 9.617188 15.234375 9.851562 C 15.484375 10.085938 15.773438 10.203125 16.097656 10.203125 C 16.472656 10.203125 16.785156 10.050781 17.042969 9.75 C 17.300781 9.445312 17.429688 8.988281 17.429688 8.378906 C 17.429688 7.808594 17.304688 7.382812 17.046875 7.09375 C 16.792969 6.808594 16.457031 6.667969 16.046875 6.667969 C 15.535156 6.667969 15.078125 6.894531 14.671875 7.347656 L 13.222656 7.136719 L 14.136719 2.292969 L 18.851562 2.292969 L 18.851562 3.960938 L 15.488281 3.960938 L 15.210938 5.542969 C 15.609375 5.34375 16.015625 5.246094 16.429688 5.246094 C 17.21875 5.246094 17.890625 5.53125 18.441406 6.109375 C 18.992188 6.683594 19.265625 7.429688 19.265625 8.347656 C 19.265625 9.113281 19.042969 9.796875 18.601562 10.398438 C 17.996094 11.21875 17.15625 11.628906 16.078125 11.628906 C 15.21875 11.628906 14.519531 11.398438 13.976562 10.9375 C 13.4375 10.476562 13.113281 9.859375 13.007812 9.078125 Z M 13.007812 9.078125 "/>
</svg>
