<?xml version="1.0" encoding="UTF-8"?>
<svg xmlns="http://www.w3.org/2000/svg" xmlns:xlink="http://www.w3.org/1999/xlink" width="21" height="14" viewBox="0 0 21 14">
<rect x="-2.1" y="-1.4" width="25.2" height="16.8" fill="rgb(0%, 0%, 0%)" fill-opacity="1"/>
<path fill-rule="nonzero" fill="rgb(100%, 100%, 100%)" fill-opacity="1" d="M 0.800781 0.800781 L 20.199219 0.800781 L 20.199219 13.199219 L 0.800781 13.199219 Z M 0.800781 0.800781 "/>
<path fill-rule="nonzero" fill="rgb(0%, 0%, 0%)" fill-opacity="1" d="M 6.90625 11.472656 L 5.125 11.472656 L 5.125 4.75 C 4.472656 5.359375 3.703125 5.808594 2.820312 6.101562 L 2.820312 4.484375 C 3.285156 4.332031 3.789062 4.042969 4.335938 3.617188 C 4.882812 3.191406 5.257812 2.695312 5.460938 2.128906 L 6.90625 2.128906 Z M 6.90625 11.472656 "/>
<path fill-rule="nonzero" fill="rgb(0%, 0%, 0%)" fill-opacity="1" d="M 11.566406 11.472656 L 9.78125 11.472656 L 9.78125 4.75 C 9.132812 5.359375 8.363281 5.808594 7.476562 6.101562 L 7.476562 4.484375 C 7.945312 4.332031 8.449219 4.042969 8.996094 3.617188 C 9.542969 3.191406 9.914062 2.695312 10.117188 2.128906 L 11.566406 2.128906 Z M 11.566406 11.472656 "/>
<path fill-rule="nonzero" fill="rgb(0%, 0%, 0%)" fill-opacity="1" d="M 15.160156 2.128906 C 16.0625 2.128906 16.765625 2.449219 17.273438 3.09375 C 17.878906 3.855469 18.179688 5.117188 18.179688 6.882812 C 18.179688 8.644531 17.875 9.910156 17.265625 10.679688 C 16.761719 11.3125 16.0625 11.628906 15.160156 11.628906 C 14.253906 11.628906 13.523438 11.28125 12.96875 10.585938 C 12.414062 9.890625 12.136719 8.648438 12.136719 6.863281 C 12.136719 5.113281 12.441406 3.851562 13.050781 3.082031 C 13.554688 2.445312 14.257812 2.128906 15.160156 2.128906 Z M 15.160156 3.605469 C 14.945312 3.605469 14.75 3.675781 14.582031 3.8125 C 14.414062 3.949219 14.28125 4.199219 14.1875 4.554688 C 14.066406 5.015625 14.003906 5.789062 14.003906 6.882812 C 14.003906 7.972656 14.058594 8.722656 14.167969 9.132812 C 14.277344 9.542969 14.417969 9.8125 14.585938 9.949219 C 14.75 10.085938 14.945312 10.152344 15.160156 10.152344 C 15.375 10.152344 15.566406 10.082031 15.738281 9.945312 C 15.90625 9.808594 16.039062 9.5625 16.128906 9.207031 C 16.253906 8.75 16.3125 7.972656 16.3125 6.882812 C 16.3125 5.789062 16.257812 5.039062 16.148438 4.632812 C 16.039062 4.222656 15.902344 3.949219 15.734375 3.8125 C 15.566406 3.675781 15.375 3.605469 15.160156 3.605469 Z M 15.160156 3.605469 "/>
</svg>
