<?xml version="1.0" encoding="UTF-8"?>
<svg xmlns="http://www.w3.org/2000/svg" xmlns:xlink="http://www.w3.org/1999/xlink" width="21" height="14" viewBox="0 0 21 14">
<rect x="-2.1" y="-1.4" width="25.2" height="16.8" fill="rgb(0%, 0%, 0%)" fill-opacity="1"/>
<path fill-rule="nonzero" fill="rgb(100%, 100%, 100%)" fill-opacity="1" d="M 0.800781 0.800781 L 20.199219 0.800781 L 20.199219 13.199219 L 0.800781 13.199219 Z M 0.800781 0.800781 "/>
<path fill-rule="nonzero" fill="rgb(0%, 0%, 0%)" fill-opacity="1" d="M 6.800781 11.472656 L 5.015625 11.472656 L 5.015625 4.75 C 4.363281 5.359375 3.597656 5.808594 2.710938 6.101562 L 2.710938 4.484375 C 3.175781 4.332031 3.683594 4.042969 4.226562 3.617188 C 4.773438 3.191406 5.148438 2.695312 5.351562 2.128906 L 6.800781 2.128906 Z M 6.800781 11.472656 "/>
<path fill-rule="nonzero" fill="rgb(0%, 0%, 0%)" fill-opacity="1" d="M 11.457031 11.472656 L 9.675781 11.472656 L 9.675781 4.75 C 9.023438 5.359375 8.253906 5.808594 7.371094 6.101562 L 7.371094 4.484375 C 7.835938 4.332031 8.34375 4.042969 8.886719 3.617188 C 9.433594 3.191406 9.808594 2.695312 10.011719 2.128906 L 11.457031 2.128906 Z M 11.457031 11.472656 "/>
<path fill-rule="nonzero" fill="rgb(0%, 0%, 0%)" fill-opacity="1" d="M 12.03125 9.078125 L 13.808594 8.894531 C 13.859375 9.296875 14.007812 9.617188 14.257812 9.851562 C 14.507812 10.085938 14.796875 10.203125 15.121094 10.203125 C 15.492188 10.203125 15.808594 10.050781 16.066406 9.75 C 16.324219 9.445312 16.453125 8.988281 16.453125 8.378906 C 16.453125 7.808594 16.324219 7.382812 16.070312 7.09375 C 15.8125 6.808594 15.480469 6.667969 15.070312 6.667969 C 14.558594 6.667969 14.097656 6.894531 13.691406 7.347656 L 12.246094 7.136719 L 13.160156 2.292969 L 17.875 2.292969 L 17.875 3.960938 L 14.511719 3.960938 L 14.234375 5.542969 C 14.628906 5.34375 15.035156 5.246094 15.453125 5.246094 C 16.242188 5.246094 16.914062 5.53125 17.464844 6.109375 C 18.011719 6.683594 18.289062 7.429688 18.289062 8.347656 C 18.289062 9.113281 18.066406 9.796875 17.621094 10.398438 C 17.015625 11.21875 16.175781 11.628906 15.101562 11.628906 C 14.242188 11.628906 13.542969 11.398438 13 10.9375 C 12.460938 10.476562 12.136719 9.859375 12.03125 9.078125 Z M 12.03125 9.078125 "/>
</svg>
