<?xml version="1.0" encoding="UTF-8"?>
<svg xmlns="http://www.w3.org/2000/svg" xmlns:xlink="http://www.w3.org/1999/xlink" width="21" height="14" viewBox="0 0 21 14">
<rect x="-2.1" y="-1.4" width="25.2" height="16.8" fill="rgb(0%, 0%, 0%)" fill-opacity="1"/>
<path fill-rule="nonzero" fill="rgb(100%, 100%, 100%)" fill-opacity="1" d="M 0.800781 0.800781 L 20.199219 0.800781 L 20.199219 13.199219 L 0.800781 13.199219 Z M 0.800781 0.800781 "/>
<path fill-rule="nonzero" fill="rgb(0%, 0%, 0%)" fill-opacity="1" d="M 5.824219 11.472656 L 4.042969 11.472656 L 4.042969 4.75 C 3.390625 5.359375 2.621094 5.808594 1.738281 6.101562 L 1.738281 4.484375 C 2.203125 4.332031 2.707031 4.042969 3.253906 3.617188 C 3.800781 3.191406 4.175781 2.695312 4.378906 2.128906 L 5.824219 2.128906 Z M 5.824219 11.472656 "/>
<path fill-rule="nonzero" fill="rgb(0%, 0%, 0%)" fill-opacity="1" d="M 12.648438 9.816406 L 12.648438 11.472656 L 6.394531 11.472656 C 6.464844 10.847656 6.667969 10.253906 7.003906 9.691406 C 7.34375 9.128906 8.011719 8.386719 9.011719 7.460938 C 9.816406 6.710938 10.308594 6.203125 10.492188 5.9375 C 10.734375 5.570312 10.859375 5.203125 10.859375 4.84375 C 10.859375 4.449219 10.75 4.140625 10.539062 3.929688 C 10.324219 3.714844 10.027344 3.605469 9.652344 3.605469 C 9.28125 3.605469 8.984375 3.71875 8.765625 3.945312 C 8.542969 4.167969 8.417969 4.539062 8.382812 5.0625 L 6.605469 4.882812 C 6.710938 3.902344 7.042969 3.195312 7.601562 2.769531 C 8.160156 2.34375 8.859375 2.128906 9.695312 2.128906 C 10.617188 2.128906 11.335938 2.375 11.863281 2.871094 C 12.386719 3.367188 12.648438 3.980469 12.648438 4.71875 C 12.648438 5.136719 12.574219 5.535156 12.421875 5.914062 C 12.273438 6.292969 12.035156 6.691406 11.710938 7.105469 C 11.492188 7.378906 11.105469 7.777344 10.542969 8.292969 C 9.976562 8.808594 9.621094 9.152344 9.472656 9.320312 C 9.320312 9.488281 9.199219 9.65625 9.105469 9.816406 Z M 12.648438 9.816406 "/>
<path fill-rule="nonzero" fill="rgb(0%, 0%, 0%)" fill-opacity="1" d="M 16.242188 2.128906 C 17.144531 2.128906 17.847656 2.449219 18.355469 3.09375 C 18.960938 3.855469 19.261719 5.117188 19.261719 6.882812 C 19.261719 8.644531 18.957031 9.910156 18.347656 10.679688 C 17.84375 11.3125 17.144531 11.628906 16.242188 11.628906 C 15.335938 11.628906 14.605469 11.28125 14.050781 10.585938 C 13.496094 9.890625 13.21875 8.648438 13.21875 6.863281 C 13.21875 5.113281 13.523438 3.851562 14.132812 3.082031 C 14.636719 2.445312 15.339844 2.128906 16.242188 2.128906 Z M 16.242188 3.605469 C 16.027344 3.605469 15.832031 3.675781 15.664062 3.8125 C 15.496094 3.949219 15.363281 4.199219 15.269531 4.554688 C 15.148438 5.015625 15.085938 5.789062 15.085938 6.882812 C 15.085938 7.972656 15.140625 8.722656 15.25 9.132812 C 15.359375 9.542969 15.5 9.8125 15.667969 9.949219 C 15.835938 10.085938 16.027344 10.152344 16.242188 10.152344 C 16.457031 10.152344 16.648438 10.082031 16.820312 9.945312 C 16.988281 9.808594 17.121094 9.5625 17.210938 9.207031 C 17.335938 8.75 17.398438 7.972656 17.398438 6.882812 C 17.398438 5.789062 17.339844 5.039062 17.230469 4.632812 C 17.121094 4.222656 16.984375 3.949219 16.816406 3.8125 C 16.648438 3.675781 16.457031 3.605469 16.242188 3.605469 Z M 16.242188 3.605469 "/>
</svg>
