<?xml version="1.0" encoding="UTF-8"?>
<svg xmlns="http://www.w3.org/2000/svg" xmlns:xlink="http://www.w3.org/1999/xlink" width="21" height="14" viewBox="0 0 21 14">
<rect x="-2.1" y="-1.4" width="25.2" height="16.8" fill="rgb(0%, 0%, 0%)" fill-opacity="1"/>
<path fill-rule="nonzero" fill="rgb(100%, 100%, 100%)" fill-opacity="1" d="M 0.800781 0.800781 L 20.199219 0.800781 L 20.199219 13.199219 L 0.800781 13.199219 Z M 0.800781 0.800781 "/>
<path fill-rule="nonzero" fill="rgb(0%, 0%, 0%)" fill-opacity="1" d="M 5.71875 11.472656 L 3.933594 11.472656 L 3.933594 4.75 C 3.28125 5.359375 2.511719 5.808594 1.628906 6.101562 L 1.628906 4.484375 C 2.09375 4.332031 2.601562 4.042969 3.144531 3.617188 C 3.691406 3.191406 4.066406 2.695312 4.269531 2.128906 L 5.71875 2.128906 Z M 5.71875 11.472656 "/>
<path fill-rule="nonzero" fill="rgb(0%, 0%, 0%)" fill-opacity="1" d="M 12.539062 9.816406 L 12.539062 11.472656 L 6.289062 11.472656 C 6.355469 10.847656 6.558594 10.253906 6.898438 9.691406 C 7.234375 9.128906 7.90625 8.386719 8.902344 7.460938 C 9.707031 6.710938 10.199219 6.203125 10.382812 5.9375 C 10.628906 5.570312 10.75 5.203125 10.75 4.84375 C 10.75 4.449219 10.644531 4.140625 10.429688 3.929688 C 10.214844 3.714844 9.921875 3.605469 9.542969 3.605469 C 9.171875 3.605469 8.875 3.71875 8.65625 3.945312 C 8.4375 4.167969 8.308594 4.539062 8.273438 5.0625 L 6.496094 4.882812 C 6.605469 3.902344 6.9375 3.195312 7.496094 2.769531 C 8.054688 2.34375 8.75 2.128906 9.589844 2.128906 C 10.507812 2.128906 11.230469 2.375 11.753906 2.871094 C 12.277344 3.367188 12.539062 3.980469 12.539062 4.71875 C 12.539062 5.136719 12.464844 5.535156 12.316406 5.914062 C 12.164062 6.292969 11.925781 6.691406 11.601562 7.105469 C 11.386719 7.378906 10.996094 7.777344 10.433594 8.292969 C 9.871094 8.808594 9.515625 9.152344 9.363281 9.320312 C 9.214844 9.488281 9.09375 9.65625 9 9.816406 Z M 12.539062 9.816406 "/>
<path fill-rule="nonzero" fill="rgb(0%, 0%, 0%)" fill-opacity="1" d="M 13.113281 9.078125 L 14.890625 8.894531 C 14.941406 9.296875 15.089844 9.617188 15.339844 9.851562 C 15.589844 10.085938 15.878906 10.203125 16.203125 10.203125 C 16.574219 10.203125 16.890625 10.050781 17.148438 9.75 C 17.40625 9.445312 17.535156 8.988281 17.535156 8.378906 C 17.535156 7.808594 17.410156 7.382812 17.152344 7.09375 C 16.894531 6.808594 16.5625 6.667969 16.152344 6.667969 C 15.640625 6.667969 15.179688 6.894531 14.773438 7.347656 L 13.328125 7.136719 L 14.242188 2.292969 L 18.957031 2.292969 L 18.957031 3.960938 L 15.59375 3.960938 L 15.316406 5.542969 C 15.710938 5.34375 16.117188 5.246094 16.535156 5.246094 C 17.324219 5.246094 17.996094 5.53125 18.546875 6.109375 C 19.097656 6.683594 19.371094 7.429688 19.371094 8.347656 C 19.371094 9.113281 19.148438 9.796875 18.703125 10.398438 C 18.097656 11.21875 17.257812 11.628906 16.183594 11.628906 C 15.324219 11.628906 14.625 11.398438 14.082031 10.9375 C 13.542969 10.476562 13.21875 9.859375 13.113281 9.078125 Z M 13.113281 9.078125 "/>
</svg>
