<?xml version="1.0" encoding="UTF-8"?>
<svg xmlns="http://www.w3.org/2000/svg" xmlns:xlink="http://www.w3.org/1999/xlink" width="21" height="14" viewBox="0 0 21 14">
<rect x="-2.1" y="-1.4" width="25.2" height="16.8" fill="rgb(0%, 0%, 0%)" fill-opacity="1"/>
<path fill-rule="nonzero" fill="rgb(100%, 100%, 100%)" fill-opacity="1" d="M 0.800781 0.800781 L 20.199219 0.800781 L 20.199219 13.199219 L 0.800781 13.199219 Z M 0.800781 0.800781 "/>
<path fill-rule="nonzero" fill="rgb(0%, 0%, 0%)" fill-opacity="1" d="M 5.859375 11.472656 L 4.078125 11.472656 L 4.078125 4.75 C 3.425781 5.359375 2.65625 5.808594 1.773438 6.101562 L 1.773438 4.484375 C 2.238281 4.332031 2.742188 4.042969 3.289062 3.617188 C 3.835938 3.191406 4.210938 2.695312 4.414062 2.128906 L 5.859375 2.128906 Z M 5.859375 11.472656 "/>
<path fill-rule="nonzero" fill="rgb(0%, 0%, 0%)" fill-opacity="1" d="M 6.429688 9.003906 L 8.15625 8.792969 C 8.210938 9.234375 8.359375 9.570312 8.601562 9.800781 C 8.84375 10.035156 9.136719 10.152344 9.476562 10.152344 C 9.847656 10.152344 10.15625 10.011719 10.40625 9.734375 C 10.660156 9.453125 10.785156 9.078125 10.785156 8.601562 C 10.785156 8.15625 10.664062 7.800781 10.421875 7.535156 C 10.183594 7.273438 9.886719 7.144531 9.542969 7.144531 C 9.3125 7.144531 9.039062 7.1875 8.722656 7.277344 L 8.917969 5.824219 C 9.402344 5.835938 9.769531 5.730469 10.023438 5.507812 C 10.277344 5.285156 10.40625 4.992188 10.40625 4.621094 C 10.40625 4.308594 10.3125 4.058594 10.125 3.875 C 9.9375 3.6875 9.691406 3.59375 9.382812 3.59375 C 9.078125 3.59375 8.816406 3.699219 8.601562 3.910156 C 8.386719 4.125 8.253906 4.433594 8.207031 4.839844 L 6.5625 4.558594 C 6.679688 3.996094 6.851562 3.546875 7.082031 3.210938 C 7.3125 2.875 7.632812 2.609375 8.046875 2.417969 C 8.460938 2.222656 8.921875 2.128906 9.433594 2.128906 C 10.308594 2.128906 11.011719 2.40625 11.539062 2.964844 C 11.976562 3.421875 12.195312 3.941406 12.195312 4.515625 C 12.195312 5.332031 11.75 5.984375 10.855469 6.46875 C 11.390625 6.585938 11.816406 6.839844 12.132812 7.238281 C 12.453125 7.636719 12.613281 8.117188 12.613281 8.679688 C 12.613281 9.496094 12.316406 10.191406 11.71875 10.765625 C 11.121094 11.34375 10.378906 11.628906 9.492188 11.628906 C 8.648438 11.628906 7.949219 11.386719 7.394531 10.902344 C 6.839844 10.417969 6.519531 9.785156 6.429688 9.003906 Z M 6.429688 9.003906 "/>
<path fill-rule="nonzero" fill="rgb(0%, 0%, 0%)" fill-opacity="1" d="M 16.207031 2.128906 C 17.109375 2.128906 17.8125 2.449219 18.320312 3.09375 C 18.925781 3.855469 19.226562 5.117188 19.226562 6.882812 C 19.226562 8.644531 18.921875 9.910156 18.3125 10.679688 C 17.808594 11.3125 17.109375 11.628906 16.207031 11.628906 C 15.300781 11.628906 14.570312 11.28125 14.015625 10.585938 C 13.460938 9.890625 13.183594 8.648438 13.183594 6.863281 C 13.183594 5.113281 13.488281 3.851562 14.097656 3.082031 C 14.601562 2.445312 15.304688 2.128906 16.207031 2.128906 Z M 16.207031 3.605469 C 15.992188 3.605469 15.796875 3.675781 15.628906 3.8125 C 15.460938 3.949219 15.328125 4.199219 15.234375 4.554688 C 15.113281 5.015625 15.050781 5.789062 15.050781 6.882812 C 15.050781 7.972656 15.105469 8.722656 15.214844 9.132812 C 15.328125 9.542969 15.464844 9.8125 15.632812 9.949219 C 15.800781 10.085938 15.992188 10.152344 16.207031 10.152344 C 16.421875 10.152344 16.613281 10.082031 16.785156 9.945312 C 16.953125 9.808594 17.085938 9.5625 17.179688 9.207031 C 17.300781 8.75 17.363281 7.972656 17.363281 6.882812 C 17.363281 5.789062 17.308594 5.039062 17.195312 4.632812 C 17.085938 4.222656 16.949219 3.949219 16.78125 3.8125 C 16.613281 3.675781 16.421875 3.605469 16.207031 3.605469 Z M 16.207031 3.605469 "/>
</svg>
