<?xml version="1.0" encoding="UTF-8"?>
<svg xmlns="http://www.w3.org/2000/svg" xmlns:xlink="http://www.w3.org/1999/xlink" width="21" height="14" viewBox="0 0 21 14">
<rect x="-2.1" y="-1.4" width="25.2" height="16.8" fill="rgb(0%, 0%, 0%)" fill-opacity="1"/>
<path fill-rule="nonzero" fill="rgb(100%, 100%, 100%)" fill-opacity="1" d="M 0.800781 0.800781 L 20.199219 0.800781 L 20.199219 13.199219 L 0.800781 13.199219 Z M 0.800781 0.800781 "/>
<path fill-rule="nonzero" fill="rgb(0%, 0%, 0%)" fill-opacity="1" d="M 5.75 11.472656 L 3.96875 11.472656 L 3.96875 4.75 C 3.316406 5.359375 2.546875 5.808594 1.664062 6.101562 L 1.664062 4.484375 C 2.128906 4.332031 2.636719 4.042969 3.179688 3.617188 C 3.726562 3.191406 4.101562 2.695312 4.304688 2.128906 L 5.75 2.128906 Z M 5.75 11.472656 "/>
<path fill-rule="nonzero" fill="rgb(0%, 0%, 0%)" fill-opacity="1" d="M 6.324219 9.003906 L 8.050781 8.792969 C 8.105469 9.234375 8.253906 9.570312 8.492188 9.800781 C 8.734375 10.035156 9.027344 10.152344 9.371094 10.152344 C 9.738281 10.152344 10.046875 10.011719 10.300781 9.734375 C 10.550781 9.453125 10.679688 9.078125 10.679688 8.601562 C 10.679688 8.15625 10.558594 7.800781 10.316406 7.535156 C 10.074219 7.273438 9.78125 7.144531 9.433594 7.144531 C 9.203125 7.144531 8.933594 7.1875 8.613281 7.277344 L 8.8125 5.824219 C 9.292969 5.835938 9.664062 5.730469 9.914062 5.507812 C 10.171875 5.285156 10.296875 4.992188 10.296875 4.621094 C 10.296875 4.308594 10.203125 4.058594 10.015625 3.875 C 9.832031 3.6875 9.582031 3.59375 9.273438 3.59375 C 8.96875 3.59375 8.710938 3.699219 8.492188 3.910156 C 8.277344 4.125 8.148438 4.433594 8.101562 4.839844 L 6.457031 4.558594 C 6.570312 3.996094 6.742188 3.546875 6.972656 3.210938 C 7.203125 2.875 7.527344 2.609375 7.9375 2.417969 C 8.351562 2.222656 8.8125 2.128906 9.324219 2.128906 C 10.203125 2.128906 10.902344 2.40625 11.433594 2.964844 C 11.867188 3.421875 12.085938 3.941406 12.085938 4.515625 C 12.085938 5.332031 11.640625 5.984375 10.746094 6.46875 C 11.28125 6.585938 11.707031 6.839844 12.027344 7.238281 C 12.347656 7.636719 12.507812 8.117188 12.507812 8.679688 C 12.507812 9.496094 12.207031 10.191406 11.609375 10.765625 C 11.015625 11.34375 10.273438 11.628906 9.382812 11.628906 C 8.539062 11.628906 7.84375 11.386719 7.289062 10.902344 C 6.734375 10.417969 6.414062 9.785156 6.324219 9.003906 Z M 6.324219 9.003906 "/>
<path fill-rule="nonzero" fill="rgb(0%, 0%, 0%)" fill-opacity="1" d="M 13.078125 9.078125 L 14.855469 8.894531 C 14.90625 9.296875 15.054688 9.617188 15.304688 9.851562 C 15.554688 10.085938 15.84375 10.203125 16.167969 10.203125 C 16.539062 10.203125 16.855469 10.050781 17.113281 9.75 C 17.371094 9.445312 17.5 8.988281 17.5 8.378906 C 17.5 7.808594 17.375 7.382812 17.117188 7.09375 C 16.863281 6.808594 16.527344 6.667969 16.117188 6.667969 C 15.605469 6.667969 15.148438 6.894531 14.742188 7.347656 L 13.292969 7.136719 L 14.207031 2.292969 L 18.921875 2.292969 L 18.921875 3.960938 L 15.558594 3.960938 L 15.28125 5.542969 C 15.675781 5.34375 16.082031 5.246094 16.5 5.246094 C 17.289062 5.246094 17.960938 5.53125 18.511719 6.109375 C 19.0625 6.683594 19.335938 7.429688 19.335938 8.347656 C 19.335938 9.113281 19.113281 9.796875 18.667969 10.398438 C 18.0625 11.21875 17.222656 11.628906 16.148438 11.628906 C 15.289062 11.628906 14.589844 11.398438 14.046875 10.9375 C 13.507812 10.476562 13.183594 9.859375 13.078125 9.078125 Z M 13.078125 9.078125 "/>
</svg>
