<?xml version="1.0" encoding="UTF-8"?>
<svg xmlns="http://www.w3.org/2000/svg" xmlns:xlink="http://www.w3.org/1999/xlink" width="21" height="14" viewBox="0 0 21 14">
<rect x="-2.1" y="-1.4" width="25.2" height="16.8" fill="rgb(0%, 0%, 0%)" fill-opacity="1"/>
<path fill-rule="nonzero" fill="rgb(100%, 100%, 100%)" fill-opacity="1" d="M 0.800781 0.800781 L 20.199219 0.800781 L 20.199219 13.199219 L 0.800781 13.199219 Z M 0.800781 0.800781 "/>
<path fill-rule="nonzero" fill="rgb(0%, 0%, 0%)" fill-opacity="1" d="M 5.605469 11.472656 L 3.820312 11.472656 L 3.820312 4.75 C 3.171875 5.359375 2.402344 5.808594 1.519531 6.101562 L 1.519531 4.484375 C 1.984375 4.332031 2.488281 4.042969 3.035156 3.617188 C 3.582031 3.191406 3.957031 2.695312 4.160156 2.128906 L 5.605469 2.128906 Z M 5.605469 11.472656 "/>
<path fill-rule="nonzero" fill="rgb(0%, 0%, 0%)" fill-opacity="1" d="M 9.984375 11.472656 L 9.984375 9.597656 L 6.175781 9.597656 L 6.175781 8.039062 L 10.214844 2.128906 L 11.710938 2.128906 L 11.710938 8.03125 L 12.867188 8.03125 L 12.867188 9.597656 L 11.710938 9.597656 L 11.710938 11.472656 Z M 9.984375 8.03125 L 9.984375 4.851562 L 7.847656 8.03125 Z M 9.984375 8.03125 "/>
<path fill-rule="nonzero" fill="rgb(0%, 0%, 0%)" fill-opacity="1" d="M 16.460938 2.128906 C 17.363281 2.128906 18.066406 2.449219 18.574219 3.09375 C 19.179688 3.855469 19.480469 5.117188 19.480469 6.882812 C 19.480469 8.644531 19.175781 9.910156 18.566406 10.679688 C 18.0625 11.3125 17.363281 11.628906 16.460938 11.628906 C 15.554688 11.628906 14.824219 11.28125 14.269531 10.585938 C 13.714844 9.890625 13.4375 8.648438 13.4375 6.863281 C 13.4375 5.113281 13.742188 3.851562 14.351562 3.082031 C 14.855469 2.445312 15.558594 2.128906 16.460938 2.128906 Z M 16.460938 3.605469 C 16.246094 3.605469 16.050781 3.675781 15.882812 3.8125 C 15.714844 3.949219 15.582031 4.199219 15.488281 4.554688 C 15.367188 5.015625 15.304688 5.789062 15.304688 6.882812 C 15.304688 7.972656 15.359375 8.722656 15.46875 9.132812 C 15.582031 9.542969 15.71875 9.8125 15.886719 9.949219 C 16.054688 10.085938 16.246094 10.152344 16.460938 10.152344 C 16.675781 10.152344 16.867188 10.082031 17.039062 9.945312 C 17.207031 9.808594 17.339844 9.5625 17.429688 9.207031 C 17.554688 8.75 17.617188 7.972656 17.617188 6.882812 C 17.617188 5.789062 17.5625 5.039062 17.449219 4.632812 C 17.339844 4.222656 17.203125 3.949219 17.035156 3.8125 C 16.867188 3.675781 16.675781 3.605469 16.460938 3.605469 Z M 16.460938 3.605469 "/>
</svg>
