<?xml version="1.0" encoding="UTF-8"?>
<svg xmlns="http://www.w3.org/2000/svg" xmlns:xlink="http://www.w3.org/1999/xlink" width="21" height="14" viewBox="0 0 21 14">
<rect x="-2.1" y="-1.4" width="25.2" height="16.8" fill="rgb(0%, 0%, 0%)" fill-opacity="1"/>
<path fill-rule="nonzero" fill="rgb(100%, 100%, 100%)" fill-opacity="1" d="M 0.800781 0.800781 L 20.199219 0.800781 L 20.199219 13.199219 L 0.800781 13.199219 Z M 0.800781 0.800781 "/>
<path fill-rule="nonzero" fill="rgb(0%, 0%, 0%)" fill-opacity="1" d="M 5.5 11.472656 L 3.714844 11.472656 L 3.714844 4.75 C 3.0625 5.359375 2.292969 5.808594 1.410156 6.101562 L 1.410156 4.484375 C 1.875 4.332031 2.382812 4.042969 2.925781 3.617188 C 3.472656 3.191406 3.847656 2.695312 4.050781 2.128906 L 5.5 2.128906 Z M 5.5 11.472656 "/>
<path fill-rule="nonzero" fill="rgb(0%, 0%, 0%)" fill-opacity="1" d="M 9.878906 11.472656 L 9.878906 9.597656 L 6.070312 9.597656 L 6.070312 8.039062 L 10.105469 2.128906 L 11.605469 2.128906 L 11.605469 8.03125 L 12.757812 8.03125 L 12.757812 9.597656 L 11.605469 9.597656 L 11.605469 11.472656 Z M 9.878906 8.03125 L 9.878906 4.851562 L 7.738281 8.03125 Z M 9.878906 8.03125 "/>
<path fill-rule="nonzero" fill="rgb(0%, 0%, 0%)" fill-opacity="1" d="M 13.332031 9.078125 L 15.109375 8.894531 C 15.160156 9.296875 15.308594 9.617188 15.558594 9.851562 C 15.808594 10.085938 16.097656 10.203125 16.421875 10.203125 C 16.792969 10.203125 17.109375 10.050781 17.367188 9.75 C 17.625 9.445312 17.753906 8.988281 17.753906 8.378906 C 17.753906 7.808594 17.628906 7.382812 17.371094 7.09375 C 17.117188 6.808594 16.78125 6.667969 16.371094 6.667969 C 15.859375 6.667969 15.398438 6.894531 14.992188 7.347656 L 13.546875 7.136719 L 14.460938 2.292969 L 19.175781 2.292969 L 19.175781 3.960938 L 15.8125 3.960938 L 15.535156 5.542969 C 15.929688 5.34375 16.335938 5.246094 16.753906 5.246094 C 17.542969 5.246094 18.214844 5.53125 18.765625 6.109375 C 19.316406 6.683594 19.589844 7.429688 19.589844 8.347656 C 19.589844 9.113281 19.367188 9.796875 18.921875 10.398438 C 18.316406 11.21875 17.476562 11.628906 16.402344 11.628906 C 15.542969 11.628906 14.84375 11.398438 14.300781 10.9375 C 13.761719 10.476562 13.4375 9.859375 13.332031 9.078125 Z M 13.332031 9.078125 "/>
</svg>
