<?xml version="1.0" encoding="UTF-8"?>
<svg xmlns="http://www.w3.org/2000/svg" xmlns:xlink="http://www.w3.org/1999/xlink" width="21" height="14" viewBox="0 0 21 14">
<rect x="-2.1" y="-1.4" width="25.2" height="16.8" fill="rgb(0%, 0%, 0%)" fill-opacity="1"/>
<path fill-rule="nonzero" fill="rgb(100%, 100%, 100%)" fill-opacity="1" d="M 0.800781 0.800781 L 20.199219 0.800781 L 20.199219 13.199219 L 0.800781 13.199219 Z M 0.800781 0.800781 "/>
<path fill-rule="nonzero" fill="rgb(0%, 0%, 0%)" fill-opacity="1" d="M 5.820312 11.472656 L 4.039062 11.472656 L 4.039062 4.75 C 3.386719 5.359375 2.617188 5.808594 1.734375 6.101562 L 1.734375 4.484375 C 2.199219 4.332031 2.703125 4.042969 3.25 3.617188 C 3.796875 3.191406 4.171875 2.695312 4.375 2.128906 L 5.820312 2.128906 Z M 5.820312 11.472656 "/>
<path fill-rule="nonzero" fill="rgb(0%, 0%, 0%)" fill-opacity="1" d="M 6.394531 9.078125 L 8.171875 8.894531 C 8.222656 9.296875 8.371094 9.617188 8.621094 9.851562 C 8.871094 10.085938 9.160156 10.203125 9.484375 10.203125 C 9.855469 10.203125 10.171875 10.050781 10.429688 9.75 C 10.6875 9.445312 10.816406 8.988281 10.816406 8.378906 C 10.816406 7.808594 10.6875 7.382812 10.433594 7.09375 C 10.175781 6.808594 9.84375 6.667969 9.433594 6.667969 C 8.921875 6.667969 8.460938 6.894531 8.054688 7.347656 L 6.609375 7.136719 L 7.523438 2.292969 L 12.238281 2.292969 L 12.238281 3.960938 L 8.875 3.960938 L 8.59375 5.542969 C 8.992188 5.34375 9.398438 5.246094 9.8125 5.246094 C 10.605469 5.246094 11.277344 5.53125 11.828125 6.109375 C 12.375 6.683594 12.652344 7.429688 12.652344 8.347656 C 12.652344 9.113281 12.429688 9.796875 11.984375 10.398438 C 11.378906 11.21875 10.539062 11.628906 9.464844 11.628906 C 8.605469 11.628906 7.90625 11.398438 7.363281 10.9375 C 6.824219 10.476562 6.5 9.859375 6.394531 9.078125 Z M 6.394531 9.078125 "/>
<path fill-rule="nonzero" fill="rgb(0%, 0%, 0%)" fill-opacity="1" d="M 16.246094 2.128906 C 17.144531 2.128906 17.851562 2.449219 18.359375 3.09375 C 18.964844 3.855469 19.265625 5.117188 19.265625 6.882812 C 19.265625 8.644531 18.960938 9.910156 18.351562 10.679688 C 17.847656 11.3125 17.144531 11.628906 16.246094 11.628906 C 15.339844 11.628906 14.609375 11.28125 14.054688 10.585938 C 13.5 9.890625 13.222656 8.648438 13.222656 6.863281 C 13.222656 5.113281 13.527344 3.851562 14.136719 3.082031 C 14.640625 2.445312 15.34375 2.128906 16.246094 2.128906 Z M 16.246094 3.605469 C 16.027344 3.605469 15.835938 3.675781 15.667969 3.8125 C 15.496094 3.949219 15.367188 4.199219 15.273438 4.554688 C 15.152344 5.015625 15.089844 5.789062 15.089844 6.882812 C 15.089844 7.972656 15.144531 8.722656 15.253906 9.132812 C 15.363281 9.542969 15.503906 9.8125 15.671875 9.949219 C 15.835938 10.085938 16.027344 10.152344 16.246094 10.152344 C 16.460938 10.152344 16.652344 10.082031 16.820312 9.945312 C 16.992188 9.808594 17.121094 9.5625 17.214844 9.207031 C 17.339844 8.75 17.398438 7.972656 17.398438 6.882812 C 17.398438 5.789062 17.34375 5.039062 17.234375 4.632812 C 17.125 4.222656 16.984375 3.949219 16.820312 3.8125 C 16.652344 3.675781 16.460938 3.605469 16.246094 3.605469 Z M 16.246094 3.605469 "/>
</svg>
