<?xml version="1.0" encoding="UTF-8"?>
<svg xmlns="http://www.w3.org/2000/svg" xmlns:xlink="http://www.w3.org/1999/xlink" width="21" height="14" viewBox="0 0 21 14">
<rect x="-2.1" y="-1.4" width="25.2" height="16.8" fill="rgb(0%, 0%, 0%)" fill-opacity="1"/>
<path fill-rule="nonzero" fill="rgb(100%, 100%, 100%)" fill-opacity="1" d="M 0.800781 0.800781 L 20.199219 0.800781 L 20.199219 13.199219 L 0.800781 13.199219 Z M 0.800781 0.800781 "/>
<path fill-rule="nonzero" fill="rgb(0%, 0%, 0%)" fill-opacity="1" d="M 5.714844 11.472656 L 3.929688 11.472656 L 3.929688 4.75 C 3.277344 5.359375 2.511719 5.808594 1.625 6.101562 L 1.625 4.484375 C 2.089844 4.332031 2.597656 4.042969 3.144531 3.617188 C 3.6875 3.191406 4.0625 2.695312 4.265625 2.128906 L 5.714844 2.128906 Z M 5.714844 11.472656 "/>
<path fill-rule="nonzero" fill="rgb(0%, 0%, 0%)" fill-opacity="1" d="M 6.285156 9.078125 L 8.0625 8.894531 C 8.113281 9.296875 8.261719 9.617188 8.511719 9.851562 C 8.761719 10.085938 9.050781 10.203125 9.375 10.203125 C 9.75 10.203125 10.0625 10.050781 10.320312 9.75 C 10.582031 9.445312 10.710938 8.988281 10.710938 8.378906 C 10.710938 7.808594 10.582031 7.382812 10.324219 7.09375 C 10.070312 6.808594 9.734375 6.667969 9.324219 6.667969 C 8.8125 6.667969 8.355469 6.894531 7.949219 7.347656 L 6.5 7.136719 L 7.414062 2.292969 L 12.132812 2.292969 L 12.132812 3.960938 L 8.765625 3.960938 L 8.488281 5.542969 C 8.886719 5.34375 9.292969 5.246094 9.707031 5.246094 C 10.496094 5.246094 11.167969 5.53125 11.71875 6.109375 C 12.269531 6.683594 12.542969 7.429688 12.542969 8.347656 C 12.542969 9.113281 12.320312 9.796875 11.878906 10.398438 C 11.273438 11.21875 10.433594 11.628906 9.359375 11.628906 C 8.5 11.628906 7.796875 11.398438 7.257812 10.9375 C 6.714844 10.476562 6.390625 9.859375 6.285156 9.078125 Z M 6.285156 9.078125 "/>
<path fill-rule="nonzero" fill="rgb(0%, 0%, 0%)" fill-opacity="1" d="M 13.117188 9.078125 L 14.890625 8.894531 C 14.945312 9.296875 15.09375 9.617188 15.34375 9.851562 C 15.59375 10.085938 15.878906 10.203125 16.207031 10.203125 C 16.578125 10.203125 16.894531 10.050781 17.152344 9.75 C 17.410156 9.445312 17.539062 8.988281 17.539062 8.378906 C 17.539062 7.808594 17.410156 7.382812 17.15625 7.09375 C 16.898438 6.808594 16.566406 6.667969 16.15625 6.667969 C 15.644531 6.667969 15.183594 6.894531 14.777344 7.347656 L 13.332031 7.136719 L 14.246094 2.292969 L 18.960938 2.292969 L 18.960938 3.960938 L 15.597656 3.960938 L 15.316406 5.542969 C 15.714844 5.34375 16.121094 5.246094 16.535156 5.246094 C 17.328125 5.246094 18 5.53125 18.546875 6.109375 C 19.097656 6.683594 19.375 7.429688 19.375 8.347656 C 19.375 9.113281 19.152344 9.796875 18.707031 10.398438 C 18.101562 11.21875 17.261719 11.628906 16.1875 11.628906 C 15.328125 11.628906 14.628906 11.398438 14.085938 10.9375 C 13.542969 10.476562 13.222656 9.859375 13.117188 9.078125 Z M 13.117188 9.078125 "/>
</svg>
