<?xml version="1.0" encoding="UTF-8"?>
<svg xmlns="http://www.w3.org/2000/svg" xmlns:xlink="http://www.w3.org/1999/xlink" width="21" height="14" viewBox="0 0 21 14">
<rect x="-2.1" y="-1.4" width="25.2" height="16.8" fill="rgb(0%, 0%, 0%)" fill-opacity="1"/>
<path fill-rule="nonzero" fill="rgb(100%, 100%, 100%)" fill-opacity="1" d="M 0.800781 0.800781 L 20.199219 0.800781 L 20.199219 13.199219 L 0.800781 13.199219 Z M 0.800781 0.800781 "/>
<path fill-rule="nonzero" fill="rgb(0%, 0%, 0%)" fill-opacity="1" d="M 8.460938 11.472656 L 6.679688 11.472656 L 6.679688 4.75 C 6.027344 5.359375 5.257812 5.808594 4.375 6.101562 L 4.375 4.484375 C 4.839844 4.332031 5.34375 4.042969 5.890625 3.617188 C 6.4375 3.191406 6.8125 2.695312 7.015625 2.128906 L 8.460938 2.128906 Z M 8.460938 11.472656 "/>
<path fill-rule="nonzero" fill="rgb(0%, 0%, 0%)" fill-opacity="1" d="M 10.367188 9.078125 L 12.144531 8.894531 C 12.195312 9.296875 12.34375 9.617188 12.59375 9.851562 C 12.84375 10.085938 13.132812 10.203125 13.457031 10.203125 C 13.832031 10.203125 14.144531 10.050781 14.402344 9.75 C 14.660156 9.445312 14.789062 8.988281 14.789062 8.378906 C 14.789062 7.808594 14.664062 7.382812 14.40625 7.09375 C 14.152344 6.808594 13.816406 6.667969 13.40625 6.667969 C 12.894531 6.667969 12.4375 6.894531 12.03125 7.347656 L 10.582031 7.136719 L 11.496094 2.292969 L 16.210938 2.292969 L 16.210938 3.960938 L 12.847656 3.960938 L 12.570312 5.542969 C 12.96875 5.34375 13.375 5.246094 13.789062 5.246094 C 14.578125 5.246094 15.25 5.53125 15.800781 6.109375 C 16.351562 6.683594 16.625 7.429688 16.625 8.347656 C 16.625 9.113281 16.402344 9.796875 15.960938 10.398438 C 15.355469 11.21875 14.515625 11.628906 13.4375 11.628906 C 12.578125 11.628906 11.878906 11.398438 11.335938 10.9375 C 10.796875 10.476562 10.472656 9.859375 10.367188 9.078125 Z M 10.367188 9.078125 "/>
</svg>
