<?xml version="1.0" encoding="UTF-8"?>
<svg xmlns="http://www.w3.org/2000/svg" xmlns:xlink="http://www.w3.org/1999/xlink" width="21" height="14" viewBox="0 0 21 14">
<rect x="-2.1" y="-1.4" width="25.2" height="16.8" fill="rgb(0%, 0%, 0%)" fill-opacity="1"/>
<path fill-rule="nonzero" fill="rgb(100%, 100%, 100%)" fill-opacity="1" d="M 0.800781 0.800781 L 20.199219 0.800781 L 20.199219 13.199219 L 0.800781 13.199219 Z M 0.800781 0.800781 "/>
<path fill-rule="nonzero" fill="rgb(0%, 0%, 0%)" fill-opacity="1" d="M 5.84375 11.472656 L 4.058594 11.472656 L 4.058594 4.75 C 3.410156 5.359375 2.640625 5.808594 1.757812 6.101562 L 1.757812 4.484375 C 2.222656 4.332031 2.726562 4.042969 3.273438 3.617188 C 3.820312 3.191406 4.195312 2.695312 4.398438 2.128906 L 5.84375 2.128906 Z M 5.84375 11.472656 "/>
<path fill-rule="nonzero" fill="rgb(0%, 0%, 0%)" fill-opacity="1" d="M 12.457031 4.445312 L 10.730469 4.636719 C 10.6875 4.28125 10.578125 4.019531 10.402344 3.847656 C 10.222656 3.679688 9.992188 3.59375 9.710938 3.59375 C 9.332031 3.59375 9.015625 3.765625 8.753906 4.101562 C 8.492188 4.441406 8.332031 5.144531 8.261719 6.214844 C 8.707031 5.691406 9.257812 5.429688 9.917969 5.429688 C 10.664062 5.429688 11.300781 5.710938 11.832031 6.28125 C 12.363281 6.847656 12.628906 7.578125 12.628906 8.476562 C 12.628906 9.429688 12.351562 10.191406 11.792969 10.765625 C 11.234375 11.34375 10.515625 11.628906 9.640625 11.628906 C 8.699219 11.628906 7.929688 11.265625 7.324219 10.535156 C 6.71875 9.804688 6.414062 8.609375 6.414062 6.945312 C 6.414062 5.242188 6.730469 4.011719 7.359375 3.257812 C 7.992188 2.503906 8.808594 2.128906 9.816406 2.128906 C 10.523438 2.128906 11.109375 2.324219 11.574219 2.722656 C 12.035156 3.117188 12.332031 3.691406 12.457031 4.445312 Z M 8.414062 8.335938 C 8.414062 8.917969 8.546875 9.363281 8.816406 9.679688 C 9.082031 9.992188 9.386719 10.152344 9.730469 10.152344 C 10.058594 10.152344 10.332031 10.023438 10.554688 9.765625 C 10.773438 9.507812 10.882812 9.082031 10.882812 8.496094 C 10.882812 7.890625 10.765625 7.445312 10.527344 7.164062 C 10.292969 6.882812 9.996094 6.742188 9.640625 6.742188 C 9.296875 6.742188 9.007812 6.878906 8.769531 7.144531 C 8.535156 7.414062 8.414062 7.8125 8.414062 8.335938 Z M 8.414062 8.335938 "/>
<path fill-rule="nonzero" fill="rgb(0%, 0%, 0%)" fill-opacity="1" d="M 16.222656 2.128906 C 17.125 2.128906 17.828125 2.449219 18.335938 3.09375 C 18.941406 3.855469 19.242188 5.117188 19.242188 6.882812 C 19.242188 8.644531 18.9375 9.910156 18.328125 10.679688 C 17.828125 11.3125 17.125 11.628906 16.222656 11.628906 C 15.316406 11.628906 14.585938 11.28125 14.03125 10.585938 C 13.476562 9.890625 13.199219 8.648438 13.199219 6.863281 C 13.199219 5.113281 13.503906 3.851562 14.113281 3.082031 C 14.617188 2.445312 15.320312 2.128906 16.222656 2.128906 Z M 16.222656 3.605469 C 16.007812 3.605469 15.8125 3.675781 15.644531 3.8125 C 15.476562 3.949219 15.34375 4.199219 15.25 4.554688 C 15.128906 5.015625 15.066406 5.789062 15.066406 6.882812 C 15.066406 7.972656 15.121094 8.722656 15.230469 9.132812 C 15.34375 9.542969 15.480469 9.8125 15.648438 9.949219 C 15.816406 10.085938 16.007812 10.152344 16.222656 10.152344 C 16.4375 10.152344 16.628906 10.082031 16.800781 9.945312 C 16.96875 9.808594 17.101562 9.5625 17.195312 9.207031 C 17.316406 8.75 17.378906 7.972656 17.378906 6.882812 C 17.378906 5.789062 17.324219 5.039062 17.210938 4.632812 C 17.101562 4.222656 16.964844 3.949219 16.796875 3.8125 C 16.628906 3.675781 16.4375 3.605469 16.222656 3.605469 Z M 16.222656 3.605469 "/>
</svg>
