<?xml version="1.0" encoding="UTF-8"?>
<svg xmlns="http://www.w3.org/2000/svg" xmlns:xlink="http://www.w3.org/1999/xlink" width="21" height="14" viewBox="0 0 21 14">
<rect x="-2.1" y="-1.4" width="25.2" height="16.8" fill="rgb(0%, 0%, 0%)" fill-opacity="1"/>
<path fill-rule="nonzero" fill="rgb(100%, 100%, 100%)" fill-opacity="1" d="M 0.800781 0.800781 L 20.199219 0.800781 L 20.199219 13.199219 L 0.800781 13.199219 Z M 0.800781 0.800781 "/>
<path fill-rule="nonzero" fill="rgb(0%, 0%, 0%)" fill-opacity="1" d="M 10.320312 9.816406 L 10.320312 11.472656 L 4.066406 11.472656 C 4.132812 10.847656 4.335938 10.253906 4.675781 9.691406 C 5.015625 9.128906 5.683594 8.386719 6.683594 7.460938 C 7.484375 6.710938 7.980469 6.203125 8.160156 5.9375 C 8.40625 5.570312 8.527344 5.203125 8.527344 4.84375 C 8.527344 4.449219 8.421875 4.140625 8.207031 3.929688 C 7.996094 3.714844 7.699219 3.605469 7.324219 3.605469 C 6.949219 3.605469 6.65625 3.71875 6.433594 3.945312 C 6.214844 4.167969 6.085938 4.539062 6.054688 5.0625 L 4.277344 4.882812 C 4.382812 3.902344 4.714844 3.195312 5.273438 2.769531 C 5.832031 2.34375 6.53125 2.128906 7.367188 2.128906 C 8.285156 2.128906 9.007812 2.375 9.53125 2.871094 C 10.058594 3.367188 10.320312 3.980469 10.320312 4.71875 C 10.320312 5.136719 10.242188 5.535156 10.09375 5.914062 C 9.945312 6.292969 9.707031 6.691406 9.378906 7.105469 C 9.164062 7.378906 8.773438 7.777344 8.210938 8.292969 C 7.648438 8.808594 7.292969 9.152344 7.140625 9.320312 C 6.992188 9.488281 6.871094 9.65625 6.777344 9.816406 Z M 10.320312 9.816406 "/>
<path fill-rule="nonzero" fill="rgb(0%, 0%, 0%)" fill-opacity="1" d="M 13.910156 2.128906 C 14.8125 2.128906 15.519531 2.449219 16.027344 3.09375 C 16.628906 3.855469 16.933594 5.117188 16.933594 6.882812 C 16.933594 8.644531 16.628906 9.910156 16.019531 10.679688 C 15.515625 11.3125 14.8125 11.628906 13.910156 11.628906 C 13.007812 11.628906 12.277344 11.28125 11.722656 10.585938 C 11.167969 9.890625 10.890625 8.648438 10.890625 6.863281 C 10.890625 5.113281 11.195312 3.851562 11.804688 3.082031 C 12.308594 2.445312 13.011719 2.128906 13.910156 2.128906 Z M 13.910156 3.605469 C 13.695312 3.605469 13.503906 3.675781 13.335938 3.8125 C 13.164062 3.949219 13.035156 4.199219 12.941406 4.554688 C 12.816406 5.015625 12.757812 5.789062 12.757812 6.882812 C 12.757812 7.972656 12.8125 8.722656 12.921875 9.132812 C 13.03125 9.542969 13.171875 9.8125 13.335938 9.949219 C 13.503906 10.085938 13.695312 10.152344 13.910156 10.152344 C 14.128906 10.152344 14.320312 10.082031 14.488281 9.945312 C 14.660156 9.808594 14.789062 9.5625 14.882812 9.207031 C 15.003906 8.75 15.066406 7.972656 15.066406 6.882812 C 15.066406 5.789062 15.011719 5.039062 14.902344 4.632812 C 14.792969 4.222656 14.652344 3.949219 14.484375 3.8125 C 14.320312 3.675781 14.128906 3.605469 13.910156 3.605469 Z M 13.910156 3.605469 "/>
</svg>
