<?xml version="1.0" encoding="UTF-8"?>
<svg xmlns="http://www.w3.org/2000/svg" xmlns:xlink="http://www.w3.org/1999/xlink" width="21" height="14" viewBox="0 0 21 14">
<rect x="-2.1" y="-1.4" width="25.2" height="16.8" fill="rgb(0%, 0%, 0%)" fill-opacity="1"/>
<path fill-rule="nonzero" fill="rgb(100%, 100%, 100%)" fill-opacity="1" d="M 0.800781 0.800781 L 20.199219 0.800781 L 20.199219 13.199219 L 0.800781 13.199219 Z M 0.800781 0.800781 "/>
<path fill-rule="nonzero" fill="rgb(0%, 0%, 0%)" fill-opacity="1" d="M 10.210938 9.816406 L 10.210938 11.472656 L 3.957031 11.472656 C 4.027344 10.847656 4.230469 10.253906 4.566406 9.691406 C 4.90625 9.128906 5.574219 8.386719 6.574219 7.460938 C 7.378906 6.710938 7.871094 6.203125 8.054688 5.9375 C 8.296875 5.570312 8.421875 5.203125 8.421875 4.84375 C 8.421875 4.449219 8.3125 4.140625 8.101562 3.929688 C 7.886719 3.714844 7.589844 3.605469 7.214844 3.605469 C 6.84375 3.605469 6.546875 3.71875 6.328125 3.945312 C 6.105469 4.167969 5.980469 4.539062 5.945312 5.0625 L 4.167969 4.882812 C 4.273438 3.902344 4.605469 3.195312 5.164062 2.769531 C 5.722656 2.34375 6.421875 2.128906 7.257812 2.128906 C 8.179688 2.128906 8.898438 2.375 9.425781 2.871094 C 9.949219 3.367188 10.210938 3.980469 10.210938 4.71875 C 10.210938 5.136719 10.136719 5.535156 9.984375 5.914062 C 9.835938 6.292969 9.597656 6.691406 9.273438 7.105469 C 9.054688 7.378906 8.667969 7.777344 8.105469 8.292969 C 7.539062 8.808594 7.183594 9.152344 7.035156 9.320312 C 6.882812 9.488281 6.761719 9.65625 6.667969 9.816406 Z M 10.210938 9.816406 "/>
<path fill-rule="nonzero" fill="rgb(0%, 0%, 0%)" fill-opacity="1" d="M 10.78125 9.078125 L 12.558594 8.894531 C 12.609375 9.296875 12.761719 9.617188 13.011719 9.851562 C 13.261719 10.085938 13.546875 10.203125 13.875 10.203125 C 14.246094 10.203125 14.5625 10.050781 14.820312 9.75 C 15.078125 9.445312 15.207031 8.988281 15.207031 8.378906 C 15.207031 7.808594 15.078125 7.382812 14.824219 7.09375 C 14.566406 6.808594 14.234375 6.667969 13.824219 6.667969 C 13.3125 6.667969 12.851562 6.894531 12.445312 7.347656 L 11 7.136719 L 11.914062 2.292969 L 16.628906 2.292969 L 16.628906 3.960938 L 13.265625 3.960938 L 12.984375 5.542969 C 13.382812 5.34375 13.789062 5.246094 14.203125 5.246094 C 14.996094 5.246094 15.664062 5.53125 16.214844 6.109375 C 16.765625 6.683594 17.042969 7.429688 17.042969 8.347656 C 17.042969 9.113281 16.820312 9.796875 16.375 10.398438 C 15.769531 11.21875 14.929688 11.628906 13.855469 11.628906 C 12.996094 11.628906 12.296875 11.398438 11.753906 10.9375 C 11.210938 10.476562 10.886719 9.859375 10.78125 9.078125 Z M 10.78125 9.078125 "/>
</svg>
