<?xml version="1.0" encoding="UTF-8"?>
<svg xmlns="http://www.w3.org/2000/svg" xmlns:xlink="http://www.w3.org/1999/xlink" width="21" height="14" viewBox="0 0 21 14">
<rect x="-2.1" y="-1.4" width="25.2" height="16.8" fill="rgb(0%, 0%, 0%)" fill-opacity="1"/>
<path fill-rule="nonzero" fill="rgb(100%, 100%, 100%)" fill-opacity="1" d="M 0.800781 0.800781 L 20.199219 0.800781 L 20.199219 13.199219 L 0.800781 13.199219 Z M 0.800781 0.800781 "/>
<path fill-rule="nonzero" fill="rgb(0%, 0%, 0%)" fill-opacity="1" d="M 3.992188 9.003906 L 5.71875 8.792969 C 5.773438 9.234375 5.921875 9.570312 6.164062 9.800781 C 6.40625 10.035156 6.699219 10.152344 7.039062 10.152344 C 7.410156 10.152344 7.71875 10.011719 7.96875 9.734375 C 8.222656 9.453125 8.347656 9.078125 8.347656 8.601562 C 8.347656 8.15625 8.226562 7.800781 7.984375 7.535156 C 7.746094 7.273438 7.449219 7.144531 7.105469 7.144531 C 6.875 7.144531 6.601562 7.1875 6.285156 7.277344 L 6.480469 5.824219 C 6.964844 5.835938 7.332031 5.730469 7.585938 5.507812 C 7.839844 5.285156 7.96875 4.992188 7.96875 4.621094 C 7.96875 4.308594 7.875 4.058594 7.6875 3.875 C 7.5 3.6875 7.253906 3.59375 6.945312 3.59375 C 6.640625 3.59375 6.378906 3.699219 6.164062 3.910156 C 5.949219 4.125 5.816406 4.433594 5.769531 4.839844 L 4.125 4.558594 C 4.242188 3.996094 4.414062 3.546875 4.644531 3.210938 C 4.875 2.875 5.195312 2.609375 5.609375 2.417969 C 6.023438 2.222656 6.484375 2.128906 6.996094 2.128906 C 7.871094 2.128906 8.574219 2.40625 9.101562 2.964844 C 9.539062 3.421875 9.757812 3.941406 9.757812 4.515625 C 9.757812 5.332031 9.3125 5.984375 8.417969 6.46875 C 8.953125 6.585938 9.378906 6.839844 9.695312 7.238281 C 10.015625 7.636719 10.175781 8.117188 10.175781 8.679688 C 10.175781 9.496094 9.878906 10.191406 9.28125 10.765625 C 8.683594 11.34375 7.941406 11.628906 7.054688 11.628906 C 6.210938 11.628906 5.511719 11.386719 4.957031 10.902344 C 4.402344 10.417969 4.082031 9.785156 3.992188 9.003906 Z M 3.992188 9.003906 "/>
<path fill-rule="nonzero" fill="rgb(0%, 0%, 0%)" fill-opacity="1" d="M 10.746094 9.078125 L 12.523438 8.894531 C 12.574219 9.296875 12.726562 9.617188 12.976562 9.851562 C 13.226562 10.085938 13.511719 10.203125 13.839844 10.203125 C 14.210938 10.203125 14.527344 10.050781 14.785156 9.75 C 15.042969 9.445312 15.171875 8.988281 15.171875 8.378906 C 15.171875 7.808594 15.042969 7.382812 14.789062 7.09375 C 14.53125 6.808594 14.199219 6.667969 13.789062 6.667969 C 13.277344 6.667969 12.816406 6.894531 12.410156 7.347656 L 10.964844 7.136719 L 11.878906 2.292969 L 16.59375 2.292969 L 16.59375 3.960938 L 13.230469 3.960938 L 12.949219 5.542969 C 13.347656 5.34375 13.753906 5.246094 14.167969 5.246094 C 14.960938 5.246094 15.632812 5.53125 16.179688 6.109375 C 16.730469 6.683594 17.007812 7.429688 17.007812 8.347656 C 17.007812 9.113281 16.785156 9.796875 16.339844 10.398438 C 15.734375 11.21875 14.894531 11.628906 13.820312 11.628906 C 12.960938 11.628906 12.261719 11.398438 11.71875 10.9375 C 11.175781 10.476562 10.851562 9.859375 10.746094 9.078125 Z M 10.746094 9.078125 "/>
</svg>
