<?xml version="1.0" encoding="UTF-8"?>
<svg xmlns="http://www.w3.org/2000/svg" xmlns:xlink="http://www.w3.org/1999/xlink" width="21" height="14" viewBox="0 0 21 14">
<rect x="-2.1" y="-1.4" width="25.2" height="16.8" fill="rgb(0%, 0%, 0%)" fill-opacity="1"/>
<path fill-rule="nonzero" fill="rgb(100%, 100%, 100%)" fill-opacity="1" d="M 0.800781 0.800781 L 20.199219 0.800781 L 20.199219 13.199219 L 0.800781 13.199219 Z M 0.800781 0.800781 "/>
<path fill-rule="nonzero" fill="rgb(0%, 0%, 0%)" fill-opacity="1" d="M 4.0625 9.078125 L 5.839844 8.894531 C 5.890625 9.296875 6.042969 9.617188 6.292969 9.851562 C 6.542969 10.085938 6.828125 10.203125 7.15625 10.203125 C 7.527344 10.203125 7.84375 10.050781 8.101562 9.75 C 8.359375 9.445312 8.488281 8.988281 8.488281 8.378906 C 8.488281 7.808594 8.359375 7.382812 8.105469 7.09375 C 7.847656 6.808594 7.515625 6.667969 7.105469 6.667969 C 6.59375 6.667969 6.132812 6.894531 5.726562 7.347656 L 4.28125 7.136719 L 5.195312 2.292969 L 9.910156 2.292969 L 9.910156 3.960938 L 6.546875 3.960938 L 6.265625 5.542969 C 6.664062 5.34375 7.070312 5.246094 7.484375 5.246094 C 8.277344 5.246094 8.945312 5.53125 9.496094 6.109375 C 10.046875 6.683594 10.320312 7.429688 10.320312 8.347656 C 10.320312 9.113281 10.101562 9.796875 9.65625 10.398438 C 9.050781 11.21875 8.210938 11.628906 7.136719 11.628906 C 6.277344 11.628906 5.578125 11.398438 5.035156 10.9375 C 4.492188 10.476562 4.167969 9.859375 4.0625 9.078125 Z M 4.0625 9.078125 "/>
<path fill-rule="nonzero" fill="rgb(0%, 0%, 0%)" fill-opacity="1" d="M 13.914062 2.128906 C 14.816406 2.128906 15.519531 2.449219 16.027344 3.09375 C 16.632812 3.855469 16.9375 5.117188 16.9375 6.882812 C 16.9375 8.644531 16.632812 9.910156 16.023438 10.679688 C 15.519531 11.3125 14.816406 11.628906 13.914062 11.628906 C 13.007812 11.628906 12.28125 11.28125 11.726562 10.585938 C 11.171875 9.890625 10.894531 8.648438 10.894531 6.863281 C 10.894531 5.113281 11.199219 3.851562 11.808594 3.082031 C 12.3125 2.445312 13.015625 2.128906 13.914062 2.128906 Z M 13.914062 3.605469 C 13.699219 3.605469 13.507812 3.675781 13.335938 3.8125 C 13.167969 3.949219 13.035156 4.199219 12.945312 4.554688 C 12.820312 5.015625 12.757812 5.789062 12.757812 6.882812 C 12.757812 7.972656 12.816406 8.722656 12.925781 9.132812 C 13.035156 9.542969 13.171875 9.8125 13.339844 9.949219 C 13.507812 10.085938 13.699219 10.152344 13.914062 10.152344 C 14.132812 10.152344 14.324219 10.082031 14.492188 9.945312 C 14.660156 9.808594 14.792969 9.5625 14.886719 9.207031 C 15.007812 8.75 15.070312 7.972656 15.070312 6.882812 C 15.070312 5.789062 15.015625 5.039062 14.90625 4.632812 C 14.796875 4.222656 14.65625 3.949219 14.488281 3.8125 C 14.324219 3.675781 14.132812 3.605469 13.914062 3.605469 Z M 13.914062 3.605469 "/>
</svg>
