<?xml version="1.0" encoding="UTF-8"?>
<svg xmlns="http://www.w3.org/2000/svg" xmlns:xlink="http://www.w3.org/1999/xlink" width="21" height="14" viewBox="0 0 21 14">
<rect x="-2.1" y="-1.4" width="25.2" height="16.8" fill="rgb(0%, 0%, 0%)" fill-opacity="1"/>
<path fill-rule="nonzero" fill="rgb(100%, 100%, 100%)" fill-opacity="1" d="M 0.800781 0.800781 L 20.199219 0.800781 L 20.199219 13.199219 L 0.800781 13.199219 Z M 0.800781 0.800781 "/>
<path fill-rule="nonzero" fill="rgb(0%, 0%, 0%)" fill-opacity="1" d="M 10.128906 4.445312 L 8.402344 4.636719 C 8.359375 4.28125 8.25 4.019531 8.070312 3.847656 C 7.894531 3.679688 7.664062 3.59375 7.378906 3.59375 C 7.003906 3.59375 6.683594 3.765625 6.425781 4.101562 C 6.164062 4.441406 6 5.144531 5.933594 6.214844 C 6.378906 5.691406 6.929688 5.429688 7.589844 5.429688 C 8.335938 5.429688 8.972656 5.710938 9.503906 6.28125 C 10.035156 6.847656 10.300781 7.578125 10.300781 8.476562 C 10.300781 9.429688 10.019531 10.191406 9.460938 10.765625 C 8.902344 11.34375 8.1875 11.628906 7.308594 11.628906 C 6.371094 11.628906 5.597656 11.265625 4.992188 10.535156 C 4.386719 9.804688 4.085938 8.609375 4.085938 6.945312 C 4.085938 5.242188 4.402344 4.011719 5.03125 3.257812 C 5.660156 2.503906 6.480469 2.128906 7.488281 2.128906 C 8.195312 2.128906 8.78125 2.324219 9.242188 2.722656 C 9.707031 3.117188 10 3.691406 10.128906 4.445312 Z M 6.085938 8.335938 C 6.085938 8.917969 6.21875 9.363281 6.484375 9.679688 C 6.75 9.992188 7.054688 10.152344 7.398438 10.152344 C 7.730469 10.152344 8.003906 10.023438 8.222656 9.765625 C 8.445312 9.507812 8.554688 9.082031 8.554688 8.496094 C 8.554688 7.890625 8.4375 7.445312 8.199219 7.164062 C 7.960938 6.882812 7.664062 6.742188 7.308594 6.742188 C 6.96875 6.742188 6.675781 6.878906 6.441406 7.144531 C 6.203125 7.414062 6.085938 7.8125 6.085938 8.335938 Z M 6.085938 8.335938 "/>
<path fill-rule="nonzero" fill="rgb(0%, 0%, 0%)" fill-opacity="1" d="M 13.894531 2.128906 C 14.792969 2.128906 15.5 2.449219 16.007812 3.09375 C 16.613281 3.855469 16.914062 5.117188 16.914062 6.882812 C 16.914062 8.644531 16.609375 9.910156 16 10.679688 C 15.496094 11.3125 14.792969 11.628906 13.894531 11.628906 C 12.988281 11.628906 12.257812 11.28125 11.703125 10.585938 C 11.148438 9.890625 10.871094 8.648438 10.871094 6.863281 C 10.871094 5.113281 11.175781 3.851562 11.785156 3.082031 C 12.289062 2.445312 12.992188 2.128906 13.894531 2.128906 Z M 13.894531 3.605469 C 13.675781 3.605469 13.484375 3.675781 13.316406 3.8125 C 13.144531 3.949219 13.015625 4.199219 12.921875 4.554688 C 12.800781 5.015625 12.738281 5.789062 12.738281 6.882812 C 12.738281 7.972656 12.792969 8.722656 12.902344 9.132812 C 13.011719 9.542969 13.152344 9.8125 13.320312 9.949219 C 13.484375 10.085938 13.675781 10.152344 13.894531 10.152344 C 14.109375 10.152344 14.300781 10.082031 14.46875 9.945312 C 14.640625 9.808594 14.769531 9.5625 14.863281 9.207031 C 14.988281 8.75 15.046875 7.972656 15.046875 6.882812 C 15.046875 5.789062 14.992188 5.039062 14.882812 4.632812 C 14.773438 4.222656 14.632812 3.949219 14.46875 3.8125 C 14.300781 3.675781 14.109375 3.605469 13.894531 3.605469 Z M 13.894531 3.605469 "/>
</svg>
