<?xml version="1.0" encoding="UTF-8"?>
<svg xmlns="http://www.w3.org/2000/svg" xmlns:xlink="http://www.w3.org/1999/xlink" width="21" height="14" viewBox="0 0 21 14">
<rect x="-2.1" y="-1.4" width="25.2" height="16.8" fill="rgb(0%, 0%, 0%)" fill-opacity="1"/>
<path fill-rule="nonzero" fill="rgb(100%, 100%, 100%)" fill-opacity="1" d="M 0.800781 0.800781 L 20.199219 0.800781 L 20.199219 13.199219 L 0.800781 13.199219 Z M 0.800781 0.800781 "/>
<path fill-rule="nonzero" fill="rgb(0%, 0%, 0%)" fill-opacity="1" d="M 10.019531 4.445312 L 8.292969 4.636719 C 8.25 4.28125 8.140625 4.019531 7.964844 3.847656 C 7.785156 3.679688 7.554688 3.59375 7.273438 3.59375 C 6.894531 3.59375 6.578125 3.765625 6.316406 4.101562 C 6.054688 4.441406 5.894531 5.144531 5.824219 6.214844 C 6.269531 5.691406 6.820312 5.429688 7.480469 5.429688 C 8.226562 5.429688 8.863281 5.710938 9.394531 6.28125 C 9.925781 6.847656 10.191406 7.578125 10.191406 8.476562 C 10.191406 9.429688 9.914062 10.191406 9.355469 10.765625 C 8.796875 11.34375 8.078125 11.628906 7.203125 11.628906 C 6.261719 11.628906 5.492188 11.265625 4.886719 10.535156 C 4.28125 9.804688 3.976562 8.609375 3.976562 6.945312 C 3.976562 5.242188 4.292969 4.011719 4.921875 3.257812 C 5.554688 2.503906 6.371094 2.128906 7.378906 2.128906 C 8.085938 2.128906 8.671875 2.324219 9.136719 2.722656 C 9.597656 3.117188 9.894531 3.691406 10.019531 4.445312 Z M 5.976562 8.335938 C 5.976562 8.917969 6.109375 9.363281 6.378906 9.679688 C 6.644531 9.992188 6.949219 10.152344 7.292969 10.152344 C 7.621094 10.152344 7.894531 10.023438 8.117188 9.765625 C 8.335938 9.507812 8.445312 9.082031 8.445312 8.496094 C 8.445312 7.890625 8.328125 7.445312 8.089844 7.164062 C 7.855469 6.882812 7.558594 6.742188 7.203125 6.742188 C 6.859375 6.742188 6.570312 6.878906 6.332031 7.144531 C 6.097656 7.414062 5.976562 7.8125 5.976562 8.335938 Z M 5.976562 8.335938 "/>
<path fill-rule="nonzero" fill="rgb(0%, 0%, 0%)" fill-opacity="1" d="M 10.761719 9.078125 L 12.539062 8.894531 C 12.589844 9.296875 12.742188 9.617188 12.992188 9.851562 C 13.242188 10.085938 13.527344 10.203125 13.855469 10.203125 C 14.226562 10.203125 14.542969 10.050781 14.800781 9.75 C 15.058594 9.445312 15.1875 8.988281 15.1875 8.378906 C 15.1875 7.808594 15.058594 7.382812 14.804688 7.09375 C 14.546875 6.808594 14.214844 6.667969 13.804688 6.667969 C 13.292969 6.667969 12.832031 6.894531 12.425781 7.347656 L 10.980469 7.136719 L 11.894531 2.292969 L 16.609375 2.292969 L 16.609375 3.960938 L 13.246094 3.960938 L 12.964844 5.542969 C 13.363281 5.34375 13.769531 5.246094 14.183594 5.246094 C 14.976562 5.246094 15.648438 5.53125 16.195312 6.109375 C 16.746094 6.683594 17.023438 7.429688 17.023438 8.347656 C 17.023438 9.113281 16.800781 9.796875 16.355469 10.398438 C 15.75 11.21875 14.910156 11.628906 13.835938 11.628906 C 12.976562 11.628906 12.277344 11.398438 11.734375 10.9375 C 11.191406 10.476562 10.871094 9.859375 10.761719 9.078125 Z M 10.761719 9.078125 "/>
</svg>
