<?xml version="1.0" encoding="UTF-8"?>
<svg xmlns="http://www.w3.org/2000/svg" xmlns:xlink="http://www.w3.org/1999/xlink" width="21" height="14" viewBox="0 0 21 14">
<rect x="-2.1" y="-1.4" width="25.2" height="16.8" fill="rgb(0%, 0%, 0%)" fill-opacity="1"/>
<path fill-rule="nonzero" fill="rgb(100%, 100%, 100%)" fill-opacity="1" d="M 0.800781 0.800781 L 20.199219 0.800781 L 20.199219 13.199219 L 0.800781 13.199219 Z M 0.800781 0.800781 "/>
<path fill-rule="nonzero" fill="rgb(0%, 0%, 0%)" fill-opacity="1" d="M 4.035156 3.949219 L 4.035156 2.292969 L 10.136719 2.292969 L 10.136719 3.589844 C 9.632812 4.082031 9.121094 4.792969 8.597656 5.722656 C 8.078125 6.648438 7.679688 7.632812 7.410156 8.675781 C 7.136719 9.71875 7 10.652344 7.003906 11.472656 L 5.285156 11.472656 C 5.316406 10.1875 5.582031 8.875 6.082031 7.535156 C 6.582031 6.199219 7.253906 5.003906 8.089844 3.949219 Z M 4.035156 3.949219 "/>
<path fill-rule="nonzero" fill="rgb(0%, 0%, 0%)" fill-opacity="1" d="M 10.707031 9.078125 L 12.484375 8.894531 C 12.535156 9.296875 12.683594 9.617188 12.933594 9.851562 C 13.183594 10.085938 13.472656 10.203125 13.796875 10.203125 C 14.171875 10.203125 14.484375 10.050781 14.742188 9.75 C 15 9.445312 15.128906 8.988281 15.128906 8.378906 C 15.128906 7.808594 15.003906 7.382812 14.746094 7.09375 C 14.492188 6.808594 14.15625 6.667969 13.746094 6.667969 C 13.234375 6.667969 12.777344 6.894531 12.371094 7.347656 L 10.921875 7.136719 L 11.835938 2.292969 L 16.550781 2.292969 L 16.550781 3.960938 L 13.1875 3.960938 L 12.910156 5.542969 C 13.308594 5.34375 13.714844 5.246094 14.128906 5.246094 C 14.917969 5.246094 15.589844 5.53125 16.140625 6.109375 C 16.691406 6.683594 16.964844 7.429688 16.964844 8.347656 C 16.964844 9.113281 16.742188 9.796875 16.296875 10.398438 C 15.695312 11.21875 14.851562 11.628906 13.777344 11.628906 C 12.917969 11.628906 12.21875 11.398438 11.675781 10.9375 C 11.136719 10.476562 10.8125 9.859375 10.707031 9.078125 Z M 10.707031 9.078125 "/>
</svg>
