<?xml version="1.0" encoding="UTF-8"?>
<svg xmlns="http://www.w3.org/2000/svg" xmlns:xlink="http://www.w3.org/1999/xlink" width="21" height="14" viewBox="0 0 21 14">
<rect x="-2.1" y="-1.4" width="25.2" height="16.8" fill="rgb(0%, 0%, 0%)" fill-opacity="1"/>
<path fill-rule="nonzero" fill="rgb(100%, 100%, 100%)" fill-opacity="1" d="M 0.800781 0.800781 L 20.199219 0.800781 L 20.199219 13.199219 L 0.800781 13.199219 Z M 0.800781 0.800781 "/>
<path fill-rule="nonzero" fill="rgb(0%, 0%, 0%)" fill-opacity="1" d="M 4.261719 9.320312 L 5.988281 9.128906 C 6.03125 9.480469 6.140625 9.742188 6.320312 9.910156 C 6.496094 10.078125 6.734375 10.164062 7.023438 10.164062 C 7.394531 10.164062 7.707031 9.996094 7.964844 9.65625 C 8.222656 9.316406 8.386719 8.617188 8.460938 7.550781 C 8.011719 8.070312 7.449219 8.328125 6.777344 8.328125 C 6.046875 8.328125 5.414062 8.046875 4.882812 7.484375 C 4.351562 6.917969 4.085938 6.183594 4.085938 5.277344 C 4.085938 4.332031 4.367188 3.574219 4.925781 2.996094 C 5.488281 2.417969 6.203125 2.128906 7.070312 2.128906 C 8.011719 2.128906 8.789062 2.492188 9.390625 3.222656 C 9.996094 3.953125 10.300781 5.152344 10.300781 6.824219 C 10.300781 8.527344 9.984375 9.753906 9.355469 10.507812 C 8.722656 11.261719 7.902344 11.636719 6.890625 11.636719 C 6.164062 11.636719 5.574219 11.445312 5.125 11.054688 C 4.679688 10.667969 4.390625 10.089844 4.261719 9.320312 Z M 8.300781 5.421875 C 8.300781 4.847656 8.167969 4.402344 7.902344 4.082031 C 7.640625 3.765625 7.332031 3.605469 6.988281 3.605469 C 6.65625 3.605469 6.382812 3.738281 6.164062 3.996094 C 5.945312 4.257812 5.835938 4.683594 5.835938 5.277344 C 5.835938 5.878906 5.957031 6.320312 6.191406 6.601562 C 6.429688 6.882812 6.726562 7.023438 7.082031 7.023438 C 7.425781 7.023438 7.714844 6.886719 7.949219 6.617188 C 8.183594 6.34375 8.300781 5.949219 8.300781 5.421875 Z M 8.300781 5.421875 "/>
<path fill-rule="nonzero" fill="rgb(0%, 0%, 0%)" fill-opacity="1" d="M 13.894531 2.128906 C 14.792969 2.128906 15.5 2.449219 16.007812 3.09375 C 16.613281 3.855469 16.914062 5.117188 16.914062 6.882812 C 16.914062 8.644531 16.609375 9.910156 16 10.679688 C 15.496094 11.3125 14.792969 11.628906 13.894531 11.628906 C 12.988281 11.628906 12.257812 11.28125 11.703125 10.585938 C 11.148438 9.890625 10.871094 8.648438 10.871094 6.863281 C 10.871094 5.113281 11.175781 3.851562 11.785156 3.082031 C 12.289062 2.445312 12.992188 2.128906 13.894531 2.128906 Z M 13.894531 3.605469 C 13.675781 3.605469 13.484375 3.675781 13.316406 3.8125 C 13.144531 3.949219 13.015625 4.199219 12.921875 4.554688 C 12.800781 5.015625 12.738281 5.789062 12.738281 6.882812 C 12.738281 7.972656 12.792969 8.722656 12.902344 9.132812 C 13.011719 9.542969 13.152344 9.8125 13.320312 9.949219 C 13.484375 10.085938 13.675781 10.152344 13.894531 10.152344 C 14.109375 10.152344 14.300781 10.082031 14.46875 9.945312 C 14.640625 9.808594 14.769531 9.5625 14.863281 9.207031 C 14.988281 8.75 15.046875 7.972656 15.046875 6.882812 C 15.046875 5.789062 14.992188 5.039062 14.882812 4.632812 C 14.773438 4.222656 14.632812 3.949219 14.46875 3.8125 C 14.300781 3.675781 14.109375 3.605469 13.894531 3.605469 Z M 13.894531 3.605469 "/>
</svg>
