<svg xmlns="http://www.w3.org/2000/svg" width="10" height="15" viewBox="0 0 10 15">
  <rect fill="#00f" stroke="#fff" stroke-width=".4" width="9.6" height="14.6" ry="1" x=".2" y=".2"/>
  <path fill="#fff" d="M3.0232 6.6536V5.8752l1.932-2.0748a10.136 10.136 90 00.0616-.07q.0924-.1008.1708-.1932a5.7316 5.7316 90 00.1484-.1848 4.8692 4.8692 90 00.042-.056q.1288-.168.2128-.3136a2.0496 2.0496 90 00.0112-.0196q.042-.0756.0728-.1428a1.232 1.232 90 00.0532-.1456 1.1004 1.1004 90 00.0196-.07A.9324.9324 90 005.77 2.3976a1.218 1.218 90 00-.0112-.168A.9072.9072 90 005.714 2.0392a.9072.9072 90 00-.0252-.0616.7644.7644 90 00-.1344-.2044.7308.7308 90 00-.252-.1652.7896.7896 90 00-.1232-.0364A.9408.9408 90 004.9804 1.552a1.008 1.008 90 00-.0056 0q-.1036 0-.1988.014a1.0136 1.0136 90 00-.2016.0504.8568.8568 90 00-.0616.0252.7084.7084 90 00-.2268.1596A.7532.7532 90 004.1908 1.93a.9184.9184 90 00-.084.1876 1.2012 1.2012 90 00-.0476.21 1.6268 1.6268 90 00-.014.2212H2.9a1.8928 1.8928 90 01.1512-.7532 1.8676 1.8676 90 01.4312-.6216 1.8368 1.8368 90 01.2044-.1708 2.0916 2.0916 90 01.462-.2492 2.1308 2.1308 90 01.3388-.1008A2.5536 2.5536 90 015.0168.6a2.7972 2.7972 90 01.392.0252 2.0608 2.0608 90 01.4144.1008 1.9124 1.9124 90 01.1876.0812 1.554 1.554 90 01.4004.2772 1.526 1.526 90 01.3556.5516 1.7864 1.7864 90 01.0812.2744 2.142 2.142 90 01.042.4368q0 .2968-.0924.5628a2.254 2.254 90 01-.056.1512 2.5788 2.5788 90 01-.2044.3808 4.368 4.368 90 01-.1512.2156 5.4068 5.4068 90 01-.2576.3192 12.9332 12.9332 90 01-.252.28 16.0328 16.0328 90 01-.2772.294L4.4764 5.738H7.0972v.9156H3.0232ZM4.2393 11.1947v1.8062H7.311v.9976H3V7.6H7.2979V8.6064H4.2393v1.6128H6.8672v.9755H4.2393Z" />
  </svg>
