<svg xmlns="http://www.w3.org/2000/svg" width="10" height="15" viewBox="0 0 10 15">
  <rect fill="#00f" stroke="#fff" stroke-width=".4" width="9.6" height="14.6" ry="1" x=".2" y=".2"/>
  <path fill="#fff" d="M4.2436 6.1053V1.702h.4131q.2241 0 .4153.0505.1912.0506.3494.1428.2065.123.3626.3164.156.1933.2526.4395.0791.2065.1209.4548.0418.2483.0418.5252v.5361q0 .2945-.0418.5471-.0418.2527-.1209.4593-.0967.2373-.2307.4153-.134.178-.301.2922-.1626.1099-.3604.167t-.4262.0571H4.2436ZM3 .7V7.0985H4.7183q.4262 0 .802-.1055t.6878-.3032q.268-.167.4921-.4153.2242-.2482.3911-.5427.1758-.3296.2724-.725.0967-.3955.0967-.8394V3.6399q0-.4614-.1033-.8701-.1032-.4087-.2922-.7471-.1626-.2768-.3802-.5119-.2175-.2352-.4944-.3977-.3164-.1977-.7031-.3055Q5.1006.7 4.6567.7H3ZM4.2436 12.9053V8.502h.4131q.2241 0 .4153.0505.1912.0506.3494.1428.2065.123.3626.3164.156.1933.2526.4395.0791.2065.1209.4548.0418.2483.0418.5252v.5361q0 .2945-.0418.5471-.0418.2527-.1209.4593-.0967.2373-.2307.4153-.134.178-.301.2922-.1626.1099-.3604.167t-.4262.0571H4.2436ZM3 7.5V13.8985H4.7183q.4262 0 .802-.1055t.6878-.3032q.268-.167.4921-.4153.2242-.2482.3911-.5427.1758-.3296.2724-.725.0967-.3955.0967-.8394V10.4399q0-.4614-.1033-.8701-.1032-.4087-.2922-.7471-.1626-.2768-.3802-.5119-.2175-.2352-.4944-.3977-.3164-.1977-.7031-.3055Q5.1006 7.5 4.6567 7.5H3Z" />
</svg>
