<?xml version="1.0" encoding="UTF-8"?>
<svg version="1.1" width="18.943" height="20" viewBox="0 0 18.943 20" xmlns="http://www.w3.org/2000/svg"><g><path d="m4.8398 10.641h9.3594v9.3594h-9.3594z"/><path d="m4.3906 20h10.164l3.3281-6.1758h-16.824z"/><path d="m18.941 9.4727c0 5.2305-4.2383 9.4688-9.4688 9.4688-5.2305 0-9.4727-4.2383-9.4727-9.4688 0-5.2305 4.2422-9.4727 9.4727-9.4727 5.2305 0 9.4688 4.2422 9.4688 9.4727z"/></g><g><path d="m18.461 9.4727c0 4.9609-4.0273 8.9883-8.9883 8.9883-4.9648 0-8.9883-4.0273-8.9883-8.9883 0-4.9648 4.0234-8.9883 8.9883-8.9883 4.9609 0 8.9883 4.0234 8.9883 8.9883z" fill="#fff"/><path d="m17.977 9.4727c0 4.6953-3.8086 8.5039-8.5039 8.5039-4.6992 0-8.5039-3.8086-8.5039-8.5039 0-4.6992 3.8047-8.5039 8.5039-8.5039 4.6953 0 8.5039 3.8047 8.5039 8.5039z"/><path d="m15.691 6.4375c0 0.75781-0.61328 1.3711-1.3711 1.3711-0.75781 0-1.3711-0.61328-1.3711-1.3711s0.61328-1.3711 1.3711-1.3711c0.75781 0 1.3711 0.61328 1.3711 1.3711z" fill="#ff0"/><path d="m6.0117 6.4375c0 0.75781-0.61719 1.3711-1.3711 1.3711-0.75781 0-1.375-0.61328-1.375-1.3711s0.61719-1.3711 1.375-1.3711c0.75391 0 1.3711 0.61328 1.3711 1.3711z" fill="#ff0"/></g><g fill="#333"><path d="m10.852 8.6172c0 0.75781-0.61328 1.3711-1.3711 1.3711-0.75781 0-1.3711-0.61328-1.3711-1.3711 0-0.75781 0.61328-1.3711 1.3711-1.3711 0.75781 0 1.3711 0.61328 1.3711 1.3711z"/><path d="m15.691 11.277c0 0.75781-0.61328 1.3711-1.3711 1.3711-0.75781 0-1.3711-0.61328-1.3711-1.3711 0-0.75781 0.61328-1.3711 1.3711-1.3711 0.75781 0 1.3711 0.61328 1.3711 1.3711z"/><path d="m6.0117 11.277c0 0.75781-0.61719 1.3711-1.3711 1.3711-0.75781 0-1.375-0.61328-1.375-1.3711 0-0.75781 0.61719-1.3711 1.375-1.3711 0.75391 0 1.3711 0.61328 1.3711 1.3711z"/><path d="m10.852 14.828c0 0.75781-0.61328 1.3711-1.3711 1.3711-0.75781 0-1.3711-0.61328-1.3711-1.3711s0.61328-1.3711 1.3711-1.3711c0.75781 0 1.3711 0.61328 1.3711 1.3711z"/><path d="m13.277 9.8398h2.0859c0.19922 0 0.35938 0.16016 0.35938 0.36328v2.082c0 0.19922-0.16016 0.36328-0.35938 0.36328h-2.0859c-0.19922 0-0.35938-0.16406-0.35938-0.36328v-2.082c0-0.20312 0.16016-0.36328 0.35938-0.36328z"/><path d="m3.5664 9.873h2.082c0.19922 0 0.36328 0.16016 0.36328 0.36328v2.082c0 0.19922-0.16406 0.36328-0.36328 0.36328h-2.082c-0.19922 0-0.36328-0.16406-0.36328-0.36328v-2.082c0-0.20312 0.16406-0.36328 0.36328-0.36328z"/></g></svg>
