<?xml version="1.0" encoding="UTF-8"?>
<svg xmlns="http://www.w3.org/2000/svg" xmlns:xlink="http://www.w3.org/1999/xlink" width="16" height="5.5" viewBox="0 0 16 5.5">
<path fill-rule="nonzero" fill="rgb(100%, 100%, 100%)" fill-opacity="1" stroke-width="3.6055" stroke-linecap="butt" stroke-linejoin="miter" stroke="rgb(0%, 0%, 0%)" stroke-opacity="1" stroke-miterlimit="4" d="M 1.75 1.75 L 510.25 1.75 L 510.25 174.25 L 1.75 174.25 Z M 1.75 1.75 " transform="matrix(0.03125, 0, 0, 0.03125, 0, 0)"/>
<path fill-rule="nonzero" fill="rgb(0%, 0%, 0%)" fill-opacity="1" d="M 3.097656 2.082031 C 3.097656 1.960938 3.074219 1.84375 3.023438 1.726562 C 2.972656 1.617188 2.902344 1.511719 2.8125 1.421875 C 2.722656 1.335938 2.621094 1.265625 2.511719 1.214844 C 2.402344 1.164062 2.285156 1.140625 2.167969 1.140625 L 1.199219 1.140625 L 1.199219 4.359375 L 2.167969 4.359375 C 2.285156 4.359375 2.402344 4.332031 2.519531 4.277344 C 2.632812 4.222656 2.734375 4.148438 2.832031 4.058594 C 2.925781 3.964844 2.996094 3.859375 3.050781 3.742188 C 3.105469 3.628906 3.132812 3.515625 3.132812 3.398438 C 3.132812 3.324219 3.121094 3.25 3.101562 3.179688 C 3.082031 3.113281 3.058594 3.046875 3.027344 2.992188 C 2.996094 2.933594 2.960938 2.882812 2.925781 2.839844 C 2.894531 2.800781 2.859375 2.765625 2.824219 2.742188 C 2.851562 2.710938 2.878906 2.671875 2.910156 2.628906 C 2.941406 2.585938 2.972656 2.535156 3.003906 2.476562 C 3.03125 2.421875 3.050781 2.359375 3.070312 2.292969 C 3.089844 2.222656 3.097656 2.15625 3.097656 2.082031 Z M 2.167969 3.007812 C 2.21875 3.007812 2.265625 3.019531 2.3125 3.039062 C 2.355469 3.0625 2.398438 3.09375 2.4375 3.128906 C 2.472656 3.167969 2.5 3.210938 2.519531 3.257812 C 2.542969 3.304688 2.550781 3.351562 2.550781 3.394531 C 2.550781 3.441406 2.542969 3.488281 2.519531 3.53125 C 2.5 3.582031 2.472656 3.621094 2.4375 3.660156 C 2.398438 3.695312 2.355469 3.726562 2.3125 3.746094 C 2.261719 3.765625 2.214844 3.777344 2.167969 3.78125 L 1.78125 3.78125 L 1.78125 3.007812 Z M 2.167969 2.429688 L 1.78125 2.429688 L 1.78125 1.71875 L 2.167969 1.71875 C 2.265625 1.71875 2.347656 1.753906 2.417969 1.824219 C 2.488281 1.894531 2.519531 1.976562 2.519531 2.074219 C 2.519531 2.171875 2.488281 2.253906 2.417969 2.324219 C 2.347656 2.394531 2.265625 2.429688 2.167969 2.429688 Z M 3.613281 4.359375 L 4.195312 4.359375 L 4.195312 1.140625 L 3.613281 1.140625 Z M 6.285156 4.359375 L 6.832031 2.976562 L 6.832031 4.359375 L 7.414062 4.359375 L 7.414062 1.140625 L 6.832031 1.140625 L 6.125 3.296875 L 5.417969 1.140625 L 4.835938 1.140625 L 4.835938 4.359375 L 5.417969 4.359375 L 5.417969 2.976562 L 5.964844 4.359375 Z M 9.875 3.394531 L 9.875 2.105469 C 9.875 1.988281 9.847656 1.871094 9.792969 1.757812 C 9.742188 1.640625 9.667969 1.535156 9.578125 1.4375 C 9.484375 1.347656 9.378906 1.273438 9.261719 1.222656 C 9.144531 1.167969 9.027344 1.140625 8.910156 1.140625 C 8.792969 1.140625 8.675781 1.167969 8.558594 1.222656 C 8.445312 1.277344 8.339844 1.347656 8.25 1.4375 C 8.152344 1.535156 8.078125 1.640625 8.023438 1.757812 C 7.972656 1.871094 7.945312 1.988281 7.945312 2.105469 L 7.945312 3.394531 C 7.945312 3.511719 7.972656 3.628906 8.023438 3.742188 C 8.078125 3.859375 8.152344 3.964844 8.25 4.058594 C 8.339844 4.152344 8.445312 4.226562 8.558594 4.277344 C 8.675781 4.332031 8.792969 4.359375 8.910156 4.359375 C 9.027344 4.359375 9.144531 4.332031 9.261719 4.277344 C 9.375 4.222656 9.480469 4.148438 9.578125 4.058594 C 9.671875 3.964844 9.742188 3.859375 9.792969 3.742188 C 9.847656 3.628906 9.875 3.511719 9.875 3.394531 Z M 9.296875 3.394531 C 9.296875 3.441406 9.285156 3.488281 9.265625 3.53125 C 9.242188 3.582031 9.214844 3.621094 9.179688 3.660156 C 9.140625 3.695312 9.097656 3.726562 9.054688 3.746094 C 9.003906 3.765625 8.957031 3.777344 8.910156 3.78125 C 8.863281 3.78125 8.816406 3.769531 8.773438 3.746094 C 8.726562 3.726562 8.683594 3.695312 8.648438 3.660156 C 8.609375 3.621094 8.578125 3.582031 8.554688 3.53125 C 8.535156 3.488281 8.523438 3.441406 8.523438 3.394531 L 8.523438 2.105469 C 8.523438 2.058594 8.535156 2.011719 8.554688 1.964844 C 8.578125 1.917969 8.609375 1.875 8.648438 1.839844 C 8.683594 1.804688 8.726562 1.773438 8.773438 1.753906 C 8.820312 1.734375 8.867188 1.722656 8.910156 1.71875 C 8.960938 1.71875 9.007812 1.730469 9.054688 1.753906 C 9.097656 1.773438 9.140625 1.804688 9.179688 1.839844 C 9.214844 1.875 9.242188 1.917969 9.265625 1.964844 C 9.285156 2.011719 9.296875 2.058594 9.296875 2.105469 Z M 11.371094 1.71875 C 11.421875 1.71875 11.46875 1.730469 11.515625 1.753906 C 11.558594 1.773438 11.601562 1.804688 11.640625 1.839844 C 11.675781 1.875 11.703125 1.917969 11.726562 1.964844 C 11.746094 2.011719 11.757812 2.058594 11.757812 2.105469 L 11.757812 3.394531 C 11.757812 3.441406 11.746094 3.488281 11.726562 3.53125 C 11.703125 3.582031 11.675781 3.621094 11.640625 3.660156 C 11.601562 3.695312 11.558594 3.726562 11.515625 3.746094 C 11.464844 3.765625 11.417969 3.777344 11.371094 3.78125 L 10.984375 3.78125 L 10.984375 1.71875 Z M 11.371094 1.140625 L 10.40625 1.140625 L 10.40625 4.359375 L 11.371094 4.359375 C 11.488281 4.359375 11.605469 4.332031 11.722656 4.277344 C 11.835938 4.222656 11.941406 4.148438 12.039062 4.058594 C 12.132812 3.964844 12.203125 3.859375 12.257812 3.742188 C 12.3125 3.628906 12.335938 3.511719 12.335938 3.394531 L 12.335938 2.105469 C 12.335938 1.988281 12.3125 1.871094 12.257812 1.757812 C 12.203125 1.640625 12.128906 1.535156 12.039062 1.4375 C 11.945312 1.347656 11.839844 1.273438 11.722656 1.222656 C 11.605469 1.167969 11.488281 1.140625 11.371094 1.140625 Z M 13.449219 2.453125 L 13.449219 1.71875 L 14.800781 1.71875 L 14.800781 1.140625 L 12.867188 1.140625 L 12.867188 4.359375 L 14.800781 4.359375 L 14.800781 3.78125 L 13.449219 3.78125 L 13.449219 3.03125 L 14.027344 3.03125 L 14.027344 2.453125 Z M 13.449219 2.453125 "/>
</svg>
