<?xml version="1.0" encoding="UTF-8"?>
<svg version="1.1" width="20.692" height="24.707" viewBox="0 0 20.692 24.707" xmlns="http://www.w3.org/2000/svg"><path d="m4.129 15.859h8.1406v8.1406h-8.1406z"/><path d="m4.129 15.859h8.1406v8.1406h-8.1406z"/><path d="m8.1993 0h8.4219c2.2461 0 4.0703 1.8242 4.0703 4.0703s-1.8242 4.0703-4.0703 4.0703h-8.4219c-2.2461 0-4.0703-1.8242-4.0703-4.0703s1.8242-4.0703 4.0703-4.0703z"/><path d="m8.1993 0c2.2461 0 4.0703 1.8242 4.0703 4.0703v15.859c0 2.2461-1.8242 4.0703-4.0703 4.0703s-4.0703-1.8242-4.0703-4.0703v-15.859c0-2.2461 1.8242-4.0703 4.0703-4.0703z"/><path d="m4.129 15.859h8.1406v8.1406h-8.1406z"/><path d="m8.1993 0.21094c2.1328 0 3.8594 1.7266 3.8594 3.8594v15.438c0 2.1328-1.7266 3.8594-3.8594 3.8594s-3.8594-1.7266-3.8594-3.8594v-15.438c0-2.1328 1.7266-3.8594 3.8594-3.8594z" fill="#fff"/><path d="m8.1993 0.21094h8.4219c2.1289 0 3.8594 1.7266 3.8594 3.8594s-1.7305 3.8594-3.8594 3.8594h-8.4219c-2.1328 0-3.8594-1.7266-3.8594-3.8594s1.7266-3.8594 3.8594-3.8594z" fill="#fff"/><path d="m8.1915 0.625c1.8984 0 3.4375 1.5391 3.4375 3.4375v15.438c0 1.9023-1.5391 3.4414-3.4375 3.4414s-3.4375-1.5391-3.4375-3.4414v-15.438c0-1.8984 1.5391-3.4375 3.4375-3.4375z"/><path d="m9.3985 13.328c0 0.65625-0.53516 1.1914-1.1914 1.1914-0.66016 0-1.1953-0.53516-1.1953-1.1914 0-0.66016 0.53516-1.1953 1.1953-1.1953 0.65625 0 1.1914 0.53516 1.1914 1.1953z" fill="#333"/><path d="m9.3985 16.414c0 0.66016-0.53516 1.1914-1.1914 1.1914-0.66016 0-1.1953-0.53125-1.1953-1.1914 0-0.66016 0.53516-1.1914 1.1953-1.1914 0.65625 0 1.1914 0.53125 1.1914 1.1914z" fill="#f00"/><path d="m9.3985 19.5c0 0.66016-0.53516 1.1953-1.1914 1.1953-0.66016 0-1.1953-0.53516-1.1953-1.1953 0-0.65625 0.53516-1.1914 1.1953-1.1914 0.65625 0 1.1914 0.53516 1.1914 1.1914z" fill="#333"/><path d="m9.3985 10.238c0 0.66016-0.53516 1.1914-1.1914 1.1914-0.66016 0-1.1953-0.53125-1.1953-1.1914 0-0.66016 0.53516-1.1914 1.1953-1.1914 0.65625 0 1.1914 0.53125 1.1914 1.1914z" fill="#333"/><path d="m8.1993 0.63281h8.4219c1.8984 0 3.4375 1.5391 3.4375 3.4375s-1.5391 3.4375-3.4375 3.4375h-8.4219c-1.8984 0-3.4375-1.5391-3.4375-3.4375s1.5391-3.4375 3.4375-3.4375z"/><g fill="#333"><path d="m9.3985 7.1523c0 0.65625-0.53516 1.1914-1.1914 1.1914-0.66016 0-1.1953-0.53516-1.1953-1.1914 0-0.66016 0.53516-1.1953 1.1953-1.1953 0.65625 0 1.1914 0.53516 1.1914 1.1953z"/><path d="m9.3985 4.0625c0 0.66016-0.53516 1.1953-1.1914 1.1953-0.66016 0-1.1953-0.53516-1.1953-1.1953 0-0.65625 0.53516-1.1914 1.1953-1.1914 0.65625 0 1.1914 0.53516 1.1914 1.1914z"/><path d="m17.82 4.0625c0 0.66016-0.53516 1.1953-1.1914 1.1953-0.66016 0-1.1953-0.53516-1.1953-1.1953 0-0.65625 0.53516-1.1914 1.1953-1.1914 0.65625 0 1.1914 0.53516 1.1914 1.1914z"/></g><path d="m0.13672 20.906h3.5273c0.074219 0 0.13672 0.0625 0.13672 0.13672v3.5273c0 0.07422-0.0625 0.13672-0.13672 0.13672h-3.5273c-0.074219 0-0.13672-0.0625-0.13672-0.13672v-3.5273c0-0.07422 0.0625-0.13672 0.13672-0.13672z"/><path d="m2.7148 22.809c0 0.44922-0.36328 0.8125-0.81641 0.8125-0.44922 0-0.8125-0.36328-0.8125-0.8125 0-0.45312 0.36328-0.81641 0.8125-0.81641 0.45312 0 0.81641 0.36328 0.81641 0.81641z" fill="#fff"/></svg>
