<?xml version="1.0" encoding="UTF-8"?>
<svg xmlns="http://www.w3.org/2000/svg" xmlns:xlink="http://www.w3.org/1999/xlink" width="20.09989" height="24" viewBox="0 0 20.09989 24">
<path fill-rule="nonzero" fill="rgb(0%, 0%, 0%)" fill-opacity="1" d="M 4.011719 15.40625 L 11.917969 15.40625 L 11.917969 23.3125 L 4.011719 23.3125 Z M 4.011719 15.40625 "/>
<path fill-rule="nonzero" fill="rgb(0%, 0%, 0%)" fill-opacity="1" d="M 4.011719 15.40625 L 11.917969 15.40625 L 11.917969 23.3125 L 4.011719 23.3125 Z M 4.011719 15.40625 "/>
<path fill-rule="nonzero" fill="rgb(0%, 0%, 0%)" fill-opacity="1" d="M 7.964844 0 L 16.144531 0 C 18.328125 0 20.097656 1.773438 20.097656 3.953125 C 20.097656 6.136719 18.328125 7.90625 16.144531 7.90625 L 7.964844 7.90625 C 5.78125 7.90625 4.011719 6.136719 4.011719 3.953125 C 4.011719 1.773438 5.78125 0 7.964844 0 Z M 7.964844 0 "/>
<path fill-rule="nonzero" fill="rgb(0%, 0%, 0%)" fill-opacity="1" d="M 7.964844 0 C 10.148438 0 11.917969 1.773438 11.917969 3.953125 L 11.917969 19.359375 C 11.917969 21.539062 10.148438 23.3125 7.964844 23.3125 C 5.78125 23.3125 4.011719 21.539062 4.011719 19.359375 L 4.011719 3.953125 C 4.011719 1.773438 5.78125 0 7.964844 0 Z M 7.964844 0 "/>
<path fill-rule="nonzero" fill="rgb(0%, 0%, 0%)" fill-opacity="1" d="M 4.011719 15.40625 L 11.917969 15.40625 L 11.917969 23.3125 L 4.011719 23.3125 Z M 4.011719 15.40625 "/>
<path fill-rule="nonzero" fill="rgb(100%, 100%, 100%)" fill-opacity="1" d="M 7.964844 0.203125 C 10.035156 0.203125 11.714844 1.882812 11.714844 3.953125 L 11.714844 18.949219 C 11.714844 21.023438 10.035156 22.699219 7.964844 22.699219 C 5.894531 22.699219 4.214844 21.023438 4.214844 18.949219 L 4.214844 3.953125 C 4.214844 1.882812 5.894531 0.203125 7.964844 0.203125 Z M 7.964844 0.203125 "/>
<path fill-rule="nonzero" fill="rgb(100%, 100%, 100%)" fill-opacity="1" d="M 7.964844 0.203125 L 16.144531 0.203125 C 18.214844 0.203125 19.894531 1.882812 19.894531 3.953125 C 19.894531 6.027344 18.214844 7.703125 16.144531 7.703125 L 7.964844 7.703125 C 5.894531 7.703125 4.214844 6.027344 4.214844 3.953125 C 4.214844 1.882812 5.894531 0.203125 7.964844 0.203125 Z M 7.964844 0.203125 "/>
<path fill-rule="nonzero" fill="rgb(0%, 0%, 0%)" fill-opacity="1" d="M 7.957031 0.605469 C 9.800781 0.605469 11.296875 2.101562 11.296875 3.945312 L 11.296875 18.941406 C 11.296875 20.789062 9.800781 22.285156 7.957031 22.285156 C 6.113281 22.285156 4.617188 20.789062 4.617188 18.941406 L 4.617188 3.945312 C 4.617188 2.101562 6.113281 0.605469 7.957031 0.605469 Z M 7.957031 0.605469 "/>
<path fill-rule="nonzero" fill="rgb(20%, 20%, 20%)" fill-opacity="1" d="M 9.128906 12.945312 C 9.128906 13.585938 8.609375 14.105469 7.972656 14.105469 C 7.332031 14.105469 6.8125 13.585938 6.8125 12.945312 C 6.8125 12.304688 7.332031 11.785156 7.972656 11.785156 C 8.609375 11.785156 9.128906 12.304688 9.128906 12.945312 Z M 9.128906 12.945312 "/>
<path fill-rule="nonzero" fill="rgb(20%, 20%, 20%)" fill-opacity="1" d="M 9.128906 15.945312 C 9.128906 16.585938 8.609375 17.101562 7.972656 17.101562 C 7.332031 17.101562 6.8125 16.585938 6.8125 15.945312 C 6.8125 15.304688 7.332031 14.785156 7.972656 14.785156 C 8.609375 14.785156 9.128906 15.304688 9.128906 15.945312 Z M 9.128906 15.945312 "/>
<path fill-rule="nonzero" fill="rgb(20%, 20%, 20%)" fill-opacity="1" d="M 9.128906 18.941406 C 9.128906 19.582031 8.609375 20.101562 7.972656 20.101562 C 7.332031 20.101562 6.8125 19.582031 6.8125 18.941406 C 6.8125 18.304688 7.332031 17.785156 7.972656 17.785156 C 8.609375 17.785156 9.128906 18.304688 9.128906 18.941406 Z M 9.128906 18.941406 "/>
<path fill-rule="nonzero" fill="rgb(20%, 20%, 20%)" fill-opacity="1" d="M 9.128906 9.945312 C 9.128906 10.585938 8.609375 11.101562 7.972656 11.101562 C 7.332031 11.101562 6.8125 10.585938 6.8125 9.945312 C 6.8125 9.304688 7.332031 8.789062 7.972656 8.789062 C 8.609375 8.789062 9.128906 9.304688 9.128906 9.945312 Z M 9.128906 9.945312 "/>
<path fill-rule="nonzero" fill="rgb(0%, 0%, 0%)" fill-opacity="1" d="M 7.964844 0.613281 L 16.144531 0.613281 C 17.988281 0.613281 19.484375 2.109375 19.484375 3.953125 C 19.484375 5.796875 17.988281 7.292969 16.144531 7.292969 L 7.964844 7.292969 C 6.121094 7.292969 4.625 5.796875 4.625 3.953125 C 4.625 2.109375 6.121094 0.613281 7.964844 0.613281 Z M 7.964844 0.613281 "/>
<path fill-rule="nonzero" fill="rgb(100%, 0%, 100%)" fill-opacity="1" d="M 9.128906 6.949219 C 9.128906 7.585938 8.609375 8.105469 7.972656 8.105469 C 7.332031 8.105469 6.8125 7.585938 6.8125 6.949219 C 6.8125 6.304688 7.332031 5.785156 7.972656 5.785156 C 8.609375 5.785156 9.128906 6.304688 9.128906 6.949219 Z M 9.128906 6.949219 "/>
<path fill-rule="nonzero" fill="rgb(20%, 20%, 20%)" fill-opacity="1" d="M 9.128906 3.945312 C 9.128906 4.585938 8.609375 5.105469 7.972656 5.105469 C 7.332031 5.105469 6.8125 4.585938 6.8125 3.945312 C 6.8125 3.308594 7.332031 2.789062 7.972656 2.789062 C 8.609375 2.789062 9.128906 3.308594 9.128906 3.945312 Z M 9.128906 3.945312 "/>
<path fill-rule="nonzero" fill="rgb(20%, 20%, 20%)" fill-opacity="1" d="M 17.308594 3.945312 C 17.308594 4.585938 16.789062 5.105469 16.152344 5.105469 C 15.511719 5.105469 14.992188 4.585938 14.992188 3.945312 C 14.992188 3.308594 15.511719 2.789062 16.152344 2.789062 C 16.789062 2.789062 17.308594 3.308594 17.308594 3.945312 Z M 17.308594 3.945312 "/>
<path fill-rule="nonzero" fill="rgb(0%, 0%, 0%)" fill-opacity="1" d="M 0.132812 20.308594 L 3.558594 20.308594 C 3.632812 20.308594 3.691406 20.367188 3.691406 20.441406 L 3.691406 23.867188 C 3.691406 23.9375 3.632812 24 3.558594 24 L 0.132812 24 C 0.0625 24 0 23.9375 0 23.867188 L 0 20.441406 C 0 20.367188 0.0625 20.308594 0.132812 20.308594 Z M 0.132812 20.308594 "/>
<path fill-rule="nonzero" fill="rgb(20%, 20%, 20%)" fill-opacity="1" d="M 2.636719 22.15625 C 2.636719 22.59375 2.285156 22.945312 1.84375 22.945312 C 1.40625 22.945312 1.054688 22.59375 1.054688 22.15625 C 1.054688 21.714844 1.40625 21.363281 1.84375 21.363281 C 2.285156 21.363281 2.636719 21.714844 2.636719 22.15625 Z M 2.636719 22.15625 "/>
</svg>
