<?xml version="1.0" encoding="UTF-8" standalone="no"?>
<svg
   version="1.1"
   width="20.692"
   height="24.707"
   viewBox="0 0 20.692 24.707"
   id="svg18"
   sodipodi:docname="Cv_F-Cv.svg"
   inkscape:version="1.3.2 (091e20e, 2023-11-25, custom)"
   xmlns:inkscape="http://www.inkscape.org/namespaces/inkscape"
   xmlns:sodipodi="http://sodipodi.sourceforge.net/DTD/sodipodi-0.dtd"
   xmlns="http://www.w3.org/2000/svg"
   xmlns:svg="http://www.w3.org/2000/svg">
  <defs
     id="defs18" />
  <sodipodi:namedview
     id="namedview18"
     pagecolor="#505050"
     bordercolor="#eeeeee"
     borderopacity="1"
     inkscape:showpageshadow="0"
     inkscape:pageopacity="0"
     inkscape:pagecheckerboard="0"
     inkscape:deskcolor="#d1d1d1"
     inkscape:zoom="44.751596"
     inkscape:cx="10.346"
     inkscape:cy="12.345928"
     inkscape:window-width="2560"
     inkscape:window-height="1494"
     inkscape:window-x="2549"
     inkscape:window-y="-11"
     inkscape:window-maximized="1"
     inkscape:current-layer="svg18" />
  <path
     d="m4.129 15.859h8.1406v8.1406h-8.1406z"
     id="path1" />
  <path
     d="m4.129 15.859h8.1406v8.1406h-8.1406z"
     id="path2" />
  <path
     d="m8.1993 0h8.4219c2.2461 0 4.0703 1.8242 4.0703 4.0703s-1.8242 4.0703-4.0703 4.0703h-8.4219c-2.2461 0-4.0703-1.8242-4.0703-4.0703s1.8242-4.0703 4.0703-4.0703z"
     id="path3" />
  <path
     d="m8.1993 0c2.2461 0 4.0703 1.8242 4.0703 4.0703v15.859c0 2.2461-1.8242 4.0703-4.0703 4.0703s-4.0703-1.8242-4.0703-4.0703v-15.859c0-2.2461 1.8242-4.0703 4.0703-4.0703z"
     id="path4" />
  <path
     d="m4.129 15.859h8.1406v8.1406h-8.1406z"
     id="path5" />
  <path
     d="m8.1993 0.21094c2.1328 0 3.8594 1.7266 3.8594 3.8594v15.438c0 2.1328-1.7266 3.8594-3.8594 3.8594s-3.8594-1.7266-3.8594-3.8594v-15.438c0-2.1328 1.7266-3.8594 3.8594-3.8594z"
     fill="#fff"
     id="path6" />
  <path
     d="m8.1993 0.21094h8.4219c2.1289 0 3.8594 1.7266 3.8594 3.8594s-1.7305 3.8594-3.8594 3.8594h-8.4219c-2.1328 0-3.8594-1.7266-3.8594-3.8594s1.7266-3.8594 3.8594-3.8594z"
     fill="#fff"
     id="path7" />
  <path
     d="m8.1915 0.625c1.8984 0 3.4375 1.5391 3.4375 3.4375v15.438c0 1.9023-1.5391 3.4414-3.4375 3.4414s-3.4375-1.5391-3.4375-3.4414v-15.438c0-1.8984 1.5391-3.4375 3.4375-3.4375z"
     id="path8" />
  <path
     d="m9.3985 13.328c0 0.65625-0.53516 1.1914-1.1914 1.1914-0.66016 0-1.1953-0.53516-1.1953-1.1914 0-0.66016 0.53516-1.1953 1.1953-1.1953 0.65625 0 1.1914 0.53516 1.1914 1.1953z"
     fill="#333"
     id="path9" />
  <path
     d="m9.3985 16.414c0 0.66016-0.53516 1.1914-1.1914 1.1914-0.66016 0-1.1953-0.53125-1.1953-1.1914 0-0.66016 0.53516-1.1914 1.1953-1.1914 0.65625 0 1.1914 0.53125 1.1914 1.1914z"
     fill="#f00"
     id="path10"
     style="fill:#333333" />
  <path
     d="m9.3985 19.5c0 0.66016-0.53516 1.1953-1.1914 1.1953-0.66016 0-1.1953-0.53516-1.1953-1.1953 0-0.65625 0.53516-1.1914 1.1953-1.1914 0.65625 0 1.1914 0.53516 1.1914 1.1914z"
     fill="#333"
     id="path11" />
  <path
     d="m9.3985 10.238c0 0.66016-0.53516 1.1914-1.1914 1.1914-0.66016 0-1.1953-0.53125-1.1953-1.1914 0-0.66016 0.53516-1.1914 1.1953-1.1914 0.65625 0 1.1914 0.53125 1.1914 1.1914z"
     fill="#333"
     id="path12" />
  <path
     d="m8.1993 0.63281h8.4219c1.8984 0 3.4375 1.5391 3.4375 3.4375s-1.5391 3.4375-3.4375 3.4375h-8.4219c-1.8984 0-3.4375-1.5391-3.4375-3.4375s1.5391-3.4375 3.4375-3.4375z"
     id="path13" />
  <path
     d="m9.3985 7.1523c0 0.65625-0.53516 1.1914-1.1914 1.1914-0.66016 0-1.1953-0.53516-1.1953-1.1914 0-0.66016 0.53516-1.1953 1.1953-1.1953 0.65625 0 1.1914 0.53516 1.1914 1.1953z"
     fill="#f00"
     id="path14"
     style="fill:#ff00ff" />
  <path
     d="m9.3985 4.0625c0 0.66016-0.53516 1.1953-1.1914 1.1953-0.66016 0-1.1953-0.53516-1.1953-1.1953 0-0.65625 0.53516-1.1914 1.1953-1.1914 0.65625 0 1.1914 0.53516 1.1914 1.1914z"
     fill="#333"
     id="path15" />
  <path
     d="m17.82 4.0625c0 0.66016-0.53516 1.1953-1.1914 1.1953-0.66016 0-1.1953-0.53516-1.1953-1.1953 0-0.65625 0.53516-1.1914 1.1953-1.1914 0.65625 0 1.1914 0.53516 1.1914 1.1914z"
     fill="#333"
     id="path16" />
  <path
     d="m0.13672 20.906h3.5273c0.074219 0 0.13672 0.0625 0.13672 0.13672v3.5273c0 0.07422-0.0625 0.13672-0.13672 0.13672h-3.5273c-0.074219 0-0.13672-0.0625-0.13672-0.13672v-3.5273c0-0.07422 0.0625-0.13672 0.13672-0.13672z"
     id="path17" />
  <path
     d="m2.7148 22.809c0 0.44922-0.36328 0.8125-0.81641 0.8125-0.44922 0-0.8125-0.36328-0.8125-0.8125 0-0.45312 0.36328-0.81641 0.8125-0.81641 0.45312 0 0.81641 0.36328 0.81641 0.81641z"
     fill="#333"
     id="path18" />
</svg>
