<?xml version="1.0" encoding="UTF-8"?>
<svg xmlns="http://www.w3.org/2000/svg" xmlns:xlink="http://www.w3.org/1999/xlink" width="16" height="8" viewBox="0 0 16 8">
<rect x="-1.6" y="-0.8" width="19.2" height="9.6" fill="rgb(0%, 0%, 0%)" fill-opacity="1"/>
<path fill="none" stroke-width="9.8421" stroke-linecap="butt" stroke-linejoin="miter" stroke="rgb(100%, 100%, 100%)" stroke-opacity="1" stroke-miterlimit="4" d="M 10.5 10.5 L 501.5 10.5 L 501.5 245.5 L 10.5 245.5 Z M 10.5 10.5 " transform="matrix(0.03125, 0, 0, 0.03125, 0, 0)"/>
<path fill-rule="nonzero" fill="rgb(100%, 100%, 100%)" fill-opacity="1" d="M 2.785156 4.800781 L 3.265625 4.800781 C 3.265625 4.859375 3.25 4.917969 3.222656 4.972656 C 3.195312 5.03125 3.160156 5.085938 3.117188 5.128906 C 3.070312 5.175781 3.015625 5.210938 2.960938 5.238281 C 2.898438 5.265625 2.839844 5.277344 2.785156 5.28125 C 2.722656 5.28125 2.667969 5.265625 2.613281 5.238281 C 2.550781 5.210938 2.5 5.175781 2.457031 5.128906 C 2.410156 5.085938 2.371094 5.03125 2.34375 4.972656 C 2.316406 4.914062 2.304688 4.859375 2.304688 4.800781 L 2.304688 3.199219 C 2.304688 3.140625 2.316406 3.082031 2.34375 3.023438 C 2.367188 2.964844 2.40625 2.914062 2.457031 2.867188 C 2.5 2.824219 2.550781 2.789062 2.613281 2.761719 C 2.667969 2.734375 2.726562 2.722656 2.785156 2.71875 C 2.84375 2.71875 2.902344 2.734375 2.960938 2.761719 C 3.015625 2.789062 3.070312 2.824219 3.117188 2.867188 C 3.160156 2.914062 3.195312 2.964844 3.222656 3.023438 C 3.246094 3.082031 3.261719 3.140625 3.265625 3.199219 L 3.984375 3.199219 C 3.984375 3.054688 3.949219 2.910156 3.882812 2.765625 C 3.8125 2.621094 3.722656 2.492188 3.613281 2.371094 C 3.496094 2.257812 3.363281 2.167969 3.21875 2.101562 C 3.074219 2.035156 2.929688 2 2.785156 2 C 2.636719 2 2.492188 2.035156 2.347656 2.101562 C 2.203125 2.167969 2.074219 2.257812 1.960938 2.371094 C 1.84375 2.488281 1.75 2.621094 1.683594 2.765625 C 1.613281 2.910156 1.582031 3.054688 1.585938 3.199219 L 1.585938 4.800781 C 1.585938 4.945312 1.617188 5.089844 1.683594 5.234375 C 1.75 5.378906 1.84375 5.507812 1.960938 5.625 C 2.074219 5.742188 2.203125 5.832031 2.347656 5.898438 C 2.488281 5.964844 2.636719 6 2.785156 6 C 2.929688 6 3.074219 5.964844 3.21875 5.898438 C 3.359375 5.832031 3.492188 5.738281 3.613281 5.625 C 3.726562 5.511719 3.816406 5.378906 3.882812 5.234375 C 3.949219 5.089844 3.984375 4.945312 3.984375 4.800781 L 3.984375 4.078125 L 2.785156 4.078125 Z M 4.640625 6 L 5.363281 6 L 5.363281 2 L 4.640625 2 Z M 7.160156 4.136719 L 6.683594 2 L 5.960938 2 L 6.800781 6 L 7.523438 6 L 8.363281 2 L 7.683594 2 Z M 11.359375 3.195312 C 11.359375 3.050781 11.324219 2.90625 11.257812 2.761719 C 11.1875 2.621094 11.097656 2.492188 10.988281 2.371094 C 10.871094 2.257812 10.738281 2.167969 10.59375 2.101562 C 10.449219 2.035156 10.304688 2 10.160156 2 L 8.957031 2 L 8.957031 6 L 9.679688 6 L 9.679688 4.398438 L 10.160156 4.398438 C 10.21875 4.398438 10.277344 4.414062 10.335938 4.441406 C 10.390625 4.46875 10.445312 4.503906 10.492188 4.546875 C 10.535156 4.59375 10.570312 4.644531 10.597656 4.703125 C 10.621094 4.761719 10.636719 4.820312 10.636719 4.878906 L 10.636719 6 L 11.359375 6 L 11.359375 4.878906 C 11.359375 4.742188 11.34375 4.621094 11.3125 4.515625 C 11.277344 4.410156 11.238281 4.328125 11.191406 4.261719 C 11.144531 4.195312 11.101562 4.144531 11.0625 4.113281 C 11.023438 4.085938 10.988281 4.058594 10.960938 4.039062 L 10.96875 4.03125 C 11 4 11.035156 3.964844 11.074219 3.921875 C 11.109375 3.878906 11.152344 3.820312 11.199219 3.746094 C 11.238281 3.671875 11.277344 3.589844 11.3125 3.496094 C 11.34375 3.402344 11.359375 3.300781 11.359375 3.195312 Z M 10.160156 3.679688 L 9.679688 3.679688 L 9.679688 2.71875 L 10.160156 2.71875 C 10.21875 2.71875 10.277344 2.734375 10.335938 2.761719 C 10.390625 2.789062 10.445312 2.824219 10.492188 2.867188 C 10.535156 2.914062 10.570312 2.964844 10.597656 3.023438 C 10.621094 3.082031 10.636719 3.140625 10.636719 3.199219 C 10.636719 3.257812 10.621094 3.316406 10.597656 3.371094 C 10.570312 3.429688 10.535156 3.484375 10.492188 3.527344 C 10.445312 3.574219 10.390625 3.613281 10.335938 3.640625 C 10.277344 3.667969 10.21875 3.679688 10.160156 3.679688 Z M 12.738281 3.628906 L 12.738281 2.71875 L 14.417969 2.71875 L 14.417969 2 L 12.015625 2 L 12.015625 6 L 14.417969 6 L 14.417969 5.28125 L 12.738281 5.28125 L 12.738281 4.347656 L 13.457031 4.347656 L 13.457031 3.628906 Z M 12.738281 3.628906 "/>
</svg>
