<?xml version="1.0" encoding="UTF-8"?>
<svg version="1.1" width="16" height="7.385" viewBox="0 0 16 7.385" xmlns="http://www.w3.org/2000/svg"><path d="M3.691 0h8.618a3.69 3.69 0 1 1 0 7.383H3.69A3.69 3.69 0 1 1 3.69 0"/><path d="M3.692.371h8.617c1.836 0 3.32 1.485 3.32 3.32s-1.484 3.325-3.32 3.325H3.692c-1.836 0-3.32-1.488-3.32-3.324S1.855.372 3.691.372z" fill="none" stroke="#fff" stroke-width=".369"/><path d="m4.738 3.691a1.047 1.047 0 1 1-2.094 0 1.047 1.047 0 0 1 2.094 0m4.309 0a1.047 1.047 0 1 1-2.094 0 1.047 1.047 0 0 1 2.094 0m4.308 0a1.047 1.047 0 1 1-2.094 0 1.047 1.047 0 0 1 2.094 0" fill="#fff"/></svg>
