<?xml version="1.0" encoding="UTF-8"?>
<svg version="1.1" width="24.618" height="7.385" viewBox="0 0 24.618 7.385" xmlns="http://www.w3.org/2000/svg"><path d="m3.691 0h17.236a3.69 3.69 0 1 1 0 7.383h-17.236a3.69 3.69 0 1 1 0-7.383"/><path d="M3.692.371 h17.235 c1.836 0 3.32 1.485 3.32 3.32s-1.484 3.325-3.32 3.325 H3.692 c-1.836 0-3.32-1.488-3.32-3.324 S1.855.372 3.692.371z" fill="none" stroke="#fff" stroke-width=".369"/><g fill="#fff"><path d="m4.738 3.691a1.047 1.047 0 1 1-2.094 0 1.047 1.047 0 0 1 2.094 0"/><path d="m9.047 3.691a1.047 1.047 0 1 1-2.094 0 1.047 1.047 0 0 1 2.094 0"/><path d="m13.356 3.691a1.047 1.047 0 1 1-2.094 0 1.047 1.047 0 0 1 2.094 0"/><path d="m17.665 3.691a1.047 1.047 0 1 1-2.094 0 1.047 1.047 0 0 1 2.094 0"/><path d="m21.974 3.691a1.047 1.047 0 1 1-2.094 0 1.047 1.047 0 0 1 2.094 0"/></g><path d="m20.151 2.644h1.5514c0.15045 0 0.27131 0.121 0.27131 0.26915v1.5557c0 0.15062-0.12086 0.27163-0.27131 0.27163h-1.5514c-0.15046 0-0.27131-0.121-0.27131-0.27163v-1.5557c0-0.14816 0.12086-0.26915 0.27131-0.26915z" fill="#333" stroke-width=".63177"/></svg>
