<?xml version="1.0" encoding="UTF-8"?>
<svg version="1.1" width="24.618" height="7.385" viewBox="0 0 24.618 7.385" xmlns="http://www.w3.org/2000/svg"><path d="m3.691 0h17.236a3.69 3.69 0 1 1 0 7.383h-17.236a3.69 3.69 0 1 1 0-7.383"/><path d="M3.692.371 h17.235 c1.836 0 3.32 1.485 3.32 3.32s-1.484 3.325-3.32 3.325 H3.692 c-1.836 0-3.32-1.488-3.32-3.324 S1.855.372 3.692.371z" fill="none" stroke="#fff" stroke-width=".369"/><path d="m4.738 3.691a1.047 1.047 0 1 1-2.094 0 1.047 1.047 0 0 1 2.094 0m4.309 0a1.047 1.047 0 1 1-2.094 0 1.047 1.047 0 0 1 2.094 0m4.309 0a1.047 1.047 0 1 1-2.094 0 1.047 1.047 0 0 1 2.094 0m4.309 0a1.047 1.047 0 1 1-2.094 0 1.047 1.047 0 0 1 2.094 0m4.309 0a1.047 1.047 0 1 1-2.094 0 1.047 1.047 0 0 1 2.094 0" fill="#fff"/></svg>
