<?xml version="1.0" encoding="UTF-8"?>
<svg version="1.1" width="23.515" height="9.344" viewBox="0 0 23.515 9.344" xmlns="http://www.w3.org/2000/svg"><path d="m23.515 4.6719c0 2.5781-2.0476 4.6719-4.5775 4.6719h-14.36c-2.5298 0-4.5775-2.0938-4.5775-4.6719 0-2.582 2.0476-4.6719 4.5775-4.6719h14.36c2.5298 0 4.5775 2.0898 4.5775 4.6719z" stroke-width=".98985"/><path d="m23.273 4.6719c0 2.4453-1.9844 4.4297-4.4297 4.4297h-14.172c-2.4492 0-4.4297-1.9844-4.4297-4.4297s1.9805-4.4297 4.4297-4.4297h14.172c2.4453 0 4.4297 1.9844 4.4297 4.4297z" fill="#fff"/><path d="m22.8 4.6641c0 2.1797-1.7695 3.9453-3.9492 3.9453h-14.172c-2.1797 0-3.9492-1.7656-3.9492-3.9453s1.7695-3.9492 3.9492-3.9492h14.172c2.1797 0 3.9492 1.7695 3.9492 3.9492z"/><g fill="#fff"><path d="m11.765 6.0469c-0.75781 0-1.3711-0.61328-1.3711-1.3672 0-0.75781 0.61328-1.3711 1.3711-1.3711 0.75391 0 1.3672 0.61328 1.3672 1.3711 0 0.75391-0.61328 1.3672-1.3672 1.3672z"/><path d="m8.222 6.0469c-0.75781 0-1.3711-0.61328-1.3711-1.3672 0-0.75781 0.61328-1.3711 1.3711-1.3711 0.75391 0 1.3672 0.61328 1.3672 1.3711 0 0.75391-0.61328 1.3672-1.3672 1.3672z"/><path d="m4.679 6.0469c-0.75781 0-1.3711-0.61328-1.3711-1.3672 0-0.75781 0.61328-1.3711 1.3711-1.3711 0.75391 0 1.3672 0.61328 1.3672 1.3711 0 0.75391-0.61328 1.3672-1.3672 1.3672z"/><path d="m15.308 6.0469c-0.75391 0-1.3672-0.61328-1.3672-1.3672 0-0.75781 0.61328-1.3711 1.3672-1.3711 0.75781 0 1.3711 0.61328 1.3711 1.3711 0 0.75391-0.61328 1.3672-1.3711 1.3672z"/><path d="m18.851 6.0469c-0.75391 0-1.3672-0.61328-1.3672-1.3672 0-0.75781 0.61328-1.3711 1.3672-1.3711 0.75781 0 1.3711 0.61328 1.3711 1.3711 0 0.75391-0.61328 1.3672-1.3711 1.3672z"/></g></svg>
