<?xml version="1.0" encoding="UTF-8"?>
<svg version="1.1" width="11.048" height="20" viewBox="0 0 11.048 20" xmlns="http://www.w3.org/2000/svg"><g><path d="m5.5234 0c3.0508 0 5.5234 2.4727 5.5234 5.5234v8.9531c0 3.0508-2.4727 5.5234-5.5234 5.5234-3.0508 0-5.5234-2.4727-5.5234-5.5234v-8.9531c0-3.0508 2.4727-5.5234 5.5234-5.5234z"/><path d="m0 8.9531h11.047v11.047h-11.047z"/><path d="m5.5234 0.28516c2.8945 0 5.2383 2.3477 5.2383 5.2383v8.3828c0 2.8906-2.3438 5.2383-5.2383 5.2383-2.8906 0-5.2383-2.3477-5.2383-5.2383v-8.3828c0-2.8906 2.3477-5.2383 5.2383-5.2383z" fill="#fff"/><path d="m5.5156 0.84766c2.5742 0 4.6641 2.0898 4.6641 4.668v8.3789c0 2.5781-2.0898 4.668-4.6641 4.668-2.5781 0-4.668-2.0898-4.668-4.668v-8.3789c0-2.5781 2.0898-4.668 4.668-4.668z"/><path d="m7.1523 5.5156c0 0.89453-0.72656 1.6172-1.6172 1.6172-0.89453 0-1.6211-0.72266-1.6211-1.6172s0.72656-1.6211 1.6211-1.6211c0.89062 0 1.6172 0.72656 1.6172 1.6211z" fill="#0f0"/><path d="m7.1523 9.7031c0 0.89453-0.72656 1.6211-1.6172 1.6211-0.89453 0-1.6211-0.72656-1.6211-1.6211 0-0.89062 0.72656-1.6172 1.6211-1.6172 0.89062 0 1.6172 0.72656 1.6172 1.6172z" fill="#333"/><path d="m7.1523 13.895c0 0.89453-0.72656 1.6211-1.6172 1.6211-0.89453 0-1.6211-0.72656-1.6211-1.6211s0.72656-1.6172 1.6211-1.6172c0.89062 0 1.6172 0.72266 1.6172 1.6172z" fill="#333"/></g></svg>
