<?xml version="1.0" encoding="UTF-8"?>
<svg xmlns="http://www.w3.org/2000/svg" xmlns:xlink="http://www.w3.org/1999/xlink" width="16" height="23.187004" viewBox="0 0 16 23.187004">
<path fill-rule="nonzero" fill="rgb(0%, 0%, 0%)" fill-opacity="1" d="M 0 15.320312 L 7.863281 15.320312 L 7.863281 23.1875 L 0 23.1875 Z M 0 15.320312 "/>
<path fill-rule="nonzero" fill="rgb(0%, 0%, 0%)" fill-opacity="1" d="M 0 15.320312 L 7.863281 15.320312 L 7.863281 23.1875 L 0 23.1875 Z M 0 15.320312 "/>
<path fill-rule="nonzero" fill="rgb(0%, 0%, 0%)" fill-opacity="1" d="M 3.933594 0 L 12.070312 0 C 14.238281 0 16 1.761719 16 3.933594 C 16 6.101562 14.238281 7.863281 12.070312 7.863281 L 3.933594 7.863281 C 1.761719 7.863281 0 6.101562 0 3.933594 C 0 1.761719 1.761719 0 3.933594 0 Z M 3.933594 0 "/>
<path fill-rule="nonzero" fill="rgb(0%, 0%, 0%)" fill-opacity="1" d="M 3.933594 0 C 6.101562 0 7.863281 1.761719 7.863281 3.933594 L 7.863281 19.253906 C 7.863281 21.425781 6.101562 23.1875 3.933594 23.1875 C 1.761719 23.1875 0 21.425781 0 19.253906 L 0 3.933594 C 0 1.761719 1.761719 0 3.933594 0 Z M 3.933594 0 "/>
<path fill-rule="nonzero" fill="rgb(0%, 0%, 0%)" fill-opacity="1" d="M 0 15.320312 L 7.863281 15.320312 L 7.863281 23.1875 L 0 23.1875 Z M 0 15.320312 "/>
<path fill-rule="nonzero" fill="rgb(100%, 100%, 100%)" fill-opacity="1" d="M 3.933594 0.203125 C 5.992188 0.203125 7.660156 1.871094 7.660156 3.933594 L 7.660156 18.847656 C 7.660156 20.90625 5.992188 22.574219 3.933594 22.574219 C 1.871094 22.574219 0.203125 20.90625 0.203125 18.847656 L 0.203125 3.933594 C 0.203125 1.871094 1.871094 0.203125 3.933594 0.203125 Z M 3.933594 0.203125 "/>
<path fill-rule="nonzero" fill="rgb(100%, 100%, 100%)" fill-opacity="1" d="M 3.933594 0.203125 L 12.070312 0.203125 C 14.125 0.203125 15.796875 1.871094 15.796875 3.933594 C 15.796875 5.992188 14.125 7.660156 12.070312 7.660156 L 3.933594 7.660156 C 1.871094 7.660156 0.203125 5.992188 0.203125 3.933594 C 0.203125 1.871094 1.871094 0.203125 3.933594 0.203125 Z M 3.933594 0.203125 "/>
<path fill-rule="nonzero" fill="rgb(0%, 0%, 0%)" fill-opacity="1" d="M 3.925781 0.605469 C 5.757812 0.605469 7.246094 2.089844 7.246094 3.925781 L 7.246094 18.839844 C 7.246094 20.679688 5.757812 22.164062 3.925781 22.164062 C 2.089844 22.164062 0.605469 20.679688 0.605469 18.839844 L 0.605469 3.925781 C 0.605469 2.089844 2.089844 0.605469 3.925781 0.605469 Z M 3.925781 0.605469 "/>
<path fill-rule="nonzero" fill="rgb(0%, 100%, 0%)" fill-opacity="1" d="M 5.089844 12.875 C 5.089844 13.511719 4.574219 14.027344 3.941406 14.027344 C 3.300781 14.027344 2.785156 13.511719 2.785156 12.875 C 2.785156 12.238281 3.300781 11.722656 3.941406 11.722656 C 4.574219 11.722656 5.089844 12.238281 5.089844 12.875 Z M 5.089844 12.875 "/>
<path fill-rule="nonzero" fill="rgb(20%, 20%, 20%)" fill-opacity="1" d="M 5.089844 15.859375 C 5.089844 16.496094 4.574219 17.007812 3.941406 17.007812 C 3.300781 17.007812 2.785156 16.496094 2.785156 15.859375 C 2.785156 15.21875 3.300781 14.707031 3.941406 14.707031 C 4.574219 14.707031 5.089844 15.21875 5.089844 15.859375 Z M 5.089844 15.859375 "/>
<path fill-rule="nonzero" fill="rgb(20%, 20%, 20%)" fill-opacity="1" d="M 5.089844 18.839844 C 5.089844 19.476562 4.574219 19.996094 3.941406 19.996094 C 3.300781 19.996094 2.785156 19.476562 2.785156 18.839844 C 2.785156 18.207031 3.300781 17.6875 3.941406 17.6875 C 4.574219 17.6875 5.089844 18.207031 5.089844 18.839844 Z M 5.089844 18.839844 "/>
<path fill-rule="nonzero" fill="rgb(20%, 20%, 20%)" fill-opacity="1" d="M 5.089844 9.890625 C 5.089844 10.527344 4.574219 11.042969 3.941406 11.042969 C 3.300781 11.042969 2.785156 10.527344 2.785156 9.890625 C 2.785156 9.253906 3.300781 8.738281 3.941406 8.738281 C 4.574219 8.738281 5.089844 9.253906 5.089844 9.890625 Z M 5.089844 9.890625 "/>
<path fill-rule="nonzero" fill="rgb(0%, 0%, 0%)" fill-opacity="1" d="M 3.933594 0.613281 L 12.070312 0.613281 C 13.902344 0.613281 15.390625 2.097656 15.390625 3.933594 C 15.390625 5.765625 13.902344 7.253906 12.070312 7.253906 L 3.933594 7.253906 C 2.097656 7.253906 0.613281 5.765625 0.613281 3.933594 C 0.613281 2.097656 2.097656 0.613281 3.933594 0.613281 Z M 3.933594 0.613281 "/>
<path fill-rule="nonzero" fill="rgb(20%, 20%, 20%)" fill-opacity="1" d="M 5.089844 6.910156 C 5.089844 7.542969 4.574219 8.0625 3.941406 8.0625 C 3.300781 8.0625 2.785156 7.542969 2.785156 6.910156 C 2.785156 6.273438 3.300781 5.753906 3.941406 5.753906 C 4.574219 5.753906 5.089844 6.273438 5.089844 6.910156 Z M 5.089844 6.910156 "/>
<path fill-rule="nonzero" fill="rgb(20%, 20%, 20%)" fill-opacity="1" d="M 5.089844 3.925781 C 5.089844 4.5625 4.574219 5.078125 3.941406 5.078125 C 3.300781 5.078125 2.785156 4.5625 2.785156 3.925781 C 2.785156 3.289062 3.300781 2.773438 3.941406 2.773438 C 4.574219 2.773438 5.089844 3.289062 5.089844 3.925781 Z M 5.089844 3.925781 "/>
<path fill-rule="nonzero" fill="rgb(20%, 20%, 20%)" fill-opacity="1" d="M 13.226562 3.925781 C 13.226562 4.5625 12.710938 5.078125 12.078125 5.078125 C 11.4375 5.078125 10.921875 4.5625 10.921875 3.925781 C 10.921875 3.289062 11.4375 2.773438 12.078125 2.773438 C 12.710938 2.773438 13.226562 3.289062 13.226562 3.925781 Z M 13.226562 3.925781 "/>
<path fill-rule="nonzero" fill="rgb(20%, 20%, 20%)" fill-opacity="1" d="M 3.082031 8.738281 L 4.792969 8.738281 C 4.957031 8.738281 5.089844 8.871094 5.089844 9.035156 L 5.089844 10.746094 C 5.089844 10.914062 4.957031 11.046875 4.792969 11.046875 L 3.082031 11.046875 C 2.917969 11.046875 2.785156 10.914062 2.785156 10.746094 L 2.785156 9.035156 C 2.785156 8.871094 2.917969 8.738281 3.082031 8.738281 Z M 3.082031 8.738281 "/>
<path fill-rule="nonzero" fill="rgb(20%, 20%, 20%)" fill-opacity="1" d="M 3.082031 5.753906 L 4.792969 5.753906 C 4.957031 5.753906 5.089844 5.886719 5.089844 6.050781 L 5.089844 7.761719 C 5.089844 7.929688 4.957031 8.0625 4.792969 8.0625 L 3.082031 8.0625 C 2.917969 8.0625 2.785156 7.929688 2.785156 7.761719 L 2.785156 6.050781 C 2.785156 5.886719 2.917969 5.753906 3.082031 5.753906 Z M 3.082031 5.753906 "/>
</svg>
