<?xml version="1.0" encoding="UTF-8"?>
<svg xmlns="http://www.w3.org/2000/svg" xmlns:xlink="http://www.w3.org/1999/xlink" width="16" height="16" viewBox="0 0 16 16">
<rect x="-1.6" y="-1.6" width="19.2" height="19.2" fill="rgb(0%, 0%, 0%)" fill-opacity="1"/>
<path fill-rule="nonzero" fill="rgb(100%, 100%, 100%)" fill-opacity="1" d="M 0.160156 0.160156 L 15.839844 0.160156 L 15.839844 15.839844 L 0.160156 15.839844 Z M 0.160156 0.160156 "/>
<path fill-rule="nonzero" fill="rgb(0%, 0%, 0%)" fill-opacity="1" d="M 1.121094 1.121094 L 14.878906 1.121094 L 14.878906 14.878906 L 1.121094 14.878906 Z M 1.121094 1.121094 "/>
<path fill-rule="nonzero" fill="rgb(100%, 100%, 100%)" fill-opacity="1" d="M 3.046875 2.601562 L 12.9375 2.601562 L 12.9375 5.023438 L 3.046875 5.023438 Z M 3.046875 2.601562 "/>
<path fill-rule="nonzero" fill="rgb(100%, 100%, 100%)" fill-opacity="1" d="M 3.054688 10.976562 L 12.949219 10.976562 L 12.949219 13.398438 L 3.054688 13.398438 Z M 3.054688 10.976562 "/>
<path fill-rule="nonzero" fill="rgb(100%, 100%, 100%)" fill-opacity="1" d="M 9.652344 5.023438 L 12.9375 5.023438 L 12.941406 5.425781 L 6.328125 10.976562 L 3.054688 10.976562 L 3.042969 10.574219 Z M 9.652344 5.023438 "/>
<path fill-rule="nonzero" fill="rgb(100%, 100%, 100%)" fill-opacity="1" d="M 9.652344 2.601562 L 12.941406 2.601562 L 12.941406 5.425781 L 9.652344 5.425781 Z M 9.652344 2.601562 "/>
<path fill-rule="nonzero" fill="rgb(100%, 100%, 100%)" fill-opacity="1" d="M 3.042969 10.574219 L 6.328125 10.574219 L 6.328125 13.347656 L 3.042969 13.347656 Z M 3.042969 10.574219 "/>
</svg>
