<?xml version="1.0" encoding="UTF-8"?>
<svg xmlns="http://www.w3.org/2000/svg" xmlns:xlink="http://www.w3.org/1999/xlink" width="18" height="18" viewBox="0 0 18 18">
<rect x="-1.8" y="-1.8" width="21.6" height="21.6" fill="rgb(0%, 0%, 0%)" fill-opacity="1"/>
<path fill-rule="nonzero" fill="rgb(100%, 100%, 100%)" fill-opacity="1" d="M 0.179688 0.179688 L 17.820312 0.179688 L 17.820312 17.820312 L 0.179688 17.820312 Z M 0.179688 0.179688 "/>
<path fill-rule="nonzero" fill="rgb(0%, 0%, 0%)" fill-opacity="1" d="M 1.261719 1.261719 L 16.738281 1.261719 L 16.738281 16.738281 L 1.261719 16.738281 Z M 1.261719 1.261719 "/>
<path fill-rule="nonzero" fill="rgb(100%, 100%, 100%)" fill-opacity="1" d="M 3.425781 2.925781 L 14.554688 2.925781 L 14.554688 5.652344 L 3.425781 5.652344 Z M 3.425781 2.925781 "/>
<path fill-rule="nonzero" fill="rgb(100%, 100%, 100%)" fill-opacity="1" d="M 3.4375 12.347656 L 14.566406 12.347656 L 14.566406 15.074219 L 3.4375 15.074219 Z M 3.4375 12.347656 "/>
<path fill-rule="nonzero" fill="rgb(100%, 100%, 100%)" fill-opacity="1" d="M 10.859375 5.652344 L 14.554688 5.652344 L 14.558594 6.105469 L 7.121094 12.347656 L 3.4375 12.347656 L 3.421875 11.894531 Z M 10.859375 5.652344 "/>
<path fill-rule="nonzero" fill="rgb(100%, 100%, 100%)" fill-opacity="1" d="M 10.859375 2.925781 L 14.558594 2.925781 L 14.558594 6.105469 L 10.859375 6.105469 Z M 10.859375 2.925781 "/>
<path fill-rule="nonzero" fill="rgb(100%, 100%, 100%)" fill-opacity="1" d="M 3.421875 11.894531 L 7.121094 11.894531 L 7.121094 15.015625 L 3.421875 15.015625 Z M 3.421875 11.894531 "/>
</svg>
