<?xml version="1.0" encoding="UTF-8"?>
<svg xmlns="http://www.w3.org/2000/svg" xmlns:xlink="http://www.w3.org/1999/xlink" width="18" height="18" viewBox="0 0 18 18">
<rect x="-1.8" y="-1.8" width="21.6" height="21.6" fill="rgb(0%, 0%, 0%)" fill-opacity="1"/>
<path fill-rule="nonzero" fill="rgb(100%, 100%, 100%)" fill-opacity="1" d="M 0.179688 0.179688 L 17.820312 0.179688 L 17.820312 17.820312 L 0.179688 17.820312 Z M 0.179688 0.179688 "/>
<path fill-rule="nonzero" fill="rgb(0%, 0%, 0%)" fill-opacity="1" d="M 1.261719 1.261719 L 16.738281 1.261719 L 16.738281 16.738281 L 1.261719 16.738281 Z M 1.261719 1.261719 "/>
<path fill-rule="nonzero" fill="rgb(100%, 100%, 100%)" fill-opacity="1" d="M 3.425781 15.066406 L 3.425781 2.925781 L 10.671875 2.925781 C 11.421875 2.925781 14.597656 3.527344 14.597656 6.988281 C 14.597656 10.097656 12.121094 10.785156 12.121094 10.785156 L 14.808594 15.078125 L 11.546875 15.078125 L 9.027344 11.089844 L 6.269531 11.09375 L 6.269531 15.074219 C 6.269531 15.074219 4.441406 15.0625 3.425781 15.066406 Z M 3.425781 15.066406 "/>
<path fill-rule="nonzero" fill="rgb(0%, 0%, 0%)" fill-opacity="1" d="M 6.273438 8.34375 L 6.273438 5.652344 L 10.675781 5.652344 C 10.9375 5.652344 11.65625 6.03125 11.65625 6.988281 C 11.65625 7.945312 10.984375 8.351562 10.675781 8.351562 C 10.363281 8.351562 6.273438 8.34375 6.273438 8.34375 Z M 6.273438 8.34375 "/>
</svg>
