<?xml version="1.0" encoding="UTF-8" standalone="no"?>
<svg
   width="16"
   height="16"
   viewBox="0 0 16 16"
   version="1.1"
   id="svg1208"
   sodipodi:docname="TIV-distance-110-sign.svg"
   inkscape:version="1.2.2 (b0a8486541, 2022-12-01)"
   xmlns:inkscape="http://www.inkscape.org/namespaces/inkscape"
   xmlns:sodipodi="http://sodipodi.sourceforge.net/DTD/sodipodi-0.dtd"
   xmlns="http://www.w3.org/2000/svg"
   xmlns:svg="http://www.w3.org/2000/svg">
  <defs
     id="defs1212" />
  <sodipodi:namedview
     id="namedview1210"
     pagecolor="#ffffff"
     bordercolor="#666666"
     borderopacity="1.0"
     inkscape:showpageshadow="2"
     inkscape:pageopacity="0.0"
     inkscape:pagecheckerboard="0"
     inkscape:deskcolor="#d1d1d1"
     showgrid="false"
     inkscape:zoom="18.592801"
     inkscape:cx="8.4172362"
     inkscape:cy="15.785679"
     inkscape:window-width="1920"
     inkscape:window-height="1008"
     inkscape:window-x="0"
     inkscape:window-y="0"
     inkscape:window-maximized="1"
     inkscape:current-layer="svg1208" />
  <path
     fill-rule="nonzero"
     fill="#ffffff"
     fill-opacity="1"
     d="M 0,0 H 16 V 16 H 0 Z m 0,0"
     id="path1184" />
  <path
     fill-rule="nonzero"
     fill="#000000"
     fill-opacity="1"
     d="M 0.160156,0.160156 H 15.839844 V 15.839844 H 0.160156 Z m 0,0"
     id="path1186" />
  <path
     fill-rule="nonzero"
     fill="#ffffff"
     fill-opacity="1"
     d="M 1.121094,1.121094 H 14.878906 V 14.878906 H 1.121094 Z m 0,0"
     id="path1188" />
  <path
     fill-rule="nonzero"
     fill="#000000"
     fill-opacity="1"
     d="M 2.578125,6.988281 V 6.308594 C 2.894531,6.292969 3.117188,6.273438 3.242188,6.246094 3.445312,6.199219 3.609375,6.109375 3.734375,5.976562 3.820312,5.886719 3.886719,5.765625 3.929688,5.613281 3.957031,5.519531 3.96875,5.453125 3.96875,5.410156 H 4.800781 V 10.5 H 3.777344 V 6.988281 Z m 3.605469,0 V 6.308594 C 6.5,6.292969 6.722656,6.273438 6.847656,6.246094 7.050781,6.199219 7.214844,6.109375 7.339844,5.976562 7.425781,5.886719 7.492188,5.765625 7.535156,5.613281 7.5625,5.519531 7.574219,5.453125 7.574219,5.410156 H 8.40625 V 10.5 H 7.382812 V 6.988281 Z m 4.75,1.015625 c 0,0.585938 0.04687,1.03125 0.140625,1.34375 0.09766,0.308594 0.292969,0.464844 0.589843,0.464844 0.296876,0 0.492188,-0.15625 0.585938,-0.464844 0.09375,-0.3125 0.140625,-0.757812 0.140625,-1.34375 0,-0.613281 -0.04687,-1.066406 -0.140625,-1.363281 -0.09375,-0.292969 -0.289062,-0.441406 -0.585938,-0.441406 -0.296874,0 -0.492187,0.148437 -0.589843,0.441406 -0.09375,0.296875 -0.140625,0.75 -0.140625,1.363281 z M 11.664062,5.375 c 0.648438,0 1.105469,0.226562 1.367188,0.683594 0.257812,0.457031 0.390625,1.105468 0.390625,1.945312 0,0.839844 -0.132813,1.488282 -0.390625,1.941406 C 12.769531,10.398438 12.3125,10.625 11.664062,10.625 11.015625,10.625 10.5625,10.398438 10.300781,9.945312 10.039062,9.492188 9.910156,8.84375 9.910156,8.003906 c 0,-0.839844 0.128906,-1.488281 0.390625,-1.945312 C 10.5625,5.601562 11.015625,5.375 11.664062,5.375 Z M 2.082031,4.964844"
     id="path1206" />
</svg>
