<?xml version="1.0" encoding="UTF-8" standalone="no"?>
<svg
   width="16"
   height="16"
   viewBox="0 0 16 16"
   version="1.1"
   id="svg1502"
   sodipodi:docname="TIV-distance-130-sign.svg"
   inkscape:version="1.2.2 (b0a8486541, 2022-12-01)"
   xmlns:inkscape="http://www.inkscape.org/namespaces/inkscape"
   xmlns:sodipodi="http://sodipodi.sourceforge.net/DTD/sodipodi-0.dtd"
   xmlns="http://www.w3.org/2000/svg"
   xmlns:svg="http://www.w3.org/2000/svg">
  <defs
     id="defs1506" />
  <sodipodi:namedview
     id="namedview1504"
     pagecolor="#ffffff"
     bordercolor="#666666"
     borderopacity="1.0"
     inkscape:showpageshadow="2"
     inkscape:pageopacity="0.0"
     inkscape:pagecheckerboard="0"
     inkscape:deskcolor="#d1d1d1"
     showgrid="false"
     inkscape:zoom="18.592801"
     inkscape:cx="10.783744"
     inkscape:cy="14.817563"
     inkscape:window-width="1920"
     inkscape:window-height="1008"
     inkscape:window-x="0"
     inkscape:window-y="0"
     inkscape:window-maximized="1"
     inkscape:current-layer="svg1502" />
  <path
     fill-rule="nonzero"
     fill="#ffffff"
     fill-opacity="1"
     d="M 0,0 H 16 V 16 H 0 Z m 0,0"
     id="path1478" />
  <path
     fill-rule="nonzero"
     fill="#000000"
     fill-opacity="1"
     d="M 0.160156,0.160156 H 15.839844 V 15.839844 H 0.160156 Z m 0,0"
     id="path1480" />
  <path
     fill-rule="nonzero"
     fill="#ffffff"
     fill-opacity="1"
     d="M 1.121094,1.121094 H 14.878906 V 14.878906 H 1.121094 Z m 0,0"
     id="path1482" />
  <path
     fill-rule="nonzero"
     fill="#000000"
     fill-opacity="1"
     d="M 2.382812,6.988281 V 6.308594 C 2.699219,6.292969 2.917969,6.273438 3.046875,6.246094 3.246094,6.199219 3.410156,6.109375 3.539062,5.976562 3.625,5.886719 3.691406,5.765625 3.734375,5.613281 3.757812,5.519531 3.773438,5.453125 3.773438,5.410156 H 4.605469 V 10.5 H 3.578125 V 6.988281 Z M 7.054688,8.9375 c 0,0.203125 0.035156,0.371094 0.097656,0.507812 C 7.273438,9.6875 7.496094,9.8125 7.816406,9.8125 8.015625,9.8125 8.183594,9.746094 8.332031,9.609375 8.476562,9.476562 8.550781,9.28125 8.550781,9.027344 8.550781,8.695312 8.414062,8.472656 8.144531,8.359375 7.988281,8.296875 7.746094,8.261719 7.414062,8.261719 V 7.546875 C 7.738281,7.542969 7.964844,7.511719 8.09375,7.453125 8.316406,7.355469 8.429688,7.15625 8.429688,6.855469 8.429688,6.660156 8.371094,6.503906 8.257812,6.382812 8.144531,6.261719 7.984375,6.199219 7.777344,6.199219 7.542969,6.199219 7.367188,6.273438 7.257812,6.425781 7.144531,6.574219 7.09375,6.773438 7.097656,7.023438 H 6.164062 C 6.171875,6.769531 6.214844,6.53125 6.292969,6.304688 6.375,6.105469 6.503906,5.921875 6.679688,5.753906 6.8125,5.632812 6.964844,5.542969 7.148438,5.480469 7.328125,5.417969 7.546875,5.382812 7.808594,5.382812 c 0.488281,0 0.882812,0.128907 1.179687,0.378907 0.296875,0.25 0.449219,0.589843 0.449219,1.011719 0,0.300781 -0.089844,0.554687 -0.269531,0.757812 C 9.058594,7.660156 8.941406,7.75 8.816406,7.796875 8.910156,7.796875 9.039062,7.875 9.210938,8.03125 9.464844,8.269531 9.59375,8.589844 9.59375,9 c 0,0.429688 -0.148438,0.808594 -0.449219,1.136719 C 8.847656,10.464844 8.40625,10.625 7.820312,10.625 7.101562,10.625 6.597656,10.390625 6.316406,9.921875 6.171875,9.671875 6.089844,9.34375 6.070312,8.9375 Z m 4.074218,-0.933594 c 0,0.585938 0.04687,1.03125 0.144532,1.34375 0.09375,0.308594 0.292968,0.464844 0.589843,0.464844 0.296875,0 0.492188,-0.15625 0.582031,-0.464844 0.09375,-0.3125 0.140626,-0.757812 0.140626,-1.34375 0,-0.613281 -0.04688,-1.066406 -0.140626,-1.363281 -0.08984,-0.292969 -0.285156,-0.441406 -0.582031,-0.441406 -0.296875,0 -0.496093,0.148437 -0.589843,0.441406 -0.09766,0.296875 -0.144532,0.75 -0.144532,1.363281 z M 11.863281,5.375 c 0.648438,0 1.101563,0.226562 1.363281,0.683594 0.261719,0.457031 0.390626,1.105468 0.390626,1.945312 0,0.839844 -0.128907,1.488282 -0.390626,1.941406 C 12.964844,10.398438 12.511719,10.625 11.863281,10.625 11.214844,10.625 10.757812,10.398438 10.5,9.945312 10.238281,9.492188 10.105469,8.84375 10.105469,8.003906 10.105469,7.164062 10.238281,6.515625 10.5,6.058594 10.757812,5.601562 11.214844,5.375 11.863281,5.375 Z M 1.882812,4.964844"
     id="path1500" />
</svg>
