<?xml version="1.0" encoding="UTF-8" standalone="no"?>
<svg
   width="16"
   height="16"
   viewBox="0 0 16 16"
   version="1.1"
   id="svg1061"
   sodipodi:docname="TIV-distance-100-sign.svg"
   inkscape:version="1.2.2 (b0a8486541, 2022-12-01)"
   xmlns:inkscape="http://www.inkscape.org/namespaces/inkscape"
   xmlns:sodipodi="http://sodipodi.sourceforge.net/DTD/sodipodi-0.dtd"
   xmlns="http://www.w3.org/2000/svg"
   xmlns:svg="http://www.w3.org/2000/svg">
  <defs
     id="defs1065" />
  <sodipodi:namedview
     id="namedview1063"
     pagecolor="#ffffff"
     bordercolor="#666666"
     borderopacity="1.0"
     inkscape:showpageshadow="2"
     inkscape:pageopacity="0.0"
     inkscape:pagecheckerboard="0"
     inkscape:deskcolor="#d1d1d1"
     showgrid="false"
     inkscape:zoom="18.592801"
     inkscape:cx="4.5447697"
     inkscape:cy="13.90323"
     inkscape:window-width="1920"
     inkscape:window-height="1008"
     inkscape:window-x="0"
     inkscape:window-y="0"
     inkscape:window-maximized="1"
     inkscape:current-layer="svg1061" />
  <path
     fill-rule="nonzero"
     fill="#ffffff"
     fill-opacity="1"
     d="M 0,0 H 16 V 16 H 0 Z m 0,0"
     id="path1037" />
  <path
     fill-rule="nonzero"
     fill="#000000"
     fill-opacity="1"
     d="M 0.160156,0.160156 H 15.839844 V 15.839844 H 0.160156 Z m 0,0"
     id="path1039" />
  <path
     fill-rule="nonzero"
     fill="#ffffff"
     fill-opacity="1"
     d="M 1.121094,1.121094 H 14.878906 V 14.878906 H 1.121094 Z m 0,0"
     id="path1041" />
  <path
     fill-rule="nonzero"
     fill="#000000"
     fill-opacity="1"
     d="M 2.382812,6.988281 V 6.308594 C 2.699219,6.292969 2.917969,6.273438 3.046875,6.246094 3.246094,6.199219 3.410156,6.109375 3.539062,5.976562 3.625,5.886719 3.691406,5.765625 3.734375,5.613281 3.757812,5.519531 3.773438,5.453125 3.773438,5.410156 H 4.605469 V 10.5 H 3.578125 V 6.988281 Z m 4.746094,1.015625 c 0,0.585938 0.046875,1.03125 0.144532,1.34375 C 7.367188,9.65625 7.566406,9.8125 7.863281,9.8125 8.160156,9.8125 8.355469,9.65625 8.449219,9.347656 8.539062,9.035156 8.585938,8.589844 8.585938,8.003906 8.585938,7.390625 8.539062,6.9375 8.449219,6.640625 8.355469,6.347656 8.160156,6.199219 7.863281,6.199219 c -0.296875,0 -0.496093,0.148437 -0.589843,0.441406 -0.097657,0.296875 -0.144532,0.75 -0.144532,1.363281 z M 7.863281,5.375 c 0.648438,0 1.101563,0.226562 1.363281,0.683594 0.261719,0.457031 0.390626,1.105468 0.390626,1.945312 0,0.839844 -0.128907,1.488282 -0.390626,1.941406 C 8.964844,10.398438 8.511719,10.625 7.863281,10.625 7.214844,10.625 6.761719,10.398438 6.5,9.945312 6.238281,9.492188 6.109375,8.84375 6.109375,8.003906 6.109375,7.164062 6.238281,6.515625 6.5,6.058594 6.761719,5.601562 7.214844,5.375 7.863281,5.375 Z m 3.265625,2.628906 c 0,0.585938 0.04687,1.03125 0.144532,1.34375 0.09375,0.308594 0.292968,0.464844 0.589843,0.464844 0.296875,0 0.492188,-0.15625 0.582031,-0.464844 0.09375,-0.3125 0.140626,-0.757812 0.140626,-1.34375 0,-0.613281 -0.04688,-1.066406 -0.140626,-1.363281 -0.08984,-0.292969 -0.285156,-0.441406 -0.582031,-0.441406 -0.296875,0 -0.496093,0.148437 -0.589843,0.441406 -0.09766,0.296875 -0.144532,0.75 -0.144532,1.363281 z M 11.863281,5.375 c 0.648438,0 1.101563,0.226562 1.363281,0.683594 0.261719,0.457031 0.390626,1.105468 0.390626,1.945312 0,0.839844 -0.128907,1.488282 -0.390626,1.941406 C 12.964844,10.398438 12.511719,10.625 11.863281,10.625 11.214844,10.625 10.757812,10.398438 10.5,9.945312 10.238281,9.492188 10.105469,8.84375 10.105469,8.003906 10.105469,7.164062 10.238281,6.515625 10.5,6.058594 10.757812,5.601562 11.214844,5.375 11.863281,5.375 Z M 1.882812,4.964844"
     id="path1059" />
</svg>
