<?xml version="1.0" encoding="UTF-8" standalone="no"?>
<svg
   width="16"
   height="16"
   viewBox="0 0 16 16"
   version="1.1"
   id="svg473"
   sodipodi:docname="TIV-distance-60-sign.svg"
   inkscape:version="1.2.2 (b0a8486541, 2022-12-01)"
   xmlns:inkscape="http://www.inkscape.org/namespaces/inkscape"
   xmlns:sodipodi="http://sodipodi.sourceforge.net/DTD/sodipodi-0.dtd"
   xmlns="http://www.w3.org/2000/svg"
   xmlns:svg="http://www.w3.org/2000/svg">
  <defs
     id="defs477" />
  <sodipodi:namedview
     id="namedview475"
     pagecolor="#ffffff"
     bordercolor="#666666"
     borderopacity="1.0"
     inkscape:showpageshadow="2"
     inkscape:pageopacity="0.0"
     inkscape:pagecheckerboard="0"
     inkscape:deskcolor="#d1d1d1"
     showgrid="false"
     inkscape:zoom="18.592801"
     inkscape:cx="12.88133"
     inkscape:cy="15.086484"
     inkscape:window-width="1920"
     inkscape:window-height="1008"
     inkscape:window-x="0"
     inkscape:window-y="0"
     inkscape:window-maximized="1"
     inkscape:current-layer="svg473" />
  <path
     fill-rule="nonzero"
     fill="#ffffff"
     fill-opacity="1"
     d="M 0,0 H 16 V 16 H 0 Z m 0,0"
     id="path449" />
  <path
     fill-rule="nonzero"
     fill="#000000"
     fill-opacity="1"
     d="M 0.160156,0.160156 H 15.839844 V 15.839844 H 0.160156 Z m 0,0"
     id="path451" />
  <path
     fill-rule="nonzero"
     fill="#ffffff"
     fill-opacity="1"
     d="M 1.121094,1.121094 H 14.878906 V 14.878906 H 1.121094 Z m 0,0"
     id="path453" />
  <path
     fill-rule="nonzero"
     fill="#000000"
     fill-opacity="1"
     d="m 4.515625,9.125 c 0,0.347656 0.09375,0.628906 0.28125,0.851562 0.183594,0.21875 0.421875,0.328126 0.710937,0.328126 0.28125,0 0.503907,-0.105469 0.664063,-0.320313 C 6.332031,9.773438 6.414062,9.5 6.414062,9.160156 c 0,-0.375 -0.089843,-0.664062 -0.277343,-0.863281 C 5.953125,8.097656 5.730469,7.996094 5.460938,7.996094 c -0.214844,0 -0.40625,0.066406 -0.570313,0.195312 -0.25,0.191406 -0.375,0.503906 -0.375,0.933594 z M 6.300781,6.339844 C 6.300781,6.238281 6.257812,6.125 6.179688,6 6.042969,5.796875 5.835938,5.695312 5.558594,5.695312 5.148438,5.695312 4.855469,5.925781 4.679688,6.390625 4.585938,6.644531 4.519531,7.023438 4.484375,7.519531 4.640625,7.332031 4.824219,7.195312 5.03125,7.109375 5.238281,7.023438 5.476562,6.980469 5.742188,6.980469 c 0.574218,0 1.042968,0.195312 1.40625,0.582031 0.367187,0.390625 0.550781,0.886719 0.550781,1.492188 0,0.601562 -0.179688,1.132812 -0.539063,1.59375 -0.355468,0.457031 -0.914062,0.6875 -1.671875,0.6875 -0.8125,0 -1.410156,-0.339844 -1.796875,-1.019532 C 3.394531,9.785156 3.242188,9.101562 3.242188,8.261719 c 0,-0.492188 0.023437,-0.890625 0.0625,-1.199219 0.074218,-0.550781 0.21875,-1.007812 0.433593,-1.371094 0.183594,-0.3125 0.421875,-0.5625 0.722657,-0.75 C 4.757812,4.75 5.113281,4.65625 5.53125,4.65625 c 0.597656,0 1.074219,0.152344 1.429688,0.460938 0.355468,0.304687 0.554687,0.714843 0.601562,1.222656 z m 3.300781,1.664062 c 0,0.742188 0.0625,1.308594 0.183594,1.703125 0.121094,0.390625 0.371094,0.589844 0.746094,0.589844 0.378906,0 0.625,-0.199219 0.742188,-0.589844 0.117187,-0.394531 0.175781,-0.960937 0.175781,-1.703125 0,-0.777344 -0.05859,-1.351562 -0.175781,-1.726562 C 11.15625,5.90625 10.910156,5.71875 10.53125,5.71875 c -0.375,0 -0.625,0.1875 -0.746094,0.558594 -0.121094,0.375 -0.183594,0.949218 -0.183594,1.726562 z M 10.53125,4.671875 c 0.824219,0 1.398438,0.289063 1.730469,0.867187 0.328125,0.578126 0.496093,1.402344 0.496093,2.464844 0,1.066406 -0.167968,1.886719 -0.496093,2.460938 -0.332031,0.574218 -0.90625,0.863281 -1.730469,0.863281 -0.820312,0 -1.394531,-0.289063 -1.726562,-0.863281 C 8.472656,9.890625 8.308594,9.070312 8.308594,8.003906 c 0,-1.0625 0.164062,-1.886718 0.496094,-2.464844 C 9.136719,4.960938 9.710938,4.671875 10.53125,4.671875 Z M 2.957031,4.152344"
     id="path471" />
</svg>
