<?xml version="1.0" encoding="UTF-8" standalone="no"?>
<svg
   width="16"
   height="16"
   viewBox="0 0 16 16"
   version="1.1"
   id="svg179"
   sodipodi:docname="TIV-distance-40-sign.svg"
   inkscape:version="1.2.2 (b0a8486541, 2022-12-01)"
   xmlns:inkscape="http://www.inkscape.org/namespaces/inkscape"
   xmlns:sodipodi="http://sodipodi.sourceforge.net/DTD/sodipodi-0.dtd"
   xmlns="http://www.w3.org/2000/svg"
   xmlns:svg="http://www.w3.org/2000/svg">
  <defs
     id="defs183" />
  <sodipodi:namedview
     id="namedview181"
     pagecolor="#ffffff"
     bordercolor="#666666"
     borderopacity="1.0"
     inkscape:showpageshadow="2"
     inkscape:pageopacity="0.0"
     inkscape:pagecheckerboard="0"
     inkscape:deskcolor="#d1d1d1"
     showgrid="false"
     inkscape:zoom="18.592801"
     inkscape:cx="10.245901"
     inkscape:cy="14.602426"
     inkscape:window-width="1920"
     inkscape:window-height="1008"
     inkscape:window-x="0"
     inkscape:window-y="0"
     inkscape:window-maximized="1"
     inkscape:current-layer="svg179" />
  <path
     fill-rule="nonzero"
     fill="#ffffff"
     fill-opacity="1"
     d="M 0,0 H 16 V 16 H 0 Z m 0,0"
     id="path155" />
  <path
     fill-rule="nonzero"
     fill="#000000"
     fill-opacity="1"
     d="M 0.160156,0.160156 H 15.839844 V 15.839844 H 0.160156 Z m 0,0"
     id="path157" />
  <path
     fill-rule="nonzero"
     fill="#ffffff"
     fill-opacity="1"
     d="M 1.121094,1.121094 H 14.878906 V 14.878906 H 1.121094 Z m 0,0"
     id="path159" />
  <path
     fill-rule="nonzero"
     fill="#000000"
     fill-opacity="1"
     d="M 7.746094,9.777344 H 7.015625 v 1.390625 H 5.773438 V 9.777344 H 3.222656 V 8.671875 L 5.589844,4.757812 h 1.425781 v 4.03125 H 7.746094 Z M 5.773438,8.789062 V 6.003906 L 4.160156,8.789062 Z M 9.625,8.003906 c 0,0.742188 0.0625,1.308594 0.183594,1.703125 0.121094,0.390625 0.371094,0.589844 0.746094,0.589844 0.378906,0 0.625,-0.199219 0.742187,-0.589844 0.117187,-0.394531 0.175781,-0.960937 0.175781,-1.703125 0,-0.777344 -0.05859,-1.351562 -0.175781,-1.726562 C 11.179688,5.90625 10.933594,5.71875 10.554688,5.71875 c -0.375,0 -0.625,0.1875 -0.746094,0.558594 C 9.6875,6.652344 9.625,7.226562 9.625,8.003906 Z m 0.929688,-3.332031 c 0.820312,0 1.398437,0.289063 1.726562,0.867187 0.332031,0.578126 0.496094,1.402344 0.496094,2.464844 0,1.066406 -0.164063,1.886719 -0.496094,2.460938 -0.328125,0.574218 -0.90625,0.863281 -1.726562,0.863281 -0.820313,0 -1.398438,-0.289063 -1.726563,-0.863281 C 8.496094,9.890625 8.332031,9.070312 8.332031,8.003906 c 0,-1.0625 0.164063,-1.886718 0.496094,-2.464844 C 9.15625,4.960938 9.734375,4.671875 10.554688,4.671875 Z M 2.980469,4.152344"
     id="path177" />
</svg>
