<?xml version="1.0" encoding="UTF-8"?>
<svg xmlns="http://www.w3.org/2000/svg" xmlns:xlink="http://www.w3.org/1999/xlink" width="10" height="14.425782" viewBox="0 0 10 14.425782">
<path fill-rule="nonzero" fill="rgb(0%, 0%, 0%)" fill-opacity="0.960784" d="M 2.566406 0.046875 L 0 1.316406 L 0.0507812 13.097656 L 2.617188 14.425781 L 7.753906 14.425781 L 10 13.097656 L 9.949219 1.316406 L 7.703125 0 Z M 2.566406 0.046875 "/>
<path fill-rule="nonzero" fill="rgb(17.647059%, 17.647059%, 17.647059%)" fill-opacity="1" d="M 7.183594 4.625 C 7.183594 5.832031 6.203125 6.804688 5 6.804688 C 3.789062 6.804688 2.816406 5.832031 2.816406 4.625 C 2.816406 3.410156 3.789062 2.445312 5 2.445312 C 6.203125 2.445312 7.183594 3.410156 7.183594 4.625 Z M 7.183594 4.625 "/>
<path fill-rule="nonzero" fill="rgb(100%, 0%, 15.686275%)" fill-opacity="1" d="M 7.183594 9.796875 C 7.183594 10.996094 6.203125 11.976562 5 11.976562 C 3.789062 11.976562 2.816406 10.996094 2.816406 9.796875 C 2.816406 8.597656 3.789062 7.617188 5 7.617188 C 6.203125 7.617188 7.183594 8.597656 7.183594 9.796875 Z M 7.183594 9.796875 "/>
</svg>
