<?xml version="1.0" encoding="UTF-8"?>
<svg xmlns="http://www.w3.org/2000/svg" xmlns:xlink="http://www.w3.org/1999/xlink" width="10" height="5" viewBox="0 9.449219 10 14.396412">
<path fill-rule="nonzero" fill="rgb(0%, 0%, 0%)" fill-opacity="1" d="M 2.503906 9.449219 L 7.503906 9.449219 L 7.503906 14.394531 L 2.503906 14.394531 Z M 2.503906 9.449219 "/>
<path fill-rule="nonzero" fill="rgb(0%, 0%, 0%)" fill-opacity="1" d="M 10 11.921875 C 10 13.289062 8.878906 14.394531 7.503906 14.394531 C 6.121094 14.394531 5 13.289062 5 11.921875 C 5 10.554688 6.121094 9.449219 7.503906 9.449219 C 8.878906 9.449219 10 10.554688 10 11.921875 Z M 10 11.921875 "/>
<path fill-rule="nonzero" fill="rgb(100%, 100%, 100%)" fill-opacity="1" d="M 9.222656 11.925781 C 9.222656 12.871094 8.449219 13.644531 7.5 13.644531 C 6.550781 13.644531 5.777344 12.871094 5.777344 11.925781 C 5.777344 10.96875 6.550781 10.199219 7.5 10.199219 C 8.449219 10.199219 9.222656 10.96875 9.222656 11.925781 Z M 9.222656 11.925781 "/>
<path fill-rule="nonzero" fill="rgb(0%, 0%, 0%)" fill-opacity="1" d="M 5 11.921875 C 5 13.289062 3.878906 14.394531 2.503906 14.394531 C 1.121094 14.394531 0 13.289062 0 11.921875 C 0 10.554688 1.121094 9.449219 2.503906 9.449219 C 3.878906 9.449219 5 10.554688 5 11.921875 Z M 5 11.921875 "/>
<path fill-rule="nonzero" fill="rgb(100%, 100%, 100%)" fill-opacity="1" d="M 4.222656 11.925781 C 4.222656 12.871094 3.449219 13.644531 2.5 13.644531 C 1.550781 13.644531 0.777344 12.871094 0.777344 11.925781 C 0.777344 10.96875 1.550781 10.199219 2.5 10.199219 C 3.449219 10.199219 4.222656 10.96875 4.222656 11.925781 Z M 4.222656 11.925781 "/>
</svg>
