<?xml version="1.0" encoding="UTF-8"?>
<svg xmlns="http://www.w3.org/2000/svg" xmlns:xlink="http://www.w3.org/1999/xlink" width="11" height="5.44271" viewBox="0 0 11 5.44271">
<path fill-rule="nonzero" fill="rgb(0%, 0%, 0%)" fill-opacity="1" d="M 11 2.71875 C 11 4.222656 9.765625 5.445312 8.253906 5.445312 C 6.734375 5.445312 5.5 4.222656 5.5 2.71875 C 5.5 1.214844 6.734375 0 8.253906 0 C 9.765625 0 11 1.214844 11 2.71875 Z M 11 2.71875 "/>
<path fill-rule="nonzero" fill="rgb(32.941176%, 74.901961%, 100%)" fill-opacity="1" d="M 10.144531 2.722656 C 10.144531 3.769531 9.292969 4.621094 8.25 4.621094 C 7.207031 4.621094 6.355469 3.769531 6.355469 2.722656 C 6.355469 1.671875 7.207031 0.828125 8.25 0.828125 C 9.292969 0.828125 10.144531 1.671875 10.144531 2.722656 Z M 10.144531 2.722656 "/>
<path fill-rule="nonzero" fill="rgb(0%, 0%, 0%)" fill-opacity="1" d="M 5.5 2.71875 C 5.5 4.222656 4.265625 5.445312 2.753906 5.445312 C 1.234375 5.445312 0 4.222656 0 2.71875 C 0 1.214844 1.234375 0 2.753906 0 C 4.265625 0 5.5 1.214844 5.5 2.71875 Z M 5.5 2.71875 "/>
<path fill-rule="nonzero" fill="rgb(32.941176%, 74.901961%, 100%)" fill-opacity="1" d="M 4.644531 2.722656 C 4.644531 3.769531 3.792969 4.621094 2.75 4.621094 C 1.707031 4.621094 0.855469 3.769531 0.855469 2.722656 C 0.855469 1.671875 1.707031 0.828125 2.75 0.828125 C 3.792969 0.828125 4.644531 1.671875 4.644531 2.722656 Z M 4.644531 2.722656 "/>
</svg>
