<?xml version="1.0" encoding="UTF-8"?>
<svg xmlns="http://www.w3.org/2000/svg" xmlns:xlink="http://www.w3.org/1999/xlink" width="10" height="19.793252" viewBox="0 0 10 19.793252">
<path fill-rule="nonzero" fill="rgb(0%, 0%, 0%)" fill-opacity="1" stroke-width="0.217292" stroke-linecap="butt" stroke-linejoin="miter" stroke="rgb(100%, 100%, 100%)" stroke-opacity="1" stroke-miterlimit="4" d="M 8.889575 4.453575 C 8.889575 6.854358 6.921144 8.801699 4.502786 8.801699 C 2.073883 8.801699 0.108967 6.854358 0.108967 4.453575 C 0.108967 2.052792 2.073883 0.108967 4.502786 0.108967 C 6.921144 0.108967 8.889575 2.052792 8.889575 4.453575 Z M 8.889575 4.453575 " transform="matrix(1.111291, 0, 0, 1.111291, 0, 0)"/>
<path fill-rule="nonzero" fill="rgb(100%, 86.666667%, 0%)" fill-opacity="1" d="M 6.945312 4.953125 C 6.945312 6.019531 6.070312 6.894531 5 6.894531 C 3.929688 6.894531 3.054688 6.019531 3.054688 4.953125 C 3.054688 3.875 3.929688 3.007812 5 3.007812 C 6.070312 3.007812 6.945312 3.875 6.945312 4.953125 Z M 6.945312 4.953125 "/>
<path fill-rule="nonzero" fill="rgb(0%, 0%, 0%)" fill-opacity="1" stroke-width="0.217292" stroke-linecap="butt" stroke-linejoin="miter" stroke="rgb(100%, 100%, 100%)" stroke-opacity="1" stroke-miterlimit="4" d="M 8.889575 13.35018 C 8.889575 15.754478 6.921144 17.701819 4.502786 17.701819 C 2.073883 17.701819 0.108967 15.754478 0.108967 13.35018 C 0.108967 10.952913 2.073883 9.012602 4.502786 9.012602 C 6.921144 9.012602 8.889575 10.952913 8.889575 13.35018 Z M 8.889575 13.35018 " transform="matrix(1.111291, 0, 0, 1.111291, 0, 0)"/>
</svg>
