<?xml version="1.0" encoding="UTF-8"?>
<svg xmlns="http://www.w3.org/2000/svg" xmlns:xlink="http://www.w3.org/1999/xlink" width="9" height="27.005851" viewBox="0 0 9 27.005851">
<path fill-rule="nonzero" fill="rgb(0%, 0%, 0%)" fill-opacity="1" d="M 3.796875 21.128906 L 5.203125 21.128906 L 5.203125 23.589844 L 3.796875 23.589844 Z M 3.796875 21.128906 "/>
<path fill-rule="nonzero" fill="rgb(0%, 0%, 0%)" fill-opacity="1" d="M 3.796875 17.714844 L 5.203125 17.714844 L 5.203125 20.175781 L 3.796875 20.175781 Z M 3.796875 17.714844 "/>
<path fill-rule="nonzero" fill="rgb(100%, 100%, 100%)" fill-opacity="1" d="M 3.796875 20.078125 L 5.203125 20.078125 L 5.203125 21.128906 L 3.796875 21.128906 Z M 3.796875 20.078125 "/>
<path fill-rule="nonzero" fill="rgb(0%, 0%, 0%)" fill-opacity="1" d="M 3.796875 24.542969 L 5.203125 24.542969 L 5.203125 27.003906 L 3.796875 27.003906 Z M 3.796875 24.542969 "/>
<path fill-rule="nonzero" fill="rgb(100%, 100%, 100%)" fill-opacity="1" d="M 3.796875 23.492188 L 5.203125 23.492188 L 5.203125 24.542969 L 3.796875 24.542969 Z M 3.796875 23.492188 "/>
<path fill-rule="nonzero" fill="rgb(0%, 0%, 0%)" fill-opacity="1" stroke-width="0.19992" stroke-linecap="butt" stroke-linejoin="miter" stroke="rgb(100%, 100%, 100%)" stroke-opacity="1" stroke-miterlimit="4" d="M 8.179851 4.097114 C 8.179851 6.307399 6.368496 8.09719 4.143835 8.09719 C 1.908392 8.09719 0.100631 6.307399 0.100631 4.097114 C 0.100631 1.890423 1.908392 0.100631 4.143835 0.100631 C 6.368496 0.100631 8.179851 1.890423 8.179851 4.097114 Z M 8.179851 4.097114 " transform="matrix(1.086893, 0, 0, 1.086893, 0, 0)"/>
<path fill-rule="nonzero" fill="rgb(100%, 86.666667%, 0%)" fill-opacity="1" d="M 6.25 4.457031 C 6.25 5.417969 5.464844 6.203125 4.5 6.203125 C 3.535156 6.203125 2.75 5.417969 2.75 4.457031 C 2.75 3.488281 3.535156 2.707031 4.5 2.707031 C 5.464844 2.707031 6.25 3.488281 6.25 4.457031 Z M 6.25 4.457031 "/>
<path fill-rule="nonzero" fill="rgb(0%, 0%, 0%)" fill-opacity="1" stroke-width="0.19992" stroke-linecap="butt" stroke-linejoin="miter" stroke="rgb(100%, 100%, 100%)" stroke-opacity="1" stroke-miterlimit="4" d="M 8.179851 12.284153 C 8.179851 14.494438 6.368496 16.287824 4.143835 16.287824 C 1.908392 16.287824 0.100631 14.494438 0.100631 12.284153 C 0.100631 10.077462 1.908392 8.291264 4.143835 8.291264 C 6.368496 8.291264 8.179851 10.077462 8.179851 12.284153 Z M 8.179851 12.284153 " transform="matrix(1.086893, 0, 0, 1.086893, 0, 0)"/>
<path fill-rule="nonzero" fill="rgb(13.333333%, 100%, 0%)" fill-opacity="1" d="M 6.25 13.355469 C 6.25 14.324219 5.464844 15.105469 4.5 15.105469 C 3.535156 15.105469 2.75 14.324219 2.75 13.355469 C 2.75 12.390625 3.535156 11.605469 4.5 11.605469 C 5.464844 11.605469 6.25 12.390625 6.25 13.355469 Z M 6.25 13.355469 "/>
</svg>
