<?xml version="1.0" encoding="UTF-8"?>
<svg xmlns="http://www.w3.org/2000/svg" xmlns:xlink="http://www.w3.org/1999/xlink" width="10" height="9.899397" viewBox="0 0 10 9.899397">
<path fill-rule="nonzero" fill="rgb(0%, 0%, 0%)" fill-opacity="1" stroke-width="0.3" stroke-linecap="butt" stroke-linejoin="miter" stroke="rgb(100%, 100%, 100%)" stroke-opacity="1" stroke-miterlimit="4" d="M 12.274543 6.149405 C 12.274543 9.464357 9.556574 12.148351 6.217354 12.148351 C 2.863575 12.148351 0.150459 9.464357 0.150459 6.149405 C 0.150459 2.834453 2.863575 0.150459 6.217354 0.150459 C 9.556574 0.150459 12.274543 2.834453 12.274543 6.149405 Z M 12.274543 6.149405 " transform="matrix(0.804829, 0, 0, 0.804829, 0, 0)"/>
<path fill-rule="nonzero" fill="rgb(100%, 0%, 0%)" fill-opacity="1" d="M 6.945312 4.953125 C 6.945312 6.019531 6.070312 6.890625 5 6.890625 C 3.929688 6.890625 3.054688 6.019531 3.054688 4.953125 C 3.054688 3.875 3.929688 3.007812 5 3.007812 C 6.070312 3.007812 6.945312 3.875 6.945312 4.953125 Z M 6.945312 4.953125 "/>
</svg>
