<?xml version="1.0" encoding="UTF-8"?>
<svg xmlns="http://www.w3.org/2000/svg" xmlns:xlink="http://www.w3.org/1999/xlink" width="15" height="14.81758" viewBox="0 0 15 14.81758">
<path fill-rule="nonzero" fill="rgb(0%, 0%, 0%)" fill-opacity="1" d="M 15 3.710938 C 15 5.761719 13.320312 7.421875 11.253906 7.421875 C 9.179688 7.421875 7.5 5.761719 7.5 3.710938 C 7.5 1.660156 9.179688 0 11.253906 0 C 13.320312 0 15 1.660156 15 3.710938 Z M 15 3.710938 "/>
<path fill-rule="nonzero" fill="rgb(32.941176%, 74.901961%, 100%)" fill-opacity="1" d="M 13.835938 3.714844 C 13.835938 5.136719 12.675781 6.296875 11.25 6.296875 C 9.824219 6.296875 8.664062 5.136719 8.664062 3.714844 C 8.664062 2.28125 9.824219 1.128906 11.25 1.128906 C 12.675781 1.128906 13.835938 2.28125 13.835938 3.714844 Z M 13.835938 3.714844 "/>
<path fill-rule="nonzero" fill="rgb(0%, 0%, 0%)" fill-opacity="1" d="M 7.5 3.710938 C 7.5 5.761719 5.820312 7.421875 3.753906 7.421875 C 1.679688 7.421875 0 5.761719 0 3.710938 C 0 1.660156 1.679688 0 3.753906 0 C 5.820312 0 7.5 1.660156 7.5 3.710938 Z M 7.5 3.710938 "/>
<path fill-rule="nonzero" fill="rgb(32.941176%, 74.901961%, 100%)" fill-opacity="1" d="M 6.335938 3.714844 C 6.335938 5.136719 5.175781 6.296875 3.75 6.296875 C 2.324219 6.296875 1.164062 5.136719 1.164062 3.714844 C 1.164062 2.28125 2.324219 1.128906 3.75 1.128906 C 5.175781 1.128906 6.335938 2.28125 6.335938 3.714844 Z M 6.335938 3.714844 "/>
<path fill-rule="nonzero" fill="rgb(0%, 0%, 0%)" fill-opacity="1" d="M 3.753906 7.394531 L 11.253906 7.394531 L 11.253906 14.816406 L 3.753906 14.816406 Z M 3.753906 7.394531 "/>
<path fill-rule="nonzero" fill="rgb(0%, 0%, 0%)" fill-opacity="1" d="M 15 11.105469 C 15 13.15625 13.320312 14.816406 11.253906 14.816406 C 9.179688 14.816406 7.5 13.15625 7.5 11.105469 C 7.5 9.054688 9.179688 7.394531 11.253906 7.394531 C 13.320312 7.394531 15 9.054688 15 11.105469 Z M 15 11.105469 "/>
<path fill-rule="nonzero" fill="rgb(100%, 100%, 100%)" fill-opacity="1" d="M 13.835938 11.109375 C 13.835938 12.53125 12.675781 13.691406 11.25 13.691406 C 9.824219 13.691406 8.664062 12.53125 8.664062 11.109375 C 8.664062 9.675781 9.824219 8.519531 11.25 8.519531 C 12.675781 8.519531 13.835938 9.675781 13.835938 11.109375 Z M 13.835938 11.109375 "/>
<path fill-rule="nonzero" fill="rgb(0%, 0%, 0%)" fill-opacity="1" d="M 7.5 11.105469 C 7.5 13.15625 5.820312 14.816406 3.753906 14.816406 C 1.679688 14.816406 0 13.15625 0 11.105469 C 0 9.054688 1.679688 7.394531 3.753906 7.394531 C 5.820312 7.394531 7.5 9.054688 7.5 11.105469 Z M 7.5 11.105469 "/>
<path fill-rule="nonzero" fill="rgb(100%, 100%, 100%)" fill-opacity="1" d="M 6.335938 11.109375 C 6.335938 12.53125 5.175781 13.691406 3.75 13.691406 C 2.324219 13.691406 1.164062 12.53125 1.164062 11.109375 C 1.164062 9.675781 2.324219 8.519531 3.75 8.519531 C 5.175781 8.519531 6.335938 9.675781 6.335938 11.109375 Z M 6.335938 11.109375 "/>
</svg>
