<?xml version="1.0" encoding="UTF-8" standalone="no"?>
<svg
   width="15"
   height="24.298445"
   viewBox="0 0 15 24.298444"
   version="1.1"
   id="svg1994"
   sodipodi:docname="main-1v-AVV-AVA.svg"
   inkscape:version="1.2.2 (b0a8486541, 2022-12-01)"
   xmlns:inkscape="http://www.inkscape.org/namespaces/inkscape"
   xmlns:sodipodi="http://sodipodi.sourceforge.net/DTD/sodipodi-0.dtd"
   xmlns="http://www.w3.org/2000/svg"
   xmlns:svg="http://www.w3.org/2000/svg">
  <defs
     id="defs1998" />
  <sodipodi:namedview
     id="namedview1996"
     pagecolor="#ffffff"
     bordercolor="#666666"
     borderopacity="1.0"
     inkscape:showpageshadow="2"
     inkscape:pageopacity="0.0"
     inkscape:pagecheckerboard="0"
     inkscape:deskcolor="#d1d1d1"
     showgrid="false"
     inkscape:zoom="24.399136"
     inkscape:cx="9.2216378"
     inkscape:cy="6.4551465"
     inkscape:window-width="1920"
     inkscape:window-height="1128"
     inkscape:window-x="0"
     inkscape:window-y="0"
     inkscape:window-maximized="1"
     inkscape:current-layer="svg1994" />
  <path
     fill-rule="nonzero"
     fill="#000000"
     fill-opacity="1"
     stroke-width="0.217304"
     stroke-linecap="butt"
     stroke-linejoin="miter"
     stroke="#ffffff"
     stroke-opacity="1"
     stroke-miterlimit="4"
     d="m 11.890624,4.4524007 c 0,2.4023427 -1.9687493,4.3476551 -4.386718,4.3476551 -2.4296861,0 -4.3945297,-1.9453124 -4.3945297,-4.3476551 0,-2.3984364 1.9648436,-4.3437487 4.3945297,-4.3437487 2.4179687,0 4.386718,1.9453123 4.386718,4.3437487 z m 0,0"
     id="path1990" />
  <path
     fill-rule="nonzero"
     fill="#ff0000"
     fill-opacity="1"
     d="m 9.2500015,4.4563082 c 0,0.960938 -0.785156,1.746094 -1.75,1.746094 -0.964844,0 -1.75,-0.785156 -1.75,-1.746094 0,-0.96875 0.785156,-1.75 1.75,-1.75 0.964844,0 1.75,0.78125 1.75,1.75 z m 0,0"
     id="path1992" />
  <path
     fill-rule="nonzero"
     fill="#000000"
     fill-opacity="1"
     d="M 15,13.165633 C 15,15.216414 13.320312,16.87657 11.253906,16.87657 9.179688,16.87657 7.5,15.216414 7.5,13.165633 7.5,11.114851 9.179688,9.454695 11.253906,9.454695 13.320312,9.454695 15,11.114851 15,13.165633 Z m 0,0"
     id="path2" />
  <path
     fill-rule="nonzero"
     fill="#54bfff"
     fill-opacity="1"
     d="m 13.835938,13.169539 c 0,1.421875 -1.160157,2.582031 -2.585938,2.582031 -1.425781,0 -2.585938,-1.160156 -2.585938,-2.582031 0,-1.433594 1.160157,-2.585938 2.585938,-2.585938 1.425781,0 2.585938,1.152344 2.585938,2.585938 z m 0,0"
     id="path4" />
  <path
     fill-rule="nonzero"
     fill="#000000"
     fill-opacity="1"
     d="M 7.5,13.165633 C 7.5,15.216414 5.820312,16.87657 3.753906,16.87657 1.679688,16.87657 0,15.216414 0,13.165633 0,11.114851 1.679688,9.454695 3.753906,9.454695 5.820312,9.454695 7.5,11.114851 7.5,13.165633 Z m 0,0"
     id="path6" />
  <path
     fill-rule="nonzero"
     fill="#54bfff"
     fill-opacity="1"
     d="m 6.335938,13.169539 c 0,1.421875 -1.160157,2.582031 -2.585938,2.582031 -1.425781,0 -2.585938,-1.160156 -2.585938,-2.582031 0,-1.433594 1.160157,-2.585938 2.585938,-2.585938 1.425781,0 2.585938,1.152344 2.585938,2.585938 z m 0,0"
     id="path8" />
  <path
     fill-rule="nonzero"
     fill="#000000"
     fill-opacity="1"
     d="m 3.7539061,16.87657 h 7.4999999 v 7.421875 H 3.7539061 Z m 0,0"
     id="path392" />
  <path
     fill-rule="nonzero"
     fill="#000000"
     fill-opacity="1"
     d="m 15,20.587508 c 0,2.050781 -1.679688,3.710937 -3.746094,3.710937 -2.0742179,0 -3.7539059,-1.660156 -3.7539059,-3.710937 0,-2.050782 1.679688,-3.710938 3.7539059,-3.710938 2.066406,0 3.746094,1.660156 3.746094,3.710938 z m 0,0"
     id="path394" />
  <path
     fill-rule="nonzero"
     fill="#ffffff"
     fill-opacity="1"
     d="m 13.835938,20.591414 c 0,1.421875 -1.160157,2.582031 -2.585938,2.582031 -1.4257809,0 -2.5859379,-1.160156 -2.5859379,-2.582031 0,-1.433594 1.160157,-2.585938 2.5859379,-2.585938 1.425781,0 2.585938,1.152344 2.585938,2.585938 z m 0,0"
     id="path396" />
  <path
     fill-rule="nonzero"
     fill="#000000"
     fill-opacity="1"
     d="m 7.5000001,20.587508 c 0,2.050781 -1.679688,3.710937 -3.746094,3.710937 -2.074218,0 -3.75390599,-1.660156 -3.75390599,-3.710937 0,-2.050782 1.67968799,-3.710938 3.75390599,-3.710938 2.066406,0 3.746094,1.660156 3.746094,3.710938 z m 0,0"
     id="path398" />
  <path
     fill-rule="nonzero"
     fill="#ffffff"
     fill-opacity="1"
     d="m 6.3359381,20.591414 c 0,1.421875 -1.160157,2.582031 -2.585938,2.582031 -1.425781,0 -2.585938,-1.160156 -2.585938,-2.582031 0,-1.433594 1.160157,-2.585938 2.585938,-2.585938 1.425781,0 2.585938,1.152344 2.585938,2.585938 z m 0,0"
     id="path400" />
</svg>
