<?xml version="1.0" encoding="UTF-8"?>
<svg xmlns="http://www.w3.org/2000/svg" xmlns:xlink="http://www.w3.org/1999/xlink" width="15" height="16.87657" viewBox="0 0 15 16.87657">
<path fill-rule="nonzero" fill="rgb(0%, 0%, 0%)" fill-opacity="1" stroke-width="0.217304" stroke-linecap="butt" stroke-linejoin="miter" stroke="rgb(100%, 100%, 100%)" stroke-opacity="1" stroke-miterlimit="4" d="M 11.890625 4.453125 C 11.890625 6.855469 9.921875 8.800781 7.503906 8.800781 C 5.074219 8.800781 3.109375 6.855469 3.109375 4.453125 C 3.109375 2.054688 5.074219 0.109375 7.503906 0.109375 C 9.921875 0.109375 11.890625 2.054688 11.890625 4.453125 Z M 11.890625 4.453125 "/>
<path fill-rule="nonzero" fill="rgb(100%, 0%, 0%)" fill-opacity="1" d="M 9.25 4.457031 C 9.25 5.417969 8.464844 6.203125 7.5 6.203125 C 6.535156 6.203125 5.75 5.417969 5.75 4.457031 C 5.75 3.488281 6.535156 2.707031 7.5 2.707031 C 8.464844 2.707031 9.25 3.488281 9.25 4.457031 Z M 9.25 4.457031 "/>
<path fill-rule="nonzero" fill="rgb(0%, 0%, 0%)" fill-opacity="1" d="M 15 13.164062 C 15 15.214844 13.320312 16.875 11.253906 16.875 C 9.179688 16.875 7.5 15.214844 7.5 13.164062 C 7.5 11.113281 9.179688 9.453125 11.253906 9.453125 C 13.320312 9.453125 15 11.113281 15 13.164062 Z M 15 13.164062 "/>
<path fill-rule="nonzero" fill="rgb(32.941176%, 74.901961%, 100%)" fill-opacity="1" d="M 13.835938 13.167969 C 13.835938 14.589844 12.675781 15.75 11.25 15.75 C 9.824219 15.75 8.664062 14.589844 8.664062 13.167969 C 8.664062 11.734375 9.824219 10.582031 11.25 10.582031 C 12.675781 10.582031 13.835938 11.734375 13.835938 13.167969 Z M 13.835938 13.167969 "/>
<path fill-rule="nonzero" fill="rgb(0%, 0%, 0%)" fill-opacity="1" d="M 7.5 13.164062 C 7.5 15.214844 5.820312 16.875 3.753906 16.875 C 1.679688 16.875 0 15.214844 0 13.164062 C 0 11.113281 1.679688 9.453125 3.753906 9.453125 C 5.820312 9.453125 7.5 11.113281 7.5 13.164062 Z M 7.5 13.164062 "/>
<path fill-rule="nonzero" fill="rgb(32.941176%, 74.901961%, 100%)" fill-opacity="1" d="M 6.335938 13.167969 C 6.335938 14.589844 5.175781 15.75 3.75 15.75 C 2.324219 15.75 1.164062 14.589844 1.164062 13.167969 C 1.164062 11.734375 2.324219 10.582031 3.75 10.582031 C 5.175781 10.582031 6.335938 11.734375 6.335938 13.167969 Z M 6.335938 13.167969 "/>
</svg>
