<?xml version="1.0" encoding="UTF-8" standalone="no"?>
<svg
   width="15"
   height="41.941177"
   viewBox="0 0 15 41.941177"
   version="1.1"
   id="svg3712"
   sodipodi:docname="main-3v-AVV-AVA.svg"
   inkscape:version="1.2.2 (b0a8486541, 2022-12-01)"
   xmlns:inkscape="http://www.inkscape.org/namespaces/inkscape"
   xmlns:sodipodi="http://sodipodi.sourceforge.net/DTD/sodipodi-0.dtd"
   xmlns="http://www.w3.org/2000/svg"
   xmlns:svg="http://www.w3.org/2000/svg">
  <defs
     id="defs3716" />
  <sodipodi:namedview
     id="namedview3714"
     pagecolor="#ffffff"
     bordercolor="#666666"
     borderopacity="1.0"
     inkscape:showpageshadow="2"
     inkscape:pageopacity="0.0"
     inkscape:pagecheckerboard="0"
     inkscape:deskcolor="#d1d1d1"
     showgrid="false"
     inkscape:zoom="16.949933"
     inkscape:cx="-1.8289157"
     inkscape:cy="25.457327"
     inkscape:window-width="1920"
     inkscape:window-height="1128"
     inkscape:window-x="0"
     inkscape:window-y="0"
     inkscape:window-maximized="1"
     inkscape:current-layer="svg3712" />
  <path
     fill-rule="nonzero"
     fill="#000000"
     fill-opacity="1"
     stroke-width="0.217304"
     stroke-linecap="butt"
     stroke-linejoin="miter"
     stroke="#ffffff"
     stroke-opacity="1"
     stroke-miterlimit="4"
     d="m 11.890622,4.4524007 c 0,2.4023427 -1.9687494,4.3476551 -4.3867177,4.3476551 -2.4296861,0 -4.3945297,-1.9453124 -4.3945297,-4.3476551 0,-2.3984364 1.9648436,-4.3437487 4.3945297,-4.3437487 2.4179683,0 4.3867177,1.9453123 4.3867177,4.3437487 z m 0,0"
     id="path3700" />
  <path
     fill-rule="nonzero"
     fill="#ff0000"
     fill-opacity="1"
     d="m 9.2499998,4.4563082 c 0,0.960938 -0.785156,1.746094 -1.75,1.746094 -0.964844,0 -1.75,-0.785156 -1.75,-1.746094 0,-0.96875 0.785156,-1.75 1.75,-1.75 0.964844,0 1.75,0.78125 1.75,1.75 z m 0,0"
     id="path3702" />
  <path
     fill-rule="nonzero"
     fill="#000000"
     fill-opacity="1"
     stroke-width="0.217304"
     stroke-linecap="butt"
     stroke-linejoin="miter"
     stroke="#ffffff"
     stroke-opacity="1"
     stroke-miterlimit="4"
     d="m 11.890622,13.362554 c 0,2.402343 -1.9687494,4.347655 -4.3867177,4.347655 -2.4296861,0 -4.3945297,-1.945312 -4.3945297,-4.347655 0,-2.398436 1.9648436,-4.3437487 4.3945297,-4.3437487 2.4179683,0 4.3867177,1.9453127 4.3867177,4.3437487 z m 0,0"
     id="path3704" />
  <path
     fill-rule="nonzero"
     fill="#ffdd00"
     fill-opacity="1"
     d="m 9.2499998,13.362558 c 0,0.964844 -0.785156,1.75 -1.75,1.75 -0.964844,0 -1.75,-0.785156 -1.75,-1.75 0,-0.964843 0.785156,-1.746093 1.75,-1.746093 0.964844,0 1.75,0.78125 1.75,1.746093 z m 0,0"
     id="path3706" />
  <path
     fill-rule="nonzero"
     fill="#000000"
     fill-opacity="1"
     stroke-width="0.217304"
     stroke-linecap="butt"
     stroke-linejoin="miter"
     stroke="#ffffff"
     stroke-opacity="1"
     stroke-miterlimit="4"
     d="m 11.890622,22.260989 c 0,2.402343 -1.9687494,4.351561 -4.3867177,4.351561 -2.4296861,0 -4.3945297,-1.949218 -4.3945297,-4.351561 0,-2.398437 1.9648436,-4.339842 4.3945297,-4.339842 2.4179683,0 4.3867177,1.941405 4.3867177,4.339842 z m 0,0"
     id="path3708" />
  <path
     fill-rule="nonzero"
     fill="#22ff00"
     fill-opacity="1"
     d="m 9.2499998,22.264902 c 0,0.964844 -0.785156,1.75 -1.75,1.75 -0.964844,0 -1.75,-0.785156 -1.75,-1.75 0,-0.964844 0.785156,-1.746094 1.75,-1.746094 0.964844,0 1.75,0.78125 1.75,1.746094 z m 0,0"
     id="path3710" />
  <path
     fill-rule="nonzero"
     fill="#000000"
     fill-opacity="1"
     d="m 15,30.810755 c 0,2.050781 -1.679688,3.710937 -3.746094,3.710937 C 9.1796876,34.521692 7.5,32.861536 7.5,30.810755 c 0,-2.050782 1.6796876,-3.710938 3.753906,-3.710938 2.066406,0 3.746094,1.660156 3.746094,3.710938 z m 0,0"
     id="path2" />
  <path
     fill-rule="nonzero"
     fill="#54bfff"
     fill-opacity="1"
     d="m 13.835938,30.814661 c 0,1.421875 -1.160157,2.582031 -2.585938,2.582031 -1.4257814,0 -2.5859384,-1.160156 -2.5859384,-2.582031 0,-1.433594 1.160157,-2.585938 2.5859384,-2.585938 1.425781,0 2.585938,1.152344 2.585938,2.585938 z m 0,0"
     id="path4" />
  <path
     fill-rule="nonzero"
     fill="#000000"
     fill-opacity="1"
     d="m 7.5,30.810755 c 0,2.050781 -1.679688,3.710937 -3.746094,3.710937 C 1.679688,34.521692 4.9999999e-8,32.861536 4.9999999e-8,30.810755 4.9999999e-8,28.759973 1.679688,27.099817 3.753906,27.099817 5.820312,27.099817 7.5,28.759973 7.5,30.810755 Z m 0,0"
     id="path6" />
  <path
     fill-rule="nonzero"
     fill="#54bfff"
     fill-opacity="1"
     d="m 6.335938,30.814661 c 0,1.421875 -1.160157,2.582031 -2.585938,2.582031 -1.425781,0 -2.585938,-1.160156 -2.585938,-2.582031 0,-1.433594 1.160157,-2.585938 2.585938,-2.585938 1.425781,0 2.585938,1.152344 2.585938,2.585938 z m 0,0"
     id="path8" />
  <path
     fill-rule="nonzero"
     fill="#000000"
     fill-opacity="1"
     d="m 3.753906,34.519301 h 7.5 v 7.421875 h -7.5 z m 0,0"
     id="path392" />
  <path
     fill-rule="nonzero"
     fill="#000000"
     fill-opacity="1"
     d="m 15,38.230239 c 0,2.050781 -1.679688,3.710937 -3.746094,3.710937 C 9.1796877,41.941176 7.5,40.28102 7.5,38.230239 c 0,-2.050782 1.6796877,-3.710938 3.753906,-3.710938 2.066406,0 3.746094,1.660156 3.746094,3.710938 z m 0,0"
     id="path394" />
  <path
     fill-rule="nonzero"
     fill="#ffffff"
     fill-opacity="1"
     d="m 13.835938,38.234145 c 0,1.421875 -1.160157,2.582031 -2.585938,2.582031 -1.4257814,0 -2.5859383,-1.160156 -2.5859383,-2.582031 0,-1.433594 1.1601569,-2.585938 2.5859383,-2.585938 1.425781,0 2.585938,1.152344 2.585938,2.585938 z m 0,0"
     id="path396" />
  <path
     fill-rule="nonzero"
     fill="#000000"
     fill-opacity="1"
     d="m 7.4999999,38.230239 c 0,2.050781 -1.679688,3.710937 -3.746094,3.710937 C 1.6796879,41.941176 0,40.28102 0,38.230239 c 0,-2.050782 1.6796879,-3.710938 3.7539059,-3.710938 2.066406,0 3.746094,1.660156 3.746094,3.710938 z m 0,0"
     id="path398" />
  <path
     fill-rule="nonzero"
     fill="#ffffff"
     fill-opacity="1"
     d="m 6.3359379,38.234145 c 0,1.421875 -1.160157,2.582031 -2.5859379,2.582031 -1.4257811,0 -2.5859381,-1.160156 -2.5859381,-2.582031 0,-1.433594 1.160157,-2.585938 2.5859381,-2.585938 1.4257809,0 2.5859379,1.152344 2.5859379,2.585938 z m 0,0"
     id="path400" />
</svg>
