<?xml version="1.0" encoding="UTF-8"?>
<svg xmlns="http://www.w3.org/2000/svg" xmlns:xlink="http://www.w3.org/1999/xlink" width="15" height="34.52169" viewBox="0 0 15 34.52169">
<path fill-rule="nonzero" fill="rgb(0%, 0%, 0%)" fill-opacity="1" stroke-width="0.217304" stroke-linecap="butt" stroke-linejoin="miter" stroke="rgb(100%, 100%, 100%)" stroke-opacity="1" stroke-miterlimit="4" d="M 11.890625 4.453125 C 11.890625 6.855469 9.921875 8.800781 7.503906 8.800781 C 5.074219 8.800781 3.109375 6.855469 3.109375 4.453125 C 3.109375 2.054688 5.074219 0.109375 7.503906 0.109375 C 9.921875 0.109375 11.890625 2.054688 11.890625 4.453125 Z M 11.890625 4.453125 "/>
<path fill-rule="nonzero" fill="rgb(100%, 0%, 0%)" fill-opacity="1" d="M 9.25 4.457031 C 9.25 5.417969 8.464844 6.203125 7.5 6.203125 C 6.535156 6.203125 5.75 5.417969 5.75 4.457031 C 5.75 3.488281 6.535156 2.707031 7.5 2.707031 C 8.464844 2.707031 9.25 3.488281 9.25 4.457031 Z M 9.25 4.457031 "/>
<path fill-rule="nonzero" fill="rgb(0%, 0%, 0%)" fill-opacity="1" stroke-width="0.217304" stroke-linecap="butt" stroke-linejoin="miter" stroke="rgb(100%, 100%, 100%)" stroke-opacity="1" stroke-miterlimit="4" d="M 11.890625 13.363281 C 11.890625 15.765625 9.921875 17.710938 7.503906 17.710938 C 5.074219 17.710938 3.109375 15.765625 3.109375 13.363281 C 3.109375 10.964844 5.074219 9.019531 7.503906 9.019531 C 9.921875 9.019531 11.890625 10.964844 11.890625 13.363281 Z M 11.890625 13.363281 "/>
<path fill-rule="nonzero" fill="rgb(100%, 86.666667%, 0%)" fill-opacity="1" d="M 9.25 13.363281 C 9.25 14.328125 8.464844 15.113281 7.5 15.113281 C 6.535156 15.113281 5.75 14.328125 5.75 13.363281 C 5.75 12.398438 6.535156 11.617188 7.5 11.617188 C 8.464844 11.617188 9.25 12.398438 9.25 13.363281 Z M 9.25 13.363281 "/>
<path fill-rule="nonzero" fill="rgb(0%, 0%, 0%)" fill-opacity="1" stroke-width="0.217304" stroke-linecap="butt" stroke-linejoin="miter" stroke="rgb(100%, 100%, 100%)" stroke-opacity="1" stroke-miterlimit="4" d="M 11.890625 22.261719 C 11.890625 24.664062 9.921875 26.613281 7.503906 26.613281 C 5.074219 26.613281 3.109375 24.664062 3.109375 22.261719 C 3.109375 19.863281 5.074219 17.921875 7.503906 17.921875 C 9.921875 17.921875 11.890625 19.863281 11.890625 22.261719 Z M 11.890625 22.261719 "/>
<path fill-rule="nonzero" fill="rgb(13.333333%, 100%, 0%)" fill-opacity="1" d="M 9.25 22.265625 C 9.25 23.230469 8.464844 24.015625 7.5 24.015625 C 6.535156 24.015625 5.75 23.230469 5.75 22.265625 C 5.75 21.300781 6.535156 20.519531 7.5 20.519531 C 8.464844 20.519531 9.25 21.300781 9.25 22.265625 Z M 9.25 22.265625 "/>
<path fill-rule="nonzero" fill="rgb(0%, 0%, 0%)" fill-opacity="1" d="M 15 30.8125 C 15 32.863281 13.320312 34.523438 11.253906 34.523438 C 9.179688 34.523438 7.5 32.863281 7.5 30.8125 C 7.5 28.761719 9.179688 27.101562 11.253906 27.101562 C 13.320312 27.101562 15 28.761719 15 30.8125 Z M 15 30.8125 "/>
<path fill-rule="nonzero" fill="rgb(32.941176%, 74.901961%, 100%)" fill-opacity="1" d="M 13.835938 30.816406 C 13.835938 32.238281 12.675781 33.398438 11.25 33.398438 C 9.824219 33.398438 8.664062 32.238281 8.664062 30.816406 C 8.664062 29.382812 9.824219 28.230469 11.25 28.230469 C 12.675781 28.230469 13.835938 29.382812 13.835938 30.816406 Z M 13.835938 30.816406 "/>
<path fill-rule="nonzero" fill="rgb(0%, 0%, 0%)" fill-opacity="1" d="M 7.5 30.8125 C 7.5 32.863281 5.820312 34.523438 3.753906 34.523438 C 1.679688 34.523438 0 32.863281 0 30.8125 C 0 28.761719 1.679688 27.101562 3.753906 27.101562 C 5.820312 27.101562 7.5 28.761719 7.5 30.8125 Z M 7.5 30.8125 "/>
<path fill-rule="nonzero" fill="rgb(32.941176%, 74.901961%, 100%)" fill-opacity="1" d="M 6.335938 30.816406 C 6.335938 32.238281 5.175781 33.398438 3.75 33.398438 C 2.324219 33.398438 1.164062 32.238281 1.164062 30.816406 C 1.164062 29.382812 2.324219 28.230469 3.75 28.230469 C 5.175781 28.230469 6.335938 29.382812 6.335938 30.816406 Z M 6.335938 30.816406 "/>
</svg>
