<?xml version="1.0" encoding="UTF-8"?>
<svg xmlns="http://www.w3.org/2000/svg" xmlns:xlink="http://www.w3.org/1999/xlink" width="15" height="25.490309" viewBox="0 0 15 25.490309">
<path fill-rule="nonzero" fill="rgb(0%, 0%, 0%)" fill-opacity="1" stroke-width="0.217304" stroke-linecap="butt" stroke-linejoin="miter" stroke="rgb(100%, 100%, 100%)" stroke-opacity="1" stroke-miterlimit="4" d="M 11.890625 4.453125 C 11.890625 6.855469 9.921875 8.800781 7.503906 8.800781 C 5.074219 8.800781 3.109375 6.855469 3.109375 4.453125 C 3.109375 2.054688 5.074219 0.109375 7.503906 0.109375 C 9.921875 0.109375 11.890625 2.054688 11.890625 4.453125 Z M 11.890625 4.453125 "/>
<path fill-rule="nonzero" fill="rgb(100%, 0%, 0%)" fill-opacity="1" d="M 9.25 4.457031 C 9.25 5.417969 8.464844 6.203125 7.5 6.203125 C 6.535156 6.203125 5.75 5.417969 5.75 4.457031 C 5.75 3.488281 6.535156 2.707031 7.5 2.707031 C 8.464844 2.707031 9.25 3.488281 9.25 4.457031 Z M 9.25 4.457031 "/>
<path fill-rule="nonzero" fill="rgb(0%, 0%, 0%)" fill-opacity="1" stroke-width="0.217304" stroke-linecap="butt" stroke-linejoin="miter" stroke="rgb(100%, 100%, 100%)" stroke-opacity="1" stroke-miterlimit="4" d="M 11.890625 13.363281 C 11.890625 15.765625 9.921875 17.710938 7.503906 17.710938 C 5.074219 17.710938 3.109375 15.765625 3.109375 13.363281 C 3.109375 10.964844 5.074219 9.019531 7.503906 9.019531 C 9.921875 9.019531 11.890625 10.964844 11.890625 13.363281 Z M 11.890625 13.363281 "/>
<path fill-rule="nonzero" fill="rgb(100%, 86.666667%, 0%)" fill-opacity="1" d="M 9.25 13.363281 C 9.25 14.328125 8.464844 15.113281 7.5 15.113281 C 6.535156 15.113281 5.75 14.328125 5.75 13.363281 C 5.75 12.398438 6.535156 11.617188 7.5 11.617188 C 8.464844 11.617188 9.25 12.398438 9.25 13.363281 Z M 9.25 13.363281 "/>
<path fill-rule="nonzero" fill="rgb(0%, 0%, 0%)" fill-opacity="1" d="M 15 21.78125 C 15 23.832031 13.320312 25.492188 11.253906 25.492188 C 9.179688 25.492188 7.5 23.832031 7.5 21.78125 C 7.5 19.730469 9.179688 18.070312 11.253906 18.070312 C 13.320312 18.070312 15 19.730469 15 21.78125 Z M 15 21.78125 "/>
<path fill-rule="nonzero" fill="rgb(32.941176%, 74.901961%, 100%)" fill-opacity="1" d="M 13.835938 21.785156 C 13.835938 23.207031 12.675781 24.367188 11.25 24.367188 C 9.824219 24.367188 8.664062 23.207031 8.664062 21.785156 C 8.664062 20.351562 9.824219 19.199219 11.25 19.199219 C 12.675781 19.199219 13.835938 20.351562 13.835938 21.785156 Z M 13.835938 21.785156 "/>
<path fill-rule="nonzero" fill="rgb(0%, 0%, 0%)" fill-opacity="1" d="M 7.5 21.78125 C 7.5 23.832031 5.820312 25.492188 3.753906 25.492188 C 1.679688 25.492188 0 23.832031 0 21.78125 C 0 19.730469 1.679688 18.070312 3.753906 18.070312 C 5.820312 18.070312 7.5 19.730469 7.5 21.78125 Z M 7.5 21.78125 "/>
<path fill-rule="nonzero" fill="rgb(32.941176%, 74.901961%, 100%)" fill-opacity="1" d="M 6.335938 21.785156 C 6.335938 23.207031 5.175781 24.367188 3.75 24.367188 C 2.324219 24.367188 1.164062 23.207031 1.164062 21.785156 C 1.164062 20.351562 2.324219 19.199219 3.75 19.199219 C 5.175781 19.199219 6.335938 20.351562 6.335938 21.785156 Z M 6.335938 21.785156 "/>
</svg>
