<?xml version="1.0" encoding="UTF-8"?>
<svg xmlns="http://www.w3.org/2000/svg" xmlns:xlink="http://www.w3.org/1999/xlink" width="15" height="25.94585" viewBox="0 0 15 25.94585">
<path fill-rule="nonzero" fill="rgb(0%, 0%, 0%)" fill-opacity="1" stroke-width="0.217304" stroke-linecap="butt" stroke-linejoin="miter" stroke="rgb(100%, 100%, 100%)" stroke-opacity="1" stroke-miterlimit="4" d="M 11.890625 4.453125 C 11.890625 6.855469 9.921875 8.800781 7.503906 8.800781 C 5.074219 8.800781 3.109375 6.855469 3.109375 4.453125 C 3.109375 2.054688 5.074219 0.109375 7.503906 0.109375 C 9.921875 0.109375 11.890625 2.054688 11.890625 4.453125 Z M 11.890625 4.453125 "/>
<path fill-rule="nonzero" fill="rgb(100%, 0%, 0%)" fill-opacity="1" d="M 9.25 4.457031 C 9.25 5.417969 8.464844 6.203125 7.5 6.203125 C 6.535156 6.203125 5.75 5.417969 5.75 4.457031 C 5.75 3.488281 6.535156 2.707031 7.5 2.707031 C 8.464844 2.707031 9.25 3.488281 9.25 4.457031 Z M 9.25 4.457031 "/>
<path fill-rule="nonzero" fill="rgb(0%, 0%, 0%)" fill-opacity="1" stroke-width="0.217304" stroke-linecap="butt" stroke-linejoin="miter" stroke="rgb(100%, 100%, 100%)" stroke-opacity="1" stroke-miterlimit="4" d="M 11.890625 13.363281 C 11.890625 15.765625 9.921875 17.710938 7.503906 17.710938 C 5.074219 17.710938 3.109375 15.765625 3.109375 13.363281 C 3.109375 10.964844 5.074219 9.019531 7.503906 9.019531 C 9.921875 9.019531 11.890625 10.964844 11.890625 13.363281 Z M 11.890625 13.363281 "/>
<path fill-rule="nonzero" fill="rgb(100%, 86.666667%, 0%)" fill-opacity="1" d="M 9.25 13.363281 C 9.25 14.328125 8.464844 15.113281 7.5 15.113281 C 6.535156 15.113281 5.75 14.328125 5.75 13.363281 C 5.75 12.398438 6.535156 11.617188 7.5 11.617188 C 8.464844 11.617188 9.25 12.398438 9.25 13.363281 Z M 9.25 13.363281 "/>
<path fill-rule="nonzero" fill="rgb(0%, 0%, 0%)" fill-opacity="1" d="M 3.753906 18.523438 L 11.253906 18.523438 L 11.253906 25.945312 L 3.753906 25.945312 Z M 3.753906 18.523438 "/>
<path fill-rule="nonzero" fill="rgb(0%, 0%, 0%)" fill-opacity="1" d="M 15 22.234375 C 15 24.285156 13.320312 25.945312 11.253906 25.945312 C 9.179688 25.945312 7.5 24.285156 7.5 22.234375 C 7.5 20.183594 9.179688 18.523438 11.253906 18.523438 C 13.320312 18.523438 15 20.183594 15 22.234375 Z M 15 22.234375 "/>
<path fill-rule="nonzero" fill="rgb(100%, 100%, 100%)" fill-opacity="1" d="M 13.835938 22.238281 C 13.835938 23.660156 12.675781 24.820312 11.25 24.820312 C 9.824219 24.820312 8.664062 23.660156 8.664062 22.238281 C 8.664062 20.804688 9.824219 19.652344 11.25 19.652344 C 12.675781 19.652344 13.835938 20.804688 13.835938 22.238281 Z M 13.835938 22.238281 "/>
<path fill-rule="nonzero" fill="rgb(0%, 0%, 0%)" fill-opacity="1" d="M 7.5 22.234375 C 7.5 24.285156 5.820312 25.945312 3.753906 25.945312 C 1.679688 25.945312 0 24.285156 0 22.234375 C 0 20.183594 1.679688 18.523438 3.753906 18.523438 C 5.820312 18.523438 7.5 20.183594 7.5 22.234375 Z M 7.5 22.234375 "/>
<path fill-rule="nonzero" fill="rgb(100%, 100%, 100%)" fill-opacity="1" d="M 6.335938 22.238281 C 6.335938 23.660156 5.175781 24.820312 3.75 24.820312 C 2.324219 24.820312 1.164062 23.660156 1.164062 22.238281 C 1.164062 20.804688 2.324219 19.652344 3.75 19.652344 C 5.175781 19.652344 6.335938 20.804688 6.335938 22.238281 Z M 6.335938 22.238281 "/>
</svg>
