<?xml version="1.0" encoding="UTF-8" standalone="no"?>
<svg
   width="14.441407"
   height="14.913473"
   viewBox="0 0 14.441407 14.913473"
   version="1.1"
   id="svg14"
   sodipodi:docname="MAR.svg"
   inkscape:version="1.2.2 (b0a8486541, 2022-12-01)"
   xmlns:inkscape="http://www.inkscape.org/namespaces/inkscape"
   xmlns:sodipodi="http://sodipodi.sourceforge.net/DTD/sodipodi-0.dtd"
   xmlns="http://www.w3.org/2000/svg"
   xmlns:svg="http://www.w3.org/2000/svg">
  <defs
     id="defs18" />
  <sodipodi:namedview
     id="namedview16"
     pagecolor="#ffffff"
     bordercolor="#666666"
     borderopacity="1.0"
     inkscape:showpageshadow="2"
     inkscape:pageopacity="0.0"
     inkscape:pagecheckerboard="0"
     inkscape:deskcolor="#d1d1d1"
     showgrid="false"
     inkscape:zoom="50.25"
     inkscape:cx="7.2238806"
     inkscape:cy="5.5621891"
     inkscape:window-width="1920"
     inkscape:window-height="1128"
     inkscape:window-x="0"
     inkscape:window-y="0"
     inkscape:window-maximized="1"
     inkscape:current-layer="svg14" />
  <path
     fill-rule="evenodd"
     fill="#333333"
     fill-opacity="1"
     d="M 3.902344,0 C 1.746094,0 0,1.746094 0,3.902344 v 7.108792 c 0,1.90625 1.378907,3.5 3.191407,3.835938 0.109375,0.01953 0.230469,0.03906 0.34375,0.04687 0.125,0.0078 0.242187,0.01953 0.367187,0.01953 h 6.636719 c 2.15625,0 3.902344,-1.746094 3.902344,-3.902344 0,-0.679688 -0.175781,-1.3164055 -0.484375,-1.8710935 -0.0625,-0.125 -0.132813,-0.238281 -0.210938,-0.347656 C 7.332032,2.03125 12.743165,7.7366165 7.332032,2.03125 6.0220579,0.7247165 5.378907,0 3.902344,0 Z"
     id="path4"
     sodipodi:nodetypes="sssccssscccs" />
  <path
     fill-rule="nonzero"
     fill="#0e0e0e"
     fill-opacity="1"
     d="m 6.022297,11.011834 c 0,1.166358 -0.9489901,2.11535 -2.1206506,2.11535 -1.1663579,0 -2.1153494,-0.948992 -2.1153494,-2.115349 0,-1.1716615 0.9489915,-2.1206515 2.1153494,-2.1206515 1.1716605,0 2.1206506,0.94899 2.1206506,2.1206505 z m 0,0"
     id="path6"
     style="stroke-width:1.35722;fill:#ffffff;fill-opacity:1" />
  <path
     fill-rule="nonzero"
     fill="#fff4c7"
     fill-opacity="1"
     d="m 6.0220579,3.9940537 c 0,1.171527 -0.948883,2.1204108 -2.1204112,2.1204108 -1.1662262,0 -2.1151106,-0.9488838 -2.1151106,-2.1204108 0,-1.1715269 0.9488844,-2.1204113 2.1151106,-2.1204113 1.1715282,0 2.1204112,0.9488844 2.1204112,2.1204113 z m 0,0"
     id="path8"
     style="stroke-width:1.35706;fill:#ffffff;fill-opacity:1" />
  <path
     fill-rule="nonzero"
     fill="#0e0e0e"
     fill-opacity="1"
     d="m 12.575747,11.011834 c 0,1.166358 -0.948991,2.11535 -2.115349,2.11535 -1.1716593,0 -2.1206509,-0.948991 -2.1206509,-2.115349 0,-1.1716615 0.9489916,-2.1206515 2.1206509,-2.1206515 1.166358,0 2.115349,0.94899 2.115349,2.1206505 z m 0,0"
     id="path10"
     style="stroke-width:1.35722" />
</svg>
