<?xml version="1.0" encoding="UTF-8"?>
<svg xmlns="http://www.w3.org/2000/svg" xmlns:xlink="http://www.w3.org/1999/xlink" width="15" height="21.546875" viewBox="0 0 15 21.546875">
<path fill-rule="nonzero" fill="rgb(0%, 0%, 0%)" fill-opacity="1" d="M 15 17.835938 C 15 19.886719 13.320312 21.546875 11.253906 21.546875 C 9.179688 21.546875 7.5 19.886719 7.5 17.835938 C 7.5 15.785156 9.179688 14.125 11.253906 14.125 C 13.320312 14.125 15 15.785156 15 17.835938 Z M 15 17.835938 "/>
<path fill-rule="nonzero" fill="rgb(32.941176%, 74.901961%, 100%)" fill-opacity="1" d="M 13.835938 17.839844 C 13.835938 19.261719 12.675781 20.421875 11.25 20.421875 C 9.824219 20.421875 8.664062 19.261719 8.664062 17.839844 C 8.664062 16.40625 9.824219 15.253906 11.25 15.253906 C 12.675781 15.253906 13.835938 16.40625 13.835938 17.839844 Z M 13.835938 17.839844 "/>
<path fill-rule="nonzero" fill="rgb(0%, 0%, 0%)" fill-opacity="1" d="M 7.5 17.835938 C 7.5 19.886719 5.820312 21.546875 3.753906 21.546875 C 1.679688 21.546875 0 19.886719 0 17.835938 C 0 15.785156 1.679688 14.125 3.753906 14.125 C 5.820312 14.125 7.5 15.785156 7.5 17.835938 Z M 7.5 17.835938 "/>
<path fill-rule="nonzero" fill="rgb(32.941176%, 74.901961%, 100%)" fill-opacity="1" d="M 6.335938 17.839844 C 6.335938 19.261719 5.175781 20.421875 3.75 20.421875 C 2.324219 20.421875 1.164062 19.261719 1.164062 17.839844 C 1.164062 16.40625 2.324219 15.253906 3.75 15.253906 C 5.175781 15.253906 6.335938 16.40625 6.335938 17.839844 Z M 6.335938 17.839844 "/>
<path fill-rule="nonzero" fill="rgb(0%, 0%, 0%)" fill-opacity="1" d="M 3.585938 0 L 11.414062 0 L 11.414062 13 L 3.585938 13 Z M 3.585938 0 "/>
<path fill-rule="nonzero" fill="rgb(100%, 100%, 100%)" fill-opacity="1" d="M 9.648438 3.625 C 9.648438 4.8125 8.683594 5.773438 7.496094 5.773438 C 6.3125 5.773438 5.351562 4.8125 5.351562 3.625 C 5.351562 2.4375 6.3125 1.472656 7.496094 1.472656 C 8.683594 1.472656 9.648438 2.4375 9.648438 3.625 Z M 9.648438 3.625 "/>
<path fill-rule="nonzero" fill="rgb(100%, 100%, 100%)" fill-opacity="1" d="M 9.648438 9.375 C 9.648438 10.5625 8.683594 11.527344 7.496094 11.527344 C 6.3125 11.527344 5.351562 10.5625 5.351562 9.375 C 5.351562 8.1875 6.3125 7.226562 7.496094 7.226562 C 8.683594 7.226562 9.648438 8.1875 9.648438 9.375 Z M 9.648438 9.375 "/>
</svg>
