<?xml version="1.0" encoding="UTF-8"?>
<svg xmlns="http://www.w3.org/2000/svg" xmlns:xlink="http://www.w3.org/1999/xlink" width="14" height="16.055547" viewBox="0 0 14 16.055547">
<path fill-rule="nonzero" fill="rgb(0%, 0%, 0%)" fill-opacity="1" d="M 0 0 L 14 0 L 14 16.054688 L 0 16.054688 Z M 0 0 "/>
<path fill-rule="nonzero" fill="rgb(100%, 100%, 100%)" fill-opacity="1" d="M 1.96875 4.023438 L 12.03125 4.023438 C 12.425781 4.023438 12.746094 4.34375 12.746094 4.734375 L 12.746094 5.007812 C 12.746094 5.402344 12.425781 5.71875 12.03125 5.71875 L 1.96875 5.71875 C 1.574219 5.71875 1.253906 5.402344 1.253906 5.007812 L 1.253906 4.734375 C 1.253906 4.34375 1.574219 4.023438 1.96875 4.023438 Z M 1.96875 4.023438 "/>
<path fill-rule="nonzero" fill="rgb(100%, 100%, 100%)" fill-opacity="1" d="M 1.96875 10.335938 L 12.03125 10.335938 C 12.425781 10.335938 12.746094 10.65625 12.746094 11.046875 L 12.746094 11.320312 C 12.746094 11.714844 12.425781 12.03125 12.03125 12.03125 L 1.96875 12.03125 C 1.574219 12.03125 1.253906 11.714844 1.253906 11.320312 L 1.253906 11.046875 C 1.253906 10.65625 1.574219 10.335938 1.96875 10.335938 Z M 1.96875 10.335938 "/>
</svg>
