<?xml version="1.0" encoding="UTF-8" standalone="no"?>
<svg
   width="13.710939"
   height="10.454279"
   viewBox="0 0 13.710938 10.454279"
   version="1.1"
   id="svg12"
   sodipodi:docname="speed-distant-1-{160}.svg"
   inkscape:version="1.2.2 (b0a8486541, 2022-12-01)"
   xmlns:inkscape="http://www.inkscape.org/namespaces/inkscape"
   xmlns:sodipodi="http://sodipodi.sourceforge.net/DTD/sodipodi-0.dtd"
   xmlns="http://www.w3.org/2000/svg"
   xmlns:svg="http://www.w3.org/2000/svg">
  <defs
     id="defs16">
    <mask
       maskUnits="userSpaceOnUse"
       id="mask19407">
      <path
         fill="none"
         stroke-width="0.944046"
         stroke-linecap="butt"
         stroke-linejoin="miter"
         stroke="#ffffff"
         stroke-opacity="1"
         stroke-miterlimit="4"
         d="M 0.13025976,11.332727 13.724525,7.4296862"
         id="path19409" />
    </mask>
  </defs>
  <sodipodi:namedview
     id="namedview14"
     pagecolor="#ffffff"
     bordercolor="#666666"
     borderopacity="1.0"
     inkscape:showpageshadow="2"
     inkscape:pageopacity="0.0"
     inkscape:pagecheckerboard="0"
     inkscape:deskcolor="#d1d1d1"
     showgrid="false"
     inkscape:zoom="30.723257"
     inkscape:cx="-1.4972371"
     inkscape:cy="3.3687835"
     inkscape:window-width="2560"
     inkscape:window-height="1368"
     inkscape:window-x="0"
     inkscape:window-y="0"
     inkscape:window-maximized="1"
     inkscape:current-layer="text1641" />
  <path
     fill-rule="nonzero"
     fill="#000000"
     fill-opacity="1"
     stroke-width="0.285821"
     stroke-linecap="butt"
     stroke-linejoin="miter"
     stroke="#ffffff"
     stroke-opacity="1"
     stroke-miterlimit="4"
     d="M 13.710938,-1.1881326 V 6.2415549 H 0 v -7.4296875 z m 0,0"
     id="path2"
     style="fill:#000000;fill-opacity:1;stroke:none;stroke-width:0.286;stroke-dasharray:none" />
  <g
     aria-label="?"
     id="text1641"
     style="font-size:8.07672px;font-family:Aptos;-inkscape-font-specification:Aptos;font-variant-ligatures:none;stroke-width:0.866227;stroke-linecap:round;stroke-linejoin:round;paint-order:stroke markers fill"
     transform="translate(0,-1.1881326)">
    <g
       aria-label="160"
       id="text897"
       style="font-size:7.71768px;fill:#ffffff;stroke-width:1.22876">
      <path
         d="M 2.519927,6.1737237 V 2.043559 Q 2.4181802,2.1829898 2.2297603,2.3148837 2.0451088,2.4430093 1.7888577,2.544756 1.5326066,2.6465028 1.2160611,2.6917236 V 2.0963166 Q 1.5288382,2.043559 1.7963945,1.9041283 2.0677192,1.7646975 2.2712127,1.5838144 2.4784746,1.4029313 2.5952949,1.2371218 h 0.5841018 v 4.9366019 z"
         id="path21312" />
      <path
         d="m 6.7932906,6.2415549 q -0.5238073,0 -0.9345628,-0.2487143 Q 5.4479724,5.7403579 5.2105633,5.1901717 4.9769226,4.6399855 4.9769226,3.7468751 q 0,-0.8742684 0.2261039,-1.4395282 Q 5.4291304,1.7420871 5.8398858,1.4669941 6.2506413,1.191901 6.7932906,1.191901 q 0.5991754,0 1.0099308,0.3090086 0.4145238,0.3090087 0.5275758,0.9383313 H 7.6977063 Q 7.6185699,2.0887798 7.3886976,1.9116651 7.1588253,1.7345504 6.7932906,1.7345504 q -0.5426493,0 -0.8591948,0.4861233 -0.3127771,0.482355 -0.3127771,1.5262014 v 0.1959567 q 0,0.6481646 0.1620412,1.0363096 0.1658095,0.3843766 0.4333658,0.5539546 0.2675563,0.1695779 0.5803333,0.1695779 0.4936602,0 0.7310693,-0.3052403 0.2374091,-0.3052403 0.2374091,-0.7574481 0,-0.4559762 -0.2336407,-0.7197641 Q 7.298256,3.6564335 6.8761954,3.6564335 q -0.4898918,0 -0.8591948,0.2298724 Q 5.6476975,4.1161782 5.4592776,4.41765 L 5.387678,3.935295 Q 5.5497192,3.7054227 5.7795915,3.5207712 6.0132322,3.3323513 6.3071672,3.2230677 6.6048707,3.1137842 6.9628686,3.1137842 q 0.4182922,0 0.7461429,0.1733463 0.3278506,0.1695779 0.5200389,0.5049654 0.1921884,0.3353875 0.1921884,0.8252792 0,0.4748182 -0.1921884,0.8441213 Q 8.0406305,5.827031 7.6750959,6.034293 7.3133296,6.2415549 6.7932906,6.2415549 Z"
         id="path21314" />
      <path
         d="m 10.799098,6.2415549 q -0.474818,0 -0.8026688,-0.1921884 Q 9.6723469,5.8534098 9.4726218,5.5104856 9.2766651,5.1637929 9.1862235,4.7078167 9.0995503,4.2518405 9.0995503,3.7242647 q 0,-0.5351126 0.086673,-0.9948572 Q 9.2766651,2.2696629 9.4726218,1.9229703 9.6723469,1.5762776 9.9964292,1.3840893 10.32428,1.1881326 10.799098,1.1881326 q 0.474818,0 0.7989,0.1921883 0.327851,0.1921883 0.523808,0.5426494 0.195957,0.3466926 0.28263,0.8064372 0.09044,0.4559762 0.09044,0.9873204 0,0.5313442 -0.09044,0.9910888 -0.08667,0.4559762 -0.28263,0.8026689 -0.195957,0.3429242 -0.523808,0.5388809 -0.324082,0.1921884 -0.7989,0.1921884 z m 0,-0.5501862 q 0.312777,0 0.512502,-0.1695779 0.199725,-0.169578 0.309009,-0.4522078 0.113052,-0.2863983 0.154504,-0.6368594 0.04522,-0.3542294 0.04522,-0.7159957 0,-0.3655346 -0.04522,-0.7159957 Q 11.733661,2.6465028 11.620609,2.3638729 11.511325,2.0774746 11.3116,1.9078967 q -0.199725,-0.169578 -0.512502,-0.169578 -0.312777,0 -0.516271,0.169578 -0.199725,0.1695779 -0.3127766,0.4559762 -0.113052,0.2826299 -0.1582728,0.6368593 -0.041452,0.3504611 -0.041452,0.7159957 0,0.3617663 0.041452,0.7159957 0.045221,0.3504611 0.1582728,0.6368594 0.1130516,0.2826298 0.3127766,0.4522078 0.203494,0.1695779 0.516271,0.1695779 z"
         id="path21316" />
    </g>
    <rect
       style="fill:#000000;fill-opacity:1;stroke-width:0.288455;stroke-linecap:round;stroke-linejoin:round;paint-order:stroke markers fill;stop-color:#000000"
       id="rect19463"
       width="13.710938"
       height="3.9365373"
       x="3.3482117e-09"
       y="7.7058716" />
    <path
       fill-rule="nonzero"
       fill="#000000"
       fill-opacity="1"
       d="M 13.724526,7.4296875 V 11.332729 H 0.13025976 V 7.4296875 Z m 0,0"
       id="path10775"
       style="fill:#ffffff;fill-opacity:1;stroke-width:0.971019"
       mask="url(#mask19407)"
       transform="matrix(1.0085825,0,0,1.0085825,-0.13137771,0.21241914)" />
  </g>
</svg>
