<?xml version="1.0" encoding="UTF-8" standalone="no"?>
<svg
   width="21.491533"
   height="18.655489"
   viewBox="0 0 21.491533 18.655489"
   version="1.1"
   id="svg8"
   sodipodi:docname="tri-unknown.svg"
   inkscape:version="1.2.2 (b0a8486541, 2022-12-01)"
   xmlns:inkscape="http://www.inkscape.org/namespaces/inkscape"
   xmlns:sodipodi="http://sodipodi.sourceforge.net/DTD/sodipodi-0.dtd"
   xmlns="http://www.w3.org/2000/svg"
   xmlns:svg="http://www.w3.org/2000/svg">
  <defs
     id="defs12" />
  <sodipodi:namedview
     id="namedview10"
     pagecolor="#ffffff"
     bordercolor="#666666"
     borderopacity="1.0"
     inkscape:showpageshadow="2"
     inkscape:pageopacity="0.0"
     inkscape:pagecheckerboard="0"
     inkscape:deskcolor="#d1d1d1"
     showgrid="false"
     inkscape:zoom="38.953751"
     inkscape:cx="8.0865126"
     inkscape:cy="13.387671"
     inkscape:window-width="1920"
     inkscape:window-height="1128"
     inkscape:window-x="0"
     inkscape:window-y="0"
     inkscape:window-maximized="1"
     inkscape:current-layer="svg8" />
  <path
     fill-rule="nonzero"
     fill="#ffffff"
     fill-opacity="1"
     stroke-width="1.11206"
     stroke-linecap="butt"
     stroke-linejoin="round"
     stroke="#000000"
     stroke-opacity="1"
     stroke-miterlimit="4"
     d="M 10.814353,16.655583 19.763586,1.0071224 1.7362153,1.0813412 Z m 0,0"
     id="path2"
     style="fill:#ffffff;fill-opacity:1;stroke-width:2;stroke-linejoin:miter;stroke-dasharray:none" />
  <g
     aria-label="?"
     id="text4674"
     style="font-size:9.24339px;line-height:1.25;-inkscape-font-specification:sans-serif;font-variant-ligatures:none;text-align:center;letter-spacing:0px;word-spacing:0px;text-anchor:middle;stroke-width:0.693256">
    <path
       d="m 13.090464,4.6970227 q 0,0.4377973 -0.198588,0.7853271 -0.194075,0.3475298 -0.731167,0.7311666 L 11.817693,6.461752 q -0.30691,0.2211553 -0.460365,0.446824 -0.148941,0.2256687 -0.162481,0.4964711 H 9.9897761 q 0.02708,-0.4603641 0.2572619,-0.821434 0.234696,-0.36107 0.686033,-0.6770062 0.482931,-0.3339896 0.68152,-0.5867386 0.198588,-0.2572623 0.198588,-0.5686851 0,-0.3971769 -0.261775,-0.627359 -0.257263,-0.2301821 -0.73568,-0.2301821 -0.455851,0 -0.767274,0.2662891 Q 9.7415405,4.4262203 9.6873801,4.8640175 L 8.4010684,4.809857 Q 8.5229295,3.8936421 9.1548019,3.3836308 9.7866743,2.8736196 10.79767,2.8736196 q 1.06967,0 1.678975,0.4874444 0.613819,0.482931 0.613819,1.3359587 z M 9.9536691,9.3277445 v -1.218611 h 1.3043649 v 1.218611 z"
       style="font-weight:bold;font-family:Arial;-inkscape-font-specification:Arial"
       id="path4458" />
  </g>
</svg>
