<?xml version="1.0" encoding="UTF-8" standalone="no"?>
<svg
   width="21.491533"
   height="18.655489"
   viewBox="0 0 21.491533 18.655489"
   version="1.1"
   id="svg8"
   sodipodi:docname="tri-60.svg"
   inkscape:version="1.2.2 (b0a8486541, 2022-12-01)"
   xmlns:inkscape="http://www.inkscape.org/namespaces/inkscape"
   xmlns:sodipodi="http://sodipodi.sourceforge.net/DTD/sodipodi-0.dtd"
   xmlns="http://www.w3.org/2000/svg"
   xmlns:svg="http://www.w3.org/2000/svg">
  <defs
     id="defs12" />
  <sodipodi:namedview
     id="namedview10"
     pagecolor="#ffffff"
     bordercolor="#666666"
     borderopacity="1.0"
     inkscape:showpageshadow="2"
     inkscape:pageopacity="0.0"
     inkscape:pagecheckerboard="0"
     inkscape:deskcolor="#d1d1d1"
     showgrid="false"
     inkscape:zoom="38.953751"
     inkscape:cx="10.550974"
     inkscape:cy="9.228893"
     inkscape:window-width="1920"
     inkscape:window-height="1128"
     inkscape:window-x="0"
     inkscape:window-y="0"
     inkscape:window-maximized="1"
     inkscape:current-layer="svg8" />
  <path
     fill-rule="nonzero"
     fill="#ffffff"
     fill-opacity="1"
     stroke-width="1.11206"
     stroke-linecap="butt"
     stroke-linejoin="round"
     stroke="#000000"
     stroke-opacity="1"
     stroke-miterlimit="4"
     d="M 10.814353,16.655583 19.763586,1.0071224 1.7362153,1.0813412 Z m 0,0"
     id="path2"
     style="fill:#ffffff;fill-opacity:1;stroke-width:2;stroke-linejoin:miter;stroke-dasharray:none" />
  <g
     aria-label="60"
     id="text4674"
     style="font-size:7.2129px;line-height:1.25;-inkscape-font-specification:sans-serif;font-variant-ligatures:none;text-align:center;letter-spacing:0px;word-spacing:0px;text-anchor:middle;stroke-width:0.540969">
    <path
       d="m 10.534843,6.2863648 q 0,0.7924329 -0.443762,1.2432391 -0.4437627,0.4508063 -1.2256298,0.4508063 -0.8769591,0 -1.3488969,-0.6128148 -0.4684159,-0.6163367 -0.4684159,-1.8243566 0,-1.3277653 0.4754598,-1.9969308 0.4789816,-0.6726875 1.3665064,-0.6726875 0.6304244,0 0.9931826,0.278232 0.3662798,0.278232 0.5177228,0.8628714 L 9.4677002,4.1450351 Q 9.333867,3.6554876 8.8689731,3.6554876 q -0.3979774,0 -0.6269025,0.3979774 Q 8.0166675,4.4514424 8.0166675,5.2614849 8.1751541,4.9973406 8.456908,4.8564637 q 0.2817539,-0.140877 0.6374682,-0.140877 0.6656436,0 1.0530548,0.4226309 0.387412,0.4226309 0.387412,1.1481472 z m -0.9931824,0.028175 q 0,-0.4226309 -0.1972278,-0.6445121 Q 9.150727,5.444625 8.8091004,5.444625 q -0.3275389,0 -0.5247667,0.2113154 -0.1972277,0.2077935 -0.1972277,0.5529421 0,0.4331966 0.2042716,0.7184724 0.2077935,0.281754 0.5423763,0.281754 0.3345827,0 0.5212447,-0.2359689 0.186662,-0.2394909 0.186662,-0.6585998 z"
       style="font-weight:bold;font-family:Arial;-inkscape-font-specification:Arial"
       id="path4083" />
    <path
       d="m 14.511095,5.4270154 q 0,1.2573268 -0.433197,1.9053608 -0.429674,0.648034 -1.292546,0.648034 -1.704611,0 -1.704611,-2.5533948 0,-0.8910468 0.186662,-1.4545546 0.186662,-0.5635078 0.559986,-0.8311741 0.373324,-0.2676662 0.986139,-0.2676662 0.880481,0 1.289024,0.6374683 0.408543,0.6374682 0.408543,1.9159266 z m -0.993182,0 q 0,-0.6867752 -0.06692,-1.067143 -0.06692,-0.3803678 -0.214837,-0.5458982 -0.147921,-0.1655304 -0.429675,-0.1655304 -0.299364,0 -0.454328,0.1690523 -0.151443,0.1655305 -0.21836,0.5458982 -0.06339,0.3768459 -0.06339,1.0636211 0,0.6797313 0.06692,1.063621 0.07044,0.3803678 0.21836,0.5458982 0.151442,0.1655304 0.436718,0.1655304 0.281754,0 0.433197,-0.1725743 0.154965,-0.1760962 0.221881,-0.5599859 0.07044,-0.3838897 0.07044,-1.0424894 z"
       style="font-weight:bold;font-family:Arial;-inkscape-font-specification:Arial"
       id="path4085" />
  </g>
</svg>
