<?xml version="1.0" encoding="UTF-8"?>
<svg xmlns="http://www.w3.org/2000/svg" xmlns:xlink="http://www.w3.org/1999/xlink" width="15.353993" height="18" viewBox="0 0 15.353993 18">
<path fill-rule="nonzero" fill="rgb(0%, 0%, 0%)" fill-opacity="1" stroke-width="0.972258" stroke-linecap="butt" stroke-linejoin="miter" stroke="rgb(100%, 100%, 100%)" stroke-opacity="1" stroke-miterlimit="4" d="M 4.529794 0.484654 L 10.452491 0.48847 L 14.512896 12.009488 L 14.497631 17.096443 L 0.48847 17.065914 L 0.484654 12.009488 Z M 4.529794 0.484654 " transform="matrix(1.023605, 0, 0, 1.023605, 0, 0)"/>
<path fill-rule="nonzero" fill="rgb(100%, 81.176471%, 0%)" fill-opacity="1" d="M 13.941406 15.144531 C 13.941406 15.96875 13.273438 16.640625 12.449219 16.640625 C 11.625 16.640625 10.960938 15.96875 10.960938 15.144531 C 10.960938 14.328125 11.625 13.65625 12.449219 13.65625 C 13.273438 13.65625 13.941406 14.328125 13.941406 15.144531 Z M 13.941406 15.144531 "/>
<path fill-rule="nonzero" fill="rgb(100%, 100%, 100%)" fill-opacity="1" d="M 9.167969 3.835938 C 9.167969 4.660156 8.5 5.328125 7.675781 5.328125 C 6.851562 5.328125 6.1875 4.660156 6.1875 3.835938 C 6.1875 3.015625 6.851562 2.347656 7.675781 2.347656 C 8.5 2.347656 9.167969 3.015625 9.167969 3.835938 Z M 9.167969 3.835938 "/>
<path fill-rule="nonzero" fill="rgb(100%, 81.176471%, 0%)" fill-opacity="1" d="M 4.304688 15.144531 C 4.304688 15.96875 3.636719 16.640625 2.8125 16.640625 C 1.988281 16.640625 1.324219 15.96875 1.324219 15.144531 C 1.324219 14.328125 1.988281 13.65625 2.8125 13.65625 C 3.636719 13.65625 4.304688 14.328125 4.304688 15.144531 Z M 4.304688 15.144531 "/>
</svg>
