<?xml version="1.0" encoding="UTF-8"?>
<svg xmlns="http://www.w3.org/2000/svg" xmlns:xlink="http://www.w3.org/1999/xlink" width="21" height="17" viewBox="0 0 21 17">
<path fill-rule="nonzero" fill="rgb(95.686275%, 85.490196%, 43.529412%)" fill-opacity="1" stroke-width="0.8" stroke-linecap="butt" stroke-linejoin="round" stroke="rgb(0%, 0%, 0%)" stroke-opacity="1" stroke-miterlimit="4" d="M 0.398438 0.398438 L 20.601562 0.398438 L 10.5 16.601562 Z M 0.398438 0.398438 "/>
<path fill-rule="nonzero" fill="rgb(0%, 0%, 0%)" fill-opacity="1" d="M 11.253906 8.339844 L 9.636719 8.339844 C 9.632812 8.105469 9.628906 7.964844 9.628906 7.914062 C 9.628906 7.390625 9.71875 6.957031 9.890625 6.617188 C 10.0625 6.28125 10.410156 5.898438 10.929688 5.476562 C 11.453125 5.054688 11.761719 4.777344 11.863281 4.644531 C 12.019531 4.4375 12.101562 4.210938 12.101562 3.960938 C 12.101562 3.613281 11.960938 3.316406 11.683594 3.066406 C 11.40625 2.820312 11.03125 2.695312 10.5625 2.695312 C 10.109375 2.695312 9.730469 2.824219 9.425781 3.082031 C 9.121094 3.339844 8.914062 3.734375 8.796875 4.265625 L 7.160156 4.0625 C 7.207031 3.304688 7.53125 2.660156 8.128906 2.132812 C 8.726562 1.601562 9.515625 1.335938 10.488281 1.335938 C 11.511719 1.335938 12.324219 1.605469 12.929688 2.140625 C 13.535156 2.675781 13.839844 3.300781 13.839844 4.011719 C 13.839844 4.402344 13.726562 4.777344 13.503906 5.128906 C 13.285156 5.480469 12.808594 5.957031 12.082031 6.5625 C 11.703125 6.875 11.46875 7.125 11.378906 7.316406 C 11.289062 7.507812 11.246094 7.847656 11.253906 8.339844 Z M 9.636719 10.738281 L 9.636719 8.953125 L 11.421875 8.953125 L 11.421875 10.738281 Z M 9.636719 10.738281 "/>
</svg>
