<?xml version="1.0" encoding="UTF-8"?>
<svg xmlns="http://www.w3.org/2000/svg" xmlns:xlink="http://www.w3.org/1999/xlink" width="21" height="17" viewBox="0 0 21 17">
<path fill-rule="nonzero" fill="rgb(95.686275%, 85.490196%, 43.529412%)" fill-opacity="1" stroke-width="0.8" stroke-linecap="butt" stroke-linejoin="round" stroke="rgb(0%, 0%, 0%)" stroke-opacity="1" stroke-miterlimit="4" d="M 0.398438 0.398438 L 20.601562 0.398438 L 10.5 16.601562 Z M 0.398438 0.398438 "/>
<path fill-rule="nonzero" fill="rgb(0%, 0%, 0%)" fill-opacity="1" d="M 9.03125 9.449219 L 7.523438 9.449219 L 7.523438 3.761719 C 6.96875 4.277344 6.320312 4.660156 5.570312 4.90625 L 5.570312 3.539062 C 5.964844 3.410156 6.394531 3.164062 6.855469 2.804688 C 7.316406 2.445312 7.632812 2.023438 7.804688 1.542969 L 9.03125 1.542969 Z M 9.03125 9.449219 "/>
<path fill-rule="nonzero" fill="rgb(0%, 0%, 0%)" fill-opacity="1" d="M 12.070312 1.542969 C 12.832031 1.542969 13.429688 1.816406 13.859375 2.359375 C 14.371094 3.003906 14.628906 4.074219 14.628906 5.566406 C 14.628906 7.058594 14.371094 8.128906 13.855469 8.78125 C 13.429688 9.316406 12.832031 9.585938 12.070312 9.585938 C 11.304688 9.585938 10.6875 9.289062 10.21875 8.703125 C 9.75 8.113281 9.515625 7.0625 9.515625 5.550781 C 9.515625 4.070312 9.773438 3 10.289062 2.351562 C 10.714844 1.8125 11.308594 1.542969 12.070312 1.542969 Z M 12.070312 2.796875 C 11.886719 2.796875 11.726562 2.855469 11.582031 2.96875 C 11.4375 3.085938 11.328125 3.296875 11.25 3.597656 C 11.144531 3.988281 11.09375 4.644531 11.09375 5.566406 C 11.09375 6.492188 11.140625 7.125 11.234375 7.472656 C 11.328125 7.816406 11.445312 8.046875 11.585938 8.160156 C 11.726562 8.277344 11.886719 8.332031 12.070312 8.332031 C 12.253906 8.332031 12.417969 8.273438 12.558594 8.160156 C 12.703125 8.042969 12.8125 7.835938 12.894531 7.535156 C 12.996094 7.148438 13.046875 6.492188 13.046875 5.566406 C 13.046875 4.644531 13.003906 4.007812 12.910156 3.664062 C 12.816406 3.316406 12.699219 3.085938 12.558594 2.96875 C 12.414062 2.855469 12.253906 2.796875 12.070312 2.796875 Z M 12.070312 2.796875 "/>
</svg>
