<?xml version="1.0" encoding="UTF-8"?>
<svg xmlns="http://www.w3.org/2000/svg" xmlns:xlink="http://www.w3.org/1999/xlink" width="21" height="17" viewBox="0 0 21 17">
<path fill-rule="nonzero" fill="rgb(95.686275%, 85.490196%, 43.529412%)" fill-opacity="1" stroke-width="0.8" stroke-linecap="butt" stroke-linejoin="round" stroke="rgb(0%, 0%, 0%)" stroke-opacity="1" stroke-miterlimit="4" d="M 0.398438 0.398438 L 20.601562 0.398438 L 10.5 16.601562 Z M 0.398438 0.398438 "/>
<path fill-rule="nonzero" fill="rgb(0%, 0%, 0%)" fill-opacity="1" d="M 9.457031 9.449219 L 7.949219 9.449219 L 7.949219 3.761719 C 7.398438 4.277344 6.746094 4.660156 6 4.90625 L 6 3.539062 C 6.394531 3.410156 6.820312 3.164062 7.28125 2.804688 C 7.746094 2.445312 8.0625 2.023438 8.234375 1.542969 L 9.457031 1.542969 Z M 9.457031 9.449219 "/>
<path fill-rule="nonzero" fill="rgb(0%, 0%, 0%)" fill-opacity="1" d="M 13.402344 9.449219 L 11.890625 9.449219 L 11.890625 3.761719 C 11.339844 4.277344 10.691406 4.660156 9.941406 4.90625 L 9.941406 3.539062 C 10.335938 3.410156 10.761719 3.164062 11.226562 2.804688 C 11.6875 2.445312 12.003906 2.023438 12.175781 1.542969 L 13.402344 1.542969 Z M 13.402344 9.449219 "/>
</svg>
