<?xml version="1.0" encoding="UTF-8"?>
<svg xmlns="http://www.w3.org/2000/svg" xmlns:xlink="http://www.w3.org/1999/xlink" width="21" height="17" viewBox="0 0 21 17">
<path fill-rule="nonzero" fill="rgb(95.686275%, 85.490196%, 43.529412%)" fill-opacity="1" stroke-width="0.8" stroke-linecap="butt" stroke-linejoin="round" stroke="rgb(0%, 0%, 0%)" stroke-opacity="1" stroke-miterlimit="4" d="M 0.398438 0.398438 L 20.601562 0.398438 L 10.5 16.601562 Z M 0.398438 0.398438 "/>
<path fill-rule="nonzero" fill="rgb(0%, 0%, 0%)" fill-opacity="1" d="M 8.542969 9.449219 L 7.035156 9.449219 L 7.035156 3.761719 C 6.480469 4.277344 5.832031 4.660156 5.082031 4.90625 L 5.082031 3.539062 C 5.476562 3.410156 5.90625 3.164062 6.367188 2.804688 C 6.828125 2.445312 7.144531 2.023438 7.316406 1.542969 L 8.542969 1.542969 Z M 8.542969 9.449219 "/>
<path fill-rule="nonzero" fill="rgb(0%, 0%, 0%)" fill-opacity="1" d="M 14.316406 8.050781 L 14.316406 9.449219 L 9.027344 9.449219 C 9.082031 8.921875 9.253906 8.417969 9.542969 7.945312 C 9.828125 7.46875 10.394531 6.839844 11.238281 6.054688 C 11.917969 5.421875 12.335938 4.992188 12.492188 4.765625 C 12.699219 4.457031 12.800781 4.148438 12.800781 3.84375 C 12.800781 3.507812 12.710938 3.246094 12.53125 3.066406 C 12.351562 2.886719 12.101562 2.796875 11.78125 2.796875 C 11.464844 2.796875 11.214844 2.890625 11.03125 3.082031 C 10.84375 3.269531 10.734375 3.585938 10.707031 4.027344 L 9.203125 3.875 C 9.292969 3.042969 9.574219 2.449219 10.046875 2.085938 C 10.519531 1.726562 11.109375 1.542969 11.820312 1.542969 C 12.597656 1.542969 13.207031 1.753906 13.652344 2.171875 C 14.09375 2.59375 14.316406 3.113281 14.316406 3.734375 C 14.316406 4.089844 14.253906 4.429688 14.125 4.75 C 14 5.070312 13.796875 5.40625 13.523438 5.753906 C 13.339844 5.988281 13.007812 6.324219 12.535156 6.761719 C 12.058594 7.195312 11.753906 7.488281 11.628906 7.628906 C 11.5 7.773438 11.398438 7.914062 11.320312 8.050781 Z M 14.316406 8.050781 "/>
</svg>
