<?xml version="1.0" encoding="UTF-8"?>
<svg xmlns="http://www.w3.org/2000/svg" xmlns:xlink="http://www.w3.org/1999/xlink" width="21" height="17" viewBox="0 0 21 17">
<path fill-rule="nonzero" fill="rgb(95.686275%, 85.490196%, 43.529412%)" fill-opacity="1" stroke-width="0.8" stroke-linecap="butt" stroke-linejoin="round" stroke="rgb(0%, 0%, 0%)" stroke-opacity="1" stroke-miterlimit="4" d="M 0.398438 0.398438 L 20.601562 0.398438 L 10.5 16.601562 Z M 0.398438 0.398438 "/>
<path fill-rule="nonzero" fill="rgb(0%, 0%, 0%)" fill-opacity="1" d="M 8.972656 9.449219 L 7.460938 9.449219 L 7.460938 3.761719 C 6.910156 4.277344 6.261719 4.660156 5.511719 4.90625 L 5.511719 3.539062 C 5.90625 3.410156 6.335938 3.164062 6.796875 2.804688 C 7.257812 2.445312 7.574219 2.023438 7.746094 1.542969 L 8.972656 1.542969 Z M 8.972656 9.449219 "/>
<path fill-rule="nonzero" fill="rgb(0%, 0%, 0%)" fill-opacity="1" d="M 9.457031 7.363281 L 10.917969 7.183594 C 10.964844 7.554688 11.089844 7.839844 11.292969 8.039062 C 11.496094 8.234375 11.742188 8.332031 12.035156 8.332031 C 12.34375 8.332031 12.605469 8.214844 12.820312 7.980469 C 13.035156 7.742188 13.140625 7.425781 13.140625 7.023438 C 13.140625 6.644531 13.039062 6.34375 12.832031 6.121094 C 12.628906 5.898438 12.382812 5.789062 12.085938 5.789062 C 11.894531 5.789062 11.664062 5.824219 11.394531 5.902344 L 11.5625 4.671875 C 11.96875 4.679688 12.28125 4.59375 12.496094 4.40625 C 12.710938 4.214844 12.816406 3.96875 12.816406 3.65625 C 12.816406 3.390625 12.738281 3.179688 12.582031 3.023438 C 12.425781 2.863281 12.214844 2.785156 11.953125 2.785156 C 11.695312 2.785156 11.476562 2.875 11.292969 3.054688 C 11.109375 3.234375 11 3.496094 10.960938 3.839844 L 9.566406 3.601562 C 9.664062 3.125 9.8125 2.746094 10.007812 2.460938 C 10.199219 2.175781 10.472656 1.953125 10.824219 1.789062 C 11.171875 1.625 11.5625 1.542969 11.996094 1.542969 C 12.738281 1.542969 13.332031 1.78125 13.777344 2.253906 C 14.148438 2.640625 14.332031 3.078125 14.332031 3.5625 C 14.332031 4.253906 13.953125 4.804688 13.199219 5.21875 C 13.648438 5.316406 14.011719 5.53125 14.28125 5.867188 C 14.550781 6.203125 14.6875 6.609375 14.6875 7.085938 C 14.6875 7.777344 14.433594 8.367188 13.929688 8.855469 C 13.425781 9.339844 12.796875 9.585938 12.042969 9.585938 C 11.332031 9.585938 10.742188 9.378906 10.273438 8.96875 C 9.804688 8.558594 9.53125 8.023438 9.457031 7.363281 Z M 9.457031 7.363281 "/>
</svg>
