<?xml version="1.0" encoding="UTF-8"?>
<svg xmlns="http://www.w3.org/2000/svg" xmlns:xlink="http://www.w3.org/1999/xlink" width="21" height="17" viewBox="0 0 21 17">
<path fill-rule="nonzero" fill="rgb(95.686275%, 85.490196%, 43.529412%)" fill-opacity="1" stroke-width="0.8" stroke-linecap="butt" stroke-linejoin="round" stroke="rgb(0%, 0%, 0%)" stroke-opacity="1" stroke-miterlimit="4" d="M 0.398438 0.398438 L 20.601562 0.398438 L 10.5 16.601562 Z M 0.398438 0.398438 "/>
<path fill-rule="nonzero" fill="rgb(0%, 0%, 0%)" fill-opacity="1" d="M 8.757812 9.449219 L 7.246094 9.449219 L 7.246094 3.761719 C 6.695312 4.277344 6.046875 4.660156 5.296875 4.90625 L 5.296875 3.539062 C 5.691406 3.410156 6.121094 3.164062 6.582031 2.804688 C 7.042969 2.445312 7.359375 2.023438 7.53125 1.542969 L 8.757812 1.542969 Z M 8.757812 9.449219 "/>
<path fill-rule="nonzero" fill="rgb(0%, 0%, 0%)" fill-opacity="1" d="M 12.464844 9.449219 L 12.464844 7.867188 L 9.242188 7.867188 L 9.242188 6.546875 L 12.65625 1.542969 L 13.925781 1.542969 L 13.925781 6.539062 L 14.902344 6.539062 L 14.902344 7.867188 L 13.925781 7.867188 L 13.925781 9.449219 Z M 12.464844 6.539062 L 12.464844 3.847656 L 10.652344 6.539062 Z M 12.464844 6.539062 "/>
</svg>
