<?xml version="1.0" encoding="UTF-8"?>
<svg xmlns="http://www.w3.org/2000/svg" xmlns:xlink="http://www.w3.org/1999/xlink" width="21" height="17" viewBox="0 0 21 17">
<path fill-rule="nonzero" fill="rgb(95.686275%, 85.490196%, 43.529412%)" fill-opacity="1" stroke-width="0.8" stroke-linecap="butt" stroke-linejoin="round" stroke="rgb(0%, 0%, 0%)" stroke-opacity="1" stroke-miterlimit="4" d="M 0.398438 0.398438 L 20.601562 0.398438 L 10.5 16.601562 Z M 0.398438 0.398438 "/>
<path fill-rule="nonzero" fill="rgb(0%, 0%, 0%)" fill-opacity="1" d="M 8.941406 9.449219 L 7.429688 9.449219 L 7.429688 3.761719 C 6.878906 4.277344 6.230469 4.660156 5.480469 4.90625 L 5.480469 3.539062 C 5.875 3.410156 6.300781 3.164062 6.765625 2.804688 C 7.226562 2.445312 7.542969 2.023438 7.714844 1.542969 L 8.941406 1.542969 Z M 8.941406 9.449219 "/>
<path fill-rule="nonzero" fill="rgb(0%, 0%, 0%)" fill-opacity="1" d="M 9.421875 7.425781 L 10.925781 7.269531 C 10.96875 7.609375 11.097656 7.878906 11.308594 8.078125 C 11.519531 8.277344 11.761719 8.375 12.039062 8.375 C 12.355469 8.375 12.621094 8.25 12.839844 7.992188 C 13.058594 7.738281 13.167969 7.351562 13.167969 6.835938 C 13.167969 6.351562 13.058594 5.988281 12.84375 5.746094 C 12.625 5.503906 12.34375 5.386719 11.996094 5.386719 C 11.5625 5.386719 11.175781 5.578125 10.832031 5.960938 L 9.605469 5.78125 L 10.378906 1.683594 L 14.371094 1.683594 L 14.371094 3.097656 L 11.523438 3.097656 L 11.285156 4.433594 C 11.625 4.265625 11.96875 4.183594 12.316406 4.183594 C 12.988281 4.183594 13.554688 4.425781 14.019531 4.914062 C 14.488281 5.398438 14.71875 6.03125 14.71875 6.808594 C 14.71875 7.457031 14.53125 8.035156 14.15625 8.542969 C 13.644531 9.238281 12.933594 9.585938 12.023438 9.585938 C 11.296875 9.585938 10.703125 9.390625 10.246094 9 C 9.785156 8.609375 9.511719 8.085938 9.421875 7.425781 Z M 9.421875 7.425781 "/>
</svg>
