<?xml version="1.0" encoding="UTF-8"?>
<svg xmlns="http://www.w3.org/2000/svg" xmlns:xlink="http://www.w3.org/1999/xlink" width="21" height="17" viewBox="0 0 21 17">
<path fill-rule="nonzero" fill="rgb(95.686275%, 85.490196%, 43.529412%)" fill-opacity="1" stroke-width="0.8" stroke-linecap="butt" stroke-linejoin="round" stroke="rgb(0%, 0%, 0%)" stroke-opacity="1" stroke-miterlimit="4" d="M 0.398438 0.398438 L 20.601562 0.398438 L 10.5 16.601562 Z M 0.398438 0.398438 "/>
<path fill-rule="nonzero" fill="rgb(0%, 0%, 0%)" fill-opacity="1" d="M 8.957031 9.449219 L 7.449219 9.449219 L 7.449219 3.761719 C 6.898438 4.277344 6.246094 4.660156 5.5 4.90625 L 5.5 3.539062 C 5.894531 3.410156 6.320312 3.164062 6.785156 2.804688 C 7.246094 2.445312 7.5625 2.023438 7.734375 1.542969 L 8.957031 1.542969 Z M 8.957031 9.449219 "/>
<path fill-rule="nonzero" fill="rgb(0%, 0%, 0%)" fill-opacity="1" d="M 14.554688 3.503906 L 13.09375 3.667969 C 13.058594 3.367188 12.964844 3.144531 12.816406 3 C 12.664062 2.855469 12.46875 2.785156 12.230469 2.785156 C 11.910156 2.785156 11.640625 2.929688 11.421875 3.214844 C 11.199219 3.5 11.0625 4.097656 11.003906 5.003906 C 11.382812 4.558594 11.847656 4.335938 12.40625 4.335938 C 13.035156 4.335938 13.578125 4.578125 14.027344 5.058594 C 14.476562 5.535156 14.699219 6.15625 14.699219 6.914062 C 14.699219 7.722656 14.464844 8.367188 13.992188 8.855469 C 13.519531 9.339844 12.910156 9.585938 12.171875 9.585938 C 11.375 9.585938 10.722656 9.277344 10.210938 8.660156 C 9.699219 8.039062 9.441406 7.027344 9.441406 5.621094 C 9.441406 4.179688 9.707031 3.136719 10.242188 2.5 C 10.777344 1.863281 11.46875 1.542969 12.320312 1.542969 C 12.917969 1.542969 13.414062 1.710938 13.804688 2.046875 C 14.199219 2.382812 14.449219 2.867188 14.554688 3.503906 Z M 11.132812 6.796875 C 11.132812 7.289062 11.246094 7.667969 11.472656 7.933594 C 11.699219 8.199219 11.957031 8.332031 12.246094 8.332031 C 12.523438 8.332031 12.757812 8.222656 12.945312 8.007812 C 13.128906 7.789062 13.222656 7.429688 13.222656 6.933594 C 13.222656 6.417969 13.121094 6.042969 12.921875 5.804688 C 12.722656 5.566406 12.472656 5.449219 12.171875 5.449219 C 11.878906 5.449219 11.636719 5.5625 11.433594 5.789062 C 11.234375 6.019531 11.132812 6.351562 11.132812 6.796875 Z M 11.132812 6.796875 "/>
</svg>
