<?xml version="1.0" encoding="UTF-8"?>
<svg xmlns="http://www.w3.org/2000/svg" xmlns:xlink="http://www.w3.org/1999/xlink" width="21" height="17" viewBox="0 0 21 17">
<path fill-rule="nonzero" fill="rgb(95.686275%, 85.490196%, 43.529412%)" fill-opacity="1" stroke-width="0.8" stroke-linecap="butt" stroke-linejoin="round" stroke="rgb(0%, 0%, 0%)" stroke-opacity="1" stroke-miterlimit="4" d="M 0.398438 0.398438 L 20.601562 0.398438 L 10.5 16.601562 Z M 0.398438 0.398438 "/>
<path fill-rule="nonzero" fill="rgb(0%, 0%, 0%)" fill-opacity="1" d="M 13.625 9.082031 L 13.625 10.738281 L 7.375 10.738281 C 7.441406 10.113281 7.644531 9.519531 7.984375 8.957031 C 8.320312 8.398438 8.992188 7.652344 9.988281 6.726562 C 10.792969 5.976562 11.285156 5.46875 11.46875 5.203125 C 11.714844 4.835938 11.835938 4.472656 11.835938 4.113281 C 11.835938 3.714844 11.730469 3.410156 11.515625 3.195312 C 11.300781 2.980469 11.007812 2.875 10.628906 2.875 C 10.257812 2.875 9.960938 2.984375 9.742188 3.210938 C 9.519531 3.433594 9.394531 3.808594 9.359375 4.328125 L 7.582031 4.148438 C 7.6875 3.167969 8.019531 2.464844 8.578125 2.035156 C 9.136719 1.609375 9.835938 1.394531 10.675781 1.394531 C 11.59375 1.394531 12.3125 1.640625 12.839844 2.136719 C 13.363281 2.632812 13.625 3.25 13.625 3.984375 C 13.625 4.402344 13.550781 4.800781 13.402344 5.179688 C 13.25 5.558594 13.011719 5.957031 12.6875 6.371094 C 12.472656 6.648438 12.082031 7.042969 11.519531 7.558594 C 10.957031 8.074219 10.597656 8.417969 10.449219 8.585938 C 10.300781 8.757812 10.175781 8.921875 10.085938 9.082031 Z M 13.625 9.082031 "/>
</svg>
