<?xml version="1.0" encoding="UTF-8"?>
<svg xmlns="http://www.w3.org/2000/svg" xmlns:xlink="http://www.w3.org/1999/xlink" width="21" height="17" viewBox="0 0 21 17">
<path fill-rule="nonzero" fill="rgb(95.686275%, 85.490196%, 43.529412%)" fill-opacity="1" stroke-width="0.8" stroke-linecap="butt" stroke-linejoin="round" stroke="rgb(0%, 0%, 0%)" stroke-opacity="1" stroke-miterlimit="4" d="M 0.398438 0.398438 L 20.601562 0.398438 L 10.5 16.601562 Z M 0.398438 0.398438 "/>
<path fill-rule="nonzero" fill="rgb(0%, 0%, 0%)" fill-opacity="1" d="M 7.410156 8.269531 L 9.136719 8.058594 C 9.191406 8.5 9.339844 8.835938 9.578125 9.070312 C 9.820312 9.300781 10.113281 9.417969 10.457031 9.417969 C 10.824219 9.417969 11.132812 9.277344 11.386719 9 C 11.636719 8.71875 11.761719 8.34375 11.761719 7.871094 C 11.761719 7.421875 11.640625 7.066406 11.402344 6.804688 C 11.160156 6.539062 10.867188 6.410156 10.519531 6.410156 C 10.289062 6.410156 10.015625 6.453125 9.699219 6.542969 L 9.898438 5.089844 C 10.378906 5.101562 10.746094 4.996094 11 4.773438 C 11.253906 4.554688 11.382812 4.257812 11.382812 3.890625 C 11.382812 3.578125 11.289062 3.328125 11.101562 3.140625 C 10.917969 2.953125 10.667969 2.859375 10.359375 2.859375 C 10.054688 2.859375 9.796875 2.96875 9.578125 3.179688 C 9.363281 3.390625 9.234375 3.699219 9.1875 4.105469 L 7.542969 3.824219 C 7.65625 3.261719 7.828125 2.8125 8.058594 2.476562 C 8.289062 2.140625 8.613281 1.875 9.023438 1.683594 C 9.4375 1.492188 9.898438 1.394531 10.410156 1.394531 C 11.289062 1.394531 11.988281 1.675781 12.519531 2.234375 C 12.953125 2.691406 13.171875 3.207031 13.171875 3.78125 C 13.171875 4.597656 12.726562 5.25 11.832031 5.738281 C 12.367188 5.851562 12.792969 6.105469 13.113281 6.503906 C 13.429688 6.902344 13.589844 7.382812 13.589844 7.945312 C 13.589844 8.761719 13.292969 9.457031 12.695312 10.035156 C 12.101562 10.609375 11.355469 10.898438 10.46875 10.898438 C 9.625 10.898438 8.929688 10.65625 8.375 10.171875 C 7.820312 9.6875 7.496094 9.050781 7.410156 8.269531 Z M 7.410156 8.269531 "/>
</svg>
