<?xml version="1.0" encoding="UTF-8"?>
<svg xmlns="http://www.w3.org/2000/svg" xmlns:xlink="http://www.w3.org/1999/xlink" width="21" height="17" viewBox="0 0 21 17">
<path fill-rule="nonzero" fill="rgb(95.686275%, 85.490196%, 43.529412%)" fill-opacity="1" stroke-width="0.8" stroke-linecap="butt" stroke-linejoin="round" stroke="rgb(0%, 0%, 0%)" stroke-opacity="1" stroke-miterlimit="4" d="M 0.398438 0.398438 L 20.601562 0.398438 L 10.5 16.601562 Z M 0.398438 0.398438 "/>
<path fill-rule="nonzero" fill="rgb(0%, 0%, 0%)" fill-opacity="1" d="M 7.371094 8.34375 L 9.148438 8.160156 C 9.199219 8.5625 9.347656 8.882812 9.597656 9.117188 C 9.847656 9.351562 10.136719 9.46875 10.460938 9.46875 C 10.835938 9.46875 11.148438 9.316406 11.40625 9.015625 C 11.664062 8.710938 11.796875 8.257812 11.796875 7.648438 C 11.796875 7.074219 11.667969 6.648438 11.410156 6.363281 C 11.15625 6.078125 10.820312 5.933594 10.410156 5.933594 C 9.898438 5.933594 9.441406 6.160156 9.035156 6.613281 L 7.585938 6.402344 L 8.5 1.558594 L 13.21875 1.558594 L 13.21875 3.230469 L 9.851562 3.230469 L 9.574219 4.808594 C 9.972656 4.609375 10.378906 4.511719 10.792969 4.511719 C 11.582031 4.511719 12.253906 4.800781 12.804688 5.375 C 13.355469 5.949219 13.628906 6.699219 13.628906 7.617188 C 13.628906 8.382812 13.40625 9.066406 12.960938 9.664062 C 12.359375 10.488281 11.519531 10.898438 10.441406 10.898438 C 9.582031 10.898438 8.882812 10.667969 8.34375 10.207031 C 7.800781 9.746094 7.476562 9.125 7.371094 8.34375 Z M 7.371094 8.34375 "/>
</svg>
