<?xml version="1.0" encoding="UTF-8"?>
<svg xmlns="http://www.w3.org/2000/svg" xmlns:xlink="http://www.w3.org/1999/xlink" width="21" height="17" viewBox="0 0 21 17">
<path fill-rule="nonzero" fill="rgb(95.686275%, 85.490196%, 43.529412%)" fill-opacity="1" stroke-width="0.8" stroke-linecap="butt" stroke-linejoin="round" stroke="rgb(0%, 0%, 0%)" stroke-opacity="1" stroke-miterlimit="4" d="M 0.398438 0.398438 L 20.601562 0.398438 L 10.5 16.601562 Z M 0.398438 0.398438 "/>
<path fill-rule="nonzero" fill="rgb(0%, 0%, 0%)" fill-opacity="1" d="M 13.4375 3.710938 L 11.710938 3.902344 C 11.667969 3.546875 11.558594 3.285156 11.378906 3.113281 C 11.203125 2.945312 10.972656 2.859375 10.6875 2.859375 C 10.3125 2.859375 9.992188 3.03125 9.730469 3.367188 C 9.472656 3.707031 9.308594 4.414062 9.238281 5.484375 C 9.683594 4.957031 10.238281 4.695312 10.898438 4.695312 C 11.640625 4.695312 12.28125 4.980469 12.8125 5.546875 C 13.339844 6.113281 13.605469 6.84375 13.605469 7.742188 C 13.605469 8.695312 13.328125 9.457031 12.769531 10.035156 C 12.210938 10.609375 11.492188 10.898438 10.617188 10.898438 C 9.679688 10.898438 8.90625 10.53125 8.300781 9.800781 C 7.695312 9.074219 7.394531 7.875 7.394531 6.210938 C 7.394531 4.507812 7.707031 3.277344 8.339844 2.523438 C 8.96875 1.773438 9.789062 1.394531 10.796875 1.394531 C 11.5 1.394531 12.085938 1.59375 12.550781 1.988281 C 13.015625 2.382812 13.308594 2.957031 13.4375 3.710938 Z M 9.390625 7.601562 C 9.390625 8.183594 9.527344 8.628906 9.792969 8.945312 C 10.058594 9.261719 10.363281 9.417969 10.707031 9.417969 C 11.035156 9.417969 11.3125 9.289062 11.53125 9.03125 C 11.75 8.773438 11.863281 8.351562 11.863281 7.761719 C 11.863281 7.15625 11.742188 6.714844 11.507812 6.433594 C 11.269531 6.152344 10.972656 6.007812 10.617188 6.007812 C 10.273438 6.007812 9.984375 6.144531 9.746094 6.414062 C 9.511719 6.679688 9.390625 7.078125 9.390625 7.601562 Z M 9.390625 7.601562 "/>
</svg>
