<?xml version="1.0" encoding="UTF-8"?>
<svg xmlns="http://www.w3.org/2000/svg" xmlns:xlink="http://www.w3.org/1999/xlink" width="21" height="17" viewBox="0 0 21 17">
<path fill-rule="nonzero" fill="rgb(95.686275%, 85.490196%, 43.529412%)" fill-opacity="1" stroke-width="0.8" stroke-linecap="butt" stroke-linejoin="round" stroke="rgb(0%, 0%, 0%)" stroke-opacity="1" stroke-miterlimit="4" d="M 0.398438 0.398438 L 20.601562 0.398438 L 10.5 16.601562 Z M 0.398438 0.398438 "/>
<path fill-rule="nonzero" fill="rgb(0%, 0%, 0%)" fill-opacity="1" d="M 8.996094 5.71875 C 8.535156 5.523438 8.199219 5.253906 7.988281 4.914062 C 7.78125 4.574219 7.675781 4.199219 7.675781 3.792969 C 7.675781 3.101562 7.917969 2.527344 8.402344 2.074219 C 8.886719 1.621094 9.574219 1.394531 10.46875 1.394531 C 11.351562 1.394531 12.039062 1.621094 12.527344 2.074219 C 13.015625 2.527344 13.261719 3.101562 13.261719 3.792969 C 13.261719 4.226562 13.148438 4.609375 12.925781 4.945312 C 12.699219 5.28125 12.386719 5.539062 11.980469 5.71875 C 12.496094 5.925781 12.886719 6.226562 13.15625 6.625 C 13.425781 7.023438 13.558594 7.480469 13.558594 8.003906 C 13.558594 8.863281 13.285156 9.558594 12.738281 10.097656 C 12.191406 10.636719 11.460938 10.902344 10.550781 10.902344 C 9.703125 10.902344 9 10.679688 8.4375 10.238281 C 7.773438 9.710938 7.441406 8.992188 7.441406 8.078125 C 7.441406 7.574219 7.566406 7.113281 7.816406 6.691406 C 8.066406 6.269531 8.457031 5.945312 8.996094 5.71875 Z M 9.363281 3.921875 C 9.363281 4.277344 9.464844 4.554688 9.664062 4.753906 C 9.867188 4.953125 10.132812 5.050781 10.46875 5.050781 C 10.808594 5.050781 11.078125 4.949219 11.28125 4.75 C 11.484375 4.546875 11.585938 4.269531 11.585938 3.914062 C 11.585938 3.582031 11.484375 3.3125 11.285156 3.113281 C 11.082031 2.910156 10.816406 2.808594 10.488281 2.808594 C 10.144531 2.808594 9.871094 2.910156 9.667969 3.113281 C 9.464844 3.316406 9.363281 3.585938 9.363281 3.921875 Z M 9.199219 7.90625 C 9.199219 8.398438 9.324219 8.78125 9.578125 9.054688 C 9.828125 9.332031 10.140625 9.46875 10.519531 9.46875 C 10.886719 9.46875 11.191406 9.335938 11.433594 9.074219 C 11.675781 8.808594 11.796875 8.425781 11.796875 7.925781 C 11.796875 7.492188 11.671875 7.140625 11.425781 6.875 C 11.179688 6.613281 10.871094 6.480469 10.492188 6.480469 C 10.058594 6.480469 9.734375 6.628906 9.519531 6.929688 C 9.304688 7.230469 9.199219 7.554688 9.199219 7.90625 Z M 9.199219 7.90625 "/>
</svg>
