<?xml version="1.0" encoding="UTF-8"?>
<svg xmlns="http://www.w3.org/2000/svg" xmlns:xlink="http://www.w3.org/1999/xlink" width="21" height="17" viewBox="0 0 21 17">
<path fill-rule="nonzero" fill="rgb(95.686275%, 85.490196%, 43.529412%)" fill-opacity="1" stroke-width="0.8" stroke-linecap="butt" stroke-linejoin="round" stroke="rgb(0%, 0%, 0%)" stroke-opacity="1" stroke-miterlimit="4" d="M 0.398438 0.398438 L 20.601562 0.398438 L 10.5 16.601562 Z M 0.398438 0.398438 "/>
<path fill-rule="nonzero" fill="rgb(0%, 0%, 0%)" fill-opacity="1" d="M 7.570312 8.585938 L 9.296875 8.394531 C 9.339844 8.746094 9.449219 9.007812 9.628906 9.175781 C 9.804688 9.347656 10.039062 9.429688 10.332031 9.429688 C 10.699219 9.429688 11.011719 9.261719 11.269531 8.921875 C 11.53125 8.585938 11.695312 7.882812 11.765625 6.816406 C 11.316406 7.335938 10.757812 7.597656 10.085938 7.597656 C 9.351562 7.597656 8.71875 7.3125 8.1875 6.75 C 7.660156 6.183594 7.394531 5.449219 7.394531 4.542969 C 7.394531 3.601562 7.671875 2.839844 8.234375 2.261719 C 8.792969 1.683594 9.507812 1.394531 10.375 1.394531 C 11.320312 1.394531 12.09375 1.761719 12.699219 2.488281 C 13.304688 3.21875 13.605469 4.421875 13.605469 6.09375 C 13.605469 7.792969 13.292969 9.019531 12.660156 9.773438 C 12.03125 10.527344 11.210938 10.902344 10.199219 10.902344 C 9.46875 10.902344 8.882812 10.710938 8.433594 10.324219 C 7.984375 9.9375 7.699219 9.355469 7.570312 8.585938 Z M 11.609375 4.6875 C 11.609375 4.113281 11.476562 3.667969 11.210938 3.351562 C 10.945312 3.03125 10.640625 2.875 10.292969 2.875 C 9.964844 2.875 9.691406 3.003906 9.472656 3.265625 C 9.253906 3.523438 9.144531 3.949219 9.144531 4.542969 C 9.144531 5.144531 9.261719 5.585938 9.5 5.867188 C 9.738281 6.148438 10.035156 6.289062 10.390625 6.289062 C 10.730469 6.289062 11.019531 6.152344 11.253906 5.882812 C 11.492188 5.613281 11.609375 5.214844 11.609375 4.6875 Z M 11.609375 4.6875 "/>
</svg>
