<?xml version="1.0" encoding="UTF-8"?>
<svg xmlns="http://www.w3.org/2000/svg" xmlns:xlink="http://www.w3.org/1999/xlink" width="21" height="14" viewBox="0 0 21 14">
<rect x="-2.1" y="-1.4" width="25.2" height="16.8" fill="rgb(0%, 0%, 0%)" fill-opacity="1"/>
<path fill-rule="nonzero" fill="rgb(100%, 100%, 100%)" fill-opacity="1" d="M 3 0.800781 L 18 0.800781 L 18 13.199219 L 3 13.199219 Z M 3 0.800781 "/>
<path fill-rule="nonzero" fill="rgb(100%, 100%, 100%)" fill-opacity="1" d="M 2.5 3.5 C 2.5 4.050781 2.050781 4.5 1.5 4.5 C 0.949219 4.5 0.5 4.050781 0.5 3.5 C 0.5 2.949219 0.949219 2.5 1.5 2.5 C 2.050781 2.5 2.5 2.949219 2.5 3.5 Z M 2.5 3.5 "/>
<path fill-rule="nonzero" fill="rgb(100%, 100%, 100%)" fill-opacity="1" d="M 2.5 7 C 2.5 7.550781 2.050781 8 1.5 8 C 0.949219 8 0.5 7.550781 0.5 7 C 0.5 6.449219 0.949219 6 1.5 6 C 2.050781 6 2.5 6.449219 2.5 7 Z M 2.5 7 "/>
<path fill-rule="nonzero" fill="rgb(100%, 100%, 100%)" fill-opacity="1" d="M 2.5 10.5 C 2.5 11.050781 2.050781 11.5 1.5 11.5 C 0.949219 11.5 0.5 11.050781 0.5 10.5 C 0.5 9.949219 0.949219 9.5 1.5 9.5 C 2.050781 9.5 2.5 9.949219 2.5 10.5 Z M 2.5 10.5 "/>
<path fill-rule="nonzero" fill="rgb(100%, 100%, 100%)" fill-opacity="1" d="M 20.5 3.5 C 20.5 4.050781 20.050781 4.5 19.5 4.5 C 18.949219 4.5 18.5 4.050781 18.5 3.5 C 18.5 2.949219 18.949219 2.5 19.5 2.5 C 20.050781 2.5 20.5 2.949219 20.5 3.5 Z M 20.5 3.5 "/>
<path fill-rule="nonzero" fill="rgb(100%, 100%, 100%)" fill-opacity="1" d="M 20.5 7 C 20.5 7.550781 20.050781 8 19.5 8 C 18.949219 8 18.5 7.550781 18.5 7 C 18.5 6.449219 18.949219 6 19.5 6 C 20.050781 6 20.5 6.449219 20.5 7 Z M 20.5 7 "/>
<path fill-rule="nonzero" fill="rgb(100%, 100%, 100%)" fill-opacity="1" d="M 20.5 10.5 C 20.5 11.050781 20.050781 11.5 19.5 11.5 C 18.949219 11.5 18.5 11.050781 18.5 10.5 C 18.5 9.949219 18.949219 9.5 19.5 9.5 C 20.050781 9.5 20.5 9.949219 20.5 10.5 Z M 20.5 10.5 "/>
<path fill-rule="nonzero" fill="rgb(0%, 0%, 0%)" fill-opacity="1" d="M 11.253906 9.074219 L 9.636719 9.074219 C 9.632812 8.839844 9.628906 8.699219 9.628906 8.648438 C 9.628906 8.121094 9.71875 7.691406 9.890625 7.351562 C 10.0625 7.015625 10.410156 6.632812 10.929688 6.210938 C 11.453125 5.785156 11.761719 5.507812 11.863281 5.378906 C 12.019531 5.171875 12.101562 4.941406 12.101562 4.691406 C 12.101562 4.347656 11.960938 4.046875 11.683594 3.800781 C 11.40625 3.554688 11.03125 3.429688 10.5625 3.429688 C 10.109375 3.429688 9.730469 3.558594 9.425781 3.816406 C 9.121094 4.074219 8.914062 4.46875 8.796875 4.996094 L 7.160156 4.792969 C 7.207031 4.035156 7.53125 3.394531 8.128906 2.863281 C 8.726562 2.335938 9.515625 2.070312 10.488281 2.070312 C 11.511719 2.070312 12.324219 2.339844 12.929688 2.875 C 13.535156 3.410156 13.839844 4.03125 13.839844 4.742188 C 13.839844 5.136719 13.726562 5.507812 13.503906 5.859375 C 13.285156 6.210938 12.808594 6.691406 12.082031 7.296875 C 11.703125 7.609375 11.46875 7.859375 11.378906 8.050781 C 11.289062 8.242188 11.246094 8.582031 11.253906 9.074219 Z M 9.636719 11.472656 L 9.636719 9.6875 L 11.421875 9.6875 L 11.421875 11.472656 Z M 9.636719 11.472656 "/>
</svg>
