<?xml version="1.0" encoding="UTF-8"?>
<svg xmlns="http://www.w3.org/2000/svg" xmlns:xlink="http://www.w3.org/1999/xlink" width="21" height="14" viewBox="0 0 21 14">
<rect x="-2.1" y="-1.4" width="25.2" height="16.8" fill="rgb(0%, 0%, 0%)" fill-opacity="1"/>
<path fill-rule="nonzero" fill="rgb(100%, 100%, 100%)" fill-opacity="1" d="M 3 0.800781 L 18 0.800781 L 18 13.199219 L 3 13.199219 Z M 3 0.800781 "/>
<path fill-rule="nonzero" fill="rgb(100%, 100%, 100%)" fill-opacity="1" d="M 2.5 3.5 C 2.5 4.050781 2.050781 4.5 1.5 4.5 C 0.949219 4.5 0.5 4.050781 0.5 3.5 C 0.5 2.949219 0.949219 2.5 1.5 2.5 C 2.050781 2.5 2.5 2.949219 2.5 3.5 Z M 2.5 3.5 "/>
<path fill-rule="nonzero" fill="rgb(100%, 100%, 100%)" fill-opacity="1" d="M 2.5 7 C 2.5 7.550781 2.050781 8 1.5 8 C 0.949219 8 0.5 7.550781 0.5 7 C 0.5 6.449219 0.949219 6 1.5 6 C 2.050781 6 2.5 6.449219 2.5 7 Z M 2.5 7 "/>
<path fill-rule="nonzero" fill="rgb(100%, 100%, 100%)" fill-opacity="1" d="M 2.5 10.5 C 2.5 11.050781 2.050781 11.5 1.5 11.5 C 0.949219 11.5 0.5 11.050781 0.5 10.5 C 0.5 9.949219 0.949219 9.5 1.5 9.5 C 2.050781 9.5 2.5 9.949219 2.5 10.5 Z M 2.5 10.5 "/>
<path fill-rule="nonzero" fill="rgb(100%, 100%, 100%)" fill-opacity="1" d="M 20.5 3.5 C 20.5 4.050781 20.050781 4.5 19.5 4.5 C 18.949219 4.5 18.5 4.050781 18.5 3.5 C 18.5 2.949219 18.949219 2.5 19.5 2.5 C 20.050781 2.5 20.5 2.949219 20.5 3.5 Z M 20.5 3.5 "/>
<path fill-rule="nonzero" fill="rgb(100%, 100%, 100%)" fill-opacity="1" d="M 20.5 7 C 20.5 7.550781 20.050781 8 19.5 8 C 18.949219 8 18.5 7.550781 18.5 7 C 18.5 6.449219 18.949219 6 19.5 6 C 20.050781 6 20.5 6.449219 20.5 7 Z M 20.5 7 "/>
<path fill-rule="nonzero" fill="rgb(100%, 100%, 100%)" fill-opacity="1" d="M 20.5 10.5 C 20.5 11.050781 20.050781 11.5 19.5 11.5 C 18.949219 11.5 18.5 11.050781 18.5 10.5 C 18.5 9.949219 18.949219 9.5 19.5 9.5 C 20.050781 9.5 20.5 9.949219 20.5 10.5 Z M 20.5 10.5 "/>
<path fill-rule="nonzero" fill="rgb(0%, 0%, 0%)" fill-opacity="1" d="M 6.984375 10.441406 L 5.613281 10.441406 L 5.613281 5.269531 C 5.109375 5.738281 4.519531 6.085938 3.839844 6.308594 L 3.839844 5.0625 C 4.199219 4.945312 4.585938 4.726562 5.007812 4.398438 C 5.425781 4.070312 5.714844 3.6875 5.871094 3.253906 L 6.984375 3.253906 Z M 6.984375 10.441406 "/>
<path fill-rule="nonzero" fill="rgb(0%, 0%, 0%)" fill-opacity="1" d="M 9.75 3.253906 C 10.441406 3.253906 10.984375 3.5 11.375 3.996094 C 11.839844 4.582031 12.070312 5.550781 12.070312 6.910156 C 12.070312 8.265625 11.835938 9.238281 11.367188 9.828125 C 10.980469 10.316406 10.441406 10.5625 9.75 10.5625 C 9.050781 10.5625 8.488281 10.292969 8.0625 9.757812 C 7.636719 9.222656 7.421875 8.269531 7.421875 6.894531 C 7.421875 5.546875 7.65625 4.578125 8.125 3.984375 C 8.515625 3.496094 9.054688 3.253906 9.75 3.253906 Z M 9.75 4.390625 C 9.582031 4.390625 9.433594 4.441406 9.304688 4.550781 C 9.171875 4.65625 9.074219 4.84375 9 5.117188 C 8.90625 5.472656 8.859375 6.070312 8.859375 6.910156 C 8.859375 7.75 8.902344 8.328125 8.984375 8.640625 C 9.070312 8.953125 9.175781 9.164062 9.304688 9.269531 C 9.433594 9.371094 9.582031 9.425781 9.75 9.425781 C 9.914062 9.425781 10.0625 9.371094 10.191406 9.265625 C 10.324219 9.160156 10.421875 8.96875 10.496094 8.695312 C 10.589844 8.34375 10.636719 7.75 10.636719 6.910156 C 10.636719 6.070312 10.59375 5.492188 10.507812 5.179688 C 10.425781 4.863281 10.320312 4.65625 10.191406 4.550781 C 10.0625 4.441406 9.914062 4.390625 9.75 4.390625 Z M 9.75 4.390625 "/>
<path fill-rule="nonzero" fill="rgb(0%, 0%, 0%)" fill-opacity="1" d="M 14.835938 3.253906 C 15.53125 3.253906 16.070312 3.5 16.460938 3.996094 C 16.925781 4.582031 17.160156 5.550781 17.160156 6.910156 C 17.160156 8.265625 16.925781 9.238281 16.457031 9.828125 C 16.070312 10.316406 15.53125 10.5625 14.835938 10.5625 C 14.140625 10.5625 13.578125 10.292969 13.152344 9.757812 C 12.726562 9.222656 12.511719 8.269531 12.511719 6.894531 C 12.511719 5.546875 12.746094 4.578125 13.214844 3.984375 C 13.601562 3.496094 14.140625 3.253906 14.835938 3.253906 Z M 14.835938 4.390625 C 14.671875 4.390625 14.523438 4.441406 14.390625 4.550781 C 14.261719 4.65625 14.160156 4.84375 14.089844 5.117188 C 13.996094 5.472656 13.945312 6.070312 13.945312 6.910156 C 13.945312 7.75 13.988281 8.328125 14.074219 8.640625 C 14.160156 8.953125 14.265625 9.164062 14.394531 9.269531 C 14.523438 9.371094 14.671875 9.425781 14.835938 9.425781 C 15 9.425781 15.148438 9.371094 15.28125 9.265625 C 15.410156 9.160156 15.511719 8.96875 15.582031 8.695312 C 15.675781 8.34375 15.726562 7.75 15.726562 6.910156 C 15.726562 6.070312 15.683594 5.492188 15.597656 5.179688 C 15.511719 4.863281 15.40625 4.65625 15.277344 4.550781 C 15.148438 4.441406 15 4.390625 14.835938 4.390625 Z M 14.835938 4.390625 "/>
</svg>
