<?xml version="1.0" encoding="UTF-8"?>
<svg xmlns="http://www.w3.org/2000/svg" xmlns:xlink="http://www.w3.org/1999/xlink" width="21" height="14" viewBox="0 0 21 14">
<rect x="-2.1" y="-1.4" width="25.2" height="16.8" fill="rgb(0%, 0%, 0%)" fill-opacity="1"/>
<path fill-rule="nonzero" fill="rgb(100%, 100%, 100%)" fill-opacity="1" d="M 3 0.800781 L 18 0.800781 L 18 13.199219 L 3 13.199219 Z M 3 0.800781 "/>
<path fill-rule="nonzero" fill="rgb(100%, 100%, 100%)" fill-opacity="1" d="M 2.5 3.5 C 2.5 4.050781 2.050781 4.5 1.5 4.5 C 0.949219 4.5 0.5 4.050781 0.5 3.5 C 0.5 2.949219 0.949219 2.5 1.5 2.5 C 2.050781 2.5 2.5 2.949219 2.5 3.5 Z M 2.5 3.5 "/>
<path fill-rule="nonzero" fill="rgb(100%, 100%, 100%)" fill-opacity="1" d="M 2.5 7 C 2.5 7.550781 2.050781 8 1.5 8 C 0.949219 8 0.5 7.550781 0.5 7 C 0.5 6.449219 0.949219 6 1.5 6 C 2.050781 6 2.5 6.449219 2.5 7 Z M 2.5 7 "/>
<path fill-rule="nonzero" fill="rgb(100%, 100%, 100%)" fill-opacity="1" d="M 2.5 10.5 C 2.5 11.050781 2.050781 11.5 1.5 11.5 C 0.949219 11.5 0.5 11.050781 0.5 10.5 C 0.5 9.949219 0.949219 9.5 1.5 9.5 C 2.050781 9.5 2.5 9.949219 2.5 10.5 Z M 2.5 10.5 "/>
<path fill-rule="nonzero" fill="rgb(100%, 100%, 100%)" fill-opacity="1" d="M 20.5 3.5 C 20.5 4.050781 20.050781 4.5 19.5 4.5 C 18.949219 4.5 18.5 4.050781 18.5 3.5 C 18.5 2.949219 18.949219 2.5 19.5 2.5 C 20.050781 2.5 20.5 2.949219 20.5 3.5 Z M 20.5 3.5 "/>
<path fill-rule="nonzero" fill="rgb(100%, 100%, 100%)" fill-opacity="1" d="M 20.5 7 C 20.5 7.550781 20.050781 8 19.5 8 C 18.949219 8 18.5 7.550781 18.5 7 C 18.5 6.449219 18.949219 6 19.5 6 C 20.050781 6 20.5 6.449219 20.5 7 Z M 20.5 7 "/>
<path fill-rule="nonzero" fill="rgb(100%, 100%, 100%)" fill-opacity="1" d="M 20.5 10.5 C 20.5 11.050781 20.050781 11.5 19.5 11.5 C 18.949219 11.5 18.5 11.050781 18.5 10.5 C 18.5 9.949219 18.949219 9.5 19.5 9.5 C 20.050781 9.5 20.5 9.949219 20.5 10.5 Z M 20.5 10.5 "/>
<path fill-rule="nonzero" fill="rgb(0%, 0%, 0%)" fill-opacity="1" d="M 6.902344 10.441406 L 5.53125 10.441406 L 5.53125 5.269531 C 5.027344 5.738281 4.4375 6.085938 3.757812 6.308594 L 3.757812 5.0625 C 4.113281 4.945312 4.503906 4.726562 4.921875 4.398438 C 5.34375 4.070312 5.632812 3.6875 5.789062 3.253906 L 6.902344 3.253906 Z M 6.902344 10.441406 "/>
<path fill-rule="nonzero" fill="rgb(0%, 0%, 0%)" fill-opacity="1" d="M 9.664062 3.253906 C 10.359375 3.253906 10.898438 3.5 11.289062 3.996094 C 11.757812 4.582031 11.988281 5.550781 11.988281 6.910156 C 11.988281 8.265625 11.753906 9.238281 11.285156 9.828125 C 10.898438 10.316406 10.359375 10.5625 9.664062 10.5625 C 8.96875 10.5625 8.40625 10.292969 7.980469 9.757812 C 7.554688 9.222656 7.339844 8.269531 7.339844 6.894531 C 7.339844 5.546875 7.574219 4.578125 8.042969 3.984375 C 8.429688 3.496094 8.972656 3.253906 9.664062 3.253906 Z M 9.664062 4.390625 C 9.5 4.390625 9.351562 4.441406 9.21875 4.550781 C 9.089844 4.65625 8.988281 4.84375 8.917969 5.117188 C 8.824219 5.472656 8.777344 6.070312 8.777344 6.910156 C 8.777344 7.75 8.820312 8.328125 8.902344 8.640625 C 8.988281 8.953125 9.09375 9.164062 9.222656 9.269531 C 9.351562 9.371094 9.5 9.425781 9.664062 9.425781 C 9.832031 9.425781 9.980469 9.371094 10.109375 9.265625 C 10.238281 9.160156 10.339844 8.96875 10.414062 8.695312 C 10.507812 8.34375 10.554688 7.75 10.554688 6.910156 C 10.554688 6.070312 10.511719 5.492188 10.425781 5.179688 C 10.34375 4.863281 10.234375 4.65625 10.105469 4.550781 C 9.976562 4.441406 9.832031 4.390625 9.664062 4.390625 Z M 9.664062 4.390625 "/>
<path fill-rule="nonzero" fill="rgb(0%, 0%, 0%)" fill-opacity="1" d="M 12.429688 8.597656 L 13.796875 8.457031 C 13.835938 8.765625 13.949219 9.011719 14.140625 9.191406 C 14.335938 9.375 14.554688 9.464844 14.804688 9.464844 C 15.09375 9.464844 15.335938 9.347656 15.535156 9.113281 C 15.734375 8.882812 15.832031 8.53125 15.832031 8.0625 C 15.832031 7.621094 15.734375 7.292969 15.535156 7.074219 C 15.339844 6.855469 15.082031 6.742188 14.765625 6.742188 C 14.375 6.742188 14.019531 6.917969 13.707031 7.265625 L 12.59375 7.105469 L 13.296875 3.378906 L 16.925781 3.378906 L 16.925781 4.664062 L 14.335938 4.664062 L 14.125 5.878906 C 14.429688 5.726562 14.742188 5.648438 15.0625 5.648438 C 15.667969 5.648438 16.183594 5.871094 16.609375 6.3125 C 17.03125 6.757812 17.242188 7.332031 17.242188 8.039062 C 17.242188 8.625 17.070312 9.152344 16.730469 9.613281 C 16.265625 10.246094 15.617188 10.5625 14.792969 10.5625 C 14.132812 10.5625 13.59375 10.382812 13.175781 10.03125 C 12.757812 9.675781 12.511719 9.199219 12.429688 8.597656 Z M 12.429688 8.597656 "/>
</svg>
