<?xml version="1.0" encoding="UTF-8"?>
<svg xmlns="http://www.w3.org/2000/svg" xmlns:xlink="http://www.w3.org/1999/xlink" width="21" height="14" viewBox="0 0 21 14">
<rect x="-2.1" y="-1.4" width="25.2" height="16.8" fill="rgb(0%, 0%, 0%)" fill-opacity="1"/>
<path fill-rule="nonzero" fill="rgb(100%, 100%, 100%)" fill-opacity="1" d="M 3 0.800781 L 18 0.800781 L 18 13.199219 L 3 13.199219 Z M 3 0.800781 "/>
<path fill-rule="nonzero" fill="rgb(100%, 100%, 100%)" fill-opacity="1" d="M 2.5 3.5 C 2.5 4.050781 2.050781 4.5 1.5 4.5 C 0.949219 4.5 0.5 4.050781 0.5 3.5 C 0.5 2.949219 0.949219 2.5 1.5 2.5 C 2.050781 2.5 2.5 2.949219 2.5 3.5 Z M 2.5 3.5 "/>
<path fill-rule="nonzero" fill="rgb(100%, 100%, 100%)" fill-opacity="1" d="M 2.5 7 C 2.5 7.550781 2.050781 8 1.5 8 C 0.949219 8 0.5 7.550781 0.5 7 C 0.5 6.449219 0.949219 6 1.5 6 C 2.050781 6 2.5 6.449219 2.5 7 Z M 2.5 7 "/>
<path fill-rule="nonzero" fill="rgb(100%, 100%, 100%)" fill-opacity="1" d="M 2.5 10.5 C 2.5 11.050781 2.050781 11.5 1.5 11.5 C 0.949219 11.5 0.5 11.050781 0.5 10.5 C 0.5 9.949219 0.949219 9.5 1.5 9.5 C 2.050781 9.5 2.5 9.949219 2.5 10.5 Z M 2.5 10.5 "/>
<path fill-rule="nonzero" fill="rgb(100%, 100%, 100%)" fill-opacity="1" d="M 20.5 3.5 C 20.5 4.050781 20.050781 4.5 19.5 4.5 C 18.949219 4.5 18.5 4.050781 18.5 3.5 C 18.5 2.949219 18.949219 2.5 19.5 2.5 C 20.050781 2.5 20.5 2.949219 20.5 3.5 Z M 20.5 3.5 "/>
<path fill-rule="nonzero" fill="rgb(100%, 100%, 100%)" fill-opacity="1" d="M 20.5 7 C 20.5 7.550781 20.050781 8 19.5 8 C 18.949219 8 18.5 7.550781 18.5 7 C 18.5 6.449219 18.949219 6 19.5 6 C 20.050781 6 20.5 6.449219 20.5 7 Z M 20.5 7 "/>
<path fill-rule="nonzero" fill="rgb(100%, 100%, 100%)" fill-opacity="1" d="M 20.5 10.5 C 20.5 11.050781 20.050781 11.5 19.5 11.5 C 18.949219 11.5 18.5 11.050781 18.5 10.5 C 18.5 9.949219 18.949219 9.5 19.5 9.5 C 20.050781 9.5 20.5 9.949219 20.5 10.5 Z M 20.5 10.5 "/>
<path fill-rule="nonzero" fill="rgb(0%, 0%, 0%)" fill-opacity="1" d="M 8.570312 11.472656 L 6.785156 11.472656 L 6.785156 4.75 C 6.136719 5.359375 5.367188 5.808594 4.484375 6.101562 L 4.484375 4.484375 C 4.949219 4.332031 5.453125 4.042969 6 3.617188 C 6.546875 3.191406 6.921875 2.695312 7.125 2.128906 L 8.570312 2.128906 Z M 8.570312 11.472656 "/>
<path fill-rule="nonzero" fill="rgb(0%, 0%, 0%)" fill-opacity="1" d="M 13.496094 2.128906 C 14.398438 2.128906 15.101562 2.449219 15.609375 3.09375 C 16.214844 3.855469 16.515625 5.117188 16.515625 6.882812 C 16.515625 8.644531 16.210938 9.910156 15.601562 10.679688 C 15.101562 11.3125 14.398438 11.628906 13.496094 11.628906 C 12.589844 11.628906 11.859375 11.28125 11.304688 10.585938 C 10.75 9.890625 10.476562 8.648438 10.476562 6.863281 C 10.476562 5.113281 10.78125 3.851562 11.390625 3.082031 C 11.890625 2.445312 12.59375 2.128906 13.496094 2.128906 Z M 13.496094 3.605469 C 13.28125 3.605469 13.085938 3.675781 12.917969 3.8125 C 12.75 3.949219 12.617188 4.199219 12.523438 4.554688 C 12.402344 5.015625 12.339844 5.789062 12.339844 6.882812 C 12.339844 7.972656 12.394531 8.722656 12.507812 9.132812 C 12.617188 9.542969 12.753906 9.8125 12.921875 9.949219 C 13.089844 10.085938 13.28125 10.152344 13.496094 10.152344 C 13.710938 10.152344 13.90625 10.082031 14.074219 9.945312 C 14.242188 9.808594 14.375 9.5625 14.46875 9.207031 C 14.589844 8.75 14.652344 7.972656 14.652344 6.882812 C 14.652344 5.789062 14.597656 5.039062 14.484375 4.632812 C 14.375 4.222656 14.238281 3.949219 14.070312 3.8125 C 13.902344 3.675781 13.710938 3.605469 13.496094 3.605469 Z M 13.496094 3.605469 "/>
</svg>
