<?xml version="1.0" encoding="UTF-8"?>
<svg xmlns="http://www.w3.org/2000/svg" xmlns:xlink="http://www.w3.org/1999/xlink" width="21" height="14" viewBox="0 0 21 14">
<rect x="-2.1" y="-1.4" width="25.2" height="16.8" fill="rgb(0%, 0%, 0%)" fill-opacity="1"/>
<path fill-rule="nonzero" fill="rgb(100%, 100%, 100%)" fill-opacity="1" d="M 3 0.800781 L 18 0.800781 L 18 13.199219 L 3 13.199219 Z M 3 0.800781 "/>
<path fill-rule="nonzero" fill="rgb(100%, 100%, 100%)" fill-opacity="1" d="M 2.5 3.5 C 2.5 4.050781 2.050781 4.5 1.5 4.5 C 0.949219 4.5 0.5 4.050781 0.5 3.5 C 0.5 2.949219 0.949219 2.5 1.5 2.5 C 2.050781 2.5 2.5 2.949219 2.5 3.5 Z M 2.5 3.5 "/>
<path fill-rule="nonzero" fill="rgb(100%, 100%, 100%)" fill-opacity="1" d="M 2.5 7 C 2.5 7.550781 2.050781 8 1.5 8 C 0.949219 8 0.5 7.550781 0.5 7 C 0.5 6.449219 0.949219 6 1.5 6 C 2.050781 6 2.5 6.449219 2.5 7 Z M 2.5 7 "/>
<path fill-rule="nonzero" fill="rgb(100%, 100%, 100%)" fill-opacity="1" d="M 2.5 10.5 C 2.5 11.050781 2.050781 11.5 1.5 11.5 C 0.949219 11.5 0.5 11.050781 0.5 10.5 C 0.5 9.949219 0.949219 9.5 1.5 9.5 C 2.050781 9.5 2.5 9.949219 2.5 10.5 Z M 2.5 10.5 "/>
<path fill-rule="nonzero" fill="rgb(100%, 100%, 100%)" fill-opacity="1" d="M 20.5 3.5 C 20.5 4.050781 20.050781 4.5 19.5 4.5 C 18.949219 4.5 18.5 4.050781 18.5 3.5 C 18.5 2.949219 18.949219 2.5 19.5 2.5 C 20.050781 2.5 20.5 2.949219 20.5 3.5 Z M 20.5 3.5 "/>
<path fill-rule="nonzero" fill="rgb(100%, 100%, 100%)" fill-opacity="1" d="M 20.5 7 C 20.5 7.550781 20.050781 8 19.5 8 C 18.949219 8 18.5 7.550781 18.5 7 C 18.5 6.449219 18.949219 6 19.5 6 C 20.050781 6 20.5 6.449219 20.5 7 Z M 20.5 7 "/>
<path fill-rule="nonzero" fill="rgb(100%, 100%, 100%)" fill-opacity="1" d="M 20.5 10.5 C 20.5 11.050781 20.050781 11.5 19.5 11.5 C 18.949219 11.5 18.5 11.050781 18.5 10.5 C 18.5 9.949219 18.949219 9.5 19.5 9.5 C 20.050781 9.5 20.5 9.949219 20.5 10.5 Z M 20.5 10.5 "/>
<path fill-rule="nonzero" fill="rgb(0%, 0%, 0%)" fill-opacity="1" d="M 7.734375 10.441406 L 6.363281 10.441406 L 6.363281 5.269531 C 5.863281 5.738281 5.273438 6.085938 4.59375 6.308594 L 4.59375 5.0625 C 4.949219 4.945312 5.339844 4.726562 5.757812 4.398438 C 6.179688 4.070312 6.46875 3.6875 6.625 3.253906 L 7.734375 3.253906 Z M 7.734375 10.441406 "/>
<path fill-rule="nonzero" fill="rgb(0%, 0%, 0%)" fill-opacity="1" d="M 11.320312 10.441406 L 9.949219 10.441406 L 9.949219 5.269531 C 9.445312 5.738281 8.855469 6.085938 8.175781 6.308594 L 8.175781 5.0625 C 8.535156 4.945312 8.921875 4.726562 9.34375 4.398438 C 9.761719 4.070312 10.050781 3.6875 10.207031 3.253906 L 11.320312 3.253906 Z M 11.320312 10.441406 "/>
<path fill-rule="nonzero" fill="rgb(0%, 0%, 0%)" fill-opacity="1" d="M 14.085938 3.253906 C 14.777344 3.253906 15.320312 3.5 15.710938 3.996094 C 16.175781 4.582031 16.40625 5.550781 16.40625 6.910156 C 16.40625 8.265625 16.171875 9.238281 15.703125 9.828125 C 15.316406 10.316406 14.777344 10.5625 14.085938 10.5625 C 13.386719 10.5625 12.824219 10.292969 12.398438 9.757812 C 11.972656 9.222656 11.757812 8.269531 11.757812 6.894531 C 11.757812 5.546875 11.992188 4.578125 12.460938 3.984375 C 12.851562 3.496094 13.390625 3.253906 14.085938 3.253906 Z M 14.085938 4.390625 C 13.917969 4.390625 13.769531 4.441406 13.640625 4.550781 C 13.507812 4.65625 13.410156 4.84375 13.335938 5.117188 C 13.242188 5.472656 13.195312 6.070312 13.195312 6.910156 C 13.195312 7.75 13.238281 8.328125 13.320312 8.640625 C 13.40625 8.953125 13.511719 9.164062 13.640625 9.269531 C 13.769531 9.371094 13.917969 9.425781 14.085938 9.425781 C 14.25 9.425781 14.398438 9.371094 14.527344 9.265625 C 14.660156 9.160156 14.757812 8.96875 14.832031 8.695312 C 14.925781 8.34375 14.972656 7.75 14.972656 6.910156 C 14.972656 6.070312 14.929688 5.492188 14.84375 5.179688 C 14.761719 4.863281 14.65625 4.65625 14.527344 4.550781 C 14.398438 4.441406 14.25 4.390625 14.085938 4.390625 Z M 14.085938 4.390625 "/>
</svg>
