<?xml version="1.0" encoding="UTF-8"?>
<svg xmlns="http://www.w3.org/2000/svg" xmlns:xlink="http://www.w3.org/1999/xlink" width="21" height="14" viewBox="0 0 21 14">
<rect x="-2.1" y="-1.4" width="25.2" height="16.8" fill="rgb(0%, 0%, 0%)" fill-opacity="1"/>
<path fill-rule="nonzero" fill="rgb(100%, 100%, 100%)" fill-opacity="1" d="M 3 0.800781 L 18 0.800781 L 18 13.199219 L 3 13.199219 Z M 3 0.800781 "/>
<path fill-rule="nonzero" fill="rgb(100%, 100%, 100%)" fill-opacity="1" d="M 2.5 3.5 C 2.5 4.050781 2.050781 4.5 1.5 4.5 C 0.949219 4.5 0.5 4.050781 0.5 3.5 C 0.5 2.949219 0.949219 2.5 1.5 2.5 C 2.050781 2.5 2.5 2.949219 2.5 3.5 Z M 2.5 3.5 "/>
<path fill-rule="nonzero" fill="rgb(100%, 100%, 100%)" fill-opacity="1" d="M 2.5 7 C 2.5 7.550781 2.050781 8 1.5 8 C 0.949219 8 0.5 7.550781 0.5 7 C 0.5 6.449219 0.949219 6 1.5 6 C 2.050781 6 2.5 6.449219 2.5 7 Z M 2.5 7 "/>
<path fill-rule="nonzero" fill="rgb(100%, 100%, 100%)" fill-opacity="1" d="M 2.5 10.5 C 2.5 11.050781 2.050781 11.5 1.5 11.5 C 0.949219 11.5 0.5 11.050781 0.5 10.5 C 0.5 9.949219 0.949219 9.5 1.5 9.5 C 2.050781 9.5 2.5 9.949219 2.5 10.5 Z M 2.5 10.5 "/>
<path fill-rule="nonzero" fill="rgb(100%, 100%, 100%)" fill-opacity="1" d="M 20.5 3.5 C 20.5 4.050781 20.050781 4.5 19.5 4.5 C 18.949219 4.5 18.5 4.050781 18.5 3.5 C 18.5 2.949219 18.949219 2.5 19.5 2.5 C 20.050781 2.5 20.5 2.949219 20.5 3.5 Z M 20.5 3.5 "/>
<path fill-rule="nonzero" fill="rgb(100%, 100%, 100%)" fill-opacity="1" d="M 20.5 7 C 20.5 7.550781 20.050781 8 19.5 8 C 18.949219 8 18.5 7.550781 18.5 7 C 18.5 6.449219 18.949219 6 19.5 6 C 20.050781 6 20.5 6.449219 20.5 7 Z M 20.5 7 "/>
<path fill-rule="nonzero" fill="rgb(100%, 100%, 100%)" fill-opacity="1" d="M 20.5 10.5 C 20.5 11.050781 20.050781 11.5 19.5 11.5 C 18.949219 11.5 18.5 11.050781 18.5 10.5 C 18.5 9.949219 18.949219 9.5 19.5 9.5 C 20.050781 9.5 20.5 9.949219 20.5 10.5 Z M 20.5 10.5 "/>
<path fill-rule="nonzero" fill="rgb(0%, 0%, 0%)" fill-opacity="1" d="M 7.652344 10.441406 L 6.28125 10.441406 L 6.28125 5.269531 C 5.78125 5.738281 5.1875 6.085938 4.507812 6.308594 L 4.507812 5.0625 C 4.867188 4.945312 5.257812 4.726562 5.675781 4.398438 C 6.09375 4.070312 6.382812 3.6875 6.539062 3.253906 L 7.652344 3.253906 Z M 7.652344 10.441406 "/>
<path fill-rule="nonzero" fill="rgb(0%, 0%, 0%)" fill-opacity="1" d="M 11.238281 10.441406 L 9.867188 10.441406 L 9.867188 5.269531 C 9.363281 5.738281 8.773438 6.085938 8.09375 6.308594 L 8.09375 5.0625 C 8.449219 4.945312 8.839844 4.726562 9.257812 4.398438 C 9.679688 4.070312 9.96875 3.6875 10.125 3.253906 L 11.238281 3.253906 Z M 11.238281 10.441406 "/>
<path fill-rule="nonzero" fill="rgb(0%, 0%, 0%)" fill-opacity="1" d="M 11.675781 8.597656 L 13.042969 8.457031 C 13.082031 8.765625 13.199219 9.011719 13.390625 9.191406 C 13.582031 9.375 13.804688 9.464844 14.054688 9.464844 C 14.339844 9.464844 14.582031 9.347656 14.78125 9.113281 C 14.980469 8.882812 15.078125 8.53125 15.078125 8.0625 C 15.078125 7.621094 14.980469 7.292969 14.785156 7.074219 C 14.585938 6.855469 14.332031 6.742188 14.015625 6.742188 C 13.621094 6.742188 13.269531 6.917969 12.957031 7.265625 L 11.84375 7.105469 L 12.546875 3.378906 L 16.171875 3.378906 L 16.171875 4.664062 L 13.585938 4.664062 L 13.371094 5.878906 C 13.675781 5.726562 13.988281 5.648438 14.308594 5.648438 C 14.917969 5.648438 15.433594 5.871094 15.855469 6.3125 C 16.28125 6.757812 16.492188 7.332031 16.492188 8.039062 C 16.492188 8.625 16.320312 9.152344 15.976562 9.613281 C 15.511719 10.246094 14.867188 10.5625 14.039062 10.5625 C 13.378906 10.5625 12.839844 10.382812 12.421875 10.03125 C 12.007812 9.675781 11.757812 9.199219 11.675781 8.597656 Z M 11.675781 8.597656 "/>
</svg>
