<?xml version="1.0" encoding="UTF-8"?>
<svg xmlns="http://www.w3.org/2000/svg" xmlns:xlink="http://www.w3.org/1999/xlink" width="21" height="14" viewBox="0 0 21 14">
<rect x="-2.1" y="-1.4" width="25.2" height="16.8" fill="rgb(0%, 0%, 0%)" fill-opacity="1"/>
<path fill-rule="nonzero" fill="rgb(100%, 100%, 100%)" fill-opacity="1" d="M 3 0.800781 L 18 0.800781 L 18 13.199219 L 3 13.199219 Z M 3 0.800781 "/>
<path fill-rule="nonzero" fill="rgb(100%, 100%, 100%)" fill-opacity="1" d="M 2.5 3.5 C 2.5 4.050781 2.050781 4.5 1.5 4.5 C 0.949219 4.5 0.5 4.050781 0.5 3.5 C 0.5 2.949219 0.949219 2.5 1.5 2.5 C 2.050781 2.5 2.5 2.949219 2.5 3.5 Z M 2.5 3.5 "/>
<path fill-rule="nonzero" fill="rgb(100%, 100%, 100%)" fill-opacity="1" d="M 2.5 7 C 2.5 7.550781 2.050781 8 1.5 8 C 0.949219 8 0.5 7.550781 0.5 7 C 0.5 6.449219 0.949219 6 1.5 6 C 2.050781 6 2.5 6.449219 2.5 7 Z M 2.5 7 "/>
<path fill-rule="nonzero" fill="rgb(100%, 100%, 100%)" fill-opacity="1" d="M 2.5 10.5 C 2.5 11.050781 2.050781 11.5 1.5 11.5 C 0.949219 11.5 0.5 11.050781 0.5 10.5 C 0.5 9.949219 0.949219 9.5 1.5 9.5 C 2.050781 9.5 2.5 9.949219 2.5 10.5 Z M 2.5 10.5 "/>
<path fill-rule="nonzero" fill="rgb(100%, 100%, 100%)" fill-opacity="1" d="M 20.5 3.5 C 20.5 4.050781 20.050781 4.5 19.5 4.5 C 18.949219 4.5 18.5 4.050781 18.5 3.5 C 18.5 2.949219 18.949219 2.5 19.5 2.5 C 20.050781 2.5 20.5 2.949219 20.5 3.5 Z M 20.5 3.5 "/>
<path fill-rule="nonzero" fill="rgb(100%, 100%, 100%)" fill-opacity="1" d="M 20.5 7 C 20.5 7.550781 20.050781 8 19.5 8 C 18.949219 8 18.5 7.550781 18.5 7 C 18.5 6.449219 18.949219 6 19.5 6 C 20.050781 6 20.5 6.449219 20.5 7 Z M 20.5 7 "/>
<path fill-rule="nonzero" fill="rgb(100%, 100%, 100%)" fill-opacity="1" d="M 20.5 10.5 C 20.5 11.050781 20.050781 11.5 19.5 11.5 C 18.949219 11.5 18.5 11.050781 18.5 10.5 C 18.5 9.949219 18.949219 9.5 19.5 9.5 C 20.050781 9.5 20.5 9.949219 20.5 10.5 Z M 20.5 10.5 "/>
<path fill-rule="nonzero" fill="rgb(0%, 0%, 0%)" fill-opacity="1" d="M 6.902344 10.441406 L 5.53125 10.441406 L 5.53125 5.269531 C 5.03125 5.738281 4.441406 6.085938 3.757812 6.308594 L 3.757812 5.0625 C 4.117188 4.945312 4.507812 4.726562 4.925781 4.398438 C 5.347656 4.070312 5.632812 3.6875 5.789062 3.253906 L 6.902344 3.253906 Z M 6.902344 10.441406 "/>
<path fill-rule="nonzero" fill="rgb(0%, 0%, 0%)" fill-opacity="1" d="M 12.152344 9.164062 L 12.152344 10.441406 L 7.34375 10.441406 C 7.394531 9.957031 7.550781 9.5 7.8125 9.070312 C 8.074219 8.640625 8.585938 8.066406 9.355469 7.355469 C 9.972656 6.777344 10.351562 6.386719 10.492188 6.183594 C 10.679688 5.898438 10.777344 5.617188 10.777344 5.34375 C 10.777344 5.035156 10.695312 4.800781 10.53125 4.636719 C 10.363281 4.472656 10.136719 4.390625 9.847656 4.390625 C 9.5625 4.390625 9.332031 4.476562 9.164062 4.648438 C 8.996094 4.820312 8.898438 5.109375 8.871094 5.507812 L 7.503906 5.371094 C 7.585938 4.617188 7.839844 4.074219 8.269531 3.746094 C 8.699219 3.417969 9.238281 3.253906 9.882812 3.253906 C 10.589844 3.253906 11.144531 3.441406 11.546875 3.824219 C 11.949219 4.203125 12.152344 4.679688 12.152344 5.246094 C 12.152344 5.566406 12.09375 5.875 11.980469 6.164062 C 11.863281 6.457031 11.679688 6.761719 11.429688 7.082031 C 11.265625 7.292969 10.964844 7.597656 10.53125 7.992188 C 10.097656 8.390625 9.824219 8.65625 9.710938 8.785156 C 9.59375 8.914062 9.5 9.042969 9.429688 9.164062 Z M 12.152344 9.164062 "/>
<path fill-rule="nonzero" fill="rgb(0%, 0%, 0%)" fill-opacity="1" d="M 14.917969 3.253906 C 15.609375 3.253906 16.152344 3.5 16.542969 3.996094 C 17.007812 4.582031 17.242188 5.550781 17.242188 6.910156 C 17.242188 8.265625 17.007812 9.238281 16.539062 9.828125 C 16.148438 10.316406 15.609375 10.5625 14.917969 10.5625 C 14.21875 10.5625 13.660156 10.292969 13.230469 9.757812 C 12.804688 9.222656 12.59375 8.269531 12.59375 6.894531 C 12.59375 5.546875 12.828125 4.578125 13.296875 3.984375 C 13.683594 3.496094 14.222656 3.253906 14.917969 3.253906 Z M 14.917969 4.390625 C 14.75 4.390625 14.601562 4.441406 14.472656 4.550781 C 14.34375 4.65625 14.242188 4.84375 14.167969 5.117188 C 14.074219 5.472656 14.027344 6.070312 14.027344 6.910156 C 14.027344 7.75 14.070312 8.328125 14.15625 8.640625 C 14.238281 8.953125 14.347656 9.164062 14.476562 9.269531 C 14.601562 9.371094 14.75 9.425781 14.917969 9.425781 C 15.082031 9.425781 15.230469 9.371094 15.359375 9.265625 C 15.492188 9.160156 15.59375 8.96875 15.664062 8.695312 C 15.757812 8.34375 15.804688 7.75 15.804688 6.910156 C 15.804688 6.070312 15.761719 5.492188 15.679688 5.179688 C 15.59375 4.863281 15.488281 4.65625 15.359375 4.550781 C 15.230469 4.441406 15.082031 4.390625 14.917969 4.390625 Z M 14.917969 4.390625 "/>
</svg>
