<?xml version="1.0" encoding="UTF-8"?>
<svg xmlns="http://www.w3.org/2000/svg" xmlns:xlink="http://www.w3.org/1999/xlink" width="21" height="14" viewBox="0 0 21 14">
<rect x="-2.1" y="-1.4" width="25.2" height="16.8" fill="rgb(0%, 0%, 0%)" fill-opacity="1"/>
<path fill-rule="nonzero" fill="rgb(100%, 100%, 100%)" fill-opacity="1" d="M 3 0.800781 L 18 0.800781 L 18 13.199219 L 3 13.199219 Z M 3 0.800781 "/>
<path fill-rule="nonzero" fill="rgb(100%, 100%, 100%)" fill-opacity="1" d="M 2.5 3.5 C 2.5 4.050781 2.050781 4.5 1.5 4.5 C 0.949219 4.5 0.5 4.050781 0.5 3.5 C 0.5 2.949219 0.949219 2.5 1.5 2.5 C 2.050781 2.5 2.5 2.949219 2.5 3.5 Z M 2.5 3.5 "/>
<path fill-rule="nonzero" fill="rgb(100%, 100%, 100%)" fill-opacity="1" d="M 2.5 7 C 2.5 7.550781 2.050781 8 1.5 8 C 0.949219 8 0.5 7.550781 0.5 7 C 0.5 6.449219 0.949219 6 1.5 6 C 2.050781 6 2.5 6.449219 2.5 7 Z M 2.5 7 "/>
<path fill-rule="nonzero" fill="rgb(100%, 100%, 100%)" fill-opacity="1" d="M 2.5 10.5 C 2.5 11.050781 2.050781 11.5 1.5 11.5 C 0.949219 11.5 0.5 11.050781 0.5 10.5 C 0.5 9.949219 0.949219 9.5 1.5 9.5 C 2.050781 9.5 2.5 9.949219 2.5 10.5 Z M 2.5 10.5 "/>
<path fill-rule="nonzero" fill="rgb(100%, 100%, 100%)" fill-opacity="1" d="M 20.5 3.5 C 20.5 4.050781 20.050781 4.5 19.5 4.5 C 18.949219 4.5 18.5 4.050781 18.5 3.5 C 18.5 2.949219 18.949219 2.5 19.5 2.5 C 20.050781 2.5 20.5 2.949219 20.5 3.5 Z M 20.5 3.5 "/>
<path fill-rule="nonzero" fill="rgb(100%, 100%, 100%)" fill-opacity="1" d="M 20.5 7 C 20.5 7.550781 20.050781 8 19.5 8 C 18.949219 8 18.5 7.550781 18.5 7 C 18.5 6.449219 18.949219 6 19.5 6 C 20.050781 6 20.5 6.449219 20.5 7 Z M 20.5 7 "/>
<path fill-rule="nonzero" fill="rgb(100%, 100%, 100%)" fill-opacity="1" d="M 20.5 10.5 C 20.5 11.050781 20.050781 11.5 19.5 11.5 C 18.949219 11.5 18.5 11.050781 18.5 10.5 C 18.5 9.949219 18.949219 9.5 19.5 9.5 C 20.050781 9.5 20.5 9.949219 20.5 10.5 Z M 20.5 10.5 "/>
<path fill-rule="nonzero" fill="rgb(0%, 0%, 0%)" fill-opacity="1" d="M 6.820312 10.441406 L 5.449219 10.441406 L 5.449219 5.269531 C 4.949219 5.738281 4.355469 6.085938 3.675781 6.308594 L 3.675781 5.0625 C 4.035156 4.945312 4.421875 4.726562 4.84375 4.398438 C 5.261719 4.070312 5.550781 3.6875 5.707031 3.253906 L 6.820312 3.253906 Z M 6.820312 10.441406 "/>
<path fill-rule="nonzero" fill="rgb(0%, 0%, 0%)" fill-opacity="1" d="M 12.070312 9.164062 L 12.070312 10.441406 L 7.261719 10.441406 C 7.3125 9.957031 7.46875 9.5 7.730469 9.070312 C 7.988281 8.640625 8.503906 8.066406 9.273438 7.355469 C 9.890625 6.777344 10.269531 6.386719 10.410156 6.183594 C 10.597656 5.898438 10.691406 5.617188 10.691406 5.34375 C 10.691406 5.035156 10.609375 4.800781 10.445312 4.636719 C 10.28125 4.472656 10.054688 4.390625 9.765625 4.390625 C 9.480469 4.390625 9.25 4.476562 9.082031 4.648438 C 8.914062 4.820312 8.816406 5.109375 8.789062 5.507812 L 7.421875 5.371094 C 7.503906 4.617188 7.757812 4.074219 8.1875 3.746094 C 8.617188 3.417969 9.15625 3.253906 9.800781 3.253906 C 10.503906 3.253906 11.0625 3.441406 11.464844 3.824219 C 11.867188 4.203125 12.070312 4.679688 12.070312 5.246094 C 12.070312 5.566406 12.011719 5.875 11.898438 6.164062 C 11.78125 6.457031 11.597656 6.761719 11.347656 7.082031 C 11.179688 7.292969 10.882812 7.597656 10.449219 7.992188 C 10.015625 8.390625 9.742188 8.65625 9.625 8.785156 C 9.511719 8.914062 9.417969 9.042969 9.34375 9.164062 Z M 12.070312 9.164062 "/>
<path fill-rule="nonzero" fill="rgb(0%, 0%, 0%)" fill-opacity="1" d="M 12.507812 8.597656 L 13.875 8.457031 C 13.914062 8.765625 14.03125 9.011719 14.222656 9.191406 C 14.414062 9.375 14.636719 9.464844 14.886719 9.464844 C 15.171875 9.464844 15.417969 9.347656 15.613281 9.113281 C 15.8125 8.882812 15.914062 8.53125 15.914062 8.0625 C 15.914062 7.621094 15.8125 7.292969 15.617188 7.074219 C 15.421875 6.855469 15.164062 6.742188 14.847656 6.742188 C 14.453125 6.742188 14.101562 6.917969 13.789062 7.265625 L 12.675781 7.105469 L 13.378906 3.378906 L 17.007812 3.378906 L 17.007812 4.664062 L 14.417969 4.664062 L 14.203125 5.878906 C 14.507812 5.726562 14.820312 5.648438 15.140625 5.648438 C 15.75 5.648438 16.265625 5.871094 16.6875 6.3125 C 17.113281 6.757812 17.324219 7.332031 17.324219 8.039062 C 17.324219 8.625 17.152344 9.152344 16.8125 9.613281 C 16.34375 10.246094 15.699219 10.5625 14.871094 10.5625 C 14.210938 10.5625 13.671875 10.382812 13.257812 10.03125 C 12.839844 9.675781 12.589844 9.199219 12.507812 8.597656 Z M 12.507812 8.597656 "/>
</svg>
