<?xml version="1.0" encoding="UTF-8"?>
<svg xmlns="http://www.w3.org/2000/svg" xmlns:xlink="http://www.w3.org/1999/xlink" width="21" height="14" viewBox="0 0 21 14">
<rect x="-2.1" y="-1.4" width="25.2" height="16.8" fill="rgb(0%, 0%, 0%)" fill-opacity="1"/>
<path fill-rule="nonzero" fill="rgb(100%, 100%, 100%)" fill-opacity="1" d="M 3 0.800781 L 18 0.800781 L 18 13.199219 L 3 13.199219 Z M 3 0.800781 "/>
<path fill-rule="nonzero" fill="rgb(100%, 100%, 100%)" fill-opacity="1" d="M 2.5 3.5 C 2.5 4.050781 2.050781 4.5 1.5 4.5 C 0.949219 4.5 0.5 4.050781 0.5 3.5 C 0.5 2.949219 0.949219 2.5 1.5 2.5 C 2.050781 2.5 2.5 2.949219 2.5 3.5 Z M 2.5 3.5 "/>
<path fill-rule="nonzero" fill="rgb(100%, 100%, 100%)" fill-opacity="1" d="M 2.5 7 C 2.5 7.550781 2.050781 8 1.5 8 C 0.949219 8 0.5 7.550781 0.5 7 C 0.5 6.449219 0.949219 6 1.5 6 C 2.050781 6 2.5 6.449219 2.5 7 Z M 2.5 7 "/>
<path fill-rule="nonzero" fill="rgb(100%, 100%, 100%)" fill-opacity="1" d="M 2.5 10.5 C 2.5 11.050781 2.050781 11.5 1.5 11.5 C 0.949219 11.5 0.5 11.050781 0.5 10.5 C 0.5 9.949219 0.949219 9.5 1.5 9.5 C 2.050781 9.5 2.5 9.949219 2.5 10.5 Z M 2.5 10.5 "/>
<path fill-rule="nonzero" fill="rgb(100%, 100%, 100%)" fill-opacity="1" d="M 20.5 3.5 C 20.5 4.050781 20.050781 4.5 19.5 4.5 C 18.949219 4.5 18.5 4.050781 18.5 3.5 C 18.5 2.949219 18.949219 2.5 19.5 2.5 C 20.050781 2.5 20.5 2.949219 20.5 3.5 Z M 20.5 3.5 "/>
<path fill-rule="nonzero" fill="rgb(100%, 100%, 100%)" fill-opacity="1" d="M 20.5 7 C 20.5 7.550781 20.050781 8 19.5 8 C 18.949219 8 18.5 7.550781 18.5 7 C 18.5 6.449219 18.949219 6 19.5 6 C 20.050781 6 20.5 6.449219 20.5 7 Z M 20.5 7 "/>
<path fill-rule="nonzero" fill="rgb(100%, 100%, 100%)" fill-opacity="1" d="M 20.5 10.5 C 20.5 11.050781 20.050781 11.5 19.5 11.5 C 18.949219 11.5 18.5 11.050781 18.5 10.5 C 18.5 9.949219 18.949219 9.5 19.5 9.5 C 20.050781 9.5 20.5 9.949219 20.5 10.5 Z M 20.5 10.5 "/>
<path fill-rule="nonzero" fill="rgb(0%, 0%, 0%)" fill-opacity="1" d="M 6.929688 10.441406 L 5.558594 10.441406 L 5.558594 5.269531 C 5.058594 5.738281 4.464844 6.085938 3.785156 6.308594 L 3.785156 5.0625 C 4.144531 4.945312 4.53125 4.726562 4.953125 4.398438 C 5.375 4.070312 5.660156 3.6875 5.816406 3.253906 L 6.929688 3.253906 Z M 6.929688 10.441406 "/>
<path fill-rule="nonzero" fill="rgb(0%, 0%, 0%)" fill-opacity="1" d="M 7.371094 8.539062 L 8.699219 8.378906 C 8.742188 8.71875 8.855469 8.976562 9.039062 9.15625 C 9.226562 9.335938 9.449219 9.425781 9.714844 9.425781 C 9.996094 9.425781 10.234375 9.316406 10.429688 9.101562 C 10.621094 8.886719 10.71875 8.597656 10.71875 8.234375 C 10.71875 7.886719 10.625 7.613281 10.441406 7.414062 C 10.257812 7.210938 10.03125 7.109375 9.761719 7.109375 C 9.585938 7.109375 9.375 7.144531 9.132812 7.210938 L 9.285156 6.09375 C 9.65625 6.105469 9.9375 6.023438 10.132812 5.851562 C 10.328125 5.683594 10.425781 5.453125 10.425781 5.171875 C 10.425781 4.929688 10.355469 4.738281 10.210938 4.59375 C 10.070312 4.453125 9.878906 4.378906 9.640625 4.378906 C 9.40625 4.378906 9.207031 4.460938 9.039062 4.625 C 8.875 4.789062 8.773438 5.023438 8.738281 5.335938 L 7.472656 5.121094 C 7.5625 4.691406 7.691406 4.34375 7.871094 4.085938 C 8.046875 3.828125 8.296875 3.621094 8.613281 3.476562 C 8.929688 3.328125 9.285156 3.253906 9.679688 3.253906 C 10.351562 3.253906 10.894531 3.46875 11.300781 3.898438 C 11.636719 4.25 11.804688 4.644531 11.804688 5.089844 C 11.804688 5.714844 11.460938 6.21875 10.773438 6.59375 C 11.183594 6.679688 11.511719 6.878906 11.757812 7.183594 C 12.003906 7.488281 12.125 7.859375 12.125 8.292969 C 12.125 8.917969 11.898438 9.457031 11.4375 9.898438 C 10.976562 10.339844 10.40625 10.5625 9.722656 10.5625 C 9.074219 10.5625 8.539062 10.375 8.113281 10.003906 C 7.6875 9.628906 7.4375 9.144531 7.371094 8.539062 Z M 7.371094 8.539062 "/>
<path fill-rule="nonzero" fill="rgb(0%, 0%, 0%)" fill-opacity="1" d="M 14.890625 3.253906 C 15.582031 3.253906 16.125 3.5 16.515625 3.996094 C 16.980469 4.582031 17.214844 5.550781 17.214844 6.910156 C 17.214844 8.265625 16.980469 9.238281 16.511719 9.828125 C 16.125 10.316406 15.582031 10.5625 14.890625 10.5625 C 14.191406 10.5625 13.632812 10.292969 13.203125 9.757812 C 12.777344 9.222656 12.566406 8.269531 12.566406 6.894531 C 12.566406 5.546875 12.800781 4.578125 13.269531 3.984375 C 13.65625 3.496094 14.195312 3.253906 14.890625 3.253906 Z M 14.890625 4.390625 C 14.722656 4.390625 14.574219 4.441406 14.445312 4.550781 C 14.316406 4.65625 14.214844 4.84375 14.140625 5.117188 C 14.046875 5.472656 14 6.070312 14 6.910156 C 14 7.75 14.042969 8.328125 14.128906 8.640625 C 14.210938 8.953125 14.320312 9.164062 14.449219 9.269531 C 14.578125 9.371094 14.722656 9.425781 14.890625 9.425781 C 15.054688 9.425781 15.203125 9.371094 15.335938 9.265625 C 15.464844 9.160156 15.566406 8.96875 15.636719 8.695312 C 15.730469 8.34375 15.777344 7.75 15.777344 6.910156 C 15.777344 6.070312 15.734375 5.492188 15.652344 5.179688 C 15.566406 4.863281 15.460938 4.65625 15.332031 4.550781 C 15.203125 4.441406 15.054688 4.390625 14.890625 4.390625 Z M 14.890625 4.390625 "/>
</svg>
