<?xml version="1.0" encoding="UTF-8"?>
<svg xmlns="http://www.w3.org/2000/svg" xmlns:xlink="http://www.w3.org/1999/xlink" width="21" height="14" viewBox="0 0 21 14">
<rect x="-2.1" y="-1.4" width="25.2" height="16.8" fill="rgb(0%, 0%, 0%)" fill-opacity="1"/>
<path fill-rule="nonzero" fill="rgb(100%, 100%, 100%)" fill-opacity="1" d="M 3 0.800781 L 18 0.800781 L 18 13.199219 L 3 13.199219 Z M 3 0.800781 "/>
<path fill-rule="nonzero" fill="rgb(100%, 100%, 100%)" fill-opacity="1" d="M 2.5 3.5 C 2.5 4.050781 2.050781 4.5 1.5 4.5 C 0.949219 4.5 0.5 4.050781 0.5 3.5 C 0.5 2.949219 0.949219 2.5 1.5 2.5 C 2.050781 2.5 2.5 2.949219 2.5 3.5 Z M 2.5 3.5 "/>
<path fill-rule="nonzero" fill="rgb(100%, 100%, 100%)" fill-opacity="1" d="M 2.5 7 C 2.5 7.550781 2.050781 8 1.5 8 C 0.949219 8 0.5 7.550781 0.5 7 C 0.5 6.449219 0.949219 6 1.5 6 C 2.050781 6 2.5 6.449219 2.5 7 Z M 2.5 7 "/>
<path fill-rule="nonzero" fill="rgb(100%, 100%, 100%)" fill-opacity="1" d="M 2.5 10.5 C 2.5 11.050781 2.050781 11.5 1.5 11.5 C 0.949219 11.5 0.5 11.050781 0.5 10.5 C 0.5 9.949219 0.949219 9.5 1.5 9.5 C 2.050781 9.5 2.5 9.949219 2.5 10.5 Z M 2.5 10.5 "/>
<path fill-rule="nonzero" fill="rgb(100%, 100%, 100%)" fill-opacity="1" d="M 20.5 3.5 C 20.5 4.050781 20.050781 4.5 19.5 4.5 C 18.949219 4.5 18.5 4.050781 18.5 3.5 C 18.5 2.949219 18.949219 2.5 19.5 2.5 C 20.050781 2.5 20.5 2.949219 20.5 3.5 Z M 20.5 3.5 "/>
<path fill-rule="nonzero" fill="rgb(100%, 100%, 100%)" fill-opacity="1" d="M 20.5 7 C 20.5 7.550781 20.050781 8 19.5 8 C 18.949219 8 18.5 7.550781 18.5 7 C 18.5 6.449219 18.949219 6 19.5 6 C 20.050781 6 20.5 6.449219 20.5 7 Z M 20.5 7 "/>
<path fill-rule="nonzero" fill="rgb(100%, 100%, 100%)" fill-opacity="1" d="M 20.5 10.5 C 20.5 11.050781 20.050781 11.5 19.5 11.5 C 18.949219 11.5 18.5 11.050781 18.5 10.5 C 18.5 9.949219 18.949219 9.5 19.5 9.5 C 20.050781 9.5 20.5 9.949219 20.5 10.5 Z M 20.5 10.5 "/>
<path fill-rule="nonzero" fill="rgb(0%, 0%, 0%)" fill-opacity="1" d="M 6.847656 10.441406 L 5.476562 10.441406 L 5.476562 5.269531 C 4.972656 5.738281 4.382812 6.085938 3.703125 6.308594 L 3.703125 5.0625 C 4.0625 4.945312 4.449219 4.726562 4.871094 4.398438 C 5.289062 4.070312 5.578125 3.6875 5.734375 3.253906 L 6.847656 3.253906 Z M 6.847656 10.441406 "/>
<path fill-rule="nonzero" fill="rgb(0%, 0%, 0%)" fill-opacity="1" d="M 7.289062 8.539062 L 8.617188 8.378906 C 8.65625 8.71875 8.773438 8.976562 8.957031 9.15625 C 9.140625 9.335938 9.367188 9.425781 9.632812 9.425781 C 9.914062 9.425781 10.152344 9.316406 10.347656 9.101562 C 10.539062 8.886719 10.636719 8.597656 10.636719 8.234375 C 10.636719 7.886719 10.542969 7.613281 10.359375 7.414062 C 10.171875 7.210938 9.945312 7.109375 9.679688 7.109375 C 9.503906 7.109375 9.292969 7.144531 9.050781 7.210938 L 9.203125 6.09375 C 9.570312 6.105469 9.855469 6.023438 10.050781 5.851562 C 10.246094 5.683594 10.34375 5.453125 10.34375 5.171875 C 10.34375 4.929688 10.273438 4.738281 10.128906 4.59375 C 9.984375 4.453125 9.796875 4.378906 9.558594 4.378906 C 9.324219 4.378906 9.125 4.460938 8.957031 4.625 C 8.789062 4.789062 8.691406 5.023438 8.65625 5.335938 L 7.390625 5.121094 C 7.476562 4.691406 7.609375 4.34375 7.789062 4.085938 C 7.964844 3.828125 8.210938 3.621094 8.53125 3.476562 C 8.847656 3.328125 9.203125 3.253906 9.597656 3.253906 C 10.269531 3.253906 10.8125 3.46875 11.21875 3.898438 C 11.554688 4.25 11.71875 4.644531 11.71875 5.089844 C 11.71875 5.714844 11.378906 6.21875 10.691406 6.59375 C 11.101562 6.679688 11.429688 6.878906 11.675781 7.183594 C 11.921875 7.488281 12.042969 7.859375 12.042969 8.292969 C 12.042969 8.917969 11.8125 9.457031 11.355469 9.898438 C 10.894531 10.339844 10.324219 10.5625 9.640625 10.5625 C 8.992188 10.5625 8.457031 10.375 8.03125 10.003906 C 7.601562 9.628906 7.355469 9.144531 7.289062 8.539062 Z M 7.289062 8.539062 "/>
<path fill-rule="nonzero" fill="rgb(0%, 0%, 0%)" fill-opacity="1" d="M 12.484375 8.597656 L 13.851562 8.457031 C 13.890625 8.765625 14.003906 9.011719 14.195312 9.191406 C 14.386719 9.375 14.609375 9.464844 14.859375 9.464844 C 15.148438 9.464844 15.390625 9.347656 15.585938 9.113281 C 15.785156 8.882812 15.886719 8.53125 15.886719 8.0625 C 15.886719 7.621094 15.789062 7.292969 15.589844 7.074219 C 15.394531 6.855469 15.136719 6.742188 14.820312 6.742188 C 14.425781 6.742188 14.074219 6.917969 13.761719 7.265625 L 12.648438 7.105469 L 13.351562 3.378906 L 16.980469 3.378906 L 16.980469 4.664062 L 14.390625 4.664062 L 14.175781 5.878906 C 14.484375 5.726562 14.796875 5.648438 15.113281 5.648438 C 15.722656 5.648438 16.238281 5.871094 16.664062 6.3125 C 17.085938 6.757812 17.296875 7.332031 17.296875 8.039062 C 17.296875 8.625 17.125 9.152344 16.785156 9.613281 C 16.320312 10.246094 15.671875 10.5625 14.84375 10.5625 C 14.183594 10.5625 13.644531 10.382812 13.230469 10.03125 C 12.8125 9.675781 12.5625 9.199219 12.484375 8.597656 Z M 12.484375 8.597656 "/>
</svg>
