<?xml version="1.0" encoding="UTF-8"?>
<svg xmlns="http://www.w3.org/2000/svg" xmlns:xlink="http://www.w3.org/1999/xlink" width="21" height="14" viewBox="0 0 21 14">
<rect x="-2.1" y="-1.4" width="25.2" height="16.8" fill="rgb(0%, 0%, 0%)" fill-opacity="1"/>
<path fill-rule="nonzero" fill="rgb(100%, 100%, 100%)" fill-opacity="1" d="M 3 0.800781 L 18 0.800781 L 18 13.199219 L 3 13.199219 Z M 3 0.800781 "/>
<path fill-rule="nonzero" fill="rgb(100%, 100%, 100%)" fill-opacity="1" d="M 2.5 3.5 C 2.5 4.050781 2.050781 4.5 1.5 4.5 C 0.949219 4.5 0.5 4.050781 0.5 3.5 C 0.5 2.949219 0.949219 2.5 1.5 2.5 C 2.050781 2.5 2.5 2.949219 2.5 3.5 Z M 2.5 3.5 "/>
<path fill-rule="nonzero" fill="rgb(100%, 100%, 100%)" fill-opacity="1" d="M 2.5 7 C 2.5 7.550781 2.050781 8 1.5 8 C 0.949219 8 0.5 7.550781 0.5 7 C 0.5 6.449219 0.949219 6 1.5 6 C 2.050781 6 2.5 6.449219 2.5 7 Z M 2.5 7 "/>
<path fill-rule="nonzero" fill="rgb(100%, 100%, 100%)" fill-opacity="1" d="M 2.5 10.5 C 2.5 11.050781 2.050781 11.5 1.5 11.5 C 0.949219 11.5 0.5 11.050781 0.5 10.5 C 0.5 9.949219 0.949219 9.5 1.5 9.5 C 2.050781 9.5 2.5 9.949219 2.5 10.5 Z M 2.5 10.5 "/>
<path fill-rule="nonzero" fill="rgb(100%, 100%, 100%)" fill-opacity="1" d="M 20.5 3.5 C 20.5 4.050781 20.050781 4.5 19.5 4.5 C 18.949219 4.5 18.5 4.050781 18.5 3.5 C 18.5 2.949219 18.949219 2.5 19.5 2.5 C 20.050781 2.5 20.5 2.949219 20.5 3.5 Z M 20.5 3.5 "/>
<path fill-rule="nonzero" fill="rgb(100%, 100%, 100%)" fill-opacity="1" d="M 20.5 7 C 20.5 7.550781 20.050781 8 19.5 8 C 18.949219 8 18.5 7.550781 18.5 7 C 18.5 6.449219 18.949219 6 19.5 6 C 20.050781 6 20.5 6.449219 20.5 7 Z M 20.5 7 "/>
<path fill-rule="nonzero" fill="rgb(100%, 100%, 100%)" fill-opacity="1" d="M 20.5 10.5 C 20.5 11.050781 20.050781 11.5 19.5 11.5 C 18.949219 11.5 18.5 11.050781 18.5 10.5 C 18.5 9.949219 18.949219 9.5 19.5 9.5 C 20.050781 9.5 20.5 9.949219 20.5 10.5 Z M 20.5 10.5 "/>
<path fill-rule="nonzero" fill="rgb(0%, 0%, 0%)" fill-opacity="1" d="M 6.734375 10.441406 L 5.363281 10.441406 L 5.363281 5.269531 C 4.863281 5.738281 4.269531 6.085938 3.589844 6.308594 L 3.589844 5.0625 C 3.949219 4.945312 4.335938 4.726562 4.757812 4.398438 C 5.179688 4.070312 5.464844 3.6875 5.621094 3.253906 L 6.734375 3.253906 Z M 6.734375 10.441406 "/>
<path fill-rule="nonzero" fill="rgb(0%, 0%, 0%)" fill-opacity="1" d="M 10.105469 10.441406 L 10.105469 9 L 7.175781 9 L 7.175781 7.796875 L 10.28125 3.253906 L 11.433594 3.253906 L 11.433594 7.792969 L 12.320312 7.792969 L 12.320312 9 L 11.433594 9 L 11.433594 10.441406 Z M 10.105469 7.792969 L 10.105469 5.347656 L 8.460938 7.792969 Z M 10.105469 7.792969 "/>
<path fill-rule="nonzero" fill="rgb(0%, 0%, 0%)" fill-opacity="1" d="M 15.085938 3.253906 C 15.777344 3.253906 16.320312 3.5 16.710938 3.996094 C 17.175781 4.582031 17.410156 5.550781 17.410156 6.910156 C 17.410156 8.265625 17.175781 9.238281 16.707031 9.828125 C 16.320312 10.316406 15.777344 10.5625 15.085938 10.5625 C 14.386719 10.5625 13.828125 10.292969 13.398438 9.757812 C 12.972656 9.222656 12.761719 8.269531 12.761719 6.894531 C 12.761719 5.546875 12.996094 4.578125 13.464844 3.984375 C 13.851562 3.496094 14.390625 3.253906 15.085938 3.253906 Z M 15.085938 4.390625 C 14.917969 4.390625 14.769531 4.441406 14.640625 4.550781 C 14.511719 4.65625 14.410156 4.84375 14.335938 5.117188 C 14.242188 5.472656 14.195312 6.070312 14.195312 6.910156 C 14.195312 7.75 14.238281 8.328125 14.324219 8.640625 C 14.40625 8.953125 14.515625 9.164062 14.644531 9.269531 C 14.773438 9.371094 14.917969 9.425781 15.085938 9.425781 C 15.25 9.425781 15.398438 9.371094 15.53125 9.265625 C 15.660156 9.160156 15.761719 8.96875 15.832031 8.695312 C 15.925781 8.34375 15.972656 7.75 15.972656 6.910156 C 15.972656 6.070312 15.929688 5.492188 15.847656 5.179688 C 15.761719 4.863281 15.65625 4.65625 15.527344 4.550781 C 15.398438 4.441406 15.25 4.390625 15.085938 4.390625 Z M 15.085938 4.390625 "/>
</svg>
