<?xml version="1.0" encoding="UTF-8"?>
<svg xmlns="http://www.w3.org/2000/svg" xmlns:xlink="http://www.w3.org/1999/xlink" width="21" height="14" viewBox="0 0 21 14">
<rect x="-2.1" y="-1.4" width="25.2" height="16.8" fill="rgb(0%, 0%, 0%)" fill-opacity="1"/>
<path fill-rule="nonzero" fill="rgb(100%, 100%, 100%)" fill-opacity="1" d="M 3 0.800781 L 18 0.800781 L 18 13.199219 L 3 13.199219 Z M 3 0.800781 "/>
<path fill-rule="nonzero" fill="rgb(100%, 100%, 100%)" fill-opacity="1" d="M 2.5 3.5 C 2.5 4.050781 2.050781 4.5 1.5 4.5 C 0.949219 4.5 0.5 4.050781 0.5 3.5 C 0.5 2.949219 0.949219 2.5 1.5 2.5 C 2.050781 2.5 2.5 2.949219 2.5 3.5 Z M 2.5 3.5 "/>
<path fill-rule="nonzero" fill="rgb(100%, 100%, 100%)" fill-opacity="1" d="M 2.5 7 C 2.5 7.550781 2.050781 8 1.5 8 C 0.949219 8 0.5 7.550781 0.5 7 C 0.5 6.449219 0.949219 6 1.5 6 C 2.050781 6 2.5 6.449219 2.5 7 Z M 2.5 7 "/>
<path fill-rule="nonzero" fill="rgb(100%, 100%, 100%)" fill-opacity="1" d="M 2.5 10.5 C 2.5 11.050781 2.050781 11.5 1.5 11.5 C 0.949219 11.5 0.5 11.050781 0.5 10.5 C 0.5 9.949219 0.949219 9.5 1.5 9.5 C 2.050781 9.5 2.5 9.949219 2.5 10.5 Z M 2.5 10.5 "/>
<path fill-rule="nonzero" fill="rgb(100%, 100%, 100%)" fill-opacity="1" d="M 20.5 3.5 C 20.5 4.050781 20.050781 4.5 19.5 4.5 C 18.949219 4.5 18.5 4.050781 18.5 3.5 C 18.5 2.949219 18.949219 2.5 19.5 2.5 C 20.050781 2.5 20.5 2.949219 20.5 3.5 Z M 20.5 3.5 "/>
<path fill-rule="nonzero" fill="rgb(100%, 100%, 100%)" fill-opacity="1" d="M 20.5 7 C 20.5 7.550781 20.050781 8 19.5 8 C 18.949219 8 18.5 7.550781 18.5 7 C 18.5 6.449219 18.949219 6 19.5 6 C 20.050781 6 20.5 6.449219 20.5 7 Z M 20.5 7 "/>
<path fill-rule="nonzero" fill="rgb(100%, 100%, 100%)" fill-opacity="1" d="M 20.5 10.5 C 20.5 11.050781 20.050781 11.5 19.5 11.5 C 18.949219 11.5 18.5 11.050781 18.5 10.5 C 18.5 9.949219 18.949219 9.5 19.5 9.5 C 20.050781 9.5 20.5 9.949219 20.5 10.5 Z M 20.5 10.5 "/>
<path fill-rule="nonzero" fill="rgb(0%, 0%, 0%)" fill-opacity="1" d="M 6.652344 10.441406 L 5.28125 10.441406 L 5.28125 5.269531 C 4.777344 5.738281 4.1875 6.085938 3.507812 6.308594 L 3.507812 5.0625 C 3.867188 4.945312 4.253906 4.726562 4.675781 4.398438 C 5.09375 4.070312 5.382812 3.6875 5.539062 3.253906 L 6.652344 3.253906 Z M 6.652344 10.441406 "/>
<path fill-rule="nonzero" fill="rgb(0%, 0%, 0%)" fill-opacity="1" d="M 10.023438 10.441406 L 10.023438 9 L 7.09375 9 L 7.09375 7.796875 L 10.195312 3.253906 L 11.351562 3.253906 L 11.351562 7.792969 L 12.238281 7.792969 L 12.238281 9 L 11.351562 9 L 11.351562 10.441406 Z M 10.023438 7.792969 L 10.023438 5.347656 L 8.375 7.792969 Z M 10.023438 7.792969 "/>
<path fill-rule="nonzero" fill="rgb(0%, 0%, 0%)" fill-opacity="1" d="M 12.679688 8.597656 L 14.046875 8.457031 C 14.085938 8.765625 14.199219 9.011719 14.390625 9.191406 C 14.582031 9.375 14.804688 9.464844 15.054688 9.464844 C 15.34375 9.464844 15.585938 9.347656 15.78125 9.113281 C 15.980469 8.882812 16.082031 8.53125 16.082031 8.0625 C 16.082031 7.621094 15.984375 7.292969 15.785156 7.074219 C 15.589844 6.855469 15.332031 6.742188 15.015625 6.742188 C 14.621094 6.742188 14.269531 6.917969 13.957031 7.265625 L 12.84375 7.105469 L 13.546875 3.378906 L 17.175781 3.378906 L 17.175781 4.664062 L 14.585938 4.664062 L 14.371094 5.878906 C 14.679688 5.726562 14.992188 5.648438 15.308594 5.648438 C 15.917969 5.648438 16.433594 5.871094 16.859375 6.3125 C 17.28125 6.757812 17.492188 7.332031 17.492188 8.039062 C 17.492188 8.625 17.320312 9.152344 16.980469 9.613281 C 16.515625 10.246094 15.867188 10.5625 15.039062 10.5625 C 14.378906 10.5625 13.839844 10.382812 13.425781 10.03125 C 13.007812 9.675781 12.757812 9.199219 12.679688 8.597656 Z M 12.679688 8.597656 "/>
</svg>
