<?xml version="1.0" encoding="UTF-8"?>
<svg xmlns="http://www.w3.org/2000/svg" xmlns:xlink="http://www.w3.org/1999/xlink" width="21" height="14" viewBox="0 0 21 14">
<rect x="-2.1" y="-1.4" width="25.2" height="16.8" fill="rgb(0%, 0%, 0%)" fill-opacity="1"/>
<path fill-rule="nonzero" fill="rgb(100%, 100%, 100%)" fill-opacity="1" d="M 3 0.800781 L 18 0.800781 L 18 13.199219 L 3 13.199219 Z M 3 0.800781 "/>
<path fill-rule="nonzero" fill="rgb(100%, 100%, 100%)" fill-opacity="1" d="M 2.5 3.5 C 2.5 4.050781 2.050781 4.5 1.5 4.5 C 0.949219 4.5 0.5 4.050781 0.5 3.5 C 0.5 2.949219 0.949219 2.5 1.5 2.5 C 2.050781 2.5 2.5 2.949219 2.5 3.5 Z M 2.5 3.5 "/>
<path fill-rule="nonzero" fill="rgb(100%, 100%, 100%)" fill-opacity="1" d="M 2.5 7 C 2.5 7.550781 2.050781 8 1.5 8 C 0.949219 8 0.5 7.550781 0.5 7 C 0.5 6.449219 0.949219 6 1.5 6 C 2.050781 6 2.5 6.449219 2.5 7 Z M 2.5 7 "/>
<path fill-rule="nonzero" fill="rgb(100%, 100%, 100%)" fill-opacity="1" d="M 2.5 10.5 C 2.5 11.050781 2.050781 11.5 1.5 11.5 C 0.949219 11.5 0.5 11.050781 0.5 10.5 C 0.5 9.949219 0.949219 9.5 1.5 9.5 C 2.050781 9.5 2.5 9.949219 2.5 10.5 Z M 2.5 10.5 "/>
<path fill-rule="nonzero" fill="rgb(100%, 100%, 100%)" fill-opacity="1" d="M 20.5 3.5 C 20.5 4.050781 20.050781 4.5 19.5 4.5 C 18.949219 4.5 18.5 4.050781 18.5 3.5 C 18.5 2.949219 18.949219 2.5 19.5 2.5 C 20.050781 2.5 20.5 2.949219 20.5 3.5 Z M 20.5 3.5 "/>
<path fill-rule="nonzero" fill="rgb(100%, 100%, 100%)" fill-opacity="1" d="M 20.5 7 C 20.5 7.550781 20.050781 8 19.5 8 C 18.949219 8 18.5 7.550781 18.5 7 C 18.5 6.449219 18.949219 6 19.5 6 C 20.050781 6 20.5 6.449219 20.5 7 Z M 20.5 7 "/>
<path fill-rule="nonzero" fill="rgb(100%, 100%, 100%)" fill-opacity="1" d="M 20.5 10.5 C 20.5 11.050781 20.050781 11.5 19.5 11.5 C 18.949219 11.5 18.5 11.050781 18.5 10.5 C 18.5 9.949219 18.949219 9.5 19.5 9.5 C 20.050781 9.5 20.5 9.949219 20.5 10.5 Z M 20.5 10.5 "/>
<path fill-rule="nonzero" fill="rgb(0%, 0%, 0%)" fill-opacity="1" d="M 6.902344 10.441406 L 5.53125 10.441406 L 5.53125 5.269531 C 5.027344 5.738281 4.4375 6.085938 3.757812 6.308594 L 3.757812 5.0625 C 4.113281 4.945312 4.503906 4.726562 4.921875 4.398438 C 5.34375 4.070312 5.632812 3.6875 5.789062 3.253906 L 6.902344 3.253906 Z M 6.902344 10.441406 "/>
<path fill-rule="nonzero" fill="rgb(0%, 0%, 0%)" fill-opacity="1" d="M 7.339844 8.597656 L 8.707031 8.457031 C 8.746094 8.765625 8.863281 9.011719 9.054688 9.191406 C 9.246094 9.375 9.46875 9.464844 9.71875 9.464844 C 10.003906 9.464844 10.246094 9.347656 10.445312 9.113281 C 10.644531 8.882812 10.742188 8.53125 10.742188 8.0625 C 10.742188 7.621094 10.644531 7.292969 10.449219 7.074219 C 10.25 6.855469 9.996094 6.742188 9.679688 6.742188 C 9.285156 6.742188 8.933594 6.917969 8.621094 7.265625 L 7.507812 7.105469 L 8.210938 3.378906 L 11.835938 3.378906 L 11.835938 4.664062 L 9.25 4.664062 L 9.035156 5.878906 C 9.339844 5.726562 9.652344 5.648438 9.972656 5.648438 C 10.582031 5.648438 11.097656 5.871094 11.519531 6.3125 C 11.945312 6.757812 12.15625 7.332031 12.15625 8.039062 C 12.15625 8.625 11.984375 9.152344 11.640625 9.613281 C 11.175781 10.246094 10.53125 10.5625 9.703125 10.5625 C 9.042969 10.5625 8.503906 10.382812 8.085938 10.03125 C 7.671875 9.675781 7.421875 9.199219 7.339844 8.597656 Z M 7.339844 8.597656 "/>
<path fill-rule="nonzero" fill="rgb(0%, 0%, 0%)" fill-opacity="1" d="M 14.917969 3.253906 C 15.613281 3.253906 16.15625 3.5 16.546875 3.996094 C 17.011719 4.582031 17.242188 5.550781 17.242188 6.910156 C 17.242188 8.265625 17.007812 9.238281 16.539062 9.828125 C 16.152344 10.316406 15.613281 10.5625 14.917969 10.5625 C 14.222656 10.5625 13.660156 10.292969 13.234375 9.757812 C 12.808594 9.222656 12.59375 8.269531 12.59375 6.894531 C 12.59375 5.546875 12.828125 4.578125 13.296875 3.984375 C 13.683594 3.496094 14.226562 3.253906 14.917969 3.253906 Z M 14.917969 4.390625 C 14.753906 4.390625 14.605469 4.441406 14.476562 4.550781 C 14.34375 4.65625 14.242188 4.84375 14.171875 5.117188 C 14.078125 5.472656 14.03125 6.070312 14.03125 6.910156 C 14.03125 7.75 14.074219 8.328125 14.15625 8.640625 C 14.242188 8.953125 14.347656 9.164062 14.476562 9.269531 C 14.605469 9.371094 14.753906 9.425781 14.917969 9.425781 C 15.085938 9.425781 15.234375 9.371094 15.363281 9.265625 C 15.492188 9.160156 15.59375 8.96875 15.664062 8.695312 C 15.761719 8.34375 15.808594 7.75 15.808594 6.910156 C 15.808594 6.070312 15.765625 5.492188 15.679688 5.179688 C 15.597656 4.863281 15.488281 4.65625 15.359375 4.550781 C 15.230469 4.441406 15.085938 4.390625 14.917969 4.390625 Z M 14.917969 4.390625 "/>
</svg>
