<?xml version="1.0" encoding="UTF-8"?>
<svg xmlns="http://www.w3.org/2000/svg" xmlns:xlink="http://www.w3.org/1999/xlink" width="21" height="14" viewBox="0 0 21 14">
<rect x="-2.1" y="-1.4" width="25.2" height="16.8" fill="rgb(0%, 0%, 0%)" fill-opacity="1"/>
<path fill-rule="nonzero" fill="rgb(100%, 100%, 100%)" fill-opacity="1" d="M 3 0.800781 L 18 0.800781 L 18 13.199219 L 3 13.199219 Z M 3 0.800781 "/>
<path fill-rule="nonzero" fill="rgb(100%, 100%, 100%)" fill-opacity="1" d="M 2.5 3.5 C 2.5 4.050781 2.050781 4.5 1.5 4.5 C 0.949219 4.5 0.5 4.050781 0.5 3.5 C 0.5 2.949219 0.949219 2.5 1.5 2.5 C 2.050781 2.5 2.5 2.949219 2.5 3.5 Z M 2.5 3.5 "/>
<path fill-rule="nonzero" fill="rgb(100%, 100%, 100%)" fill-opacity="1" d="M 2.5 7 C 2.5 7.550781 2.050781 8 1.5 8 C 0.949219 8 0.5 7.550781 0.5 7 C 0.5 6.449219 0.949219 6 1.5 6 C 2.050781 6 2.5 6.449219 2.5 7 Z M 2.5 7 "/>
<path fill-rule="nonzero" fill="rgb(100%, 100%, 100%)" fill-opacity="1" d="M 2.5 10.5 C 2.5 11.050781 2.050781 11.5 1.5 11.5 C 0.949219 11.5 0.5 11.050781 0.5 10.5 C 0.5 9.949219 0.949219 9.5 1.5 9.5 C 2.050781 9.5 2.5 9.949219 2.5 10.5 Z M 2.5 10.5 "/>
<path fill-rule="nonzero" fill="rgb(100%, 100%, 100%)" fill-opacity="1" d="M 20.5 3.5 C 20.5 4.050781 20.050781 4.5 19.5 4.5 C 18.949219 4.5 18.5 4.050781 18.5 3.5 C 18.5 2.949219 18.949219 2.5 19.5 2.5 C 20.050781 2.5 20.5 2.949219 20.5 3.5 Z M 20.5 3.5 "/>
<path fill-rule="nonzero" fill="rgb(100%, 100%, 100%)" fill-opacity="1" d="M 20.5 7 C 20.5 7.550781 20.050781 8 19.5 8 C 18.949219 8 18.5 7.550781 18.5 7 C 18.5 6.449219 18.949219 6 19.5 6 C 20.050781 6 20.5 6.449219 20.5 7 Z M 20.5 7 "/>
<path fill-rule="nonzero" fill="rgb(100%, 100%, 100%)" fill-opacity="1" d="M 20.5 10.5 C 20.5 11.050781 20.050781 11.5 19.5 11.5 C 18.949219 11.5 18.5 11.050781 18.5 10.5 C 18.5 9.949219 18.949219 9.5 19.5 9.5 C 20.050781 9.5 20.5 9.949219 20.5 10.5 Z M 20.5 10.5 "/>
<path fill-rule="nonzero" fill="rgb(0%, 0%, 0%)" fill-opacity="1" d="M 6.820312 10.441406 L 5.445312 10.441406 L 5.445312 5.269531 C 4.945312 5.738281 4.355469 6.085938 3.671875 6.308594 L 3.671875 5.0625 C 4.03125 4.945312 4.421875 4.726562 4.839844 4.398438 C 5.261719 4.070312 5.546875 3.6875 5.703125 3.253906 L 6.820312 3.253906 Z M 6.820312 10.441406 "/>
<path fill-rule="nonzero" fill="rgb(0%, 0%, 0%)" fill-opacity="1" d="M 7.257812 8.597656 L 8.625 8.457031 C 8.664062 8.765625 8.78125 9.011719 8.972656 9.191406 C 9.164062 9.375 9.386719 9.464844 9.636719 9.464844 C 9.921875 9.464844 10.164062 9.347656 10.363281 9.113281 C 10.5625 8.882812 10.660156 8.53125 10.660156 8.0625 C 10.660156 7.621094 10.5625 7.292969 10.367188 7.074219 C 10.167969 6.855469 9.914062 6.742188 9.597656 6.742188 C 9.203125 6.742188 8.851562 6.917969 8.539062 7.265625 L 7.421875 7.105469 L 8.125 3.378906 L 11.753906 3.378906 L 11.753906 4.664062 L 9.167969 4.664062 L 8.953125 5.878906 C 9.257812 5.726562 9.570312 5.648438 9.890625 5.648438 C 10.5 5.648438 11.015625 5.871094 11.4375 6.3125 C 11.859375 6.757812 12.070312 7.332031 12.070312 8.039062 C 12.070312 8.625 11.902344 9.152344 11.558594 9.613281 C 11.09375 10.246094 10.449219 10.5625 9.621094 10.5625 C 8.960938 10.5625 8.421875 10.382812 8.003906 10.03125 C 7.589844 9.675781 7.339844 9.199219 7.257812 8.597656 Z M 7.257812 8.597656 "/>
<path fill-rule="nonzero" fill="rgb(0%, 0%, 0%)" fill-opacity="1" d="M 12.511719 8.597656 L 13.878906 8.457031 C 13.917969 8.765625 14.035156 9.011719 14.226562 9.191406 C 14.417969 9.375 14.640625 9.464844 14.890625 9.464844 C 15.175781 9.464844 15.417969 9.347656 15.617188 9.113281 C 15.816406 8.882812 15.914062 8.53125 15.914062 8.0625 C 15.914062 7.621094 15.816406 7.292969 15.621094 7.074219 C 15.421875 6.855469 15.167969 6.742188 14.851562 6.742188 C 14.457031 6.742188 14.101562 6.917969 13.789062 7.265625 L 12.679688 7.105469 L 13.382812 3.378906 L 17.007812 3.378906 L 17.007812 4.664062 L 14.421875 4.664062 L 14.207031 5.878906 C 14.511719 5.726562 14.824219 5.648438 15.144531 5.648438 C 15.753906 5.648438 16.269531 5.871094 16.691406 6.3125 C 17.113281 6.757812 17.328125 7.332031 17.328125 8.039062 C 17.328125 8.625 17.15625 9.152344 16.8125 9.613281 C 16.347656 10.246094 15.703125 10.5625 14.875 10.5625 C 14.214844 10.5625 13.675781 10.382812 13.257812 10.03125 C 12.84375 9.675781 12.59375 9.199219 12.511719 8.597656 Z M 12.511719 8.597656 "/>
</svg>
