<?xml version="1.0" encoding="UTF-8"?>
<svg xmlns="http://www.w3.org/2000/svg" xmlns:xlink="http://www.w3.org/1999/xlink" width="21" height="14" viewBox="0 0 21 14">
<rect x="-2.1" y="-1.4" width="25.2" height="16.8" fill="rgb(0%, 0%, 0%)" fill-opacity="1"/>
<path fill-rule="nonzero" fill="rgb(100%, 100%, 100%)" fill-opacity="1" d="M 3 0.800781 L 18 0.800781 L 18 13.199219 L 3 13.199219 Z M 3 0.800781 "/>
<path fill-rule="nonzero" fill="rgb(100%, 100%, 100%)" fill-opacity="1" d="M 2.5 3.5 C 2.5 4.050781 2.050781 4.5 1.5 4.5 C 0.949219 4.5 0.5 4.050781 0.5 3.5 C 0.5 2.949219 0.949219 2.5 1.5 2.5 C 2.050781 2.5 2.5 2.949219 2.5 3.5 Z M 2.5 3.5 "/>
<path fill-rule="nonzero" fill="rgb(100%, 100%, 100%)" fill-opacity="1" d="M 2.5 7 C 2.5 7.550781 2.050781 8 1.5 8 C 0.949219 8 0.5 7.550781 0.5 7 C 0.5 6.449219 0.949219 6 1.5 6 C 2.050781 6 2.5 6.449219 2.5 7 Z M 2.5 7 "/>
<path fill-rule="nonzero" fill="rgb(100%, 100%, 100%)" fill-opacity="1" d="M 2.5 10.5 C 2.5 11.050781 2.050781 11.5 1.5 11.5 C 0.949219 11.5 0.5 11.050781 0.5 10.5 C 0.5 9.949219 0.949219 9.5 1.5 9.5 C 2.050781 9.5 2.5 9.949219 2.5 10.5 Z M 2.5 10.5 "/>
<path fill-rule="nonzero" fill="rgb(100%, 100%, 100%)" fill-opacity="1" d="M 20.5 3.5 C 20.5 4.050781 20.050781 4.5 19.5 4.5 C 18.949219 4.5 18.5 4.050781 18.5 3.5 C 18.5 2.949219 18.949219 2.5 19.5 2.5 C 20.050781 2.5 20.5 2.949219 20.5 3.5 Z M 20.5 3.5 "/>
<path fill-rule="nonzero" fill="rgb(100%, 100%, 100%)" fill-opacity="1" d="M 20.5 7 C 20.5 7.550781 20.050781 8 19.5 8 C 18.949219 8 18.5 7.550781 18.5 7 C 18.5 6.449219 18.949219 6 19.5 6 C 20.050781 6 20.5 6.449219 20.5 7 Z M 20.5 7 "/>
<path fill-rule="nonzero" fill="rgb(100%, 100%, 100%)" fill-opacity="1" d="M 20.5 10.5 C 20.5 11.050781 20.050781 11.5 19.5 11.5 C 18.949219 11.5 18.5 11.050781 18.5 10.5 C 18.5 9.949219 18.949219 9.5 19.5 9.5 C 20.050781 9.5 20.5 9.949219 20.5 10.5 Z M 20.5 10.5 "/>
<path fill-rule="nonzero" fill="rgb(0%, 0%, 0%)" fill-opacity="1" d="M 6.917969 10.441406 L 5.546875 10.441406 L 5.546875 5.269531 C 5.046875 5.738281 4.453125 6.085938 3.773438 6.308594 L 3.773438 5.0625 C 4.132812 4.945312 4.519531 4.726562 4.941406 4.398438 C 5.359375 4.070312 5.648438 3.6875 5.804688 3.253906 L 6.917969 3.253906 Z M 6.917969 10.441406 "/>
<path fill-rule="nonzero" fill="rgb(0%, 0%, 0%)" fill-opacity="1" d="M 12.007812 5.035156 L 10.679688 5.179688 C 10.644531 4.90625 10.5625 4.707031 10.425781 4.574219 C 10.289062 4.445312 10.109375 4.378906 9.890625 4.378906 C 9.601562 4.378906 9.359375 4.511719 9.15625 4.769531 C 8.957031 5.03125 8.832031 5.574219 8.777344 6.398438 C 9.121094 5.992188 9.546875 5.792969 10.054688 5.792969 C 10.625 5.792969 11.117188 6.007812 11.523438 6.445312 C 11.933594 6.882812 12.136719 7.445312 12.136719 8.136719 C 12.136719 8.867188 11.921875 9.457031 11.492188 9.898438 C 11.0625 10.339844 10.511719 10.5625 9.839844 10.5625 C 9.117188 10.5625 8.523438 10.28125 8.054688 9.71875 C 7.589844 9.160156 7.359375 8.238281 7.359375 6.957031 C 7.359375 5.648438 7.601562 4.699219 8.085938 4.121094 C 8.570312 3.542969 9.199219 3.253906 9.976562 3.253906 C 10.519531 3.253906 10.96875 3.40625 11.324219 3.710938 C 11.679688 4.011719 11.910156 4.457031 12.007812 5.035156 Z M 8.894531 8.027344 C 8.894531 8.472656 9 8.816406 9.203125 9.0625 C 9.410156 9.304688 9.644531 9.425781 9.90625 9.425781 C 10.160156 9.425781 10.371094 9.324219 10.542969 9.125 C 10.710938 8.929688 10.796875 8.601562 10.796875 8.148438 C 10.796875 7.683594 10.703125 7.34375 10.523438 7.128906 C 10.339844 6.910156 10.113281 6.800781 9.839844 6.800781 C 9.574219 6.800781 9.351562 6.90625 9.167969 7.113281 C 8.988281 7.320312 8.894531 7.625 8.894531 8.027344 Z M 8.894531 8.027344 "/>
<path fill-rule="nonzero" fill="rgb(0%, 0%, 0%)" fill-opacity="1" d="M 14.902344 3.253906 C 15.59375 3.253906 16.136719 3.5 16.527344 3.996094 C 16.992188 4.582031 17.226562 5.550781 17.226562 6.910156 C 17.226562 8.265625 16.992188 9.238281 16.523438 9.828125 C 16.136719 10.316406 15.59375 10.5625 14.902344 10.5625 C 14.207031 10.5625 13.644531 10.292969 13.21875 9.757812 C 12.789062 9.222656 12.578125 8.269531 12.578125 6.894531 C 12.578125 5.546875 12.8125 4.578125 13.28125 3.984375 C 13.667969 3.496094 14.207031 3.253906 14.902344 3.253906 Z M 14.902344 4.390625 C 14.734375 4.390625 14.585938 4.441406 14.457031 4.550781 C 14.328125 4.65625 14.226562 4.84375 14.15625 5.117188 C 14.058594 5.472656 14.011719 6.070312 14.011719 6.910156 C 14.011719 7.75 14.054688 8.328125 14.140625 8.640625 C 14.226562 8.953125 14.332031 9.164062 14.460938 9.269531 C 14.589844 9.371094 14.734375 9.425781 14.902344 9.425781 C 15.066406 9.425781 15.214844 9.371094 15.347656 9.265625 C 15.476562 9.160156 15.578125 8.96875 15.648438 8.695312 C 15.742188 8.34375 15.789062 7.75 15.789062 6.910156 C 15.789062 6.070312 15.75 5.492188 15.664062 5.179688 C 15.578125 4.863281 15.472656 4.65625 15.34375 4.550781 C 15.214844 4.441406 15.066406 4.390625 14.902344 4.390625 Z M 14.902344 4.390625 "/>
</svg>
