<?xml version="1.0" encoding="UTF-8"?>
<svg xmlns="http://www.w3.org/2000/svg" xmlns:xlink="http://www.w3.org/1999/xlink" width="21" height="14" viewBox="0 0 21 14">
<rect x="-2.1" y="-1.4" width="25.2" height="16.8" fill="rgb(0%, 0%, 0%)" fill-opacity="1"/>
<path fill-rule="nonzero" fill="rgb(100%, 100%, 100%)" fill-opacity="1" d="M 3 0.800781 L 18 0.800781 L 18 13.199219 L 3 13.199219 Z M 3 0.800781 "/>
<path fill-rule="nonzero" fill="rgb(100%, 100%, 100%)" fill-opacity="1" d="M 2.5 3.5 C 2.5 4.050781 2.050781 4.5 1.5 4.5 C 0.949219 4.5 0.5 4.050781 0.5 3.5 C 0.5 2.949219 0.949219 2.5 1.5 2.5 C 2.050781 2.5 2.5 2.949219 2.5 3.5 Z M 2.5 3.5 "/>
<path fill-rule="nonzero" fill="rgb(100%, 100%, 100%)" fill-opacity="1" d="M 2.5 7 C 2.5 7.550781 2.050781 8 1.5 8 C 0.949219 8 0.5 7.550781 0.5 7 C 0.5 6.449219 0.949219 6 1.5 6 C 2.050781 6 2.5 6.449219 2.5 7 Z M 2.5 7 "/>
<path fill-rule="nonzero" fill="rgb(100%, 100%, 100%)" fill-opacity="1" d="M 2.5 10.5 C 2.5 11.050781 2.050781 11.5 1.5 11.5 C 0.949219 11.5 0.5 11.050781 0.5 10.5 C 0.5 9.949219 0.949219 9.5 1.5 9.5 C 2.050781 9.5 2.5 9.949219 2.5 10.5 Z M 2.5 10.5 "/>
<path fill-rule="nonzero" fill="rgb(100%, 100%, 100%)" fill-opacity="1" d="M 20.5 3.5 C 20.5 4.050781 20.050781 4.5 19.5 4.5 C 18.949219 4.5 18.5 4.050781 18.5 3.5 C 18.5 2.949219 18.949219 2.5 19.5 2.5 C 20.050781 2.5 20.5 2.949219 20.5 3.5 Z M 20.5 3.5 "/>
<path fill-rule="nonzero" fill="rgb(100%, 100%, 100%)" fill-opacity="1" d="M 20.5 7 C 20.5 7.550781 20.050781 8 19.5 8 C 18.949219 8 18.5 7.550781 18.5 7 C 18.5 6.449219 18.949219 6 19.5 6 C 20.050781 6 20.5 6.449219 20.5 7 Z M 20.5 7 "/>
<path fill-rule="nonzero" fill="rgb(100%, 100%, 100%)" fill-opacity="1" d="M 20.5 10.5 C 20.5 11.050781 20.050781 11.5 19.5 11.5 C 18.949219 11.5 18.5 11.050781 18.5 10.5 C 18.5 9.949219 18.949219 9.5 19.5 9.5 C 20.050781 9.5 20.5 9.949219 20.5 10.5 Z M 20.5 10.5 "/>
<path fill-rule="nonzero" fill="rgb(0%, 0%, 0%)" fill-opacity="1" d="M 4.101562 9.003906 L 5.828125 8.792969 C 5.882812 9.234375 6.03125 9.570312 6.273438 9.800781 C 6.515625 10.035156 6.804688 10.152344 7.148438 10.152344 C 7.515625 10.152344 7.828125 10.011719 8.078125 9.734375 C 8.332031 9.453125 8.457031 9.078125 8.457031 8.601562 C 8.457031 8.15625 8.335938 7.800781 8.09375 7.535156 C 7.851562 7.273438 7.558594 7.144531 7.210938 7.144531 C 6.984375 7.144531 6.710938 7.1875 6.394531 7.277344 L 6.589844 5.824219 C 7.070312 5.835938 7.441406 5.730469 7.695312 5.507812 C 7.949219 5.285156 8.074219 4.992188 8.074219 4.621094 C 8.074219 4.308594 7.980469 4.058594 7.796875 3.875 C 7.609375 3.6875 7.363281 3.59375 7.054688 3.59375 C 6.75 3.59375 6.488281 3.699219 6.273438 3.910156 C 6.054688 4.125 5.925781 4.433594 5.878906 4.839844 L 4.234375 4.558594 C 4.347656 3.996094 4.523438 3.546875 4.753906 3.210938 C 4.984375 2.875 5.304688 2.609375 5.71875 2.417969 C 6.128906 2.222656 6.59375 2.128906 7.105469 2.128906 C 7.980469 2.128906 8.683594 2.40625 9.210938 2.964844 C 9.648438 3.421875 9.867188 3.941406 9.867188 4.515625 C 9.867188 5.332031 9.417969 5.984375 8.527344 6.46875 C 9.058594 6.585938 9.484375 6.839844 9.804688 7.238281 C 10.125 7.636719 10.285156 8.117188 10.285156 8.679688 C 10.285156 9.496094 9.984375 10.191406 9.390625 10.765625 C 8.792969 11.34375 8.050781 11.628906 7.160156 11.628906 C 6.320312 11.628906 5.621094 11.386719 5.066406 10.902344 C 4.511719 10.417969 4.191406 9.785156 4.101562 9.003906 Z M 4.101562 9.003906 "/>
<path fill-rule="nonzero" fill="rgb(0%, 0%, 0%)" fill-opacity="1" d="M 13.875 2.128906 C 14.777344 2.128906 15.484375 2.449219 15.992188 3.09375 C 16.597656 3.855469 16.898438 5.117188 16.898438 6.882812 C 16.898438 8.644531 16.59375 9.910156 15.984375 10.679688 C 15.480469 11.3125 14.777344 11.628906 13.875 11.628906 C 12.972656 11.628906 12.242188 11.28125 11.6875 10.585938 C 11.132812 9.890625 10.855469 8.648438 10.855469 6.863281 C 10.855469 5.113281 11.160156 3.851562 11.769531 3.082031 C 12.273438 2.445312 12.976562 2.128906 13.875 2.128906 Z M 13.875 3.605469 C 13.660156 3.605469 13.46875 3.675781 13.300781 3.8125 C 13.128906 3.949219 13 4.199219 12.90625 4.554688 C 12.78125 5.015625 12.722656 5.789062 12.722656 6.882812 C 12.722656 7.972656 12.777344 8.722656 12.886719 9.132812 C 12.996094 9.542969 13.136719 9.8125 13.300781 9.949219 C 13.46875 10.085938 13.660156 10.152344 13.875 10.152344 C 14.09375 10.152344 14.285156 10.082031 14.453125 9.945312 C 14.625 9.808594 14.753906 9.5625 14.847656 9.207031 C 14.972656 8.75 15.03125 7.972656 15.03125 6.882812 C 15.03125 5.789062 14.976562 5.039062 14.867188 4.632812 C 14.757812 4.222656 14.617188 3.949219 14.453125 3.8125 C 14.285156 3.675781 14.09375 3.605469 13.875 3.605469 Z M 13.875 3.605469 "/>
</svg>
