<?xml version="1.0" encoding="UTF-8"?>
<svg xmlns="http://www.w3.org/2000/svg" xmlns:xlink="http://www.w3.org/1999/xlink" width="21" height="14" viewBox="0 0 21 14">
<rect x="-2.1" y="-1.4" width="25.2" height="16.8" fill="rgb(0%, 0%, 0%)" fill-opacity="1"/>
<path fill-rule="nonzero" fill="rgb(100%, 100%, 100%)" fill-opacity="1" d="M 3 0.800781 L 18 0.800781 L 18 13.199219 L 3 13.199219 Z M 3 0.800781 "/>
<path fill-rule="nonzero" fill="rgb(100%, 100%, 100%)" fill-opacity="1" d="M 2.5 3.5 C 2.5 4.050781 2.050781 4.5 1.5 4.5 C 0.949219 4.5 0.5 4.050781 0.5 3.5 C 0.5 2.949219 0.949219 2.5 1.5 2.5 C 2.050781 2.5 2.5 2.949219 2.5 3.5 Z M 2.5 3.5 "/>
<path fill-rule="nonzero" fill="rgb(100%, 100%, 100%)" fill-opacity="1" d="M 2.5 7 C 2.5 7.550781 2.050781 8 1.5 8 C 0.949219 8 0.5 7.550781 0.5 7 C 0.5 6.449219 0.949219 6 1.5 6 C 2.050781 6 2.5 6.449219 2.5 7 Z M 2.5 7 "/>
<path fill-rule="nonzero" fill="rgb(100%, 100%, 100%)" fill-opacity="1" d="M 2.5 10.5 C 2.5 11.050781 2.050781 11.5 1.5 11.5 C 0.949219 11.5 0.5 11.050781 0.5 10.5 C 0.5 9.949219 0.949219 9.5 1.5 9.5 C 2.050781 9.5 2.5 9.949219 2.5 10.5 Z M 2.5 10.5 "/>
<path fill-rule="nonzero" fill="rgb(100%, 100%, 100%)" fill-opacity="1" d="M 20.5 3.5 C 20.5 4.050781 20.050781 4.5 19.5 4.5 C 18.949219 4.5 18.5 4.050781 18.5 3.5 C 18.5 2.949219 18.949219 2.5 19.5 2.5 C 20.050781 2.5 20.5 2.949219 20.5 3.5 Z M 20.5 3.5 "/>
<path fill-rule="nonzero" fill="rgb(100%, 100%, 100%)" fill-opacity="1" d="M 20.5 7 C 20.5 7.550781 20.050781 8 19.5 8 C 18.949219 8 18.5 7.550781 18.5 7 C 18.5 6.449219 18.949219 6 19.5 6 C 20.050781 6 20.5 6.449219 20.5 7 Z M 20.5 7 "/>
<path fill-rule="nonzero" fill="rgb(100%, 100%, 100%)" fill-opacity="1" d="M 20.5 10.5 C 20.5 11.050781 20.050781 11.5 19.5 11.5 C 18.949219 11.5 18.5 11.050781 18.5 10.5 C 18.5 9.949219 18.949219 9.5 19.5 9.5 C 20.050781 9.5 20.5 9.949219 20.5 10.5 Z M 20.5 10.5 "/>
<path fill-rule="nonzero" fill="rgb(0%, 0%, 0%)" fill-opacity="1" d="M 7.65625 11.472656 L 7.65625 9.597656 L 3.847656 9.597656 L 3.847656 8.039062 L 7.882812 2.128906 L 9.382812 2.128906 L 9.382812 8.03125 L 10.539062 8.03125 L 10.539062 9.597656 L 9.382812 9.597656 L 9.382812 11.472656 Z M 7.65625 8.03125 L 7.65625 4.851562 L 5.515625 8.03125 Z M 7.65625 8.03125 "/>
<path fill-rule="nonzero" fill="rgb(0%, 0%, 0%)" fill-opacity="1" d="M 14.132812 2.128906 C 15.03125 2.128906 15.738281 2.449219 16.246094 3.09375 C 16.851562 3.855469 17.152344 5.117188 17.152344 6.882812 C 17.152344 8.644531 16.847656 9.910156 16.238281 10.679688 C 15.734375 11.3125 15.03125 11.628906 14.132812 11.628906 C 13.226562 11.628906 12.496094 11.28125 11.941406 10.585938 C 11.386719 9.890625 11.109375 8.648438 11.109375 6.863281 C 11.109375 5.113281 11.414062 3.851562 12.023438 3.082031 C 12.527344 2.445312 13.230469 2.128906 14.132812 2.128906 Z M 14.132812 3.605469 C 13.914062 3.605469 13.722656 3.675781 13.554688 3.8125 C 13.382812 3.949219 13.253906 4.199219 13.160156 4.554688 C 13.035156 5.015625 12.976562 5.789062 12.976562 6.882812 C 12.976562 7.972656 13.03125 8.722656 13.140625 9.132812 C 13.25 9.542969 13.390625 9.8125 13.554688 9.949219 C 13.722656 10.085938 13.914062 10.152344 14.132812 10.152344 C 14.347656 10.152344 14.539062 10.082031 14.707031 9.945312 C 14.878906 9.808594 15.007812 9.5625 15.101562 9.207031 C 15.226562 8.75 15.285156 7.972656 15.285156 6.882812 C 15.285156 5.789062 15.230469 5.039062 15.121094 4.632812 C 15.011719 4.222656 14.871094 3.949219 14.707031 3.8125 C 14.539062 3.675781 14.347656 3.605469 14.132812 3.605469 Z M 14.132812 3.605469 "/>
</svg>
