<?xml version="1.0" encoding="UTF-8"?>
<svg xmlns="http://www.w3.org/2000/svg" xmlns:xlink="http://www.w3.org/1999/xlink" width="21" height="14" viewBox="0 0 21 14">
<rect x="-2.1" y="-1.4" width="25.2" height="16.8" fill="rgb(0%, 0%, 0%)" fill-opacity="1"/>
<path fill-rule="nonzero" fill="rgb(100%, 100%, 100%)" fill-opacity="1" d="M 3 0.800781 L 18 0.800781 L 18 13.199219 L 3 13.199219 Z M 3 0.800781 "/>
<path fill-rule="nonzero" fill="rgb(100%, 100%, 100%)" fill-opacity="1" d="M 2.5 3.5 C 2.5 4.050781 2.050781 4.5 1.5 4.5 C 0.949219 4.5 0.5 4.050781 0.5 3.5 C 0.5 2.949219 0.949219 2.5 1.5 2.5 C 2.050781 2.5 2.5 2.949219 2.5 3.5 Z M 2.5 3.5 "/>
<path fill-rule="nonzero" fill="rgb(100%, 100%, 100%)" fill-opacity="1" d="M 2.5 7 C 2.5 7.550781 2.050781 8 1.5 8 C 0.949219 8 0.5 7.550781 0.5 7 C 0.5 6.449219 0.949219 6 1.5 6 C 2.050781 6 2.5 6.449219 2.5 7 Z M 2.5 7 "/>
<path fill-rule="nonzero" fill="rgb(100%, 100%, 100%)" fill-opacity="1" d="M 2.5 10.5 C 2.5 11.050781 2.050781 11.5 1.5 11.5 C 0.949219 11.5 0.5 11.050781 0.5 10.5 C 0.5 9.949219 0.949219 9.5 1.5 9.5 C 2.050781 9.5 2.5 9.949219 2.5 10.5 Z M 2.5 10.5 "/>
<path fill-rule="nonzero" fill="rgb(100%, 100%, 100%)" fill-opacity="1" d="M 20.5 3.5 C 20.5 4.050781 20.050781 4.5 19.5 4.5 C 18.949219 4.5 18.5 4.050781 18.5 3.5 C 18.5 2.949219 18.949219 2.5 19.5 2.5 C 20.050781 2.5 20.5 2.949219 20.5 3.5 Z M 20.5 3.5 "/>
<path fill-rule="nonzero" fill="rgb(100%, 100%, 100%)" fill-opacity="1" d="M 20.5 7 C 20.5 7.550781 20.050781 8 19.5 8 C 18.949219 8 18.5 7.550781 18.5 7 C 18.5 6.449219 18.949219 6 19.5 6 C 20.050781 6 20.5 6.449219 20.5 7 Z M 20.5 7 "/>
<path fill-rule="nonzero" fill="rgb(100%, 100%, 100%)" fill-opacity="1" d="M 20.5 10.5 C 20.5 11.050781 20.050781 11.5 19.5 11.5 C 18.949219 11.5 18.5 11.050781 18.5 10.5 C 18.5 9.949219 18.949219 9.5 19.5 9.5 C 20.050781 9.5 20.5 9.949219 20.5 10.5 Z M 20.5 10.5 "/>
<path fill-rule="nonzero" fill="rgb(0%, 0%, 0%)" fill-opacity="1" d="M 7.546875 11.472656 L 7.546875 9.597656 L 3.738281 9.597656 L 3.738281 8.039062 L 7.777344 2.128906 L 9.273438 2.128906 L 9.273438 8.03125 L 10.429688 8.03125 L 10.429688 9.597656 L 9.273438 9.597656 L 9.273438 11.472656 Z M 7.546875 8.03125 L 7.546875 4.851562 L 5.410156 8.03125 Z M 7.546875 8.03125 "/>
<path fill-rule="nonzero" fill="rgb(0%, 0%, 0%)" fill-opacity="1" d="M 11 9.078125 L 12.777344 8.894531 C 12.828125 9.296875 12.980469 9.617188 13.230469 9.851562 C 13.480469 10.085938 13.765625 10.203125 14.09375 10.203125 C 14.464844 10.203125 14.78125 10.050781 15.039062 9.75 C 15.296875 9.445312 15.425781 8.988281 15.425781 8.378906 C 15.425781 7.808594 15.296875 7.382812 15.042969 7.09375 C 14.785156 6.808594 14.453125 6.667969 14.042969 6.667969 C 13.53125 6.667969 13.070312 6.894531 12.664062 7.347656 L 11.21875 7.136719 L 12.132812 2.292969 L 16.847656 2.292969 L 16.847656 3.960938 L 13.484375 3.960938 L 13.203125 5.542969 C 13.601562 5.34375 14.007812 5.246094 14.421875 5.246094 C 15.214844 5.246094 15.886719 5.53125 16.433594 6.109375 C 16.984375 6.683594 17.261719 7.429688 17.261719 8.347656 C 17.261719 9.113281 17.039062 9.796875 16.59375 10.398438 C 15.988281 11.21875 15.148438 11.628906 14.074219 11.628906 C 13.214844 11.628906 12.515625 11.398438 11.972656 10.9375 C 11.429688 10.476562 11.105469 9.859375 11 9.078125 Z M 11 9.078125 "/>
</svg>
