<?xml version="1.0" encoding="UTF-8"?>
<svg xmlns="http://www.w3.org/2000/svg" xmlns:xlink="http://www.w3.org/1999/xlink" width="21" height="14" viewBox="0 0 21 14">
<rect x="-2.1" y="-1.4" width="25.2" height="16.8" fill="rgb(0%, 0%, 0%)" fill-opacity="1"/>
<path fill-rule="nonzero" fill="rgb(100%, 100%, 100%)" fill-opacity="1" d="M 3 0.800781 L 18 0.800781 L 18 13.199219 L 3 13.199219 Z M 3 0.800781 "/>
<path fill-rule="nonzero" fill="rgb(100%, 100%, 100%)" fill-opacity="1" d="M 2.5 3.5 C 2.5 4.050781 2.050781 4.5 1.5 4.5 C 0.949219 4.5 0.5 4.050781 0.5 3.5 C 0.5 2.949219 0.949219 2.5 1.5 2.5 C 2.050781 2.5 2.5 2.949219 2.5 3.5 Z M 2.5 3.5 "/>
<path fill-rule="nonzero" fill="rgb(100%, 100%, 100%)" fill-opacity="1" d="M 2.5 7 C 2.5 7.550781 2.050781 8 1.5 8 C 0.949219 8 0.5 7.550781 0.5 7 C 0.5 6.449219 0.949219 6 1.5 6 C 2.050781 6 2.5 6.449219 2.5 7 Z M 2.5 7 "/>
<path fill-rule="nonzero" fill="rgb(100%, 100%, 100%)" fill-opacity="1" d="M 2.5 10.5 C 2.5 11.050781 2.050781 11.5 1.5 11.5 C 0.949219 11.5 0.5 11.050781 0.5 10.5 C 0.5 9.949219 0.949219 9.5 1.5 9.5 C 2.050781 9.5 2.5 9.949219 2.5 10.5 Z M 2.5 10.5 "/>
<path fill-rule="nonzero" fill="rgb(100%, 100%, 100%)" fill-opacity="1" d="M 20.5 3.5 C 20.5 4.050781 20.050781 4.5 19.5 4.5 C 18.949219 4.5 18.5 4.050781 18.5 3.5 C 18.5 2.949219 18.949219 2.5 19.5 2.5 C 20.050781 2.5 20.5 2.949219 20.5 3.5 Z M 20.5 3.5 "/>
<path fill-rule="nonzero" fill="rgb(100%, 100%, 100%)" fill-opacity="1" d="M 20.5 7 C 20.5 7.550781 20.050781 8 19.5 8 C 18.949219 8 18.5 7.550781 18.5 7 C 18.5 6.449219 18.949219 6 19.5 6 C 20.050781 6 20.5 6.449219 20.5 7 Z M 20.5 7 "/>
<path fill-rule="nonzero" fill="rgb(100%, 100%, 100%)" fill-opacity="1" d="M 20.5 10.5 C 20.5 11.050781 20.050781 11.5 19.5 11.5 C 18.949219 11.5 18.5 11.050781 18.5 10.5 C 18.5 9.949219 18.949219 9.5 19.5 9.5 C 20.050781 9.5 20.5 9.949219 20.5 10.5 Z M 20.5 10.5 "/>
<path fill-rule="nonzero" fill="rgb(0%, 0%, 0%)" fill-opacity="1" d="M 3.957031 9.078125 L 5.734375 8.894531 C 5.785156 9.296875 5.933594 9.617188 6.183594 9.851562 C 6.433594 10.085938 6.722656 10.203125 7.046875 10.203125 C 7.417969 10.203125 7.734375 10.050781 7.992188 9.75 C 8.25 9.445312 8.378906 8.988281 8.378906 8.378906 C 8.378906 7.808594 8.25 7.382812 7.996094 7.09375 C 7.738281 6.808594 7.40625 6.667969 6.996094 6.667969 C 6.484375 6.667969 6.023438 6.894531 5.617188 7.347656 L 4.171875 7.136719 L 5.085938 2.292969 L 9.800781 2.292969 L 9.800781 3.960938 L 6.4375 3.960938 L 6.15625 5.542969 C 6.554688 5.34375 6.960938 5.246094 7.375 5.246094 C 8.167969 5.246094 8.839844 5.53125 9.390625 6.109375 C 9.9375 6.683594 10.214844 7.429688 10.214844 8.347656 C 10.214844 9.113281 9.992188 9.796875 9.546875 10.398438 C 8.941406 11.21875 8.101562 11.628906 7.027344 11.628906 C 6.167969 11.628906 5.46875 11.398438 4.925781 10.9375 C 4.386719 10.476562 4.0625 9.859375 3.957031 9.078125 Z M 3.957031 9.078125 "/>
<path fill-rule="nonzero" fill="rgb(0%, 0%, 0%)" fill-opacity="1" d="M 10.785156 9.078125 L 12.5625 8.894531 C 12.613281 9.296875 12.765625 9.617188 13.015625 9.851562 C 13.261719 10.085938 13.550781 10.203125 13.875 10.203125 C 14.25 10.203125 14.566406 10.050781 14.824219 9.75 C 15.082031 9.445312 15.210938 8.988281 15.210938 8.378906 C 15.210938 7.808594 15.082031 7.382812 14.824219 7.09375 C 14.570312 6.808594 14.238281 6.667969 13.828125 6.667969 C 13.3125 6.667969 12.855469 6.894531 12.449219 7.347656 L 11 7.136719 L 11.914062 2.292969 L 16.632812 2.292969 L 16.632812 3.960938 L 13.265625 3.960938 L 12.988281 5.542969 C 13.386719 5.34375 13.792969 5.246094 14.207031 5.246094 C 15 5.246094 15.667969 5.53125 16.21875 6.109375 C 16.769531 6.683594 17.042969 7.429688 17.042969 8.347656 C 17.042969 9.113281 16.820312 9.796875 16.378906 10.398438 C 15.773438 11.21875 14.933594 11.628906 13.859375 11.628906 C 13 11.628906 12.296875 11.398438 11.757812 10.9375 C 11.214844 10.476562 10.890625 9.859375 10.785156 9.078125 Z M 10.785156 9.078125 "/>
</svg>
