<?xml version="1.0" encoding="UTF-8"?>
<svg xmlns="http://www.w3.org/2000/svg" xmlns:xlink="http://www.w3.org/1999/xlink" width="21" height="14" viewBox="0 0 21 14">
<rect x="-2.1" y="-1.4" width="25.2" height="16.8" fill="rgb(0%, 0%, 0%)" fill-opacity="1"/>
<path fill-rule="nonzero" fill="rgb(100%, 100%, 100%)" fill-opacity="1" d="M 3 0.800781 L 18 0.800781 L 18 13.199219 L 3 13.199219 Z M 3 0.800781 "/>
<path fill-rule="nonzero" fill="rgb(100%, 100%, 100%)" fill-opacity="1" d="M 2.5 3.5 C 2.5 4.050781 2.050781 4.5 1.5 4.5 C 0.949219 4.5 0.5 4.050781 0.5 3.5 C 0.5 2.949219 0.949219 2.5 1.5 2.5 C 2.050781 2.5 2.5 2.949219 2.5 3.5 Z M 2.5 3.5 "/>
<path fill-rule="nonzero" fill="rgb(100%, 100%, 100%)" fill-opacity="1" d="M 2.5 7 C 2.5 7.550781 2.050781 8 1.5 8 C 0.949219 8 0.5 7.550781 0.5 7 C 0.5 6.449219 0.949219 6 1.5 6 C 2.050781 6 2.5 6.449219 2.5 7 Z M 2.5 7 "/>
<path fill-rule="nonzero" fill="rgb(100%, 100%, 100%)" fill-opacity="1" d="M 2.5 10.5 C 2.5 11.050781 2.050781 11.5 1.5 11.5 C 0.949219 11.5 0.5 11.050781 0.5 10.5 C 0.5 9.949219 0.949219 9.5 1.5 9.5 C 2.050781 9.5 2.5 9.949219 2.5 10.5 Z M 2.5 10.5 "/>
<path fill-rule="nonzero" fill="rgb(100%, 100%, 100%)" fill-opacity="1" d="M 20.5 3.5 C 20.5 4.050781 20.050781 4.5 19.5 4.5 C 18.949219 4.5 18.5 4.050781 18.5 3.5 C 18.5 2.949219 18.949219 2.5 19.5 2.5 C 20.050781 2.5 20.5 2.949219 20.5 3.5 Z M 20.5 3.5 "/>
<path fill-rule="nonzero" fill="rgb(100%, 100%, 100%)" fill-opacity="1" d="M 20.5 7 C 20.5 7.550781 20.050781 8 19.5 8 C 18.949219 8 18.5 7.550781 18.5 7 C 18.5 6.449219 18.949219 6 19.5 6 C 20.050781 6 20.5 6.449219 20.5 7 Z M 20.5 7 "/>
<path fill-rule="nonzero" fill="rgb(100%, 100%, 100%)" fill-opacity="1" d="M 20.5 10.5 C 20.5 11.050781 20.050781 11.5 19.5 11.5 C 18.949219 11.5 18.5 11.050781 18.5 10.5 C 18.5 9.949219 18.949219 9.5 19.5 9.5 C 20.050781 9.5 20.5 9.949219 20.5 10.5 Z M 20.5 10.5 "/>
<path fill-rule="nonzero" fill="rgb(0%, 0%, 0%)" fill-opacity="1" d="M 4.144531 3.949219 L 4.144531 2.292969 L 10.242188 2.292969 L 10.242188 3.589844 C 9.738281 4.082031 9.226562 4.792969 8.707031 5.722656 C 8.1875 6.648438 7.789062 7.632812 7.515625 8.675781 C 7.242188 9.71875 7.109375 10.652344 7.113281 11.472656 L 5.394531 11.472656 C 5.421875 10.1875 5.6875 8.875 6.191406 7.535156 C 6.691406 6.199219 7.359375 5.003906 8.199219 3.949219 Z M 4.144531 3.949219 "/>
<path fill-rule="nonzero" fill="rgb(0%, 0%, 0%)" fill-opacity="1" d="M 13.835938 2.128906 C 14.738281 2.128906 15.441406 2.449219 15.949219 3.09375 C 16.554688 3.855469 16.855469 5.117188 16.855469 6.882812 C 16.855469 8.644531 16.550781 9.910156 15.941406 10.679688 C 15.441406 11.3125 14.738281 11.628906 13.835938 11.628906 C 12.929688 11.628906 12.199219 11.28125 11.644531 10.585938 C 11.089844 9.890625 10.8125 8.648438 10.8125 6.863281 C 10.8125 5.113281 11.117188 3.851562 11.726562 3.082031 C 12.230469 2.445312 12.933594 2.128906 13.835938 2.128906 Z M 13.835938 3.605469 C 13.621094 3.605469 13.425781 3.675781 13.257812 3.8125 C 13.089844 3.949219 12.957031 4.199219 12.863281 4.554688 C 12.742188 5.015625 12.679688 5.789062 12.679688 6.882812 C 12.679688 7.972656 12.734375 8.722656 12.84375 9.132812 C 12.957031 9.542969 13.09375 9.8125 13.261719 9.949219 C 13.429688 10.085938 13.621094 10.152344 13.835938 10.152344 C 14.050781 10.152344 14.242188 10.082031 14.414062 9.945312 C 14.582031 9.808594 14.714844 9.5625 14.808594 9.207031 C 14.929688 8.75 14.992188 7.972656 14.992188 6.882812 C 14.992188 5.789062 14.9375 5.039062 14.824219 4.632812 C 14.714844 4.222656 14.578125 3.949219 14.410156 3.8125 C 14.242188 3.675781 14.050781 3.605469 13.835938 3.605469 Z M 13.835938 3.605469 "/>
</svg>
