<?xml version="1.0" encoding="UTF-8"?>
<svg xmlns="http://www.w3.org/2000/svg" xmlns:xlink="http://www.w3.org/1999/xlink" width="21" height="14" viewBox="0 0 21 14">
<rect x="-2.1" y="-1.4" width="25.2" height="16.8" fill="rgb(0%, 0%, 0%)" fill-opacity="1"/>
<path fill-rule="nonzero" fill="rgb(100%, 100%, 100%)" fill-opacity="1" d="M 3 0.800781 L 18 0.800781 L 18 13.199219 L 3 13.199219 Z M 3 0.800781 "/>
<path fill-rule="nonzero" fill="rgb(100%, 100%, 100%)" fill-opacity="1" d="M 2.5 3.5 C 2.5 4.050781 2.050781 4.5 1.5 4.5 C 0.949219 4.5 0.5 4.050781 0.5 3.5 C 0.5 2.949219 0.949219 2.5 1.5 2.5 C 2.050781 2.5 2.5 2.949219 2.5 3.5 Z M 2.5 3.5 "/>
<path fill-rule="nonzero" fill="rgb(100%, 100%, 100%)" fill-opacity="1" d="M 2.5 7 C 2.5 7.550781 2.050781 8 1.5 8 C 0.949219 8 0.5 7.550781 0.5 7 C 0.5 6.449219 0.949219 6 1.5 6 C 2.050781 6 2.5 6.449219 2.5 7 Z M 2.5 7 "/>
<path fill-rule="nonzero" fill="rgb(100%, 100%, 100%)" fill-opacity="1" d="M 2.5 10.5 C 2.5 11.050781 2.050781 11.5 1.5 11.5 C 0.949219 11.5 0.5 11.050781 0.5 10.5 C 0.5 9.949219 0.949219 9.5 1.5 9.5 C 2.050781 9.5 2.5 9.949219 2.5 10.5 Z M 2.5 10.5 "/>
<path fill-rule="nonzero" fill="rgb(100%, 100%, 100%)" fill-opacity="1" d="M 20.5 3.5 C 20.5 4.050781 20.050781 4.5 19.5 4.5 C 18.949219 4.5 18.5 4.050781 18.5 3.5 C 18.5 2.949219 18.949219 2.5 19.5 2.5 C 20.050781 2.5 20.5 2.949219 20.5 3.5 Z M 20.5 3.5 "/>
<path fill-rule="nonzero" fill="rgb(100%, 100%, 100%)" fill-opacity="1" d="M 20.5 7 C 20.5 7.550781 20.050781 8 19.5 8 C 18.949219 8 18.5 7.550781 18.5 7 C 18.5 6.449219 18.949219 6 19.5 6 C 20.050781 6 20.5 6.449219 20.5 7 Z M 20.5 7 "/>
<path fill-rule="nonzero" fill="rgb(100%, 100%, 100%)" fill-opacity="1" d="M 20.5 10.5 C 20.5 11.050781 20.050781 11.5 19.5 11.5 C 18.949219 11.5 18.5 11.050781 18.5 10.5 C 18.5 9.949219 18.949219 9.5 19.5 9.5 C 20.050781 9.5 20.5 9.949219 20.5 10.5 Z M 20.5 10.5 "/>
<path fill-rule="nonzero" fill="rgb(0%, 0%, 0%)" fill-opacity="1" d="M 5.6875 6.449219 C 5.226562 6.257812 4.890625 5.988281 4.683594 5.648438 C 4.472656 5.308594 4.367188 4.933594 4.367188 4.527344 C 4.367188 3.832031 4.609375 3.261719 5.09375 2.808594 C 5.578125 2.355469 6.269531 2.128906 7.160156 2.128906 C 8.046875 2.128906 8.730469 2.355469 9.222656 2.808594 C 9.710938 3.261719 9.953125 3.832031 9.953125 4.527344 C 9.953125 4.960938 9.84375 5.34375 9.617188 5.679688 C 9.394531 6.015625 9.078125 6.273438 8.671875 6.449219 C 9.1875 6.660156 9.582031 6.960938 9.847656 7.359375 C 10.117188 7.757812 10.253906 8.214844 10.253906 8.734375 C 10.253906 9.59375 9.976562 10.292969 9.429688 10.832031 C 8.882812 11.367188 8.152344 11.636719 7.242188 11.636719 C 6.398438 11.636719 5.691406 11.414062 5.128906 10.96875 C 4.464844 10.445312 4.132812 9.726562 4.132812 8.8125 C 4.132812 8.308594 4.257812 7.847656 4.507812 7.425781 C 4.757812 7.003906 5.152344 6.679688 5.6875 6.449219 Z M 6.054688 4.65625 C 6.054688 5.011719 6.15625 5.289062 6.359375 5.484375 C 6.558594 5.683594 6.828125 5.785156 7.160156 5.785156 C 7.5 5.785156 7.769531 5.683594 7.972656 5.484375 C 8.175781 5.28125 8.277344 5.003906 8.277344 4.648438 C 8.277344 4.3125 8.179688 4.046875 7.976562 3.84375 C 7.777344 3.644531 7.511719 3.542969 7.179688 3.542969 C 6.835938 3.542969 6.5625 3.644531 6.359375 3.847656 C 6.15625 4.050781 6.054688 4.320312 6.054688 4.65625 Z M 5.890625 8.640625 C 5.890625 9.132812 6.015625 9.515625 6.269531 9.789062 C 6.519531 10.066406 6.835938 10.203125 7.210938 10.203125 C 7.578125 10.203125 7.882812 10.070312 8.125 9.804688 C 8.367188 9.542969 8.488281 9.160156 8.488281 8.660156 C 8.488281 8.222656 8.363281 7.875 8.121094 7.609375 C 7.875 7.34375 7.5625 7.210938 7.1875 7.210938 C 6.75 7.210938 6.425781 7.363281 6.210938 7.664062 C 6 7.964844 5.890625 8.289062 5.890625 8.640625 Z M 5.890625 8.640625 "/>
<path fill-rule="nonzero" fill="rgb(0%, 0%, 0%)" fill-opacity="1" d="M 13.84375 2.128906 C 14.746094 2.128906 15.453125 2.449219 15.960938 3.09375 C 16.5625 3.855469 16.867188 5.117188 16.867188 6.882812 C 16.867188 8.644531 16.5625 9.910156 15.953125 10.679688 C 15.449219 11.3125 14.746094 11.628906 13.84375 11.628906 C 12.941406 11.628906 12.210938 11.28125 11.65625 10.585938 C 11.101562 9.890625 10.824219 8.648438 10.824219 6.863281 C 10.824219 5.113281 11.128906 3.851562 11.738281 3.082031 C 12.242188 2.445312 12.945312 2.128906 13.84375 2.128906 Z M 13.84375 3.605469 C 13.628906 3.605469 13.4375 3.675781 13.265625 3.8125 C 13.097656 3.949219 12.96875 4.199219 12.875 4.554688 C 12.75 5.015625 12.691406 5.789062 12.691406 6.882812 C 12.691406 7.972656 12.746094 8.722656 12.855469 9.132812 C 12.964844 9.542969 13.105469 9.8125 13.269531 9.949219 C 13.4375 10.085938 13.628906 10.152344 13.84375 10.152344 C 14.0625 10.152344 14.253906 10.082031 14.421875 9.945312 C 14.59375 9.808594 14.722656 9.5625 14.816406 9.207031 C 14.9375 8.75 15 7.972656 15 6.882812 C 15 5.789062 14.945312 5.039062 14.835938 4.632812 C 14.726562 4.222656 14.585938 3.949219 14.417969 3.8125 C 14.253906 3.675781 14.0625 3.605469 13.84375 3.605469 Z M 13.84375 3.605469 "/>
</svg>
