<?xml version="1.0" encoding="UTF-8"?>
<svg xmlns="http://www.w3.org/2000/svg" xmlns:xlink="http://www.w3.org/1999/xlink" width="21" height="14" viewBox="0 0 21 14">
<rect x="-2.1" y="-1.4" width="25.2" height="16.8" fill="rgb(0%, 0%, 0%)" fill-opacity="1"/>
<path fill-rule="nonzero" fill="rgb(100%, 100%, 100%)" fill-opacity="1" d="M 3 0.800781 L 18 0.800781 L 18 13.199219 L 3 13.199219 Z M 3 0.800781 "/>
<path fill-rule="nonzero" fill="rgb(100%, 100%, 100%)" fill-opacity="1" d="M 2.5 3.5 C 2.5 4.050781 2.050781 4.5 1.5 4.5 C 0.949219 4.5 0.5 4.050781 0.5 3.5 C 0.5 2.949219 0.949219 2.5 1.5 2.5 C 2.050781 2.5 2.5 2.949219 2.5 3.5 Z M 2.5 3.5 "/>
<path fill-rule="nonzero" fill="rgb(100%, 100%, 100%)" fill-opacity="1" d="M 2.5 7 C 2.5 7.550781 2.050781 8 1.5 8 C 0.949219 8 0.5 7.550781 0.5 7 C 0.5 6.449219 0.949219 6 1.5 6 C 2.050781 6 2.5 6.449219 2.5 7 Z M 2.5 7 "/>
<path fill-rule="nonzero" fill="rgb(100%, 100%, 100%)" fill-opacity="1" d="M 2.5 10.5 C 2.5 11.050781 2.050781 11.5 1.5 11.5 C 0.949219 11.5 0.5 11.050781 0.5 10.5 C 0.5 9.949219 0.949219 9.5 1.5 9.5 C 2.050781 9.5 2.5 9.949219 2.5 10.5 Z M 2.5 10.5 "/>
<path fill-rule="nonzero" fill="rgb(100%, 100%, 100%)" fill-opacity="1" d="M 20.5 3.5 C 20.5 4.050781 20.050781 4.5 19.5 4.5 C 18.949219 4.5 18.5 4.050781 18.5 3.5 C 18.5 2.949219 18.949219 2.5 19.5 2.5 C 20.050781 2.5 20.5 2.949219 20.5 3.5 Z M 20.5 3.5 "/>
<path fill-rule="nonzero" fill="rgb(100%, 100%, 100%)" fill-opacity="1" d="M 20.5 7 C 20.5 7.550781 20.050781 8 19.5 8 C 18.949219 8 18.5 7.550781 18.5 7 C 18.5 6.449219 18.949219 6 19.5 6 C 20.050781 6 20.5 6.449219 20.5 7 Z M 20.5 7 "/>
<path fill-rule="nonzero" fill="rgb(100%, 100%, 100%)" fill-opacity="1" d="M 20.5 10.5 C 20.5 11.050781 20.050781 11.5 19.5 11.5 C 18.949219 11.5 18.5 11.050781 18.5 10.5 C 18.5 9.949219 18.949219 9.5 19.5 9.5 C 20.050781 9.5 20.5 9.949219 20.5 10.5 Z M 20.5 10.5 "/>
<path fill-rule="nonzero" fill="rgb(0%, 0%, 0%)" fill-opacity="1" d="M 5.582031 6.449219 C 5.121094 6.257812 4.785156 5.988281 4.574219 5.648438 C 4.363281 5.308594 4.261719 4.933594 4.261719 4.527344 C 4.261719 3.832031 4.503906 3.261719 4.988281 2.808594 C 5.472656 2.355469 6.160156 2.128906 7.054688 2.128906 C 7.9375 2.128906 8.625 2.355469 9.113281 2.808594 C 9.601562 3.261719 9.847656 3.832031 9.847656 4.527344 C 9.847656 4.960938 9.734375 5.34375 9.507812 5.679688 C 9.285156 6.015625 8.96875 6.273438 8.5625 6.449219 C 9.082031 6.660156 9.472656 6.960938 9.742188 7.359375 C 10.011719 7.757812 10.144531 8.214844 10.144531 8.734375 C 10.144531 9.59375 9.871094 10.292969 9.324219 10.832031 C 8.773438 11.367188 8.046875 11.636719 7.136719 11.636719 C 6.289062 11.636719 5.585938 11.414062 5.023438 10.96875 C 4.359375 10.445312 4.023438 9.726562 4.023438 8.8125 C 4.023438 8.308594 4.148438 7.847656 4.398438 7.425781 C 4.648438 7.003906 5.042969 6.679688 5.582031 6.449219 Z M 5.949219 4.65625 C 5.949219 5.011719 6.050781 5.289062 6.25 5.484375 C 6.453125 5.683594 6.71875 5.785156 7.054688 5.785156 C 7.390625 5.785156 7.664062 5.683594 7.867188 5.484375 C 8.070312 5.28125 8.171875 5.003906 8.171875 4.648438 C 8.171875 4.3125 8.070312 4.046875 7.867188 3.84375 C 7.667969 3.644531 7.402344 3.542969 7.070312 3.542969 C 6.730469 3.542969 6.457031 3.644531 6.253906 3.847656 C 6.050781 4.050781 5.949219 4.320312 5.949219 4.65625 Z M 5.785156 8.640625 C 5.785156 9.132812 5.910156 9.515625 6.160156 9.789062 C 6.414062 10.066406 6.726562 10.203125 7.105469 10.203125 C 7.472656 10.203125 7.777344 10.070312 8.019531 9.804688 C 8.257812 9.542969 8.378906 9.160156 8.378906 8.660156 C 8.378906 8.222656 8.257812 7.875 8.011719 7.609375 C 7.765625 7.34375 7.457031 7.210938 7.078125 7.210938 C 6.644531 7.210938 6.316406 7.363281 6.105469 7.664062 C 5.890625 7.964844 5.785156 8.289062 5.785156 8.640625 Z M 5.785156 8.640625 "/>
<path fill-rule="nonzero" fill="rgb(0%, 0%, 0%)" fill-opacity="1" d="M 10.714844 9.078125 L 12.492188 8.894531 C 12.542969 9.296875 12.695312 9.617188 12.945312 9.851562 C 13.195312 10.085938 13.480469 10.203125 13.808594 10.203125 C 14.179688 10.203125 14.496094 10.050781 14.753906 9.75 C 15.011719 9.445312 15.140625 8.988281 15.140625 8.378906 C 15.140625 7.808594 15.011719 7.382812 14.757812 7.09375 C 14.5 6.808594 14.167969 6.667969 13.757812 6.667969 C 13.246094 6.667969 12.785156 6.894531 12.378906 7.347656 L 10.929688 7.136719 L 11.84375 2.292969 L 16.5625 2.292969 L 16.5625 3.960938 L 13.199219 3.960938 L 12.917969 5.542969 C 13.316406 5.34375 13.722656 5.246094 14.136719 5.246094 C 14.929688 5.246094 15.597656 5.53125 16.148438 6.109375 C 16.699219 6.683594 16.976562 7.429688 16.976562 8.347656 C 16.976562 9.113281 16.753906 9.796875 16.308594 10.398438 C 15.703125 11.21875 14.863281 11.628906 13.789062 11.628906 C 12.929688 11.628906 12.230469 11.398438 11.6875 10.9375 C 11.144531 10.476562 10.820312 9.859375 10.714844 9.078125 Z M 10.714844 9.078125 "/>
</svg>
