<?xml version="1.0" encoding="UTF-8"?>
<svg xmlns="http://www.w3.org/2000/svg" xmlns:xlink="http://www.w3.org/1999/xlink" width="21" height="14" viewBox="0 0 21 14">
<rect x="-2.1" y="-1.4" width="25.2" height="16.8" fill="rgb(0%, 0%, 0%)" fill-opacity="1"/>
<path fill-rule="nonzero" fill="rgb(100%, 100%, 100%)" fill-opacity="1" d="M 3 0.800781 L 18 0.800781 L 18 13.199219 L 3 13.199219 Z M 3 0.800781 "/>
<path fill-rule="nonzero" fill="rgb(100%, 100%, 100%)" fill-opacity="1" d="M 2.5 3.5 C 2.5 4.050781 2.050781 4.5 1.5 4.5 C 0.949219 4.5 0.5 4.050781 0.5 3.5 C 0.5 2.949219 0.949219 2.5 1.5 2.5 C 2.050781 2.5 2.5 2.949219 2.5 3.5 Z M 2.5 3.5 "/>
<path fill-rule="nonzero" fill="rgb(100%, 100%, 100%)" fill-opacity="1" d="M 2.5 7 C 2.5 7.550781 2.050781 8 1.5 8 C 0.949219 8 0.5 7.550781 0.5 7 C 0.5 6.449219 0.949219 6 1.5 6 C 2.050781 6 2.5 6.449219 2.5 7 Z M 2.5 7 "/>
<path fill-rule="nonzero" fill="rgb(100%, 100%, 100%)" fill-opacity="1" d="M 2.5 10.5 C 2.5 11.050781 2.050781 11.5 1.5 11.5 C 0.949219 11.5 0.5 11.050781 0.5 10.5 C 0.5 9.949219 0.949219 9.5 1.5 9.5 C 2.050781 9.5 2.5 9.949219 2.5 10.5 Z M 2.5 10.5 "/>
<path fill-rule="nonzero" fill="rgb(100%, 100%, 100%)" fill-opacity="1" d="M 20.5 3.5 C 20.5 4.050781 20.050781 4.5 19.5 4.5 C 18.949219 4.5 18.5 4.050781 18.5 3.5 C 18.5 2.949219 18.949219 2.5 19.5 2.5 C 20.050781 2.5 20.5 2.949219 20.5 3.5 Z M 20.5 3.5 "/>
<path fill-rule="nonzero" fill="rgb(100%, 100%, 100%)" fill-opacity="1" d="M 20.5 7 C 20.5 7.550781 20.050781 8 19.5 8 C 18.949219 8 18.5 7.550781 18.5 7 C 18.5 6.449219 18.949219 6 19.5 6 C 20.050781 6 20.5 6.449219 20.5 7 Z M 20.5 7 "/>
<path fill-rule="nonzero" fill="rgb(100%, 100%, 100%)" fill-opacity="1" d="M 20.5 10.5 C 20.5 11.050781 20.050781 11.5 19.5 11.5 C 18.949219 11.5 18.5 11.050781 18.5 10.5 C 18.5 9.949219 18.949219 9.5 19.5 9.5 C 20.050781 9.5 20.5 9.949219 20.5 10.5 Z M 20.5 10.5 "/>
<path fill-rule="nonzero" fill="rgb(0%, 0%, 0%)" fill-opacity="1" d="M 4.15625 9.320312 L 5.882812 9.128906 C 5.925781 9.480469 6.035156 9.742188 6.210938 9.910156 C 6.390625 10.078125 6.625 10.164062 6.917969 10.164062 C 7.285156 10.164062 7.597656 9.996094 7.855469 9.65625 C 8.113281 9.316406 8.28125 8.617188 8.351562 7.550781 C 7.902344 8.070312 7.34375 8.328125 6.667969 8.328125 C 5.9375 8.328125 5.304688 8.046875 4.773438 7.484375 C 4.242188 6.917969 3.976562 6.183594 3.976562 5.277344 C 3.976562 4.332031 4.257812 3.574219 4.820312 2.996094 C 5.378906 2.417969 6.09375 2.128906 6.960938 2.128906 C 7.90625 2.128906 8.679688 2.492188 9.285156 3.222656 C 9.890625 3.953125 10.191406 5.152344 10.191406 6.824219 C 10.191406 8.527344 9.875 9.753906 9.246094 10.507812 C 8.617188 11.261719 7.792969 11.636719 6.785156 11.636719 C 6.054688 11.636719 5.46875 11.445312 5.019531 11.054688 C 4.570312 10.667969 4.28125 10.089844 4.15625 9.320312 Z M 8.191406 5.421875 C 8.191406 4.847656 8.058594 4.402344 7.796875 4.082031 C 7.53125 3.765625 7.226562 3.605469 6.878906 3.605469 C 6.546875 3.605469 6.273438 3.738281 6.054688 3.996094 C 5.839844 4.257812 5.730469 4.683594 5.730469 5.277344 C 5.730469 5.878906 5.847656 6.320312 6.085938 6.601562 C 6.320312 6.882812 6.617188 7.023438 6.972656 7.023438 C 7.316406 7.023438 7.605469 6.886719 7.839844 6.617188 C 8.074219 6.34375 8.191406 5.949219 8.191406 5.421875 Z M 8.191406 5.421875 "/>
<path fill-rule="nonzero" fill="rgb(0%, 0%, 0%)" fill-opacity="1" d="M 10.761719 9.078125 L 12.539062 8.894531 C 12.589844 9.296875 12.742188 9.617188 12.992188 9.851562 C 13.242188 10.085938 13.527344 10.203125 13.855469 10.203125 C 14.226562 10.203125 14.542969 10.050781 14.800781 9.75 C 15.058594 9.445312 15.1875 8.988281 15.1875 8.378906 C 15.1875 7.808594 15.058594 7.382812 14.804688 7.09375 C 14.546875 6.808594 14.214844 6.667969 13.804688 6.667969 C 13.292969 6.667969 12.832031 6.894531 12.425781 7.347656 L 10.980469 7.136719 L 11.894531 2.292969 L 16.609375 2.292969 L 16.609375 3.960938 L 13.246094 3.960938 L 12.964844 5.542969 C 13.363281 5.34375 13.769531 5.246094 14.183594 5.246094 C 14.976562 5.246094 15.648438 5.53125 16.195312 6.109375 C 16.746094 6.683594 17.023438 7.429688 17.023438 8.347656 C 17.023438 9.113281 16.800781 9.796875 16.355469 10.398438 C 15.75 11.21875 14.910156 11.628906 13.835938 11.628906 C 12.976562 11.628906 12.277344 11.398438 11.734375 10.9375 C 11.191406 10.476562 10.871094 9.859375 10.761719 9.078125 Z M 10.761719 9.078125 "/>
</svg>
