<?xml version="1.0" encoding="UTF-8" standalone="no"?>
<svg
   width="18.669415"
   height="12.81548"
   viewBox="0 0 18.669415 12.81548"
   version="1.1"
   id="svg18"
   sodipodi:docname="departure-RA.svg"
   inkscape:version="1.2.2 (b0a8486541, 2022-12-01)"
   xmlns:inkscape="http://www.inkscape.org/namespaces/inkscape"
   xmlns:sodipodi="http://sodipodi.sourceforge.net/DTD/sodipodi-0.dtd"
   xmlns="http://www.w3.org/2000/svg"
   xmlns:svg="http://www.w3.org/2000/svg">
  <defs
     id="defs22" />
  <sodipodi:namedview
     id="namedview20"
     pagecolor="#ffffff"
     bordercolor="#666666"
     borderopacity="1.0"
     inkscape:showpageshadow="2"
     inkscape:pageopacity="0.0"
     inkscape:pagecheckerboard="0"
     inkscape:deskcolor="#d1d1d1"
     showgrid="false"
     inkscape:zoom="12.591172"
     inkscape:cx="-7.2272859"
     inkscape:cy="12.389633"
     inkscape:window-width="1920"
     inkscape:window-height="1129"
     inkscape:window-x="0"
     inkscape:window-y="0"
     inkscape:window-maximized="1"
     inkscape:current-layer="text1467" />
  <rect
     style="fill:#000000;fill-opacity:1;stroke-width:2.00107;stroke-linecap:round;stroke-dashoffset:0.29238;paint-order:stroke markers fill;stop-color:#000000"
     id="rect7309"
     width="18.669415"
     height="12.81548"
     x="0"
     y="0" />
  <g
     aria-label="OFF"
     id="text8299"
     style="font-size:13.3333px;line-height:1.25;-inkscape-font-specification:sans-serif;font-variant-ligatures:none;text-align:center;letter-spacing:0px;word-spacing:0px;text-anchor:middle">
    <g
       aria-label="RA"
       id="text1467">
      <path
         d="m 4.2080547,1.667752 q 1.7733288,0 2.6133267,0.6799983 0.8533312,0.666665 0.8533312,2.0266615 0,0.7599981 -0.2799993,1.2666635 Q 7.114714,6.1477407 6.6747151,6.4544066 6.2480495,6.7477391 5.7680507,6.921072 l 2.6133268,4.266656 H 6.981381 L 4.6747202,7.2544045 H 2.7813916 V 11.187728 H 1.5813947 V 1.667752 Z M 4.1413882,2.7077494 H 2.7813916 v 3.5333244 h 1.4266631 q 1.159997,0 1.693329,-0.4533322 0.533332,-0.4666655 0.533332,-1.3599966 0,-0.933331 -0.5599986,-1.3199967 Q 5.3147185,2.7077494 4.1413882,2.7077494 Z"
         style="fill:#ffffff"
         id="path1713" />
      <path
         d="M 15.848022,11.187728 14.701358,8.2410687 H 10.928035 L 9.7947041,11.187728 H 8.5813738 L 12.301364,1.6277521 h 1.079998 l 3.706657,9.5599759 z M 13.274695,4.294412 Q 13.234695,4.1877456 13.141362,3.9077463 13.048029,3.627747 12.954696,3.3344144 12.874696,3.0277486 12.821363,2.867749 12.72803,3.2810812 12.60803,3.6810802 12.488031,4.0677459 12.408031,4.294412 l -1.079997,2.8799927 h 3.013325 z"
         style="fill:#ffffff"
         id="path1715" />
    </g>
  </g>
</svg>
