<?xml version="1.0" encoding="UTF-8"?>
<svg xmlns="http://www.w3.org/2000/svg" xmlns:xlink="http://www.w3.org/1999/xlink" width="16" height="16" viewBox="0 0 16 16">
<rect x="-1.6" y="-1.6" width="19.2" height="19.2" fill="rgb(99.607843%, 72.156863%, 0%)" fill-opacity="1"/>
<path fill-rule="nonzero" fill="rgb(0%, 0%, 0%)" fill-opacity="1" d="M 9.648438 8 L 6.625 6.222656 L 16 6.222656 L 16 4.800781 L 0 4.800781 L 0 6.222656 L 3.644531 6.222656 L 6.667969 8 L 3.644531 9.777344 L 0 9.777344 L 0 11.199219 L 16 11.199219 L 16 9.777344 L 6.625 9.777344 Z M 9.648438 8 "/>
<path fill-rule="nonzero" fill="rgb(100%, 100%, 100%)" fill-opacity="1" d="M 0 6.222656 L 0 9.777344 L 3.023438 8 Z M 0 6.222656 "/>
<path fill-rule="nonzero" fill="rgb(100%, 100%, 100%)" fill-opacity="1" d="M 0 16 L 16 16 L 16 11.199219 L 0 11.199219 Z M 0 16 "/>
<path fill-rule="nonzero" fill="rgb(100%, 100%, 100%)" fill-opacity="1" d="M 0 4.800781 L 16 4.800781 L 16 0 L 0 0 Z M 0 4.800781 "/>
</svg>
