<?xml version="1.0" encoding="UTF-8" standalone="no"?>
<svg
   width="9.03125"
   height="14.222656"
   viewBox="0 0 9.0312502 14.222656"
   version="1.1"
   id="svg14612"
   sodipodi:docname="distant-light.svg"
   inkscape:version="1.2.2 (b0a8486541, 2022-12-01)"
   xmlns:inkscape="http://www.inkscape.org/namespaces/inkscape"
   xmlns:sodipodi="http://sodipodi.sourceforge.net/DTD/sodipodi-0.dtd"
   xmlns="http://www.w3.org/2000/svg"
   xmlns:svg="http://www.w3.org/2000/svg">
  <defs
     id="defs14616" />
  <sodipodi:namedview
     id="namedview14614"
     pagecolor="#ffffff"
     bordercolor="#666666"
     borderopacity="1.0"
     inkscape:showpageshadow="2"
     inkscape:pageopacity="0.0"
     inkscape:pagecheckerboard="0"
     inkscape:deskcolor="#d1d1d1"
     showgrid="false"
     inkscape:zoom="25.5544"
     inkscape:cx="-5.361112"
     inkscape:cy="3.443634"
     inkscape:window-width="1920"
     inkscape:window-height="1129"
     inkscape:window-x="0"
     inkscape:window-y="0"
     inkscape:window-maximized="1"
     inkscape:current-layer="svg14612" />
  <path
     fill-rule="nonzero"
     fill="#00dc05"
     fill-opacity="1"
     d="m 8.378906,2.640625 c 0,0.878906 -0.699218,1.582031 -1.5625,1.582031 -0.878906,0 -1.582031,-0.703125 -1.582031,-1.582031 0,-0.863281 0.703125,-1.566406 1.582031,-1.566406 0.863282,0 1.5625,0.703125 1.5625,1.566406 z m 0,0"
     id="path14592" />
  <path
     fill-rule="nonzero"
     fill="#000000"
     fill-opacity="1"
     d="M 9.03125,4.515625 C 9.03125,7.011719 7.011719,9.03125 4.515625,9.03125 2.023438,9.03125 0,7.011719 0,4.515625 0,2.023438 2.023438,0 4.515625,0 7.011719,0 9.03125,2.023438 9.03125,4.515625 Z m 0,0"
     id="path14594" />
  <path
     fill-rule="nonzero"
     fill="#000000"
     fill-opacity="1"
     d="m 3.699219,12.371094 c 0,1.023437 -0.828125,1.851562 -1.847657,1.851562 C 0.828125,14.222656 0,13.394531 0,12.371094 c 0,-1.019532 0.828125,-1.847657 1.851562,-1.847657 1.019532,0 1.847657,0.828125 1.847657,1.847657 z m 0,0"
     id="path14596" />
  <path
     fill-rule="nonzero"
     fill="#000000"
     fill-opacity="1"
     d="m 9.023438,12.371094 c 0,1.023437 -0.828126,1.851562 -1.847657,1.851562 -1.023437,0 -1.851562,-0.828125 -1.851562,-1.851562 0,-1.019532 0.828125,-1.847657 1.851562,-1.847657 1.019531,0 1.847657,0.828125 1.847657,1.847657 z m 0,0"
     id="path14598" />
  <path
     fill-rule="nonzero"
     fill="#000000"
     fill-opacity="1"
     d="m 1.851562,10.523437 h 5.324219 v 3.699219 H 1.851562 Z m 0,0"
     id="path14600" />
  <path
     fill-rule="nonzero"
     fill="#000000"
     fill-opacity="1"
     d="m 0,4.222656 h 9.023438 v 8.148438 H 0 Z m 0,0"
     id="path14602"
     style="stroke-width:0.773116" />
  <path
     fill-rule="nonzero"
     fill="#00ff00"
     fill-opacity="1"
     d="m 6.3125,9.774762 c 0,0.996094 -0.804688,1.800781 -1.800781,1.800781 -0.992188,0 -1.800781,-0.804687 -1.800781,-1.800781 0,-0.992188 0.808593,-1.800781 1.800781,-1.800781 0.996093,0 1.800781,0.808593 1.800781,1.800781 z m 0,0"
     id="path14608"
     style="fill:#353334;fill-opacity:1" />
  <path
     fill-rule="nonzero"
     fill="#353334"
     fill-opacity="1"
     d="m 6.3125,4.855469 c 0,0.996093 -0.804688,1.800781 -1.800781,1.800781 -0.992188,0 -1.800781,-0.804688 -1.800781,-1.800781 0,-0.996094 0.808593,-1.800781 1.800781,-1.800781 0.996093,0 1.800781,0.804687 1.800781,1.800781 z m 0,0"
     id="path14610"
     style="fill:#ff9800;fill-opacity:1" />
</svg>
