<?xml version="1.0" encoding="UTF-8"?>
<svg xmlns="http://www.w3.org/2000/svg" xmlns:xlink="http://www.w3.org/1999/xlink" width="16" height="16" viewBox="0 0 16 16">
<path fill-rule="nonzero" fill="rgb(100%, 100%, 100%)" fill-opacity="1" stroke-width="0.0377953" stroke-linecap="round" stroke-linejoin="round" stroke="rgb(100%, 100%, 100%)" stroke-opacity="1" stroke-miterlimit="4" d="M -30 0.000000000000003553 C -30 -16.567383 -16.567383 -30 -0.000000000000003553 -30 C 16.567383 -30 30 -16.567383 30 0.000000000000003553 C 30 16.567383 16.567383 30 -0.000000000000003553 30 C -16.567383 30 -30 16.567383 -30 0.000000000000003553 Z M -30 0.000000000000003553 " transform="matrix(0.266667, 0, 0, -0.266667, 8, 8)"/>
<path fill-rule="nonzero" fill="rgb(0%, 0%, 0%)" fill-opacity="1" stroke-width="0.0377953" stroke-linecap="round" stroke-linejoin="round" stroke="rgb(0%, 0%, 0%)" stroke-opacity="1" stroke-miterlimit="4" d="M 19.482422 -14.25293 L 1.303711 17.709961 C 1.040039 18.178711 0.541992 18.47168 0 18.47168 C -0.541992 18.47168 -1.040039 18.178711 -1.303711 17.709961 L -19.482422 -14.25293 C -19.746094 -14.72168 -19.731445 -15.292969 -19.467773 -15.74707 C -19.204102 -16.21582 -18.706055 -16.494141 -18.178711 -16.494141 L 18.178711 -16.494141 C 18.706055 -16.494141 19.204102 -16.21582 19.467773 -15.74707 C 19.731445 -15.292969 19.746094 -14.72168 19.482422 -14.25293 Z M 19.482422 -14.25293 " transform="matrix(0.266667, 0, 0, -0.266667, 8, 8)"/>
</svg>
