<?xml version="1.0" encoding="UTF-8" standalone="no"?>
<svg
   width="25.119656"
   height="12.81548"
   viewBox="0 0 25.119656 12.81548"
   version="1.1"
   id="svg18"
   sodipodi:docname="repeated-off.svg"
   inkscape:version="1.2.2 (b0a8486541, 2022-12-01)"
   xmlns:inkscape="http://www.inkscape.org/namespaces/inkscape"
   xmlns:sodipodi="http://sodipodi.sourceforge.net/DTD/sodipodi-0.dtd"
   xmlns="http://www.w3.org/2000/svg"
   xmlns:svg="http://www.w3.org/2000/svg">
  <defs
     id="defs22" />
  <sodipodi:namedview
     id="namedview20"
     pagecolor="#ffffff"
     bordercolor="#666666"
     borderopacity="1.0"
     inkscape:showpageshadow="2"
     inkscape:pageopacity="0.0"
     inkscape:pagecheckerboard="0"
     inkscape:deskcolor="#d1d1d1"
     showgrid="false"
     inkscape:zoom="12.591172"
     inkscape:cx="11.516005"
     inkscape:cy="12.389633"
     inkscape:window-width="1920"
     inkscape:window-height="1129"
     inkscape:window-x="0"
     inkscape:window-y="0"
     inkscape:window-maximized="1"
     inkscape:current-layer="text8299" />
  <rect
     style="fill:#000000;fill-opacity:1;stroke-width:2.32115;stroke-linecap:round;stroke-dashoffset:0.29238;paint-order:stroke markers fill;stop-color:#000000"
     id="rect7309"
     width="25.119656"
     height="12.81548"
     x="0"
     y="0" />
  <g
     aria-label="OFF"
     id="text8299"
     style="font-size:13.3333px;line-height:1.25;-inkscape-font-specification:sans-serif;font-variant-ligatures:none;text-align:center;letter-spacing:0px;word-spacing:0px;text-anchor:middle">
    <path
       d="m 10.004427,6.4016119 q 0,1.3604317 -0.4657335,2.3776915 -0.4534772,1.0050035 -1.3481755,1.5687866 -0.8946983,0.563782 -2.2183616,0.563782 -1.3604316,0 -2.2673861,-0.563782 Q 2.810072,9.7843069 2.3688509,8.7670472 1.9276298,7.7497875 1.9276298,6.3893558 q 0,-1.3481755 0.4412211,-2.3531791 Q 2.810072,3.0311731 3.7047703,2.4673906 4.6117248,1.9036081 5.9844125,1.9036081 q 1.3114072,0 2.2061055,0.5637825 0.8946983,0.5515263 1.3481755,1.5687861 0.4657335,1.0050036 0.4657335,2.3654352 z m -6.9124638,0 q 0,1.6545791 0.6986001,2.6105582 0.6986001,0.9437226 2.1815931,0.9437226 1.4952493,0 2.1815932,-0.9437226 0.6863438,-0.9559791 0.6863438,-2.6105582 0,-1.654579 -0.6863438,-2.5860458 -0.6863439,-0.9437229 -2.1693371,-0.9437229 -1.482993,0 -2.1938492,0.9437229 -0.6986001,0.9314668 -0.6986001,2.5860458 z"
       style="fill:#ffffff;stroke-width:0.919213"
       id="path10559" />
    <path
       d="M 13.043952,10.789311 H 11.940899 V 2.0384257 H 16.8311 v 0.9682351 h -3.787148 v 3.1008037 h 3.554281 v 0.9682352 h -3.554281 z"
       style="fill:#ffffff;stroke-width:0.919213"
       id="path10561" />
    <path
       d="M 19.404877,10.789311 H 18.301825 V 2.0384257 h 4.8902 v 0.9682351 h -3.787148 v 3.1008037 h 3.554281 v 0.9682352 h -3.554281 z"
       style="fill:#ffffff;stroke-width:0.919213"
       id="path10563" />
  </g>
</svg>
