<?xml version="1.0" encoding="UTF-8" standalone="no"?>
<svg
   width="18.557356"
   height="33.759212"
   viewBox="0 0 18.557356 33.759214"
   version="1.1"
   id="svg38"
   sodipodi:docname="route-feather-456.svg"
   inkscape:version="1.2.2 (b0a8486541, 2022-12-01)"
   xmlns:inkscape="http://www.inkscape.org/namespaces/inkscape"
   xmlns:sodipodi="http://sodipodi.sourceforge.net/DTD/sodipodi-0.dtd"
   xmlns="http://www.w3.org/2000/svg"
   xmlns:svg="http://www.w3.org/2000/svg">
  <defs
     id="defs42" />
  <sodipodi:namedview
     id="namedview40"
     pagecolor="#ffffff"
     bordercolor="#666666"
     borderopacity="1.0"
     inkscape:showpageshadow="2"
     inkscape:pageopacity="0.0"
     inkscape:pagecheckerboard="0"
     inkscape:deskcolor="#d1d1d1"
     showgrid="false"
     inkscape:zoom="24.00592"
     inkscape:cx="-4.4572339"
     inkscape:cy="20.786539"
     inkscape:window-width="1920"
     inkscape:window-height="1129"
     inkscape:window-x="0"
     inkscape:window-y="0"
     inkscape:window-maximized="1"
     inkscape:current-layer="svg38" />
  <path
     id="rect3055"
     style="fill:#000000;fill-opacity:1;stroke-width:2;stroke-linecap:round;stroke-dashoffset:0.29238;paint-order:stroke markers fill;stop-color:#000000"
     d="m 13.107427,0 2.318346,2.3203259 0,2.9980474 -10.121093,10.1191417 1e-6,-0.01563 H 2.320306 L 0.021492,13.121091 v -2.990235 h -0.0058 L 10.107477,0.03709694 h 0.002 l 2.998047,-7.7e-7 z" />
  <circle
     style="fill:#ffffff;fill-opacity:1;stroke-width:0.356115;stroke-linecap:round;stroke-dashoffset:0.29238;paint-order:stroke markers fill;stop-color:#000000"
     id="path4097"
     cx="-10.920811"
     cy="-5.3536501"
     r="0.7309972"
     transform="matrix(-0.70710678,-0.70710678,-0.70710678,0.70710678,0,0)" />
  <circle
     style="fill:#ffffff;fill-opacity:1;stroke-width:0.356115;stroke-linecap:round;stroke-dashoffset:0.29238;paint-order:stroke markers fill;stop-color:#000000"
     id="path4097-3"
     cx="-10.920811"
     cy="-0.0020869889"
     r="0.7309972"
     transform="matrix(-0.70710678,-0.70710678,-0.70710678,0.70710678,0,0)" />
  <circle
     style="fill:#ffffff;fill-opacity:1;stroke-width:0.356115;stroke-linecap:round;stroke-dashoffset:0.29238;paint-order:stroke markers fill;stop-color:#000000"
     id="path4097-3-6"
     cx="-10.920811"
     cy="-2.6778681"
     r="0.7309972"
     transform="matrix(-0.70710678,-0.70710678,-0.70710678,0.70710678,0,0)" />
  <circle
     style="fill:#ffffff;fill-opacity:1;stroke-width:0.356115;stroke-linecap:round;stroke-dashoffset:0.29238;paint-order:stroke markers fill;stop-color:#000000"
     id="path4097-3-5"
     cx="-10.920811"
     cy="5.3494744"
     r="0.7309972"
     transform="matrix(-0.70710678,-0.70710678,-0.70710678,0.70710678,0,0)" />
  <circle
     style="fill:#ffffff;fill-opacity:1;stroke-width:0.356115;stroke-linecap:round;stroke-dashoffset:0.29238;paint-order:stroke markers fill;stop-color:#000000"
     id="path4097-3-6-3"
     cx="-10.920811"
     cy="2.6736963"
     r="0.7309972"
     transform="matrix(-0.70710678,-0.70710678,-0.70710678,0.70710678,0,0)" />
  <path
     id="rect3055-7"
     style="fill:#000000;fill-opacity:1;stroke-width:2;stroke-linecap:round;stroke-dashoffset:0.29238;paint-order:stroke markers fill;stop-color:#000000"
     d="m 15.437515,31.440867 -2.320326,2.318346 H 10.119141 L 0,23.63812 l 0.01563,1e-6 v -2.984375 l 2.300794,-2.298814 h 2.990235 v -0.0058 l 10.093759,10.091784 v 0.002 l 0,2.998047 z" />
  <circle
     style="fill:#ffffff;fill-opacity:1;stroke-width:0.356115;stroke-linecap:round;stroke-dashoffset:0.29238;paint-order:stroke markers fill;stop-color:#000000"
     id="path4097-36"
     cx="-12.968539"
     cy="-29.23332"
     r="0.7309972"
     transform="matrix(0.70710678,-0.70710678,-0.70710678,-0.70710678,0,0)" />
  <circle
     style="fill:#ffffff;fill-opacity:1;stroke-width:0.356115;stroke-linecap:round;stroke-dashoffset:0.29238;paint-order:stroke markers fill;stop-color:#000000"
     id="path4097-3-1"
     cx="-12.968539"
     cy="-23.881758"
     r="0.7309972"
     transform="matrix(0.70710678,-0.70710678,-0.70710678,-0.70710678,0,0)" />
  <circle
     style="fill:#ffffff;fill-opacity:1;stroke-width:0.356115;stroke-linecap:round;stroke-dashoffset:0.29238;paint-order:stroke markers fill;stop-color:#000000"
     id="path4097-3-6-2"
     cx="-12.968539"
     cy="-26.557539"
     r="0.7309972"
     transform="matrix(0.70710678,-0.70710678,-0.70710678,-0.70710678,0,0)" />
  <circle
     style="fill:#ffffff;fill-opacity:1;stroke-width:0.356115;stroke-linecap:round;stroke-dashoffset:0.29238;paint-order:stroke markers fill;stop-color:#000000"
     id="path4097-3-5-9"
     cx="-12.968539"
     cy="-18.530197"
     r="0.7309972"
     transform="matrix(0.70710678,-0.70710678,-0.70710678,-0.70710678,0,0)" />
  <circle
     style="fill:#ffffff;fill-opacity:1;stroke-width:0.356115;stroke-linecap:round;stroke-dashoffset:0.29238;paint-order:stroke markers fill;stop-color:#000000"
     id="path4097-3-6-3-3"
     cx="-12.968539"
     cy="-21.205975"
     r="0.7309972"
     transform="matrix(0.70710678,-0.70710678,-0.70710678,-0.70710678,0,0)" />
  <path
     id="rect3055-1"
     style="fill:#000000;fill-opacity:1;stroke-width:2;stroke-linecap:round;stroke-dashoffset:0.29238;paint-order:stroke markers fill;stop-color:#000000"
     d="m 18.557355,15.25377 -0.0014,3.280036 -2.11994,2.119939 -14.312007,-0.0014 0.01105,-0.01105 -2.110271,-2.110272 0.0014,-3.252414 2.114415,-2.114415 -0.0041,-0.0041 14.273335,-0.0014 0.0014,0.0014 2.11994,2.119939 z" />
  <circle
     style="fill:#ffffff;fill-opacity:1;stroke-width:0.356115;stroke-linecap:round;stroke-dashoffset:0.29238;paint-order:stroke markers fill;stop-color:#000000"
     id="path4097-8"
     cx="-16.906229"
     cy="-14.642654"
     r="0.7309972"
     transform="matrix(0,-1,-1,0,0,0)" />
  <circle
     style="fill:#ffffff;fill-opacity:1;stroke-width:0.356115;stroke-linecap:round;stroke-dashoffset:0.29238;paint-order:stroke markers fill;stop-color:#000000"
     id="path4097-3-7"
     cx="-16.906229"
     cy="-9.2910919"
     r="0.7309972"
     transform="matrix(0,-1,-1,0,0,0)" />
  <circle
     style="fill:#ffffff;fill-opacity:1;stroke-width:0.356115;stroke-linecap:round;stroke-dashoffset:0.29238;paint-order:stroke markers fill;stop-color:#000000"
     id="path4097-3-6-9"
     cx="-16.906229"
     cy="-11.966873"
     r="0.7309972"
     transform="matrix(0,-1,-1,0,0,0)" />
  <circle
     style="fill:#ffffff;fill-opacity:1;stroke-width:0.356115;stroke-linecap:round;stroke-dashoffset:0.29238;paint-order:stroke markers fill;stop-color:#000000"
     id="path4097-3-5-2"
     cx="-16.906229"
     cy="-3.9395304"
     r="0.7309972"
     transform="matrix(0,-1,-1,0,0,0)" />
  <circle
     style="fill:#ffffff;fill-opacity:1;stroke-width:0.356115;stroke-linecap:round;stroke-dashoffset:0.29238;paint-order:stroke markers fill;stop-color:#000000"
     id="path4097-3-6-3-0"
     cx="-16.906229"
     cy="-6.6153088"
     r="0.7309972"
     transform="matrix(0,-1,-1,0,0,0)" />
  <path
     style="fill:#000000;fill-opacity:1;stroke:none;stroke-width:1px;stroke-linecap:butt;stroke-linejoin:miter;stroke-opacity:1"
     d="M 15.425773,2.3203259 18.531177,15.280033 7.346306,13.158694 Z"
     id="path25067" />
  <path
     style="fill:#000000;fill-opacity:1;stroke:none;stroke-width:1px;stroke-linecap:butt;stroke-linejoin:miter;stroke-opacity:1"
     d="M 0.021492,13.121091 1.151745,14.153051 0.015631,15.4375 Z"
     id="path25069"
     sodipodi:nodetypes="cccc" />
  <path
     style="fill:#000000;fill-opacity:1;stroke:none;stroke-width:1px;stroke-linecap:butt;stroke-linejoin:miter;stroke-opacity:1"
     d="M 18.555955,18.533806 15.418967,31.440915 7.346306,20.653745 18.555955,18.533806"
     id="path29864"
     sodipodi:nodetypes="cccc" />
  <path
     style="fill:#000000;fill-opacity:1;stroke:none;stroke-width:1px;stroke-linecap:butt;stroke-linejoin:miter;stroke-opacity:1"
     d="M 0.024787,18.531023 1.079923,19.586159 0.01563,20.653746 Z"
     id="path29866" />
</svg>
