<?xml version="1.0" encoding="UTF-8" standalone="no"?>
<svg
   width="33.785797"
   height="33.759212"
   viewBox="0 0 33.785797 33.759214"
   version="1.1"
   id="svg38"
   sodipodi:docname="route-feather-1456.svg"
   inkscape:version="1.2.2 (b0a8486541, 2022-12-01)"
   xmlns:inkscape="http://www.inkscape.org/namespaces/inkscape"
   xmlns:sodipodi="http://sodipodi.sourceforge.net/DTD/sodipodi-0.dtd"
   xmlns="http://www.w3.org/2000/svg"
   xmlns:svg="http://www.w3.org/2000/svg">
  <defs
     id="defs42" />
  <sodipodi:namedview
     id="namedview40"
     pagecolor="#ffffff"
     bordercolor="#666666"
     borderopacity="1.0"
     inkscape:showpageshadow="2"
     inkscape:pageopacity="0.0"
     inkscape:pagecheckerboard="0"
     inkscape:deskcolor="#d1d1d1"
     showgrid="false"
     inkscape:zoom="17.018991"
     inkscape:cx="15.394567"
     inkscape:cy="14.513199"
     inkscape:window-width="1920"
     inkscape:window-height="1129"
     inkscape:window-x="0"
     inkscape:window-y="0"
     inkscape:window-maximized="1"
     inkscape:current-layer="svg38" />
  <path
     id="rect3055"
     style="fill:#000000;fill-opacity:1;stroke-width:2;stroke-linecap:round;stroke-dashoffset:0.29238;paint-order:stroke markers fill;stop-color:#000000"
     d="m 28.335869,0 2.318346,2.3203259 v 2.9980474 l -10.121093,10.1191417 1e-6,-0.01563 h -2.984375 l -2.298814,-2.300794 v -2.990235 h -0.0058 L 25.335919,0.03709694 h 0.002 l 2.998047,-7.7e-7 z" />
  <circle
     style="fill:#ffffff;fill-opacity:1;stroke-width:0.356115;stroke-linecap:round;stroke-dashoffset:0.29238;paint-order:stroke markers fill;stop-color:#000000"
     id="path4097"
     cx="-21.688946"
     cy="-16.121784"
     r="0.7309972"
     transform="matrix(-0.70710678,-0.70710678,-0.70710678,0.70710678,0,0)" />
  <circle
     style="fill:#ffffff;fill-opacity:1;stroke-width:0.356115;stroke-linecap:round;stroke-dashoffset:0.29238;paint-order:stroke markers fill;stop-color:#000000"
     id="path4097-3"
     cx="-21.688946"
     cy="-10.770222"
     r="0.7309972"
     transform="matrix(-0.70710678,-0.70710678,-0.70710678,0.70710678,0,0)" />
  <circle
     style="fill:#ffffff;fill-opacity:1;stroke-width:0.356115;stroke-linecap:round;stroke-dashoffset:0.29238;paint-order:stroke markers fill;stop-color:#000000"
     id="path4097-3-6"
     cx="-21.688946"
     cy="-13.446003"
     r="0.7309972"
     transform="matrix(-0.70710678,-0.70710678,-0.70710678,0.70710678,0,0)" />
  <circle
     style="fill:#ffffff;fill-opacity:1;stroke-width:0.356115;stroke-linecap:round;stroke-dashoffset:0.29238;paint-order:stroke markers fill;stop-color:#000000"
     id="path4097-3-5"
     cx="-21.688946"
     cy="-5.4186602"
     r="0.7309972"
     transform="matrix(-0.70710678,-0.70710678,-0.70710678,0.70710678,0,0)" />
  <circle
     style="fill:#ffffff;fill-opacity:1;stroke-width:0.356115;stroke-linecap:round;stroke-dashoffset:0.29238;paint-order:stroke markers fill;stop-color:#000000"
     id="path4097-3-6-3"
     cx="-21.688946"
     cy="-8.0944386"
     r="0.7309972"
     transform="matrix(-0.70710678,-0.70710678,-0.70710678,0.70710678,0,0)" />
  <path
     id="rect3055-7"
     style="fill:#000000;fill-opacity:1;stroke-width:2;stroke-linecap:round;stroke-dashoffset:0.29238;paint-order:stroke markers fill;stop-color:#000000"
     d="m 30.665957,31.440867 -2.320326,2.318346 H 25.347583 L 15.228442,23.63812 l 0.01563,1e-6 v -2.984375 l 2.300794,-2.298814 h 2.990235 v -0.0058 L 30.62886,28.440916 v 0.002 2.998047 z" />
  <circle
     style="fill:#ffffff;fill-opacity:1;stroke-width:0.356115;stroke-linecap:round;stroke-dashoffset:0.29238;paint-order:stroke markers fill;stop-color:#000000"
     id="path4097-36"
     cx="-2.2004046"
     cy="-40.001453"
     r="0.7309972"
     transform="matrix(0.70710678,-0.70710678,-0.70710678,-0.70710678,0,0)" />
  <circle
     style="fill:#ffffff;fill-opacity:1;stroke-width:0.356115;stroke-linecap:round;stroke-dashoffset:0.29238;paint-order:stroke markers fill;stop-color:#000000"
     id="path4097-3-1"
     cx="-2.2004046"
     cy="-34.649891"
     r="0.7309972"
     transform="matrix(0.70710678,-0.70710678,-0.70710678,-0.70710678,0,0)" />
  <circle
     style="fill:#ffffff;fill-opacity:1;stroke-width:0.356115;stroke-linecap:round;stroke-dashoffset:0.29238;paint-order:stroke markers fill;stop-color:#000000"
     id="path4097-3-6-2"
     cx="-2.2004046"
     cy="-37.325672"
     r="0.7309972"
     transform="matrix(0.70710678,-0.70710678,-0.70710678,-0.70710678,0,0)" />
  <circle
     style="fill:#ffffff;fill-opacity:1;stroke-width:0.356115;stroke-linecap:round;stroke-dashoffset:0.29238;paint-order:stroke markers fill;stop-color:#000000"
     id="path4097-3-5-9"
     cx="-2.2004046"
     cy="-29.298332"
     r="0.7309972"
     transform="matrix(0.70710678,-0.70710678,-0.70710678,-0.70710678,0,0)" />
  <circle
     style="fill:#ffffff;fill-opacity:1;stroke-width:0.356115;stroke-linecap:round;stroke-dashoffset:0.29238;paint-order:stroke markers fill;stop-color:#000000"
     id="path4097-3-6-3-3"
     cx="-2.2004046"
     cy="-31.97411"
     r="0.7309972"
     transform="matrix(0.70710678,-0.70710678,-0.70710678,-0.70710678,0,0)" />
  <path
     id="rect3055-1"
     style="fill:#000000;fill-opacity:1;stroke-width:2;stroke-linecap:round;stroke-dashoffset:0.29238;paint-order:stroke markers fill;stop-color:#000000"
     d="m 33.785797,15.25377 -0.0014,3.280036 -2.11994,2.119939 -14.312007,-0.0014 0.01105,-0.01105 -2.110271,-2.110272 0.0014,-3.252414 2.114415,-2.114415 -0.0041,-0.0041 14.273335,-0.0014 0.0014,0.0014 2.11994,2.119939 z" />
  <circle
     style="fill:#ffffff;fill-opacity:1;stroke-width:0.356115;stroke-linecap:round;stroke-dashoffset:0.29238;paint-order:stroke markers fill;stop-color:#000000"
     id="path4097-8"
     cx="-16.906229"
     cy="-29.871096"
     r="0.7309972"
     transform="matrix(0,-1,-1,0,0,0)" />
  <circle
     style="fill:#ffffff;fill-opacity:1;stroke-width:0.356115;stroke-linecap:round;stroke-dashoffset:0.29238;paint-order:stroke markers fill;stop-color:#000000"
     id="path4097-3-7"
     cx="-16.906229"
     cy="-24.519533"
     r="0.7309972"
     transform="matrix(0,-1,-1,0,0,0)" />
  <circle
     style="fill:#ffffff;fill-opacity:1;stroke-width:0.356115;stroke-linecap:round;stroke-dashoffset:0.29238;paint-order:stroke markers fill;stop-color:#000000"
     id="path4097-3-6-9"
     cx="-16.906229"
     cy="-27.195314"
     r="0.7309972"
     transform="matrix(0,-1,-1,0,0,0)" />
  <circle
     style="fill:#ffffff;fill-opacity:1;stroke-width:0.356115;stroke-linecap:round;stroke-dashoffset:0.29238;paint-order:stroke markers fill;stop-color:#000000"
     id="path4097-3-5-2"
     cx="-16.906229"
     cy="-19.167973"
     r="0.7309972"
     transform="matrix(0,-1,-1,0,0,0)" />
  <circle
     style="fill:#ffffff;fill-opacity:1;stroke-width:0.356115;stroke-linecap:round;stroke-dashoffset:0.29238;paint-order:stroke markers fill;stop-color:#000000"
     id="path4097-3-6-3-0"
     cx="-16.906229"
     cy="-21.84375"
     r="0.7309972"
     transform="matrix(0,-1,-1,0,0,0)" />
  <path
     style="fill:#000000;fill-opacity:1;stroke:none;stroke-width:1px;stroke-linecap:butt;stroke-linejoin:miter;stroke-opacity:1"
     d="M 30.654215,2.3203259 33.759619,15.280033 22.574748,13.158694 Z"
     id="path25067" />
  <path
     style="fill:#000000;fill-opacity:1;stroke:none;stroke-width:1px;stroke-linecap:butt;stroke-linejoin:miter;stroke-opacity:1"
     d="m 15.249934,13.121091 1.130253,1.03196 -1.136114,1.284449 z"
     id="path25069"
     sodipodi:nodetypes="cccc" />
  <path
     style="fill:#000000;fill-opacity:1;stroke:none;stroke-width:1px;stroke-linecap:butt;stroke-linejoin:miter;stroke-opacity:1"
     d="M 33.784397,18.533806 30.647409,31.440915 22.574748,20.653745 33.784397,18.533806"
     id="path29864"
     sodipodi:nodetypes="cccc" />
  <path
     style="fill:#000000;fill-opacity:1;stroke:none;stroke-width:1px;stroke-linecap:butt;stroke-linejoin:miter;stroke-opacity:1"
     d="m 15.253229,18.531023 1.055136,1.055136 -1.064293,1.067587 z"
     id="path29866" />
  <path
     style="fill:#000000;fill-opacity:1;stroke:none;stroke-width:1px;stroke-linecap:butt;stroke-linejoin:miter;stroke-opacity:1"
     d="m 15.247035,13.121091 1.130252,1.03196 -1.136114,1.284449 z"
     id="path25069-3"
     sodipodi:nodetypes="cccc" />
  <path
     id="rect3055-3"
     style="fill:#000000;fill-opacity:1;stroke-width:2;stroke-linecap:round;stroke-dashoffset:0.29238;paint-order:stroke markers fill;stop-color:#000000"
     d="M 2.318346,9.9682852e-8 0,2.320326 l 1e-6,2.9980474 10.121094,10.1191416 -1e-6,-0.01563 h 2.984375 l 2.298814,-2.300794 v -2.990235 h 0.0058 L 5.3182975,0.03709704 h -0.00198 l -2.9980475,-7.7e-7 z" />
  <circle
     style="fill:#ffffff;fill-opacity:1;stroke-width:0.356115;stroke-linecap:round;stroke-dashoffset:0.29238;paint-order:stroke markers fill;stop-color:#000000"
     id="path4097-6"
     cx="-0.013141144"
     cy="5.5540199"
     r="0.7309972"
     transform="rotate(-45)" />
  <circle
     style="fill:#ffffff;fill-opacity:1;stroke-width:0.356115;stroke-linecap:round;stroke-dashoffset:0.29238;paint-order:stroke markers fill;stop-color:#000000"
     id="path4097-3-75"
     cx="-0.013141144"
     cy="10.905581"
     r="0.7309972"
     transform="rotate(-45)" />
  <circle
     style="fill:#ffffff;fill-opacity:1;stroke-width:0.356115;stroke-linecap:round;stroke-dashoffset:0.29238;paint-order:stroke markers fill;stop-color:#000000"
     id="path4097-3-6-35"
     cx="-0.013141144"
     cy="8.2298002"
     r="0.7309972"
     transform="rotate(-45)" />
  <circle
     style="fill:#ffffff;fill-opacity:1;stroke-width:0.356115;stroke-linecap:round;stroke-dashoffset:0.29238;paint-order:stroke markers fill;stop-color:#000000"
     id="path4097-3-5-6"
     cx="-0.013141144"
     cy="16.257143"
     r="0.7309972"
     transform="rotate(-45)" />
  <circle
     style="fill:#ffffff;fill-opacity:1;stroke-width:0.356115;stroke-linecap:round;stroke-dashoffset:0.29238;paint-order:stroke markers fill;stop-color:#000000"
     id="path4097-3-6-3-2"
     cx="-0.013141144"
     cy="13.581365"
     r="0.7309972"
     transform="rotate(-45)" />
  <rect
     style="fill:#000000;stroke-width:2;stroke-linecap:round;stroke-dashoffset:0.29238;paint-order:stroke markers fill;stop-color:#000000"
     id="rect3323"
     width="2.2988141"
     height="2.3007939"
     x="13.105469"
     y="13.121091" />
  <path
     style="fill:#000000;fill-opacity:1;stroke:none;stroke-width:1px;stroke-linecap:butt;stroke-linejoin:miter;stroke-opacity:1"
     d="m 5.3163175,0.03709704 20.0167015,-10e-8 L 15.247035,10.130856 Z"
     id="path3325" />
  <rect
     style="fill:#000000;stroke-width:2;stroke-linecap:round;stroke-dashoffset:0.29238;paint-order:stroke markers fill;stop-color:#000000"
     id="rect5311"
     width="5.1229777"
     height="8.2006063"
     x="10.121095"
     y="15.437515" />
</svg>
