<?xml version="1.0" encoding="UTF-8" standalone="no"?>
<svg
   width="18.541725"
   height="20.653746"
   viewBox="0 0 18.541725 20.653746"
   version="1.1"
   id="svg38"
   sodipodi:docname="route-feather-45.svg"
   inkscape:version="1.2.2 (b0a8486541, 2022-12-01)"
   xmlns:inkscape="http://www.inkscape.org/namespaces/inkscape"
   xmlns:sodipodi="http://sodipodi.sourceforge.net/DTD/sodipodi-0.dtd"
   xmlns="http://www.w3.org/2000/svg"
   xmlns:svg="http://www.w3.org/2000/svg">
  <defs
     id="defs42" />
  <sodipodi:namedview
     id="namedview40"
     pagecolor="#ffffff"
     bordercolor="#666666"
     borderopacity="1.0"
     inkscape:showpageshadow="2"
     inkscape:pageopacity="0.0"
     inkscape:pagecheckerboard="0"
     inkscape:deskcolor="#d1d1d1"
     showgrid="false"
     inkscape:zoom="34.775062"
     inkscape:cx="1.1502496"
     inkscape:cy="12.623989"
     inkscape:window-width="1920"
     inkscape:window-height="1129"
     inkscape:window-x="0"
     inkscape:window-y="0"
     inkscape:window-maximized="1"
     inkscape:current-layer="svg38" />
  <path
     id="rect3055"
     style="fill:#000000;fill-opacity:1;stroke-width:2;stroke-linecap:round;stroke-dashoffset:0.29238;paint-order:stroke markers fill;stop-color:#000000"
     d="m 13.091796,0 2.318346,2.3203259 0,2.9980474 -10.121093,10.1191417 10e-7,-0.01563 H 2.304675 L 0.005861,13.121091 V 10.130856 H 6.1e-5 L 10.091845,0.03709694 h 0.002 l 2.998048,-7.7e-7 z" />
  <circle
     style="fill:#ffffff;fill-opacity:1;stroke-width:0.356115;stroke-linecap:round;stroke-dashoffset:0.29238;paint-order:stroke markers fill;stop-color:#000000"
     id="path4097"
     cx="-10.909758"
     cy="-5.342597"
     r="0.7309972"
     transform="matrix(-0.70710678,-0.70710678,-0.70710678,0.70710678,0,0)" />
  <circle
     style="fill:#ffffff;fill-opacity:1;stroke-width:0.356115;stroke-linecap:round;stroke-dashoffset:0.29238;paint-order:stroke markers fill;stop-color:#000000"
     id="path4097-3"
     cx="-10.909758"
     cy="0.0089657968"
     r="0.7309972"
     transform="matrix(-0.70710678,-0.70710678,-0.70710678,0.70710678,0,0)" />
  <circle
     style="fill:#ffffff;fill-opacity:1;stroke-width:0.356115;stroke-linecap:round;stroke-dashoffset:0.29238;paint-order:stroke markers fill;stop-color:#000000"
     id="path4097-3-6"
     cx="-10.909758"
     cy="-2.6668155"
     r="0.7309972"
     transform="matrix(-0.70710678,-0.70710678,-0.70710678,0.70710678,0,0)" />
  <circle
     style="fill:#ffffff;fill-opacity:1;stroke-width:0.356115;stroke-linecap:round;stroke-dashoffset:0.29238;paint-order:stroke markers fill;stop-color:#000000"
     id="path4097-3-5"
     cx="-10.909758"
     cy="5.3605275"
     r="0.7309972"
     transform="matrix(-0.70710678,-0.70710678,-0.70710678,0.70710678,0,0)" />
  <circle
     style="fill:#ffffff;fill-opacity:1;stroke-width:0.356115;stroke-linecap:round;stroke-dashoffset:0.29238;paint-order:stroke markers fill;stop-color:#000000"
     id="path4097-3-6-3"
     cx="-10.909758"
     cy="2.6847489"
     r="0.7309972"
     transform="matrix(-0.70710678,-0.70710678,-0.70710678,0.70710678,0,0)" />
  <path
     id="rect3055-1"
     style="fill:#000000;fill-opacity:1;stroke-width:2;stroke-linecap:round;stroke-dashoffset:0.29238;paint-order:stroke markers fill;stop-color:#000000"
     d="m 18.541724,15.25377 -0.0014,3.280036 -2.11994,2.119939 -14.312007,-0.0014 0.01105,-0.01105 -2.110271,-2.110272 0.0014,-3.252414 2.114415,-2.114415 -0.0041,-0.0041 14.273335,-0.0014 0.0014,0.0014 2.11994,2.119939 z" />
  <circle
     style="fill:#ffffff;fill-opacity:1;stroke-width:0.356115;stroke-linecap:round;stroke-dashoffset:0.29238;paint-order:stroke markers fill;stop-color:#000000"
     id="path4097-8"
     cx="-16.906229"
     cy="-14.627024"
     r="0.7309972"
     transform="matrix(0,-1,-1,0,0,0)" />
  <circle
     style="fill:#ffffff;fill-opacity:1;stroke-width:0.356115;stroke-linecap:round;stroke-dashoffset:0.29238;paint-order:stroke markers fill;stop-color:#000000"
     id="path4097-3-7"
     cx="-16.906229"
     cy="-9.2754612"
     r="0.7309972"
     transform="matrix(0,-1,-1,0,0,0)" />
  <circle
     style="fill:#ffffff;fill-opacity:1;stroke-width:0.356115;stroke-linecap:round;stroke-dashoffset:0.29238;paint-order:stroke markers fill;stop-color:#000000"
     id="path4097-3-6-9"
     cx="-16.906229"
     cy="-11.951241"
     r="0.7309972"
     transform="matrix(0,-1,-1,0,0,0)" />
  <circle
     style="fill:#ffffff;fill-opacity:1;stroke-width:0.356115;stroke-linecap:round;stroke-dashoffset:0.29238;paint-order:stroke markers fill;stop-color:#000000"
     id="path4097-3-5-2"
     cx="-16.906229"
     cy="-3.9238994"
     r="0.7309972"
     transform="matrix(0,-1,-1,0,0,0)" />
  <circle
     style="fill:#ffffff;fill-opacity:1;stroke-width:0.356115;stroke-linecap:round;stroke-dashoffset:0.29238;paint-order:stroke markers fill;stop-color:#000000"
     id="path4097-3-6-3-0"
     cx="-16.906229"
     cy="-6.599678"
     r="0.7309972"
     transform="matrix(0,-1,-1,0,0,0)" />
  <path
     style="fill:#000000;fill-opacity:1;stroke:none;stroke-width:1px;stroke-linecap:butt;stroke-linejoin:miter;stroke-opacity:1"
     d="M 15.410142,2.3203259 18.515546,15.280033 7.330675,13.158694 Z"
     id="path25067" />
  <path
     style="fill:#000000;fill-opacity:1;stroke:none;stroke-width:1px;stroke-linecap:butt;stroke-linejoin:miter;stroke-opacity:1"
     d="M 0.005861,13.121091 1.136114,14.153051 0,15.4375 Z"
     id="path25069"
     sodipodi:nodetypes="cccc" />
</svg>
