<?xml version="1.0" encoding="UTF-8"?>
<svg xmlns="http://www.w3.org/2000/svg" xmlns:xlink="http://www.w3.org/1999/xlink" width="20" height="20" viewBox="0 0 20 20">
<circle fill="#E31837" cx="10" cy="10" r="10"/>
<circle fill="#231F20" cx="10" cy="10" r="8.2"/>
<path fill="#FFFFFF" d="m 4.1339873,6.3605748 h 1.000647 v 7.1521882 h -1.000647 z"/>
<path fill="#FFFFFF" d="m 8.1304968,8.6841279 c -0.139916,0.2052683 -0.252214,0.427107 -0.388448,0.6553852 0.321251,-0.05891 0.601076,-0.1242629 0.883667,-0.1555599 1.034627,-0.1150609 1.9026452,0.5624156 2.2386242,1.3816478 0.509949,1.238974 -0.0856,2.604056 -1.3521962,3.047733 -1.007933,0.351623 -2.131846,0.02577 -2.720037,-0.989523 -0.448277,-0.773208 -0.51363,-1.608093 -0.362669,-2.467824 0.276146,-1.560226 1.44516,-3.1416206 2.870073,-3.8816919 0.186861,0.2660182 0.377402,0.5375618 0.582671,0.8275154 l 0.0019,9.176e-4 c -0.719819,0.4040935 -1.302492,0.923248 -1.753527,1.5813955 z m 1.850176,2.4448111 c -0.136231,-0.503506 -0.544927,-0.884586 -1.041989,-0.933372 -0.451962,-0.04511 -0.847769,0.110459 -1.203079,0.386604 -0.293635,0.22736 -0.419742,0.506269 -0.304681,0.87354 0.01841,0.05983 0.02393,0.123345 0.03774,0.185021 0.156481,0.654463 0.66091,1.084332 1.273034,1.088935 0.312045,0 0.555053,-0.08101 0.802665,-0.269703 v -0.0019 c 0.394888,-0.301002 0.5706992,-0.833964 0.436308,-1.329186 z"/>
<path fill="#FFFFFF" d="m 16.786855,10.115627 c -0.01242,0.743967 -0.06757,1.478611 -0.358005,2.176761 -0.233752,0.563022 -0.57933,1.034408 -1.160215,1.273593 -0.262485,0.109501 -0.559916,0.171625 -0.862784,0.173955 -0.302866,-0.0016 -0.600299,-0.06368 -0.862783,-0.173955 -0.580883,-0.239185 -0.926463,-0.709796 -1.160213,-1.273593 -0.290441,-0.69815 -0.345581,-1.432794 -0.358005,-2.176761 0.01398,-0.7424144 0.06368,-1.4770622 0.354122,-2.175209 0.311409,-0.7563906 0.813082,-1.3000008 1.658002,-1.4242527 0.124256,-0.01786 0.24773,-0.027956 0.368102,-0.030288 0.120369,0.00156 0.244625,0.012428 0.368098,0.030288 0.844924,0.1242519 1.345819,0.6678621 1.658006,1.4242527 0.291217,0.6981468 0.340921,1.4335724 0.355675,2.175209 z m -1.081003,-1.1314819 c -0.05825,-0.3774198 -0.161528,-0.7400835 -0.395281,-1.0522709 -0.225208,-0.3013135 -0.563022,-0.4535226 -0.90472,-0.4535226 -0.341694,0 -0.680286,0.1522091 -0.904717,0.4535226 -0.233752,0.3114097 -0.336262,0.6748511 -0.395282,1.0522709 -0.13823,0.8682197 -0.143667,1.7356629 0.07611,2.5945639 0.0497,0.193367 0.125808,0.385961 0.221326,0.561466 0.222881,0.396837 0.559918,0.607291 1.002568,0.604183 0.442653,0.0031 0.77969,-0.207346 1.002569,-0.604183 0.09552,-0.175505 0.171623,-0.368099 0.221328,-0.561466 0.219772,-0.858901 0.214336,-1.7271226 0.07611,-2.5945639 z"/>
</svg>