<?xml version="1.0" encoding="UTF-8"?>
<svg xmlns="http://www.w3.org/2000/svg" xmlns:xlink="http://www.w3.org/1999/xlink" width="20" height="20" viewBox="0 0 20 20">
<circle fill="#E31837" cx="10" cy="10" r="10"/>
<circle fill="#FFFFFF" cx="10" cy="10" r="8.2"/>
<path fill="#231F20" d="m 6.6342688,5.444383 c -1.413251,-1e-6 -2.59503,1.0325042 -2.59503,2.3916606 0,0.7369564 0.313216,1.4264316 0.869697,1.8588084 -0.670123,0.474069 -1.160765,1.267785 -1.160765,2.12419 -2e-6,1.473942 1.357715,2.715398 2.886098,2.715399 1.528384,-10e-7 2.885957,-1.241457 2.885957,-2.715399 0,-0.85639 -0.490568,-1.650121 -1.160621,-2.12419 0.556481,-0.4323768 0.869696,-1.121852 0.869693,-1.8588084 0,-1.3591564 -1.181778,-2.3916616 -2.595029,-2.3916606 z m 0,1.194477 c 0.847182,-1e-6 1.400554,0.5742322 1.400554,1.1971836 0,0.6229522 -0.553372,1.1972304 -1.400554,1.1972304 -0.847179,0 -1.400504,-0.5742782 -1.400504,-1.1972304 0,-0.6229514 0.553325,-1.1971846 1.400504,-1.1971836 z m 0,3.756315 c 0.945965,0 1.691431,0.665468 1.691431,1.423867 0,0.7584 -0.745463,1.520921 -1.691431,1.520923 -0.945965,-2e-6 -1.691574,-0.762523 -1.691574,-1.520923 0,-0.758399 0.745609,-1.423867 1.691574,-1.423867 z"/>
<path fill="#231F20" d="m 16.352173,9.99646 c -0.01574,0.942358 -0.08558,1.872908 -0.453473,2.757231 -0.296086,0.713161 -0.733818,1.31025 -1.469607,1.613218 -0.332481,0.138701 -0.709225,0.217392 -1.092859,0.220343 -0.38363,-0.002 -0.760378,-0.08066 -1.092858,-0.220343 -0.735785,-0.302968 -1.17352,-0.899075 -1.469603,-1.613218 -0.367893,-0.884323 -0.437736,-1.814873 -0.453473,-2.757231 0.01771,-0.940391 0.08066,-1.870945 0.448554,-2.7552641 0.394453,-0.9580949 1.029905,-1.6466677 2.100137,-1.8040535 0.157389,-0.022623 0.313791,-0.035412 0.466262,-0.038365 0.152467,0.00197 0.309858,0.015742 0.466258,0.038365 1.070236,0.1573858 1.704704,0.8459586 2.100141,1.8040535 0.368874,0.8843191 0.431832,1.8158581 0.450521,2.7552641 z m -1.369271,-1.43321 c -0.07378,-0.478065 -0.204602,-0.937439 -0.500689,-1.3328763 -0.285264,-0.3816638 -0.713162,-0.574462 -1.145979,-0.574462 -0.432812,0 -0.861695,0.1927982 -1.145974,0.574462 -0.296087,0.3944523 -0.425932,0.8548113 -0.50069,1.3328763 -0.175093,1.099745 -0.181979,2.198507 0.0964,3.286447 0.06295,0.244933 0.159357,0.488885 0.280346,0.711191 0.282316,0.50266 0.709229,0.769235 1.269919,0.765298 0.560695,0.0039 0.987608,-0.262638 1.26992,-0.765298 0.120992,-0.222306 0.217391,-0.466258 0.280349,-0.711191 0.278379,-1.08794 0.271494,-2.187688 0.0964,-3.286447 z"/>
</svg>