<?xml version="1.0" encoding="UTF-8"?>
<svg xmlns="http://www.w3.org/2000/svg" xmlns:xlink="http://www.w3.org/1999/xlink" width="20" height="20" viewBox="0 0 20 20">
<circle fill="#E31837" cx="10" cy="10" r="10"/>
<circle fill="#FFFFFF" cx="10" cy="10" r="8.2"/>
<path fill="#231F20" d="m 6.1632168,5.2400611 h 1.267486 v 9.0594379 h -1.267486 z"/>
<path fill="#231F20" d="m 14.852173,9.99646 c -0.01574,0.942358 -0.08558,1.872908 -0.453473,2.757231 -0.296086,0.713161 -0.733818,1.31025 -1.469607,1.613218 -0.332481,0.138701 -0.709225,0.217392 -1.092859,0.220343 -0.38363,-0.002 -0.760378,-0.08066 -1.092858,-0.220343 -0.735785,-0.302968 -1.17352,-0.899075 -1.469603,-1.613218 -0.367893,-0.884323 -0.437736,-1.814873 -0.453473,-2.757231 0.01771,-0.940391 0.08066,-1.870945 0.448554,-2.7552641 0.394453,-0.9580949 1.029905,-1.6466677 2.100137,-1.8040535 0.157389,-0.022623 0.313791,-0.035412 0.466262,-0.038365 0.152467,0.00197 0.309858,0.015742 0.466258,0.038365 1.070236,0.1573858 1.704704,0.8459586 2.100141,1.8040535 0.368874,0.8843191 0.431832,1.8158581 0.450521,2.7552641 z m -1.369271,-1.43321 c -0.07378,-0.478065 -0.204602,-0.937439 -0.500689,-1.3328763 -0.285264,-0.3816638 -0.713162,-0.574462 -1.145979,-0.574462 -0.432812,0 -0.861695,0.1927982 -1.145974,0.574462 -0.296087,0.3944523 -0.425932,0.8548113 -0.50069,1.3328763 -0.175093,1.099745 -0.181979,2.198507 0.0964,3.286447 0.06295,0.244933 0.159357,0.488885 0.280346,0.711191 0.282316,0.50266 0.709229,0.769235 1.269919,0.765298 0.560695,0.0039 0.987608,-0.262638 1.26992,-0.765298 0.120992,-0.222306 0.217391,-0.466258 0.280349,-0.711191 0.278379,-1.08794 0.271494,-2.187688 0.0964,-3.286447 z"/>
</svg>