<?xml version="1.0" encoding="UTF-8"?>
<svg xmlns="http://www.w3.org/2000/svg" xmlns:xlink="http://www.w3.org/1999/xlink" width="20" height="20" viewBox="0 0 20 20">
<circle fill="#E31837" cx="10" cy="10" r="10"/>
<circle fill="#231F20" cx="10" cy="10" r="8.2"/>
<path fill="#FFFFFF" d="m 4.1339873,6.3605748 h 1.000647 v 7.1521882 h -1.000647 z"/>
<path fill="#FFFFFF" d="m 9.2793554,11.339996 c 0.139915,-0.205269 0.252214,-0.427106 0.388445,-0.655385 -0.321249,0.05891 -0.601079,0.124262 -0.883667,0.15556 -1.034625,0.115062 -1.902647,-0.562416 -2.238621,-1.3816478 -0.5099535,-1.2389746 0.0856,-2.604056 1.35219,-3.0477334 1.007934,-0.3516226 2.1318476,-0.025772 2.7200386,0.9895232 0.448277,0.7732086 0.513633,1.6080927 0.362673,2.4678247 -0.276146,1.5602253 -1.4451646,3.1416203 -2.8700776,3.8816923 -0.186857,-0.26602 -0.377399,-0.537562 -0.582668,-0.827516 l -0.0019,-8.82e-4 c 0.720742,-0.404094 1.30341,-0.922327 1.753526,-1.581397 z m -1.850177,-2.4448111 c 0.136231,0.5035061 0.544927,0.884586 1.041989,0.9333717 0.451958,0.045106 0.847768,-0.1104583 1.203076,-0.3866038 0.293634,-0.2273598 0.4197406,-0.5062684 0.30468,-0.8735402 -0.0184,-0.059831 -0.02393,-0.1233445 -0.03773,-0.18502 -0.156482,-0.6544631 -0.660907,-1.0843325 -1.273031,-1.0889351 -0.312046,0 -0.555053,0.081005 -0.802665,0.2697024 v 0.00185 c -0.394888,0.3010002 -0.570703,0.8339627 -0.436309,1.3291847 z"/>
<path fill="#FFFFFF" d="m 12.854521,6.360575 h 3.332296 v 1.0323275 h -2.394874 l -0.179547,1.3359286 c 0,0 0.746927,-0.034212 1.531624,0.3766795 0.605561,0.3169448 1.291383,1.0070104 1.274278,1.9740604 -0.03709,2.092504 -1.769608,2.535076 -2.407806,2.535076 -0.703067,0 -1.440414,-0.260014 -2.233939,-1.039306 l 0.702246,-0.737348 c 0,0 0.622668,0.751374 1.531693,0.751374 0.93489,0 1.349544,-0.829172 1.371988,-1.306164 0.04215,-0.89534 -0.735567,-1.4676463 -1.432544,-1.5483877 -0.655717,-0.075952 -1.278794,-0.039619 -1.531556,0.079784 z"/>
</svg>