<?xml version="1.0" encoding="UTF-8"?>
<svg xmlns="http://www.w3.org/2000/svg" xmlns:xlink="http://www.w3.org/1999/xlink" width="20" height="20" viewBox="0 0 20 20">
<circle fill="#E31837" cx="10" cy="10" r="10"/>
<circle fill="#FFFFFF" cx="10" cy="10" r="8.2"/>
<path fill="#231F20" d="m 5.9189848,8.1832283 c -0.177226,0.2600065 -0.3194708,0.5410022 -0.4920338,0.8301545 0.4069178,-0.074619 0.7613638,-0.1573996 1.1193108,-0.1970424 1.310528,-0.145744 2.410018,0.712393 2.835591,1.7500876 0.6459352,1.569367 -0.108432,3.29847 -1.712781,3.860461 -1.276715,0.445389 -2.7003388,0.03265 -3.4453808,-1.253395 -0.567817,-0.979397 -0.650598,-2.036918 -0.459381,-3.125911 0.349785,-1.976286 1.830537,-3.9793859 3.6354268,-4.9168094 0.23669,0.3369563 0.478042,0.6809115 0.738049,1.0481861 l 0.0023,0.00117 c -0.911771,0.5118517 -1.649821,1.1694474 -2.221132,2.0031008 z m 2.343556,3.0967607 c -0.172559,-0.637774 -0.690241,-1.120475 -1.319853,-1.182271 -0.572484,-0.05713 -1.073839,0.139914 -1.5238988,0.489699 -0.371937,0.287989 -0.531673,0.641273 -0.385929,1.106484 0.02332,0.07579 0.03031,0.156236 0.0478,0.234359 0.198211,0.828987 0.8371528,1.373488 1.6125098,1.379318 0.395258,0 0.703068,-0.102607 1.016709,-0.341624 v -0.0023 c 0.500191,-0.381267 0.722886,-1.056353 0.552658,-1.683634 z"/>
<path fill="#231F20" d="m 16.352173,9.99646 c -0.01574,0.942358 -0.08558,1.872908 -0.453473,2.757231 -0.296086,0.713161 -0.733818,1.31025 -1.469607,1.613218 -0.332481,0.138701 -0.709225,0.217392 -1.092859,0.220343 -0.38363,-0.002 -0.760378,-0.08066 -1.092858,-0.220343 -0.735785,-0.302968 -1.17352,-0.899075 -1.469603,-1.613218 -0.367893,-0.884323 -0.437736,-1.814873 -0.453473,-2.757231 0.01771,-0.940391 0.08066,-1.870945 0.448554,-2.7552641 0.394453,-0.9580949 1.029905,-1.6466677 2.100137,-1.8040535 0.157389,-0.022623 0.313791,-0.035412 0.466262,-0.038365 0.152467,0.00197 0.309858,0.015742 0.466258,0.038365 1.070236,0.1573858 1.704704,0.8459586 2.100141,1.8040535 0.368874,0.8843191 0.431832,1.8158581 0.450521,2.7552641 z m -1.369271,-1.43321 c -0.07378,-0.478065 -0.204602,-0.937439 -0.500689,-1.3328763 -0.285264,-0.3816638 -0.713162,-0.574462 -1.145979,-0.574462 -0.432812,0 -0.861695,0.1927982 -1.145974,0.574462 -0.296087,0.3944523 -0.425932,0.8548113 -0.50069,1.3328763 -0.175093,1.099745 -0.181979,2.198507 0.0964,3.286447 0.06295,0.244933 0.159357,0.488885 0.280346,0.711191 0.282316,0.50266 0.709229,0.769235 1.269919,0.765298 0.560695,0.0039 0.987608,-0.262638 1.26992,-0.765298 0.120992,-0.222306 0.217391,-0.466258 0.280349,-0.711191 0.278379,-1.08794 0.271494,-2.187688 0.0964,-3.286447 z"/>
</svg>