<?xml version="1.0" encoding="UTF-8"?>
<svg xmlns="http://www.w3.org/2000/svg" xmlns:xlink="http://www.w3.org/1999/xlink" width="20" height="20" viewBox="0 0 20 20">
<circle fill="#E31837" cx="10" cy="10" r="10"/>
<circle fill="#231F20" cx="10" cy="10" r="8.2"/>
<path fill="#FFFFFF" d="m 4.1339873,6.3605748 h 1.000647 v 7.1521882 h -1.000647 z"/>
<path fill="#FFFFFF" d="m 9.2793554,11.339996 c 0.139915,-0.205269 0.252214,-0.427106 0.388445,-0.655385 -0.321249,0.05891 -0.601079,0.124262 -0.883667,0.15556 -1.034625,0.115062 -1.902647,-0.562416 -2.238621,-1.3816478 -0.5099535,-1.2389746 0.0856,-2.604056 1.35219,-3.0477334 1.007934,-0.3516226 2.1318476,-0.025772 2.7200386,0.9895232 0.448277,0.7732086 0.513633,1.6080927 0.362673,2.4678247 -0.276146,1.5602253 -1.4451646,3.1416203 -2.8700776,3.8816923 -0.186857,-0.26602 -0.377399,-0.537562 -0.582668,-0.827516 l -0.0019,-8.82e-4 c 0.720742,-0.404094 1.30341,-0.922327 1.753526,-1.581397 z m -1.850177,-2.4448111 c 0.136231,0.5035061 0.544927,0.884586 1.041989,0.9333717 0.451958,0.045106 0.847768,-0.1104583 1.203076,-0.3866038 0.293634,-0.2273598 0.4197406,-0.5062684 0.30468,-0.8735402 -0.0184,-0.059831 -0.02393,-0.1233445 -0.03773,-0.18502 -0.156482,-0.6544631 -0.660907,-1.0843325 -1.273031,-1.0889351 -0.312046,0 -0.555053,0.081005 -0.802665,0.2697024 v 0.00185 c -0.394888,0.3010002 -0.570703,0.8339627 -0.436309,1.3291847 z"/>
<path fill="#FFFFFF" d="m 16.786855,10.115627 c -0.01242,0.743967 -0.06757,1.478611 -0.358005,2.176761 -0.233752,0.563022 -0.57933,1.034408 -1.160215,1.273593 -0.262485,0.109501 -0.559916,0.171625 -0.862784,0.173955 -0.302866,-0.0016 -0.600299,-0.06368 -0.862783,-0.173955 -0.580883,-0.239185 -0.926463,-0.709796 -1.160213,-1.273593 -0.290441,-0.69815 -0.345581,-1.432794 -0.358005,-2.176761 0.01398,-0.7424144 0.06368,-1.4770622 0.354122,-2.175209 0.311409,-0.7563906 0.813082,-1.3000008 1.658002,-1.4242527 0.124256,-0.01786 0.24773,-0.027956 0.368102,-0.030288 0.120369,0.00156 0.244625,0.012428 0.368098,0.030288 0.844924,0.1242519 1.345819,0.6678621 1.658006,1.4242527 0.291217,0.6981468 0.340921,1.4335724 0.355675,2.175209 z m -1.081003,-1.1314819 c -0.05825,-0.3774198 -0.161528,-0.7400835 -0.395281,-1.0522709 -0.225208,-0.3013135 -0.563022,-0.4535226 -0.90472,-0.4535226 -0.341694,0 -0.680286,0.1522091 -0.904717,0.4535226 -0.233752,0.3114097 -0.336262,0.6748511 -0.395282,1.0522709 -0.13823,0.8682197 -0.143667,1.7356629 0.07611,2.5945639 0.0497,0.193367 0.125808,0.385961 0.221326,0.561466 0.222881,0.396837 0.559918,0.607291 1.002568,0.604183 0.442653,0.0031 0.77969,-0.207346 1.002569,-0.604183 0.09552,-0.175505 0.171623,-0.368099 0.221328,-0.561466 0.219772,-0.858901 0.214336,-1.7271226 0.07611,-2.5945639 z"/>
</svg>