<?xml version="1.0" encoding="UTF-8"?>
<svg xmlns="http://www.w3.org/2000/svg" xmlns:xlink="http://www.w3.org/1999/xlink" width="20" height="20" viewBox="0 0 20 20">
<circle fill="#E31837" cx="10" cy="10" r="10"/>
<circle fill="#231F20" cx="10" cy="10" r="8.2"/>
<path fill="#FFFFFF" d="m 7.3664248,11.547328 c 0.177225,-0.260007 0.31947,-0.541002 0.492029,-0.830155 -0.406914,0.07462 -0.761365,0.1574 -1.119311,0.197044 -1.310525,0.145744 -2.410019,-0.712394 -2.835587,-1.750088 -0.645939,-1.5693677 0.108433,-3.2984708 1.712776,-3.8604622 1.276716,-0.4453886 2.70034,-0.032645 3.445382,1.2533961 0.567817,0.9793974 0.650602,2.0369172 0.459385,3.1259111 -0.349785,1.976285 -1.830542,3.979386 -3.635431,4.91681 -0.236686,-0.336958 -0.478039,-0.680912 -0.738046,-1.048187 l -0.0023,-0.0012 c 0.91294,-0.511852 1.650986,-1.16828 2.221134,-2.003101 z m -2.343557,-3.0967608 c 0.172559,0.6377743 0.690241,1.1204755 1.319853,1.1822708 0.57248,0.057134 1.073839,-0.1399139 1.523895,-0.4896982 0.371937,-0.2879891 0.531672,-0.6412733 0.385928,-1.1064843 -0.02332,-0.075787 -0.03031,-0.1562363 -0.0478,-0.2343586 -0.19821,-0.8289866 -0.837148,-1.3734877 -1.612505,-1.3793178 -0.395258,0 -0.703068,0.1026059 -1.016709,0.3416231 v 0.00233 c -0.500191,0.3812669 -0.722891,1.0563528 -0.552658,1.6836339 z"/>
<path fill="#FFFFFF" d="m 16.352173,9.99646 c -0.01574,0.942358 -0.08558,1.872908 -0.453473,2.757231 -0.296086,0.713161 -0.733818,1.31025 -1.469607,1.613218 -0.332481,0.138701 -0.709225,0.217392 -1.092859,0.220343 -0.38363,-0.002 -0.760378,-0.08066 -1.092858,-0.220343 -0.735785,-0.302968 -1.17352,-0.899075 -1.469603,-1.613218 -0.367893,-0.884323 -0.437736,-1.814873 -0.453473,-2.757231 0.01771,-0.940391 0.08066,-1.870945 0.448554,-2.7552641 0.394453,-0.9580949 1.029905,-1.6466677 2.100137,-1.8040535 0.157389,-0.022623 0.313791,-0.035412 0.466262,-0.038365 0.152467,0.00197 0.309858,0.015742 0.466258,0.038365 1.070236,0.1573858 1.704704,0.8459586 2.100141,1.8040535 0.368874,0.8843191 0.431832,1.8158581 0.450521,2.7552641 z m -1.369271,-1.43321 c -0.07378,-0.478065 -0.204602,-0.937439 -0.500689,-1.3328763 -0.285264,-0.3816638 -0.713162,-0.574462 -1.145979,-0.574462 -0.432812,0 -0.861695,0.1927982 -1.145974,0.574462 -0.296087,0.3944523 -0.425932,0.8548113 -0.50069,1.3328763 -0.175093,1.099745 -0.181979,2.198507 0.0964,3.286447 0.06295,0.244933 0.159357,0.488885 0.280346,0.711191 0.282316,0.50266 0.709229,0.769235 1.269919,0.765298 0.560695,0.0039 0.987608,-0.262638 1.26992,-0.765298 0.120992,-0.222306 0.217391,-0.466258 0.280349,-0.711191 0.278379,-1.08794 0.271494,-2.187688 0.0964,-3.286447 z"/>
</svg>