<?xml version="1.0" encoding="UTF-8"?>
<svg xmlns="http://www.w3.org/2000/svg" xmlns:xlink="http://www.w3.org/1999/xlink" width="20" height="20" viewBox="0 0 20 20">
<circle fill="#E31837" cx="10" cy="10" r="10"/>
<circle fill="#231F20" cx="10" cy="10" r="8.2"/>
<path fill="#FFFFFF" d="m 4.1339873,6.3605748 h 1.000647 v 7.1521882 h -1.000647 z"/>
<path fill="#FFFFFF" d="m 8.6949457,6.5218816 c -1.115724,-9e-7 -2.048707,0.8151349 -2.048707,1.8881531 0,0.5818077 0.247276,1.1261303 0.686602,1.4674804 -0.529044,0.3742649 -0.916393,1.0008829 -0.916393,1.6769919 -2e-6,1.163639 1.07188,2.143735 2.278498,2.143736 1.20662,-10e-7 2.2783883,-0.980097 2.2783883,-2.143736 0,-0.676098 -0.387291,-1.302727 -0.91628,-1.6769919 0.439327,-0.3413501 0.686602,-0.8856727 0.6866,-1.4674804 0,-1.0730182 -0.9329833,-1.888154 -2.0487083,-1.8881531 z m 0,0.9430081 c 0.668829,-7e-7 1.105701,0.4533413 1.105701,0.945145 0,0.4918043 -0.436872,0.9451819 -1.105701,0.9451819 -0.668825,0 -1.10566,-0.4533776 -1.10566,-0.9451819 0,-0.4918037 0.436835,-0.9451457 1.10566,-0.945145 z m 0,2.9655123 c 0.746815,0 1.3353413,0.525369 1.3353413,1.124105 0,0.598737 -0.5885243,1.200727 -1.3353413,1.200729 -0.746814,-2e-6 -1.335454,-0.601992 -1.335454,-1.200729 0,-0.598736 0.58864,-1.124105 1.335454,-1.124105 z"/>
<path fill="#FFFFFF" d="m 16.786855,10.115627 c -0.01242,0.743967 -0.06757,1.478611 -0.358005,2.176761 -0.233752,0.563022 -0.57933,1.034408 -1.160215,1.273593 -0.262485,0.109501 -0.559916,0.171625 -0.862784,0.173955 -0.302866,-0.0016 -0.600299,-0.06368 -0.862783,-0.173955 -0.580883,-0.239185 -0.926463,-0.709796 -1.160213,-1.273593 -0.290441,-0.69815 -0.345581,-1.432794 -0.358005,-2.176761 0.01398,-0.7424144 0.06368,-1.4770622 0.354122,-2.175209 0.311409,-0.7563906 0.813082,-1.3000008 1.658002,-1.4242527 0.124256,-0.01786 0.24773,-0.027956 0.368102,-0.030288 0.120369,0.00156 0.244625,0.012428 0.368098,0.030288 0.844924,0.1242519 1.345819,0.6678621 1.658006,1.4242527 0.291217,0.6981468 0.340921,1.4335724 0.355675,2.175209 z m -1.081003,-1.1314819 c -0.05825,-0.3774198 -0.161528,-0.7400835 -0.395281,-1.0522709 -0.225208,-0.3013135 -0.563022,-0.4535226 -0.90472,-0.4535226 -0.341694,0 -0.680286,0.1522091 -0.904717,0.4535226 -0.233752,0.3114097 -0.336262,0.6748511 -0.395282,1.0522709 -0.13823,0.8682197 -0.143667,1.7356629 0.07611,2.5945639 0.0497,0.193367 0.125808,0.385961 0.221326,0.561466 0.222881,0.396837 0.559918,0.607291 1.002568,0.604183 0.442653,0.0031 0.77969,-0.207346 1.002569,-0.604183 0.09552,-0.175505 0.171623,-0.368099 0.221328,-0.561466 0.219772,-0.858901 0.214336,-1.7271226 0.07611,-2.5945639 z"/>
</svg>