<?xml version="1.0" encoding="UTF-8"?>
<svg xmlns="http://www.w3.org/2000/svg" xmlns:xlink="http://www.w3.org/1999/xlink" width="20" height="20" viewBox="0 0 20 20">
<circle fill="#E31837" cx="10" cy="10" r="10"/>
<circle fill="#FFFFFF" cx="10" cy="10" r="8.2"/>
<path fill="#231F20" d="m 5.9189848,8.1832283 c -0.177226,0.2600065 -0.3194708,0.5410022 -0.4920338,0.8301545 0.4069178,-0.074619 0.7613638,-0.1573996 1.1193108,-0.1970424 1.310528,-0.145744 2.410018,0.712393 2.835591,1.7500876 0.6459352,1.569367 -0.108432,3.29847 -1.712781,3.860461 -1.276715,0.445389 -2.7003388,0.03265 -3.4453808,-1.253395 -0.567817,-0.979397 -0.650598,-2.036918 -0.459381,-3.125911 0.349785,-1.976286 1.830537,-3.9793859 3.6354268,-4.9168094 0.23669,0.3369563 0.478042,0.6809115 0.738049,1.0481861 l 0.0023,0.00117 c -0.911771,0.5118517 -1.649821,1.1694474 -2.221132,2.0031008 z m 2.343556,3.0967607 c -0.172559,-0.637774 -0.690241,-1.120475 -1.319853,-1.182271 -0.572484,-0.05713 -1.073839,0.139914 -1.5238988,0.489699 -0.371937,0.287989 -0.531673,0.641273 -0.385929,1.106484 0.02332,0.07579 0.03031,0.156236 0.0478,0.234359 0.198211,0.828987 0.8371528,1.373488 1.6125098,1.379318 0.395258,0 0.703068,-0.102607 1.016709,-0.341624 v -0.0023 c 0.500191,-0.381267 0.722886,-1.056353 0.552658,-1.683634 z"/>
<path fill="#231F20" d="m 11.452924,5.2400614 h 4.220908 v 1.3076147 h -3.033507 l -0.227426,1.6921763 c 0,0 0.946107,-0.043335 1.940057,0.4771274 0.767044,0.4014632 1.635753,1.2755468 1.614086,2.5004762 -0.04698,2.650505 -2.241502,3.211097 -3.049888,3.211097 -0.890551,0 -1.824524,-0.329352 -2.829655,-1.316455 l 0.889511,-0.933974 c 0,0 0.788712,0.951741 1.940144,0.951741 1.184194,0 1.709424,-1.050286 1.737852,-1.654474 0.05339,-1.134098 -0.931719,-1.8590197 -1.814556,-1.961292 -0.830575,-0.096205 -1.619806,-0.050183 -1.939971,0.1010595 z"/>
</svg>