<?xml version="1.0" encoding="UTF-8"?>
<svg xmlns="http://www.w3.org/2000/svg" xmlns:xlink="http://www.w3.org/1999/xlink" width="20" height="20" viewBox="0 0 20 20">
<circle fill="#E31837" cx="10" cy="10" r="10"/>
<circle fill="#231F20" cx="10" cy="10" r="8.2"/>
<path fill="#FFFFFF" d="m 4.3561758,5.3594326 h 5.077711 c -0.589218,1.0849878 -1.22467,2.1109589 -1.813891,3.1851282 0.103288,0.052135 0.18985,0.098366 0.278378,0.1396823 1.165654,0.5597053 1.834548,1.6791239 1.773561,2.9795369 -0.055087,1.202047 -0.854811,2.271298 -2.029312,2.703129 -0.523316,0.193784 -1.067284,0.226248 -1.611256,0.114107 -0.838088,-0.176075 -1.526657,-0.614792 -2.141453,-1.250244 0.276412,-0.322648 0.542005,-0.626601 0.818417,-0.948263 0.072791,0.06197 0.134763,0.107222 0.189846,0.157391 0.359041,0.342317 0.765298,0.607907 1.243363,0.749556 0.756442,0.224277 1.554199,-0.09148 1.987997,-0.761361 0.328547,-0.504626 0.431835,-1.519775 -0.184927,-2.155223 -0.295102,-0.301987 -0.651191,-0.5026561 -1.067285,-0.5646278 -0.347236,-0.048202 -0.701357,-0.050168 -1.051546,-0.070825 -0.089513,-0.00492 -0.178042,0 -0.322642,0 0.580365,-1.0102303 1.143026,-1.9880005 1.727325,-3.007082 h -2.874286 z"/>
<path fill="#FFFFFF" d="m 11.452924,5.2400614 h 4.220908 v 1.3076147 h -3.033507 l -0.227426,1.6921763 c 0,0 0.946107,-0.043335 1.940057,0.4771274 0.767044,0.4014632 1.635753,1.2755468 1.614086,2.5004762 -0.04698,2.650505 -2.241502,3.211097 -3.049888,3.211097 -0.890551,0 -1.824524,-0.329352 -2.829655,-1.316455 l 0.889511,-0.933974 c 0,0 0.788712,0.951741 1.940144,0.951741 1.184194,0 1.709424,-1.050286 1.737852,-1.654474 0.05339,-1.134098 -0.931719,-1.8590197 -1.814556,-1.961292 -0.830575,-0.096205 -1.619806,-0.050183 -1.939971,0.1010595 z"/>
</svg>