<?xml version="1.0" encoding="UTF-8"?>
<svg xmlns="http://www.w3.org/2000/svg" xmlns:xlink="http://www.w3.org/1999/xlink" width="20" height="20" viewBox="0 0 20 20">
<circle fill="#E31837" cx="10" cy="10" r="10"/>
<circle fill="#231F20" cx="10" cy="10" r="8.2"/>
<path fill="#FFFFFF" d="m 4.1339873,6.3605748 h 1.000647 v 7.1521882 h -1.000647 z"/>
<path fill="#FFFFFF" d="m 6.7471079,6.4548154 h 4.0087191 c -0.465171,0.8565694 -0.9668441,1.6665466 -1.4320191,2.514575 0.08154,0.04116 0.149881,0.077658 0.219773,0.1102755 0.9202521,0.4418727 1.4483261,1.3256241 1.4001791,2.3522661 -0.04349,0.948984 -0.674851,1.79313 -1.6020881,2.134049 -0.413145,0.152987 -0.842593,0.178617 -1.272045,0.09009 -0.661649,-0.139007 -1.205255,-0.485362 -1.690621,-0.987035 0.21822,-0.254722 0.4279,-0.494685 0.64612,-0.748629 0.05747,0.04893 0.106391,0.08466 0.149878,0.124256 0.283453,0.270251 0.604182,0.479927 0.981603,0.591755 0.59719,0.177061 1.226999,-0.07222 1.56947,-0.601074 0.25938,-0.39839 0.3409221,-1.199823 -0.145995,-1.701492 -0.232975,-0.238411 -0.514098,-0.3968341 -0.842593,-0.4457591 -0.274133,-0.038054 -0.553702,-0.039607 -0.830167,-0.055914 -0.07067,-0.00388 -0.140561,0 -0.254718,0 0.458182,-0.7975503 0.902389,-1.5694742 1.363677,-2.3740122 h -2.269173 z"/>
<path fill="#FFFFFF" d="m 16.786855,10.115627 c -0.01242,0.743967 -0.06757,1.478611 -0.358005,2.176761 -0.233752,0.563022 -0.57933,1.034408 -1.160215,1.273593 -0.262485,0.109501 -0.559916,0.171625 -0.862784,0.173955 -0.302866,-0.0016 -0.600299,-0.06368 -0.862783,-0.173955 -0.580883,-0.239185 -0.926463,-0.709796 -1.160213,-1.273593 -0.290441,-0.69815 -0.345581,-1.432794 -0.358005,-2.176761 0.01398,-0.7424144 0.06368,-1.4770622 0.354122,-2.175209 0.311409,-0.7563906 0.813082,-1.3000008 1.658002,-1.4242527 0.124256,-0.01786 0.24773,-0.027956 0.368102,-0.030288 0.120369,0.00156 0.244625,0.012428 0.368098,0.030288 0.844924,0.1242519 1.345819,0.6678621 1.658006,1.4242527 0.291217,0.6981468 0.340921,1.4335724 0.355675,2.175209 z m -1.081003,-1.1314819 c -0.05825,-0.3774198 -0.161528,-0.7400835 -0.395281,-1.0522709 -0.225208,-0.3013135 -0.563022,-0.4535226 -0.90472,-0.4535226 -0.341694,0 -0.680286,0.1522091 -0.904717,0.4535226 -0.233752,0.3114097 -0.336262,0.6748511 -0.395282,1.0522709 -0.13823,0.8682197 -0.143667,1.7356629 0.07611,2.5945639 0.0497,0.193367 0.125808,0.385961 0.221326,0.561466 0.222881,0.396837 0.559918,0.607291 1.002568,0.604183 0.442653,0.0031 0.77969,-0.207346 1.002569,-0.604183 0.09552,-0.175505 0.171623,-0.368099 0.221328,-0.561466 0.219772,-0.858901 0.214336,-1.7271226 0.07611,-2.5945639 z"/>
</svg>