<?xml version="1.0" encoding="UTF-8"?>
<svg xmlns="http://www.w3.org/2000/svg" xmlns:xlink="http://www.w3.org/1999/xlink" width="20" height="20" viewBox="0 0 20 20">
<circle fill="#E31837" cx="10" cy="10" r="10"/>
<circle fill="#231F20" cx="10" cy="10" r="8.2"/>
<path fill="#FFFFFF" d="m 4.1339873,6.3605748 h 1.000647 v 7.1521882 h -1.000647 z"/>
<path fill="#FFFFFF" d="m 6.7471079,6.4548154 h 4.0087191 c -0.465171,0.8565694 -0.9668441,1.6665466 -1.4320191,2.514575 0.08154,0.04116 0.149881,0.077658 0.219773,0.1102755 0.9202521,0.4418727 1.4483261,1.3256241 1.4001791,2.3522661 -0.04349,0.948984 -0.674851,1.79313 -1.6020881,2.134049 -0.413145,0.152987 -0.842593,0.178617 -1.272045,0.09009 -0.661649,-0.139007 -1.205255,-0.485362 -1.690621,-0.987035 0.21822,-0.254722 0.4279,-0.494685 0.64612,-0.748629 0.05747,0.04893 0.106391,0.08466 0.149878,0.124256 0.283453,0.270251 0.604182,0.479927 0.981603,0.591755 0.59719,0.177061 1.226999,-0.07222 1.56947,-0.601074 0.25938,-0.39839 0.3409221,-1.199823 -0.145995,-1.701492 -0.232975,-0.238411 -0.514098,-0.3968341 -0.842593,-0.4457591 -0.274133,-0.038054 -0.553702,-0.039607 -0.830167,-0.055914 -0.07067,-0.00388 -0.140561,0 -0.254718,0 0.458182,-0.7975503 0.902389,-1.5694742 1.363677,-2.3740122 h -2.269173 z"/>
<path fill="#FFFFFF" d="m 12.854521,6.360575 h 3.332296 v 1.0323275 h -2.394874 l -0.179547,1.3359286 c 0,0 0.746927,-0.034212 1.531624,0.3766795 0.605561,0.3169448 1.291383,1.0070104 1.274278,1.9740604 -0.03709,2.092504 -1.769608,2.535076 -2.407806,2.535076 -0.703067,0 -1.440414,-0.260014 -2.233939,-1.039306 l 0.702246,-0.737348 c 0,0 0.622668,0.751374 1.531693,0.751374 0.93489,0 1.349544,-0.829172 1.371988,-1.306164 0.04215,-0.89534 -0.735567,-1.4676463 -1.432544,-1.5483877 -0.655717,-0.075952 -1.278794,-0.039619 -1.531556,0.079784 z"/>
</svg>