<?xml version="1.0" encoding="UTF-8"?>
<svg xmlns="http://www.w3.org/2000/svg" xmlns:xlink="http://www.w3.org/1999/xlink" width="20" height="20" viewBox="0 0 20 20">
<circle fill="#E31837" cx="10" cy="10" r="10"/>
<circle fill="#231F20" cx="10" cy="10" r="8.2"/>
<path fill="#FFFFFF" d="m 6.6342688,5.444383 c -1.413251,-1e-6 -2.59503,1.0325042 -2.59503,2.3916606 0,0.7369564 0.313216,1.4264316 0.869697,1.8588084 -0.670123,0.474069 -1.160765,1.267785 -1.160765,2.12419 -2e-6,1.473942 1.357715,2.715398 2.886098,2.715399 1.528384,-10e-7 2.885957,-1.241457 2.885957,-2.715399 0,-0.85639 -0.490568,-1.650121 -1.160621,-2.12419 0.556481,-0.4323768 0.869696,-1.121852 0.869693,-1.8588084 0,-1.3591564 -1.181778,-2.3916616 -2.595029,-2.3916606 z m 0,1.194477 c 0.847182,-1e-6 1.400554,0.5742322 1.400554,1.1971836 0,0.6229522 -0.553372,1.1972304 -1.400554,1.1972304 -0.847179,0 -1.400504,-0.5742782 -1.400504,-1.1972304 0,-0.6229514 0.553325,-1.1971846 1.400504,-1.1971836 z m 0,3.756315 c 0.945965,0 1.691431,0.665468 1.691431,1.423867 0,0.7584 -0.745463,1.520921 -1.691431,1.520923 -0.945965,-2e-6 -1.691574,-0.762523 -1.691574,-1.520923 0,-0.758399 0.745609,-1.423867 1.691574,-1.423867 z"/>
<path fill="#FFFFFF" d="m 11.452924,5.2400614 h 4.220908 v 1.3076147 h -3.033507 l -0.227426,1.6921763 c 0,0 0.946107,-0.043335 1.940057,0.4771274 0.767044,0.4014632 1.635753,1.2755468 1.614086,2.5004762 -0.04698,2.650505 -2.241502,3.211097 -3.049888,3.211097 -0.890551,0 -1.824524,-0.329352 -2.829655,-1.316455 l 0.889511,-0.933974 c 0,0 0.788712,0.951741 1.940144,0.951741 1.184194,0 1.709424,-1.050286 1.737852,-1.654474 0.05339,-1.134098 -0.931719,-1.8590197 -1.814556,-1.961292 -0.830575,-0.096205 -1.619806,-0.050183 -1.939971,0.1010595 z"/>
</svg>