<?xml version="1.0" encoding="UTF-8"?>
<svg xmlns="http://www.w3.org/2000/svg" xmlns:xlink="http://www.w3.org/1999/xlink" width="20" height="20" viewBox="0 0 20 20">
<circle fill="#E31837" cx="10" cy="10" r="10"/>
<circle fill="#231F20" cx="10" cy="10" r="8.2"/>
<path fill="#FFFFFF" d="m 4.1339873,6.3605748 h 1.000647 v 7.1521882 h -1.000647 z"/>
<path fill="#FFFFFF" d="m 8.6949457,6.5218816 c -1.115724,-9e-7 -2.048707,0.8151349 -2.048707,1.8881531 0,0.5818077 0.247276,1.1261303 0.686602,1.4674804 -0.529044,0.3742649 -0.916393,1.0008829 -0.916393,1.6769919 -2e-6,1.163639 1.07188,2.143735 2.278498,2.143736 1.20662,-10e-7 2.2783883,-0.980097 2.2783883,-2.143736 0,-0.676098 -0.387291,-1.302727 -0.91628,-1.6769919 0.439327,-0.3413501 0.686602,-0.8856727 0.6866,-1.4674804 0,-1.0730182 -0.9329833,-1.888154 -2.0487083,-1.8881531 z m 0,0.9430081 c 0.668829,-7e-7 1.105701,0.4533413 1.105701,0.945145 0,0.4918043 -0.436872,0.9451819 -1.105701,0.9451819 -0.668825,0 -1.10566,-0.4533776 -1.10566,-0.9451819 0,-0.4918037 0.436835,-0.9451457 1.10566,-0.945145 z m 0,2.9655123 c 0.746815,0 1.3353413,0.525369 1.3353413,1.124105 0,0.598737 -0.5885243,1.200727 -1.3353413,1.200729 -0.746814,-2e-6 -1.335454,-0.601992 -1.335454,-1.200729 0,-0.598736 0.58864,-1.124105 1.335454,-1.124105 z"/>
<path fill="#FFFFFF" d="m 12.854521,6.360575 h 3.332296 v 1.0323275 h -2.394874 l -0.179547,1.3359286 c 0,0 0.746927,-0.034212 1.531624,0.3766795 0.605561,0.3169448 1.291383,1.0070104 1.274278,1.9740604 -0.03709,2.092504 -1.769608,2.535076 -2.407806,2.535076 -0.703067,0 -1.440414,-0.260014 -2.233939,-1.039306 l 0.702246,-0.737348 c 0,0 0.622668,0.751374 1.531693,0.751374 0.93489,0 1.349544,-0.829172 1.371988,-1.306164 0.04215,-0.89534 -0.735567,-1.4676463 -1.432544,-1.5483877 -0.655717,-0.075952 -1.278794,-0.039619 -1.531556,0.079784 z"/>
</svg>