<?xml version="1.0" encoding="UTF-8"?>
<svg xmlns="http://www.w3.org/2000/svg" xmlns:xlink="http://www.w3.org/1999/xlink" width="20" height="20" viewBox="0 0 20 20">
<circle fill="#E31837" cx="10" cy="10" r="10"/>
<circle fill="#231F20" cx="10" cy="10" r="8.2"/>
<path fill="#FFFFFF" d="m 4.1339873,6.3605748 h 1.000647 v 7.1521882 h -1.000647 z"/>
<path fill="#FFFFFF" d="m 8.1304968,8.6841279 c -0.139916,0.2052683 -0.252214,0.427107 -0.388448,0.6553852 0.321251,-0.05891 0.601076,-0.1242629 0.883667,-0.1555599 1.034627,-0.1150609 1.9026452,0.5624156 2.2386242,1.3816478 0.509949,1.238974 -0.0856,2.604056 -1.3521962,3.047733 -1.007933,0.351623 -2.131846,0.02577 -2.720037,-0.989523 -0.448277,-0.773208 -0.51363,-1.608093 -0.362669,-2.467824 0.276146,-1.560226 1.44516,-3.1416206 2.870073,-3.8816919 0.186861,0.2660182 0.377402,0.5375618 0.582671,0.8275154 l 0.0019,9.176e-4 c -0.719819,0.4040935 -1.302492,0.923248 -1.753527,1.5813955 z m 1.850176,2.4448111 c -0.136231,-0.503506 -0.544927,-0.884586 -1.041989,-0.933372 -0.451962,-0.04511 -0.847769,0.110459 -1.203079,0.386604 -0.293635,0.22736 -0.419742,0.506269 -0.304681,0.87354 0.01841,0.05983 0.02393,0.123345 0.03774,0.185021 0.156481,0.654463 0.66091,1.084332 1.273034,1.088935 0.312045,0 0.555053,-0.08101 0.802665,-0.269703 v -0.0019 c 0.394888,-0.301002 0.5706992,-0.833964 0.436308,-1.329186 z"/>
<path fill="#FFFFFF" d="m 12.854521,6.360575 h 3.332296 v 1.0323275 h -2.394874 l -0.179547,1.3359286 c 0,0 0.746927,-0.034212 1.531624,0.3766795 0.605561,0.3169448 1.291383,1.0070104 1.274278,1.9740604 -0.03709,2.092504 -1.769608,2.535076 -2.407806,2.535076 -0.703067,0 -1.440414,-0.260014 -2.233939,-1.039306 l 0.702246,-0.737348 c 0,0 0.622668,0.751374 1.531693,0.751374 0.93489,0 1.349544,-0.829172 1.371988,-1.306164 0.04215,-0.89534 -0.735567,-1.4676463 -1.432544,-1.5483877 -0.655717,-0.075952 -1.278794,-0.039619 -1.531556,0.079784 z"/>
</svg>