<?xml version="1.0" encoding="UTF-8"?>
<svg xmlns="http://www.w3.org/2000/svg" xmlns:xlink="http://www.w3.org/1999/xlink" width="20" height="20" viewBox="0 0 20 20">
<circle fill="#E31837" cx="10" cy="10" r="10"/>
<circle fill="#231F20" cx="10" cy="10" r="8.2"/>
<path fill="#FFFFFF" d="m 4.345,6.6543688 0.920625,0.8803237 c 0,0 0.693373,-1.1474456 1.721212,-1.1474456 1.0278388,0 1.3742648,0.9206259 1.3742648,1.3475703 0,0.4269448 0.06665,0.7605438 -1.4410018,2.0347028 -1.507653,1.27416 -2.5751,2.341868 -2.5751,4.530066 h 5.0033788 v -1.227531 h -3.4089678 c 0,0 0.057723,-0.891157 1.694517,-2.22148 1.5677158,-1.274072 2.0080078,-1.93685 2.0080078,-3.1910754 0,-1.254225 -1.129678,-2.5594996 -2.6617718,-2.5594996 -1.572224,0 -2.635164,1.5543688 -2.635164,1.5543688 z"/>
<path fill="#FFFFFF" d="m 11.452924,5.2400614 h 4.220908 v 1.3076147 h -3.033507 l -0.227426,1.6921763 c 0,0 0.946107,-0.043335 1.940057,0.4771274 0.767044,0.4014632 1.635753,1.2755468 1.614086,2.5004762 -0.04698,2.650505 -2.241502,3.211097 -3.049888,3.211097 -0.890551,0 -1.824524,-0.329352 -2.829655,-1.316455 l 0.889511,-0.933974 c 0,0 0.788712,0.951741 1.940144,0.951741 1.184194,0 1.709424,-1.050286 1.737852,-1.654474 0.05339,-1.134098 -0.931719,-1.8590197 -1.814556,-1.961292 -0.830575,-0.096205 -1.619806,-0.050183 -1.939971,0.1010595 z"/>
</svg>