<?xml version="1.0" encoding="UTF-8"?>
<svg xmlns="http://www.w3.org/2000/svg" xmlns:xlink="http://www.w3.org/1999/xlink" width="20" height="20" viewBox="0 0 20 20">
<circle fill="#E31837" cx="10" cy="10" r="10"/>
<circle fill="#FFFFFF" cx="10" cy="10" r="8.2"/>
<path fill="#231F20" d="m 7.3664248,11.547328 c 0.177225,-0.260007 0.31947,-0.541002 0.492029,-0.830155 -0.406914,0.07462 -0.761365,0.1574 -1.119311,0.197044 -1.310525,0.145744 -2.410019,-0.712394 -2.835587,-1.750088 -0.645939,-1.5693677 0.108433,-3.2984708 1.712776,-3.8604622 1.276716,-0.4453886 2.70034,-0.032645 3.445382,1.2533961 0.567817,0.9793974 0.650602,2.0369172 0.459385,3.1259111 -0.349785,1.976285 -1.830542,3.979386 -3.635431,4.91681 -0.236686,-0.336958 -0.478039,-0.680912 -0.738046,-1.048187 l -0.0023,-0.0012 c 0.91294,-0.511852 1.650986,-1.16828 2.221134,-2.003101 z m -2.343557,-3.0967608 c 0.172559,0.6377743 0.690241,1.1204755 1.319853,1.1822708 0.57248,0.057134 1.073839,-0.1399139 1.523895,-0.4896982 0.371937,-0.2879891 0.531672,-0.6412733 0.385928,-1.1064843 -0.02332,-0.075787 -0.03031,-0.1562363 -0.0478,-0.2343586 -0.19821,-0.8289866 -0.837148,-1.3734877 -1.612505,-1.3793178 -0.395258,0 -0.703068,0.1026059 -1.016709,0.3416231 v 0.00233 c -0.500191,0.3812669 -0.722891,1.0563528 -0.552658,1.6836339 z"/>
<path fill="#231F20" d="m 11.452924,5.2400614 h 4.220908 v 1.3076147 h -3.033507 l -0.227426,1.6921763 c 0,0 0.946107,-0.043335 1.940057,0.4771274 0.767044,0.4014632 1.635753,1.2755468 1.614086,2.5004762 -0.04698,2.650505 -2.241502,3.211097 -3.049888,3.211097 -0.890551,0 -1.824524,-0.329352 -2.829655,-1.316455 l 0.889511,-0.933974 c 0,0 0.788712,0.951741 1.940144,0.951741 1.184194,0 1.709424,-1.050286 1.737852,-1.654474 0.05339,-1.134098 -0.931719,-1.8590197 -1.814556,-1.961292 -0.830575,-0.096205 -1.619806,-0.050183 -1.939971,0.1010595 z"/>
</svg>