<?xml version="1.0" encoding="UTF-8"?>
<svg xmlns="http://www.w3.org/2000/svg" xmlns:xlink="http://www.w3.org/1999/xlink" width="20" height="20" viewBox="0 0 20 20">
<circle fill="#E31837" cx="10" cy="10" r="10"/>
<circle fill="#231F20" cx="10" cy="10" r="8.2"/>
<path fill="#FFFFFF" d="m 5.1339873,6.3605748 h 1.000647 v 7.1521882 h -1.000647 z"/>
<path fill="#FFFFFF" d="m 8.2,6.3605748 h 1.000647 v 7.1521882 h -1.000647 z"/>
<path fill="#FFFFFF" d="m 11.554521,6.360575 h 3.332296 v 1.0323275 h -2.394874 l -0.179547,1.3359286 c 0,0 0.746927,-0.034212 1.531624,0.3766795 0.605561,0.3169448 1.291383,1.0070104 1.274278,1.9740604 -0.03709,2.092504 -1.769608,2.535076 -2.407806,2.535076 -0.703067,0 -1.440414,-0.260014 -2.233939,-1.039306 l 0.702246,-0.737348 c 0,0 0.622668,0.751374 1.531693,0.751374 0.93489,0 1.349544,-0.829172 1.371988,-1.306164 0.04215,-0.89534 -0.735567,-1.4676463 -1.432544,-1.5483877 -0.655717,-0.075952 -1.278794,-0.039619 -1.531556,0.079784 z"/>
</svg>