<?xml version="1.0" encoding="UTF-8"?>
<svg xmlns="http://www.w3.org/2000/svg" xmlns:xlink="http://www.w3.org/1999/xlink" width="20" height="20" viewBox="0 0 20 20">
<circle fill="#E31837" cx="10" cy="10" r="10"/>
<circle fill="#231F20" cx="10" cy="10" r="8.2"/>
<path fill="#FFFFFF" d="m 2.9611748,7.4771336 0.726809,0.6949923 c 0,0 0.5474,-0.9058781 1.358852,-0.9058781 0.811451,0 1.084945,0.7268099 1.084945,1.0638713 0,0.3370614 0.05262,0.6004294 -1.137632,1.6063446 -1.190252,1.0059163 -2.032974,1.8488423 -2.032974,3.5763673 h 3.950036 v -0.969103 h -2.69129 c 0,0 0.04557,-0.703545 1.337777,-1.7538 1.237669,-1.0058467 1.585269,-1.5290926 1.585269,-2.5192701 0,-0.9901777 -0.891851,-2.0206577 -2.1014,-2.0206577 -1.241229,0 -2.080392,1.2271334 -2.080392,1.2271334 z"/>
<path fill="#FFFFFF" d="m 12.327355,10.115627 c -0.01242,0.743967 -0.06757,1.478611 -0.358005,2.176761 -0.233752,0.563022 -0.57933,1.034408 -1.160215,1.273593 -0.262485,0.109501 -0.559916,0.171625 -0.8627836,0.173955 -0.302866,-0.0016 -0.600299,-0.06368 -0.862783,-0.173955 -0.580883,-0.239185 -0.926463,-0.709796 -1.160213,-1.273593 -0.2904411,-0.69815 -0.3455811,-1.432794 -0.3580051,-2.176761 0.01398,-0.7424144 0.06368,-1.4770622 0.3541221,-2.175209 0.311409,-0.7563906 0.813082,-1.3000008 1.658002,-1.4242527 0.124256,-0.01786 0.24773,-0.027956 0.368102,-0.030288 0.1203686,0.00156 0.2446246,0.012428 0.3680976,0.030288 0.844924,0.1242519 1.345819,0.6678621 1.658006,1.4242527 0.291217,0.6981468 0.340921,1.4335724 0.355675,2.175209 z m -1.081003,-1.1314819 c -0.05825,-0.3774198 -0.161528,-0.7400835 -0.395281,-1.0522709 -0.225208,-0.3013135 -0.563022,-0.4535226 -0.9047196,-0.4535226 -0.341694,0 -0.680286,0.1522091 -0.904717,0.4535226 -0.233752,0.3114097 -0.336262,0.6748511 -0.395282,1.0522709 -0.13823,0.8682197 -0.143667,1.7356629 0.07611,2.5945639 0.0497,0.193367 0.125808,0.385961 0.221326,0.561466 0.222881,0.396837 0.559918,0.607291 1.002568,0.604183 0.4426526,0.0031 0.7796896,-0.207346 1.0025686,-0.604183 0.09552,-0.175505 0.171623,-0.368099 0.221328,-0.561466 0.219772,-0.858901 0.214336,-1.7271226 0.07611,-2.5945639 z"/>
<path fill="#FFFFFF" d="m 17.565508,10.115627 c -0.01242,0.743967 -0.06757,1.478611 -0.358005,2.176761 -0.233752,0.563022 -0.57933,1.034408 -1.160215,1.273593 -0.262485,0.109501 -0.559916,0.171625 -0.862784,0.173955 -0.302866,-0.0016 -0.600299,-0.06368 -0.862783,-0.173955 -0.580883,-0.239185 -0.926463,-0.709796 -1.160213,-1.273593 -0.290441,-0.69815 -0.345581,-1.432794 -0.358005,-2.176761 0.01398,-0.7424144 0.06368,-1.4770622 0.354122,-2.175209 0.311409,-0.7563906 0.813082,-1.3000008 1.658002,-1.4242527 0.124256,-0.01786 0.24773,-0.027956 0.368102,-0.030288 0.120369,0.00156 0.244625,0.012428 0.368098,0.030288 0.844924,0.1242519 1.345819,0.6678621 1.658006,1.4242527 0.291217,0.6981468 0.340921,1.4335724 0.355675,2.175209 z m -1.081003,-1.1314819 c -0.05825,-0.3774198 -0.161528,-0.7400835 -0.395281,-1.0522709 -0.225208,-0.3013135 -0.563022,-0.4535226 -0.90472,-0.4535226 -0.341694,0 -0.680286,0.1522091 -0.904717,0.4535226 -0.233752,0.3114097 -0.336262,0.6748511 -0.395282,1.0522709 -0.13823,0.8682197 -0.143667,1.7356629 0.07611,2.5945639 0.0497,0.193367 0.125808,0.385961 0.221326,0.561466 0.222881,0.396837 0.559918,0.607291 1.002568,0.604183 0.442653,0.0031 0.77969,-0.207346 1.002569,-0.604183 0.09552,-0.175505 0.171623,-0.368099 0.221328,-0.561466 0.219772,-0.858901 0.214336,-1.7271226 0.07611,-2.5945639 z"/>
</svg>