<?xml version="1.0" encoding="UTF-8"?>
<svg xmlns="http://www.w3.org/2000/svg" xmlns:xlink="http://www.w3.org/1999/xlink" width="16" height="29.714286" viewBox="0 0 16 29.714286">
<path fill-rule="nonzero" fill="rgb(100%, 100%, 100%)" fill-opacity="1" d="M 0 29.714844 L 16 29.714844 L 16 0 L 0 0 Z M 0 29.714844 "/>
<path fill-rule="nonzero" fill="rgb(85.098039%, 18.823529%, 16.470588%)" fill-opacity="1" d="M 3.429688 7.085938 C 3.429688 9.609375 5.476562 11.65625 8 11.65625 C 10.523438 11.65625 12.570312 9.609375 12.570312 7.085938 C 12.570312 4.5625 10.523438 2.515625 8 2.515625 C 5.476562 2.515625 3.429688 4.5625 3.429688 7.085938 Z M 3.429688 7.085938 "/>
<path fill-rule="nonzero" fill="rgb(100%, 100%, 100%)" fill-opacity="1" d="M 0.230469 20.34375 L 0.230469 29.484375 L 15.769531 29.484375 L 15.769531 20.34375 Z M 0.230469 20.34375 "/>
<path fill-rule="nonzero" fill="rgb(100%, 100%, 100%)" fill-opacity="1" d="M 0.230469 0.230469 L 15.769531 0.230469 L 15.769531 20.113281 L 0.230469 20.113281 Z M 11.785156 18.578125 L 11.785156 17.046875 L 11.804688 17.066406 L 11.824219 17.089844 L 11.84375 17.109375 L 11.851562 17.121094 L 11.863281 17.128906 L 11.871094 17.140625 L 11.882812 17.148438 L 11.890625 17.160156 L 11.902344 17.167969 L 11.910156 17.179688 L 11.933594 17.195312 L 11.953125 17.214844 L 12.082031 17.300781 L 12.132812 17.328125 L 12.164062 17.34375 L 12.175781 17.347656 L 12.207031 17.363281 L 12.21875 17.367188 L 12.234375 17.375 L 12.25 17.378906 L 12.261719 17.382812 L 12.277344 17.390625 L 12.292969 17.394531 L 12.304688 17.398438 L 12.320312 17.402344 L 12.335938 17.410156 L 12.347656 17.414062 L 12.363281 17.414062 L 12.410156 17.425781 L 12.425781 17.425781 L 12.441406 17.429688 L 12.457031 17.429688 L 12.472656 17.433594 L 12.488281 17.433594 L 12.5 17.4375 L 12.546875 17.4375 L 12.578125 17.441406 L 12.632812 17.441406 L 12.660156 17.4375 L 12.679688 17.4375 L 12.703125 17.433594 L 12.726562 17.433594 L 12.75 17.429688 L 12.773438 17.429688 L 12.820312 17.421875 L 12.839844 17.417969 L 12.886719 17.410156 L 12.90625 17.40625 L 12.929688 17.402344 L 12.941406 17.398438 L 12.949219 17.394531 L 12.960938 17.390625 L 12.972656 17.390625 L 12.996094 17.382812 L 13.015625 17.375 L 13.039062 17.367188 L 13.078125 17.351562 L 13.101562 17.339844 L 13.121094 17.332031 L 13.140625 17.320312 L 13.164062 17.3125 L 13.183594 17.300781 L 13.203125 17.292969 L 13.222656 17.28125 L 13.265625 17.257812 L 13.304688 17.238281 L 13.328125 17.222656 L 13.484375 17.097656 L 13.5 17.082031 L 13.519531 17.066406 L 13.578125 17.007812 L 13.585938 16.996094 L 13.601562 16.980469 L 13.609375 16.96875 L 13.617188 16.960938 L 13.625 16.949219 L 13.632812 16.941406 L 13.640625 16.929688 L 13.648438 16.921875 L 13.660156 16.902344 L 13.675781 16.882812 L 13.6875 16.859375 L 13.703125 16.839844 L 13.714844 16.820312 L 13.726562 16.796875 L 13.738281 16.777344 L 13.761719 16.730469 L 13.808594 16.644531 L 13.820312 16.617188 L 13.828125 16.589844 L 13.839844 16.5625 L 13.847656 16.535156 L 13.859375 16.507812 L 13.867188 16.484375 L 13.878906 16.457031 L 13.886719 16.429688 L 13.894531 16.40625 L 13.917969 16.324219 L 13.925781 16.300781 L 13.929688 16.273438 L 13.9375 16.246094 L 13.9375 16.234375 L 13.941406 16.21875 L 13.945312 16.191406 L 13.953125 16.164062 L 13.960938 16.109375 L 13.960938 16.082031 L 13.972656 16 L 13.972656 15.972656 L 13.976562 15.941406 L 13.976562 15.886719 L 13.980469 15.832031 L 13.984375 15.773438 L 13.980469 15.722656 L 13.976562 15.667969 L 13.976562 15.613281 L 13.972656 15.589844 L 13.972656 15.5625 L 13.96875 15.535156 L 13.96875 15.507812 L 13.964844 15.484375 L 13.957031 15.429688 L 13.953125 15.40625 L 13.945312 15.351562 L 13.941406 15.328125 L 13.933594 15.300781 L 13.929688 15.277344 L 13.921875 15.25 L 13.914062 15.226562 L 13.910156 15.199219 L 13.902344 15.175781 L 13.894531 15.148438 L 13.878906 15.101562 L 13.871094 15.074219 L 13.859375 15.050781 L 13.851562 15.023438 L 13.84375 15 L 13.835938 14.972656 L 13.824219 14.945312 L 13.785156 14.859375 L 13.773438 14.839844 L 13.761719 14.816406 L 13.738281 14.777344 L 13.726562 14.753906 L 13.679688 14.675781 L 13.664062 14.65625 L 13.65625 14.648438 L 13.652344 14.636719 L 13.644531 14.628906 L 13.636719 14.617188 L 13.613281 14.59375 L 13.605469 14.582031 L 13.574219 14.550781 L 13.558594 14.53125 L 13.527344 14.5 L 13.507812 14.484375 L 13.492188 14.46875 L 13.453125 14.4375 L 13.4375 14.421875 L 13.417969 14.40625 L 13.398438 14.394531 L 13.359375 14.363281 L 13.339844 14.351562 L 13.316406 14.335938 L 13.296875 14.328125 L 13.277344 14.316406 L 13.253906 14.304688 L 13.214844 14.28125 L 13.191406 14.273438 L 13.171875 14.261719 L 13.148438 14.25 L 13.109375 14.234375 L 13.074219 14.222656 L 13.066406 14.21875 L 13.019531 14.203125 L 13.011719 14.199219 L 13 14.199219 L 12.976562 14.191406 L 12.882812 14.175781 L 12.863281 14.171875 L 12.839844 14.167969 L 12.816406 14.167969 L 12.792969 14.164062 L 12.769531 14.164062 L 12.746094 14.160156 L 12.695312 14.15625 L 12.582031 14.15625 L 12.546875 14.160156 L 12.511719 14.160156 L 12.496094 14.164062 L 12.480469 14.164062 L 12.460938 14.167969 L 12.445312 14.167969 L 12.429688 14.171875 L 12.410156 14.175781 L 12.394531 14.175781 L 12.347656 14.1875 L 12.332031 14.195312 L 12.285156 14.207031 L 12.269531 14.214844 L 12.253906 14.21875 L 12.238281 14.226562 L 12.222656 14.230469 L 12.175781 14.253906 L 12.160156 14.257812 L 12.140625 14.265625 L 12.125 14.273438 L 12.109375 14.285156 L 12.09375 14.292969 L 12.082031 14.304688 L 12.066406 14.3125 L 12.054688 14.320312 L 12.039062 14.332031 L 12.027344 14.339844 L 12.011719 14.351562 L 12 14.359375 L 11.984375 14.371094 L 11.972656 14.378906 L 11.960938 14.390625 L 11.949219 14.398438 L 11.9375 14.410156 L 11.921875 14.421875 L 11.851562 14.492188 L 11.84375 14.503906 L 11.820312 14.527344 L 11.808594 14.542969 L 11.800781 14.554688 L 11.777344 14.582031 L 11.757812 14.609375 L 11.738281 14.632812 L 11.738281 14.226562 L 11.25 14.226562 L 11.25 18.578125 Z M 7.121094 16.914062 L 7.0625 16.914062 L 7.050781 16.910156 L 7.039062 16.910156 L 7.027344 16.90625 L 7.015625 16.90625 L 7.003906 16.902344 L 6.996094 16.898438 L 6.960938 16.886719 L 6.957031 16.882812 L 6.953125 16.882812 L 6.945312 16.878906 L 6.941406 16.875 L 6.925781 16.867188 L 6.917969 16.859375 L 6.902344 16.851562 L 6.898438 16.84375 L 6.890625 16.839844 L 6.886719 16.832031 L 6.875 16.820312 L 6.871094 16.8125 L 6.863281 16.804688 L 6.847656 16.773438 L 6.84375 16.761719 L 6.84375 16.753906 L 6.839844 16.746094 L 6.839844 16.738281 L 6.835938 16.726562 L 6.835938 16.71875 L 6.828125 16.6875 L 6.828125 16.671875 L 6.824219 16.660156 L 6.824219 16.632812 L 6.820312 16.625 L 6.820312 14.640625 L 7.355469 14.640625 L 7.355469 14.226562 L 6.820312 14.226562 L 6.820312 13.125 L 6.289062 13.445312 L 6.289062 14.226562 L 5.898438 14.226562 L 5.898438 14.640625 L 6.289062 14.640625 L 6.289062 16.679688 L 6.292969 16.699219 L 6.292969 16.742188 L 6.296875 16.761719 L 6.296875 16.792969 L 6.300781 16.800781 L 6.300781 16.820312 L 6.304688 16.839844 L 6.308594 16.855469 L 6.308594 16.875 L 6.3125 16.894531 L 6.316406 16.910156 L 6.320312 16.929688 L 6.324219 16.945312 L 6.328125 16.964844 L 6.332031 16.980469 L 6.339844 17.019531 L 6.34375 17.027344 L 6.34375 17.039062 L 6.347656 17.050781 L 6.347656 17.058594 L 6.351562 17.070312 L 6.355469 17.078125 L 6.359375 17.089844 L 6.363281 17.097656 L 6.375 17.117188 L 6.382812 17.125 L 6.386719 17.136719 L 6.390625 17.144531 L 6.398438 17.152344 L 6.402344 17.164062 L 6.410156 17.171875 L 6.414062 17.179688 L 6.421875 17.1875 L 6.425781 17.195312 L 6.441406 17.210938 L 6.445312 17.21875 L 6.46875 17.242188 L 6.476562 17.246094 L 6.492188 17.261719 L 6.5 17.265625 L 6.507812 17.273438 L 6.527344 17.285156 L 6.542969 17.296875 L 6.5625 17.308594 L 6.578125 17.320312 L 6.59375 17.328125 L 6.609375 17.332031 L 6.621094 17.339844 L 6.636719 17.34375 L 6.648438 17.351562 L 6.664062 17.355469 L 6.675781 17.359375 L 6.691406 17.363281 L 6.703125 17.371094 L 6.726562 17.378906 L 6.742188 17.382812 L 6.753906 17.386719 L 6.769531 17.390625 L 6.78125 17.390625 L 6.796875 17.394531 L 6.808594 17.398438 L 6.824219 17.398438 L 6.839844 17.402344 L 6.851562 17.402344 L 6.867188 17.40625 L 6.898438 17.40625 L 6.910156 17.410156 L 6.96875 17.410156 L 7 17.414062 L 7.042969 17.414062 L 7.058594 17.410156 L 7.109375 17.410156 L 7.132812 17.40625 L 7.183594 17.40625 L 7.207031 17.402344 L 7.21875 17.402344 L 7.230469 17.398438 L 7.257812 17.394531 L 7.28125 17.394531 L 7.308594 17.386719 L 7.332031 17.382812 L 7.359375 17.378906 L 7.382812 17.375 L 7.433594 17.367188 L 7.355469 16.894531 L 7.328125 16.898438 L 7.265625 16.90625 L 7.253906 16.90625 L 7.238281 16.910156 L 7.210938 16.910156 L 7.179688 16.914062 Z M 8.085938 17.019531 L 8.117188 17.042969 L 8.144531 17.070312 L 8.207031 17.117188 L 8.234375 17.140625 L 8.28125 17.175781 L 8.296875 17.183594 L 8.3125 17.195312 L 8.324219 17.207031 L 8.339844 17.21875 L 8.355469 17.226562 L 8.371094 17.238281 L 8.386719 17.246094 L 8.402344 17.257812 L 8.433594 17.273438 L 8.449219 17.285156 L 8.542969 17.332031 L 8.5625 17.339844 L 8.578125 17.34375 L 8.59375 17.351562 L 8.609375 17.355469 L 8.628906 17.363281 L 8.644531 17.367188 L 8.664062 17.375 L 8.695312 17.382812 L 8.714844 17.386719 L 8.730469 17.390625 L 8.75 17.394531 L 8.765625 17.398438 L 8.804688 17.40625 L 8.820312 17.410156 L 8.839844 17.410156 L 8.859375 17.414062 L 8.875 17.417969 L 8.894531 17.417969 L 8.914062 17.421875 L 8.929688 17.421875 L 8.96875 17.425781 L 9.003906 17.429688 L 9.042969 17.433594 L 9.078125 17.4375 L 9.152344 17.441406 L 9.203125 17.441406 L 9.253906 17.4375 L 9.277344 17.433594 L 9.304688 17.433594 L 9.328125 17.429688 L 9.351562 17.429688 L 9.378906 17.425781 L 9.472656 17.410156 L 9.5 17.40625 L 9.523438 17.402344 L 9.558594 17.390625 L 9.570312 17.390625 L 9.6875 17.351562 L 9.707031 17.339844 L 9.753906 17.324219 L 9.777344 17.3125 L 9.800781 17.304688 L 9.824219 17.292969 L 9.84375 17.28125 L 9.867188 17.269531 L 9.914062 17.25 L 9.953125 17.222656 L 9.996094 17.195312 L 10.015625 17.183594 L 10.035156 17.167969 L 10.054688 17.15625 L 10.074219 17.140625 L 10.09375 17.128906 L 10.132812 17.097656 L 10.148438 17.082031 L 10.167969 17.066406 L 10.183594 17.050781 L 10.195312 17.042969 L 10.234375 17.003906 L 10.242188 16.992188 L 10.265625 16.96875 L 10.3125 16.910156 L 10.324219 16.890625 L 10.339844 16.871094 L 10.351562 16.851562 L 10.367188 16.832031 L 10.390625 16.792969 L 10.417969 16.75 L 10.445312 16.710938 L 10.449219 16.695312 L 10.457031 16.679688 L 10.460938 16.664062 L 10.46875 16.648438 L 10.472656 16.632812 L 10.480469 16.617188 L 10.484375 16.601562 L 10.492188 16.585938 L 10.5 16.558594 L 10.511719 16.527344 L 10.523438 16.5 L 10.53125 16.472656 L 10.542969 16.441406 L 10.566406 16.359375 L 10.578125 16.3125 L 10.578125 16.300781 L 10.589844 16.253906 L 10.589844 16.242188 L 10.597656 16.210938 L 10.601562 16.179688 L 10.605469 16.152344 L 10.613281 16.089844 L 10.613281 16.058594 L 10.617188 16.03125 L 10.617188 16 L 10.621094 15.96875 L 10.621094 15.90625 L 10.625 15.875 L 10.625 15.753906 L 10.621094 15.671875 L 10.621094 15.632812 L 10.613281 15.554688 L 10.609375 15.511719 L 10.605469 15.472656 L 10.605469 15.453125 L 10.601562 15.433594 L 10.601562 15.414062 L 10.589844 15.355469 L 10.589844 15.335938 L 10.574219 15.257812 L 10.570312 15.242188 L 10.566406 15.222656 L 10.558594 15.203125 L 10.550781 15.164062 L 10.542969 15.148438 L 10.539062 15.128906 L 10.53125 15.109375 L 10.527344 15.09375 L 10.511719 15.054688 L 10.503906 15.039062 L 10.496094 15.019531 L 10.480469 14.988281 L 10.472656 14.96875 L 10.460938 14.953125 L 10.453125 14.933594 L 10.445312 14.917969 L 10.433594 14.902344 L 10.425781 14.882812 L 10.402344 14.851562 L 10.394531 14.835938 L 10.382812 14.816406 L 10.359375 14.785156 L 10.347656 14.765625 L 10.339844 14.75 L 10.316406 14.71875 L 10.300781 14.699219 L 10.277344 14.667969 L 10.265625 14.648438 L 10.253906 14.632812 L 10.238281 14.613281 L 10.226562 14.597656 L 10.214844 14.578125 L 10.183594 14.554688 L 10.15625 14.53125 L 10.125 14.507812 L 10.09375 14.480469 L 10.066406 14.460938 L 10.035156 14.4375 L 10.023438 14.425781 L 9.992188 14.402344 L 9.976562 14.394531 L 9.945312 14.371094 L 9.933594 14.363281 L 9.917969 14.351562 L 9.902344 14.34375 L 9.886719 14.332031 L 9.839844 14.308594 L 9.824219 14.296875 L 9.777344 14.273438 L 9.757812 14.265625 L 9.742188 14.261719 L 9.710938 14.246094 L 9.695312 14.242188 L 9.675781 14.234375 L 9.644531 14.226562 L 9.625 14.21875 L 9.609375 14.214844 L 9.589844 14.210938 L 9.574219 14.207031 L 9.554688 14.203125 L 9.539062 14.199219 L 9.519531 14.195312 L 9.503906 14.191406 L 9.484375 14.191406 L 9.464844 14.1875 L 9.449219 14.183594 L 9.429688 14.179688 L 9.414062 14.179688 L 9.394531 14.175781 L 9.375 14.175781 L 9.339844 14.171875 L 9.300781 14.167969 L 9.265625 14.164062 L 9.226562 14.160156 L 9.152344 14.152344 L 9.085938 14.160156 L 9.050781 14.160156 L 9.019531 14.164062 L 8.949219 14.171875 L 8.917969 14.175781 L 8.882812 14.179688 L 8.867188 14.179688 L 8.835938 14.1875 L 8.816406 14.1875 L 8.738281 14.207031 L 8.71875 14.210938 L 8.640625 14.230469 L 8.625 14.238281 L 8.609375 14.242188 L 8.59375 14.25 L 8.582031 14.253906 L 8.550781 14.269531 L 8.535156 14.273438 L 8.519531 14.28125 L 8.507812 14.289062 L 8.460938 14.3125 L 8.449219 14.320312 L 8.417969 14.335938 L 8.40625 14.34375 L 8.390625 14.351562 L 8.378906 14.359375 L 8.363281 14.367188 L 8.308594 14.40625 L 8.277344 14.425781 L 8.222656 14.464844 L 8.191406 14.484375 L 8.164062 14.503906 L 8.117188 14.5625 L 8.101562 14.578125 L 8.070312 14.617188 L 8.058594 14.632812 L 8.027344 14.671875 L 8.015625 14.6875 L 8 14.707031 L 7.988281 14.726562 L 7.972656 14.742188 L 7.960938 14.761719 L 7.949219 14.777344 L 7.933594 14.796875 L 7.921875 14.816406 L 7.910156 14.832031 L 7.886719 14.871094 L 7.875 14.886719 L 7.867188 14.90625 L 7.855469 14.925781 L 7.84375 14.941406 L 7.835938 14.960938 L 7.824219 14.980469 L 7.769531 15.117188 L 7.761719 15.140625 L 7.757812 15.160156 L 7.75 15.179688 L 7.746094 15.203125 L 7.742188 15.222656 L 7.734375 15.242188 L 7.730469 15.265625 L 7.726562 15.285156 L 7.722656 15.308594 L 7.71875 15.328125 L 7.710938 15.375 L 7.707031 15.394531 L 7.707031 15.417969 L 7.703125 15.4375 L 7.699219 15.460938 L 7.699219 15.484375 L 7.695312 15.503906 L 7.695312 15.527344 L 7.691406 15.550781 L 7.691406 15.574219 L 7.6875 15.617188 L 7.683594 15.664062 L 7.683594 15.707031 L 7.679688 15.796875 L 7.683594 15.882812 L 7.683594 15.921875 L 7.6875 15.964844 L 7.6875 16.007812 L 7.691406 16.046875 L 7.695312 16.089844 L 7.699219 16.109375 L 7.699219 16.128906 L 7.703125 16.148438 L 7.703125 16.171875 L 7.710938 16.210938 L 7.710938 16.230469 L 7.726562 16.308594 L 7.730469 16.332031 L 7.738281 16.371094 L 7.746094 16.390625 L 7.75 16.40625 L 7.753906 16.425781 L 7.761719 16.445312 L 7.765625 16.464844 L 7.78125 16.503906 L 7.789062 16.519531 L 7.804688 16.558594 L 7.8125 16.574219 L 7.828125 16.613281 L 7.835938 16.628906 L 7.84375 16.648438 L 7.855469 16.664062 L 7.863281 16.683594 L 7.875 16.699219 L 7.882812 16.71875 L 7.90625 16.75 L 7.914062 16.769531 L 7.925781 16.785156 L 7.9375 16.804688 L 7.949219 16.820312 L 7.960938 16.839844 L 7.972656 16.855469 L 7.984375 16.875 L 7.996094 16.890625 L 8.007812 16.910156 L 8.019531 16.925781 L 8.035156 16.945312 L 8.046875 16.964844 L 8.058594 16.980469 L 8.074219 17 Z M 2.257812 16.757812 L 2.289062 16.796875 L 2.304688 16.820312 L 2.351562 16.878906 L 2.371094 16.898438 L 2.402344 16.9375 L 2.421875 16.957031 L 2.4375 16.976562 L 2.480469 17.019531 L 2.492188 17.027344 L 2.5 17.039062 L 2.511719 17.046875 L 2.519531 17.054688 L 2.53125 17.0625 L 2.539062 17.070312 L 2.550781 17.078125 L 2.558594 17.085938 L 2.570312 17.09375 L 2.578125 17.101562 L 2.601562 17.117188 L 2.609375 17.121094 L 2.632812 17.136719 L 2.652344 17.148438 L 2.675781 17.164062 L 2.699219 17.175781 L 2.71875 17.1875 L 2.742188 17.203125 L 2.882812 17.273438 L 2.898438 17.277344 L 2.914062 17.285156 L 2.945312 17.296875 L 2.976562 17.304688 L 3.007812 17.316406 L 3.039062 17.324219 L 3.070312 17.335938 L 3.097656 17.34375 L 3.128906 17.355469 L 3.160156 17.363281 L 3.1875 17.371094 L 3.25 17.386719 L 3.277344 17.390625 L 3.339844 17.40625 L 3.355469 17.40625 L 3.371094 17.410156 L 3.398438 17.414062 L 3.554688 17.433594 L 3.585938 17.433594 L 3.617188 17.4375 L 3.648438 17.4375 L 3.679688 17.441406 L 3.742188 17.441406 L 3.804688 17.445312 L 3.867188 17.445312 L 3.921875 17.441406 L 3.976562 17.441406 L 4.003906 17.4375 L 4.058594 17.4375 L 4.113281 17.429688 L 4.136719 17.429688 L 4.246094 17.414062 L 4.269531 17.410156 L 4.296875 17.40625 L 4.324219 17.398438 L 4.347656 17.394531 L 4.375 17.386719 L 4.398438 17.382812 L 4.425781 17.375 L 4.449219 17.367188 L 4.476562 17.359375 L 4.5 17.351562 L 4.527344 17.339844 L 4.550781 17.332031 L 4.578125 17.324219 L 4.601562 17.316406 L 4.628906 17.304688 L 4.652344 17.296875 L 4.707031 17.273438 L 4.746094 17.253906 L 4.789062 17.230469 L 4.8125 17.21875 L 4.890625 17.171875 L 4.914062 17.160156 L 4.933594 17.148438 L 4.953125 17.132812 L 4.96875 17.121094 L 4.988281 17.105469 L 5 17.097656 L 5.007812 17.09375 L 5.015625 17.085938 L 5.027344 17.078125 L 5.050781 17.054688 L 5.0625 17.046875 L 5.109375 17 L 5.125 16.980469 L 5.15625 16.949219 L 5.1875 16.910156 L 5.203125 16.894531 L 5.214844 16.875 L 5.277344 16.796875 L 5.296875 16.761719 L 5.320312 16.722656 L 5.328125 16.703125 L 5.339844 16.683594 L 5.347656 16.664062 L 5.359375 16.644531 L 5.367188 16.625 L 5.378906 16.605469 L 5.417969 16.507812 L 5.421875 16.496094 L 5.421875 16.484375 L 5.425781 16.476562 L 5.429688 16.464844 L 5.433594 16.445312 L 5.441406 16.425781 L 5.445312 16.402344 L 5.453125 16.363281 L 5.457031 16.339844 L 5.457031 16.320312 L 5.460938 16.296875 L 5.464844 16.277344 L 5.464844 16.253906 L 5.46875 16.234375 L 5.46875 16.210938 L 5.472656 16.1875 L 5.472656 16.105469 L 5.46875 16.0625 L 5.46875 16.042969 L 5.464844 16.023438 L 5.464844 16 L 5.460938 15.980469 L 5.460938 15.960938 L 5.449219 15.902344 L 5.445312 15.878906 L 5.4375 15.839844 L 5.429688 15.820312 L 5.429688 15.8125 L 5.425781 15.804688 L 5.417969 15.785156 L 5.414062 15.765625 L 5.398438 15.726562 L 5.390625 15.710938 L 5.382812 15.691406 L 5.371094 15.671875 L 5.363281 15.65625 L 5.355469 15.636719 L 5.34375 15.617188 L 5.335938 15.601562 L 5.324219 15.582031 L 5.316406 15.5625 L 5.304688 15.546875 L 5.292969 15.527344 L 5.261719 15.488281 L 5.246094 15.472656 L 5.230469 15.453125 L 5.21875 15.4375 L 5.203125 15.417969 L 5.078125 15.292969 L 5.058594 15.28125 L 5.042969 15.265625 L 5.023438 15.253906 L 5.007812 15.238281 L 4.96875 15.214844 L 4.953125 15.203125 L 4.875 15.15625 L 4.855469 15.148438 L 4.835938 15.136719 L 4.71875 15.078125 L 4.703125 15.074219 L 4.6875 15.066406 L 4.671875 15.0625 L 4.65625 15.054688 L 4.625 15.046875 L 4.613281 15.039062 L 4.582031 15.03125 L 4.554688 15.019531 L 4.527344 15.011719 L 4.5 15 L 4.472656 14.992188 L 4.445312 14.980469 L 4.363281 14.957031 L 4.347656 14.953125 L 4.335938 14.945312 L 4.242188 14.921875 L 4.214844 14.914062 L 4.183594 14.90625 L 4.152344 14.894531 L 4.121094 14.886719 L 4.085938 14.878906 L 4.023438 14.863281 L 3.960938 14.851562 L 3.898438 14.835938 L 3.773438 14.808594 L 3.714844 14.796875 L 3.652344 14.78125 L 3.625 14.777344 L 3.5625 14.761719 L 3.535156 14.753906 L 3.503906 14.746094 L 3.476562 14.738281 L 3.445312 14.730469 L 3.417969 14.722656 L 3.386719 14.714844 L 3.332031 14.699219 L 3.316406 14.691406 L 3.300781 14.6875 L 3.289062 14.683594 L 3.273438 14.679688 L 3.261719 14.671875 L 3.25 14.667969 L 3.234375 14.664062 L 3.222656 14.65625 L 3.199219 14.648438 L 3.175781 14.636719 L 3.148438 14.625 L 3.125 14.617188 L 3.078125 14.59375 L 3.054688 14.578125 L 3.03125 14.566406 L 3.019531 14.5625 L 2.996094 14.546875 L 2.984375 14.542969 L 2.972656 14.535156 L 2.957031 14.527344 L 2.933594 14.511719 L 2.917969 14.503906 L 2.90625 14.496094 L 2.867188 14.457031 L 2.851562 14.433594 L 2.84375 14.425781 L 2.835938 14.414062 L 2.816406 14.394531 L 2.8125 14.382812 L 2.789062 14.347656 L 2.785156 14.335938 L 2.777344 14.324219 L 2.765625 14.289062 L 2.761719 14.273438 L 2.753906 14.25 L 2.753906 14.234375 L 2.75 14.222656 L 2.746094 14.207031 L 2.746094 14.179688 L 2.742188 14.167969 L 2.738281 14.140625 L 2.738281 14.09375 L 2.742188 14.078125 L 2.746094 14.058594 L 2.746094 14.042969 L 2.75 14.027344 L 2.753906 14.007812 L 2.753906 13.992188 L 2.769531 13.929688 L 2.777344 13.914062 L 2.777344 13.90625 L 2.789062 13.882812 L 2.789062 13.875 L 2.792969 13.871094 L 2.8125 13.832031 L 2.816406 13.828125 L 2.820312 13.820312 L 2.828125 13.8125 L 2.832031 13.804688 L 2.835938 13.800781 L 2.847656 13.785156 L 2.855469 13.773438 L 2.878906 13.75 L 2.890625 13.734375 L 2.949219 13.675781 L 2.976562 13.652344 L 2.988281 13.644531 L 3 13.640625 L 3.023438 13.625 L 3.035156 13.621094 L 3.046875 13.613281 L 3.058594 13.609375 L 3.070312 13.601562 L 3.09375 13.589844 L 3.113281 13.578125 L 3.136719 13.566406 L 3.160156 13.558594 L 3.179688 13.546875 L 3.214844 13.535156 L 3.222656 13.53125 L 3.328125 13.496094 L 3.339844 13.496094 L 3.363281 13.488281 L 3.375 13.488281 L 3.386719 13.484375 L 3.398438 13.484375 L 3.410156 13.480469 L 3.433594 13.476562 L 3.460938 13.472656 L 3.484375 13.472656 L 3.507812 13.46875 L 3.535156 13.46875 L 3.558594 13.464844 L 3.632812 13.464844 L 3.683594 13.460938 L 3.785156 13.460938 L 3.835938 13.464844 L 3.863281 13.464844 L 3.886719 13.46875 L 3.9375 13.46875 L 3.960938 13.472656 L 3.988281 13.476562 L 4.011719 13.476562 L 4.035156 13.480469 L 4.046875 13.484375 L 4.058594 13.484375 L 4.082031 13.492188 L 4.097656 13.492188 L 4.121094 13.5 L 4.132812 13.5 L 4.191406 13.519531 L 4.199219 13.523438 L 4.257812 13.542969 L 4.265625 13.550781 L 4.289062 13.558594 L 4.3125 13.570312 L 4.332031 13.582031 L 4.378906 13.605469 L 4.398438 13.617188 L 4.421875 13.628906 L 4.457031 13.652344 L 4.46875 13.65625 L 4.492188 13.671875 L 4.507812 13.6875 L 4.523438 13.707031 L 4.539062 13.722656 L 4.554688 13.742188 L 4.585938 13.773438 L 4.601562 13.792969 L 4.613281 13.808594 L 4.628906 13.828125 L 4.640625 13.84375 L 4.648438 13.851562 L 4.652344 13.863281 L 4.660156 13.871094 L 4.664062 13.878906 L 4.671875 13.886719 L 4.675781 13.898438 L 4.683594 13.90625 L 4.6875 13.914062 L 4.691406 13.925781 L 4.695312 13.933594 L 4.703125 13.945312 L 4.707031 13.953125 L 4.710938 13.964844 L 4.714844 13.972656 L 4.71875 13.984375 L 4.722656 13.992188 L 4.726562 14.003906 L 4.730469 14.011719 L 4.738281 14.035156 L 4.742188 14.054688 L 4.75 14.074219 L 4.753906 14.097656 L 4.761719 14.117188 L 4.765625 14.140625 L 4.769531 14.160156 L 4.777344 14.207031 L 4.78125 14.226562 L 4.785156 14.25 L 4.792969 14.292969 L 5.34375 14.253906 L 5.335938 14.160156 L 5.332031 14.136719 L 5.328125 14.117188 L 5.328125 14.09375 L 5.320312 14.046875 L 5.316406 14.027344 L 5.308594 13.980469 L 5.300781 13.960938 L 5.296875 13.9375 L 5.292969 13.917969 L 5.28125 13.882812 L 5.277344 13.875 L 5.269531 13.851562 L 5.253906 13.8125 L 5.246094 13.789062 L 5.238281 13.769531 L 5.226562 13.75 L 5.21875 13.730469 L 5.207031 13.710938 L 5.195312 13.6875 L 5.1875 13.667969 L 5.140625 13.589844 L 5.132812 13.566406 L 5.117188 13.546875 L 5.101562 13.53125 L 5.070312 13.492188 L 5.058594 13.476562 L 5.027344 13.4375 L 4.996094 13.40625 L 4.980469 13.386719 L 4.910156 13.316406 L 4.898438 13.3125 L 4.875 13.289062 L 4.863281 13.28125 L 4.855469 13.273438 L 4.847656 13.269531 L 4.828125 13.253906 L 4.710938 13.183594 L 4.6875 13.171875 L 4.667969 13.164062 L 4.648438 13.152344 L 4.605469 13.128906 L 4.5625 13.109375 L 4.535156 13.101562 L 4.507812 13.089844 L 4.480469 13.082031 L 4.457031 13.074219 L 4.429688 13.066406 L 4.402344 13.054688 L 4.378906 13.046875 L 4.351562 13.039062 L 4.328125 13.03125 L 4.300781 13.027344 L 4.277344 13.019531 L 4.25 13.011719 L 4.226562 13.007812 L 4.199219 13 L 4.171875 12.996094 L 4.148438 12.988281 L 4.039062 12.972656 L 4.011719 12.972656 L 3.957031 12.964844 L 3.929688 12.964844 L 3.902344 12.960938 L 3.847656 12.960938 L 3.820312 12.957031 L 3.765625 12.957031 L 3.710938 12.953125 L 3.660156 12.957031 L 3.609375 12.957031 L 3.582031 12.960938 L 3.558594 12.960938 L 3.53125 12.964844 L 3.480469 12.964844 L 3.457031 12.96875 L 3.429688 12.972656 L 3.40625 12.972656 L 3.382812 12.976562 L 3.355469 12.980469 L 3.332031 12.984375 L 3.304688 12.988281 L 3.28125 12.992188 L 3.257812 13 L 3.230469 13.003906 L 3.207031 13.011719 L 3.183594 13.015625 L 3.113281 13.039062 L 3.085938 13.046875 L 3.0625 13.050781 L 3.039062 13.058594 L 3.015625 13.070312 L 2.988281 13.078125 L 2.941406 13.09375 L 2.914062 13.101562 L 2.835938 13.140625 L 2.816406 13.152344 L 2.792969 13.160156 L 2.753906 13.183594 L 2.738281 13.195312 L 2.71875 13.203125 L 2.660156 13.238281 L 2.644531 13.253906 L 2.632812 13.257812 L 2.625 13.265625 L 2.617188 13.269531 L 2.601562 13.285156 L 2.589844 13.292969 L 2.582031 13.296875 L 2.511719 13.367188 L 2.5 13.382812 L 2.46875 13.414062 L 2.457031 13.429688 L 2.441406 13.449219 L 2.425781 13.464844 L 2.414062 13.480469 L 2.382812 13.519531 L 2.371094 13.535156 L 2.351562 13.574219 L 2.328125 13.609375 L 2.320312 13.625 L 2.3125 13.644531 L 2.300781 13.664062 L 2.292969 13.679688 L 2.28125 13.699219 L 2.273438 13.71875 L 2.265625 13.734375 L 2.242188 13.792969 L 2.238281 13.8125 L 2.230469 13.832031 L 2.226562 13.847656 L 2.21875 13.867188 L 2.207031 13.925781 L 2.203125 13.949219 L 2.203125 13.96875 L 2.195312 14.007812 L 2.195312 14.027344 L 2.191406 14.046875 L 2.191406 14.070312 L 2.1875 14.089844 L 2.1875 14.109375 L 2.183594 14.152344 L 2.1875 14.1875 L 2.1875 14.222656 L 2.191406 14.242188 L 2.191406 14.277344 L 2.195312 14.292969 L 2.195312 14.3125 L 2.199219 14.328125 L 2.203125 14.347656 L 2.203125 14.363281 L 2.207031 14.382812 L 2.214844 14.414062 L 2.21875 14.433594 L 2.226562 14.449219 L 2.230469 14.464844 L 2.238281 14.484375 L 2.242188 14.5 L 2.257812 14.53125 L 2.261719 14.546875 L 2.277344 14.578125 L 2.285156 14.597656 L 2.300781 14.628906 L 2.320312 14.660156 L 2.335938 14.691406 L 2.347656 14.707031 L 2.359375 14.726562 L 2.375 14.742188 L 2.410156 14.789062 L 2.421875 14.800781 L 2.445312 14.832031 L 2.460938 14.84375 L 2.472656 14.859375 L 2.511719 14.898438 L 2.527344 14.910156 L 2.539062 14.925781 L 2.632812 14.996094 L 2.648438 15.003906 L 2.679688 15.027344 L 2.699219 15.035156 L 2.730469 15.058594 L 2.800781 15.097656 L 2.8125 15.101562 L 2.828125 15.109375 L 2.839844 15.113281 L 2.855469 15.121094 L 2.878906 15.128906 L 2.894531 15.136719 L 2.90625 15.140625 L 2.917969 15.148438 L 2.953125 15.160156 L 2.980469 15.171875 L 3.003906 15.179688 L 3.027344 15.191406 L 3.074219 15.207031 L 3.097656 15.21875 L 3.121094 15.226562 L 3.148438 15.234375 L 3.171875 15.242188 L 3.1875 15.246094 L 3.199219 15.25 L 3.226562 15.257812 L 3.253906 15.269531 L 3.335938 15.292969 L 3.363281 15.296875 L 3.472656 15.328125 L 3.527344 15.339844 L 3.636719 15.367188 L 3.738281 15.390625 L 3.792969 15.402344 L 3.84375 15.417969 L 3.996094 15.453125 L 4.03125 15.464844 L 4.046875 15.46875 L 4.070312 15.476562 L 4.082031 15.476562 L 4.117188 15.488281 L 4.136719 15.496094 L 4.160156 15.5 L 4.183594 15.507812 L 4.226562 15.519531 L 4.246094 15.527344 L 4.292969 15.542969 L 4.3125 15.546875 L 4.359375 15.5625 L 4.375 15.566406 L 4.410156 15.578125 L 4.464844 15.601562 L 4.496094 15.613281 L 4.507812 15.621094 L 4.523438 15.625 L 4.546875 15.640625 L 4.5625 15.644531 L 4.574219 15.652344 L 4.589844 15.660156 L 4.683594 15.722656 L 4.703125 15.742188 L 4.714844 15.75 L 4.726562 15.761719 L 4.738281 15.769531 L 4.746094 15.78125 L 4.757812 15.792969 L 4.769531 15.800781 L 4.78125 15.8125 L 4.789062 15.824219 L 4.800781 15.835938 L 4.816406 15.855469 L 4.828125 15.878906 L 4.835938 15.886719 L 4.839844 15.898438 L 4.847656 15.90625 L 4.851562 15.917969 L 4.859375 15.929688 L 4.863281 15.9375 L 4.871094 15.949219 L 4.878906 15.972656 L 4.882812 15.980469 L 4.902344 16.039062 L 4.902344 16.050781 L 4.910156 16.074219 L 4.910156 16.097656 L 4.914062 16.109375 L 4.914062 16.121094 L 4.917969 16.144531 L 4.917969 16.167969 L 4.921875 16.191406 L 4.917969 16.21875 L 4.917969 16.242188 L 4.914062 16.269531 L 4.914062 16.28125 L 4.910156 16.292969 L 4.910156 16.304688 L 4.90625 16.316406 L 4.90625 16.328125 L 4.894531 16.363281 L 4.894531 16.375 L 4.886719 16.398438 L 4.878906 16.410156 L 4.867188 16.445312 L 4.859375 16.457031 L 4.855469 16.46875 L 4.847656 16.476562 L 4.84375 16.488281 L 4.835938 16.5 L 4.824219 16.519531 L 4.8125 16.542969 L 4.796875 16.5625 L 4.785156 16.574219 L 4.777344 16.585938 L 4.765625 16.597656 L 4.757812 16.609375 L 4.746094 16.621094 L 4.738281 16.632812 L 4.726562 16.640625 L 4.675781 16.691406 L 4.640625 16.714844 L 4.628906 16.726562 L 4.582031 16.757812 L 4.570312 16.761719 L 4.554688 16.769531 L 4.53125 16.785156 L 4.515625 16.789062 L 4.503906 16.796875 L 4.421875 16.832031 L 4.402344 16.839844 L 4.386719 16.84375 L 4.367188 16.851562 L 4.347656 16.855469 L 4.332031 16.859375 L 4.3125 16.867188 L 4.296875 16.871094 L 4.277344 16.875 L 4.261719 16.882812 L 4.242188 16.886719 L 4.210938 16.894531 L 4.191406 16.898438 L 4.175781 16.902344 L 4.15625 16.90625 L 4.136719 16.90625 L 4.121094 16.910156 L 4.101562 16.914062 L 4.082031 16.914062 L 4.066406 16.917969 L 4.046875 16.917969 L 4.027344 16.921875 L 4.007812 16.921875 L 3.992188 16.925781 L 3.917969 16.925781 L 3.878906 16.929688 L 3.800781 16.929688 L 3.757812 16.925781 L 3.714844 16.925781 L 3.691406 16.921875 L 3.671875 16.921875 L 3.648438 16.917969 L 3.628906 16.917969 L 3.605469 16.914062 L 3.585938 16.914062 L 3.566406 16.910156 L 3.542969 16.90625 L 3.523438 16.902344 L 3.5 16.898438 L 3.421875 16.882812 L 3.398438 16.875 L 3.378906 16.871094 L 3.359375 16.863281 L 3.339844 16.859375 L 3.300781 16.84375 L 3.28125 16.839844 L 3.257812 16.832031 L 3.21875 16.816406 L 3.195312 16.808594 L 3.175781 16.800781 L 3.035156 16.730469 L 3.019531 16.71875 L 2.988281 16.703125 L 2.972656 16.691406 L 2.960938 16.683594 L 2.945312 16.671875 L 2.933594 16.664062 L 2.917969 16.652344 L 2.90625 16.640625 L 2.890625 16.628906 L 2.878906 16.621094 L 2.84375 16.585938 L 2.832031 16.570312 L 2.796875 16.535156 L 2.785156 16.519531 L 2.773438 16.507812 L 2.75 16.476562 L 2.738281 16.464844 L 2.730469 16.445312 L 2.71875 16.429688 L 2.640625 16.273438 L 2.636719 16.257812 L 2.628906 16.242188 L 2.625 16.226562 L 2.617188 16.207031 L 2.613281 16.191406 L 2.605469 16.175781 L 2.601562 16.15625 L 2.597656 16.140625 L 2.59375 16.121094 L 2.585938 16.089844 L 2.582031 16.070312 L 2.578125 16.054688 L 2.578125 16.035156 L 2.570312 16 L 2.566406 15.964844 L 2.558594 15.929688 L 2.015625 15.976562 L 2.023438 16.027344 L 2.027344 16.078125 L 2.03125 16.105469 L 2.03125 16.132812 L 2.035156 16.15625 L 2.039062 16.183594 L 2.042969 16.207031 L 2.046875 16.234375 L 2.050781 16.257812 L 2.054688 16.285156 L 2.066406 16.320312 L 2.066406 16.335938 L 2.089844 16.40625 L 2.09375 16.421875 L 2.105469 16.457031 L 2.117188 16.480469 L 2.125 16.503906 L 2.136719 16.527344 L 2.144531 16.550781 L 2.15625 16.570312 L 2.203125 16.664062 L 2.21875 16.6875 L 2.242188 16.734375 Z M 3.429688 7.085938 C 3.429688 9.609375 5.476562 11.65625 8 11.65625 C 10.523438 11.65625 12.570312 9.609375 12.570312 7.085938 C 12.570312 4.5625 10.523438 2.515625 8 2.515625 C 5.476562 2.515625 3.429688 4.5625 3.429688 7.085938 Z M 3.429688 7.085938 "/>
<path fill-rule="nonzero" fill="rgb(0%, 0%, 0%)" fill-opacity="1" d="M 2.015625 15.976562 L 2.023438 16.027344 L 2.027344 16.078125 L 2.03125 16.105469 L 2.03125 16.132812 L 2.035156 16.15625 L 2.039062 16.183594 L 2.042969 16.207031 L 2.046875 16.234375 L 2.050781 16.257812 L 2.054688 16.285156 L 2.066406 16.320312 L 2.066406 16.335938 L 2.09375 16.417969 L 2.097656 16.433594 L 2.105469 16.457031 L 2.117188 16.480469 L 2.125 16.503906 L 2.148438 16.550781 L 2.15625 16.574219 L 2.179688 16.621094 L 2.195312 16.640625 L 2.230469 16.710938 L 2.257812 16.757812 L 2.289062 16.796875 L 2.320312 16.839844 L 2.367188 16.898438 L 2.386719 16.917969 L 2.417969 16.957031 L 2.480469 17.019531 L 2.492188 17.027344 L 2.5 17.039062 L 2.511719 17.046875 L 2.519531 17.054688 L 2.53125 17.0625 L 2.539062 17.070312 L 2.550781 17.078125 L 2.558594 17.085938 L 2.570312 17.09375 L 2.578125 17.101562 L 2.601562 17.117188 L 2.609375 17.121094 L 2.632812 17.136719 L 2.652344 17.148438 L 2.675781 17.164062 L 2.699219 17.175781 L 2.71875 17.1875 L 2.742188 17.203125 L 2.882812 17.273438 L 3 17.3125 L 3.03125 17.324219 L 3.0625 17.332031 L 3.089844 17.34375 L 3.183594 17.367188 L 3.210938 17.375 L 3.320312 17.402344 L 3.335938 17.402344 L 3.367188 17.410156 L 3.554688 17.433594 L 3.585938 17.433594 L 3.617188 17.4375 L 3.679688 17.4375 L 3.710938 17.441406 L 3.742188 17.441406 L 3.804688 17.445312 L 3.867188 17.445312 L 3.921875 17.441406 L 3.976562 17.441406 L 4.003906 17.4375 L 4.058594 17.4375 L 4.113281 17.429688 L 4.136719 17.429688 L 4.246094 17.414062 L 4.269531 17.410156 L 4.296875 17.40625 L 4.324219 17.398438 L 4.347656 17.394531 L 4.402344 17.378906 L 4.425781 17.375 L 4.453125 17.367188 L 4.476562 17.359375 L 4.503906 17.347656 L 4.527344 17.339844 L 4.554688 17.332031 L 4.578125 17.324219 L 4.605469 17.3125 L 4.707031 17.273438 L 4.746094 17.253906 L 4.789062 17.230469 L 4.8125 17.21875 L 4.890625 17.171875 L 4.914062 17.160156 L 4.933594 17.148438 L 4.953125 17.132812 L 4.96875 17.121094 L 4.988281 17.105469 L 5 17.101562 L 5.015625 17.085938 L 5.027344 17.078125 L 5.050781 17.054688 L 5.0625 17.046875 L 5.109375 17 L 5.125 16.980469 L 5.140625 16.964844 L 5.15625 16.945312 L 5.171875 16.929688 L 5.203125 16.890625 L 5.21875 16.875 L 5.246094 16.835938 L 5.277344 16.796875 L 5.296875 16.761719 L 5.320312 16.722656 L 5.328125 16.703125 L 5.339844 16.683594 L 5.347656 16.664062 L 5.359375 16.644531 L 5.367188 16.625 L 5.378906 16.605469 L 5.417969 16.507812 L 5.421875 16.496094 L 5.421875 16.484375 L 5.425781 16.476562 L 5.429688 16.464844 L 5.433594 16.445312 L 5.441406 16.425781 L 5.445312 16.402344 L 5.449219 16.382812 L 5.453125 16.359375 L 5.457031 16.339844 L 5.457031 16.316406 L 5.460938 16.296875 L 5.464844 16.273438 L 5.464844 16.253906 L 5.46875 16.230469 L 5.472656 16.1875 L 5.472656 16.105469 L 5.46875 16.0625 L 5.46875 16.042969 L 5.464844 16.023438 L 5.464844 16 L 5.460938 15.980469 L 5.460938 15.960938 L 5.445312 15.882812 L 5.441406 15.859375 L 5.4375 15.839844 L 5.429688 15.820312 L 5.429688 15.8125 L 5.425781 15.804688 L 5.417969 15.785156 L 5.414062 15.765625 L 5.390625 15.707031 L 5.378906 15.691406 L 5.363281 15.652344 L 5.351562 15.636719 L 5.34375 15.617188 L 5.332031 15.597656 L 5.292969 15.527344 L 5.265625 15.492188 L 5.234375 15.457031 L 5.21875 15.441406 L 5.207031 15.421875 L 5.160156 15.375 L 5.144531 15.355469 L 5.113281 15.324219 L 5.097656 15.3125 L 5.078125 15.296875 L 5.054688 15.273438 L 5.042969 15.269531 L 5.027344 15.253906 L 5.007812 15.242188 L 4.992188 15.226562 L 4.894531 15.167969 L 4.875 15.160156 L 4.816406 15.125 L 4.773438 15.105469 L 4.734375 15.085938 L 4.675781 15.0625 L 4.617188 15.042969 L 4.558594 15.019531 L 4.527344 15.011719 L 4.5 15 L 4.46875 14.988281 L 4.4375 14.980469 L 4.410156 14.96875 L 4.347656 14.953125 L 4.320312 14.941406 L 4.257812 14.925781 L 4.230469 14.917969 L 4.136719 14.894531 L 4.109375 14.886719 L 4.015625 14.863281 L 3.957031 14.847656 L 3.894531 14.835938 L 3.773438 14.808594 L 3.714844 14.796875 L 3.660156 14.785156 L 3.601562 14.769531 L 3.574219 14.765625 L 3.546875 14.757812 L 3.515625 14.75 L 3.488281 14.742188 L 3.460938 14.738281 L 3.40625 14.722656 L 3.378906 14.710938 L 3.296875 14.6875 L 3.242188 14.664062 L 3.214844 14.65625 L 3.1875 14.644531 L 3.164062 14.632812 L 3.136719 14.621094 L 3.109375 14.605469 L 3.085938 14.59375 L 3.058594 14.582031 L 3.035156 14.566406 L 3.007812 14.554688 L 2.980469 14.539062 L 2.957031 14.527344 L 2.90625 14.496094 L 2.886719 14.476562 L 2.871094 14.457031 L 2.851562 14.4375 L 2.835938 14.414062 L 2.816406 14.394531 L 2.8125 14.382812 L 2.789062 14.347656 L 2.785156 14.335938 L 2.777344 14.324219 L 2.765625 14.289062 L 2.761719 14.273438 L 2.753906 14.25 L 2.753906 14.234375 L 2.75 14.222656 L 2.746094 14.207031 L 2.746094 14.179688 L 2.742188 14.167969 L 2.738281 14.140625 L 2.738281 14.113281 L 2.742188 14.078125 L 2.742188 14.0625 L 2.746094 14.042969 L 2.753906 14.011719 L 2.753906 13.996094 L 2.757812 13.976562 L 2.769531 13.929688 L 2.777344 13.914062 L 2.777344 13.90625 L 2.789062 13.882812 L 2.789062 13.875 L 2.792969 13.867188 L 2.796875 13.863281 L 2.8125 13.832031 L 2.816406 13.828125 L 2.820312 13.820312 L 2.828125 13.8125 L 2.835938 13.800781 L 2.847656 13.785156 L 2.855469 13.773438 L 2.878906 13.75 L 2.890625 13.734375 L 2.949219 13.675781 L 2.976562 13.652344 L 3.019531 13.628906 L 3.042969 13.617188 L 3.0625 13.605469 L 3.132812 13.570312 L 3.152344 13.558594 L 3.175781 13.550781 L 3.199219 13.539062 L 3.328125 13.496094 L 3.339844 13.496094 L 3.363281 13.488281 L 3.375 13.488281 L 3.386719 13.484375 L 3.398438 13.484375 L 3.410156 13.480469 L 3.433594 13.476562 L 3.460938 13.472656 L 3.484375 13.472656 L 3.507812 13.46875 L 3.535156 13.46875 L 3.558594 13.464844 L 3.632812 13.464844 L 3.683594 13.460938 L 3.785156 13.460938 L 3.835938 13.464844 L 3.863281 13.464844 L 3.886719 13.46875 L 3.9375 13.46875 L 3.960938 13.472656 L 3.988281 13.476562 L 4.011719 13.476562 L 4.035156 13.480469 L 4.050781 13.484375 L 4.0625 13.484375 L 4.085938 13.492188 L 4.097656 13.492188 L 4.121094 13.5 L 4.132812 13.5 L 4.238281 13.535156 L 4.25 13.542969 L 4.273438 13.550781 L 4.292969 13.5625 L 4.363281 13.597656 L 4.382812 13.609375 L 4.40625 13.621094 L 4.425781 13.632812 L 4.449219 13.644531 L 4.492188 13.671875 L 4.523438 13.703125 L 4.539062 13.722656 L 4.570312 13.753906 L 4.582031 13.769531 L 4.597656 13.789062 L 4.613281 13.804688 L 4.625 13.824219 L 4.636719 13.839844 L 4.644531 13.847656 L 4.652344 13.859375 L 4.65625 13.867188 L 4.664062 13.875 L 4.667969 13.886719 L 4.675781 13.894531 L 4.679688 13.902344 L 4.683594 13.914062 L 4.691406 13.921875 L 4.695312 13.933594 L 4.699219 13.941406 L 4.707031 13.953125 L 4.710938 13.960938 L 4.714844 13.972656 L 4.71875 13.980469 L 4.722656 13.992188 L 4.726562 14 L 4.734375 14.023438 L 4.738281 14.03125 L 4.738281 14.042969 L 4.742188 14.054688 L 4.75 14.074219 L 4.753906 14.09375 L 4.761719 14.117188 L 4.765625 14.136719 L 4.773438 14.183594 L 4.777344 14.203125 L 4.785156 14.25 L 4.792969 14.292969 L 5.34375 14.253906 L 5.335938 14.160156 L 5.332031 14.136719 L 5.328125 14.117188 L 5.328125 14.09375 L 5.320312 14.046875 L 5.316406 14.027344 L 5.308594 13.980469 L 5.300781 13.960938 L 5.296875 13.9375 L 5.292969 13.917969 L 5.28125 13.882812 L 5.277344 13.875 L 5.269531 13.851562 L 5.253906 13.8125 L 5.246094 13.789062 L 5.238281 13.769531 L 5.226562 13.75 L 5.21875 13.730469 L 5.207031 13.707031 L 5.195312 13.6875 L 5.1875 13.667969 L 5.152344 13.609375 L 5.132812 13.566406 L 5.101562 13.53125 L 5.074219 13.496094 L 5.042969 13.457031 L 5.027344 13.441406 L 5.011719 13.421875 L 4.980469 13.390625 L 4.964844 13.371094 L 4.910156 13.316406 L 4.898438 13.308594 L 4.890625 13.304688 L 4.875 13.289062 L 4.863281 13.28125 L 4.855469 13.273438 L 4.847656 13.269531 L 4.828125 13.253906 L 4.730469 13.195312 L 4.707031 13.183594 L 4.6875 13.171875 L 4.667969 13.164062 L 4.648438 13.152344 L 4.605469 13.128906 L 4.5625 13.109375 L 4.511719 13.09375 L 4.460938 13.074219 L 4.433594 13.066406 L 4.410156 13.058594 L 4.355469 13.042969 L 4.332031 13.035156 L 4.25 13.011719 L 4.226562 13.007812 L 4.199219 13 L 4.171875 12.996094 L 4.144531 12.988281 L 4.117188 12.984375 L 4.09375 12.980469 L 4.039062 12.972656 L 4.011719 12.972656 L 3.957031 12.964844 L 3.929688 12.964844 L 3.902344 12.960938 L 3.847656 12.960938 L 3.820312 12.957031 L 3.765625 12.957031 L 3.710938 12.953125 L 3.660156 12.957031 L 3.609375 12.957031 L 3.585938 12.960938 L 3.558594 12.960938 L 3.53125 12.964844 L 3.480469 12.964844 L 3.457031 12.96875 L 3.429688 12.972656 L 3.40625 12.972656 L 3.382812 12.976562 L 3.355469 12.980469 L 3.332031 12.984375 L 3.304688 12.988281 L 3.28125 12.992188 L 3.257812 13 L 3.230469 13.003906 L 3.207031 13.011719 L 3.183594 13.015625 L 3.15625 13.023438 L 3.085938 13.046875 L 3.058594 13.054688 L 2.964844 13.085938 L 2.914062 13.101562 L 2.835938 13.140625 L 2.816406 13.152344 L 2.796875 13.160156 L 2.773438 13.171875 L 2.753906 13.183594 L 2.738281 13.195312 L 2.71875 13.203125 L 2.660156 13.238281 L 2.644531 13.25 L 2.636719 13.257812 L 2.625 13.265625 L 2.617188 13.269531 L 2.59375 13.292969 L 2.582031 13.296875 L 2.496094 13.382812 L 2.484375 13.398438 L 2.46875 13.414062 L 2.453125 13.433594 L 2.441406 13.449219 L 2.425781 13.46875 L 2.398438 13.5 L 2.371094 13.535156 L 2.351562 13.574219 L 2.328125 13.609375 L 2.320312 13.625 L 2.308594 13.644531 L 2.300781 13.664062 L 2.292969 13.679688 L 2.28125 13.699219 L 2.273438 13.71875 L 2.265625 13.734375 L 2.242188 13.792969 L 2.238281 13.8125 L 2.230469 13.832031 L 2.226562 13.847656 L 2.21875 13.867188 L 2.214844 13.886719 L 2.210938 13.910156 L 2.203125 13.949219 L 2.203125 13.96875 L 2.195312 14.007812 L 2.195312 14.027344 L 2.191406 14.050781 L 2.191406 14.070312 L 2.1875 14.109375 L 2.183594 14.152344 L 2.1875 14.1875 L 2.1875 14.222656 L 2.191406 14.242188 L 2.191406 14.277344 L 2.195312 14.292969 L 2.195312 14.3125 L 2.199219 14.328125 L 2.203125 14.347656 L 2.203125 14.363281 L 2.207031 14.382812 L 2.214844 14.414062 L 2.21875 14.433594 L 2.226562 14.449219 L 2.230469 14.464844 L 2.238281 14.484375 L 2.242188 14.5 L 2.257812 14.53125 L 2.261719 14.546875 L 2.269531 14.566406 L 2.300781 14.628906 L 2.320312 14.660156 L 2.335938 14.691406 L 2.40625 14.785156 L 2.421875 14.800781 L 2.433594 14.816406 L 2.445312 14.828125 L 2.457031 14.84375 L 2.539062 14.925781 L 2.632812 14.996094 L 2.648438 15.003906 L 2.664062 15.015625 L 2.683594 15.027344 L 2.699219 15.035156 L 2.730469 15.058594 L 2.800781 15.097656 L 2.851562 15.117188 L 2.902344 15.140625 L 2.953125 15.160156 L 2.976562 15.171875 L 3.003906 15.179688 L 3.027344 15.191406 L 3.054688 15.199219 L 3.082031 15.210938 L 3.105469 15.21875 L 3.132812 15.230469 L 3.160156 15.238281 L 3.183594 15.246094 L 3.238281 15.261719 L 3.261719 15.269531 L 3.371094 15.300781 L 3.421875 15.316406 L 3.53125 15.339844 L 3.636719 15.367188 L 3.734375 15.390625 L 3.785156 15.402344 L 3.832031 15.414062 L 3.882812 15.425781 L 3.929688 15.4375 L 3.980469 15.449219 L 4.027344 15.464844 L 4.074219 15.476562 L 4.125 15.492188 L 4.171875 15.503906 L 4.21875 15.519531 L 4.269531 15.535156 L 4.316406 15.546875 L 4.410156 15.578125 L 4.492188 15.613281 L 4.507812 15.621094 L 4.519531 15.625 L 4.535156 15.632812 L 4.546875 15.636719 L 4.558594 15.644531 L 4.574219 15.652344 L 4.597656 15.667969 L 4.613281 15.671875 L 4.636719 15.6875 L 4.648438 15.699219 L 4.683594 15.722656 L 4.695312 15.734375 L 4.707031 15.742188 L 4.738281 15.773438 L 4.761719 15.792969 L 4.78125 15.8125 L 4.800781 15.835938 L 4.816406 15.855469 L 4.828125 15.875 L 4.839844 15.898438 L 4.847656 15.90625 L 4.851562 15.917969 L 4.859375 15.929688 L 4.863281 15.9375 L 4.871094 15.949219 L 4.878906 15.972656 L 4.882812 15.980469 L 4.902344 16.039062 L 4.902344 16.050781 L 4.910156 16.074219 L 4.910156 16.097656 L 4.914062 16.109375 L 4.914062 16.121094 L 4.917969 16.144531 L 4.917969 16.167969 L 4.921875 16.191406 L 4.917969 16.21875 L 4.917969 16.242188 L 4.914062 16.265625 L 4.914062 16.28125 L 4.910156 16.292969 L 4.910156 16.304688 L 4.90625 16.316406 L 4.90625 16.328125 L 4.894531 16.363281 L 4.894531 16.375 L 4.886719 16.398438 L 4.878906 16.410156 L 4.867188 16.445312 L 4.859375 16.457031 L 4.855469 16.46875 L 4.847656 16.476562 L 4.84375 16.488281 L 4.835938 16.5 L 4.824219 16.519531 L 4.8125 16.542969 L 4.796875 16.5625 L 4.757812 16.609375 L 4.675781 16.691406 L 4.652344 16.707031 L 4.640625 16.71875 L 4.582031 16.757812 L 4.570312 16.761719 L 4.554688 16.769531 L 4.53125 16.785156 L 4.515625 16.789062 L 4.503906 16.796875 L 4.421875 16.832031 L 4.316406 16.867188 L 4.296875 16.871094 L 4.28125 16.875 L 4.261719 16.878906 L 4.246094 16.886719 L 4.226562 16.890625 L 4.210938 16.894531 L 4.171875 16.902344 L 4.15625 16.90625 L 4.136719 16.90625 L 4.117188 16.910156 L 4.101562 16.914062 L 4.082031 16.914062 L 4.0625 16.917969 L 4.046875 16.917969 L 4.027344 16.921875 L 4.007812 16.921875 L 3.992188 16.925781 L 3.917969 16.925781 L 3.878906 16.929688 L 3.800781 16.929688 L 3.757812 16.925781 L 3.714844 16.925781 L 3.691406 16.921875 L 3.671875 16.921875 L 3.648438 16.917969 L 3.628906 16.917969 L 3.605469 16.914062 L 3.585938 16.914062 L 3.566406 16.910156 L 3.542969 16.90625 L 3.503906 16.898438 L 3.480469 16.894531 L 3.441406 16.886719 L 3.417969 16.882812 L 3.398438 16.875 L 3.378906 16.871094 L 3.359375 16.863281 L 3.335938 16.855469 L 3.316406 16.851562 L 3.296875 16.84375 L 3.257812 16.832031 L 3.214844 16.816406 L 3.175781 16.800781 L 3.019531 16.722656 L 3.003906 16.710938 L 2.988281 16.703125 L 2.976562 16.695312 L 2.945312 16.671875 L 2.933594 16.664062 L 2.917969 16.652344 L 2.894531 16.628906 L 2.878906 16.617188 L 2.820312 16.558594 L 2.808594 16.542969 L 2.796875 16.53125 L 2.785156 16.515625 L 2.761719 16.492188 L 2.738281 16.464844 L 2.722656 16.433594 L 2.703125 16.402344 L 2.6875 16.371094 L 2.679688 16.351562 L 2.640625 16.273438 L 2.636719 16.257812 L 2.628906 16.242188 L 2.621094 16.222656 L 2.613281 16.191406 L 2.605469 16.171875 L 2.597656 16.140625 L 2.59375 16.121094 L 2.589844 16.105469 L 2.585938 16.085938 L 2.582031 16.070312 L 2.578125 16.050781 L 2.578125 16.035156 L 2.570312 16 L 2.566406 15.964844 L 2.558594 15.929688 Z M 2.015625 15.976562 "/>
<path fill-rule="nonzero" fill="rgb(0%, 0%, 0%)" fill-opacity="1" d="M 7.679688 15.796875 L 7.683594 15.707031 L 7.683594 15.660156 L 7.6875 15.617188 L 7.691406 15.570312 L 7.691406 15.546875 L 7.695312 15.527344 L 7.695312 15.503906 L 7.699219 15.480469 L 7.699219 15.457031 L 7.703125 15.4375 L 7.710938 15.390625 L 7.710938 15.371094 L 7.714844 15.347656 L 7.71875 15.328125 L 7.726562 15.28125 L 7.730469 15.261719 L 7.734375 15.238281 L 7.742188 15.21875 L 7.746094 15.199219 L 7.753906 15.175781 L 7.757812 15.15625 L 7.765625 15.136719 L 7.769531 15.113281 L 7.808594 15.015625 L 7.820312 14.996094 L 7.828125 14.976562 L 7.839844 14.957031 L 7.847656 14.9375 L 7.894531 14.859375 L 7.90625 14.84375 L 7.929688 14.804688 L 7.941406 14.789062 L 7.953125 14.769531 L 7.96875 14.75 L 7.980469 14.734375 L 7.996094 14.714844 L 8.007812 14.699219 L 8.023438 14.679688 L 8.035156 14.660156 L 8.050781 14.644531 L 8.105469 14.574219 L 8.164062 14.503906 L 8.246094 14.445312 L 8.277344 14.425781 L 8.304688 14.40625 L 8.332031 14.390625 L 8.359375 14.371094 L 8.390625 14.351562 L 8.402344 14.34375 L 8.433594 14.328125 L 8.445312 14.320312 L 8.492188 14.296875 L 8.503906 14.289062 L 8.535156 14.273438 L 8.550781 14.269531 L 8.582031 14.253906 L 8.59375 14.25 L 8.609375 14.242188 L 8.625 14.238281 L 8.640625 14.230469 L 8.703125 14.214844 L 8.722656 14.210938 L 8.816406 14.1875 L 8.835938 14.1875 L 8.867188 14.179688 L 8.882812 14.179688 L 8.917969 14.175781 L 8.949219 14.171875 L 9.019531 14.164062 L 9.050781 14.160156 L 9.085938 14.160156 L 9.152344 14.152344 L 9.230469 14.160156 L 9.265625 14.164062 L 9.304688 14.167969 L 9.375 14.175781 L 9.394531 14.175781 L 9.414062 14.179688 L 9.433594 14.179688 L 9.449219 14.183594 L 9.46875 14.1875 L 9.484375 14.191406 L 9.503906 14.191406 L 9.523438 14.195312 L 9.539062 14.199219 L 9.558594 14.203125 L 9.574219 14.207031 L 9.59375 14.210938 L 9.609375 14.214844 L 9.628906 14.222656 L 9.644531 14.226562 L 9.664062 14.230469 L 9.679688 14.238281 L 9.695312 14.242188 L 9.714844 14.25 L 9.730469 14.253906 L 9.777344 14.277344 L 9.796875 14.285156 L 9.859375 14.316406 L 9.875 14.328125 L 9.90625 14.34375 L 9.921875 14.355469 L 9.9375 14.363281 L 9.949219 14.375 L 9.964844 14.386719 L 9.980469 14.394531 L 10.011719 14.417969 L 10.023438 14.429688 L 10.039062 14.4375 L 10.070312 14.460938 L 10.097656 14.484375 L 10.128906 14.507812 L 10.15625 14.53125 L 10.214844 14.578125 L 10.261719 14.644531 L 10.285156 14.675781 L 10.308594 14.710938 L 10.332031 14.742188 L 10.355469 14.777344 L 10.378906 14.808594 L 10.386719 14.828125 L 10.410156 14.859375 L 10.417969 14.878906 L 10.441406 14.910156 L 10.449219 14.929688 L 10.457031 14.945312 L 10.46875 14.964844 L 10.484375 14.996094 L 10.5 15.035156 L 10.507812 15.050781 L 10.515625 15.070312 L 10.523438 15.085938 L 10.53125 15.105469 L 10.535156 15.125 L 10.542969 15.140625 L 10.546875 15.160156 L 10.554688 15.179688 L 10.5625 15.21875 L 10.570312 15.238281 L 10.574219 15.253906 L 10.589844 15.332031 L 10.589844 15.351562 L 10.601562 15.410156 L 10.601562 15.429688 L 10.605469 15.453125 L 10.605469 15.472656 L 10.609375 15.492188 L 10.609375 15.511719 L 10.617188 15.589844 L 10.621094 15.632812 L 10.621094 15.671875 L 10.625 15.753906 L 10.625 15.878906 L 10.621094 15.910156 L 10.621094 15.96875 L 10.617188 16 L 10.617188 16.03125 L 10.609375 16.09375 L 10.609375 16.121094 L 10.601562 16.183594 L 10.597656 16.199219 L 10.597656 16.214844 L 10.59375 16.226562 L 10.589844 16.242188 L 10.589844 16.257812 L 10.582031 16.289062 L 10.578125 16.300781 L 10.574219 16.316406 L 10.574219 16.332031 L 10.566406 16.363281 L 10.554688 16.390625 L 10.546875 16.421875 L 10.539062 16.449219 L 10.53125 16.480469 L 10.507812 16.535156 L 10.5 16.566406 L 10.488281 16.59375 L 10.476562 16.625 L 10.464844 16.652344 L 10.445312 16.710938 L 10.417969 16.75 L 10.394531 16.792969 L 10.378906 16.8125 L 10.367188 16.832031 L 10.351562 16.851562 L 10.339844 16.871094 L 10.324219 16.890625 L 10.3125 16.910156 L 10.265625 16.96875 L 10.242188 16.992188 L 10.234375 17.003906 L 10.195312 17.042969 L 10.183594 17.050781 L 10.167969 17.066406 L 10.148438 17.082031 L 10.132812 17.097656 L 10.09375 17.128906 L 10.074219 17.140625 L 10.054688 17.15625 L 10.035156 17.167969 L 10.015625 17.183594 L 9.996094 17.195312 L 9.953125 17.222656 L 9.914062 17.25 L 9.867188 17.269531 L 9.824219 17.292969 L 9.800781 17.300781 L 9.753906 17.324219 L 9.730469 17.332031 L 9.710938 17.339844 L 9.6875 17.351562 L 9.570312 17.390625 L 9.558594 17.390625 L 9.523438 17.402344 L 9.5 17.40625 L 9.472656 17.410156 L 9.378906 17.425781 L 9.351562 17.429688 L 9.328125 17.429688 L 9.304688 17.433594 L 9.277344 17.433594 L 9.253906 17.4375 L 9.203125 17.441406 L 9.152344 17.441406 L 9.078125 17.4375 L 9.042969 17.433594 L 8.964844 17.425781 L 8.929688 17.421875 L 8.910156 17.421875 L 8.890625 17.417969 L 8.875 17.417969 L 8.835938 17.410156 L 8.820312 17.40625 L 8.800781 17.40625 L 8.78125 17.402344 L 8.765625 17.398438 L 8.746094 17.394531 L 8.730469 17.390625 L 8.710938 17.386719 L 8.695312 17.382812 L 8.675781 17.378906 L 8.660156 17.371094 L 8.640625 17.367188 L 8.625 17.363281 L 8.609375 17.355469 L 8.589844 17.351562 L 8.558594 17.335938 L 8.539062 17.328125 L 8.523438 17.324219 L 8.476562 17.300781 L 8.460938 17.289062 L 8.429688 17.273438 L 8.414062 17.261719 L 8.398438 17.253906 L 8.382812 17.242188 L 8.367188 17.234375 L 8.351562 17.222656 L 8.335938 17.214844 L 8.304688 17.191406 L 8.292969 17.183594 L 8.230469 17.136719 L 8.203125 17.113281 L 8.171875 17.089844 L 8.144531 17.066406 L 8.085938 17.019531 L 8.039062 16.949219 L 8.011719 16.917969 L 7.964844 16.847656 L 7.953125 16.832031 L 7.945312 16.8125 L 7.933594 16.796875 L 7.921875 16.777344 L 7.910156 16.761719 L 7.898438 16.742188 L 7.890625 16.726562 L 7.878906 16.707031 L 7.867188 16.691406 L 7.859375 16.671875 L 7.847656 16.65625 L 7.832031 16.617188 L 7.820312 16.601562 L 7.804688 16.5625 L 7.796875 16.546875 L 7.78125 16.507812 L 7.777344 16.488281 L 7.761719 16.449219 L 7.757812 16.429688 L 7.75 16.414062 L 7.742188 16.375 L 7.734375 16.355469 L 7.730469 16.332031 L 7.714844 16.253906 L 7.714844 16.234375 L 7.710938 16.214844 L 7.707031 16.191406 L 7.703125 16.171875 L 7.703125 16.152344 L 7.699219 16.132812 L 7.699219 16.109375 L 7.695312 16.089844 L 7.695312 16.070312 L 7.691406 16.050781 L 7.6875 16.007812 L 7.6875 15.964844 L 7.683594 15.925781 L 7.683594 15.882812 Z M 8.226562 15.796875 L 8.226562 15.859375 L 8.230469 15.890625 L 8.230469 15.949219 L 8.234375 15.980469 L 8.234375 16.011719 L 8.238281 16.042969 L 8.242188 16.070312 L 8.246094 16.101562 L 8.246094 16.117188 L 8.25 16.132812 L 8.25 16.144531 L 8.253906 16.160156 L 8.253906 16.175781 L 8.257812 16.191406 L 8.261719 16.203125 L 8.261719 16.21875 L 8.265625 16.234375 L 8.269531 16.246094 L 8.277344 16.277344 L 8.28125 16.289062 L 8.289062 16.320312 L 8.292969 16.332031 L 8.300781 16.347656 L 8.304688 16.359375 L 8.308594 16.375 L 8.316406 16.386719 L 8.320312 16.402344 L 8.328125 16.414062 L 8.332031 16.429688 L 8.339844 16.441406 L 8.347656 16.457031 L 8.351562 16.46875 L 8.359375 16.480469 L 8.367188 16.496094 L 8.378906 16.523438 L 8.394531 16.546875 L 8.425781 16.601562 L 8.441406 16.625 L 8.457031 16.652344 L 8.492188 16.703125 L 8.527344 16.734375 L 8.542969 16.753906 L 8.5625 16.769531 L 8.578125 16.785156 L 8.597656 16.800781 L 8.613281 16.816406 L 8.632812 16.832031 L 8.652344 16.84375 L 8.667969 16.859375 L 8.679688 16.867188 L 8.6875 16.871094 L 8.699219 16.878906 L 8.707031 16.886719 L 8.71875 16.890625 L 8.726562 16.898438 L 8.738281 16.902344 L 8.746094 16.910156 L 8.757812 16.914062 L 8.765625 16.917969 L 8.777344 16.925781 L 8.789062 16.929688 L 8.796875 16.933594 L 8.832031 16.945312 L 8.839844 16.949219 L 8.886719 16.964844 L 8.894531 16.964844 L 8.917969 16.972656 L 8.929688 16.972656 L 8.941406 16.976562 L 9.035156 16.992188 L 9.058594 16.992188 L 9.105469 17 L 9.152344 17.003906 L 9.203125 17 L 9.25 16.992188 L 9.273438 16.992188 L 9.367188 16.976562 L 9.375 16.972656 L 9.386719 16.972656 L 9.421875 16.960938 L 9.433594 16.960938 L 9.445312 16.957031 L 9.453125 16.953125 L 9.488281 16.941406 L 9.496094 16.9375 L 9.519531 16.929688 L 9.527344 16.921875 L 9.550781 16.914062 L 9.558594 16.90625 L 9.570312 16.902344 L 9.578125 16.894531 L 9.589844 16.890625 L 9.597656 16.882812 L 9.609375 16.878906 L 9.625 16.863281 L 9.636719 16.859375 L 9.644531 16.851562 L 9.65625 16.84375 L 9.671875 16.828125 L 9.691406 16.8125 L 9.707031 16.796875 L 9.746094 16.765625 L 9.761719 16.75 L 9.78125 16.734375 L 9.816406 16.703125 L 9.863281 16.621094 L 9.878906 16.597656 L 9.925781 16.515625 L 9.9375 16.488281 L 9.945312 16.476562 L 9.953125 16.460938 L 9.960938 16.449219 L 9.964844 16.433594 L 9.972656 16.421875 L 9.976562 16.40625 L 9.984375 16.394531 L 9.988281 16.378906 L 9.996094 16.367188 L 10 16.351562 L 10.007812 16.339844 L 10.015625 16.308594 L 10.019531 16.296875 L 10.027344 16.265625 L 10.03125 16.253906 L 10.042969 16.207031 L 10.046875 16.195312 L 10.046875 16.179688 L 10.054688 16.148438 L 10.054688 16.132812 L 10.058594 16.117188 L 10.058594 16.105469 L 10.0625 16.089844 L 10.0625 16.058594 L 10.070312 15.996094 L 10.070312 15.964844 L 10.074219 15.9375 L 10.074219 15.875 L 10.078125 15.84375 L 10.078125 15.78125 L 10.074219 15.71875 L 10.074219 15.660156 L 10.070312 15.632812 L 10.070312 15.601562 L 10.066406 15.570312 L 10.066406 15.542969 L 10.0625 15.511719 L 10.058594 15.484375 L 10.058594 15.46875 L 10.054688 15.453125 L 10.054688 15.441406 L 10.046875 15.410156 L 10.046875 15.398438 L 10.039062 15.367188 L 10.035156 15.355469 L 10.035156 15.339844 L 10.03125 15.328125 L 10.027344 15.3125 L 10.023438 15.300781 L 10.015625 15.285156 L 10.011719 15.269531 L 10.003906 15.246094 L 10 15.230469 L 9.992188 15.21875 L 9.988281 15.203125 L 9.980469 15.191406 L 9.976562 15.175781 L 9.96875 15.164062 L 9.964844 15.152344 L 9.957031 15.136719 L 9.941406 15.113281 L 9.9375 15.097656 L 9.921875 15.074219 L 9.90625 15.046875 L 9.890625 15.023438 L 9.875 14.996094 L 9.859375 14.972656 L 9.84375 14.945312 L 9.8125 14.894531 L 9.777344 14.863281 L 9.761719 14.847656 L 9.742188 14.832031 L 9.726562 14.816406 L 9.707031 14.800781 L 9.691406 14.785156 L 9.652344 14.753906 L 9.644531 14.75 L 9.632812 14.742188 L 9.617188 14.726562 L 9.605469 14.722656 L 9.597656 14.714844 L 9.585938 14.710938 L 9.578125 14.703125 L 9.566406 14.699219 L 9.558594 14.691406 L 9.546875 14.6875 L 9.539062 14.679688 L 9.515625 14.671875 L 9.507812 14.667969 L 9.484375 14.660156 L 9.476562 14.65625 L 9.441406 14.644531 L 9.433594 14.640625 L 9.410156 14.632812 L 9.398438 14.632812 L 9.375 14.625 L 9.363281 14.625 L 9.34375 14.621094 L 9.226562 14.601562 L 9.203125 14.601562 L 9.152344 14.59375 L 9.105469 14.601562 L 9.082031 14.601562 L 9.011719 14.613281 L 8.988281 14.613281 L 8.964844 14.617188 L 8.941406 14.625 L 8.929688 14.625 L 8.917969 14.628906 L 8.90625 14.628906 L 8.894531 14.632812 L 8.886719 14.636719 L 8.863281 14.644531 L 8.851562 14.644531 L 8.839844 14.648438 L 8.832031 14.652344 L 8.796875 14.664062 L 8.789062 14.671875 L 8.777344 14.675781 L 8.769531 14.679688 L 8.757812 14.683594 L 8.746094 14.691406 L 8.738281 14.695312 L 8.726562 14.703125 L 8.71875 14.707031 L 8.707031 14.714844 L 8.699219 14.71875 L 8.6875 14.726562 L 8.671875 14.742188 L 8.660156 14.746094 L 8.652344 14.753906 L 8.613281 14.785156 L 8.597656 14.796875 L 8.578125 14.8125 L 8.527344 14.863281 L 8.492188 14.894531 L 8.457031 14.945312 L 8.441406 14.972656 L 8.425781 14.996094 L 8.378906 15.078125 L 8.359375 15.117188 L 8.351562 15.128906 L 8.347656 15.140625 L 8.339844 15.15625 L 8.332031 15.167969 L 8.328125 15.183594 L 8.320312 15.195312 L 8.316406 15.210938 L 8.308594 15.222656 L 8.304688 15.238281 L 8.300781 15.25 L 8.292969 15.265625 L 8.289062 15.277344 L 8.28125 15.308594 L 8.277344 15.320312 L 8.273438 15.335938 L 8.269531 15.347656 L 8.261719 15.378906 L 8.261719 15.394531 L 8.257812 15.40625 L 8.253906 15.421875 L 8.253906 15.4375 L 8.25 15.453125 L 8.246094 15.464844 L 8.246094 15.496094 L 8.242188 15.527344 L 8.238281 15.554688 L 8.234375 15.585938 L 8.234375 15.617188 L 8.230469 15.644531 L 8.230469 15.707031 L 8.226562 15.738281 Z M 8.226562 15.796875 "/>
<path fill-rule="nonzero" fill="rgb(0%, 0%, 0%)" fill-opacity="1" d="M 7.355469 16.894531 L 7.328125 16.898438 L 7.296875 16.902344 L 7.269531 16.90625 L 7.253906 16.90625 L 7.238281 16.910156 L 7.210938 16.910156 L 7.179688 16.914062 L 7.0625 16.914062 L 7.050781 16.910156 L 7.039062 16.910156 L 7.027344 16.90625 L 7.015625 16.90625 L 6.992188 16.898438 L 6.984375 16.894531 L 6.960938 16.886719 L 6.941406 16.875 L 6.925781 16.867188 L 6.917969 16.859375 L 6.902344 16.851562 L 6.898438 16.84375 L 6.890625 16.839844 L 6.886719 16.832031 L 6.875 16.820312 L 6.871094 16.8125 L 6.863281 16.804688 L 6.847656 16.773438 L 6.839844 16.738281 L 6.832031 16.699219 L 6.828125 16.683594 L 6.824219 16.664062 L 6.824219 16.644531 L 6.820312 16.628906 L 6.820312 14.640625 L 7.355469 14.640625 L 7.355469 14.226562 L 6.820312 14.226562 L 6.820312 13.125 L 6.289062 13.445312 L 6.289062 14.226562 L 5.898438 14.226562 L 5.898438 14.640625 L 6.289062 14.640625 L 6.289062 16.667969 L 6.292969 16.6875 L 6.292969 16.75 L 6.296875 16.769531 L 6.296875 16.789062 L 6.300781 16.808594 L 6.300781 16.828125 L 6.335938 17.003906 L 6.34375 17.039062 L 6.355469 17.078125 L 6.363281 17.097656 L 6.386719 17.136719 L 6.390625 17.144531 L 6.398438 17.152344 L 6.402344 17.160156 L 6.410156 17.171875 L 6.414062 17.179688 L 6.421875 17.1875 L 6.425781 17.195312 L 6.441406 17.210938 L 6.445312 17.21875 L 6.46875 17.242188 L 6.476562 17.246094 L 6.492188 17.261719 L 6.5 17.265625 L 6.507812 17.273438 L 6.527344 17.285156 L 6.542969 17.296875 L 6.5625 17.308594 L 6.578125 17.320312 L 6.660156 17.355469 L 6.675781 17.359375 L 6.6875 17.363281 L 6.703125 17.371094 L 6.714844 17.375 L 6.730469 17.378906 L 6.742188 17.382812 L 6.757812 17.386719 L 6.769531 17.390625 L 6.785156 17.394531 L 6.796875 17.394531 L 6.8125 17.398438 L 6.828125 17.398438 L 6.839844 17.402344 L 6.855469 17.402344 L 6.871094 17.40625 L 6.898438 17.40625 L 6.914062 17.410156 L 6.972656 17.410156 L 7 17.414062 L 7.03125 17.414062 L 7.082031 17.410156 L 7.132812 17.410156 L 7.15625 17.40625 L 7.183594 17.40625 L 7.207031 17.402344 L 7.234375 17.398438 L 7.257812 17.394531 L 7.28125 17.394531 L 7.308594 17.386719 L 7.332031 17.382812 L 7.359375 17.378906 L 7.382812 17.375 L 7.433594 17.367188 Z M 7.355469 16.894531 "/>
<path fill-rule="nonzero" fill="rgb(0%, 0%, 0%)" fill-opacity="1" d="M 11.25 18.578125 L 11.25 14.226562 L 11.738281 14.226562 L 11.738281 14.632812 L 11.757812 14.609375 L 11.777344 14.582031 L 11.800781 14.554688 L 11.808594 14.542969 L 11.820312 14.53125 L 11.832031 14.515625 L 11.84375 14.503906 L 11.851562 14.492188 L 11.921875 14.421875 L 11.9375 14.410156 L 11.949219 14.398438 L 11.960938 14.390625 L 11.972656 14.378906 L 11.988281 14.367188 L 12 14.359375 L 12.015625 14.347656 L 12.027344 14.339844 L 12.042969 14.328125 L 12.070312 14.3125 L 12.125 14.273438 L 12.15625 14.261719 L 12.1875 14.246094 L 12.21875 14.234375 L 12.234375 14.226562 L 12.25 14.222656 L 12.265625 14.214844 L 12.28125 14.210938 L 12.296875 14.203125 L 12.3125 14.199219 L 12.332031 14.195312 L 12.347656 14.1875 L 12.394531 14.175781 L 12.414062 14.175781 L 12.445312 14.167969 L 12.460938 14.167969 L 12.480469 14.164062 L 12.496094 14.164062 L 12.511719 14.160156 L 12.546875 14.160156 L 12.582031 14.15625 L 12.617188 14.15625 L 12.648438 14.152344 L 12.695312 14.15625 L 12.746094 14.160156 L 12.769531 14.164062 L 12.792969 14.164062 L 12.816406 14.167969 L 12.839844 14.167969 L 12.863281 14.171875 L 12.882812 14.175781 L 12.976562 14.191406 L 13 14.199219 L 13.011719 14.199219 L 13.019531 14.203125 L 13.066406 14.21875 L 13.074219 14.222656 L 13.109375 14.234375 L 13.128906 14.242188 L 13.152344 14.253906 L 13.171875 14.261719 L 13.195312 14.273438 L 13.214844 14.28125 L 13.234375 14.292969 L 13.257812 14.304688 L 13.277344 14.316406 L 13.320312 14.339844 L 13.359375 14.363281 L 13.398438 14.390625 L 13.433594 14.421875 L 13.472656 14.453125 L 13.488281 14.46875 L 13.507812 14.484375 L 13.523438 14.5 L 13.542969 14.515625 L 13.558594 14.53125 L 13.574219 14.550781 L 13.605469 14.582031 L 13.613281 14.59375 L 13.636719 14.617188 L 13.644531 14.628906 L 13.652344 14.636719 L 13.65625 14.648438 L 13.664062 14.65625 L 13.679688 14.675781 L 13.714844 14.734375 L 13.726562 14.757812 L 13.761719 14.816406 L 13.773438 14.839844 L 13.785156 14.859375 L 13.824219 14.945312 L 13.84375 14.996094 L 13.859375 15.046875 L 13.867188 15.074219 L 13.878906 15.097656 L 13.886719 15.121094 L 13.894531 15.148438 L 13.902344 15.171875 L 13.910156 15.199219 L 13.914062 15.222656 L 13.929688 15.277344 L 13.933594 15.300781 L 13.941406 15.328125 L 13.945312 15.351562 L 13.953125 15.40625 L 13.957031 15.429688 L 13.964844 15.484375 L 13.96875 15.507812 L 13.96875 15.535156 L 13.972656 15.5625 L 13.972656 15.589844 L 13.976562 15.617188 L 13.976562 15.667969 L 13.980469 15.722656 L 13.984375 15.773438 L 13.980469 15.832031 L 13.976562 15.886719 L 13.976562 15.941406 L 13.972656 15.96875 L 13.972656 16 L 13.964844 16.054688 L 13.964844 16.082031 L 13.953125 16.164062 L 13.945312 16.191406 L 13.9375 16.246094 L 13.929688 16.273438 L 13.925781 16.300781 L 13.917969 16.328125 L 13.910156 16.351562 L 13.894531 16.40625 L 13.882812 16.433594 L 13.875 16.460938 L 13.867188 16.484375 L 13.859375 16.511719 L 13.847656 16.539062 L 13.828125 16.589844 L 13.808594 16.644531 L 13.761719 16.730469 L 13.738281 16.777344 L 13.726562 16.796875 L 13.714844 16.820312 L 13.703125 16.839844 L 13.6875 16.859375 L 13.675781 16.882812 L 13.660156 16.902344 L 13.648438 16.921875 L 13.640625 16.929688 L 13.632812 16.941406 L 13.625 16.949219 L 13.617188 16.960938 L 13.609375 16.96875 L 13.601562 16.980469 L 13.585938 16.996094 L 13.578125 17.007812 L 13.519531 17.066406 L 13.460938 17.113281 L 13.445312 17.128906 L 13.386719 17.175781 L 13.34375 17.207031 L 13.304688 17.238281 L 13.265625 17.257812 L 13.222656 17.28125 L 13.203125 17.292969 L 13.183594 17.300781 L 13.164062 17.3125 L 13.140625 17.320312 L 13.121094 17.332031 L 13.101562 17.339844 L 13.078125 17.351562 L 13.039062 17.367188 L 13.015625 17.375 L 12.996094 17.382812 L 12.972656 17.390625 L 12.960938 17.390625 L 12.949219 17.394531 L 12.941406 17.398438 L 12.929688 17.402344 L 12.90625 17.40625 L 12.886719 17.410156 L 12.792969 17.425781 L 12.773438 17.429688 L 12.75 17.429688 L 12.726562 17.433594 L 12.703125 17.433594 L 12.609375 17.441406 L 12.578125 17.441406 L 12.546875 17.4375 L 12.503906 17.4375 L 12.488281 17.433594 L 12.472656 17.433594 L 12.457031 17.429688 L 12.441406 17.429688 L 12.425781 17.425781 L 12.410156 17.425781 L 12.363281 17.414062 L 12.351562 17.414062 L 12.335938 17.410156 L 12.320312 17.402344 L 12.289062 17.394531 L 12.277344 17.390625 L 12.261719 17.382812 L 12.246094 17.378906 L 12.234375 17.371094 L 12.21875 17.367188 L 12.191406 17.355469 L 12.160156 17.34375 L 12.132812 17.328125 L 12.082031 17.300781 L 11.953125 17.214844 L 11.933594 17.195312 L 11.910156 17.179688 L 11.902344 17.167969 L 11.890625 17.160156 L 11.882812 17.148438 L 11.871094 17.140625 L 11.839844 17.109375 L 11.824219 17.085938 L 11.785156 17.046875 L 11.785156 18.578125 Z M 11.734375 15.816406 L 11.734375 15.90625 L 11.738281 15.9375 L 11.738281 15.996094 L 11.742188 16.027344 L 11.742188 16.054688 L 11.746094 16.085938 L 11.75 16.113281 L 11.75 16.128906 L 11.753906 16.144531 L 11.753906 16.160156 L 11.757812 16.171875 L 11.757812 16.1875 L 11.765625 16.21875 L 11.765625 16.230469 L 11.769531 16.246094 L 11.773438 16.257812 L 11.78125 16.289062 L 11.78125 16.300781 L 11.785156 16.316406 L 11.792969 16.332031 L 11.796875 16.34375 L 11.800781 16.359375 L 11.804688 16.371094 L 11.808594 16.386719 L 11.816406 16.398438 L 11.820312 16.414062 L 11.824219 16.425781 L 11.832031 16.4375 L 11.835938 16.453125 L 11.84375 16.464844 L 11.851562 16.480469 L 11.855469 16.492188 L 11.875 16.53125 L 11.90625 16.585938 L 11.917969 16.609375 L 11.949219 16.664062 L 11.980469 16.714844 L 12.027344 16.761719 L 12.042969 16.773438 L 12.089844 16.820312 L 12.105469 16.832031 L 12.121094 16.847656 L 12.140625 16.859375 L 12.15625 16.875 L 12.164062 16.878906 L 12.171875 16.886719 L 12.183594 16.890625 L 12.191406 16.898438 L 12.207031 16.90625 L 12.21875 16.914062 L 12.234375 16.921875 L 12.246094 16.929688 L 12.261719 16.9375 L 12.273438 16.941406 L 12.28125 16.945312 L 12.292969 16.949219 L 12.300781 16.953125 L 12.3125 16.957031 L 12.320312 16.957031 L 12.332031 16.960938 L 12.339844 16.964844 L 12.351562 16.96875 L 12.363281 16.96875 L 12.382812 16.976562 L 12.402344 16.980469 L 12.425781 16.984375 L 12.445312 16.988281 L 12.46875 16.992188 L 12.488281 16.992188 L 12.511719 16.996094 L 12.53125 17 L 12.574219 17.003906 L 12.621094 17 L 12.640625 16.996094 L 12.6875 16.988281 L 12.707031 16.984375 L 12.730469 16.980469 L 12.75 16.976562 L 12.773438 16.972656 L 12.785156 16.972656 L 12.792969 16.96875 L 12.816406 16.960938 L 12.824219 16.960938 L 12.835938 16.957031 L 12.84375 16.953125 L 12.867188 16.945312 L 12.875 16.941406 L 12.886719 16.9375 L 12.894531 16.933594 L 12.90625 16.929688 L 12.914062 16.925781 L 12.921875 16.917969 L 12.933594 16.914062 L 12.941406 16.910156 L 12.953125 16.902344 L 12.96875 16.894531 L 12.976562 16.886719 L 12.988281 16.878906 L 12.996094 16.875 L 13.003906 16.867188 L 13.011719 16.863281 L 13.023438 16.855469 L 13.039062 16.839844 L 13.054688 16.828125 L 13.070312 16.8125 L 13.089844 16.796875 L 13.183594 16.703125 L 13.230469 16.621094 L 13.246094 16.597656 L 13.277344 16.542969 L 13.289062 16.515625 L 13.304688 16.488281 L 13.3125 16.472656 L 13.316406 16.460938 L 13.324219 16.445312 L 13.332031 16.433594 L 13.335938 16.417969 L 13.34375 16.40625 L 13.347656 16.390625 L 13.355469 16.375 L 13.359375 16.363281 L 13.363281 16.347656 L 13.371094 16.332031 L 13.375 16.320312 L 13.382812 16.289062 L 13.386719 16.277344 L 13.398438 16.230469 L 13.402344 16.21875 L 13.402344 16.203125 L 13.410156 16.171875 L 13.410156 16.15625 L 13.414062 16.140625 L 13.417969 16.128906 L 13.417969 16.113281 L 13.421875 16.097656 L 13.421875 16.082031 L 13.425781 16.050781 L 13.425781 16.019531 L 13.429688 15.988281 L 13.429688 15.957031 L 13.433594 15.925781 L 13.433594 15.867188 L 13.4375 15.835938 L 13.4375 15.710938 L 13.433594 15.679688 L 13.433594 15.621094 L 13.429688 15.589844 L 13.429688 15.5625 L 13.425781 15.53125 L 13.425781 15.5 L 13.421875 15.472656 L 13.417969 15.457031 L 13.417969 15.441406 L 13.414062 15.429688 L 13.414062 15.414062 L 13.410156 15.398438 L 13.410156 15.382812 L 13.40625 15.371094 L 13.402344 15.355469 L 13.402344 15.339844 L 13.398438 15.328125 L 13.390625 15.296875 L 13.386719 15.285156 L 13.382812 15.269531 L 13.378906 15.257812 L 13.375 15.242188 L 13.371094 15.230469 L 13.363281 15.214844 L 13.359375 15.203125 L 13.355469 15.1875 L 13.347656 15.175781 L 13.34375 15.160156 L 13.339844 15.148438 L 13.332031 15.132812 L 13.324219 15.121094 L 13.320312 15.105469 L 13.3125 15.09375 L 13.308594 15.078125 L 13.292969 15.054688 L 13.28125 15.027344 L 13.265625 15 L 13.25 14.976562 L 13.21875 14.921875 L 13.191406 14.871094 L 13.082031 14.761719 L 13.066406 14.75 L 13.050781 14.734375 L 13.035156 14.722656 L 13.023438 14.714844 L 13.015625 14.707031 L 13.007812 14.703125 L 13 14.695312 L 12.992188 14.691406 L 12.984375 14.683594 L 12.972656 14.679688 L 12.964844 14.671875 L 12.957031 14.667969 L 12.949219 14.660156 L 12.9375 14.65625 L 12.929688 14.652344 L 12.917969 14.648438 L 12.910156 14.644531 L 12.902344 14.636719 L 12.890625 14.632812 L 12.882812 14.628906 L 12.871094 14.628906 L 12.863281 14.625 L 12.851562 14.621094 L 12.84375 14.617188 L 12.832031 14.613281 L 12.824219 14.609375 L 12.8125 14.609375 L 12.800781 14.605469 L 12.792969 14.601562 L 12.769531 14.597656 L 12.730469 14.589844 L 12.707031 14.585938 L 12.6875 14.582031 L 12.664062 14.582031 L 12.640625 14.578125 L 12.597656 14.570312 L 12.554688 14.578125 L 12.53125 14.582031 L 12.511719 14.585938 L 12.464844 14.59375 L 12.445312 14.597656 L 12.421875 14.601562 L 12.402344 14.605469 L 12.378906 14.613281 L 12.371094 14.617188 L 12.359375 14.617188 L 12.351562 14.621094 L 12.328125 14.628906 L 12.320312 14.632812 L 12.308594 14.636719 L 12.300781 14.640625 L 12.289062 14.644531 L 12.28125 14.652344 L 12.269531 14.65625 L 12.253906 14.664062 L 12.242188 14.671875 L 12.234375 14.675781 L 12.226562 14.683594 L 12.214844 14.6875 L 12.207031 14.695312 L 12.199219 14.699219 L 12.1875 14.707031 L 12.179688 14.714844 L 12.171875 14.71875 L 12.15625 14.734375 L 12.140625 14.746094 L 12.121094 14.761719 L 12.042969 14.839844 L 12.027344 14.859375 L 11.996094 14.890625 L 11.964844 14.945312 L 11.949219 14.96875 L 11.886719 15.078125 L 11.875 15.105469 L 11.867188 15.117188 L 11.859375 15.132812 L 11.855469 15.144531 L 11.847656 15.160156 L 11.839844 15.171875 L 11.835938 15.1875 L 11.828125 15.199219 L 11.824219 15.214844 L 11.816406 15.230469 L 11.8125 15.242188 L 11.804688 15.273438 L 11.796875 15.285156 L 11.789062 15.316406 L 11.785156 15.328125 L 11.773438 15.375 L 11.773438 15.386719 L 11.761719 15.433594 L 11.761719 15.449219 L 11.757812 15.460938 L 11.757812 15.476562 L 11.753906 15.492188 L 11.753906 15.507812 L 11.746094 15.570312 L 11.742188 15.597656 L 11.742188 15.628906 L 11.738281 15.660156 L 11.738281 15.722656 L 11.734375 15.753906 Z M 11.734375 15.816406 "/>
<path fill-rule="nonzero" fill="rgb(0%, 0%, 0%)" fill-opacity="1" d="M 0 0 L 16 0 L 16 29.714844 L 0 29.714844 Z M 0.230469 20.113281 L 15.769531 20.113281 L 15.769531 0.230469 L 0.230469 0.230469 Z M 0.230469 29.484375 L 15.769531 29.484375 L 15.769531 20.34375 L 0.230469 20.34375 Z M 0.230469 29.484375 "/>
</svg>
