<?xml version="1.0" encoding="UTF-8"?>
<svg xmlns="http://www.w3.org/2000/svg" xmlns:xlink="http://www.w3.org/1999/xlink" width="16" height="16" viewBox="0 0 16 16">
<path fill-rule="nonzero" fill="rgb(100%, 100%, 100%)" fill-opacity="1" d="M 0 4.6875 L 0 11.3125 L 4.6875 16 L 11.3125 16 L 16 11.3125 L 16 4.6875 L 11.3125 0 L 4.6875 0 Z M 0 4.6875 "/>
<path fill-rule="nonzero" fill="rgb(80%, 0%, 0%)" fill-opacity="1" d="M 15.449219 4.914062 L 15.449219 11.085938 L 11.085938 15.449219 L 4.914062 15.449219 L 0.550781 11.085938 L 0.550781 4.914062 L 4.914062 0.550781 L 11.085938 0.550781 Z M 12.40625 9.839844 L 12.40625 8.34375 L 13.460938 8.34375 L 13.496094 8.339844 L 13.570312 8.339844 L 13.609375 8.335938 L 13.644531 8.335938 L 13.679688 8.332031 L 13.71875 8.328125 L 13.789062 8.320312 L 13.804688 8.316406 L 13.824219 8.3125 L 13.839844 8.308594 L 13.859375 8.304688 L 13.875 8.300781 L 13.894531 8.296875 L 13.925781 8.289062 L 13.945312 8.285156 L 13.960938 8.28125 L 13.976562 8.273438 L 13.992188 8.269531 L 14.011719 8.261719 L 14.027344 8.257812 L 14.058594 8.242188 L 14.074219 8.238281 L 14.121094 8.214844 L 14.132812 8.207031 L 14.179688 8.183594 L 14.242188 8.144531 L 14.269531 8.125 L 14.332031 8.085938 L 14.363281 8.0625 L 14.378906 8.054688 L 14.394531 8.042969 L 14.414062 8.03125 L 14.429688 8.019531 L 14.445312 7.996094 L 14.464844 7.972656 L 14.480469 7.953125 L 14.527344 7.882812 L 14.542969 7.863281 L 14.574219 7.816406 L 14.585938 7.792969 L 14.601562 7.769531 L 14.648438 7.675781 L 14.65625 7.652344 L 14.660156 7.636719 L 14.671875 7.601562 L 14.679688 7.574219 L 14.6875 7.550781 L 14.691406 7.523438 L 14.699219 7.496094 L 14.710938 7.414062 L 14.714844 7.390625 L 14.714844 7.363281 L 14.71875 7.335938 L 14.722656 7.277344 L 14.726562 7.222656 L 14.726562 7.160156 L 14.722656 7.125 L 14.71875 7.09375 L 14.71875 7.0625 L 14.710938 7.03125 L 14.710938 7.011719 L 14.703125 6.980469 L 14.703125 6.964844 L 14.691406 6.917969 L 14.683594 6.90625 L 14.675781 6.875 L 14.640625 6.78125 L 14.628906 6.753906 L 14.617188 6.722656 L 14.589844 6.671875 L 14.574219 6.644531 L 14.558594 6.621094 L 14.542969 6.59375 L 14.519531 6.558594 L 14.507812 6.546875 L 14.484375 6.511719 L 14.472656 6.503906 L 14.464844 6.492188 L 14.414062 6.441406 L 14.390625 6.421875 L 14.367188 6.40625 L 14.320312 6.367188 L 14.308594 6.359375 L 14.292969 6.351562 L 14.28125 6.34375 L 14.265625 6.335938 L 14.210938 6.304688 L 14.171875 6.285156 L 14.160156 6.277344 L 14.144531 6.273438 L 14.132812 6.265625 L 14.117188 6.261719 L 14.105469 6.253906 L 14.074219 6.246094 L 14.0625 6.242188 L 14.046875 6.234375 L 14.015625 6.226562 L 13.988281 6.21875 L 13.957031 6.214844 L 13.925781 6.207031 L 13.828125 6.1875 L 13.8125 6.1875 L 13.792969 6.183594 L 13.777344 6.183594 L 13.757812 6.179688 L 13.726562 6.175781 L 13.691406 6.171875 L 13.660156 6.171875 L 13.644531 6.167969 L 13.609375 6.167969 L 13.59375 6.164062 L 13.558594 6.164062 L 13.519531 6.160156 L 11.917969 6.160156 L 11.917969 9.839844 Z M 6.292969 9.839844 L 6.292969 6.59375 L 7.511719 6.59375 L 7.511719 6.160156 L 4.59375 6.160156 L 4.59375 6.59375 L 5.804688 6.59375 L 5.804688 9.839844 Z M 7.980469 8.96875 L 8.007812 9.019531 L 8.039062 9.070312 L 8.054688 9.09375 L 8.070312 9.121094 L 8.101562 9.167969 L 8.117188 9.195312 L 8.148438 9.242188 L 8.167969 9.265625 L 8.183594 9.289062 L 8.203125 9.3125 L 8.222656 9.332031 L 8.238281 9.355469 L 8.320312 9.4375 L 8.367188 9.476562 L 8.386719 9.492188 L 8.433594 9.53125 L 8.457031 9.546875 L 8.480469 9.566406 L 8.503906 9.582031 L 8.550781 9.617188 L 8.601562 9.652344 L 8.628906 9.667969 L 8.65625 9.679688 L 8.710938 9.710938 L 8.765625 9.734375 L 8.792969 9.75 L 8.820312 9.761719 L 8.851562 9.773438 L 8.933594 9.808594 L 8.960938 9.816406 L 8.988281 9.828125 L 9.019531 9.835938 L 9.074219 9.851562 L 9.105469 9.859375 L 9.136719 9.863281 L 9.164062 9.867188 L 9.195312 9.875 L 9.222656 9.878906 L 9.316406 9.890625 L 9.34375 9.890625 L 9.375 9.894531 L 9.40625 9.894531 L 9.53125 9.902344 L 9.648438 9.894531 L 9.703125 9.890625 L 9.734375 9.890625 L 9.761719 9.886719 L 9.792969 9.882812 L 9.847656 9.875 L 9.878906 9.871094 L 9.90625 9.867188 L 9.933594 9.859375 L 9.964844 9.855469 L 10.074219 9.824219 L 10.101562 9.8125 L 10.128906 9.804688 L 10.15625 9.792969 L 10.183594 9.785156 L 10.238281 9.761719 L 10.261719 9.75 L 10.371094 9.703125 L 10.421875 9.675781 L 10.472656 9.644531 L 10.5 9.625 L 10.546875 9.59375 L 10.574219 9.578125 L 10.597656 9.558594 L 10.621094 9.542969 L 10.644531 9.523438 L 10.667969 9.507812 L 10.6875 9.488281 L 10.710938 9.46875 L 10.734375 9.453125 L 10.753906 9.433594 L 10.773438 9.410156 L 10.796875 9.390625 L 10.816406 9.371094 L 10.832031 9.347656 L 10.851562 9.324219 L 10.871094 9.304688 L 10.886719 9.28125 L 10.90625 9.257812 L 10.921875 9.234375 L 10.9375 9.207031 L 10.957031 9.183594 L 10.972656 9.160156 L 10.988281 9.132812 L 11.003906 9.109375 L 11.035156 9.058594 L 11.0625 9.007812 L 11.078125 8.976562 L 11.101562 8.914062 L 11.117188 8.882812 L 11.128906 8.851562 L 11.140625 8.824219 L 11.164062 8.761719 L 11.175781 8.734375 L 11.183594 8.703125 L 11.195312 8.671875 L 11.203125 8.644531 L 11.214844 8.613281 L 11.238281 8.519531 L 11.242188 8.488281 L 11.25 8.457031 L 11.253906 8.425781 L 11.261719 8.394531 L 11.265625 8.363281 L 11.269531 8.328125 L 11.273438 8.296875 L 11.273438 8.265625 L 11.277344 8.234375 L 11.28125 8.199219 L 11.285156 8.136719 L 11.285156 8.070312 L 11.289062 8.003906 L 11.289062 7.941406 L 11.285156 7.875 L 11.28125 7.8125 L 11.277344 7.78125 L 11.277344 7.75 L 11.269531 7.6875 L 11.265625 7.652344 L 11.257812 7.589844 L 11.25 7.558594 L 11.246094 7.527344 L 11.238281 7.496094 L 11.234375 7.46875 L 11.21875 7.40625 L 11.207031 7.375 L 11.199219 7.347656 L 11.191406 7.316406 L 11.179688 7.289062 L 11.171875 7.257812 L 11.160156 7.226562 L 11.148438 7.199219 L 11.136719 7.167969 L 11.125 7.140625 L 11.089844 7.046875 L 11.074219 7.015625 L 11.046875 6.964844 L 11.015625 6.914062 L 11 6.890625 L 10.984375 6.863281 L 10.953125 6.816406 L 10.9375 6.789062 L 10.90625 6.742188 L 10.886719 6.71875 L 10.871094 6.695312 L 10.851562 6.675781 L 10.8125 6.628906 L 10.753906 6.570312 L 10.730469 6.550781 L 10.710938 6.53125 L 10.664062 6.492188 L 10.640625 6.476562 L 10.621094 6.457031 L 10.597656 6.441406 L 10.570312 6.421875 L 10.546875 6.40625 L 10.453125 6.335938 L 10.421875 6.324219 L 10.394531 6.308594 L 10.367188 6.296875 L 10.339844 6.28125 L 10.257812 6.246094 L 10.230469 6.230469 L 10.203125 6.21875 L 10.175781 6.210938 L 10.121094 6.1875 L 10.09375 6.179688 L 10.066406 6.167969 L 10.039062 6.160156 L 10.007812 6.152344 L 9.980469 6.144531 L 9.949219 6.140625 L 9.921875 6.132812 L 9.890625 6.128906 L 9.863281 6.121094 L 9.832031 6.117188 L 9.804688 6.113281 L 9.773438 6.113281 L 9.742188 6.109375 L 9.714844 6.105469 L 9.683594 6.101562 L 9.652344 6.101562 L 9.59375 6.097656 L 9.53125 6.09375 L 9.441406 6.101562 L 9.398438 6.105469 L 9.351562 6.109375 L 9.308594 6.113281 L 9.261719 6.117188 L 9.21875 6.125 L 9.175781 6.128906 L 9.152344 6.132812 L 9.132812 6.136719 L 9.109375 6.140625 L 9.089844 6.144531 L 9.066406 6.148438 L 9.046875 6.15625 L 9.023438 6.160156 L 9.003906 6.164062 L 8.984375 6.171875 L 8.960938 6.175781 L 8.941406 6.183594 L 8.921875 6.1875 L 8.898438 6.195312 L 8.78125 6.242188 L 8.761719 6.253906 L 8.742188 6.261719 L 8.722656 6.273438 L 8.707031 6.28125 L 8.667969 6.304688 L 8.648438 6.3125 L 8.632812 6.324219 L 8.613281 6.335938 L 8.597656 6.347656 L 8.578125 6.359375 L 8.558594 6.375 L 8.542969 6.386719 L 8.507812 6.414062 L 8.472656 6.4375 L 8.4375 6.464844 L 8.402344 6.496094 L 8.332031 6.550781 L 8.261719 6.613281 L 8.199219 6.699219 L 8.171875 6.738281 L 8.140625 6.78125 L 8.113281 6.824219 L 8.097656 6.84375 L 8.085938 6.863281 L 8.070312 6.882812 L 8.058594 6.90625 L 8.035156 6.945312 L 8.019531 6.964844 L 8.007812 6.988281 L 7.984375 7.027344 L 7.972656 7.050781 L 7.964844 7.070312 L 7.953125 7.089844 L 7.941406 7.113281 L 7.933594 7.132812 L 7.921875 7.15625 L 7.914062 7.175781 L 7.90625 7.199219 L 7.894531 7.21875 L 7.886719 7.242188 L 7.878906 7.261719 L 7.871094 7.285156 L 7.867188 7.308594 L 7.859375 7.332031 L 7.851562 7.351562 L 7.847656 7.375 L 7.839844 7.398438 L 7.832031 7.445312 L 7.824219 7.46875 L 7.800781 7.609375 L 7.796875 7.65625 L 7.792969 7.707031 L 7.789062 7.753906 L 7.785156 7.804688 L 7.78125 7.851562 L 7.777344 7.902344 L 7.773438 7.949219 L 7.769531 8.046875 L 7.773438 8.105469 L 7.777344 8.167969 L 7.78125 8.226562 L 7.78125 8.257812 L 7.785156 8.285156 L 7.789062 8.316406 L 7.792969 8.34375 L 7.796875 8.375 L 7.800781 8.402344 L 7.804688 8.433594 L 7.808594 8.460938 L 7.816406 8.492188 L 7.820312 8.519531 L 7.828125 8.546875 L 7.835938 8.578125 L 7.851562 8.632812 L 7.863281 8.660156 L 7.871094 8.691406 L 7.878906 8.71875 L 7.902344 8.773438 L 7.910156 8.800781 L 7.957031 8.910156 Z M 1.472656 9.320312 L 1.554688 9.425781 L 1.585938 9.457031 L 1.597656 9.472656 L 1.628906 9.503906 L 1.640625 9.519531 L 1.6875 9.566406 L 1.707031 9.578125 L 1.722656 9.59375 L 1.738281 9.605469 L 1.757812 9.617188 L 1.773438 9.628906 L 1.8125 9.652344 L 1.828125 9.664062 L 1.867188 9.6875 L 1.886719 9.695312 L 1.925781 9.71875 L 2.003906 9.757812 L 2.03125 9.765625 L 2.058594 9.777344 L 2.085938 9.785156 L 2.109375 9.792969 L 2.136719 9.800781 L 2.160156 9.808594 L 2.1875 9.816406 L 2.234375 9.832031 L 2.261719 9.839844 L 2.285156 9.847656 L 2.308594 9.851562 L 2.335938 9.859375 L 2.359375 9.863281 L 2.414062 9.871094 L 2.4375 9.878906 L 2.464844 9.878906 L 2.546875 9.890625 L 2.570312 9.890625 L 2.597656 9.894531 L 2.625 9.894531 L 2.734375 9.902344 L 2.886719 9.902344 L 2.933594 9.898438 L 2.980469 9.898438 L 3.023438 9.894531 L 3.046875 9.890625 L 3.070312 9.890625 L 3.09375 9.886719 L 3.113281 9.882812 L 3.136719 9.882812 L 3.183594 9.875 L 3.203125 9.871094 L 3.226562 9.867188 L 3.25 9.859375 L 3.269531 9.855469 L 3.292969 9.847656 L 3.3125 9.84375 L 3.335938 9.835938 L 3.355469 9.828125 L 3.375 9.824219 L 3.398438 9.816406 L 3.417969 9.808594 L 3.441406 9.800781 L 3.460938 9.792969 L 3.507812 9.777344 L 3.527344 9.769531 L 3.550781 9.757812 L 3.585938 9.742188 L 3.65625 9.703125 L 3.675781 9.691406 L 3.691406 9.683594 L 3.710938 9.671875 L 3.742188 9.648438 L 3.757812 9.640625 L 3.773438 9.628906 L 3.792969 9.617188 L 3.824219 9.59375 L 3.835938 9.578125 L 3.867188 9.554688 L 3.878906 9.539062 L 3.90625 9.511719 L 3.917969 9.496094 L 3.933594 9.480469 L 3.945312 9.464844 L 3.972656 9.4375 L 3.984375 9.421875 L 3.996094 9.402344 L 4.019531 9.371094 L 4.035156 9.355469 L 4.050781 9.324219 L 4.070312 9.289062 L 4.085938 9.257812 L 4.105469 9.226562 L 4.113281 9.207031 L 4.128906 9.175781 L 4.132812 9.160156 L 4.140625 9.140625 L 4.148438 9.125 L 4.152344 9.109375 L 4.160156 9.089844 L 4.164062 9.074219 L 4.167969 9.054688 L 4.171875 9.039062 L 4.175781 9.019531 L 4.179688 9.003906 L 4.183594 8.984375 L 4.1875 8.96875 L 4.1875 8.949219 L 4.191406 8.929688 L 4.191406 8.914062 L 4.195312 8.875 L 4.199219 8.839844 L 4.203125 8.800781 L 4.199219 8.765625 L 4.199219 8.730469 L 4.191406 8.660156 L 4.1875 8.644531 L 4.1875 8.628906 L 4.183594 8.609375 L 4.179688 8.59375 L 4.179688 8.578125 L 4.175781 8.558594 L 4.171875 8.542969 L 4.164062 8.527344 L 4.15625 8.496094 L 4.148438 8.480469 L 4.144531 8.464844 L 4.128906 8.433594 L 4.125 8.417969 L 4.101562 8.371094 L 4.082031 8.339844 L 4.050781 8.277344 L 4.035156 8.261719 L 4.011719 8.230469 L 3.996094 8.214844 L 3.984375 8.199219 L 3.972656 8.1875 L 3.960938 8.171875 L 3.945312 8.160156 L 3.933594 8.144531 L 3.921875 8.132812 L 3.910156 8.117188 L 3.894531 8.105469 L 3.882812 8.09375 L 3.867188 8.082031 L 3.855469 8.070312 L 3.792969 8.023438 L 3.777344 8.015625 L 3.746094 7.992188 L 3.726562 7.984375 L 3.710938 7.972656 L 3.679688 7.957031 L 3.609375 7.917969 L 3.574219 7.902344 L 3.5625 7.898438 L 3.546875 7.890625 L 3.535156 7.886719 L 3.519531 7.882812 L 3.496094 7.875 L 3.472656 7.863281 L 3.445312 7.855469 L 3.375 7.832031 L 3.332031 7.816406 L 3.261719 7.792969 L 3.234375 7.785156 L 3.1875 7.769531 L 3.132812 7.757812 L 3.078125 7.742188 L 3.027344 7.730469 L 2.972656 7.714844 L 2.921875 7.703125 L 2.757812 7.667969 L 2.660156 7.644531 L 2.558594 7.621094 L 2.53125 7.617188 L 2.484375 7.601562 L 2.457031 7.597656 L 2.386719 7.574219 L 2.359375 7.566406 L 2.335938 7.558594 L 2.316406 7.550781 L 2.292969 7.539062 L 2.253906 7.523438 L 2.230469 7.515625 L 2.210938 7.503906 L 2.191406 7.496094 L 2.152344 7.472656 L 2.132812 7.464844 L 2.113281 7.453125 L 2.089844 7.441406 L 2.070312 7.429688 L 2.046875 7.417969 L 2.035156 7.410156 L 2.023438 7.40625 L 2.007812 7.386719 L 1.992188 7.371094 L 1.976562 7.351562 L 1.964844 7.332031 L 1.949219 7.316406 L 1.945312 7.304688 L 1.9375 7.296875 L 1.933594 7.289062 L 1.925781 7.277344 L 1.921875 7.269531 L 1.914062 7.246094 L 1.910156 7.238281 L 1.898438 7.203125 L 1.898438 7.191406 L 1.894531 7.183594 L 1.894531 7.171875 L 1.882812 7.101562 L 1.882812 7.078125 L 1.886719 7.046875 L 1.886719 7.035156 L 1.890625 7.019531 L 1.890625 7.003906 L 1.894531 6.988281 L 1.898438 6.976562 L 1.898438 6.960938 L 1.90625 6.9375 L 1.910156 6.921875 L 1.917969 6.898438 L 1.925781 6.882812 L 1.929688 6.871094 L 1.9375 6.859375 L 1.941406 6.847656 L 1.972656 6.800781 L 1.992188 6.78125 L 2 6.769531 L 2.0625 6.707031 L 2.085938 6.6875 L 2.125 6.664062 L 2.144531 6.65625 L 2.164062 6.644531 L 2.183594 6.636719 L 2.199219 6.625 L 2.238281 6.609375 L 2.253906 6.601562 L 2.273438 6.59375 L 2.289062 6.585938 L 2.328125 6.570312 L 2.347656 6.566406 L 2.367188 6.558594 L 2.40625 6.550781 L 2.429688 6.546875 L 2.46875 6.539062 L 2.492188 6.539062 L 2.511719 6.535156 L 2.535156 6.53125 L 2.578125 6.53125 L 2.597656 6.527344 L 2.816406 6.527344 L 2.859375 6.53125 L 2.878906 6.53125 L 2.902344 6.535156 L 2.921875 6.535156 L 2.945312 6.539062 L 2.964844 6.539062 L 2.984375 6.542969 L 3.007812 6.546875 L 3.046875 6.554688 L 3.070312 6.5625 L 3.089844 6.566406 L 3.109375 6.574219 L 3.128906 6.578125 L 3.144531 6.585938 L 3.183594 6.601562 L 3.199219 6.609375 L 3.21875 6.617188 L 3.238281 6.628906 L 3.253906 6.636719 L 3.292969 6.660156 L 3.3125 6.667969 L 3.328125 6.679688 L 3.351562 6.691406 L 3.371094 6.703125 L 3.382812 6.71875 L 3.398438 6.734375 L 3.410156 6.75 L 3.425781 6.761719 L 3.449219 6.792969 L 3.460938 6.804688 L 3.472656 6.820312 L 3.484375 6.832031 L 3.496094 6.847656 L 3.503906 6.863281 L 3.515625 6.878906 L 3.523438 6.894531 L 3.535156 6.90625 L 3.542969 6.925781 L 3.558594 6.957031 L 3.5625 6.972656 L 3.570312 6.992188 L 3.578125 7.007812 L 3.582031 7.027344 L 3.585938 7.042969 L 3.59375 7.0625 L 3.601562 7.101562 L 3.605469 7.117188 L 3.613281 7.15625 L 3.617188 7.195312 L 3.625 7.230469 L 4.09375 7.195312 L 4.085938 7.117188 L 4.078125 7.082031 L 4.074219 7.042969 L 4.066406 7.003906 L 4.066406 6.984375 L 4.0625 6.96875 L 4.058594 6.949219 L 4.050781 6.929688 L 4.046875 6.910156 L 4.042969 6.894531 L 4.035156 6.875 L 4.03125 6.859375 L 4.023438 6.839844 L 4.015625 6.824219 L 4.007812 6.804688 L 4 6.789062 L 3.992188 6.769531 L 3.984375 6.753906 L 3.976562 6.734375 L 3.96875 6.71875 L 3.949219 6.683594 L 3.929688 6.652344 L 3.910156 6.617188 L 3.898438 6.601562 L 3.886719 6.582031 L 3.859375 6.550781 L 3.847656 6.539062 L 3.824219 6.507812 L 3.808594 6.492188 L 3.796875 6.476562 L 3.730469 6.410156 L 3.636719 6.339844 L 3.621094 6.332031 L 3.605469 6.320312 L 3.585938 6.308594 L 3.570312 6.300781 L 3.554688 6.289062 L 3.535156 6.28125 L 3.5 6.261719 L 3.464844 6.246094 L 3.429688 6.226562 L 3.382812 6.210938 L 3.363281 6.203125 L 3.339844 6.195312 L 3.316406 6.191406 L 3.296875 6.183594 L 3.25 6.167969 L 3.230469 6.164062 L 3.207031 6.15625 L 3.1875 6.152344 L 3.164062 6.144531 L 3.144531 6.140625 L 3.121094 6.136719 L 3.097656 6.128906 L 3.078125 6.125 L 3.03125 6.117188 L 3.007812 6.117188 L 2.960938 6.109375 L 2.941406 6.109375 L 2.917969 6.105469 L 2.894531 6.105469 L 2.847656 6.101562 L 2.800781 6.101562 L 2.707031 6.097656 L 2.621094 6.101562 L 2.578125 6.101562 L 2.492188 6.109375 L 2.46875 6.109375 L 2.449219 6.113281 L 2.425781 6.117188 L 2.40625 6.117188 L 2.386719 6.121094 L 2.363281 6.125 L 2.34375 6.128906 L 2.320312 6.132812 L 2.300781 6.140625 L 2.261719 6.148438 L 2.238281 6.15625 L 2.21875 6.160156 L 2.199219 6.167969 L 2.160156 6.179688 L 2.117188 6.191406 L 2.097656 6.199219 L 2.074219 6.207031 L 2.054688 6.214844 L 2.03125 6.222656 L 2 6.238281 L 1.964844 6.253906 L 1.929688 6.273438 L 1.882812 6.296875 L 1.863281 6.308594 L 1.847656 6.316406 L 1.832031 6.328125 L 1.816406 6.335938 L 1.800781 6.347656 L 1.789062 6.359375 L 1.757812 6.382812 L 1.746094 6.394531 L 1.730469 6.40625 L 1.71875 6.417969 L 1.703125 6.429688 L 1.691406 6.445312 L 1.679688 6.457031 L 1.667969 6.472656 L 1.65625 6.484375 L 1.632812 6.515625 L 1.617188 6.527344 L 1.570312 6.589844 L 1.554688 6.621094 L 1.535156 6.652344 L 1.519531 6.679688 L 1.488281 6.742188 L 1.484375 6.757812 L 1.46875 6.789062 L 1.464844 6.804688 L 1.457031 6.824219 L 1.441406 6.886719 L 1.4375 6.90625 L 1.425781 6.953125 L 1.425781 6.972656 L 1.421875 7.007812 L 1.417969 7.039062 L 1.414062 7.074219 L 1.414062 7.109375 L 1.417969 7.171875 L 1.417969 7.203125 L 1.421875 7.230469 L 1.421875 7.246094 L 1.429688 7.277344 L 1.429688 7.292969 L 1.433594 7.304688 L 1.441406 7.335938 L 1.445312 7.347656 L 1.453125 7.378906 L 1.457031 7.390625 L 1.460938 7.40625 L 1.46875 7.417969 L 1.472656 7.433594 L 1.480469 7.445312 L 1.484375 7.460938 L 1.5 7.488281 L 1.511719 7.515625 L 1.542969 7.570312 L 1.550781 7.582031 L 1.5625 7.597656 L 1.574219 7.609375 L 1.582031 7.625 L 1.605469 7.648438 L 1.613281 7.664062 L 1.636719 7.6875 L 1.644531 7.699219 L 1.691406 7.746094 L 1.703125 7.753906 L 1.726562 7.777344 L 1.738281 7.785156 L 1.753906 7.796875 L 1.765625 7.808594 L 1.78125 7.816406 L 1.792969 7.824219 L 1.847656 7.863281 L 1.878906 7.878906 L 1.933594 7.910156 L 1.945312 7.917969 L 1.957031 7.921875 L 1.980469 7.933594 L 2.003906 7.941406 L 2.023438 7.949219 L 2.046875 7.957031 L 2.066406 7.96875 L 2.105469 7.984375 L 2.148438 8 L 2.207031 8.023438 L 2.230469 8.027344 L 2.25 8.035156 L 2.320312 8.058594 L 2.367188 8.070312 L 2.410156 8.082031 L 2.457031 8.097656 L 2.550781 8.121094 L 2.644531 8.140625 L 2.730469 8.164062 L 2.820312 8.183594 L 2.863281 8.195312 L 2.90625 8.203125 L 2.949219 8.214844 L 2.96875 8.222656 L 2.992188 8.226562 L 3.011719 8.234375 L 3.03125 8.238281 L 3.050781 8.246094 L 3.089844 8.253906 L 3.105469 8.261719 L 3.144531 8.273438 L 3.179688 8.285156 L 3.199219 8.289062 L 3.21875 8.296875 L 3.238281 8.300781 L 3.257812 8.308594 L 3.28125 8.316406 L 3.300781 8.320312 L 3.347656 8.339844 L 3.371094 8.351562 L 3.394531 8.359375 L 3.441406 8.382812 L 3.449219 8.390625 L 3.460938 8.394531 L 3.484375 8.410156 L 3.492188 8.414062 L 3.503906 8.421875 L 3.511719 8.429688 L 3.523438 8.4375 L 3.53125 8.445312 L 3.542969 8.453125 L 3.558594 8.46875 L 3.578125 8.484375 L 3.632812 8.539062 L 3.644531 8.554688 L 3.65625 8.574219 L 3.664062 8.589844 L 3.675781 8.609375 L 3.683594 8.625 L 3.691406 8.636719 L 3.699219 8.652344 L 3.703125 8.664062 L 3.707031 8.671875 L 3.707031 8.679688 L 3.710938 8.691406 L 3.714844 8.699219 L 3.714844 8.710938 L 3.71875 8.71875 L 3.726562 8.757812 L 3.726562 8.78125 L 3.730469 8.800781 L 3.734375 8.839844 L 3.730469 8.863281 L 3.730469 8.882812 L 3.726562 8.90625 L 3.722656 8.925781 L 3.722656 8.945312 L 3.71875 8.96875 L 3.714844 8.976562 L 3.710938 8.988281 L 3.710938 8.996094 L 3.707031 9.007812 L 3.703125 9.015625 L 3.699219 9.027344 L 3.695312 9.035156 L 3.691406 9.046875 L 3.683594 9.066406 L 3.671875 9.082031 L 3.660156 9.101562 L 3.652344 9.121094 L 3.621094 9.167969 L 3.609375 9.175781 L 3.601562 9.1875 L 3.59375 9.195312 L 3.578125 9.214844 L 3.558594 9.230469 L 3.535156 9.253906 L 3.523438 9.261719 L 3.507812 9.277344 L 3.496094 9.285156 L 3.488281 9.292969 L 3.476562 9.300781 L 3.464844 9.304688 L 3.457031 9.3125 L 3.445312 9.320312 L 3.425781 9.332031 L 3.402344 9.34375 L 3.378906 9.351562 L 3.355469 9.363281 L 3.3125 9.382812 L 3.296875 9.390625 L 3.277344 9.394531 L 3.265625 9.398438 L 3.25 9.402344 L 3.21875 9.414062 L 3.1875 9.421875 L 3.160156 9.429688 L 3.128906 9.4375 L 3.113281 9.4375 L 3.101562 9.441406 L 3.070312 9.449219 L 3.054688 9.449219 L 3.039062 9.453125 L 2.976562 9.460938 L 2.945312 9.460938 L 2.914062 9.464844 L 2.746094 9.464844 L 2.710938 9.460938 L 2.671875 9.460938 L 2.636719 9.457031 L 2.621094 9.453125 L 2.601562 9.453125 L 2.582031 9.449219 L 2.566406 9.449219 L 2.546875 9.445312 L 2.53125 9.441406 L 2.511719 9.4375 L 2.496094 9.433594 L 2.476562 9.429688 L 2.445312 9.421875 L 2.425781 9.417969 L 2.394531 9.40625 L 2.289062 9.371094 L 2.273438 9.363281 L 2.253906 9.359375 L 2.199219 9.332031 L 2.171875 9.316406 L 2.144531 9.304688 L 2.109375 9.28125 L 2.09375 9.273438 L 2.046875 9.242188 L 2.035156 9.230469 L 2.023438 9.222656 L 2.003906 9.203125 L 1.992188 9.195312 L 1.980469 9.183594 L 1.972656 9.171875 L 1.960938 9.164062 L 1.953125 9.152344 L 1.941406 9.140625 L 1.933594 9.128906 L 1.921875 9.121094 L 1.914062 9.109375 L 1.902344 9.097656 L 1.894531 9.082031 L 1.882812 9.070312 L 1.875 9.058594 L 1.859375 9.027344 L 1.84375 9.003906 L 1.839844 8.988281 L 1.824219 8.960938 L 1.8125 8.9375 L 1.808594 8.921875 L 1.800781 8.910156 L 1.796875 8.894531 L 1.789062 8.882812 L 1.785156 8.867188 L 1.78125 8.855469 L 1.773438 8.824219 L 1.769531 8.8125 L 1.765625 8.796875 L 1.757812 8.769531 L 1.75 8.738281 L 1.746094 8.707031 L 1.742188 8.679688 L 1.730469 8.617188 L 1.273438 8.65625 L 1.277344 8.703125 L 1.285156 8.789062 L 1.285156 8.8125 L 1.289062 8.832031 L 1.292969 8.855469 L 1.296875 8.875 L 1.300781 8.898438 L 1.304688 8.917969 L 1.308594 8.941406 L 1.3125 8.960938 L 1.320312 8.984375 L 1.324219 9.003906 L 1.339844 9.042969 L 1.347656 9.066406 L 1.378906 9.144531 L 1.390625 9.164062 L 1.398438 9.183594 L 1.410156 9.203125 L 1.429688 9.242188 L 1.453125 9.28125 Z M 1.472656 9.320312 "/>
<path fill-rule="nonzero" fill="rgb(100%, 100%, 100%)" fill-opacity="1" d="M 1.273438 8.65625 L 1.277344 8.703125 L 1.285156 8.789062 L 1.289062 8.8125 L 1.289062 8.832031 L 1.292969 8.855469 L 1.296875 8.875 L 1.300781 8.898438 L 1.304688 8.917969 L 1.308594 8.941406 L 1.3125 8.960938 L 1.320312 8.984375 L 1.324219 9.003906 L 1.339844 9.042969 L 1.347656 9.066406 L 1.371094 9.125 L 1.382812 9.144531 L 1.390625 9.164062 L 1.402344 9.183594 L 1.410156 9.203125 L 1.429688 9.242188 L 1.453125 9.28125 L 1.472656 9.320312 L 1.527344 9.390625 L 1.554688 9.421875 L 1.570312 9.441406 L 1.582031 9.457031 L 1.628906 9.503906 L 1.640625 9.519531 L 1.671875 9.550781 L 1.691406 9.566406 L 1.707031 9.578125 L 1.722656 9.59375 L 1.738281 9.605469 L 1.757812 9.617188 L 1.773438 9.628906 L 1.8125 9.652344 L 1.828125 9.664062 L 1.867188 9.6875 L 1.886719 9.695312 L 1.925781 9.71875 L 2.003906 9.757812 L 2.054688 9.773438 L 2.105469 9.792969 L 2.15625 9.808594 L 2.183594 9.816406 L 2.207031 9.824219 L 2.234375 9.832031 L 2.257812 9.839844 L 2.285156 9.84375 L 2.3125 9.851562 L 2.335938 9.859375 L 2.363281 9.863281 L 2.386719 9.867188 L 2.414062 9.875 L 2.46875 9.882812 L 2.492188 9.882812 L 2.546875 9.890625 L 2.574219 9.890625 L 2.601562 9.894531 L 2.625 9.894531 L 2.734375 9.902344 L 2.886719 9.902344 L 2.933594 9.898438 L 2.980469 9.898438 L 3.023438 9.894531 L 3.046875 9.890625 L 3.070312 9.890625 L 3.09375 9.886719 L 3.113281 9.882812 L 3.136719 9.882812 L 3.183594 9.875 L 3.203125 9.871094 L 3.226562 9.867188 L 3.25 9.859375 L 3.269531 9.855469 L 3.292969 9.847656 L 3.3125 9.84375 L 3.335938 9.835938 L 3.355469 9.828125 L 3.378906 9.820312 L 3.421875 9.808594 L 3.507812 9.777344 L 3.550781 9.757812 L 3.585938 9.742188 L 3.65625 9.703125 L 3.675781 9.691406 L 3.691406 9.683594 L 3.707031 9.671875 L 3.726562 9.660156 L 3.742188 9.652344 L 3.773438 9.628906 L 3.792969 9.617188 L 3.808594 9.605469 L 3.835938 9.578125 L 3.851562 9.566406 L 3.921875 9.496094 L 3.945312 9.464844 L 3.960938 9.449219 L 4.007812 9.386719 L 4.035156 9.355469 L 4.050781 9.324219 L 4.070312 9.289062 L 4.085938 9.257812 L 4.105469 9.226562 L 4.113281 9.207031 L 4.128906 9.175781 L 4.132812 9.160156 L 4.140625 9.140625 L 4.148438 9.125 L 4.152344 9.109375 L 4.160156 9.089844 L 4.164062 9.074219 L 4.167969 9.054688 L 4.171875 9.039062 L 4.175781 9.019531 L 4.179688 9.003906 L 4.1875 8.964844 L 4.1875 8.949219 L 4.191406 8.929688 L 4.191406 8.910156 L 4.199219 8.839844 L 4.203125 8.800781 L 4.199219 8.765625 L 4.199219 8.730469 L 4.195312 8.695312 L 4.191406 8.664062 L 4.1875 8.644531 L 4.1875 8.628906 L 4.183594 8.609375 L 4.179688 8.59375 L 4.179688 8.578125 L 4.175781 8.5625 L 4.171875 8.542969 L 4.164062 8.527344 L 4.15625 8.496094 L 4.148438 8.480469 L 4.144531 8.464844 L 4.136719 8.445312 L 4.121094 8.414062 L 4.117188 8.398438 L 4.097656 8.371094 L 4.050781 8.277344 L 4.023438 8.246094 L 4 8.21875 L 3.976562 8.1875 L 3.960938 8.175781 L 3.949219 8.160156 L 3.882812 8.09375 L 3.851562 8.070312 L 3.839844 8.058594 L 3.777344 8.011719 L 3.761719 8.003906 L 3.742188 7.992188 L 3.726562 7.984375 L 3.710938 7.972656 L 3.675781 7.957031 L 3.644531 7.9375 L 3.609375 7.917969 L 3.574219 7.902344 L 3.476562 7.867188 L 3.425781 7.847656 L 3.375 7.832031 L 3.324219 7.8125 L 3.171875 7.765625 L 3.121094 7.753906 L 3.070312 7.738281 L 2.96875 7.714844 L 2.914062 7.703125 L 2.863281 7.691406 L 2.757812 7.667969 L 2.664062 7.648438 L 2.613281 7.636719 L 2.519531 7.613281 L 2.496094 7.605469 L 2.472656 7.601562 L 2.308594 7.546875 L 2.289062 7.539062 L 2.265625 7.527344 L 2.242188 7.519531 L 2.21875 7.507812 L 2.199219 7.496094 L 2.175781 7.488281 L 2.15625 7.476562 L 2.109375 7.453125 L 2.023438 7.40625 L 2.007812 7.386719 L 1.992188 7.371094 L 1.980469 7.351562 L 1.964844 7.335938 L 1.957031 7.324219 L 1.949219 7.316406 L 1.945312 7.304688 L 1.9375 7.296875 L 1.933594 7.289062 L 1.925781 7.277344 L 1.921875 7.269531 L 1.914062 7.246094 L 1.910156 7.238281 L 1.898438 7.203125 L 1.898438 7.195312 L 1.894531 7.183594 L 1.894531 7.171875 L 1.882812 7.101562 L 1.882812 7.078125 L 1.886719 7.050781 L 1.890625 7.019531 L 1.894531 6.992188 L 1.898438 6.976562 L 1.898438 6.964844 L 1.902344 6.949219 L 1.90625 6.9375 L 1.910156 6.921875 L 1.917969 6.898438 L 1.925781 6.882812 L 1.929688 6.871094 L 1.9375 6.859375 L 1.941406 6.847656 L 1.972656 6.800781 L 1.992188 6.78125 L 2 6.769531 L 2.0625 6.707031 L 2.085938 6.6875 L 2.121094 6.667969 L 2.160156 6.648438 L 2.179688 6.636719 L 2.195312 6.628906 L 2.214844 6.617188 L 2.332031 6.570312 L 2.351562 6.566406 L 2.371094 6.558594 L 2.410156 6.550781 L 2.433594 6.546875 L 2.472656 6.539062 L 2.496094 6.535156 L 2.515625 6.535156 L 2.535156 6.53125 L 2.578125 6.53125 L 2.601562 6.527344 L 2.8125 6.527344 L 2.855469 6.53125 L 2.878906 6.53125 L 2.898438 6.535156 L 2.921875 6.535156 L 2.941406 6.539062 L 2.960938 6.539062 L 2.984375 6.542969 L 3.023438 6.550781 L 3.046875 6.554688 L 3.066406 6.558594 L 3.085938 6.566406 L 3.105469 6.570312 L 3.203125 6.609375 L 3.222656 6.621094 L 3.238281 6.628906 L 3.257812 6.640625 L 3.277344 6.648438 L 3.296875 6.660156 L 3.332031 6.683594 L 3.371094 6.703125 L 3.394531 6.730469 L 3.421875 6.761719 L 3.433594 6.773438 L 3.457031 6.804688 L 3.472656 6.816406 L 3.480469 6.832031 L 3.515625 6.878906 L 3.523438 6.894531 L 3.535156 6.910156 L 3.558594 6.957031 L 3.566406 6.976562 L 3.570312 6.992188 L 3.578125 7.011719 L 3.582031 7.027344 L 3.585938 7.046875 L 3.59375 7.0625 L 3.601562 7.101562 L 3.605469 7.117188 L 3.613281 7.15625 L 3.617188 7.195312 L 3.625 7.230469 L 4.09375 7.195312 L 4.089844 7.15625 L 4.085938 7.121094 L 4.078125 7.082031 L 4.074219 7.042969 L 4.066406 7.003906 L 4.066406 6.984375 L 4.0625 6.96875 L 4.058594 6.949219 L 4.050781 6.929688 L 4.046875 6.910156 L 4.042969 6.894531 L 4.035156 6.875 L 4.03125 6.859375 L 4.015625 6.820312 L 4 6.789062 L 3.992188 6.769531 L 3.984375 6.753906 L 3.96875 6.71875 L 3.929688 6.648438 L 3.910156 6.617188 L 3.863281 6.554688 L 3.835938 6.523438 L 3.8125 6.492188 L 3.796875 6.480469 L 3.773438 6.449219 L 3.757812 6.4375 L 3.730469 6.410156 L 3.636719 6.339844 L 3.621094 6.332031 L 3.605469 6.320312 L 3.585938 6.308594 L 3.570312 6.300781 L 3.554688 6.289062 L 3.535156 6.28125 L 3.5 6.261719 L 3.464844 6.246094 L 3.429688 6.226562 L 3.386719 6.214844 L 3.34375 6.199219 L 3.296875 6.183594 L 3.253906 6.171875 L 3.230469 6.164062 L 3.210938 6.15625 L 3.1875 6.152344 L 3.164062 6.144531 L 3.144531 6.140625 L 3.121094 6.136719 L 3.097656 6.128906 L 3.074219 6.125 L 3.054688 6.121094 L 3.03125 6.117188 L 3.007812 6.117188 L 2.960938 6.109375 L 2.9375 6.109375 L 2.917969 6.105469 L 2.894531 6.105469 L 2.847656 6.101562 L 2.800781 6.101562 L 2.707031 6.097656 L 2.621094 6.101562 L 2.578125 6.101562 L 2.492188 6.109375 L 2.46875 6.109375 L 2.429688 6.117188 L 2.40625 6.117188 L 2.386719 6.121094 L 2.363281 6.125 L 2.34375 6.128906 L 2.320312 6.132812 L 2.300781 6.140625 L 2.28125 6.144531 L 2.257812 6.148438 L 2.238281 6.15625 L 2.21875 6.160156 L 2.195312 6.167969 L 2.15625 6.179688 L 2.113281 6.195312 L 2.03125 6.222656 L 2 6.238281 L 1.964844 6.253906 L 1.929688 6.273438 L 1.882812 6.296875 L 1.863281 6.308594 L 1.847656 6.316406 L 1.832031 6.328125 L 1.816406 6.335938 L 1.800781 6.347656 L 1.789062 6.359375 L 1.757812 6.382812 L 1.746094 6.394531 L 1.730469 6.40625 L 1.691406 6.445312 L 1.679688 6.460938 L 1.640625 6.5 L 1.617188 6.53125 L 1.59375 6.558594 L 1.570312 6.589844 L 1.554688 6.621094 L 1.535156 6.652344 L 1.519531 6.679688 L 1.488281 6.742188 L 1.484375 6.757812 L 1.46875 6.789062 L 1.464844 6.804688 L 1.457031 6.824219 L 1.441406 6.886719 L 1.4375 6.90625 L 1.429688 6.9375 L 1.425781 6.957031 L 1.425781 6.972656 L 1.414062 7.078125 L 1.414062 7.109375 L 1.417969 7.171875 L 1.417969 7.203125 L 1.421875 7.230469 L 1.421875 7.246094 L 1.429688 7.277344 L 1.429688 7.292969 L 1.433594 7.304688 L 1.441406 7.335938 L 1.445312 7.347656 L 1.453125 7.378906 L 1.457031 7.390625 L 1.460938 7.40625 L 1.46875 7.421875 L 1.472656 7.433594 L 1.480469 7.449219 L 1.488281 7.460938 L 1.511719 7.515625 L 1.542969 7.570312 L 1.582031 7.621094 L 1.601562 7.648438 L 1.625 7.671875 L 1.632812 7.6875 L 1.703125 7.757812 L 1.714844 7.765625 L 1.726562 7.777344 L 1.742188 7.789062 L 1.753906 7.796875 L 1.765625 7.808594 L 1.78125 7.816406 L 1.792969 7.824219 L 1.847656 7.863281 L 1.878906 7.878906 L 1.933594 7.914062 L 2.019531 7.949219 L 2.0625 7.964844 L 2.109375 7.984375 L 2.195312 8.015625 L 2.21875 8.023438 L 2.238281 8.03125 L 2.285156 8.046875 L 2.328125 8.058594 L 2.375 8.074219 L 2.417969 8.085938 L 2.464844 8.097656 L 2.507812 8.109375 L 2.554688 8.121094 L 2.644531 8.140625 L 2.726562 8.160156 L 2.8125 8.179688 L 2.894531 8.203125 L 2.933594 8.210938 L 2.976562 8.222656 L 3.015625 8.234375 L 3.058594 8.246094 L 3.097656 8.257812 L 3.140625 8.269531 L 3.21875 8.296875 L 3.300781 8.320312 L 3.347656 8.339844 L 3.371094 8.351562 L 3.394531 8.359375 L 3.417969 8.371094 L 3.4375 8.382812 L 3.449219 8.390625 L 3.460938 8.394531 L 3.472656 8.402344 L 3.480469 8.40625 L 3.503906 8.421875 L 3.511719 8.429688 L 3.523438 8.4375 L 3.53125 8.445312 L 3.542969 8.453125 L 3.558594 8.46875 L 3.578125 8.484375 L 3.632812 8.539062 L 3.65625 8.574219 L 3.664062 8.589844 L 3.675781 8.609375 L 3.683594 8.625 L 3.691406 8.636719 L 3.699219 8.652344 L 3.703125 8.664062 L 3.707031 8.671875 L 3.707031 8.679688 L 3.710938 8.691406 L 3.714844 8.699219 L 3.714844 8.710938 L 3.71875 8.71875 L 3.722656 8.738281 L 3.726562 8.761719 L 3.726562 8.78125 L 3.730469 8.800781 L 3.734375 8.839844 L 3.730469 8.882812 L 3.726562 8.90625 L 3.722656 8.925781 L 3.722656 8.945312 L 3.71875 8.96875 L 3.714844 8.976562 L 3.710938 8.988281 L 3.710938 8.996094 L 3.707031 9.007812 L 3.703125 9.015625 L 3.699219 9.027344 L 3.695312 9.035156 L 3.691406 9.046875 L 3.683594 9.066406 L 3.671875 9.082031 L 3.660156 9.101562 L 3.652344 9.121094 L 3.628906 9.15625 L 3.59375 9.195312 L 3.578125 9.210938 L 3.5625 9.230469 L 3.542969 9.246094 L 3.535156 9.253906 L 3.523438 9.261719 L 3.507812 9.277344 L 3.496094 9.285156 L 3.488281 9.292969 L 3.464844 9.308594 L 3.457031 9.3125 L 3.445312 9.320312 L 3.421875 9.332031 L 3.402344 9.34375 L 3.378906 9.351562 L 3.355469 9.363281 L 3.3125 9.382812 L 3.25 9.402344 L 3.222656 9.410156 L 3.191406 9.421875 L 3.128906 9.4375 L 3.113281 9.4375 L 3.097656 9.441406 L 3.085938 9.445312 L 3.070312 9.449219 L 3.054688 9.449219 L 3.039062 9.453125 L 2.976562 9.460938 L 2.945312 9.460938 L 2.914062 9.464844 L 2.746094 9.464844 L 2.710938 9.460938 L 2.671875 9.460938 L 2.636719 9.457031 L 2.621094 9.453125 L 2.601562 9.453125 L 2.582031 9.449219 L 2.566406 9.449219 L 2.546875 9.445312 L 2.53125 9.441406 L 2.511719 9.4375 L 2.496094 9.433594 L 2.476562 9.429688 L 2.460938 9.425781 L 2.441406 9.421875 L 2.425781 9.414062 L 2.390625 9.40625 L 2.320312 9.382812 L 2.253906 9.359375 L 2.199219 9.332031 L 2.171875 9.316406 L 2.148438 9.304688 L 2.121094 9.289062 L 2.097656 9.273438 L 2.082031 9.265625 L 2.046875 9.242188 L 2.035156 9.230469 L 2.023438 9.222656 L 1.992188 9.191406 L 1.980469 9.183594 L 1.972656 9.171875 L 1.941406 9.140625 L 1.882812 9.070312 L 1.855469 9.019531 L 1.839844 8.992188 L 1.828125 8.964844 L 1.8125 8.9375 L 1.808594 8.921875 L 1.800781 8.910156 L 1.796875 8.894531 L 1.789062 8.882812 L 1.785156 8.867188 L 1.78125 8.855469 L 1.773438 8.824219 L 1.769531 8.8125 L 1.757812 8.765625 L 1.75 8.738281 L 1.746094 8.707031 L 1.742188 8.679688 L 1.730469 8.617188 Z M 1.273438 8.65625 "/>
<path fill-rule="nonzero" fill="rgb(100%, 100%, 100%)" fill-opacity="1" d="M 7.769531 8.046875 L 7.773438 7.949219 L 7.777344 7.898438 L 7.78125 7.851562 L 7.785156 7.800781 L 7.789062 7.753906 L 7.792969 7.703125 L 7.796875 7.65625 L 7.804688 7.605469 L 7.804688 7.582031 L 7.820312 7.488281 L 7.828125 7.464844 L 7.835938 7.417969 L 7.84375 7.394531 L 7.847656 7.371094 L 7.855469 7.347656 L 7.859375 7.324219 L 7.867188 7.300781 L 7.875 7.28125 L 7.898438 7.210938 L 7.90625 7.191406 L 7.917969 7.167969 L 7.925781 7.148438 L 7.9375 7.125 L 7.945312 7.105469 L 7.957031 7.082031 L 7.96875 7.0625 L 7.980469 7.039062 L 8.003906 7 L 8.015625 6.976562 L 8.039062 6.9375 L 8.066406 6.894531 L 8.09375 6.855469 L 8.117188 6.8125 L 8.148438 6.773438 L 8.175781 6.734375 L 8.203125 6.691406 L 8.261719 6.613281 L 8.328125 6.554688 L 8.363281 6.527344 L 8.398438 6.496094 L 8.539062 6.386719 L 8.558594 6.375 L 8.574219 6.363281 L 8.613281 6.339844 L 8.628906 6.328125 L 8.6875 6.292969 L 8.703125 6.28125 L 8.722656 6.273438 L 8.742188 6.261719 L 8.761719 6.253906 L 8.78125 6.242188 L 8.878906 6.203125 L 8.902344 6.195312 L 8.921875 6.1875 L 8.941406 6.183594 L 8.960938 6.175781 L 8.984375 6.171875 L 9.003906 6.164062 L 9.023438 6.160156 L 9.046875 6.15625 L 9.066406 6.148438 L 9.089844 6.144531 L 9.109375 6.140625 L 9.132812 6.136719 L 9.152344 6.132812 L 9.175781 6.128906 L 9.21875 6.125 L 9.265625 6.117188 L 9.351562 6.109375 L 9.398438 6.105469 L 9.441406 6.101562 L 9.53125 6.09375 L 9.59375 6.097656 L 9.652344 6.101562 L 9.683594 6.101562 L 9.714844 6.105469 L 9.742188 6.109375 L 9.773438 6.113281 L 9.804688 6.113281 L 9.832031 6.117188 L 9.863281 6.121094 L 9.890625 6.128906 L 9.921875 6.132812 L 9.949219 6.140625 L 9.980469 6.144531 L 10.007812 6.152344 L 10.039062 6.160156 L 10.066406 6.167969 L 10.09375 6.179688 L 10.121094 6.1875 L 10.148438 6.199219 L 10.179688 6.210938 L 10.316406 6.269531 L 10.34375 6.285156 L 10.398438 6.308594 L 10.453125 6.335938 L 10.546875 6.40625 L 10.570312 6.421875 L 10.59375 6.441406 L 10.617188 6.457031 L 10.640625 6.476562 L 10.664062 6.492188 L 10.710938 6.53125 L 10.730469 6.550781 L 10.753906 6.570312 L 10.8125 6.628906 L 10.851562 6.675781 L 10.871094 6.695312 L 10.886719 6.71875 L 10.90625 6.742188 L 10.9375 6.789062 L 10.953125 6.816406 L 10.984375 6.863281 L 11 6.890625 L 11.015625 6.914062 L 11.046875 6.964844 L 11.074219 7.015625 L 11.097656 7.078125 L 11.125 7.136719 L 11.136719 7.164062 L 11.148438 7.195312 L 11.15625 7.226562 L 11.167969 7.253906 L 11.191406 7.316406 L 11.199219 7.34375 L 11.207031 7.375 L 11.21875 7.40625 L 11.234375 7.46875 L 11.238281 7.5 L 11.246094 7.527344 L 11.253906 7.558594 L 11.261719 7.621094 L 11.265625 7.65625 L 11.277344 7.75 L 11.277344 7.78125 L 11.28125 7.8125 L 11.285156 7.875 L 11.289062 7.941406 L 11.289062 8.003906 L 11.285156 8.070312 L 11.285156 8.136719 L 11.28125 8.199219 L 11.277344 8.234375 L 11.273438 8.265625 L 11.273438 8.296875 L 11.269531 8.328125 L 11.265625 8.363281 L 11.261719 8.394531 L 11.253906 8.425781 L 11.25 8.457031 L 11.242188 8.488281 L 11.238281 8.519531 L 11.214844 8.613281 L 11.203125 8.644531 L 11.195312 8.675781 L 11.183594 8.707031 L 11.171875 8.734375 L 11.164062 8.765625 L 11.140625 8.828125 L 11.125 8.855469 L 11.113281 8.886719 L 11.089844 8.945312 L 11.0625 9.007812 L 11.035156 9.058594 L 11.003906 9.109375 L 10.988281 9.132812 L 10.972656 9.160156 L 10.957031 9.183594 L 10.9375 9.207031 L 10.921875 9.234375 L 10.90625 9.257812 L 10.886719 9.28125 L 10.871094 9.304688 L 10.851562 9.324219 L 10.832031 9.347656 L 10.816406 9.371094 L 10.796875 9.390625 L 10.773438 9.410156 L 10.753906 9.433594 L 10.734375 9.453125 L 10.710938 9.46875 L 10.664062 9.507812 L 10.644531 9.527344 L 10.617188 9.542969 L 10.59375 9.558594 L 10.570312 9.578125 L 10.523438 9.609375 L 10.472656 9.644531 L 10.421875 9.675781 L 10.371094 9.703125 L 10.316406 9.726562 L 10.265625 9.75 L 10.183594 9.785156 L 10.15625 9.792969 L 10.128906 9.804688 L 10.101562 9.8125 L 10.074219 9.824219 L 9.964844 9.855469 L 9.933594 9.859375 L 9.90625 9.867188 L 9.878906 9.871094 L 9.847656 9.875 L 9.792969 9.882812 L 9.761719 9.886719 L 9.734375 9.890625 L 9.703125 9.890625 L 9.648438 9.894531 L 9.53125 9.902344 L 9.40625 9.894531 L 9.375 9.894531 L 9.347656 9.890625 L 9.316406 9.890625 L 9.222656 9.878906 L 9.195312 9.875 L 9.164062 9.871094 L 9.136719 9.863281 L 9.105469 9.859375 L 9.074219 9.851562 L 9.019531 9.835938 L 8.988281 9.828125 L 8.960938 9.816406 L 8.933594 9.808594 L 8.902344 9.796875 L 8.820312 9.761719 L 8.792969 9.746094 L 8.738281 9.722656 L 8.710938 9.707031 L 8.601562 9.652344 L 8.550781 9.617188 L 8.503906 9.582031 L 8.480469 9.566406 L 8.457031 9.546875 L 8.433594 9.53125 L 8.386719 9.492188 L 8.367188 9.476562 L 8.320312 9.4375 L 8.238281 9.355469 L 8.222656 9.332031 L 8.203125 9.3125 L 8.183594 9.289062 L 8.167969 9.265625 L 8.148438 9.242188 L 8.117188 9.195312 L 8.101562 9.167969 L 8.070312 9.121094 L 8.054688 9.09375 L 8.039062 9.070312 L 8.007812 9.019531 L 7.980469 8.96875 L 7.957031 8.910156 L 7.910156 8.800781 L 7.902344 8.773438 L 7.878906 8.71875 L 7.871094 8.691406 L 7.863281 8.660156 L 7.851562 8.632812 L 7.835938 8.578125 L 7.828125 8.546875 L 7.820312 8.519531 L 7.816406 8.492188 L 7.808594 8.460938 L 7.804688 8.433594 L 7.800781 8.402344 L 7.796875 8.375 L 7.792969 8.34375 L 7.789062 8.316406 L 7.785156 8.285156 L 7.78125 8.257812 L 7.78125 8.226562 L 7.773438 8.109375 Z M 7.769531 8.046875 "/>
<path fill-rule="nonzero" fill="rgb(100%, 100%, 100%)" fill-opacity="1" d="M 5.804688 9.839844 L 6.292969 9.839844 L 6.292969 6.59375 L 7.511719 6.59375 L 7.511719 6.160156 L 4.59375 6.160156 L 4.59375 6.59375 L 5.804688 6.59375 Z M 5.804688 9.839844 "/>
<path fill-rule="nonzero" fill="rgb(100%, 100%, 100%)" fill-opacity="1" d="M 11.917969 9.839844 L 11.917969 6.160156 L 13.519531 6.160156 L 13.550781 6.164062 L 13.585938 6.164062 L 13.65625 6.171875 L 13.691406 6.171875 L 13.796875 6.183594 L 13.867188 6.195312 L 13.925781 6.207031 L 13.957031 6.214844 L 13.988281 6.21875 L 14.015625 6.226562 L 14.046875 6.234375 L 14.0625 6.242188 L 14.074219 6.246094 L 14.105469 6.253906 L 14.117188 6.261719 L 14.132812 6.265625 L 14.144531 6.273438 L 14.160156 6.277344 L 14.171875 6.285156 L 14.1875 6.292969 L 14.214844 6.304688 L 14.269531 6.335938 L 14.320312 6.367188 L 14.367188 6.402344 L 14.390625 6.421875 L 14.410156 6.441406 L 14.433594 6.460938 L 14.441406 6.472656 L 14.453125 6.480469 L 14.464844 6.492188 L 14.472656 6.503906 L 14.484375 6.511719 L 14.5 6.535156 L 14.511719 6.546875 L 14.542969 6.59375 L 14.558594 6.621094 L 14.574219 6.644531 L 14.589844 6.671875 L 14.617188 6.722656 L 14.640625 6.78125 L 14.675781 6.875 L 14.679688 6.886719 L 14.683594 6.902344 L 14.691406 6.917969 L 14.703125 6.964844 L 14.703125 6.980469 L 14.707031 6.996094 L 14.710938 7.015625 L 14.714844 7.03125 L 14.714844 7.046875 L 14.71875 7.0625 L 14.71875 7.09375 L 14.722656 7.125 L 14.726562 7.160156 L 14.726562 7.222656 L 14.722656 7.277344 L 14.71875 7.335938 L 14.714844 7.363281 L 14.714844 7.386719 L 14.699219 7.496094 L 14.691406 7.523438 L 14.6875 7.546875 L 14.671875 7.601562 L 14.660156 7.636719 L 14.65625 7.652344 L 14.648438 7.675781 L 14.640625 7.6875 L 14.636719 7.699219 L 14.601562 7.769531 L 14.570312 7.816406 L 14.558594 7.839844 L 14.527344 7.886719 L 14.511719 7.90625 L 14.496094 7.929688 L 14.460938 7.976562 L 14.429688 8.019531 L 14.371094 8.0625 L 14.246094 8.140625 L 14.21875 8.160156 L 14.1875 8.179688 L 14.125 8.210938 L 14.105469 8.21875 L 14.027344 8.257812 L 14.011719 8.261719 L 13.992188 8.269531 L 13.976562 8.273438 L 13.960938 8.28125 L 13.941406 8.285156 L 13.910156 8.292969 L 13.890625 8.296875 L 13.875 8.300781 L 13.855469 8.304688 L 13.824219 8.3125 L 13.804688 8.316406 L 13.789062 8.320312 L 13.75 8.324219 L 13.644531 8.335938 L 13.609375 8.335938 L 13.570312 8.339844 L 13.496094 8.339844 L 13.421875 8.34375 L 12.40625 8.34375 L 12.40625 9.839844 Z M 11.917969 9.839844 "/>
<path fill-rule="nonzero" fill="rgb(80%, 0%, 0%)" fill-opacity="1" d="M 12.40625 6.59375 L 13.523438 6.59375 L 13.554688 6.597656 L 13.597656 6.597656 L 13.613281 6.601562 L 13.636719 6.601562 L 13.691406 6.609375 L 13.714844 6.613281 L 13.730469 6.613281 L 13.742188 6.617188 L 13.757812 6.617188 L 13.773438 6.621094 L 13.785156 6.625 L 13.800781 6.625 L 13.824219 6.632812 L 13.847656 6.644531 L 13.871094 6.652344 L 13.890625 6.660156 L 13.902344 6.667969 L 13.925781 6.675781 L 13.933594 6.683594 L 13.945312 6.6875 L 13.957031 6.695312 L 13.964844 6.699219 L 13.976562 6.707031 L 13.992188 6.722656 L 14.003906 6.730469 L 14.027344 6.753906 L 14.046875 6.769531 L 14.0625 6.789062 L 14.078125 6.804688 L 14.109375 6.84375 L 14.125 6.867188 L 14.160156 6.9375 L 14.167969 6.949219 L 14.175781 6.972656 L 14.183594 6.984375 L 14.207031 7.054688 L 14.207031 7.070312 L 14.214844 7.09375 L 14.214844 7.109375 L 14.21875 7.132812 L 14.222656 7.160156 L 14.222656 7.1875 L 14.226562 7.238281 L 14.222656 7.273438 L 14.222656 7.308594 L 14.21875 7.34375 L 14.214844 7.363281 L 14.214844 7.378906 L 14.210938 7.394531 L 14.207031 7.414062 L 14.203125 7.429688 L 14.203125 7.445312 L 14.195312 7.460938 L 14.191406 7.476562 L 14.1875 7.496094 L 14.179688 7.511719 L 14.175781 7.523438 L 14.152344 7.570312 L 14.144531 7.582031 L 14.136719 7.597656 L 14.125 7.609375 L 14.117188 7.625 L 14.105469 7.636719 L 14.097656 7.652344 L 14.085938 7.664062 L 14.074219 7.679688 L 14.0625 7.691406 L 14.050781 7.707031 L 14.039062 7.71875 L 14.027344 7.734375 L 14.007812 7.746094 L 13.984375 7.757812 L 13.925781 7.792969 L 13.90625 7.800781 L 13.886719 7.8125 L 13.867188 7.820312 L 13.847656 7.832031 L 13.828125 7.839844 L 13.8125 7.847656 L 13.773438 7.863281 L 13.75 7.867188 L 13.730469 7.875 L 13.710938 7.878906 L 13.6875 7.882812 L 13.667969 7.890625 L 13.644531 7.890625 L 13.625 7.894531 L 13.601562 7.898438 L 13.582031 7.902344 L 13.558594 7.902344 L 13.535156 7.90625 L 13.492188 7.90625 L 13.445312 7.910156 L 12.40625 7.910156 Z M 12.40625 6.59375 "/>
<path fill-rule="nonzero" fill="rgb(80%, 0%, 0%)" fill-opacity="1" d="M 8.644531 6.867188 L 8.691406 6.828125 L 8.742188 6.792969 L 8.765625 6.773438 L 8.792969 6.753906 L 8.816406 6.734375 L 8.84375 6.71875 L 8.867188 6.703125 L 8.894531 6.683594 L 8.917969 6.667969 L 8.945312 6.652344 L 8.972656 6.640625 L 8.984375 6.632812 L 9 6.625 L 9.011719 6.621094 L 9.027344 6.613281 L 9.039062 6.609375 L 9.054688 6.601562 L 9.066406 6.597656 L 9.082031 6.589844 L 9.097656 6.585938 L 9.109375 6.582031 L 9.140625 6.574219 L 9.167969 6.566406 L 9.199219 6.558594 L 9.226562 6.550781 L 9.257812 6.546875 L 9.289062 6.539062 L 9.316406 6.535156 L 9.410156 6.523438 L 9.472656 6.519531 L 9.535156 6.511719 L 9.664062 6.523438 L 9.6875 6.523438 L 9.707031 6.527344 L 9.730469 6.53125 L 9.75 6.53125 L 9.773438 6.535156 L 9.8125 6.542969 L 9.835938 6.546875 L 9.855469 6.550781 L 9.875 6.558594 L 9.898438 6.5625 L 10.035156 6.617188 L 10.054688 6.628906 L 10.074219 6.636719 L 10.152344 6.675781 L 10.191406 6.699219 L 10.226562 6.726562 L 10.261719 6.75 L 10.28125 6.765625 L 10.296875 6.777344 L 10.3125 6.792969 L 10.332031 6.804688 L 10.347656 6.820312 L 10.363281 6.832031 L 10.410156 6.878906 L 10.425781 6.890625 L 10.4375 6.910156 L 10.453125 6.925781 L 10.464844 6.941406 L 10.480469 6.957031 L 10.492188 6.976562 L 10.503906 6.992188 L 10.515625 7.011719 L 10.527344 7.027344 L 10.550781 7.066406 L 10.5625 7.082031 L 10.574219 7.101562 L 10.59375 7.140625 L 10.617188 7.179688 L 10.636719 7.21875 L 10.644531 7.242188 L 10.65625 7.269531 L 10.726562 7.480469 L 10.730469 7.503906 L 10.738281 7.527344 L 10.742188 7.550781 L 10.75 7.578125 L 10.761719 7.648438 L 10.765625 7.675781 L 10.769531 7.699219 L 10.773438 7.726562 L 10.773438 7.75 L 10.777344 7.773438 L 10.777344 7.800781 L 10.785156 7.902344 L 10.785156 7.953125 L 10.789062 8.003906 L 10.78125 8.152344 L 10.777344 8.1875 L 10.777344 8.226562 L 10.769531 8.296875 L 10.765625 8.335938 L 10.761719 8.371094 L 10.753906 8.40625 L 10.75 8.441406 L 10.746094 8.460938 L 10.742188 8.476562 L 10.738281 8.496094 L 10.734375 8.511719 L 10.730469 8.53125 L 10.726562 8.546875 L 10.71875 8.566406 L 10.714844 8.582031 L 10.710938 8.601562 L 10.703125 8.617188 L 10.699219 8.632812 L 10.691406 8.648438 L 10.6875 8.667969 L 10.640625 8.761719 L 10.632812 8.78125 L 10.617188 8.8125 L 10.597656 8.84375 L 10.582031 8.875 L 10.542969 8.9375 L 10.519531 8.96875 L 10.5 9 L 10.476562 9.035156 L 10.457031 9.066406 L 10.433594 9.101562 L 10.382812 9.144531 L 10.359375 9.164062 L 10.332031 9.1875 L 10.285156 9.226562 L 10.257812 9.246094 L 10.210938 9.285156 L 10.183594 9.304688 L 10.15625 9.320312 L 10.132812 9.335938 L 10.117188 9.34375 L 10.105469 9.351562 L 10.089844 9.359375 L 10.078125 9.367188 L 10.0625 9.375 L 10.050781 9.378906 L 10.035156 9.386719 L 10.023438 9.394531 L 9.992188 9.402344 L 9.980469 9.410156 L 9.949219 9.417969 L 9.933594 9.425781 L 9.921875 9.429688 L 9.875 9.441406 L 9.84375 9.445312 L 9.8125 9.453125 L 9.78125 9.457031 L 9.75 9.464844 L 9.65625 9.476562 L 9.625 9.476562 L 9.589844 9.480469 L 9.527344 9.488281 L 9.464844 9.480469 L 9.429688 9.476562 L 9.398438 9.476562 L 9.335938 9.46875 L 9.304688 9.460938 L 9.242188 9.453125 L 9.210938 9.445312 L 9.183594 9.441406 L 9.136719 9.429688 L 9.121094 9.421875 L 9.109375 9.417969 L 9.078125 9.410156 L 9.066406 9.402344 L 9.035156 9.394531 L 9.023438 9.386719 L 9.007812 9.378906 L 8.996094 9.375 L 8.980469 9.367188 L 8.96875 9.359375 L 8.953125 9.351562 L 8.929688 9.335938 L 8.914062 9.328125 L 8.902344 9.320312 L 8.875 9.304688 L 8.851562 9.285156 L 8.824219 9.265625 L 8.800781 9.25 L 8.777344 9.230469 L 8.75 9.207031 L 8.679688 9.148438 L 8.628906 9.105469 L 8.605469 9.074219 L 8.585938 9.042969 L 8.5625 9.011719 L 8.523438 8.949219 L 8.5 8.917969 L 8.484375 8.890625 L 8.445312 8.828125 L 8.429688 8.800781 L 8.382812 8.707031 L 8.378906 8.691406 L 8.363281 8.660156 L 8.359375 8.644531 L 8.351562 8.628906 L 8.347656 8.613281 L 8.34375 8.59375 L 8.335938 8.578125 L 8.328125 8.546875 L 8.324219 8.527344 L 8.316406 8.496094 L 8.3125 8.476562 L 8.304688 8.445312 L 8.277344 8.199219 L 8.273438 8.125 L 8.269531 8.054688 L 8.273438 7.972656 L 8.273438 7.933594 L 8.277344 7.894531 L 8.277344 7.851562 L 8.28125 7.8125 L 8.28125 7.773438 L 8.285156 7.730469 L 8.296875 7.613281 L 8.324219 7.476562 L 8.328125 7.460938 L 8.332031 7.441406 L 8.339844 7.421875 L 8.34375 7.402344 L 8.351562 7.386719 L 8.355469 7.367188 L 8.363281 7.347656 L 8.367188 7.332031 L 8.375 7.3125 L 8.382812 7.296875 L 8.390625 7.277344 L 8.40625 7.246094 L 8.414062 7.226562 L 8.425781 7.210938 L 8.433594 7.195312 L 8.441406 7.175781 L 8.453125 7.160156 L 8.460938 7.144531 L 8.472656 7.128906 L 8.480469 7.109375 L 8.492188 7.09375 L 8.5 7.078125 L 8.511719 7.058594 L 8.535156 7.027344 L 8.546875 7.007812 L 8.570312 6.976562 L 8.582031 6.957031 L 8.59375 6.941406 L 8.605469 6.921875 L 8.617188 6.90625 L 8.632812 6.886719 Z M 8.644531 6.867188 "/>
</svg>
