<?xml version="1.0" encoding="UTF-8"?>
<svg xmlns="http://www.w3.org/2000/svg" xmlns:xlink="http://www.w3.org/1999/xlink" width="22.27109" height="19" viewBox="0 0 22.27109 19">
<path fill-rule="nonzero" fill="rgb(100%, 56.470591%, 38.82353%)" fill-opacity="1" stroke-width="0.5" stroke-linecap="butt" stroke-linejoin="miter" stroke="rgb(100%, 100%, 100%)" stroke-opacity="1" stroke-miterlimit="4" d="M 19.997087 0.392948 C 13.331391 0.400158 6.806292 0.353293 0.544359 0.335268 C 3.637473 5.782464 7.062249 11.467592 10.155362 16.921998 Z M 19.997087 0.392948 " transform="matrix(1.083556, 0, 0, 1.083556, 0, 0)"/>
<path fill="none" stroke-width="0.576324" stroke-linecap="butt" stroke-linejoin="miter" stroke="rgb(0%, 0%, 0%)" stroke-opacity="1" stroke-miterlimit="4" d="M 20.047557 0.346083 C 13.345811 0.360503 6.791872 0.310032 0.493889 0.288402 C 3.601422 5.771649 7.047828 11.485617 10.155362 16.961654 Z M 20.047557 0.346083 " transform="matrix(1.083556, 0, 0, 1.083556, 0, 0)"/>
<path fill-rule="nonzero" fill="rgb(100%, 100%, 100%)" fill-opacity="1" stroke-width="0.422866" stroke-linecap="butt" stroke-linejoin="bevel" stroke="rgb(0%, 0%, 0%)" stroke-opacity="1" stroke-miterlimit="3" d="M 16.247858 4.095311 C 16.247858 5.515692 13.572928 6.665696 10.274328 6.665696 C 6.975728 6.665696 4.304403 5.515692 4.304403 4.095311 C 4.304403 2.678535 6.975728 1.528532 10.274328 1.528532 C 13.572928 1.528532 16.247858 2.678535 16.247858 4.095311 Z M 16.247858 4.095311 " transform="matrix(1.083556, 0, 0, 1.083556, 0, 0)"/>
<path fill-rule="nonzero" fill="rgb(95.294118%, 92.54902%, 43.137255%)" fill-opacity="1" stroke-width="0.3" stroke-linecap="butt" stroke-linejoin="bevel" stroke="rgb(0%, 0%, 0%)" stroke-opacity="1" stroke-miterlimit="3" d="M 12.646436 4.095311 C 12.646436 5.407541 11.586558 6.467419 10.274328 6.467419 C 8.965703 6.467419 7.90222 5.407541 7.90222 4.095311 C 7.90222 2.786686 8.965703 1.723203 10.274328 1.723203 C 11.586558 1.723203 12.646436 2.786686 12.646436 4.095311 Z M 12.646436 4.095311 " transform="matrix(1.083556, 0, 0, 1.083556, 0, 0)"/>
</svg>
