<?xml version="1.0" encoding="UTF-8"?>
<svg xmlns="http://www.w3.org/2000/svg" xmlns:xlink="http://www.w3.org/1999/xlink" width="8.128907" height="18" viewBox="0 0 8.128907 18">
<path fill-rule="nonzero" fill="rgb(0%, 0%, 0%)" fill-opacity="1" d="M 0 0 L 8.132812 0 L 8.132812 18 L 0 18 Z M 0 0 "/>
<path fill-rule="nonzero" fill="rgb(0%, 86.27451%, 1.960784%)" fill-opacity="1" d="M 7.542969 2.378906 C 7.542969 3.167969 6.914062 3.800781 6.132812 3.800781 C 5.34375 3.800781 4.710938 3.167969 4.710938 2.378906 C 4.710938 1.601562 5.34375 0.96875 6.132812 0.96875 C 6.914062 0.96875 7.542969 1.601562 7.542969 2.378906 Z M 7.542969 2.378906 "/>
<path fill-rule="nonzero" fill="rgb(0%, 100%, 0%)" fill-opacity="1" d="M 7.195312 7.359375 C 7.195312 7.957031 6.722656 8.425781 6.128906 8.425781 C 5.539062 8.425781 5.058594 7.957031 5.058594 7.359375 C 5.058594 6.769531 5.539062 6.292969 6.128906 6.292969 C 6.722656 6.292969 7.195312 6.769531 7.195312 7.359375 Z M 7.195312 7.359375 "/>
</svg>
