<?xml version="1.0" encoding="UTF-8"?>
<svg xmlns="http://www.w3.org/2000/svg" xmlns:xlink="http://www.w3.org/1999/xlink" width="8.304941" height="26" viewBox="0 0 8.304941 26">
<path fill-rule="nonzero" fill="rgb(0%, 0%, 0%)" fill-opacity="1" d="M 0 7.617188 L 8.304688 7.617188 L 8.304688 26 L 0 26 Z M 0 7.617188 "/>
<path fill-rule="nonzero" fill="rgb(0%, 86.27451%, 1.960784%)" fill-opacity="1" d="M 7.703125 10.050781 C 7.703125 10.851562 7.058594 11.5 6.265625 11.5 C 5.457031 11.5 4.808594 10.851562 4.808594 10.050781 C 4.808594 9.257812 5.457031 8.609375 6.265625 8.609375 C 7.058594 8.609375 7.703125 9.257812 7.703125 10.050781 Z M 7.703125 10.050781 "/>
<path fill-rule="nonzero" fill="rgb(0%, 0%, 0%)" fill-opacity="1" d="M 0.601562 0 L 7.703125 0 L 7.703125 7.105469 L 0.601562 7.105469 Z M 0.601562 0 "/>
<path fill-rule="nonzero" fill="rgb(100%, 100%, 100%)" fill-opacity="1" d="M 5.6875 1.269531 L 6.433594 1.269531 L 6.433594 5.835938 L 5.6875 5.835938 Z M 5.6875 1.269531 "/>
<path fill-rule="nonzero" fill="rgb(100%, 100%, 100%)" fill-opacity="1" d="M 3.195312 5.210938 C 3.195312 5.558594 2.917969 5.835938 2.570312 5.835938 C 2.230469 5.835938 1.949219 5.558594 1.949219 5.210938 C 1.949219 4.871094 2.230469 4.589844 2.570312 4.589844 C 2.917969 4.589844 3.195312 4.871094 3.195312 5.210938 Z M 3.195312 5.210938 "/>
</svg>
