<?xml version="1.0" encoding="UTF-8"?>
<svg xmlns="http://www.w3.org/2000/svg" xmlns:xlink="http://www.w3.org/1999/xlink" width="8.484748" height="26" viewBox="0 0 8.484748 26">
<path fill-rule="nonzero" fill="rgb(0%, 0%, 0%)" fill-opacity="1" d="M 0 7.210938 L 8.484375 7.210938 L 8.484375 26 L 0 26 Z M 0 7.210938 "/>
<path fill-rule="nonzero" fill="rgb(100%, 100%, 100%)" fill-opacity="1" d="M 3.351562 17.011719 C 3.351562 17.613281 2.863281 18.09375 2.265625 18.09375 C 1.664062 18.09375 1.175781 17.613281 1.175781 17.011719 C 1.175781 16.410156 1.664062 15.925781 2.265625 15.925781 C 2.863281 15.925781 3.351562 16.410156 3.351562 17.011719 Z M 3.351562 17.011719 "/>
<path fill-rule="nonzero" fill="rgb(100%, 100%, 100%)" fill-opacity="1" d="M 3.351562 10.292969 C 3.351562 10.890625 2.863281 11.375 2.265625 11.375 C 1.664062 11.375 1.175781 10.890625 1.175781 10.292969 C 1.175781 9.6875 1.664062 9.203125 2.265625 9.203125 C 2.863281 9.203125 3.351562 9.6875 3.351562 10.292969 Z M 3.351562 10.292969 "/>
<path fill-rule="nonzero" fill="rgb(0%, 0%, 0%)" fill-opacity="1" d="M 0.78125 0 L 7.703125 0 L 7.703125 6.921875 L 0.78125 6.921875 Z M 0.78125 0 "/>
<path fill-rule="nonzero" fill="rgb(100%, 100%, 100%)" fill-opacity="1" d="M 2.433594 3.304688 L 2.863281 3.304688 L 2.863281 5.886719 L 2.433594 5.886719 Z M 2.433594 3.304688 "/>
<path fill-rule="nonzero" fill="rgb(100%, 100%, 100%)" fill-opacity="1" d="M 4.691406 1.035156 L 4.996094 1.339844 L 3.167969 3.164062 L 2.863281 2.863281 Z M 4.691406 1.035156 "/>
</svg>
