<?xml version="1.0" encoding="UTF-8"?>
<svg xmlns="http://www.w3.org/2000/svg" xmlns:xlink="http://www.w3.org/1999/xlink" width="8.487065" height="18" viewBox="0 0 8.487065 18">
<path fill-rule="nonzero" fill="rgb(0%, 0%, 0%)" fill-opacity="1" stroke-width="1" stroke-linecap="butt" stroke-linejoin="miter" stroke="rgb(100%, 100%, 100%)" stroke-opacity="1" stroke-miterlimit="4" d="M 0.502603 0.502603 L 12.49926 0.502603 L 12.49926 27.068766 L 0.502603 27.068766 Z M 0.502603 0.502603 " transform="matrix(0.652851, 0, 0, 0.652851, 0, 0)"/>
<path fill-rule="nonzero" fill="rgb(100%, 100%, 100%)" fill-opacity="1" d="M 3.421875 9.371094 C 3.421875 9.929688 2.972656 10.375 2.417969 10.375 C 1.863281 10.375 1.414062 9.929688 1.414062 9.371094 C 1.414062 8.820312 1.863281 8.371094 2.417969 8.371094 C 2.972656 8.371094 3.421875 8.820312 3.421875 9.371094 Z M 3.421875 9.371094 "/>
<path fill-rule="nonzero" fill="rgb(100%, 100%, 100%)" fill-opacity="1" d="M 3.421875 3.167969 C 3.421875 3.722656 2.972656 4.171875 2.417969 4.171875 C 1.863281 4.171875 1.414062 3.722656 1.414062 3.167969 C 1.414062 2.613281 1.863281 2.164062 2.417969 2.164062 C 2.972656 2.164062 3.421875 2.613281 3.421875 3.167969 Z M 3.421875 3.167969 "/>
</svg>
