<?xml version="1.0" encoding="UTF-8"?>
<svg xmlns="http://www.w3.org/2000/svg" xmlns:xlink="http://www.w3.org/1999/xlink" width="8.128378" height="18" viewBox="0 0 8.128378 18">
<path fill-rule="nonzero" fill="rgb(0%, 0%, 0%)" fill-opacity="1" d="M 0 0 L 8.128906 0 L 8.128906 18 L 0 18 Z M 0 0 "/>
<path fill-rule="nonzero" fill="rgb(100%, 100%, 100%)" fill-opacity="1" d="M 3.210938 9.386719 C 3.210938 9.964844 2.746094 10.425781 2.167969 10.425781 C 1.59375 10.425781 1.128906 9.964844 1.128906 9.386719 C 1.128906 8.8125 1.59375 8.347656 2.167969 8.347656 C 2.746094 8.347656 3.210938 8.8125 3.210938 9.386719 Z M 3.210938 9.386719 "/>
<path fill-rule="nonzero" fill="rgb(0%, 100%, 0%)" fill-opacity="1" d="M 7.363281 7.132812 C 7.363281 7.710938 6.898438 8.171875 6.324219 8.171875 C 5.746094 8.171875 5.28125 7.710938 5.28125 7.132812 C 5.28125 6.558594 5.746094 6.09375 6.324219 6.09375 C 6.898438 6.09375 7.363281 6.558594 7.363281 7.132812 Z M 7.363281 7.132812 "/>
<path fill-rule="nonzero" fill="rgb(100%, 100%, 100%)" fill-opacity="1" d="M 3.210938 2.949219 C 3.210938 3.523438 2.746094 3.988281 2.167969 3.988281 C 1.59375 3.988281 1.128906 3.523438 1.128906 2.949219 C 1.128906 2.371094 1.59375 1.90625 2.167969 1.90625 C 2.746094 1.90625 3.210938 2.371094 3.210938 2.949219 Z M 3.210938 2.949219 "/>
</svg>
