<?xml version="1.0" encoding="UTF-8"?>
<svg xmlns="http://www.w3.org/2000/svg" xmlns:xlink="http://www.w3.org/1999/xlink" width="8.128906" height="18" viewBox="0 0 8.128906 18">
<path fill-rule="nonzero" fill="rgb(0%, 0%, 0%)" fill-opacity="1" d="M 0 0 L 8.128906 0 L 8.128906 18 L 0 18 Z M 0 0 "/>
<path fill-rule="nonzero" fill="rgb(100%, 100%, 100%)" fill-opacity="1" d="M 3.210938 9.386719 C 3.210938 9.964844 2.746094 10.425781 2.167969 10.425781 C 1.59375 10.425781 1.128906 9.964844 1.128906 9.386719 C 1.128906 8.8125 1.59375 8.347656 2.167969 8.347656 C 2.746094 8.347656 3.210938 8.8125 3.210938 9.386719 Z M 3.210938 9.386719 "/>
<path fill-rule="nonzero" fill="rgb(100%, 0%, 0%)" fill-opacity="1" d="M 3.515625 15.304688 C 3.515625 16.050781 2.914062 16.648438 2.167969 16.648438 C 1.425781 16.648438 0.824219 16.050781 0.824219 15.304688 C 0.824219 14.558594 1.425781 13.957031 2.167969 13.957031 C 2.914062 13.957031 3.515625 14.558594 3.515625 15.304688 Z M 3.515625 15.304688 "/>
<path fill-rule="nonzero" fill="rgb(100%, 100%, 100%)" fill-opacity="1" d="M 7.394531 5.734375 C 7.394531 6.308594 6.929688 6.773438 6.351562 6.773438 C 5.777344 6.773438 5.3125 6.308594 5.3125 5.734375 C 5.3125 5.15625 5.777344 4.691406 6.351562 4.691406 C 6.929688 4.691406 7.394531 5.15625 7.394531 5.734375 Z M 7.394531 5.734375 "/>
</svg>
