<?xml version="1.0" encoding="UTF-8"?>
<svg xmlns="http://www.w3.org/2000/svg" xmlns:xlink="http://www.w3.org/1999/xlink" width="18.079421" height="18" viewBox="0 0 18.079421 18">
<path fill-rule="nonzero" fill="rgb(0%, 0%, 0%)" fill-opacity="0.960784" d="M 1.351562 0 L 0 1.351562 L 0 16.640625 L 1.351562 18 L 16.726562 18 L 18.078125 16.640625 L 18.078125 1.351562 L 16.726562 0 Z M 1.351562 0 "/>
<path fill-rule="nonzero" fill="rgb(100%, 100%, 100%)" fill-opacity="1" d="M 16.703125 3.542969 C 16.703125 4.703125 15.761719 5.636719 14.59375 5.636719 C 13.441406 5.636719 12.5 4.703125 12.5 3.542969 C 12.5 2.378906 13.441406 1.445312 14.59375 1.445312 C 15.761719 1.445312 16.703125 2.378906 16.703125 3.542969 Z M 16.703125 3.542969 "/>
<path fill-rule="nonzero" fill="rgb(100%, 100%, 100%)" fill-opacity="1" d="M 5.605469 14.542969 C 5.605469 15.703125 4.667969 16.640625 3.5 16.640625 C 2.347656 16.640625 1.40625 15.703125 1.40625 14.542969 C 1.40625 13.378906 2.347656 12.445312 3.5 12.445312 C 4.667969 12.445312 5.605469 13.378906 5.605469 14.542969 Z M 5.605469 14.542969 "/>
</svg>
