<?xml version="1.0" encoding="UTF-8" standalone="no"?>
<!-- Created with Inkscape (http://www.inkscape.org/) -->

<svg
   width="15.999999"
   height="15.999999"
   viewBox="0 0 4.233333 4.2333331"
   version="1.1"
   id="svg1"
   xmlns="http://www.w3.org/2000/svg"
   xmlns:svg="http://www.w3.org/2000/svg">
  <defs
     id="defs1">
    <rect
       x="30.000002"
       y="84"
       width="119.99999"
       height="132"
       id="rect1" />
    <rect
       x="30.000002"
       y="84"
       width="119.99999"
       height="132"
       id="rect1-2" />
  </defs>
  <g
     id="layer1"
     transform="translate(-151.87083,-144.19792)">
    <rect
       style="fill:#d40000;fill-opacity:1;stroke-width:0.564443;stroke-miterlimit:5"
       id="rect8-5"
       width="4.2333331"
       height="4.2333331"
       x="151.87083"
       y="144.19792" />
    <rect
       style="fill:#ffffff;fill-opacity:1;stroke-width:0.564443;stroke-miterlimit:5"
       id="rect9-5"
       width="3.3866665"
       height="3.3866665"
       x="152.29417"
       y="144.62125" />
    <path
       d="m 36,85.5 h -2.625 l 2.4375,-3.2625 c 0.35625,-0.45 0.5625,-0.99375 0.5625,-1.6125 0,-1.44375 -1.18125,-2.625 -2.625,-2.625 -1.4625,0 -2.625,1.18125 -2.625,2.625 h 1.5 c 0,-0.61875 0.4875,-1.125 1.125,-1.125 0.61875,0 1.125,0.50625 1.125,1.125 0,0.2625 -0.05625,0.45 -0.24375,0.675 L 31.125,86.025 V 87 H 36 Z m 4.2375,-6 h 3.13125 V 78 h -4.5 l -0.375,4.5 h 2.25 c 0.825,0 1.5,0.65625 1.5,1.5 0,0.84375 -0.675,1.5 -1.5,1.5 C 40.65,85.5 40.575,85.5 40.5,85.48125 l -2.23125,-0.3375 -0.13125,1.5 2.1375,0.3375 C 40.425,87 40.575,87 40.74375,87 c 1.65,0 3,-1.35 3,-3 0,-1.65 -1.35,-3 -3,-3 -0.225,0 -0.43125,0.0375 -0.6375,0.075 z"
       id="text1-1"
       style="-inkscape-font-specification:drogowskaz;stroke-width:1.6;stroke-miterlimit:5"
       transform="matrix(0.20696299,0,0,0.20696299,146.23997,129.24014)"
       aria-label="25" />
  </g>
</svg>
