<?xml version="1.0" encoding="UTF-8" standalone="no"?>
<!-- Created with Inkscape (http://www.inkscape.org/) -->

<svg
   width="15.999999"
   height="15.999999"
   viewBox="0 0 4.233333 4.2333331"
   version="1.1"
   id="svg1"
   xmlns="http://www.w3.org/2000/svg"
   xmlns:svg="http://www.w3.org/2000/svg">
  <defs
     id="defs1">
    <rect
       x="30.000002"
       y="84"
       width="119.99999"
       height="132"
       id="rect3" />
    <rect
       x="30.000002"
       y="84"
       width="119.99999"
       height="132"
       id="rect3-1" />
  </defs>
  <g
     id="layer1"
     transform="translate(-51.59375,-80.697914)">
    <rect
       style="fill:#d40000;fill-opacity:1;stroke-width:0.564443;stroke-miterlimit:5"
       id="rect8"
       width="4.2333331"
       height="4.2333331"
       x="51.59375"
       y="80.697914" />
    <rect
       style="fill:#ffffff;fill-opacity:1;stroke-width:0.564443;stroke-miterlimit:5"
       id="rect9"
       width="3.3866665"
       height="3.3866665"
       x="52.017078"
       y="81.121246" />
    <path
       d="m 33.1125,79.5 h 3.13125 V 78 h -4.5 l -0.375,4.5 h 2.25 c 0.825,0 1.5,0.65625 1.5,1.5 0,0.84375 -0.675,1.5 -1.5,1.5 -0.09375,0 -0.16875,0 -0.24375,-0.01875 l -2.23125,-0.3375 -0.13125,1.5 2.1375,0.3375 C 33.3,87 33.45,87 33.61875,87 c 1.65,0 3,-1.35 3,-3 0,-1.65 -1.35,-3 -3,-3 -0.225,0 -0.43125,0.0375 -0.6375,0.075 z m 6.20625,3 c 0,-0.76875 0.13125,-1.51875 0.375,-2.2125 0.15,-0.45 0.6,-0.7875 1.125,-0.7875 0.50625,0 0.95625,0.3375 1.10625,0.7875 0.24375,0.69375 0.39375,1.44375 0.39375,2.2125 0,0.7875 -0.15,1.5375 -0.39375,2.23125 -0.15,0.45 -0.6,0.76875 -1.10625,0.76875 -0.525,0 -0.975,-0.31875 -1.125,-0.76875 C 39.45,84.0375 39.31875,83.2875 39.31875,82.5 Z m -1.5,0 c 0,0.975 0.20625,1.9125 0.525,2.775 C 38.7,86.2875 39.675,87 40.81875,87 c 1.125,0 2.1,-0.7125 2.45625,-1.725 0.31875,-0.8625 0.54375,-1.8 0.54375,-2.775 0,-0.95625 -0.225,-1.89375 -0.54375,-2.75625 C 42.91875,78.73125 41.94375,78 40.81875,78 39.675,78 38.7,78.73125 38.34375,79.74375 c -0.31875,0.8625 -0.525,1.8 -0.525,2.75625 z"
       id="text3"
       style="-inkscape-font-specification:'drogowskaz Semi-Bold';stroke-width:40;stroke-miterlimit:5"
       transform="matrix(0.20696296,0,0,0.20696296,45.966766,65.740139)"
       aria-label="50" />
  </g>
</svg>
