<?xml version="1.0" encoding="UTF-8" standalone="no"?>
<!-- Created with Inkscape (http://www.inkscape.org/) -->

<svg
   width="15.999999"
   height="15.999999"
   viewBox="0 0 4.233333 4.2333331"
   version="1.1"
   id="svg1"
   xmlns="http://www.w3.org/2000/svg"
   xmlns:svg="http://www.w3.org/2000/svg">
  <defs
     id="defs1">
    <rect
       x="30.000002"
       y="84"
       width="119.99999"
       height="132"
       id="rect1" />
    <rect
       x="30.000002"
       y="84"
       width="119.99999"
       height="132"
       id="rect1-2" />
    <rect
       x="30.000002"
       y="84"
       width="119.99999"
       height="132"
       id="rect1-1" />
    <rect
       x="30.000002"
       y="84"
       width="119.99999"
       height="132"
       id="rect1-6" />
    <rect
       x="30.000002"
       y="84"
       width="119.99999"
       height="132"
       id="rect1-3" />
    <rect
       x="30.000002"
       y="84"
       width="119.99999"
       height="66.000008"
       id="rect2" />
    <rect
       x="30.000002"
       y="84"
       width="119.99999"
       height="66.000008"
       id="rect2-8" />
  </defs>
  <g
     id="layer1"
     transform="translate(-151.87083,-144.19792)">
    <rect
       style="fill:#d40000;fill-opacity:1;stroke-width:0.564443;stroke-miterlimit:5"
       id="rect8"
       width="4.2333331"
       height="4.2333331"
       x="151.87083"
       y="144.19792" />
    <rect
       style="fill:#ffffff;fill-opacity:1;stroke-width:0.564443;stroke-miterlimit:5"
       id="rect9"
       width="3.3866665"
       height="3.3866665"
       x="152.29416"
       y="144.62126" />
    <path
       d="m 35.34375,84.1875 c 0,0.84375 -0.675,1.5 -1.5,1.5 -0.84375,0 -1.5,-0.65625 -1.5,-1.5 0,-0.825 0.65625,-1.5 1.5,-1.5 0.825,0 1.5,0.675 1.5,1.5 z m 1.125,-3.75 c 0,-1.44375 -1.18125,-2.625 -2.625,-2.625 -1.44375,0 -2.625,1.18125 -2.625,2.625 0,0.6 0.1875,1.14375 0.525,1.575 -0.5625,0.5625 -0.9,1.33125 -0.9,2.175 0,1.66875 1.33125,3 3,3 1.65,0 3,-1.33125 3,-3 0,-0.84375 -0.35625,-1.6125 -0.91875,-2.175 0.3375,-0.43125 0.54375,-0.975 0.54375,-1.575 z m -2.625,1.125 c -0.61875,0 -1.125,-0.50625 -1.125,-1.125 0,-0.61875 0.50625,-1.125 1.125,-1.125 0.61875,0 1.125,0.50625 1.125,1.125 0,0.61875 -0.50625,1.125 -1.125,1.125 z M 40.781255,79.5 h 3.13125 V 78 h -4.5 l -0.375,4.5 h 2.25 c 0.825,0 1.5,0.65625 1.5,1.5 0,0.84375 -0.675,1.5 -1.5,1.5 -0.09375,0 -0.16875,0 -0.24375,-0.01875 l -2.23125,-0.3375 -0.13125,1.5 2.1375,0.3375 c 0.15,0.01875 0.3,0.01875 0.46875,0.01875 1.65,0 3,-1.35 3,-3 0,-1.65 -1.35,-3 -3,-3 -0.225,0 -0.43125,0.0375 -0.6375,0.075 z"
       id="text2"
       style="-inkscape-font-specification:drogowskaz;stroke-width:1.6;stroke-miterlimit:5"
       transform="matrix(0.20696295,0,0,0.20696295,146.21279,129.24015)"
       aria-label="85" />
  </g>
</svg>
