<?xml version="1.0" encoding="UTF-8" standalone="no"?>
<!-- Created with Inkscape (http://www.inkscape.org/) -->

<svg
   width="15.999999"
   height="15.999999"
   viewBox="0 0 4.233333 4.2333331"
   version="1.1"
   id="svg1"
   xmlns="http://www.w3.org/2000/svg"
   xmlns:svg="http://www.w3.org/2000/svg">
  <defs
     id="defs1">
    <rect
       x="30.000002"
       y="84"
       width="119.99999"
       height="132"
       id="rect1" />
  </defs>
  <g
     id="layer1"
     transform="translate(-151.87083,-144.19792)">
    <rect
       style="fill:#d40000;fill-opacity:1;stroke-width:0.564443;stroke-miterlimit:5"
       id="rect8"
       width="4.2333331"
       height="4.2333331"
       x="151.87083"
       y="144.19792" />
    <rect
       style="fill:#ffffff;fill-opacity:1;stroke-width:0.564443;stroke-miterlimit:5"
       id="rect9"
       width="3.3866668"
       height="3.3866668"
       x="152.29417"
       y="144.62125" />
    <path
       d="M 30.375,79.5 V 81 h 1.5 v 6 h 1.5 v -9 l -1.5,0.01875 c 0,0.825 -0.675,1.48125 -1.5,1.48125 z m 7.2375,0 h 3.13125 V 78 h -4.5 l -0.375,4.5 h 2.25 c 0.825,0 1.5,0.65625 1.5,1.5 0,0.84375 -0.675,1.5 -1.5,1.5 -0.09375,0 -0.16875,0 -0.24375,-0.01875 l -2.23125,-0.3375 -0.13125,1.5 2.1375,0.3375 C 37.8,87 37.95,87 38.11875,87 c 1.65,0 3,-1.35 3,-3 0,-1.65 -1.35,-3 -3,-3 -0.225,0 -0.43125,0.0375 -0.6375,0.075 z"
       id="text1"
       style="-inkscape-font-specification:drogowskaz;stroke-width:1.6;stroke-miterlimit:5"
       transform="matrix(0.20696299,0,0,0.20696299,146.58922,129.24014)"
       aria-label="15" />
  </g>
</svg>
