<?xml version="1.0" encoding="UTF-8" standalone="no"?>
<!-- Created with Inkscape (http://www.inkscape.org/) -->

<svg
   width="15.999999"
   height="15.999999"
   viewBox="0 0 4.233333 4.2333331"
   version="1.1"
   id="svg1"
   xmlns="http://www.w3.org/2000/svg"
   xmlns:svg="http://www.w3.org/2000/svg">
  <defs
     id="defs1">
    <rect
       x="30.000002"
       y="84"
       width="119.99999"
       height="132"
       id="rect1" />
    <rect
       x="30.000002"
       y="84"
       width="119.99999"
       height="132"
       id="rect1-2" />
    <rect
       x="30.000002"
       y="84"
       width="119.99999"
       height="132"
       id="rect1-1" />
    <rect
       x="30.000002"
       y="84"
       width="119.99999"
       height="132"
       id="rect1-6" />
    <rect
       x="30.000002"
       y="84"
       width="119.99999"
       height="132"
       id="rect1-3" />
  </defs>
  <g
     id="layer1"
     transform="translate(-151.87083,-144.19792)">
    <rect
       style="fill:#d40000;fill-opacity:1;stroke-width:0.564443;stroke-miterlimit:5"
       id="rect8"
       width="4.2333331"
       height="4.2333331"
       x="151.87083"
       y="144.19792" />
    <rect
       style="fill:#ffffff;fill-opacity:1;stroke-width:0.564443;stroke-miterlimit:5"
       id="rect9"
       width="3.3866665"
       height="3.3866665"
       x="152.29416"
       y="144.62125" />
    <path
       d="m 153.22884,146.31458 c 0.17074,0 0.31044,0.13582 0.31044,0.31045 0,0.17462 -0.1397,0.31432 -0.31044,0.31432 -0.17075,0 -0.31045,-0.1397 -0.31045,-0.31432 0,-0.17463 0.1397,-0.31045 0.31045,-0.31045 z m 0,0.93134 c 0.34149,0 0.62089,-0.2794 0.62089,-0.62089 0,-0.33761 -0.2794,-0.61701 -0.61701,-0.61701 l 0.41522,-0.70238 h -0.36089 l -0.59373,1.00894 c -0.0582,0.0893 -0.0854,0.19791 -0.0854,0.31045 0,0.34149 0.2794,0.62089 0.62089,0.62089 z m 1.41252,-1.55223 h 0.64805 v -0.31044 h -0.93133 l -0.0776,0.93133 h 0.46566 c 0.17075,0 0.31045,0.13582 0.31045,0.31045 0,0.17462 -0.1397,0.31044 -0.31045,0.31044 -0.0194,0 -0.0349,0 -0.0504,-0.004 l -0.46179,-0.0699 -0.0272,0.31044 0.44238,0.0699 c 0.0311,0.004 0.0621,0.004 0.097,0.004 0.34149,0 0.62089,-0.2794 0.62089,-0.62089 0,-0.34149 -0.2794,-0.62089 -0.62089,-0.62089 -0.0466,0 -0.0892,0.008 -0.13193,0.0155 z"
       id="text1"
       style="-inkscape-font-specification:drogowskaz;stroke-width:0.331141;stroke-miterlimit:5"
       aria-label="65" />
  </g>
</svg>
