<?xml version="1.0" encoding="UTF-8" standalone="no"?>
<!-- Created with Inkscape (http://www.inkscape.org/) -->

<svg
   width="15.999999"
   height="15.999999"
   viewBox="0 0 4.233333 4.2333331"
   version="1.1"
   id="svg1"
   xmlns="http://www.w3.org/2000/svg"
   xmlns:svg="http://www.w3.org/2000/svg">
  <defs
     id="defs1">
    <rect
       x="30.000002"
       y="84"
       width="119.99999"
       height="132"
       id="rect3" />
    <rect
       x="30.000002"
       y="84"
       width="119.99999"
       height="132"
       id="rect3-1" />
  </defs>
  <g
     id="layer1"
     transform="translate(-51.59375,-80.697914)">
    <rect
       style="fill:#d40000;fill-opacity:1;stroke-width:0.564443;stroke-miterlimit:5"
       id="rect8"
       width="4.2333331"
       height="4.2333331"
       x="51.59375"
       y="80.697914" />
    <rect
       style="fill:#ffffff;fill-opacity:1;stroke-width:0.564443;stroke-miterlimit:5"
       id="rect9"
       width="3.3866665"
       height="3.3866665"
       x="52.017082"
       y="81.121246" />
    <path
       d="m 52.963411,82.815086 c 0.170744,0 0.310444,0.13582 0.310444,0.310445 0,0.174625 -0.1397,0.314324 -0.310444,0.314324 -0.170745,0 -0.310445,-0.139699 -0.310445,-0.314324 0,-0.174625 0.1397,-0.310445 0.310445,-0.310445 z m 0,0.931334 c 0.341489,0 0.620889,-0.2794 0.620889,-0.620889 0,-0.337609 -0.2794,-0.617009 -0.617009,-0.617009 l 0.41522,-0.70238 h -0.360892 l -0.593725,1.008944 c -0.05821,0.08925 -0.08537,0.197908 -0.08537,0.310445 0,0.341489 0.2794,0.620889 0.620889,0.620889 z m 1.183568,-0.931334 c 0,-0.159103 0.02716,-0.314325 0.07761,-0.457905 0.03104,-0.09313 0.124178,-0.162984 0.232834,-0.162984 0.104775,0 0.197908,0.06985 0.228952,0.162984 0.05045,0.14358 0.08149,0.298802 0.08149,0.457905 0,0.162983 -0.03104,0.318206 -0.08149,0.461786 -0.03104,0.09313 -0.124177,0.159103 -0.228952,0.159103 -0.108656,0 -0.201789,-0.06597 -0.232834,-0.159103 -0.05045,-0.14358 -0.07761,-0.298803 -0.07761,-0.461786 z m -0.310444,0 c 0,0.201789 0.04269,0.395817 0.108655,0.574323 0.07373,0.209549 0.27552,0.357011 0.512234,0.357011 0.232833,0 0.434622,-0.147462 0.508352,-0.357011 0.06597,-0.178506 0.112536,-0.372534 0.112536,-0.574323 0,-0.197908 -0.04657,-0.391936 -0.112536,-0.570442 -0.07373,-0.20955 -0.275519,-0.360891 -0.508352,-0.360891 -0.236714,0 -0.438503,0.151341 -0.512234,0.360891 -0.06597,0.178506 -0.108655,0.372534 -0.108655,0.570442 z"
       id="text3"
       style="-inkscape-font-specification:'drogowskaz Semi-Bold';stroke-width:8.27851;stroke-miterlimit:5"
       aria-label="60" />
  </g>
</svg>
