<?xml version="1.0" encoding="UTF-8" standalone="no"?>
<!-- Created with Inkscape (http://www.inkscape.org/) -->

<svg
   width="15.999999"
   height="15.999999"
   viewBox="0 0 4.233333 4.2333331"
   version="1.1"
   id="svg1"
   xmlns="http://www.w3.org/2000/svg"
   xmlns:svg="http://www.w3.org/2000/svg">
  <defs
     id="defs1">
    <rect
       x="30.000002"
       y="84"
       width="119.99999"
       height="132"
       id="rect3" />
    <rect
       x="30.000002"
       y="84"
       width="119.99999"
       height="132"
       id="rect3-1" />
    <rect
       x="30.000002"
       y="84"
       width="119.99999"
       height="132"
       id="rect4" />
  </defs>
  <g
     id="layer1"
     transform="translate(-51.59375,-80.697914)">
    <rect
       style="fill:#d40000;fill-opacity:1;stroke-width:0.564443;stroke-miterlimit:5"
       id="rect8"
       width="4.2333331"
       height="4.2333331"
       x="51.59375"
       y="80.697914" />
    <rect
       style="fill:#ffffff;fill-opacity:1;stroke-width:0.564443;stroke-miterlimit:5"
       id="rect9"
       width="3.3866665"
       height="3.3866665"
       x="52.017082"
       y="81.121246" />
    <path
       d="m 53.26221,83.164339 c 0,0.174625 -0.1397,0.310445 -0.310445,0.310445 -0.174625,0 -0.310444,-0.13582 -0.310444,-0.310445 0,-0.170744 0.135819,-0.310444 0.310444,-0.310444 0.170745,0 0.310445,0.1397 0.310445,0.310444 z m 0.232833,-0.776111 c 0,-0.298803 -0.244475,-0.543278 -0.543278,-0.543278 -0.298802,0 -0.543277,0.244475 -0.543277,0.543278 0,0.124178 0.03881,0.236714 0.108655,0.325967 -0.116417,0.116417 -0.186267,0.275519 -0.186267,0.450144 0,0.34537 0.27552,0.620889 0.620889,0.620889 0.341489,0 0.620889,-0.275519 0.620889,-0.620889 0,-0.174625 -0.07373,-0.333727 -0.190147,-0.450144 0.06985,-0.08925 0.112536,-0.201789 0.112536,-0.325967 z m -0.543278,0.232833 c -0.128058,0 -0.232833,-0.104774 -0.232833,-0.232833 0,-0.128058 0.104775,-0.232833 0.232833,-0.232833 0.128059,0 0.232834,0.104775 0.232834,0.232833 0,0.128059 -0.104775,0.232833 -0.232834,0.232833 z m 1.206854,0.194028 c 0,-0.159102 0.02716,-0.314325 0.07761,-0.457905 0.03104,-0.09313 0.124178,-0.162984 0.232833,-0.162984 0.104775,0 0.197909,0.06985 0.228953,0.162984 0.05045,0.14358 0.08149,0.298803 0.08149,0.457905 0,0.162984 -0.03104,0.318206 -0.08149,0.461786 -0.03104,0.09313 -0.124178,0.159103 -0.228953,0.159103 -0.108655,0 -0.201788,-0.06597 -0.232833,-0.159103 -0.05045,-0.14358 -0.07761,-0.298802 -0.07761,-0.461786 z m -0.310444,0 c 0,0.201789 0.04269,0.395817 0.108655,0.574322 0.07373,0.20955 0.27552,0.357012 0.512233,0.357012 0.232834,0 0.434623,-0.147462 0.508353,-0.357012 0.06597,-0.178505 0.112536,-0.372533 0.112536,-0.574322 0,-0.197908 -0.04657,-0.391936 -0.112536,-0.570441 -0.07373,-0.20955 -0.275519,-0.360892 -0.508353,-0.360892 -0.236713,0 -0.438502,0.151342 -0.512233,0.360892 -0.06597,0.178505 -0.108655,0.372533 -0.108655,0.570441 z"
       id="text4"
       style="-inkscape-font-specification:'drogowskaz Semi-Bold';stroke-width:8.27851;stroke-miterlimit:5"
       aria-label="80" />
  </g>
</svg>
