<?xml version="1.0" encoding="UTF-8" standalone="no"?>
<!-- Created with Inkscape (http://www.inkscape.org/) -->

<svg
   width="15.999999"
   height="15.999999"
   viewBox="0 0 4.233333 4.2333331"
   version="1.1"
   id="svg1"
   xmlns="http://www.w3.org/2000/svg"
   xmlns:svg="http://www.w3.org/2000/svg">
  <defs
     id="defs1">
    <rect
       x="30.000002"
       y="84"
       width="119.99999"
       height="132"
       id="rect1" />
    <rect
       x="30.000002"
       y="84"
       width="119.99999"
       height="132"
       id="rect1-2" />
    <rect
       x="30.000002"
       y="84"
       width="119.99999"
       height="132"
       id="rect1-1" />
    <rect
       x="30.000002"
       y="84"
       width="119.99999"
       height="132"
       id="rect1-6" />
    <rect
       x="30.000002"
       y="84"
       width="119.99999"
       height="132"
       id="rect1-3" />
    <rect
       x="30.000002"
       y="84"
       width="119.99999"
       height="66.000008"
       id="rect2" />
    <rect
       x="30.000002"
       y="84"
       width="119.99999"
       height="66.000008"
       id="rect2-8" />
  </defs>
  <g
     id="layer1"
     transform="translate(-151.87083,-144.19792)">
    <rect
       style="fill:#000000;fill-opacity:1;stroke-width:0.564443;stroke-miterlimit:5"
       id="rect8"
       width="4.2333331"
       height="4.2333331"
       x="151.87083"
       y="144.19792" />
    <rect
       style="fill:#ffffff;fill-opacity:1;stroke-width:0.658519;stroke-miterlimit:5"
       id="rect9"
       width="3.9511237"
       height="3.9511237"
       x="152.01195"
       y="144.33904" />
    <path
       d="m 153.26377,146.31458 c -0.17074,0 -0.31044,-0.13582 -0.31044,-0.31045 0,-0.17462 0.1397,-0.31432 0.31044,-0.31432 0.17075,0 0.31045,0.1397 0.31045,0.31432 0,0.17463 -0.1397,0.31045 -0.31045,0.31045 z m 0,-0.93133 c -0.34148,0 -0.62088,0.2794 -0.62088,0.62088 0,0.34149 0.27552,0.62089 0.61312,0.62089 l -0.41134,0.6985 h 0.35702 l 0.59372,-1.00506 c 0.0582,-0.0892 0.0892,-0.19791 0.0892,-0.31433 0,-0.34148 -0.2794,-0.62088 -0.62089,-0.62088 z m 1.34268,0.31044 h 0.64805 v -0.31044 h -0.93133 l -0.0776,0.93133 h 0.46567 c 0.17075,0 0.31045,0.13582 0.31045,0.31044 0,0.17463 -0.1397,0.31045 -0.31045,0.31045 -0.0194,0 -0.0349,0 -0.0505,-0.004 l -0.46178,-0.0699 -0.0272,0.31045 0.44239,0.0698 c 0.031,0.004 0.0621,0.004 0.097,0.004 0.34149,0 0.62089,-0.2794 0.62089,-0.62089 0,-0.34149 -0.2794,-0.62089 -0.62089,-0.62089 -0.0466,0 -0.0892,0.008 -0.13194,0.0155 z"
       id="text2"
       style="-inkscape-font-specification:drogowskaz;stroke-width:0.331141;stroke-miterlimit:5;fill:#aaaaa9;fill-opacity:1"
       aria-label="95" />
    <g
       id="path4"
       transform="translate(-8.2020894,33.866674)">
      <path
         style="stroke-miterlimit:5"
         d="m 164.16515,110.47237 c -3.95111,3.95111 -3.95111,3.95111 -3.95111,3.95111"
         id="path5" />
      <path
         style="stroke-miterlimit:5"
         d="m 163.86581,110.47265 -3.65177,3.65282 -1.7e-4,0.29739 0.29819,6.3e-4 3.65337,-3.65121 -2.8e-4,-0.29992 z"
         id="path6" />
    </g>
  </g>
</svg>
