<?xml version="1.0" encoding="UTF-8" standalone="no"?>
<!-- Created with Inkscape (http://www.inkscape.org/) -->

<svg
   width="15.999999"
   height="15.999999"
   viewBox="0 0 4.2333331 4.2333331"
   version="1.1"
   id="svg1"
   xmlns="http://www.w3.org/2000/svg"
   xmlns:svg="http://www.w3.org/2000/svg">
  <defs
     id="defs1">
    <rect
       x="30.000002"
       y="84"
       width="119.99999"
       height="132"
       id="rect3" />
  </defs>
  <g
     id="layer1"
     transform="translate(-160.07292,-110.33125)">
    <rect
       style="fill:#000000;fill-opacity:1;stroke-width:0.564443;stroke-miterlimit:5"
       id="rect8"
       width="4.2333331"
       height="4.2333331"
       x="160.07292"
       y="110.33125" />
    <rect
       style="fill:#ffffff;fill-opacity:1;stroke-width:0.658519;stroke-miterlimit:5"
       id="rect9"
       width="3.9511237"
       height="3.9511237"
       x="160.21404"
       y="110.47237" />
    <path
       d="M 30.375,79.5 V 81 h 1.5 v 6 h 1.5 v -9 l -1.5,0.01875 c 0,0.825 -0.675,1.48125 -1.5,1.48125 z m 6.13125,3 c 0,-0.76875 0.13125,-1.51875 0.375,-2.2125 0.15,-0.45 0.6,-0.7875 1.125,-0.7875 0.50625,0 0.95625,0.3375 1.10625,0.7875 0.24375,0.69375 0.39375,1.44375 0.39375,2.2125 0,0.7875 -0.15,1.5375 -0.39375,2.23125 -0.15,0.45 -0.6,0.76875 -1.10625,0.76875 -0.525,0 -0.975,-0.31875 -1.125,-0.76875 C 36.6375,84.0375 36.50625,83.2875 36.50625,82.5 Z m -1.5,0 c 0,0.975 0.20625,1.9125 0.525,2.775 0.35625,1.0125 1.33125,1.725 2.475,1.725 1.125,0 2.1,-0.7125 2.45625,-1.725 0.31875,-0.8625 0.54375,-1.8 0.54375,-2.775 0,-0.95625 -0.225,-1.89375 -0.54375,-2.75625 C 40.10625,78.73125 39.13125,78 38.00625,78 c -1.14375,0 -2.11875,0.73125 -2.475,1.74375 -0.31875,0.8625 -0.525,1.8 -0.525,2.75625 z"
       id="text3"
       style="-inkscape-font-specification:'drogowskaz Semi-Bold';stroke-width:40;stroke-miterlimit:5;fill:#aaaaa9;fill-opacity:1"
       transform="matrix(0.20696297,0,0,0.20696297,154.80295,95.37347)"
       aria-label="10" />
    <g
       id="path4">
      <path
         style="stroke-miterlimit:5"
         d="m 164.16515,110.47237 c -3.95111,3.95111 -3.95111,3.95111 -3.95111,3.95111"
         id="path5" />
      <path
         style="stroke-miterlimit:5"
         d="m 163.86581,110.47265 -3.65177,3.65282 -1.7e-4,0.29739 0.29819,6.3e-4 3.65337,-3.65121 -2.8e-4,-0.29992 z"
         id="path6" />
    </g>
  </g>
</svg>
