<?xml version="1.0" encoding="UTF-8" standalone="no"?>
<!-- Created with Inkscape (http://www.inkscape.org/) -->

<svg
   width="15.999999"
   height="15.999999"
   viewBox="0 0 4.233333 4.2333331"
   version="1.1"
   id="svg1"
   xmlns="http://www.w3.org/2000/svg"
   xmlns:svg="http://www.w3.org/2000/svg">
  <defs
     id="defs1" />
  <g
     id="layer1"
     transform="translate(-64.293747,-77.522919)">
    <rect
       style="fill:#000000;fill-opacity:1;stroke-width:0.564443;stroke-miterlimit:5"
       id="rect8"
       width="4.2333331"
       height="4.2333331"
       x="64.293747"
       y="77.522919" />
    <rect
       style="fill:#ffffff;fill-opacity:1;stroke-width:0.658519;stroke-miterlimit:5"
       id="rect9"
       width="3.9511237"
       height="3.9511237"
       x="64.43486"
       y="77.664032" />
    <path
       d="m 65.574837,79.68999 c 0.02326,-0.0078 0.05041,-0.01163 0.07755,-0.01163 0.170605,0 0.310191,0.139586 0.310191,0.310191 0,0.174483 -0.139586,0.310191 -0.310191,0.310191 -0.174482,0 -0.310191,-0.135708 -0.310191,-0.310191 h -0.310191 c 0,0.345088 0.275295,0.620382 0.620382,0.620382 0.34121,0 0.620382,-0.275294 0.620382,-0.620382 0,-0.174482 -0.07367,-0.333455 -0.189992,-0.449777 0.06979,-0.08918 0.112445,-0.201624 0.112445,-0.3257 0,-0.298559 -0.244276,-0.542834 -0.542835,-0.542834 -0.298559,0 -0.542834,0.244275 -0.542834,0.542834 h 0.310191 c 0,-0.127954 0.104689,-0.232643 0.232643,-0.232643 0.127954,0 0.232643,0.104689 0.232643,0.232643 0,0.127954 -0.104689,0.232643 -0.232643,0.232643 -0.03102,0 -0.05428,-0.0039 -0.07755,-0.01163 z m 1.283418,-0.05041 c 0,-0.158973 0.02714,-0.314069 0.07755,-0.457532 0.03102,-0.09306 0.124077,-0.162851 0.232644,-0.162851 0.104689,0 0.197746,0.06979 0.228766,0.162851 0.05041,0.143463 0.08143,0.298559 0.08143,0.457532 0,0.16285 -0.03102,0.317945 -0.08143,0.461409 -0.03102,0.09306 -0.124077,0.158973 -0.228766,0.158973 -0.108567,0 -0.201624,-0.06592 -0.232644,-0.158973 -0.05041,-0.143464 -0.07755,-0.298559 -0.07755,-0.461409 z m -0.310191,0 c 0,0.201624 0.04265,0.395493 0.108566,0.573853 0.07367,0.209379 0.275295,0.35672 0.511816,0.35672 0.232643,0 0.434267,-0.147341 0.507937,-0.35672 0.06592,-0.17836 0.112445,-0.372229 0.112445,-0.573853 0,-0.197747 -0.04653,-0.391617 -0.112445,-0.569976 -0.07367,-0.209379 -0.275294,-0.360598 -0.507937,-0.360598 -0.236521,0 -0.438145,0.151219 -0.511816,0.360598 -0.06592,0.178359 -0.108566,0.372229 -0.108566,0.569976 z"
       id="text1"
       style="-inkscape-font-specification:'drogowskaz Semi-Bold';stroke-width:8.27173;stroke-miterlimit:5;fill:#aaaaa9;fill-opacity:1"
       aria-label="30" />
    <g
       id="path4"
       transform="translate(-95.779188,-32.808332)">
      <path
         style="stroke-miterlimit:5"
         d="m 164.16515,110.47237 c -3.95111,3.95111 -3.95111,3.95111 -3.95111,3.95111"
         id="path5" />
      <path
         style="stroke-miterlimit:5"
         d="m 163.86581,110.47265 -3.65177,3.65282 -1.7e-4,0.29739 0.29819,6.3e-4 3.65337,-3.65121 -2.8e-4,-0.29992 z"
         id="path6" />
    </g>
  </g>
</svg>
