<?xml version="1.0" encoding="UTF-8" standalone="no"?>
<!-- Created with Inkscape (http://www.inkscape.org/) -->

<svg
   width="15.999999"
   height="15.999999"
   viewBox="0 0 4.233333 4.2333331"
   version="1.1"
   id="svg1"
   xmlns="http://www.w3.org/2000/svg"
   xmlns:svg="http://www.w3.org/2000/svg">
  <defs
     id="defs1">
    <rect
       x="30.000002"
       y="84"
       width="119.99999"
       height="132"
       id="rect3" />
    <rect
       x="30.000002"
       y="84"
       width="119.99999"
       height="132"
       id="rect3-1" />
    <rect
       x="30.000002"
       y="84"
       width="119.99999"
       height="132"
       id="rect4" />
  </defs>
  <g
     id="layer1"
     transform="translate(-51.59375,-80.697914)">
    <rect
       style="fill:#000000;fill-opacity:1;stroke-width:0.564443;stroke-miterlimit:5"
       id="rect8"
       width="4.2333331"
       height="4.2333331"
       x="51.59375"
       y="80.697914" />
    <rect
       style="fill:#ffffff;fill-opacity:1;stroke-width:0.658519;stroke-miterlimit:5"
       id="rect9"
       width="3.9511237"
       height="3.9511237"
       x="51.734863"
       y="80.839027" />
    <path
       d="m 53.039724,82.817343 c -0.171366,0 -0.311574,-0.136313 -0.311574,-0.311573 0,-0.17526 0.140208,-0.315468 0.311574,-0.315468 0.171365,0 0.311573,0.140208 0.311573,0.315468 0,0.17526 -0.140208,0.311573 -0.311573,0.311573 z m 0,-0.93472 c -0.342731,0 -0.623147,0.280416 -0.623147,0.623147 0,0.342731 0.276521,0.623147 0.615357,0.623147 l -0.412834,0.70104 h 0.358309 l 0.595884,-1.008719 c 0.05842,-0.08958 0.08958,-0.198628 0.08958,-0.315468 0,-0.342731 -0.280416,-0.623147 -0.623146,-0.623147 z m 1.117769,0.93472 c 0,-0.159681 0.02726,-0.315468 0.07789,-0.45957 0.03116,-0.09347 0.12463,-0.163576 0.23368,-0.163576 0.105156,0 0.198628,0.0701 0.229786,0.163576 0.05063,0.144102 0.08179,0.299889 0.08179,0.45957 0,0.163576 -0.03116,0.319363 -0.08179,0.463466 -0.03116,0.09347 -0.12463,0.159681 -0.229786,0.159681 -0.10905,0 -0.202522,-0.06621 -0.23368,-0.159681 -0.05063,-0.144103 -0.07789,-0.29989 -0.07789,-0.463466 z m -0.311573,0 c 0,0.202523 0.04284,0.397256 0.10905,0.576411 0.074,0.210312 0.276522,0.358309 0.514096,0.358309 0.23368,0 0.436203,-0.147997 0.510202,-0.358309 0.06621,-0.179155 0.112945,-0.373888 0.112945,-0.576411 0,-0.198628 -0.04674,-0.393361 -0.112945,-0.572516 -0.074,-0.210312 -0.276522,-0.362204 -0.510202,-0.362204 -0.237574,0 -0.440097,0.151892 -0.514096,0.362204 -0.06621,0.179155 -0.10905,0.373888 -0.10905,0.572516 z"
       id="text4"
       style="-inkscape-font-specification:'drogowskaz Semi-Bold';stroke-width:8.30864;stroke-miterlimit:5;fill:#aaaaa9;fill-opacity:1"
       aria-label="90" />
    <g
       id="path4"
       transform="translate(-108.4792,-29.633332)">
      <path
         style="stroke-miterlimit:5"
         d="m 164.16515,110.47237 c -3.95111,3.95111 -3.95111,3.95111 -3.95111,3.95111"
         id="path5" />
      <path
         style="stroke-miterlimit:5"
         d="m 163.86581,110.47265 -3.65177,3.65282 -1.7e-4,0.29739 0.29819,6.3e-4 3.65337,-3.65121 -2.8e-4,-0.29992 z"
         id="path6" />
    </g>
  </g>
</svg>
