<?xml version="1.0" encoding="UTF-8" standalone="no"?>
<!-- Created with Inkscape (http://www.inkscape.org/) -->

<svg
   width="900mm"
   height="760mm"
   viewBox="0 0 900 760"
   version="1.1"
   id="svg1"
   xmlns="http://www.w3.org/2000/svg"
   xmlns:svg="http://www.w3.org/2000/svg">
  <defs
     id="defs1" />
  <g
     id="layer1">
    <path
       id="path2-9"
       style="vector-effect:non-scaling-stroke;fill:#ffffff;fill-opacity:1;stroke:#000000;stroke-width:0.264583;-inkscape-stroke:hairline"
       d="m 866.02546,0 c 7.14158,0.0075 13.73727,3.822396 17.30481,10.009065 3.56756,6.186651 3.56556,13.806155 0.005,19.99094 L 467.65374,750.01817 c -3.57771,6.18079 -10.17893,9.98563 -17.3205,9.98188 -7.14159,-0.004 -13.73927,-3.81522 -17.31533,-9.99989 L 17.315285,29.990942 C 13.745744,23.793365 13.75172,16.173863 17.325741,9.990945 20.899762,3.8080268 27.405971,0 34.547547,0 Z" />
    <path
       style="vector-effect:non-scaling-stroke;fill:#ed6b21;fill-opacity:1;stroke:none;stroke-width:0.264584;stroke-linecap:butt;stroke-linejoin:miter;stroke-dasharray:none;stroke-opacity:1;-inkscape-stroke:hairline"
       d="M 86.602532,50 H 813.39744 L 449.99999,679.42286 Z"
       id="path2" />
  </g>
  <g
     id="layer2">
    <g
       id="layer2-4"
       transform="matrix(0.83990286,0,0,0.83990286,-32.946568,9.6373949)"
       style="stroke-width:50.0058;stroke-dasharray:none">
      <path
         id="path6"
         style="fill:none;stroke:#000000;stroke-width:50.0058;stroke-dasharray:none"
         d="m 375,159.97398 c 0.0115,-33.10428 21.72567,-62.285615 53.4315,-71.805734 31.70583,-9.520117 65.90331,2.87297 84.1488,30.495334 18.2455,27.62237 16.22304,63.93994 -4.97661,89.36568 L 374.99999,368.98525 V 385 h 174.99999" />
    </g>
    <g
       id="layer2-0"
       transform="translate(200,46.999998)">
      <path
         id="path18-5"
         style="fill:none;stroke:#000000;stroke-width:42;stroke-linecap:butt;stroke-dasharray:none"
         d="m 417.99997,223 c 0,34.79394 -28.20607,62.99999 -63.00001,62.99999 -34.79393,0 -62.99999,-28.20605 -62.99999,-62.99999 V 96.999996 c -1e-5,-34.793931 28.20607,-62.999995 63,-62.999996 34.79394,10e-7 63,28.206065 63,62.999996 z" />
    </g>
  </g>
</svg>
