<?xml version="1.0" encoding="UTF-8" standalone="no"?>
<svg
   width="9.418853"
   height="20"
   viewBox="0 0 9.418853 20"
   version="1.1"
   id="svg14"
   sodipodi:docname="s1-3.svg"
   inkscape:version="1.2.2 (b0a8486541, 2022-12-01)"
   xmlns:inkscape="http://www.inkscape.org/namespaces/inkscape"
   xmlns:sodipodi="http://sodipodi.sourceforge.net/DTD/sodipodi-0.dtd"
   xmlns="http://www.w3.org/2000/svg"
   xmlns:svg="http://www.w3.org/2000/svg">
  <defs
     id="defs18" />
  <sodipodi:namedview
     id="namedview16"
     pagecolor="#ffffff"
     bordercolor="#666666"
     borderopacity="1.0"
     inkscape:showpageshadow="2"
     inkscape:pageopacity="0.0"
     inkscape:pagecheckerboard="0"
     inkscape:deskcolor="#d1d1d1"
     showgrid="false"
     inkscape:zoom="51.35"
     inkscape:cx="3.962999"
     inkscape:cy="10.019474"
     inkscape:window-width="2560"
     inkscape:window-height="1368"
     inkscape:window-x="0"
     inkscape:window-y="0"
     inkscape:window-maximized="1"
     inkscape:current-layer="svg14" />
  <path
     fill-rule="nonzero"
     fill="rgb(14.901961%, 14.901961%, 14.901961%)"
     fill-opacity="1"
     d="M 0 4.660156 L 9.417969 4.660156 L 9.417969 15.605469 L 0 15.605469 Z M 0 4.660156 "
     id="path2" />
  <path
     fill-rule="nonzero"
     fill="rgb(14.901961%, 14.901961%, 14.901961%)"
     fill-opacity="1"
     d="M 9.417969 15.339844 C 9.417969 17.914062 7.308594 20 4.710938 20 C 2.109375 20 0 17.914062 0 15.339844 C 0 12.765625 2.109375 10.679688 4.710938 10.679688 C 7.308594 10.679688 9.417969 12.765625 9.417969 15.339844 Z M 9.417969 15.339844 "
     id="path4" />
  <path
     fill-rule="nonzero"
     fill="rgb(14.901961%, 14.901961%, 14.901961%)"
     fill-opacity="1"
     d="M 9.417969 4.660156 C 9.417969 7.234375 7.308594 9.320312 4.710938 9.320312 C 2.109375 9.320312 0 7.234375 0 4.660156 C 0 2.085938 2.109375 0 4.710938 0 C 7.308594 0 9.417969 2.085938 9.417969 4.660156 Z M 9.417969 4.660156 "
     id="path6" />
  <path
     fill-rule="nonzero"
     fill="rgb(100%, 95.686275%, 78.039216%)"
     fill-opacity="1"
     d="M 6.582031 15.339844 C 6.582031 16.375 5.746094 17.214844 4.707031 17.214844 C 3.671875 17.214844 2.835938 16.375 2.835938 15.339844 C 2.835938 14.304688 3.671875 13.464844 4.707031 13.464844 C 5.746094 13.464844 6.582031 14.304688 6.582031 15.339844 Z M 6.582031 15.339844 "
     id="path8"
     style="fill:#0e0e0e;fill-opacity:1" />
  <path
     fill-rule="nonzero"
     fill="rgb(5.490196%, 5.490196%, 5.490196%)"
     fill-opacity="1"
     d="M 6.582031 4.660156 C 6.582031 5.695312 5.746094 6.535156 4.707031 6.535156 C 3.671875 6.535156 2.832031 5.695312 2.832031 4.660156 C 2.832031 3.625 3.671875 2.785156 4.707031 2.785156 C 5.746094 2.785156 6.582031 3.625 6.582031 4.660156 Z M 6.582031 4.660156 "
     id="path10"
     style="fill:#0e0e0e;fill-opacity:1" />
  <path
     fill-rule="nonzero"
     fill="rgb(0%, 78.431373%, 36.862745%)"
     fill-opacity="1"
     d="M 6.582031 10.132812 C 6.582031 11.167969 5.746094 12.007812 4.707031 12.007812 C 3.671875 12.007812 2.832031 11.167969 2.832031 10.132812 C 2.832031 9.097656 3.671875 8.257812 4.707031 8.257812 C 5.746094 8.257812 6.582031 9.097656 6.582031 10.132812 Z M 6.582031 10.132812 "
     id="path12"
     style="fill:#ff0000;fill-opacity:1" />
</svg>
