<svg width="8.782" height="24" version="1.1" viewBox="0 0 8.782 24" xmlns="http://www.w3.org/2000/svg">
 <path d="m0 4.344h8.781v15.31h-8.781z" fill="#262626"/>
 <path d="m8.781 19.66c0 2.398-1.965 4.344-4.387 4.344-2.426 0-4.395-1.945-4.395-4.344 0-2.402 1.969-4.348 4.395-4.348 2.422 0 4.387 1.945 4.387 4.348z" fill="#262626"/>
 <path d="m8.781 4.344c0 2.402-1.965 4.348-4.387 4.348-2.426 0-4.395-1.945-4.395-4.348 0-2.398 1.969-4.344 4.395-4.344 2.422 0 4.387 1.945 4.387 4.344z" fill="#262626"/>
 <path d="m6.137 14.55c0 0.9648-0.7773 1.75-1.746 1.75-0.9648 0-1.746-0.7852-1.746-1.75 0-0.9648 0.7812-1.746 1.746-1.746 0.9688 0 1.746 0.7812 1.746 1.746z" fill="#ffb200"/>
 <path d="m6.137 19.66c0 0.9648-0.7773 1.746-1.746 1.746-0.9648 0-1.746-0.7812-1.746-1.746 0-0.9688 0.7812-1.75 1.746-1.75 0.9688 0 1.746 0.7812 1.746 1.75z" fill="#0d0d0d"/>
 <path d="m6.137 4.344c0 0.9688-0.7773 1.75-1.746 1.75-0.9648 0-1.75-0.7812-1.75-1.75 0-0.9648 0.7852-1.746 1.75-1.746 0.9688 0 1.746 0.7812 1.746 1.746z" fill="#00c85d"/>
 <path d="m6.137 9.449c0 0.9648-0.7773 1.746-1.746 1.746-0.9648 0-1.75-0.7812-1.75-1.746 0-0.9648 0.7852-1.75 1.75-1.75 0.9688 0 1.746 0.7852 1.746 1.75z" fill="#0d0d0d"/>
</svg>
