<svg width="8.78" height="24" version="1.1" viewBox="0 0 8.78 24" xmlns="http://www.w3.org/2000/svg">
 <path d="m0 4.348h8.78v15.3h-8.78z" fill="#262626" stroke-width="1.144"/>
 <path d="m8.78 19.65c0 2.4-1.966 4.348-4.388 4.348-2.426 0-4.392-1.948-4.392-4.348 0-2.4 1.966-4.348 4.392-4.348 2.422 0 4.388 1.948 4.388 4.348z" fill="#262626" stroke-width="1.144"/>
 <path d="m8.78 4.348c0 2.395-1.966 4.343-4.388 4.343-2.426 0-4.392-1.948-4.392-4.343 0-2.404 1.966-4.348 4.392-4.348 2.422 0 4.388 1.944 4.388 4.348z" fill="#262626" stroke-width="1.144"/>
 <path d="m6.14 14.55c0 0.9652-0.782 1.752-1.747 1.752-0.9697 0-1.747-0.7864-1.747-1.752 0-0.9652 0.7775-1.747 1.747-1.747 0.9652 0 1.747 0.782 1.747 1.747z" fill="#0e0e0e" stroke-width="1.144"/>
 <path d="m6.14 19.65c0 0.9652-0.782 1.747-1.747 1.747-0.9697 0-1.747-0.782-1.747-1.747s0.7775-1.747 1.747-1.747c0.9652 0 1.747 0.782 1.747 1.747z" fill="#ffb200" stroke-width="1.144"/>
 <path d="m6.14 9.451c0 0.9607-0.782 1.747-1.747 1.747-0.9697 0-1.747-0.7864-1.747-1.747 0-0.9697 0.7775-1.752 1.747-1.752 0.9652 0 1.747 0.782 1.747 1.752z" fill="#0e0e0e" stroke-width="1.144"/>
 <path d="m6.14 4.348c0 0.9607-0.7775 1.747-1.747 1.747-0.9652 0-1.752-0.7864-1.752-1.747 0-0.9697 0.7864-1.747 1.752-1.747 0.9697 0 1.747 0.7775 1.747 1.747z" fill="#00c85e" stroke-width="1.144"/>
</svg>
