<?xml version="1.0" encoding="UTF-8" standalone="no"?>
<svg
   width="9.4188528"
   height="23.176573"
   viewBox="0 0 9.418853 23.176573"
   version="1.1"
   id="svg6"
   xmlns="http://www.w3.org/2000/svg"
   xmlns:svg="http://www.w3.org/2000/svg">
  <defs
     id="defs6" />
  <path
     fill-rule="nonzero"
     fill="#262626"
     fill-opacity="1"
     d="M 0,4.660156 H 9.417969 V 15.605469 H 0 Z m 0,0"
     id="path1" />
  <path
     fill-rule="nonzero"
     fill="#262626"
     fill-opacity="1"
     d="M 9.417969,15.339844 C 9.417969,17.914062 7.308594,20 4.710938,20 2.109375,20 0,17.914062 0,15.339844 c 0,-2.574219 2.109375,-4.660156 4.710938,-4.660156 2.597656,0 4.707031,2.085937 4.707031,4.660156 z m 0,0"
     id="path2" />
  <path
     fill-rule="nonzero"
     fill="#262626"
     fill-opacity="1"
     d="m 9.417969,4.660156 c 0,2.574219 -2.109375,4.660156 -4.707031,4.660156 C 2.109375,9.320312 0,7.234375 0,4.660156 0,2.085938 2.109375,0 4.710938,0 7.308594,0 9.417969,2.085938 9.417969,4.660156 Z m 0,0"
     id="path3" />
  <path
     fill-rule="nonzero"
     fill="rgb(100%, 69.803922%, 0%)"
     fill-opacity="1"
     d="m 6.582031,15.339844 c 0,1.035156 -0.835937,1.875 -1.875,1.875 -1.035156,0 -1.871093,-0.839844 -1.871093,-1.875 0,-1.035156 0.835937,-1.875 1.871093,-1.875 1.039063,0 1.875,0.839844 1.875,1.875 z m 0,0"
     id="path4"
     style="fill:#ffb200;fill-opacity:1" />
  <path
     fill-rule="nonzero"
     fill="rgb(100%, 69.803922%, 0%)"
     fill-opacity="1"
     d="m 6.582031,4.660156 c 0,1.035156 -0.835937,1.875 -1.875,1.875 -1.035156,0 -1.875,-0.839844 -1.875,-1.875 0,-1.035156 0.839844,-1.875 1.875,-1.875 1.039063,0 1.875,0.839844 1.875,1.875 z m 0,0"
     id="path5"
     style="fill:#00c85e;fill-opacity:1" />
  <path
     fill-rule="nonzero"
     fill="rgb(5.490196%, 5.490196%, 5.490196%)"
     fill-opacity="1"
     d="m 6.582031,10.132812 c 0,1.035157 -0.835937,1.875 -1.875,1.875 -1.035156,0 -1.875,-0.839843 -1.875,-1.875 0,-1.035156 0.839844,-1.875 1.875,-1.875 1.039063,0 1.875,0.839844 1.875,1.875 z m 0,0"
     id="path6"
     style="fill:#0e0e0e;fill-opacity:1" />
  <path
     fill-rule="nonzero"
     fill="#262626"
     fill-opacity="1"
     d="m 0,20.25 h 9.4188529 v 2.926572 H 0 Z m 0,0"
     id="path9"
     style="stroke-width:1.23021" />
  <path
     fill-rule="nonzero"
     fill="#ffb200"
     fill-opacity="1"
     d="m 3.2509464,21.713286 c 0,0.374831 -0.6247205,0.682386 -1.3888,0.682386 -0.7688859,0 -1.39360637,-0.307555 -1.39360637,-0.682386 0,-0.374833 0.62472047,-0.682387 1.39360637,-0.682387 0.7640795,0 1.3888,0.307554 1.3888,0.682387 z m 0,0"
     id="path10"
     style="stroke-width:1.23022" />
  <path
     fill-rule="nonzero"
     fill="#ffb200"
     fill-opacity="1"
     d="m 6.0982264,21.715689 c 0,0.374832 -0.619914,0.67758 -1.3887999,0.67758 -0.768886,0 -1.3888,-0.302747 -1.3888,-0.67758 0,-0.379638 0.619914,-0.682386 1.3888,-0.682386 0.7688859,0 1.3887999,0.302748 1.3887999,0.682386 z m 0,0"
     id="path11"
     style="stroke-width:1.23022" />
  <path
     fill-rule="nonzero"
     fill="#ffb200"
     fill-opacity="1"
     d="m 8.9527161,21.715689 c 0,0.374832 -0.6247204,0.67758 -1.3936064,0.67758 -0.768886,0 -1.3887999,-0.302747 -1.3887999,-0.67758 0,-0.379638 0.6199139,-0.682386 1.3887999,-0.682386 0.768886,0 1.3936064,0.302748 1.3936064,0.682386 z m 0,0"
     id="path12"
     style="stroke-width:1.23022" />
</svg>
