<svg width="7.802" height="24" version="1.1" viewBox="0 0 7.802 24" xmlns="http://www.w3.org/2000/svg">
 <path d="m0 3.859h7.801v13.6h-7.801z" fill="#262626"/>
 <path d="m7.801 17.46c0 2.133-1.746 3.859-3.898 3.859-2.156 0-3.902-1.727-3.902-3.859 0-2.133 1.746-3.859 3.902-3.859 2.152 0 3.898 1.727 3.898 3.859z" fill="#262626"/>
 <path d="m7.801 3.859c0 2.133-1.746 3.863-3.898 3.863-2.156 0-3.902-1.73-3.902-3.863s1.746-3.859 3.902-3.859c2.152 0 3.898 1.727 3.898 3.859z" fill="#262626"/>
 <path d="m5.453 12.93c0 0.8594-0.6914 1.555-1.555 1.555-0.8555 0-1.551-0.6953-1.551-1.555 0-0.8555 0.6953-1.551 1.551-1.551 0.8633 0 1.555 0.6953 1.555 1.551z" fill="#ffb200"/>
 <path d="m5.453 17.46c0 0.8555-0.6914 1.555-1.555 1.555-0.8555 0-1.551-0.6992-1.551-1.555 0-0.8594 0.6953-1.555 1.551-1.555 0.8633 0 1.555 0.6953 1.555 1.555z" fill="#0d0d0d"/>
 <path d="m5.453 3.859c0 0.8594-0.6914 1.555-1.555 1.555-0.8555 0-1.551-0.6953-1.551-1.555 0-0.8555 0.6953-1.551 1.551-1.551 0.8633 0 1.555 0.6953 1.555 1.551z" fill="#00c85d"/>
 <path d="m5.453 8.395c0 0.8555-0.6914 1.551-1.555 1.551-0.8555 0-1.551-0.6953-1.551-1.551 0-0.8594 0.6953-1.555 1.551-1.555 0.8633 0 1.555 0.6953 1.555 1.555z" fill="#0d0d0d"/>
 <path d="m0 21.58h7.801v2.422h-7.801z" fill="#262626"/>
 <path d="m2.691 22.77c0 0.3125-0.5156 0.5664-1.152 0.5664-0.6367 0-1.152-0.2539-1.152-0.5664s0.5156-0.5625 1.152-0.5625c0.6367 0 1.152 0.25 1.152 0.5625z" fill="#ffb200"/>
 <path d="m5.051 22.79c0 0.3125-0.5156 0.5625-1.148 0.5625-0.6367 0-1.152-0.25-1.152-0.5625s0.5156-0.5664 1.152-0.5664c0.6328 0 1.148 0.2539 1.148 0.5664z" fill="#ffb200"/>
 <path d="m7.414 22.79c0 0.3125-0.5156 0.5625-1.152 0.5625s-1.152-0.25-1.152-0.5625 0.5156-0.5664 1.152-0.5664 1.152 0.2539 1.152 0.5664z" fill="#ffb200"/>
</svg>
