<svg width="9.419" height="20" version="1.1" viewBox="0 0 9.419 20" xmlns="http://www.w3.org/2000/svg">
 <path d="m0 4.66h9.418v10.95h-9.418z" fill="#262626"/>
 <path d="m9.418 15.34c0 2.574-2.109 4.66-4.707 4.66-2.602 0-4.711-2.086-4.711-4.66 0-2.574 2.109-4.66 4.711-4.66 2.598 0 4.707 2.086 4.707 4.66z" fill="#262626"/>
 <path d="m9.418 4.66c0 2.574-2.109 4.66-4.707 4.66-2.602 0-4.711-2.086-4.711-4.66 0-2.574 2.109-4.66 4.711-4.66 2.598 0 4.707 2.086 4.707 4.66z" fill="#262626"/>
 <path d="m6.582 15.34c0 1.035-0.8359 1.875-1.875 1.875-1.035 0-1.871-0.8398-1.871-1.875s0.8359-1.875 1.871-1.875c1.039 0 1.875 0.8398 1.875 1.875z" fill="#0d0d0d"/>
 <path d="m6.582 4.66c0 1.035-0.8359 1.875-1.875 1.875-1.035 0-1.875-0.8398-1.875-1.875s0.8398-1.875 1.875-1.875c1.039 0 1.875 0.8398 1.875 1.875z" fill="#00c85d"/>
 <path d="m6.582 10.13c0 1.035-0.8359 1.875-1.875 1.875-1.035 0-1.875-0.8398-1.875-1.875 0-1.035 0.8398-1.875 1.875-1.875 1.039 0 1.875 0.8398 1.875 1.875z" fill="#0d0d0d"/>
</svg>
