<svg width="10.19" height="16" version="1.1" viewBox="0 0 10.19 16" xmlns="http://www.w3.org/2000/svg">
 <path d="m0 5.039h10.19v5.922h-10.19z" fill="#262626"/>
 <path d="m10.19 10.96c0 2.781-2.281 5.039-5.094 5.039s-5.094-2.258-5.094-5.039c0-2.785 2.281-5.043 5.094-5.043s5.094 2.258 5.094 5.043z" fill="#262626"/>
 <path d="m10.19 5.039c0 2.785-2.281 5.043-5.094 5.043s-5.094-2.258-5.094-5.043c0-2.781 2.281-5.039 5.094-5.039s5.094 2.258 5.094 5.039z" fill="#262626"/>
 <path d="m7.117 5.039c0 1.121-0.9023 2.031-2.027 2.031-1.117 0-2.027-0.9102-2.027-2.031 0-1.117 0.9102-2.027 2.027-2.027 1.125 0 2.027 0.9102 2.027 2.027z" fill="#0d0d0d"/>
 <path d="m7.117 10.96c0 1.117-0.9023 2.027-2.027 2.027-1.117 0-2.027-0.9102-2.027-2.027 0-1.121 0.9102-2.031 2.027-2.031 1.125 0 2.027 0.9102 2.027 2.031z" fill="#ffb200"/>
</svg>
