<?xml version="1.0" encoding="UTF-8" standalone="no"?>
<svg
   width="7.65625"
   height="30.378906"
   viewBox="0 0 7.6562499 30.378906"
   version="1.1"
   id="svg12"
   xmlns="http://www.w3.org/2000/svg"
   xmlns:svg="http://www.w3.org/2000/svg">
  <defs
     id="defs12" />
  <path
     fill-rule="nonzero"
     fill="#262626"
     fill-opacity="1"
     d="M 0,3.789062 H 7.65625 V 21.582031 H 0 Z m 0,0"
     id="path1" />
  <path
     fill-rule="nonzero"
     fill="#262626"
     fill-opacity="1"
     d="m 7.65625,21.582031 c 0,2.09375 -1.714844,3.789063 -3.828125,3.789063 C 1.714844,25.371094 0,23.675781 0,21.582031 c 0,-2.089843 1.714844,-3.789062 3.828125,-3.789062 2.113281,0 3.828125,1.699219 3.828125,3.789062 z m 0,0"
     id="path2" />
  <path
     fill-rule="nonzero"
     fill="#262626"
     fill-opacity="1"
     d="m 7.65625,3.789062 c 0,2.089844 -1.714844,3.789063 -3.828125,3.789063 C 1.714844,7.578125 0,5.878906 0,3.789062 0,1.695312 1.714844,0 3.828125,0 5.941406,0 7.65625,1.695312 7.65625,3.789062 Z m 0,0"
     id="path3" />
  <path
     fill-rule="nonzero"
     fill="#ffb200"
     fill-opacity="1"
     d="m 5.351562,17.132812 c 0,0.84375 -0.679687,1.527344 -1.523437,1.527344 -0.84375,0 -1.523437,-0.683594 -1.523437,-1.527344 0,-0.839843 0.679687,-1.523437 1.523437,-1.523437 0.84375,0 1.523437,0.683594 1.523437,1.523437 z m 0,0"
     id="path4" />
  <path
     fill-rule="nonzero"
     fill="#0e0e0e"
     fill-opacity="1"
     d="m 5.351562,21.582031 c 0,0.84375 -0.679687,1.523438 -1.523437,1.523438 -0.84375,0 -1.523437,-0.679688 -1.523437,-1.523438 0,-0.839843 0.679687,-1.523437 1.523437,-1.523437 0.84375,0 1.523437,0.683594 1.523437,1.523437 z m 0,0"
     id="path5" />
  <path
     fill-rule="nonzero"
     fill="#0e0e0e"
     fill-opacity="1"
     d="m 5.351562,12.6875 c 0,0.839844 -0.679687,1.523438 -1.523437,1.523438 -0.84375,0 -1.523437,-0.683594 -1.523437,-1.523438 0,-0.84375 0.679687,-1.527344 1.523437,-1.527344 0.84375,0 1.523437,0.683594 1.523437,1.527344 z m 0,0"
     id="path6" />
  <path
     fill-rule="nonzero"
     fill="#00c85e"
     fill-opacity="1"
     d="m 5.351562,3.789062 c 0,0.839844 -0.679687,1.523438 -1.523437,1.523438 -0.84375,0 -1.527344,-0.683594 -1.527344,-1.523438 0,-0.84375 0.683594,-1.523437 1.527344,-1.523437 0.84375,0 1.523437,0.679687 1.523437,1.523437 z m 0,0"
     id="path7" />
  <path
     fill-rule="nonzero"
     fill="#0e0e0e"
     fill-opacity="1"
     d="m 5.351562,8.238281 c 0,0.839844 -0.679687,1.523438 -1.523437,1.523438 -0.84375,0 -1.527344,-0.683594 -1.527344,-1.523438 0,-0.84375 0.683594,-1.527343 1.527344,-1.527343 0.84375,0 1.523437,0.683593 1.523437,1.527343 z m 0,0"
     id="path8" />
  <path
     fill-rule="nonzero"
     fill="#262626"
     fill-opacity="1"
     d="M 2.7734461e-8,25.621094 H 7.65625 v 4.757812 H 2.7734461e-8 Z m 0,0"
     id="path9"
     style="stroke-width:1.41421" />
  <path
     fill-rule="nonzero"
     fill="#ffb200"
     fill-opacity="1"
     d="m 2.6425785,29.189453 c 0,0.304687 -0.507813,0.554687 -1.128906,0.554687 -0.62499996,0 -1.13281296,-0.25 -1.13281296,-0.554687 0,-0.304688 0.507813,-0.554688 1.13281296,-0.554688 0.621093,0 1.128906,0.25 1.128906,0.554688 z m 0,0"
     id="path10" />
  <path
     fill-rule="nonzero"
     fill="#ffb200"
     fill-opacity="1"
     d="m 4.957031,29.191406 c 0,0.304688 -0.503906,0.550781 -1.128906,0.550781 -0.625,0 -1.128906,-0.246093 -1.128906,-0.550781 0,-0.308594 0.503906,-0.554688 1.128906,-0.554688 0.625,0 1.128906,0.246094 1.128906,0.554688 z m 0,0"
     id="path11" />
  <path
     fill-rule="nonzero"
     fill="#ffb200"
     fill-opacity="1"
     d="m 7.277344,29.191406 c 0,0.304688 -0.507813,0.550781 -1.132813,0.550781 -0.625,0 -1.128906,-0.246093 -1.128906,-0.550781 0,-0.308594 0.503906,-0.554688 1.128906,-0.554688 0.625,0 1.132813,0.246094 1.132813,0.554688 z m 0,0"
     id="path12" />
  <path
     fill-rule="nonzero"
     fill="#ffb200"
     fill-opacity="1"
     d="m 2.6425785,26.810547 c 0,0.304687 -0.507813,0.554687 -1.128906,0.554687 -0.62499999,0 -1.13281299,-0.25 -1.13281299,-0.554687 0,-0.304688 0.507813,-0.554688 1.13281299,-0.554688 0.621093,0 1.128906,0.25 1.128906,0.554688 z m 0,0"
     id="path10-2"
     style="fill:#00c85e;fill-opacity:1" />
  <path
     fill-rule="nonzero"
     fill="#ffb200"
     fill-opacity="1"
     d="m 4.957031,26.8125 c 0,0.304688 -0.503906,0.550781 -1.128906,0.550781 -0.625,0 -1.128906,-0.246093 -1.128906,-0.550781 0,-0.308594 0.503906,-0.554688 1.128906,-0.554688 0.625,0 1.128906,0.246094 1.128906,0.554688 z m 0,0"
     id="path11-4"
     style="fill:#00c85e;fill-opacity:1" />
  <path
     fill-rule="nonzero"
     fill="#ffb200"
     fill-opacity="1"
     d="m 7.277344,26.8125 c 0,0.304688 -0.507813,0.550781 -1.132813,0.550781 -0.625,0 -1.128906,-0.246093 -1.128906,-0.550781 0,-0.308594 0.503906,-0.554688 1.128906,-0.554688 0.625,0 1.132813,0.246094 1.132813,0.554688 z m 0,0"
     id="path12-5"
     style="fill:#00c85e;fill-opacity:1" />
</svg>
