<svg width="8.555" height="24" version="1.1" viewBox="0 0 8.555 24" xmlns="http://www.w3.org/2000/svg">
 <path d="m0 4.233h8.553v9.94h-8.553z" fill="#262626" stroke-width=".9098"/>
 <path d="m8.553 14.17c0 2.338-1.915 4.235-4.274 4.235-2.363 0-4.279-1.898-4.279-4.235s1.915-4.235 4.279-4.235c2.359 0 4.274 1.898 4.274 4.235z" fill="#262626" stroke-width="1.114"/>
 <path d="m8.555 4.235c0 2.333-1.915 4.231-4.274 4.231-2.363 0-4.279-1.898-4.279-4.231 0-2.342 1.915-4.235 4.279-4.235 2.359 0 4.274 1.893 4.274 4.235z" fill="#262626" stroke-width="1.114"/>
 <path d="m5.98 9.203c0 0.9402-0.7617 1.706-1.701 1.706-0.9446 0-1.701-0.7661-1.701-1.706 0-0.9399 0.7574-1.701 1.701-1.701 0.9402 0 1.701 0.7617 1.701 1.701z" fill="#0e0e0e" stroke-width="1.114"/>
 <path d="m5.98 14.17c0 0.9402-0.7617 1.701-1.701 1.701-0.9446 0-1.701-0.7617-1.701-1.701s0.7574-1.701 1.701-1.701c0.9402 0 1.701 0.7617 1.701 1.701z" fill="#ffb200" stroke-width="1.114"/>
 <path d="m5.98 4.235c0 0.9358-0.7617 1.701-1.701 1.701-0.9446 0-1.701-0.7661-1.701-1.701 0-0.9446 0.7574-1.706 1.701-1.706 0.9402 0 1.701 0.7617 1.701 1.706z" fill="#00c85d" stroke-width="1.114"/>
 <path d="m0 18.68h8.553v5.315h-8.553z" fill="#262626" stroke-width="1.114"/>
 <path d="m2.951 22.67c0 0.3395-0.5658 0.6181-1.258 0.6181-0.7008 0-1.267-0.2786-1.267-0.6181 0-0.3439 0.5658-0.6224 1.267-0.6224 0.6921 0 1.258 0.2786 1.258 0.6224z" fill="#ffb200" stroke-width="1.114"/>
 <path d="m5.537 22.67c0 0.3395-0.5615 0.6181-1.258 0.6181-0.7008 0-1.262-0.2786-1.262-0.6181 0-0.3439 0.5615-0.6181 1.262-0.6181 0.6964 0 1.258 0.2742 1.258 0.6181z" fill="#ffb200" stroke-width="1.114"/>
 <path d="m8.131 22.67c0 0.3395-0.5658 0.6181-1.267 0.6181-0.6964 0-1.262-0.2786-1.262-0.6181 0-0.3439 0.5658-0.6181 1.262-0.6181 0.7008 0 1.267 0.2742 1.267 0.6181z" fill="#ffb200" stroke-width="1.114"/>
 <path d="m2.951 20.01c0 0.3395-0.5658 0.6181-1.258 0.6181-0.7008 0-1.267-0.2786-1.267-0.6181 0-0.3395 0.5658-0.6181 1.267-0.6181 0.6921 0 1.258 0.2786 1.258 0.6181z" fill="#00c85d" stroke-width="1.114"/>
 <path d="m5.537 20.02c0 0.3395-0.5615 0.6137-1.258 0.6137-0.7008 0-1.262-0.2742-1.262-0.6137 0-0.3482 0.5615-0.6224 1.262-0.6224 0.6964 0 1.258 0.2742 1.258 0.6224z" fill="#00c85d" stroke-width="1.114"/>
 <path d="m8.131 20.02c0 0.3395-0.5658 0.6137-1.267 0.6137-0.6964 0-1.262-0.2742-1.262-0.6137 0-0.3482 0.5658-0.6224 1.262-0.6224 0.7008 0 1.267 0.2742 1.267 0.6224z" fill="#00c85d" stroke-width="1.114"/>
</svg>
