<svg width="10" height="24.61" version="1.1" viewBox="0 0 10 24.61" xmlns="http://www.w3.org/2000/svg">
 <path d="m0 4.949h10v11.62h-10z" fill="#262626"/>
 <path d="m10 16.29c0 2.734-2.242 4.949-5 4.949-2.762 0-5-2.215-5-4.949 0-2.73 2.238-4.945 5-4.945 2.758 0 5 2.215 5 4.945z" fill="#262626"/>
 <path d="m10 4.949c0 2.73-2.242 4.945-5 4.945-2.762 0-5-2.215-5-4.945 0-2.734 2.238-4.949 5-4.949 2.758 0 5 2.215 5 4.949z" fill="#262626"/>
 <path d="m6.988 16.29c0 1.102-0.8867 1.992-1.992 1.992-1.098 0-1.984-0.8906-1.984-1.992 0-1.098 0.8867-1.988 1.984-1.988 1.105 0 1.992 0.8906 1.992 1.988z" fill="#ffb200"/>
 <path d="m6.988 4.949c0 1.098-0.8867 1.988-1.992 1.988-1.098 0-1.988-0.8906-1.988-1.988 0-1.102 0.8906-1.992 1.988-1.992 1.105 0 1.992 0.8906 1.992 1.992z" fill="#00c85d"/>
 <path d="m6.988 10.76c0 1.098-0.8867 1.992-1.992 1.992-1.098 0-1.988-0.8945-1.988-1.992 0-1.098 0.8906-1.992 1.988-1.992 1.105 0 1.992 0.8945 1.992 1.992z" fill="#0d0d0d"/>
 <path d="m0 21.5h10v3.105h-10z" fill="#262626"/>
 <path d="m3.453 23.05c0 0.3945-0.6641 0.7227-1.477 0.7227-0.8164 0-1.48-0.3281-1.48-0.7227 0-0.3984 0.6641-0.7266 1.48-0.7266 0.8125 0 1.477 0.3281 1.477 0.7266z" fill="#00c85e"/>
 <path d="m6.473 23.05c0 0.3984-0.6562 0.7188-1.473 0.7188s-1.473-0.3203-1.473-0.7188c0-0.4023 0.6562-0.7227 1.473-0.7227s1.473 0.3203 1.473 0.7227z" fill="#00c85e"/>
 <path d="m9.504 23.05c0 0.3984-0.6602 0.7188-1.477 0.7188s-1.477-0.3203-1.477-0.7188c0-0.4023 0.6602-0.7227 1.477-0.7227s1.477 0.3203 1.477 0.7227z" fill="#00c85e"/>
</svg>
