<svg width="7.801" height="24" version="1.1" viewBox="0 0 7.801 24" xmlns="http://www.w3.org/2000/svg">
 <path d="m0 3.863h7.801v13.6h-7.801z" fill="#262626" stroke-width="1.016"/>
 <path d="m7.801 17.46c0 2.132-1.747 3.863-3.898 3.863-2.156 0-3.902-1.731-3.902-3.863 0-2.132 1.747-3.863 3.902-3.863 2.152 0 3.898 1.731 3.898 3.863z" fill="#262626" stroke-width="1.016"/>
 <path d="m7.801 3.863c0 2.128-1.747 3.859-3.898 3.859-2.156 0-3.902-1.731-3.902-3.859 0-2.136 1.747-3.863 3.902-3.863 2.152 0 3.898 1.727 3.898 3.863z" fill="#262626" stroke-width="1.016"/>
 <path d="m5.455 12.93c0 0.8575-0.6947 1.556-1.552 1.556-0.8615 0-1.552-0.6987-1.552-1.556 0-0.8575 0.6908-1.552 1.552-1.552 0.8575 0 1.552 0.6947 1.552 1.552z" fill="#0e0e0e" stroke-width="1.016"/>
 <path d="m5.455 17.46c0 0.8575-0.6947 1.552-1.552 1.552-0.8615 0-1.552-0.6947-1.552-1.552s0.6908-1.552 1.552-1.552c0.8575 0 1.552 0.6947 1.552 1.552z" fill="#ffb200" stroke-width="1.016"/>
 <path d="m5.455 8.396c0 0.8535-0.6947 1.552-1.552 1.552-0.8615 0-1.552-0.6987-1.552-1.552 0-0.8615 0.6908-1.556 1.552-1.556 0.8575 0 1.552 0.6947 1.552 1.556z" fill="#0e0e0e" stroke-width="1.016"/>
 <path d="m5.455 3.863c0 0.8535-0.6908 1.552-1.552 1.552-0.8575 0-1.556-0.6987-1.556-1.552 0-0.8615 0.6987-1.552 1.556-1.552 0.8615 0 1.552 0.6908 1.552 1.552z" fill="#00c85e" stroke-width="1.016"/>
 <path d="m0 21.58h7.801v2.424h-7.801z" fill="#262626" stroke-width=".7186"/>
 <path d="m2.692 22.79c0 0.3097-0.5161 0.5637-1.147 0.5637-0.6392 0-1.155-0.2541-1.155-0.5637 0-0.3097 0.5161-0.5637 1.155-0.5637 0.6312 0 1.147 0.2541 1.147 0.5637z" fill="#00c85e" stroke-width="1.016"/>
 <path d="m5.05 22.79c0 0.3097-0.5121 0.5598-1.147 0.5598-0.6392 0-1.151-0.2501-1.151-0.5598 0-0.3176 0.5121-0.5677 1.151-0.5677 0.6352 0 1.147 0.2501 1.147 0.5677z" fill="#00c85e" stroke-width="1.016"/>
 <path d="m7.416 22.79c0 0.3097-0.5161 0.5598-1.155 0.5598-0.6352 0-1.151-0.2501-1.151-0.5598 0-0.3176 0.5161-0.5677 1.151-0.5677 0.6392 0 1.155 0.2501 1.155 0.5677z" fill="#00c85e" stroke-width="1.016"/>
</svg>
