<svg width="7.677" height="26" version="1.1" viewBox="0 0 7.677 26" xmlns="http://www.w3.org/2000/svg">
 <path d="m0 3.801h7.676v13.38h-7.676z" fill="#262626"/>
 <path d="m7.676 17.18c0 2.098-1.719 3.801-3.836 3.801-2.121 0-3.84-1.703-3.84-3.801s1.719-3.801 3.84-3.801c2.117 0 3.836 1.703 3.836 3.801z" fill="#262626"/>
 <path d="m7.676 3.801c0 2.094-1.719 3.797-3.836 3.797-2.121 0-3.84-1.703-3.84-3.797 0-2.102 1.719-3.801 3.84-3.801 2.117 0 3.836 1.699 3.836 3.801z" fill="#262626"/>
 <path d="m5.367 12.72c0 0.8438-0.6836 1.531-1.527 1.531-0.8477 0-1.527-0.6875-1.527-1.531s0.6797-1.527 1.527-1.527c0.8438 0 1.527 0.6836 1.527 1.527z" fill="#ffb200"/>
 <path d="m5.367 17.18c0 0.8438-0.6836 1.527-1.527 1.527-0.8477 0-1.527-0.6836-1.527-1.527s0.6797-1.527 1.527-1.527c0.8438 0 1.527 0.6836 1.527 1.527z" fill="#0e0e0e"/>
 <path d="m5.367 8.262c0 0.8398-0.6836 1.527-1.527 1.527-0.8477 0-1.527-0.6875-1.527-1.527 0-0.8477 0.6797-1.531 1.527-1.531 0.8438 0 1.527 0.6836 1.527 1.531z" fill="#0e0e0e"/>
 <path d="m5.367 3.801c0 0.8398-0.6797 1.527-1.527 1.527-0.8438 0-1.531-0.6875-1.531-1.527 0-0.8477 0.6875-1.527 1.531-1.527 0.8477 0 1.527 0.6797 1.527 1.527z" fill="#ffb200"/>
 <path d="m0 21.23h7.676v4.77h-7.676z" fill="#262626"/>
 <path d="m2.648 24.81c0 0.3047-0.5078 0.5547-1.129 0.5547-0.6289 0-1.137-0.25-1.137-0.5547 0-0.3086 0.5078-0.5586 1.137-0.5586 0.6211 0 1.129 0.25 1.129 0.5586z" fill="#ffb200"/>
 <path d="m4.969 24.81c0 0.3047-0.5039 0.5547-1.129 0.5547-0.6289 0-1.133-0.25-1.133-0.5547 0-0.3086 0.5039-0.5547 1.133-0.5547 0.625 0 1.129 0.2461 1.129 0.5547z" fill="#ffb200"/>
 <path d="m7.297 24.81c0 0.3047-0.5078 0.5547-1.137 0.5547-0.625 0-1.133-0.25-1.133-0.5547 0-0.3086 0.5078-0.5547 1.133-0.5547 0.6289 0 1.137 0.2461 1.137 0.5547z" fill="#ffb200"/>
 <path d="m2.648 22.42c0 0.3047-0.5078 0.5547-1.129 0.5547-0.6289 0-1.137-0.25-1.137-0.5547s0.5078-0.5547 1.137-0.5547c0.6211 0 1.129 0.25 1.129 0.5547z" fill="#00c85d"/>
 <path d="m4.969 22.43c0 0.3047-0.5039 0.5508-1.129 0.5508-0.6289 0-1.133-0.2461-1.133-0.5508 0-0.3125 0.5039-0.5586 1.133-0.5586 0.625 0 1.129 0.2461 1.129 0.5586z" fill="#00c85d"/>
 <path d="m7.297 22.43c0 0.3047-0.5078 0.5508-1.137 0.5508-0.625 0-1.133-0.2461-1.133-0.5508 0-0.3125 0.5078-0.5586 1.133-0.5586 0.6289 0 1.137 0.2461 1.137 0.5586z" fill="#00c85d"/>
</svg>
