<svg width="7.656" height="30.38" version="1.1" viewBox="0 0 7.656 30.38" xmlns="http://www.w3.org/2000/svg">
 <path d="m0 3.789h7.656v17.79h-7.656z" fill="#262626"/>
 <path d="m7.656 21.58c0 2.094-1.715 3.789-3.828 3.789s-3.828-1.695-3.828-3.789c0-2.09 1.715-3.789 3.828-3.789s3.828 1.699 3.828 3.789z" fill="#262626"/>
 <path d="m7.656 3.789c0 2.09-1.715 3.789-3.828 3.789s-3.828-1.699-3.828-3.789c0-2.094 1.715-3.789 3.828-3.789s3.828 1.695 3.828 3.789z" fill="#262626"/>
 <path d="m5.352 17.13c0 0.8438-0.6797 1.527-1.523 1.527s-1.523-0.6836-1.523-1.527c0-0.8398 0.6797-1.523 1.523-1.523s1.523 0.6836 1.523 1.523z" fill="#ffb200"/>
 <path d="m5.352 21.58c0 0.8438-0.6797 1.523-1.523 1.523s-1.523-0.6797-1.523-1.523c0-0.8398 0.6797-1.523 1.523-1.523s1.523 0.6836 1.523 1.523z" fill="#0e0e0e"/>
 <path d="m5.352 12.69c0 0.8398-0.6797 1.523-1.523 1.523s-1.523-0.6836-1.523-1.523c0-0.8438 0.6797-1.527 1.523-1.527s1.523 0.6836 1.523 1.527z" fill="#0e0e0e"/>
 <path d="m5.352 3.789c0 0.8398-0.6797 1.523-1.523 1.523s-1.527-0.6836-1.527-1.523c0-0.8438 0.6836-1.523 1.527-1.523s1.523 0.6797 1.523 1.523z" fill="#0e0e0e"/>
 <path d="m5.352 8.238c0 0.8398-0.6797 1.523-1.523 1.523s-1.527-0.6836-1.527-1.523c0-0.8438 0.6836-1.527 1.527-1.527s1.523 0.6836 1.523 1.527z" fill="#ffb200"/>
 <path d="m2.773e-8 25.62h7.656v4.758h-7.656z" fill="#262626" stroke-width="1.414"/>
 <path d="m2.643 29.19c0 0.3047-0.5078 0.5547-1.129 0.5547-0.625 0-1.133-0.25-1.133-0.5547 0-0.3047 0.5078-0.5547 1.133-0.5547 0.6211 0 1.129 0.25 1.129 0.5547z" fill="#ffb200"/>
 <path d="m4.957 29.19c0 0.3047-0.5039 0.5508-1.129 0.5508s-1.129-0.2461-1.129-0.5508c0-0.3086 0.5039-0.5547 1.129-0.5547s1.129 0.2461 1.129 0.5547z" fill="#ffb200"/>
 <path d="m7.277 29.19c0 0.3047-0.5078 0.5508-1.133 0.5508s-1.129-0.2461-1.129-0.5508c0-0.3086 0.5039-0.5547 1.129-0.5547s1.133 0.2461 1.133 0.5547z" fill="#ffb200"/>
 <path d="m2.643 26.81c0 0.3047-0.5078 0.5547-1.129 0.5547-0.625 0-1.133-0.25-1.133-0.5547 0-0.3047 0.5078-0.5547 1.133-0.5547 0.6211 0 1.129 0.25 1.129 0.5547z" fill="#00c85e"/>
 <path d="m4.957 26.81c0 0.3047-0.5039 0.5508-1.129 0.5508s-1.129-0.2461-1.129-0.5508c0-0.3086 0.5039-0.5547 1.129-0.5547s1.129 0.2461 1.129 0.5547z" fill="#00c85e"/>
 <path d="m7.277 26.81c0 0.3047-0.5078 0.5508-1.133 0.5508s-1.129-0.2461-1.129-0.5508c0-0.3086 0.5039-0.5547 1.129-0.5547s1.133 0.2461 1.133 0.5547z" fill="#00c85e"/>
</svg>
