<?xml version="1.0" encoding="UTF-8"?>
<svg width="9.1948" height="24" version="1.1" viewBox="0 0 9.1948 24" xmlns="http://www.w3.org/2000/svg">
 <g fill-rule="evenodd">
  <path transform="scale(.060128)" d="m12.863 103.88h30.859v294.23h-30.859z" fill="#999" stroke="#666" stroke-width="2.1059"/>
  <path d="m0.42188 7.8125 0.94531 0.94922 6.0742-6.0742 0.875-0.23438 0.42188-0.42188v-0.85547l-0.75-0.75h-0.91797l-0.39062 0.39062-0.24219 0.89453z" fill="#fff"/>
  <path transform="matrix(.042517 -.042517 .042517 .042517 -18.831 11.019)" d="m423.11 176.16c-7.0284 0.32156-13.23 3.675-17.456 8.7281l-145.67 0.045937v30.135h145.71c4.3181 5.3288 10.979 8.7741 18.375 8.7281 13.138 0 23.796-10.658 23.796-23.796s-10.658-23.796-23.796-23.796c-0.18375 0-0.41344-0.045937-0.59719-0.045937-0.13781 0.045937-0.22969 0.045937-0.3675 0zm-156.14 15.757 153.02-0.045938 0.045938 16.216h-153.06z" fill="#fa0303" stroke="#666" stroke-width="2"/>
  <path transform="matrix(.046295 -.046295 .042517 .042517 -20.514 12.702)" d="m444.29 200.01c0 11.025-8.1424 19.983-18.183 19.983-10.041 0-18.141-8.9119-18.183-19.983 0.042188-11.071 8.1846-20.029 18.225-20.029s18.183 8.9578 18.141 20.029z" fill="#fff" stroke="#666" stroke-width="2"/>
 </g>
 <g fill="#fa0303" fill-rule="evenodd">
  <path transform="matrix(.042517 -.042517 .042517 .042517 -18.831 11.019)" d="m423.48 176.16c-12.863 0.3675-23.198 10.887-23.198 23.842 0 13.138 10.658 23.796 23.796 23.796s23.796-10.658 23.796-23.796-10.658-23.796-23.796-23.796c-0.18375 0-0.41344-0.045937-0.59719-0.045937zm-0.32156 7.6716c0.32156 0.045938 0.59719 0.045938 0.96469 0.045938 8.9119 0 16.124 7.2122 16.124 16.124s-7.2122 16.124-16.124 16.124-16.124-7.2122-16.124-16.124c-0.045938-8.5903 6.6609-15.665 15.159-16.17z" stroke="#666" stroke-width="1.6803"/>
  <path d="m6.1484 2.25 0.44531-0.44531-0.019531-0.35938-0.61719 0.61328z"/>
  <path d="m6.9336 3.0391 0.44922-0.44922 0.35938 0.023437-0.61719 0.61328z"/>
 </g>
 <path transform="scale(.060128)" d="m80.557 166.9c0 7.8608-6.3666 14.227-14.227 14.227s-14.227-6.3666-14.227-14.227 6.3666-14.227 14.227-14.227 14.227 6.3666 14.227 14.227z" fill="#6f0" fill-rule="evenodd" stroke="#666" stroke-width="6"/>
</svg>
