<?xml version="1.0" encoding="UTF-8" standalone="no"?>
<!-- Created with Inkscape (http://www.inkscape.org/) -->

<svg
   width="12"
   height="12.000001"
   viewBox="0 0 3.175 3.1750003"
   version="1.1"
   id="svg1"
   xmlns="http://www.w3.org/2000/svg"
   xmlns:svg="http://www.w3.org/2000/svg">
  <defs
     id="defs1" />
  <g
     id="layer1"
     transform="matrix(18.749999,0,0,18.749999,-801.61188,-1040.2094)">
    <rect
       style="vector-effect:non-scaling-stroke;fill:#000000;fill-opacity:1;stroke:none;stroke-width:0.00012221;stroke-linecap:square;stroke-miterlimit:5;stroke-dasharray:none;stroke-opacity:1;-inkscape-stroke:hairline"
       id="rect6"
       width="0.16933334"
       height="0.16933335"
       x="42.752636"
       y="55.477837" />
    <path
       id="path37"
       style="fill:#ffffff;stroke-width:0.0197554;stroke-miterlimit:5"
       d="m 42.835401,55.493393 a 0.03951098,0.03951098 0 0 0 -0.026,0.01152 0.03951098,0.03951098 0 0 0 -0.0086,0.04306 0.03951098,0.03951098 0 0 0 0.0365,0.02439 0.01975548,0.01975548 0 0 1 0.01825,0.01219 0.01975548,0.01975548 0 0 1 -0.0043,0.02153 0.01975548,0.01975548 0 0 1 -0.02153,0.0043 0.01975548,0.01975548 0 0 1 -0.0122,-0.01825 h -0.01976 a 0.03951098,0.03951098 0 0 0 0.02439,0.0365 0.03951098,0.03951098 0 0 0 0.01706,0.003 0.03951098,0.03951098 0 0 0 0.026,-0.01153 0.03951098,0.03951098 0 0 0 0.0086,-0.04306 0.03951098,0.03951098 0 0 0 -0.0365,-0.02439 0.01975548,0.01975548 0 0 1 -0.01825,-0.0122 0.01975548,0.01975548 0 0 1 0.0043,-0.02153 0.01975548,0.01975548 0 0 1 0.02153,-0.0043 0.01975548,0.01975548 0 0 1 0.01219,0.01825 h 0.01976 a 0.03951098,0.03951098 0 0 0 -0.02439,-0.0365 0.03951098,0.03951098 0 0 0 -0.01706,-0.003 z" />
  </g>
</svg>
