<?xml version="1.0" encoding="UTF-8" standalone="no"?>
<!-- Created with Inkscape (http://www.inkscape.org/) -->

<svg
   width="12.190475"
   height="15.999999"
   viewBox="0 0 3.2253966 4.2333331"
   version="1.1"
   id="svg1"
   xmlns="http://www.w3.org/2000/svg"
   xmlns:svg="http://www.w3.org/2000/svg">
  <defs
     id="defs1">
    <clipPath
       clipPathUnits="userSpaceOnUse"
       id="clipPath20">
      <g
         id="use20"
         style="fill:none;stroke:none">
        <path
           style="fill:none;fill-opacity:1;stroke:none;stroke-width:10.5833;stroke-miterlimit:5"
           d="m 91.533231,63.966171 h 1.612699 v 1.209524 h -1.612699 z"
           id="path20" />
      </g>
    </clipPath>
    <clipPath
       clipPathUnits="userSpaceOnUse"
       id="clipPath23">
      <g
         id="use23">
        <path
           style="fill:#ffffff;fill-opacity:1;stroke:none;stroke-width:10.5833;stroke-miterlimit:5"
           d="m 91.533231,62.353472 v 1.209524 h 1.612699 v -1.209524 z"
           id="path23" />
      </g>
    </clipPath>
    <clipPath
       clipPathUnits="userSpaceOnUse"
       id="clipPath26">
      <g
         id="use26" />
    </clipPath>
    <filter
       id="mask-powermask-path-effect30_inverse"
       style="color-interpolation-filters:sRGB"
       height="100"
       width="100"
       x="-50"
       y="-50">
      <feColorMatrix
         id="mask-powermask-path-effect30_primitive1"
         values="1"
         type="saturate"
         result="fbSourceGraphic" />
      <feColorMatrix
         id="mask-powermask-path-effect30_primitive2"
         values="-1 0 0 0 1 0 -1 0 0 1 0 0 -1 0 1 0 0 0 1 0 "
         in="fbSourceGraphic" />
    </filter>
    <clipPath
       clipPathUnits="userSpaceOnUse"
       id="clipPath32">
      <g
         id="use32">
        <path
           style="fill:none;fill-opacity:1;stroke:none;stroke-width:10.5833;stroke-miterlimit:5"
           d="M 91.533231,63.562996 H 93.14593 V 62.353472 H 91.533231 Z"
           id="path32" />
        <path
           style="fill:none;fill-opacity:1;stroke:none;stroke-width:10.5833;stroke-miterlimit:5"
           d="m 91.533231,63.966171 h 1.612699 v 1.209524 h -1.612699 z"
           id="path33" />
      </g>
    </clipPath>
  </defs>
  <g
     id="layer1"
     transform="translate(-90.726883,-61.647919)">
    <rect
       style="fill:#000000;stroke-width:0.403173;stroke-miterlimit:5"
       id="rect1"
       width="3.2253966"
       height="4.2333331"
       x="90.726883"
       y="61.647919" />
    <path
       id="path21"
       clip-path="none"
       style="fill:#ffffff;fill-opacity:1;stroke:none;stroke-width:10.5833;stroke-miterlimit:5"
       d="M 91.533036 61.950226 L 91.12996 62.353302 L 91.12996 63.563048 L 91.331498 63.764586 L 91.12996 63.966124 L 91.12996 65.175869 L 91.533036 65.578945 L 93.145858 65.578945 L 93.548934 65.175869 L 93.548934 63.966124 L 93.347396 63.764586 L 93.548934 63.563048 L 93.548934 62.353302 L 93.145858 61.950226 L 91.533036 61.950226 z M 91.533036 62.353302 L 93.145858 62.353302 L 93.145858 63.563048 L 91.533036 63.563048 L 91.533036 62.353302 z M 91.533036 63.966124 L 93.145858 63.966124 L 93.145858 65.175869 L 91.533036 65.175869 L 91.533036 63.966124 z "
       transform="translate(-1.1539801e-6)" />
  </g>
</svg>
