<svg width="16" height="15.99" version="1.1" viewBox="0 0 4.233 4.232" xmlns="http://www.w3.org/2000/svg">
 <g transform="matrix(.9333 0 0 .9996 -53.45 -53.42)">
  <rect x="57.26" y="53.45" width="4.536" height="4.233" stroke-miterlimit="5" stroke-width=".4032"/>
 </g>
 <g transform="matrix(.7068 0 0 .7068 -.3672 -.001112)">
  <path d="m5.587 1.44h-1.814v1.037l0.7774 1e-7c0.4293 0 0.7774 0.3481 0.7774 0.7774l4e-7 0.5183c0 0.4293-0.3481 0.7774-0.7774 0.7774-0.4293 0-0.7774-0.3481-0.7774-0.7774" fill="none" stroke="#fff" stroke-width=".5183"/>
  <path transform="matrix(1.415 0 0 1.415 .5195 .001573)" d="m1.565 3.028v0.7407l0.3702-0.3705v-0.3705z" fill="#fff" stroke-miterlimit="5" stroke-width=".2078"/>
  <g transform="matrix(.01037 0 0 .01037 -2.705 .559)" fill="#fff">
   <path d="m450 60-50 100h50v250h50v-350z" fill="#fff"/>
  </g>
 </g>
</svg>
