<?xml version="1.0" encoding="UTF-8"?>
<svg xmlns="http://www.w3.org/2000/svg" xmlns:xlink="http://www.w3.org/1999/xlink" width="16" height="16" viewBox="0 0 16 16">
<rect x="-1.6" y="-1.6" width="19.2" height="19.2" fill="rgb(0%, 0%, 0%)" fill-opacity="1"/>
<path fill-rule="nonzero" fill="rgb(100%, 100%, 100%)" fill-opacity="1" d="M 0.800781 0.800781 L 15.199219 0.800781 L 15.199219 15.199219 L 0.800781 15.199219 Z M 0.800781 0.800781 "/>
<path fill="none" stroke-width="50.005798" stroke-linecap="butt" stroke-linejoin="miter" stroke="rgb(0%, 0%, 0%)" stroke-opacity="1" stroke-miterlimit="4" d="M 374.940285 159.968617 C 375.075934 126.870181 396.779826 97.705576 428.38612 88.210123 C 460.128063 78.71467 494.311693 91.058759 512.624353 118.731221 C 530.801363 146.268035 528.766623 182.622055 507.605328 207.988479 L 374.940285 369.004232 L 374.940285 385.010853 L 550.063567 385.010853 " transform="matrix(0.0287967, 0, 0, 0.0287967, -8.558753, 1.233279)"/>
<path fill="none" stroke-width="50.005798" stroke-linecap="butt" stroke-linejoin="miter" stroke="rgb(0%, 0%, 0%)" stroke-opacity="1" stroke-miterlimit="4" d="M 375.048796 159.968617 C 375.048796 126.870181 396.752689 97.705576 428.494631 88.210123 C 460.100925 78.71467 494.284556 91.058759 512.597215 118.731221 C 530.774225 146.268035 528.739485 182.622055 507.57819 207.988479 L 375.048796 369.004232 L 375.048796 385.010853 L 550.036429 385.010853 " transform="matrix(0.0287967, 0, 0, 0.0287967, -1.358753, 1.233279)"/>
</svg>
