<?xml version="1.0" encoding="UTF-8"?>
<svg xmlns="http://www.w3.org/2000/svg" xmlns:xlink="http://www.w3.org/1999/xlink" width="16" height="16" viewBox="0 0 16 16">
<rect x="-1.6" y="-1.6" width="19.2" height="19.2" fill="rgb(0%, 0%, 0%)" fill-opacity="1"/>
<path fill-rule="nonzero" fill="rgb(100%, 100%, 100%)" fill-opacity="1" d="M 0.800781 0.800781 L 15.199219 0.800781 L 15.199219 15.199219 L 0.800781 15.199219 Z M 0.800781 0.800781 "/>
<path fill="none" stroke-width="50.005798" stroke-linecap="butt" stroke-linejoin="miter" stroke="rgb(0%, 0%, 0%)" stroke-opacity="1" stroke-miterlimit="4" d="M 374.989116 160.018523 C 374.989116 126.920087 396.693009 97.755481 428.434952 88.124379 C 460.176894 78.628926 494.360525 91.108664 512.537535 118.645478 C 530.850194 146.317941 528.815454 182.536311 507.654159 208.038385 L 374.989116 368.918488 L 374.989116 385.060758 L 549.97675 385.060758 " transform="matrix(0.0287967, 0, 0, 0.0287967, -7.118753, 1.231842)"/>
<path fill-rule="nonzero" fill="rgb(0%, 0%, 0%)" fill-opacity="1" d="M 11.597656 2.960938 L 10.160156 5.839844 L 11.597656 5.839844 L 11.597656 13.039062 L 13.039062 13.039062 L 13.039062 2.960938 Z M 11.597656 2.960938 "/>
</svg>
