<?xml version="1.0" encoding="UTF-8"?>
<svg xmlns="http://www.w3.org/2000/svg" xmlns:xlink="http://www.w3.org/1999/xlink" width="16" height="16" viewBox="0 0 16 16">
<rect x="-1.6" y="-1.6" width="19.2" height="19.2" fill="rgb(0%, 0%, 0%)" fill-opacity="1"/>
<path fill-rule="nonzero" fill="rgb(100%, 100%, 100%)" fill-opacity="1" d="M 0.800781 0.800781 L 15.199219 0.800781 L 15.199219 15.199219 L 0.800781 15.199219 Z M 0.800781 0.800781 "/>
<path fill-rule="nonzero" fill="rgb(0%, 0%, 0%)" fill-opacity="1" d="M 3.199219 2.398438 L 1.601562 5.601562 L 3.199219 5.601562 L 3.199219 13.597656 L 4.800781 13.597656 L 4.800781 2.398438 Z M 3.199219 2.398438 "/>
<path fill="none" stroke-width="50" stroke-linecap="butt" stroke-linejoin="miter" stroke="rgb(0%, 0%, 0%)" stroke-opacity="1" stroke-miterlimit="4" d="M 375.018828 159.94934 C 375.018828 126.86584 396.748949 97.688879 428.489576 88.166691 C 460.108124 78.644502 494.290338 91.096595 512.602238 118.686524 C 530.792059 146.276454 528.83879 182.656096 507.596985 208.048597 L 375.018828 368.949161 L 375.018828 384.941554 L 549.958515 384.941554 " transform="matrix(0.0319976, 0, 0, 0.0319976, -3.198934, 0.479656)"/>
</svg>
