<?xml version="1.0" encoding="UTF-8"?>
<svg xmlns="http://www.w3.org/2000/svg" xmlns:xlink="http://www.w3.org/1999/xlink" width="16" height="16" viewBox="0 0 16 16">
<rect x="-1.6" y="-1.6" width="19.2" height="19.2" fill="rgb(0%, 0%, 0%)" fill-opacity="1"/>
<path fill-rule="nonzero" fill="rgb(100%, 100%, 100%)" fill-opacity="1" d="M 0.800781 0.800781 L 15.199219 0.800781 L 15.199219 15.199219 L 0.800781 15.199219 Z M 0.800781 0.800781 "/>
<path fill-rule="nonzero" fill="rgb(0%, 0%, 0%)" fill-opacity="1" d="M 3.199219 2.398438 L 1.601562 5.601562 L 3.199219 5.601562 L 3.199219 13.597656 L 4.800781 13.597656 L 4.800781 2.398438 Z M 3.199219 2.398438 "/>
<path fill="none" stroke-width="49.999901" stroke-linecap="butt" stroke-linejoin="miter" stroke="rgb(0%, 0%, 0%)" stroke-opacity="1" stroke-miterlimit="4" d="M 524.975546 160.048906 C 524.975546 118.54502 491.406226 84.9757 450.024409 84.9757 C 408.520523 84.9757 374.951203 118.54502 374.951203 160.048906 L 374.951203 309.951179 C 374.951203 351.455066 408.520523 385.024386 450.024409 385.024386 C 491.406226 385.024386 524.975546 351.455066 524.975546 309.951179 L 524.975546 285.048847 C 524.975546 243.544961 491.406226 209.975641 450.024409 209.975641 C 408.520523 209.975641 374.951203 243.544961 374.951203 285.048847 " transform="matrix(-0.032, 0.000000000000000004, -0.000000000000000004, -0.032, 25.600007, 15.520005)"/>
</svg>
