<?xml version="1.0" encoding="UTF-8"?>
<svg xmlns="http://www.w3.org/2000/svg" xmlns:xlink="http://www.w3.org/1999/xlink" width="16" height="16" viewBox="0 0 16 16">
<rect x="-1.6" y="-1.6" width="19.2" height="19.2" fill="rgb(0%, 0%, 0%)" fill-opacity="1"/>
<path fill-rule="nonzero" fill="rgb(100%, 100%, 100%)" fill-opacity="1" d="M 0.800781 0.800781 L 15.199219 0.800781 L 15.199219 15.199219 L 0.800781 15.199219 Z M 0.800781 0.800781 "/>
<path fill="none" stroke-width="49.999901" stroke-linecap="butt" stroke-linejoin="miter" stroke="rgb(0%, 0%, 0%)" stroke-opacity="1" stroke-miterlimit="4" d="M 524.951106 160.048829 C 524.951106 118.544943 491.381786 84.975623 449.99997 84.975623 C 408.618154 84.975623 375.048834 118.544943 375.048834 160.048829 L 375.048834 309.951101 C 375.048834 351.454987 408.618154 385.024307 449.99997 385.024307 C 491.381786 385.024307 524.951106 351.454987 524.951106 309.951101 L 524.951106 285.048769 C 524.951106 243.544883 491.381786 209.975563 449.99997 209.975563 C 408.618154 209.975563 375.048834 243.544883 375.048834 285.048769 " transform="matrix(0.032, 0, 0, 0.032, -6.400006, 0.479998)"/>
</svg>
