<?xml version="1.0" encoding="UTF-8" standalone="no"?>
<!-- Created with Inkscape (http://www.inkscape.org/) -->

<svg
   width="16"
   height="16"
   viewBox="0 0 4.2333332 4.2333333"
   version="1.1"
   id="svg1"
   xmlns="http://www.w3.org/2000/svg"
   xmlns:svg="http://www.w3.org/2000/svg">
  <defs
     id="defs1" />
  <g
     id="layer1">
    <rect
       style="fill:#000000;stroke:none;stroke-width:10.5833;stroke-miterlimit:5"
       id="rect2"
       width="4.2333331"
       height="4.2333331"
       x="0"
       y="0" />
    <rect
       style="fill:#ffffff;stroke:none;stroke-width:10.5833;stroke-miterlimit:5"
       id="rect6"
       width="3.8099999"
       height="3.8099999"
       x="0.21166667"
       y="0.21166679" />
    <g
       id="layer2"
       transform="matrix(0.00846667,0,0,0.00846667,-1.6933346,0.12699915)">
      <g
         id="layer2-6"
         transform="rotate(180,449.99998,235)">
        <path
           id="path16"
           style="fill:none;stroke:#000000;stroke-width:49.9999"
           d="m 524.99996,160 c 0,-41.42135 -33.57864,-74.999991 -74.99999,-74.999992 -41.42135,1e-6 -74.99999,33.578642 -74.99999,74.999992 l 1e-5,150 v 0 c 0,41.42135 33.57864,74.99999 74.99999,74.99999 41.42135,0 74.99999,-33.57864 74.99999,-74.99999 l 2e-5,-25 v 0 c -10e-6,-41.42136 -33.57865,-75 -75,-75 C 408.57864,210 375,243.57864 375,284.99999" />
      </g>
    </g>
  </g>
</svg>
