<?xml version="1.0" encoding="UTF-8"?>
<svg xmlns="http://www.w3.org/2000/svg" xmlns:xlink="http://www.w3.org/1999/xlink" width="16" height="16" viewBox="0 0 16 16">
<rect x="-1.6" y="-1.6" width="19.2" height="19.2" fill="rgb(0%, 0%, 0%)" fill-opacity="1"/>
<path fill-rule="nonzero" fill="rgb(100%, 100%, 100%)" fill-opacity="1" d="M 0.800781 0.800781 L 15.199219 0.800781 L 15.199219 15.199219 L 0.800781 15.199219 Z M 0.800781 0.800781 "/>
<path fill-rule="nonzero" fill="rgb(0%, 0%, 0%)" fill-opacity="1" d="M 3.199219 2.398438 L 1.601562 5.601562 L 3.199219 5.601562 L 3.199219 13.597656 L 4.800781 13.597656 L 4.800781 2.398438 Z M 3.199219 2.398438 "/>
<path fill="none" stroke-width="50" stroke-linecap="butt" stroke-linejoin="miter" stroke="rgb(0%, 0%, 0%)" stroke-opacity="1" stroke-miterlimit="4" d="M 549.951031 84.975555 L 375.024315 84.975555 L 375.024315 184.951117 L 449.975469 184.951117 C 491.479366 184.951117 525.048694 218.520445 525.048694 260.024342 L 525.048694 309.951088 C 525.048694 351.454984 491.479366 385.024312 449.975469 385.024312 C 408.593643 385.024312 375.024315 351.454984 375.024315 309.951088 " transform="matrix(0.032, 0, 0, 0.032, -3.2, 0.48)"/>
</svg>
