<?xml version="1.0" encoding="UTF-8"?>
<svg xmlns="http://www.w3.org/2000/svg" xmlns:xlink="http://www.w3.org/1999/xlink" width="16" height="16" viewBox="0 0 16 16">
<rect x="-1.6" y="-1.6" width="19.2" height="19.2" fill="rgb(0%, 0%, 0%)" fill-opacity="1"/>
<path fill-rule="nonzero" fill="rgb(100%, 100%, 100%)" fill-opacity="1" d="M 0.800781 0.800781 L 15.199219 0.800781 L 15.199219 15.199219 L 0.800781 15.199219 Z M 0.800781 0.800781 "/>
<path fill-rule="nonzero" fill="rgb(0%, 0%, 0%)" fill-opacity="1" d="M 3.199219 2.398438 L 1.601562 5.601562 L 3.199219 5.601562 L 3.199219 13.601562 L 4.800781 13.601562 L 4.800781 2.398438 Z M 3.199219 2.398438 "/>
<path fill="none" stroke-width="50" stroke-linecap="butt" stroke-linejoin="miter" stroke="rgb(0%, 0%, 0%)" stroke-opacity="1" stroke-miterlimit="4" d="M 625.048657 309.951032 C 625.048657 351.454919 591.479338 385.024238 549.975451 385.024238 C 508.593635 385.024238 475.024315 351.454919 475.024315 309.951032 L 475.024315 160.048761 C 475.024315 118.544874 508.593635 84.975554 549.975451 84.975554 C 591.479338 84.975554 625.048657 118.544874 625.048657 160.048761 Z M 625.048657 309.951032 " transform="matrix(0.032, 0, 0, 0.032, -6.400004, 0.48)"/>
</svg>
