<?xml version="1.0" encoding="UTF-8"?>
<svg xmlns="http://www.w3.org/2000/svg" xmlns:xlink="http://www.w3.org/1999/xlink" width="16" height="16" viewBox="0 0 16 16">
<rect x="-1.6" y="-1.6" width="19.2" height="19.2" fill="rgb(0%, 0%, 0%)" fill-opacity="1"/>
<path fill-rule="nonzero" fill="rgb(100%, 100%, 100%)" fill-opacity="1" d="M 0.800781 0.800781 L 15.199219 0.800781 L 15.199219 15.199219 L 0.800781 15.199219 Z M 0.800781 0.800781 "/>
<path fill-rule="nonzero" fill="rgb(0%, 0%, 0%)" fill-opacity="1" d="M 3.199219 2.398438 L 1.601562 5.601562 L 3.199219 5.601562 L 3.199219 13.597656 L 4.800781 13.597656 L 4.800781 2.398438 Z M 3.199219 2.398438 "/>
<path fill="none" stroke-width="49.999901" stroke-linecap="butt" stroke-linejoin="miter" stroke="rgb(0%, 0%, 0%)" stroke-opacity="1" stroke-miterlimit="4" d="M 375.024416 160.048842 C 375.024416 118.544955 408.593736 84.975635 449.975553 84.975635 C 491.479439 84.975635 525.048759 118.544955 525.048759 160.048842 C 525.048759 201.430658 491.479439 234.999978 449.975553 234.999978 L 424.95115 234.999978 L 449.975553 234.999978 C 491.479439 234.999978 525.048759 268.569298 525.048759 309.951114 C 525.048759 351.455001 491.479439 385.024321 449.975553 385.024321 C 408.593736 385.024321 375.024416 351.455001 375.024416 309.951114 " transform="matrix(0.032, 0, 0, 0.032, -3.200006, 0.479997)"/>
</svg>
