<?xml version="1.0" encoding="UTF-8"?>
<svg xmlns="http://www.w3.org/2000/svg" xmlns:xlink="http://www.w3.org/1999/xlink" width="16" height="16" viewBox="0 0 16 16">
<rect x="-1.6" y="-1.6" width="19.2" height="19.2" fill="rgb(0%, 0%, 0%)" fill-opacity="1"/>
<path fill-rule="nonzero" fill="rgb(100%, 100%, 100%)" fill-opacity="1" d="M 0.800781 0.800781 L 15.199219 0.800781 L 15.199219 15.199219 L 0.800781 15.199219 Z M 0.800781 0.800781 "/>
<path fill="none" stroke-width="50.005798" stroke-linecap="butt" stroke-linejoin="miter" stroke="rgb(0%, 0%, 0%)" stroke-opacity="1" stroke-miterlimit="4" d="M 375.055737 159.968585 C 375.055737 126.870149 396.75963 97.705543 428.365923 88.21009 C 460.107866 78.714637 494.291496 91.058726 512.604156 118.731189 C 530.781166 146.268003 528.746426 182.622023 507.585131 207.988447 L 375.055737 369.0042 L 375.055737 385.01082 L 550.04337 385.01082 " transform="matrix(0.0287967, 0, 0, 0.0287967, -8.558172, 1.23328)"/>
<path fill="none" stroke-width="42" stroke-linecap="butt" stroke-linejoin="miter" stroke="rgb(0%, 0%, 0%)" stroke-opacity="1" stroke-miterlimit="4" d="M 418.050063 223.004554 C 418.050063 257.753894 389.794863 286.009095 355.045523 286.009095 C 320.182251 286.009095 292.040983 257.753894 292.040983 223.004554 L 292.040983 96.995474 C 292.040983 62.246134 320.182251 33.990933 355.045523 33.990933 C 389.794863 33.990933 418.050063 62.246134 418.050063 96.995474 Z M 418.050063 223.004554 " transform="matrix(0.0342857, 0, 0, 0.0342857, -0.57143, 2.514284)"/>
</svg>
