<?xml version="1.0" encoding="UTF-8"?>
<svg xmlns="http://www.w3.org/2000/svg" xmlns:xlink="http://www.w3.org/1999/xlink" width="16" height="16" viewBox="0 0 16 16">
<rect x="-1.6" y="-1.6" width="19.2" height="19.2" fill="rgb(0%, 0%, 0%)" fill-opacity="1"/>
<path fill-rule="nonzero" fill="rgb(100%, 100%, 100%)" fill-opacity="1" d="M 0.800781 0.800781 L 15.199219 0.800781 L 15.199219 15.199219 L 0.800781 15.199219 Z M 0.800781 0.800781 "/>
<path fill-rule="nonzero" fill="rgb(0%, 0%, 0%)" fill-opacity="1" d="M 3.199219 2.398438 L 1.601562 5.601562 L 3.199219 5.601562 L 3.199219 13.597656 L 4.800781 13.597656 L 4.800781 2.398438 Z M 3.199219 2.398438 "/>
<path fill="none" stroke-width="49.999901" stroke-linecap="butt" stroke-linejoin="miter" stroke="rgb(0%, 0%, 0%)" stroke-opacity="1" stroke-miterlimit="4" d="M 525.048751 160.048819 C 525.048751 118.544932 491.479431 84.975612 449.975545 84.975612 C 408.593729 84.975612 375.024409 118.544932 375.024409 160.048819 L 375.024409 309.951092 C 375.024409 351.454978 408.593729 385.024298 449.975545 385.024298 C 491.479431 385.024298 525.048751 351.454978 525.048751 309.951092 L 525.048751 285.04876 C 525.048751 243.544873 491.479431 209.975553 449.975545 209.975553 C 408.593729 209.975553 375.024409 243.544873 375.024409 285.04876 " transform="matrix(0.032, 0, 0, 0.032, -3.200006, 0.479998)"/>
</svg>
