<?xml version="1.0" encoding="UTF-8"?>
<svg xmlns="http://www.w3.org/2000/svg" xmlns:xlink="http://www.w3.org/1999/xlink" width="16" height="16" viewBox="0 0 16 16">
<rect x="-1.6" y="-1.6" width="19.2" height="19.2" fill="rgb(0%, 0%, 0%)" fill-opacity="1"/>
<path fill-rule="nonzero" fill="rgb(100%, 100%, 100%)" fill-opacity="1" d="M 0.800781 0.800781 L 15.199219 0.800781 L 15.199219 15.199219 L 0.800781 15.199219 Z M 0.800781 0.800781 "/>
<path fill-rule="nonzero" fill="rgb(0%, 0%, 0%)" fill-opacity="1" d="M 3.199219 2.398438 L 1.601562 5.601562 L 3.199219 5.601562 L 3.199219 13.597656 L 4.800781 13.597656 L 4.800781 2.398438 Z M 3.199219 2.398438 "/>
<path fill="none" stroke-width="50" stroke-linecap="square" stroke-linejoin="miter" stroke="rgb(0%, 0%, 0%)" stroke-opacity="1" stroke-miterlimit="4" d="M 525.048771 160.048805 C 525.048771 201.430636 491.479439 234.999968 449.975538 234.999968 C 408.593707 234.999968 375.024375 201.430636 375.024375 160.048805 C 375.024375 118.544903 408.593707 84.975571 449.975538 84.975571 C 491.479439 84.975571 525.048771 118.544903 525.048771 160.048805 Z M 525.048771 160.048805 " transform="matrix(0.032, 0, 0, 0.032, -3.2, 0.48)"/>
<path fill="none" stroke-width="50" stroke-linecap="square" stroke-linejoin="miter" stroke="rgb(0%, 0%, 0%)" stroke-opacity="1" stroke-miterlimit="4" d="M 525.048771 309.951131 C 525.048771 351.455032 491.479439 385.024364 449.975538 385.024364 C 408.593707 385.024364 375.024375 351.455032 375.024375 309.951131 C 375.024375 268.5693 408.593707 234.999968 449.975538 234.999968 C 491.479439 234.999968 525.048771 268.5693 525.048771 309.951131 Z M 525.048771 309.951131 " transform="matrix(0.032, 0, 0, 0.032, -3.2, 0.48)"/>
</svg>
