<?xml version="1.0" encoding="UTF-8"?>
<svg xmlns="http://www.w3.org/2000/svg" xmlns:xlink="http://www.w3.org/1999/xlink" width="16" height="16" viewBox="0 0 16 16">
<rect x="-1.6" y="-1.6" width="19.2" height="19.2" fill="rgb(0%, 0%, 0%)" fill-opacity="1"/>
<path fill-rule="nonzero" fill="rgb(100%, 100%, 100%)" fill-opacity="1" d="M 0.800781 0.800781 L 15.199219 0.800781 L 15.199219 15.199219 L 0.800781 15.199219 Z M 0.800781 0.800781 "/>
<path fill="none" stroke-width="49.999901" stroke-linecap="butt" stroke-linejoin="miter" stroke="rgb(0%, 0%, 0%)" stroke-opacity="1" stroke-miterlimit="4" d="M 524.951133 160.048878 C 524.951133 118.544992 491.381814 84.975672 449.999997 84.975672 C 408.618181 84.975672 375.048862 118.544992 375.048862 160.048878 L 375.048862 309.95115 C 375.048862 351.455036 408.618181 385.024356 449.999997 385.024356 C 491.381814 385.024356 524.951133 351.455036 524.951133 309.95115 L 524.951133 285.048818 C 524.951133 243.544932 491.381814 209.975612 449.999997 209.975612 C 408.618181 209.975612 375.048862 243.544932 375.048862 285.048818 " transform="matrix(-0.032, 0.000000000000000004, -0.000000000000000004, -0.032, 22.400007, 15.520004)"/>
</svg>
