<?xml version="1.0" encoding="UTF-8"?>
<svg xmlns="http://www.w3.org/2000/svg" xmlns:xlink="http://www.w3.org/1999/xlink" width="16" height="16" viewBox="0 0 16 16">
<rect x="-1.6" y="-1.6" width="19.2" height="19.2" fill="rgb(0%, 0%, 0%)" fill-opacity="1"/>
<path fill-rule="nonzero" fill="rgb(100%, 100%, 100%)" fill-opacity="1" d="M 0.800781 0.800781 L 15.199219 0.800781 L 15.199219 15.199219 L 0.800781 15.199219 Z M 0.800781 0.800781 "/>
<path fill="none" stroke-width="50" stroke-linecap="square" stroke-linejoin="miter" stroke="rgb(0%, 0%, 0%)" stroke-opacity="1" stroke-miterlimit="4" d="M 524.951077 160.048845 C 524.951077 201.430661 491.381758 234.999981 449.999941 234.999981 C 408.618125 234.999981 375.048806 201.430661 375.048806 160.048845 C 375.048806 118.544959 408.618125 84.975639 449.999941 84.975639 C 491.381758 84.975639 524.951077 118.544959 524.951077 160.048845 Z M 524.951077 160.048845 " transform="matrix(0.032, 0, 0, 0.032, -6.400005, 0.479997)"/>
<path fill="none" stroke-width="50" stroke-linecap="square" stroke-linejoin="miter" stroke="rgb(0%, 0%, 0%)" stroke-opacity="1" stroke-miterlimit="4" d="M 524.951077 309.951117 C 524.951077 351.455003 491.381758 385.024323 449.999941 385.024323 C 408.618125 385.024323 375.048806 351.455003 375.048806 309.951117 C 375.048806 268.569301 408.618125 234.999981 449.999941 234.999981 C 491.381758 234.999981 524.951077 268.569301 524.951077 309.951117 Z M 524.951077 309.951117 " transform="matrix(0.032, 0, 0, 0.032, -6.400005, 0.479997)"/>
</svg>
