<?xml version="1.0" encoding="UTF-8" standalone="no"?>
<!-- Created with Inkscape (http://www.inkscape.org/) -->

<svg
   width="16"
   height="16"
   viewBox="0 0 16 16"
   version="1.1"
   id="svg1"
   xmlns="http://www.w3.org/2000/svg"
   xmlns:svg="http://www.w3.org/2000/svg">
  <defs
     id="defs1" />
  <g
     id="layer1"
     transform="translate(-292,-292)">
    <circle
       style="fill:#000000;fill-opacity:1;stroke:none;stroke-width:2.01575;stroke-linecap:square;stroke-miterlimit:5;stroke-dasharray:none"
       id="path2"
       cx="300"
       cy="300"
       r="8" />
    <g
       id="g5"
       transform="matrix(0.02666667,0,0,0.02666667,291.46667,292)">
      <path
         style="fill:none;fill-opacity:1;stroke:#ffff00;stroke-width:40;stroke-linecap:square;stroke-miterlimit:5;stroke-dasharray:none;stroke-opacity:1"
         d="M 160,420 V 180 h 60 c 33.13708,0 60,26.86292 60,60 0,33.13708 -26.86292,60 -60,60 -60,0 -60,0 -60,0"
         id="path3" />
      <path
         style="fill:#ffff00;fill-opacity:1;stroke:none;stroke-width:40;stroke-linecap:square;stroke-miterlimit:5;stroke-dasharray:none;stroke-opacity:1"
         d="m 180,320 c 80,120 80,120 80,120 h 40 L 220,320 Z"
         id="path5" />
    </g>
    <g
       id="layer2"
       transform="matrix(0.02133334,0,0,0.02133334,293.06666,294.98666)"
       style="stroke:#ffff00;stroke-opacity:1">
      <path
         id="path16"
         style="fill:none;stroke:#ffff00;stroke-width:49.9999;stroke-opacity:1"
         d="m 524.99996,160 c 0,-41.42135 -33.57864,-74.999991 -74.99999,-74.999992 -41.42135,1e-6 -74.99999,33.578642 -74.99999,74.999992 l 1e-5,150 v 0 c 0,41.42135 33.57864,74.99999 74.99999,74.99999 41.42135,0 74.99999,-33.57864 74.99999,-74.99999 l 2e-5,-25 v 0 c -10e-6,-41.42136 -33.57865,-75 -75,-75 C 408.57864,210 375,243.57864 375,284.99999" />
    </g>
  </g>
</svg>
