<?xml version="1.0" encoding="UTF-8" standalone="no"?>
<svg
   width="23"
   height="23"
   viewBox="0 0 23 23"
   version="1.1"
   id="svg3"
   xmlns="http://www.w3.org/2000/svg"
   xmlns:svg="http://www.w3.org/2000/svg">
  <defs
     id="defs3" />
  <path
     fill-rule="nonzero"
     fill="rgb(100%, 100%, 100%)"
     fill-opacity="1"
     stroke-width="20"
     stroke-linecap="square"
     stroke-linejoin="miter"
     stroke="rgb(0%, 0%, 0%)"
     stroke-opacity="1"
     stroke-miterlimit="5"
     d="M 10.003397 369.996605 L 10.003397 10.003397 L 95.838995 10.003397 L 369.996605 284.161006 L 369.996605 369.996605 Z M 10.003397 369.996605 "
     transform="matrix(0.0605263, 0, 0, 0.0605263, 0, 0)"
     id="path1" />
  <path
     fill="none"
     stroke-width="15"
     stroke-linecap="butt"
     stroke-linejoin="miter"
     stroke="rgb(0%, 0%, 0%)"
     stroke-opacity="1"
     stroke-miterlimit="4"
     d="M 167.476223 280.030572 C 167.476223 292.421876 157.408289 302.489811 145.016984 302.489811 C 132.561142 302.489811 122.493207 292.421876 122.493207 280.030572 L 122.493207 234.983017 C 122.493207 222.591713 132.561142 212.523778 145.016984 212.523778 C 157.408289 212.523778 167.476223 222.591713 167.476223 234.983017 Z M 167.476223 280.030572 "
     transform="matrix(0.0605263, 0, 0, 0.0605263, 0, 0)"
     id="path3" />
  <path
     id="path58"
     style="fill:#000000;fill-opacity:1;stroke:none;stroke-width:0.907599;stroke-miterlimit:5;stroke-dasharray:none;stroke-opacity:1"
     d="m 4.2364059,12.409335 a 1.8152031,1.8152031 0 0 0 -1.8152026,1.815203 1.8152031,1.8152031 0 0 0 0.6160433,1.361401 1.8152031,1.8152031 0 0 0 -0.6160433,1.361403 1.8152031,1.8152031 0 0 0 1.8152026,1.815203 1.8152031,1.8152031 0 0 0 1.8152033,-1.815203 1.8152031,1.8152031 0 0 0 -0.6156891,-1.361047 1.8152031,1.8152031 0 0 0 0.6156891,-1.361757 1.8152031,1.8152031 0 0 0 -1.8152033,-1.815203 z m 0,0.907602 A 0.90760158,0.90760158 0 0 1 5.144008,14.224538 0.90760158,0.90760158 0 0 1 4.2364059,15.13214 0.90760158,0.90760158 0 0 1 3.3288045,14.224538 0.90760158,0.90760158 0 0 1 4.2364059,13.316937 Z m 0,2.722804 A 0.90760158,0.90760158 0 0 1 5.144008,16.947342 0.90760158,0.90760158 0 0 1 4.2364059,17.854943 0.90760158,0.90760158 0 0 1 3.3288045,16.947342 0.90760158,0.90760158 0 0 1 4.2364059,16.039741 Z" />
</svg>
