<?xml version="1.0" encoding="UTF-8" standalone="no"?>
<!-- Created with Inkscape (http://www.inkscape.org/) -->

<svg
   width="4.2333331mm"
   height="4.2333331mm"
   viewBox="0 0 4.2333331 4.2333331"
   version="1.1"
   id="svg1"
   xmlns="http://www.w3.org/2000/svg"
   xmlns:svg="http://www.w3.org/2000/svg">
  <defs
     id="defs1" />
  <g
     id="layer1"
     transform="scale(0.01114035)">
    <path
       style="fill:#ffffff;stroke:#000000;stroke-width:20;stroke-linecap:square;stroke-miterlimit:5;stroke-dasharray:none;stroke-opacity:1"
       d="M 9.9999997,370 V 10.000003 H 95.857863 L 370,284.14212 V 370 Z"
       id="path11" />
    <path
       id="path18-5"
       style="fill:none;stroke:#000000;stroke-width:15;stroke-linecap:butt;stroke-dasharray:none"
       d="m 212.5,280 c 0,12.42641 -10.0736,22.5 -22.5,22.5 -12.42641,0 -22.5,-10.07359 -22.5,-22.5 v -45 c 0,-12.42641 10.0736,-22.5 22.5,-22.5 12.42641,0 22.5,10.07359 22.5,22.5 z" />
    <path
       id="path18-5-5"
       style="fill:none;stroke:#000000;stroke-width:15;stroke-linecap:butt;stroke-dasharray:none"
       d="m 137.5,280 c 0,12.42641 -10.0736,22.5 -22.5,22.5 -12.42641,0 -22.500001,-10.07359 -22.500001,-22.5 v -45 c 0,-12.42641 10.073601,-22.5 22.500001,-22.5 12.42641,0 22.5,10.07359 22.5,22.5 z" />
    <g
       id="layer2-7-2"
       transform="matrix(0.29999995,0,0,0.29999995,-79.999968,187.00003)">
      <path
         style="fill:#000000;fill-opacity:1;stroke:none;stroke-width:0.264583px;stroke-linecap:butt;stroke-linejoin:miter;stroke-opacity:1"
         d="M 449.99999,59.999999 399.99999,160 h 50 v 249.99998 h 49.99998 V 59.999999 Z"
         id="path3" />
    </g>
  </g>
</svg>
