<?xml version="1.0" encoding="UTF-8"?>
<!-- Created with Inkscape (http://www.inkscape.org/) -->
<svg width="16" height="16" version="1.1" viewBox="0 0 4.2333 4.2333" xmlns="http://www.w3.org/2000/svg">
 <g transform="scale(.01114)">
  <path d="m10 370v-360h85.858l274.14 274.14v85.858z" fill="#fff" stroke="#000" stroke-linecap="square" stroke-miterlimit="5" stroke-width="20"/>
  <path d="m167.5 280c0 12.426-10.074 22.5-22.5 22.5-12.426 0-22.5-10.074-22.5-22.5v-45c0-12.426 10.074-22.5 22.5-22.5 12.426 0 22.5 10.074 22.5 22.5z" fill="none" stroke="#000" stroke-width="15"/>
  <path d="m69.999 205a29.999 29.999 0 0 0-29.999 29.999v44.998a29.999 29.999 0 0 0 29.999 29.999 29.999 29.999 0 0 0 29.999-29.999v-7.4997a29.999 29.999 0 0 0-29.999-29.999 29.999 29.999 0 0 0-14.999 4.0194v-11.519a14.999 14.999 0 0 1 14.999-14.999 14.999 14.999 0 0 1 14.999 14.999h14.999a29.999 29.999 0 0 0-29.999-29.999zm0 52.498a14.999 14.999 0 0 1 14.999 14.999v7.4997a14.999 14.999 0 0 1-14.999 14.999 14.999 14.999 0 0 1-14.999-14.999v-7.4997a14.999 14.999 0 0 1 14.999-14.999z"/>
 </g>
</svg>
