<?xml version="1.0" encoding="UTF-8" standalone="no"?>
<!-- Created with Inkscape (http://www.inkscape.org/) -->

<svg
   width="15.999999"
   height="15.999999"
   viewBox="0 0 4.2333331 4.2333331"
   version="1.1"
   id="svg1"
   xmlns="http://www.w3.org/2000/svg"
   xmlns:svg="http://www.w3.org/2000/svg">
  <defs
     id="defs1" />
  <g
     id="layer1"
     transform="scale(0.01114035)">
    <path
       style="fill:#ffffff;stroke:#000000;stroke-width:20;stroke-linecap:square;stroke-miterlimit:5;stroke-dasharray:none;stroke-opacity:1"
       d="M 9.9999997,370 V 10.000003 H 95.857863 L 370,284.14212 V 370 Z"
       id="path11" />
    <path
       id="path18-5"
       style="fill:none;stroke:#000000;stroke-width:15;stroke-linecap:butt;stroke-dasharray:none"
       d="m 242.5,280 c 0,12.42641 -10.0736,22.5 -22.5,22.5 -12.42641,0 -22.5,-10.07359 -22.5,-22.5 v -45 c 0,-12.42641 10.0736,-22.5 22.5,-22.5 12.42641,0 22.5,10.07359 22.5,22.5 z" />
    <path
       id="path18-5-8"
       style="fill:none;stroke:#000000;stroke-width:15;stroke-linecap:butt;stroke-dasharray:none"
       d="m 167.5,280 c 0,12.42641 -10.0736,22.5 -22.5,22.5 -12.42641,0 -22.5,-10.07359 -22.5,-22.5 v -45 c 0,-12.42641 10.0736,-22.5 22.5,-22.5 12.42641,0 22.5,10.07359 22.5,22.5 z" />
    <g
       id="layer2"
       transform="matrix(0.3000001,0,0,-0.3000001,-65.000042,328.00002)">
      <path
         id="path10"
         style="fill:none;stroke:#000000;stroke-width:49.9999"
         d="m 374.99997,160 c 0,-41.42136 33.57864,-75 75,-75 41.42136,0 75,33.57864 75,75 0,41.42136 -33.57864,75 -74.99999,75 h -24.99999 25 C 491.42136,235 525,268.57864 525,310 c 0,41.42136 -33.57864,75 -75,75 -41.42136,0 -75,-33.57864 -75,-75" />
    </g>
  </g>
</svg>
