<?xml version="1.0" encoding="UTF-8" standalone="no"?>
<svg
   width="12.802461"
   height="30.443584"
   viewBox="0 0 12.802461 30.443585"
   version="1.1"
   id="svg19"
   xmlns="http://www.w3.org/2000/svg"
   xmlns:svg="http://www.w3.org/2000/svg">
  <defs
     id="defs19" />
  <path
     fill-rule="nonzero"
     fill="#ffffff"
     fill-opacity="1"
     stroke-width="0.259659"
     stroke-linecap="butt"
     stroke-linejoin="round"
     stroke="#000000"
     stroke-opacity="1"
     stroke-miterlimit="4"
     d="m 1.270529,11.111114 h 10.277165 c 0.629374,0 1.137563,0.5121 1.137563,1.137563 v 16.95009 c 0,0.625466 -0.508189,1.137564 -1.137563,1.137564 H 1.270529 c -0.62546461,0 -1.13756364,-0.512098 -1.13756364,-1.137564 v -16.95009 c 0,-0.625463 0.51209903,-1.137563 1.13756364,-1.137563 z m 0,0"
     id="path1" />
  <path
     fill="none"
     stroke-width="0.00154279"
     stroke-linecap="butt"
     stroke-linejoin="miter"
     stroke="#ffffff"
     stroke-opacity="1"
     stroke-miterlimit="10"
     d="m 3.522183,13.476175 c 0.023454,-0.05863 0.054727,-0.113359 0.093819,-0.164183 0.5042783,0.492551 1.0007386,0.99292 1.4971989,1.48938 -0.066456,0.07036 -0.097729,0.168092 -0.082092,0.261911 0.027364,0.156365 0.1211829,0.289276 0.2110934,0.414368 0.3870042,0.504277 0.8482824,0.949918 1.3525608,1.340832 0.1290015,0.09382 0.2540938,0.191547 0.3987317,0.258002 0.074274,0.03519 0.1602748,0.05863 0.2423666,0.03519 0.04691,-0.01168 0.086001,-0.03909 0.1211829,-0.07036 0.488642,0.484733 0.9733748,0.969465 1.4620171,1.458105 C 8.6587877,18.636227 8.4437852,18.687046 8.2405101,18.710501 7.9434158,18.741773 7.6424123,18.694866 7.3570453,18.608863 6.9817684,18.495499 6.6260371,18.31177 6.2976697,18.096768 5.9106652,17.846584 5.558843,17.549489 5.2265666,17.232851 4.8278348,16.845847 4.4525577,16.439297 4.1359178,15.985838 3.8270959,15.540197 3.5651839,15.055465 3.4557282,14.519914 3.3853641,14.175911 3.3814542,13.804543 3.522183,13.476175 Z m 0,0"
     id="path2" />
  <path
     fill-rule="nonzero"
     fill="#000000"
     fill-opacity="1"
     d="m 3.522194,13.476166 c 0.023455,-0.05863 0.054729,-0.113359 0.093819,-0.164184 0.5042796,0.492554 1.0007414,0.992924 1.4972032,1.489385 -0.066456,0.07036 -0.097728,0.168093 -0.082092,0.261912 0.027364,0.156367 0.1211842,0.289276 0.2110944,0.414369 0.3870058,0.504281 0.8482845,0.949924 1.3525641,1.340837 0.1290025,0.09382 0.2540952,0.191549 0.3987333,0.258006 0.074274,0.03519 0.1602747,0.05863 0.2423676,0.03519 0.046909,-0.01168 0.086001,-0.03909 0.1211829,-0.07036 0.488643,0.484735 0.9733781,0.969469 1.4620211,1.458113 C 8.6588119,18.636253 8.4438096,18.687072 8.240534,18.710527 7.9434388,18.741787 7.6424348,18.694882 7.3570664,18.608879 6.9817884,18.495519 6.6260559,18.311783 6.2976886,18.096781 5.9106825,17.846599 5.5588589,17.549503 5.2265817,17.232863 4.8278494,16.845857 4.4525713,16.439306 4.1359298,15.985845 3.827108,15.540202 3.565195,15.055469 3.4557388,14.519915 3.3853734,14.175911 3.3814649,13.804542 3.5221944,13.476173 Z m 0,0"
     id="path3"
     style="stroke-width:1.00074" />
  <path
     fill="none"
     stroke-width="0.00154279"
     stroke-linecap="butt"
     stroke-linejoin="miter"
     stroke="#ffffff"
     stroke-opacity="1"
     stroke-miterlimit="10"
     d="m 3.7332763,13.198629 c 0.1368197,-0.14073 0.2736395,-0.27755 0.4104592,-0.414369 0.086001,-0.086 0.2423664,-0.086 0.3283675,0 0.3909136,0.390914 0.7818272,0.781826 1.172741,1.172739 0.086001,0.08209 0.086001,0.238457 -0.00391,0.320548 C 5.5041188,14.414368 5.3633893,14.555096 5.2265701,14.691916 4.7301099,14.191547 4.2297404,13.695089 3.7332794,13.198629 Z m 0,0"
     id="path4" />
  <path
     fill-rule="nonzero"
     fill="rgb(10.196078%, 10.196078%, 10.196078%)"
     fill-opacity="1"
     d="m 3.7332884,13.198617 c 0.1368194,-0.140729 0.2736398,-0.277549 0.4104602,-0.41437 0.086001,-0.086 0.2423665,-0.086 0.3283681,0 0.3909147,0.390915 0.7818293,0.781829 1.1727438,1.172744 0.086001,0.08209 0.086001,0.238457 -0.00391,0.320551 C 5.5041304,14.41436 5.3634011,14.555091 5.2265808,14.691911 4.730116,14.19154 4.2297453,13.695078 3.7332845,13.198617 Z m 0,0"
     id="path5"
     style="fill:#000000;stroke-width:1.00074" />
  <path
     fill="none"
     stroke-width="0.00154279"
     stroke-linecap="butt"
     stroke-linejoin="miter"
     stroke="#ffffff"
     stroke-opacity="1"
     stroke-miterlimit="10"
     d="m 7.4665007,16.924029 c 0.1368192,-0.13682 0.2736395,-0.273638 0.4104599,-0.410458 0.066457,-0.06645 0.1720019,-0.086 0.2540938,-0.05082 0.050819,0.01955 0.086001,0.05864 0.121183,0.09773 0.3635491,0.36355 0.7270993,0.727098 1.0906489,1.090648 0.062544,0.05864 0.086003,0.156365 0.054725,0.238457 -0.011679,0.04301 -0.042995,0.07818 -0.074274,0.10945 C 9.19043,18.128046 9.0614283,18.257049 8.9324268,18.389959 8.4437851,17.901317 7.9551432,17.412676 7.466501,16.924035 Z m 0,0"
     id="path6" />
  <path
     fill-rule="nonzero"
     fill="#000000"
     fill-opacity="1"
     d="m 7.466522,16.924033 c 0.1368205,-0.13682 0.2736408,-0.27364 0.4104602,-0.410461 0.066457,-0.06645 0.1720034,-0.086 0.2540952,-0.05082 0.050819,0.01955 0.086001,0.05863 0.1211829,0.09773 0.3635513,0.36355 0.7271017,0.727101 1.0906514,1.090652 0.062544,0.05863 0.086003,0.156366 0.054725,0.238459 -0.011679,0.04301 -0.042995,0.07818 -0.074274,0.109462 -0.1329109,0.129009 -0.2619125,0.258011 -0.390914,0.390922 C 8.4438056,17.901334 7.9551626,17.41269 7.4665186,16.924047 Z m 0,0"
     id="path7"
     style="stroke-width:1.00074" />
  <path
     fill-rule="nonzero"
     fill="#000000"
     fill-opacity="1"
     d="m 3.0804608,22.467202 v -0.433916 h 0.8326479 v 1.028106 c -0.082092,0.10554 -0.1993667,0.199365 -0.3518237,0.277548 -0.1524559,0.08209 -0.3088217,0.121179 -0.4651876,0.121179 -0.1993667,0 -0.375278,-0.05472 -0.5238261,-0.168093 -0.148547,-0.11336 -0.258003,-0.27364 -0.3322771,-0.484735 -0.078183,-0.211093 -0.1133645,-0.441732 -0.1133645,-0.688009 0,-0.269731 0.043,-0.508188 0.1250927,-0.715373 0.082092,-0.211094 0.2032756,-0.371369 0.3674592,-0.480825 0.1211842,-0.086 0.2736408,-0.129003 0.4573709,-0.129003 0.2345478,0 0.4221867,0.06646 0.5550982,0.203277 0.1329114,0.13291 0.2189121,0.31664 0.2580042,0.555098 L 3.506558,21.650186 C 3.479194,21.521181 3.428375,21.423452 3.3541011,21.349178 3.2798271,21.274908 3.1860075,21.239716 3.0765525,21.239716 c -0.1720034,0 -0.3049139,0.07036 -0.4026423,0.215003 -0.1016389,0.144638 -0.1485481,0.359642 -0.1485481,0.645009 0,0.304915 0.04691,0.535554 0.1485481,0.68801 0.1016377,0.152456 0.2345487,0.22673 0.3987323,0.22673 0.078183,0 0.1602758,-0.01955 0.2423676,-0.06254 0.078183,-0.04301 0.148547,-0.09382 0.2071844,-0.156366 v -0.328367 z m 0,0"
     id="path8"
     style="stroke-width:1.00074" />
  <path
     fill-rule="nonzero"
     fill="#000000"
     fill-opacity="1"
     d="m 4.1711128,22.576656 0.375278,-0.0469 c 0.019545,0.168092 0.066456,0.293185 0.1368193,0.375277 0.066456,0.07818 0.1602749,0.117269 0.2775496,0.117269 0.1250928,0 0.2189123,-0.03519 0.2814586,-0.105552 0.062547,-0.07036 0.093819,-0.152457 0.093819,-0.250186 0,-0.05863 -0.011729,-0.113359 -0.039091,-0.152456 -0.027364,-0.04299 -0.074274,-0.08209 -0.1368203,-0.113372 -0.04691,-0.01955 -0.148548,-0.05863 -0.3088227,-0.11336 C 4.6441188,22.217016 4.4994796,22.13492 4.4134789,22.033282 4.2962046,21.892553 4.2375676,21.716642 4.2375676,21.513364 c 0,-0.129001 0.027364,-0.254094 0.082092,-0.367458 0.054727,-0.11336 0.1368204,-0.203274 0.2384576,-0.261913 0.1055475,-0.05863 0.2306399,-0.0899 0.3791869,-0.0899 0.2384587,0 0.4182789,0.07036 0.5394627,0.215002 0.1211842,0.140728 0.1837301,0.328368 0.1915478,0.566825 L 5.281309,21.59937 C 5.265673,21.46646 5.23049,21.368729 5.1757628,21.314002 c -0.054729,-0.05864 -0.1368203,-0.0899 -0.2423675,-0.0899 -0.1133646,0 -0.2032757,0.03128 -0.2658219,0.09382 -0.039091,0.03909 -0.058636,0.09382 -0.058636,0.160273 0,0.06255 0.015636,0.113372 0.054727,0.156366 0.050819,0.05474 0.1680935,0.11336 0.3557325,0.172003 0.187639,0.06255 0.3244584,0.12118 0.4143691,0.187639 0.089911,0.06254 0.1602747,0.148548 0.2110943,0.261912 0.050819,0.109463 0.078183,0.246277 0.078183,0.410461 0,0.148548 -0.031274,0.285367 -0.089911,0.41437 -0.062546,0.129001 -0.1485471,0.22673 -0.2580041,0.289276 -0.1133646,0.06255 -0.2501854,0.09382 -0.4182779,0.09382 -0.2423675,0 -0.4260976,-0.07818 -0.5550992,-0.226729 -0.1290015,-0.152458 -0.2071846,-0.37137 -0.2306389,-0.660647 z m 0,0"
     id="path9"
     style="stroke-width:1.00074" />
  <path
     fill-rule="nonzero"
     fill="#000000"
     fill-opacity="1"
     d="m 6.043593,23.417124 v -2.580036 h 0.5785535 l 0.3479138,1.759115 0.340096,-1.759115 h 0.5785536 v 2.580036 H 7.5329774 v -2.028847 l -0.379187,2.028847 H 6.7824213 L 6.4032344,21.388277 v 2.028847 z m 0,0"
     id="path10"
     style="stroke-width:1.00074" />
  <path
     fill-rule="nonzero"
     fill="#000000"
     fill-opacity="1"
     d="m 8.2327147,22.729114 v -0.492553 h 0.7192828 v 0.492553 z m 0,0"
     id="path11"
     style="stroke-width:1.00074" />
  <path
     fill-rule="nonzero"
     fill="#000000"
     fill-opacity="1"
     d="m 9.1670009,23.417124 v -2.580036 h 0.8131028 c 0.2032753,0 0.3518233,0.02346 0.4456423,0.07036 0.0899,0.04691 0.164185,0.129002 0.222822,0.246276 0.05473,0.121179 0.08209,0.254094 0.08209,0.406551 0,0.195457 -0.04301,0.355731 -0.125089,0.480824 -0.086,0.125089 -0.211094,0.203277 -0.379187,0.238459 0.08209,0.06645 0.152455,0.136819 0.207184,0.215002 0.05472,0.07818 0.125089,0.218912 0.218912,0.418279 l 0.234548,0.504279 h -0.461277 l -0.28146,-0.562919 c -0.09773,-0.199365 -0.1641842,-0.324458 -0.2032761,-0.375278 -0.035188,-0.05473 -0.074274,-0.0899 -0.1133595,-0.10945 -0.043008,-0.01955 -0.1055525,-0.02736 -0.1954569,-0.02736 h -0.078184 v 1.075015 z m 0.3870057,-1.489385 h 0.2853676 c 0.1837298,0 0.3010048,-0.0077 0.3479138,-0.03127 0.04301,-0.01955 0.08209,-0.05474 0.105552,-0.10945 0.02736,-0.05082 0.03909,-0.113359 0.03909,-0.191548 0,-0.086 -0.01564,-0.156367 -0.05082,-0.211095 -0.03519,-0.05473 -0.08209,-0.086 -0.144638,-0.101643 -0.03128,-0.0039 -0.125089,-0.0079 -0.2814595,-0.0079 H 9.5540104 Z m 0,0"
     id="path12"
     style="stroke-width:1.00074" />
  <path
     fill-rule="nonzero"
     fill="#000000"
     fill-opacity="1"
     d="m 4.843485,27.795367 v -2.669946 h 0.6176454 c 0.2345488,0 0.3870058,0.01563 0.4573699,0.04301 0.109456,0.03909 0.1993667,0.125089 0.2736407,0.258004 0.074274,0.136821 0.1133646,0.308822 0.1133646,0.519916 0,0.164183 -0.023455,0.304914 -0.066456,0.414369 -0.043,0.113359 -0.093819,0.199367 -0.1602747,0.261914 -0.066457,0.06645 -0.1329115,0.10554 -0.1993667,0.129 -0.093819,0.02346 -0.226731,0.03909 -0.4026423,0.03909 H 5.2265817 v 1.00465 z M 5.2265817,25.57888 v 0.758375 h 0.2110934 c 0.1524569,0 0.2540952,-0.01564 0.3049139,-0.04301 0.050819,-0.02736 0.089911,-0.07036 0.1211842,-0.13291 0.027364,-0.05863 0.043,-0.129001 0.043,-0.207186 0,-0.09773 -0.019545,-0.17591 -0.062546,-0.238457 -0.039091,-0.06255 -0.089909,-0.101643 -0.152456,-0.11727 -0.04691,-0.01564 -0.1407292,-0.01955 -0.2775496,-0.01955 z m 0,0"
     id="path13"
     style="stroke-width:1.00074" />
  <path
     fill-rule="nonzero"
     fill="#000000"
     fill-opacity="1"
     d="M 6.6338742,27.795367 V 25.148876 H 7.02088 v 2.19694 h 0.9577404 v 0.449551 z m 0,0"
     id="path14"
     style="stroke-width:1.00074" />
  <path
     fill="none"
     stroke-width="0.265962"
     stroke-linecap="butt"
     stroke-linejoin="round"
     stroke="#000000"
     stroke-opacity="1"
     stroke-miterlimit="4"
     d="m 9.9449229,26.462337 c 0,1.106284 -1.583202,2.001478 -3.5338637,2.001478 -1.9545711,0 -3.5377735,-0.895194 -3.5377735,-2.001478 0,-1.106286 1.5832024,-2.001478 3.5377735,-2.001478 1.9506617,0 3.5338637,0.895192 3.5338637,2.001478 z m 0,0"
     id="path15" />
  <path
     fill-rule="nonzero"
     fill="#ff0000"
     fill-opacity="1"
     d="m 11.406942,11.177588 1.348654,0.844377 c 0,0 0,0.0039 0,0.0039 L 1.3760732,30.238582 0.02350821,29.394208 c 0,0 0,0 0,-0.0039 L 11.403032,11.181497 c 0,-0.0039 0.0039,-0.0039 0.0039,-0.0039 z m 0,0"
     id="path16"
     style="stroke-width:1.00074" />
  <path
     fill-rule="nonzero"
     fill="#ff0000"
     fill-opacity="1"
     d="m 0.41051383,29.351207 1.03592347,0.6411 c 0,0 0,0.0039 0,0.0039 l -0.2306399,0.36355 -1.03201449,-0.641099 c 0,-0.0039 0,-0.0039 0,-0.0039 z m 0,0"
     id="path17"
     style="stroke-width:1.00074" />
  <path
     fill-rule="nonzero"
     fill="#ff0000"
     fill-opacity="1"
     d="m 11.590672,11.07595 1.032014,0.641099 c 0.0039,0 0.0039,0.0039 0.0039,0.0039 l -0.230639,0.363552 -1.032015,-0.641102 c -0.0039,0 -0.0039,-0.0039 -0.0039,-0.0039 z m 0,0"
     id="path18"
     style="stroke-width:1.00074" />
  <path
     fill="none"
     stroke-width="0.259659"
     stroke-linecap="butt"
     stroke-linejoin="round"
     stroke="#000000"
     stroke-opacity="1"
     stroke-miterlimit="4"
     d="m 1.270529,11.111114 h 10.277165 c 0.629374,0 1.137563,0.5121 1.137563,1.137563 v 16.95009 c 0,0.625466 -0.508189,1.137564 -1.137563,1.137564 H 1.270529 c -0.62546461,0 -1.13756364,-0.512098 -1.13756364,-1.137564 v -16.95009 c 0,-0.625463 0.51209903,-1.137563 1.13756364,-1.137563 z m 0,0"
     id="path19" />
  <g
     id="layer1"
     transform="matrix(0.68632987,0,0,0.68632987,-199.48985,-200.40832)">
    <g
       id="layer1-5"
       transform="matrix(0.99997469,0,0,0.99997469,0.00759326,0.0078021)">
      <circle
         style="fill:#000000;fill-opacity:1;stroke:none;stroke-width:2.01575;stroke-linecap:square;stroke-miterlimit:5;stroke-dasharray:none"
         id="path2-5"
         cx="300"
         cy="300"
         r="8" />
      <g
         id="g5"
         transform="matrix(0.02666667,0,0,0.02666667,291.46667,292)">
        <path
           style="fill:none;fill-opacity:1;stroke:#ffff00;stroke-width:40;stroke-linecap:square;stroke-miterlimit:5;stroke-dasharray:none;stroke-opacity:1"
           d="M 160,420 V 180 h 60 c 33.13708,0 60,26.86292 60,60 0,33.13708 -26.86292,60 -60,60 -60,0 -60,0 -60,0"
           id="path3-1" />
        <path
           style="fill:#ffff00;fill-opacity:1;stroke:none;stroke-width:40;stroke-linecap:square;stroke-miterlimit:5;stroke-dasharray:none;stroke-opacity:1"
           d="m 180,320 c 80,120 80,120 80,120 h 40 L 220,320 Z"
           id="path5-7" />
      </g>
      <g
         id="layer2"
         transform="matrix(0.02133334,0,0,0.02133334,293.06666,294.98666)"
         style="stroke:#ffff00;stroke-opacity:1">
        <path
           id="path10-1"
           style="fill:none;stroke:#ffff00;stroke-width:49.9999;stroke-opacity:1"
           d="m 374.99997,160 c 0,-41.42136 33.57864,-75 75,-75 41.42136,0 75,33.57864 75,75 0,41.42136 -33.57864,75 -74.99999,75 h -24.99999 25 C 491.42136,235 525,268.57864 525,310 c 0,41.42136 -33.57864,75 -75,75 -41.42136,0 -75,-33.57864 -75,-75" />
      </g>
    </g>
  </g>
</svg>
