<?xml version="1.0" encoding="UTF-8"?>
<svg xmlns="http://www.w3.org/2000/svg" xmlns:xlink="http://www.w3.org/1999/xlink" width="23.920531" height="12" viewBox="0 0 23.920531 12">
<path fill-rule="nonzero" fill="rgb(100%, 100%, 100%)" fill-opacity="1" stroke-width="1" stroke-linecap="round" stroke-linejoin="miter" stroke="rgb(0%, 0%, 0%)" stroke-opacity="1" stroke-miterlimit="4" d="M 149.991759 0.00490151 C 67.17391 0.00490151 0.021606 67.205804 0.021606 150.007819 L 299.961912 150.007819 C 299.961912 67.205804 232.809608 0.00490151 149.991759 0.00490151 Z M 149.991759 0.00490151 " transform="matrix(0.0782968, 0, 0, 0.0773683, 0.127215, 0.273058)"/>
<path fill-rule="nonzero" fill="rgb(0%, 0%, 0%)" fill-opacity="1" d="M 11.871094 1.433594 C 6.765625 1.433594 2.492188 5.023438 1.511719 9.789062 L 1.324219 10.71875 L 22.421875 10.71875 L 22.230469 9.789062 C 21.25 5.023438 16.976562 1.433594 11.871094 1.433594 Z M 11.871094 2.980469 C 15.894531 2.980469 19.285156 5.585938 20.445312 9.171875 L 3.296875 9.171875 C 4.457031 5.585938 7.851562 2.980469 11.871094 2.980469 Z M 11.871094 2.980469 "/>
</svg>
