<?xml version="1.0" encoding="UTF-8" standalone="no"?>
<!-- Created with Inkscape (http://www.inkscape.org/) -->

<svg
   width="18.235487"
   height="16.000002"
   viewBox="0 0 4.8248056 4.2333341"
   version="1.1"
   id="svg1"
   xmlns="http://www.w3.org/2000/svg"
   xmlns:svg="http://www.w3.org/2000/svg">
  <defs
     id="defs1" />
  <g
     id="layer1"
     transform="translate(-63.733422,-52.521473)">
    <path
       id="path9-8"
       style="color:#000000;font-style:normal;font-variant:normal;font-weight:normal;font-stretch:normal;font-size:medium;line-height:normal;font-family:sans-serif;font-variant-ligatures:normal;font-variant-position:normal;font-variant-caps:normal;font-variant-numeric:normal;font-variant-alternates:normal;font-variant-east-asian:normal;font-feature-settings:normal;font-variation-settings:normal;text-indent:0;text-align:start;text-decoration-line:none;text-decoration-style:solid;text-decoration-color:#000000;letter-spacing:normal;word-spacing:normal;text-transform:none;writing-mode:lr-tb;direction:ltr;text-orientation:mixed;dominant-baseline:auto;baseline-shift:baseline;text-anchor:start;white-space:normal;shape-padding:0;shape-margin:0;inline-size:0;clip-rule:nonzero;display:inline;overflow:visible;visibility:visible;isolation:auto;mix-blend-mode:normal;color-interpolation:sRGB;color-interpolation-filters:linearRGB;solid-color:#000000;solid-opacity:1;vector-effect:none;fill:#000000;fill-opacity:1;fill-rule:nonzero;stroke:none;stroke-width:0.0387397;stroke-linecap:butt;stroke-linejoin:miter;stroke-miterlimit:5;stroke-dasharray:none;stroke-dashoffset:0;stroke-opacity:1;-inkscape-stroke:none;color-rendering:auto;image-rendering:auto;shape-rendering:auto;text-rendering:auto;enable-background:accumulate;stop-color:#000000;stop-opacity:1"
       d="m 63.760887,52.82897 c -0.03662,-0.06343 -0.03662,-0.141571 0,-0.204998 0.03662,-0.06343 0.104294,-0.102499 0.177533,-0.102499 h 4.41481 c 0.07324,0 0.140914,0.03907 0.177533,0.102499 0.03662,0.06343 0.03662,0.141571 0,0.204998 l -2.207415,3.823356 c -0.03661,0.06341 -0.104284,0.102481 -0.177522,0.102481 -0.07324,0 -0.140914,-0.03907 -0.177534,-0.102499 z" />
    <path
       style="fill:#ffffff;fill-opacity:1;stroke:none;stroke-width:0.409994;stroke-miterlimit:5"
       d="m 64.382253,52.982718 h 3.527144 l -1.763572,3.054597 z"
       id="path10" />
    <g
       id="layer2"
       transform="matrix(0.00474481,0,0,0.00474481,64.010911,52.800329)">
      <g
         id="layer2-4"
         transform="matrix(0.83990286,0,0,0.83990286,-32.946568,9.6373958)"
         style="stroke-width:50.0058;stroke-dasharray:none">
        <path
           id="path6"
           style="fill:none;stroke:#000000;stroke-width:50.0058;stroke-dasharray:none"
           d="m 375,159.97398 c 0.0115,-33.10428 21.72567,-62.285615 53.4315,-71.805734 31.70583,-9.520117 65.90331,2.87297 84.1488,30.495334 18.2455,27.62237 16.22304,63.93994 -4.97661,89.36568 L 374.99999,368.98525 V 385 h 174.99999" />
      </g>
      <g
         id="layer2-0"
         transform="translate(200,46.999998)" />
      <g
         id="layer2-45"
         transform="translate(234.99999,1.9999971)" />
      <path
         style="fill:none;stroke:#000000;stroke-width:42;stroke-linecap:butt;stroke-linejoin:miter;stroke-dasharray:none;stroke-opacity:1"
         d="M 617.87801,354.07842 V 81.074404 H 607.39653 L 492.1004,235.07666 v 14.00022 l 125.77761,-2e-5"
         id="path7" />
    </g>
  </g>
</svg>
