<?xml version="1.0" encoding="UTF-8" standalone="no"?>
<!-- Created with Inkscape (http://www.inkscape.org/) -->

<svg
   width="18.235487"
   height="16.000002"
   viewBox="0 0 4.8248056 4.2333341"
   version="1.1"
   id="svg1"
   xmlns="http://www.w3.org/2000/svg"
   xmlns:svg="http://www.w3.org/2000/svg">
  <defs
     id="defs1" />
  <g
     id="layer1"
     transform="translate(-63.733422,-52.521473)">
    <path
       id="path9-8"
       style="color:#000000;font-style:normal;font-variant:normal;font-weight:normal;font-stretch:normal;font-size:medium;line-height:normal;font-family:sans-serif;font-variant-ligatures:normal;font-variant-position:normal;font-variant-caps:normal;font-variant-numeric:normal;font-variant-alternates:normal;font-variant-east-asian:normal;font-feature-settings:normal;font-variation-settings:normal;text-indent:0;text-align:start;text-decoration-line:none;text-decoration-style:solid;text-decoration-color:#000000;letter-spacing:normal;word-spacing:normal;text-transform:none;writing-mode:lr-tb;direction:ltr;text-orientation:mixed;dominant-baseline:auto;baseline-shift:baseline;text-anchor:start;white-space:normal;shape-padding:0;shape-margin:0;inline-size:0;clip-rule:nonzero;display:inline;overflow:visible;visibility:visible;isolation:auto;mix-blend-mode:normal;color-interpolation:sRGB;color-interpolation-filters:linearRGB;solid-color:#000000;solid-opacity:1;vector-effect:none;fill:#000000;fill-opacity:1;fill-rule:nonzero;stroke:none;stroke-width:0.0387397;stroke-linecap:butt;stroke-linejoin:miter;stroke-miterlimit:5;stroke-dasharray:none;stroke-dashoffset:0;stroke-opacity:1;-inkscape-stroke:none;color-rendering:auto;image-rendering:auto;shape-rendering:auto;text-rendering:auto;enable-background:accumulate;stop-color:#000000;stop-opacity:1"
       d="m 63.760887,52.82897 c -0.03662,-0.06343 -0.03662,-0.141571 0,-0.204998 0.03662,-0.06343 0.104294,-0.102499 0.177533,-0.102499 h 4.41481 c 0.07324,0 0.140914,0.03907 0.177533,0.102499 0.03662,0.06343 0.03662,0.141571 0,0.204998 l -2.207415,3.823356 c -0.03661,0.06341 -0.104284,0.102481 -0.177522,0.102481 -0.07324,0 -0.140914,-0.03907 -0.177534,-0.102499 z" />
    <path
       style="fill:#ffffff;fill-opacity:1;stroke:none;stroke-width:0.409994;stroke-miterlimit:5"
       d="m 64.382253,52.982718 h 3.527144 l -1.763572,3.054597 z"
       id="path10" />
    <g
       id="layer2"
       transform="matrix(0.00471488,0,0,0.00471488,64.024131,52.802324)">
      <g
         id="layer2-7"
         transform="translate(-150)">
        <path
           style="fill:#000000;fill-opacity:1;stroke:none;stroke-width:0.264583px;stroke-linecap:butt;stroke-linejoin:miter;stroke-opacity:1"
           d="M 449.99999,59.999999 399.99999,160 h 50 v 249.99998 h 49.99998 V 59.999999 Z"
           id="path3" />
      </g>
      <path
         id="path18-5"
         style="fill:none;stroke:#000000;stroke-width:50;stroke-linecap:butt;stroke-dasharray:none"
         d="m 574.99998,310 c 0,41.42135 -33.57865,74.99999 -75,74.99999 -41.42135,0 -74.99999,-33.57864 -74.99999,-74.99999 V 160 c -1e-5,-41.42135 33.57865,-74.999996 75,-74.999997 41.42135,10e-7 74.99999,33.578647 74.99999,74.999997 z" />
    </g>
  </g>
</svg>
