<?xml version="1.0" encoding="UTF-8"?>
<!-- Created with Inkscape (http://www.inkscape.org/) -->
<svg width="400" height="599.7" version="1.1" viewBox="0 0 105.83 158.67" xmlns="http://www.w3.org/2000/svg">
 <g transform="matrix(-.26445 0 0 -.26445 105.81 158.67)" stroke="#000" stroke-width="40">
  <rect x="20" y="20" width="360" height="560" fill="#fff" stroke-linecap="round"/>
  <path d="m18.531 40 181.47 464.99 181.47-464.99" fill="none"/>
 </g>
 <path d="m52.917 85.651a17.463 17.463 0 0 0-17.463 17.463v26.194a17.463 17.463 0 0 0 8.7313 15.123 17.463 17.463 0 0 0 17.463 0 17.463 17.463 0 0 0 8.7313-15.123h-8.7313a8.7313 8.7313 0 0 1-4.3656 7.5614 8.7313 8.7313 0 0 1-8.7313 0 8.7313 8.7313 0 0 1-4.3656-7.5614v-26.194a8.7313 8.7313 0 0 1 8.7313-8.7313 8.7313 8.7313 0 0 1 8.7313 8.7313h8.7313a17.463 17.463 0 0 0-17.463-17.463z" stroke-miterlimit="5" stroke-width="8.7312"/>
</svg>
