<?xml version="1.0" encoding="UTF-8"?>
<!-- Created with Inkscape (http://www.inkscape.org/) -->
<svg width="15.341" height="23" version="1.1" viewBox="0 0 4.0589 6.0854" xmlns="http://www.w3.org/2000/svg">
 <g transform="matrix(-.010142 0 0 -.010142 4.0565 6.0854)" stroke="#000" stroke-width="40">
  <rect x="20" y="20" width="360" height="560" fill="#fff" stroke-linecap="round"/>
  <path d="M 18.531,40 200.001,504.99 381.471,40" fill="none"/>
 </g>
 <path d="m2.0279 3.2849a0.66975 0.66975 0 0 0-0.66975 0.66975v1.0046a0.66975 0.66975 0 0 0 0.33487 0.58 0.66975 0.66975 0 0 0 0.66975 0 0.66975 0.66975 0 0 0 0.33487-0.58h-0.33487a0.33487 0.33487 0 0 1-0.16743 0.29 0.33487 0.33487 0 0 1-0.33487 0 0.33487 0.33487 0 0 1-0.16743-0.29v-1.0046a0.33487 0.33487 0 0 1 0.33487-0.33487 0.33487 0.33487 0 0 1 0.33487 0.33487h0.33487a0.66975 0.66975 0 0 0-0.66975-0.66975z" stroke-miterlimit="5" stroke-width=".33486"/>
</svg>
