<?xml version="1.0" encoding="UTF-8"?>
<!-- Created with Inkscape (http://www.inkscape.org/) -->
<svg width="15.341" height="23" version="1.1" viewBox="0 0 4.0589 6.0854" xmlns="http://www.w3.org/2000/svg">
 <g transform="matrix(.010142 0 0 .010142 -.00043876 0)" stroke="#000" stroke-width="40">
  <rect x="20" y="20" width="360" height="560" fill="#fff" stroke-linecap="round"/>
  <path d="M 18.531,40 200.001,504.99 381.471,40" fill="none"/>
 </g>
 <path d="m2.028 0.45662a0.66971 0.66971 0 0 0-0.66971 0.66971v1.0046a0.66971 0.66971 0 0 0 0.66971 0.66975 0.66971 0.66971 0 0 0 0.66975-0.66975v-0.16743a0.66971 0.66971 0 0 0-0.66975-0.66975 0.66971 0.66971 0 0 0-0.33486 0.08973v-0.25716a0.33486 0.33486 0 0 1 0.33486-0.33486 0.33486 0.33486 0 0 1 0.33487 0.33486h0.33486a0.66971 0.66971 0 0 0-0.66975-0.66971zm0 1.172a0.33486 0.33486 0 0 1 0.33487 0.33487v0.16743a0.33486 0.33486 0 0 1-0.33487 0.33487 0.33486 0.33486 0 0 1-0.33486-0.33487v-0.16743a0.33486 0.33486 0 0 1 0.33486-0.33487z" stroke-width=".038352"/>
</svg>
