<?xml version="1.0" encoding="UTF-8"?>
<!-- Created with Inkscape (http://www.inkscape.org/) -->
<svg width="400" height="599.7" version="1.1" viewBox="0 0 105.83 158.67" xmlns="http://www.w3.org/2000/svg">
 <g transform="matrix(.26445 0 0 .26445 .026585 0)" stroke="#000" stroke-width="40">
  <rect x="20" y="20" width="360" height="560" fill="#fff" stroke-linecap="round"/>
  <path d="m18.531 40 181.47 464.99 181.47-464.99" fill="none"/>
 </g>
 <path d="m52.917 11.906a17.462 17.462 0 0 0-17.462 17.462v26.194a17.462 17.462 0 0 0 17.462 17.463 17.462 17.462 0 0 0 17.463-17.463v-4.3656a17.462 17.462 0 0 0-17.463-17.463 17.462 17.462 0 0 0-8.7312 2.3397v-6.7053a8.7312 8.7312 0 0 1 8.7312-8.7312 8.7312 8.7312 0 0 1 8.7313 8.7312h8.7312a17.462 17.462 0 0 0-17.463-17.462zm0 30.559a8.7312 8.7312 0 0 1 8.7313 8.7313v4.3656a8.7312 8.7312 0 0 1-8.7313 8.7313 8.7312 8.7312 0 0 1-8.7312-8.7313v-4.3656a8.7312 8.7312 0 0 1 8.7312-8.7313z"/>
</svg>
