<?xml version="1.0" encoding="UTF-8"?>
<!-- Created with Inkscape (http://www.inkscape.org/) -->
<svg width="400" height="599.7" version="1.1" viewBox="0 0 105.83 158.67" xmlns="http://www.w3.org/2000/svg">
 <g transform="matrix(.26445 0 0 .26445 .026585 0)" stroke="#000" stroke-width="40">
  <rect x="20" y="20" width="360" height="560" fill="#fff" stroke-linecap="round"/>
  <path d="m18.531 40 181.47 464.99 181.47-464.99" fill="none"/>
 </g>
 <path d="m42.995 11.906h-6.6146l-6.6146 13.229h6.6146v33.073h6.6146z" stroke-miterlimit="5" stroke-width="6.6146"/>
 <path d="m49.609 11.906v19.844h13.229a6.6146 6.6146 0 0 1 6.6146 6.6146v6.6146a6.6146 6.6146 0 0 1-3.3073 5.7284 6.6146 6.6146 0 0 1-6.6146 0 6.6146 6.6146 0 0 1-3.3073-5.7284h-6.6146a13.229 13.229 0 0 0 6.6146 11.457 13.229 13.229 0 0 0 13.229 0 13.229 13.229 0 0 0 6.6146-11.457v-6.6146a13.229 13.229 0 0 0-13.229-13.229h-6.6146v-6.6146h19.844v-6.6146z"/>
</svg>
