<?xml version="1.0" encoding="UTF-8"?>
<!-- Created with Inkscape (http://www.inkscape.org/) -->
<svg width="15.341" height="23" version="1.1" viewBox="0 0 4.0589 6.0854" xmlns="http://www.w3.org/2000/svg">
 <g transform="matrix(.010142 0 0 .010142 -.00043876 0)" stroke="#000" stroke-width="40">
  <rect x="20" y="20" width="360" height="560" fill="#fff" stroke-linecap="round"/>
  <path d="M 18.531,40 200.001,504.99 381.471,40" fill="none"/>
 </g>
 <path d="m1.6475 0.45662h-0.25369l-0.25369 0.50736h0.25369v1.2684h0.25369z" stroke-miterlimit="5" stroke-width=".25369"/>
 <path d="m2.4085 0.45662a0.50737 0.50737 0 0 0-0.50736 0.50736 0.50737 0.50737 0 0 0 0.17219 0.38053 0.50737 0.50737 0 0 0-0.17219 0.38053 0.50737 0.50737 0 0 0 0.50736 0.50736 0.50737 0.50737 0 0 0 0.50737-0.50736 0.50737 0.50737 0 0 0-0.17209-0.38043 0.50737 0.50737 0 0 0 0.17209-0.38063 0.50737 0.50737 0 0 0-0.50737-0.50736zm0 0.25369a0.25369 0.25369 0 0 1 0.25369 0.25369 0.25369 0.25369 0 0 1-0.25369 0.25369 0.25369 0.25369 0 0 1-0.25369-0.25369 0.25369 0.25369 0 0 1 0.25369-0.25369zm0 0.76107a0.25369 0.25369 0 0 1 0.25369 0.25369 0.25369 0.25369 0 0 1-0.25369 0.25369 0.25369 0.25369 0 0 1-0.25369-0.25369 0.25369 0.25369 0 0 1 0.25369-0.25369z" stroke-width=".038352"/>
</svg>
