<?xml version="1.0" encoding="UTF-8"?>
<!-- Created with Inkscape (http://www.inkscape.org/) -->
<svg width="400" height="599.7" version="1.1" viewBox="0 0 105.83 158.67" xmlns="http://www.w3.org/2000/svg">
 <g transform="matrix(.26445 0 0 .26445 .026585 0)" stroke="#000" stroke-width="40">
  <rect x="20" y="20" width="360" height="560" fill="#fff" stroke-linecap="round"/>
  <path d="m18.531 40 181.47 464.99 181.47-464.99" fill="none"/>
 </g>
 <path d="m42.995 11.906h-6.6146l-6.6146 13.229h6.6146v33.073h6.6146z" stroke-miterlimit="5" stroke-width="6.6146"/>
 <path d="m62.838 11.906c-7.2672 0-13.229 5.9618-13.229 13.229h6.615c0-3.6924 2.9217-6.615 6.614-6.615s6.615 2.9226 6.615 6.615c0 3.6923-2.9225 6.6148-6.6147 6.615v-3.19e-4h-3.3073v6.6147h3.3073v-3.25e-4c3.6922 1.75e-4 6.6147 2.9227 6.6147 6.615 0 3.6924-2.9226 6.615-6.615 6.615s-6.614-2.9226-6.614-6.615h-6.615c0 7.2672 5.9618 13.229 13.229 13.229s13.23-5.9618 13.23-13.229c0-3.9388-1.754-7.4916-4.5156-9.922 2.7616-2.4305 4.5156-5.9832 4.5156-9.922 0-7.2672-5.9628-13.229-13.23-13.229z" stroke-miterlimit="5" stroke-width=".62501"/>
</svg>
