<?xml version="1.0" encoding="UTF-8"?>
<!-- Created with Inkscape (http://www.inkscape.org/) -->
<svg width="400" height="599.7" version="1.1" viewBox="0 0 105.83 158.67" xmlns="http://www.w3.org/2000/svg">
 <g transform="matrix(.26445 0 0 .26445 .026585 0)" stroke="#000" stroke-width="40">
  <rect x="20" y="20" width="360" height="560" fill="#fff" stroke-linecap="round"/>
  <path d="m18.531 40 181.47 464.99 181.47-464.99" fill="none"/>
 </g>
 <path d="m42.995 11.906h-6.6146l-6.6146 13.229h6.6146v33.073h6.6146z" stroke-miterlimit="5" stroke-width="6.6146"/>
 <path d="m62.838 11.906a13.229 13.229 0 0 0-13.229 13.229v19.844a13.229 13.229 0 0 0 13.229 13.229 13.229 13.229 0 0 0 13.229-13.229v-3.3073a13.229 13.229 0 0 0-13.229-13.229 13.229 13.229 0 0 0-6.6146 1.7725v-5.0798a6.6146 6.6146 0 0 1 6.6146-6.6146 6.6146 6.6146 0 0 1 6.6146 6.6146h6.6146a13.229 13.229 0 0 0-13.229-13.229zm0 23.151a6.6146 6.6146 0 0 1 6.6146 6.6146v3.3073a6.6146 6.6146 0 0 1-6.6146 6.6146 6.6146 6.6146 0 0 1-6.6146-6.6146v-3.3073a6.6146 6.6146 0 0 1 6.6146-6.6146z"/>
</svg>
