<?xml version="1.0" encoding="UTF-8"?>
<!-- Created with Inkscape (http://www.inkscape.org/) -->
<svg width="400" height="599.7" version="1.1" viewBox="0 0 105.83 158.67" xmlns="http://www.w3.org/2000/svg">
 <g transform="matrix(.26445 0 0 .26445 .026585 0)" stroke="#000" stroke-width="40">
  <rect x="20" y="20" width="360" height="560" fill="#fff" stroke-linecap="round"/>
  <path d="m18.531 40 181.47 464.99 181.47-464.99" fill="none"/>
 </g>
 <path d="m35.454 11.906v26.194h17.463a8.7313 8.7313 0 0 1 8.7313 8.7313v8.7313a8.7313 8.7313 0 0 1-4.3656 7.5614 8.7313 8.7313 0 0 1-8.7313 0 8.7313 8.7313 0 0 1-4.3656-7.5614h-8.7313a17.463 17.463 0 0 0 8.7313 15.123 17.463 17.463 0 0 0 17.463 0 17.463 17.463 0 0 0 8.7313-15.123v-8.7313a17.463 17.463 0 0 0-17.463-17.463h-8.7313v-8.7313h26.194v-8.7313z"/>
</svg>
