<?xml version="1.0" encoding="UTF-8"?>
<!-- Created with Inkscape (http://www.inkscape.org/) -->
<svg width="15.341" height="23" version="1.1" viewBox="0 0 4.0589 6.0854" xmlns="http://www.w3.org/2000/svg">
 <g transform="matrix(.010142 0 0 .010142 -.00043876 0)" stroke="#000" stroke-width="40">
  <rect x="20" y="20" width="360" height="560" fill="#fff" stroke-linecap="round"/>
  <path d="M 18.531,40 200.001,504.99 381.471,40" fill="none"/>
 </g>
 <path d="m2.028 0.45662c-0.3679 0-0.66971 0.30182-0.66971 0.66971h0.33489c0-0.18693 0.14791-0.33489 0.33484-0.33489 0.18693 0 0.33489 0.14796 0.33489 0.33489 0 0.18692-0.14795 0.33488-0.33487 0.33489v-1.6e-5h-0.16744v0.33487h0.16744v-1.7e-5c0.18692 9e-6 0.33487 0.14796 0.33487 0.33489 0 0.18693-0.14796 0.33489-0.33489 0.33489-0.18693 0-0.33484-0.14796-0.33484-0.33489h-0.33489c0 0.3679 0.30182 0.66971 0.66971 0.66971 0.3679 0 0.66979-0.30182 0.66979-0.66971 0-0.1994-0.08879-0.37926-0.2286-0.5023 0.13981-0.12304 0.2286-0.3029 0.2286-0.5023 0-0.3679-0.30187-0.66971-0.66979-0.66971z" stroke-miterlimit="5" stroke-width=".031641"/>
</svg>
