<?xml version="1.0" encoding="UTF-8"?>
<!-- Created with Inkscape (http://www.inkscape.org/) -->
<svg width="400" height="599.7" version="1.1" viewBox="0 0 105.83 158.67" xmlns="http://www.w3.org/2000/svg">
 <g transform="matrix(.26445 0 0 .26445 .026585 0)" stroke="#000" stroke-width="40">
  <rect x="20" y="20" width="360" height="560" fill="#fff" stroke-linecap="round"/>
  <path d="m18.531 40 181.47 464.99 181.47-464.99" fill="none"/>
 </g>
 <path d="m52.917 11.906a17.462 17.462 0 0 0-17.462 17.462 17.462 17.462 0 0 0 5.9264 13.097 17.462 17.462 0 0 0-5.9264 13.097 17.462 17.462 0 0 0 17.462 17.463 17.462 17.462 0 0 0 17.462-17.463 17.462 17.462 0 0 0-5.923-13.093 17.462 17.462 0 0 0 5.923-13.1 17.462 17.462 0 0 0-17.462-17.462zm0 8.7312a8.7312 8.7312 0 0 1 8.7313 8.7312 8.7312 8.7312 0 0 1-8.7313 8.7313 8.7312 8.7312 0 0 1-8.7312-8.7313 8.7312 8.7312 0 0 1 8.7312-8.7312zm0 26.194a8.7312 8.7312 0 0 1 8.7313 8.7312 8.7312 8.7312 0 0 1-8.7313 8.7313 8.7312 8.7312 0 0 1-8.7312-8.7313 8.7312 8.7312 0 0 1 8.7312-8.7312z"/>
</svg>
