<?xml version="1.0" encoding="UTF-8"?>
<!-- Created with Inkscape (http://www.inkscape.org/) -->
<svg width="15.341" height="23" version="1.1" viewBox="0 0 4.0589 6.0854" xmlns="http://www.w3.org/2000/svg">
 <g transform="matrix(.010142 0 0 .010142 -.00043876 0)" stroke="#000" stroke-width="40">
  <rect x="20" y="20" width="360" height="560" fill="#fff" stroke-linecap="round"/>
  <path d="M 18.531,40 200.001,504.99 381.471,40" fill="none"/>
 </g>
 <path d="m2.028 0.45662c-0.06223 6.04e-4 -0.12505 0.0099-0.1867 0.02858-0.28183 0.08529-0.47576 0.3466-0.47576 0.64106h0.33484c0-0.1483 0.09592-0.27755 0.23786-0.3205 0.14194-0.04296 0.29346 0.01139 0.37569 0.1348 0.08223 0.12341 0.07408 0.28419-0.02021 0.39864-2e-6 3e-6 3e-6 1.3e-5 0 1.6e-5l-0.92821 1.1266v0.33488h1.3395v-0.33488h-0.90562l0.75274-0.91363c-0.14318-0.11798-0.1432-0.118 0-1.6e-5 0.18724-0.22725 0.20376-0.5522 0.04048-0.79723-0.12246-0.18378-0.32536-0.29159-0.53805-0.298-0.0089-2.54e-4 -0.01775-3.65e-4 -0.02664-2.84e-4z" color="#000000" color-rendering="auto" dominant-baseline="auto" image-rendering="auto" shape-rendering="auto" solid-color="#000000" stop-color="#000000" stroke-width=".038352" style="-inkscape-stroke:none;font-feature-settings:normal;font-variant-alternates:normal;font-variant-caps:normal;font-variant-east-asian:normal;font-variant-ligatures:normal;font-variant-numeric:normal;font-variant-position:normal;font-variation-settings:normal;inline-size:0;isolation:auto;mix-blend-mode:normal;shape-margin:0;shape-padding:0;text-decoration-color:#000000;text-decoration-line:none;text-decoration-style:solid;text-indent:0;text-orientation:mixed;text-transform:none;white-space:normal"/>
</svg>
