<?xml version="1.0" encoding="UTF-8"?>
<!-- Created with Inkscape (http://www.inkscape.org/) -->
<svg width="400" height="599.7" version="1.1" viewBox="0 0 105.83 158.67" xmlns="http://www.w3.org/2000/svg">
 <g transform="matrix(.26445 0 0 .26445 .026585 0)" stroke="#000" stroke-width="40">
  <rect x="20" y="20" width="360" height="560" fill="#fff" stroke-linecap="round"/>
  <path d="m18.531 40 181.47 464.99 181.47-464.99" fill="none"/>
 </g>
 <path d="m52.917 11.906c-9.5927 0-17.462 7.8696-17.462 17.462h8.7318c0-4.8739 3.8566-8.7318 8.7305-8.7318 4.8739 0 8.7318 3.8579 8.7318 8.7318 0 4.8738-3.8576 8.7316-8.7314 8.7318v-4.2e-4h-4.3657v8.7314h4.3657v-4.29e-4c4.8737 2.31e-4 8.7314 3.858 8.7314 8.7318 0 4.8739-3.8579 8.7318-8.7318 8.7318-4.8739 0-8.7305-3.8579-8.7305-8.7318h-8.7318c0 9.5927 7.8696 17.462 17.462 17.462 9.5927 0 17.464-7.8696 17.464-17.462 0-5.1992-2.3152-9.8889-5.9606-13.097 3.6454-3.2082 5.9606-7.8978 5.9606-13.097 0-9.5927-7.8709-17.462-17.464-17.462z" stroke-miterlimit="5" stroke-width=".82501"/>
</svg>
