<?xml version="1.0" encoding="UTF-8"?>
<!-- Created with Inkscape (http://www.inkscape.org/) -->
<svg width="400" height="599.7" version="1.1" viewBox="0 0 105.83 158.67" xmlns="http://www.w3.org/2000/svg">
 <g transform="matrix(.26445 0 0 .26445 .026585 0)" stroke="#000" stroke-width="40">
  <rect x="20" y="20" width="360" height="560" fill="#fff" stroke-linecap="round"/>
  <path d="m18.531 40 181.47 464.99 181.47-464.99" fill="none"/>
 </g>
 <path d="m39.572 11.906c-0.98344 0.0095-1.976 0.15682-2.9502 0.45165-4.4534 1.3478-7.5176 5.477-7.5176 10.13h5.2911c0-2.3434 1.5157-4.3857 3.7587-5.0645s4.6372 0.17994 5.9366 2.1301c1.2994 1.9501 1.1707 4.4908-0.31936 6.2994-4.5e-5 5e-5 4e-5 2.05e-4 0 2.55e-4l-14.667 17.801v5.2917h21.167v-5.2917h-14.31l11.895-14.437c-2.2626-1.8643-2.2629-1.8646 0-2.6e-4 2.9587-3.591 3.2198-8.7256 0.63976-12.598-1.935-2.9041-5.1412-4.6076-8.5021-4.709-0.14004-4e-3 -0.28042-0.0057-0.4209-0.0045z" color="#000000" color-rendering="auto" dominant-baseline="auto" image-rendering="auto" shape-rendering="auto" solid-color="#000000" stop-color="#000000" style="-inkscape-stroke:none;font-feature-settings:normal;font-variant-alternates:normal;font-variant-caps:normal;font-variant-east-asian:normal;font-variant-ligatures:normal;font-variant-numeric:normal;font-variant-position:normal;font-variation-settings:normal;inline-size:0;isolation:auto;mix-blend-mode:normal;shape-margin:0;shape-padding:0;text-decoration-color:#000000;text-decoration-line:none;text-decoration-style:solid;text-indent:0;text-orientation:mixed;text-transform:none;white-space:normal"/>
 <path d="m66.146 11.906c-0.98344 0.0095-1.976 0.15682-2.9502 0.45165-4.4534 1.3478-7.5176 5.477-7.5176 10.13h5.2911c0-2.3434 1.5157-4.3857 3.7587-5.0645s4.6372 0.17994 5.9366 2.1301c1.2994 1.9501 1.1707 4.4908-0.31936 6.2994-4.5e-5 5e-5 4e-5 2.05e-4 0 2.55e-4l-14.667 17.801v5.2917h21.167v-5.2917h-14.31l11.895-14.437c-2.2626-1.8643-2.2629-1.8646 0-2.6e-4 2.9587-3.591 3.2198-8.7256 0.63976-12.598-1.935-2.9041-5.1412-4.6076-8.5021-4.709-0.14004-4e-3 -0.28042-0.0057-0.4209-0.0045z" color="#000000" color-rendering="auto" dominant-baseline="auto" image-rendering="auto" shape-rendering="auto" solid-color="#000000" stop-color="#000000" style="-inkscape-stroke:none;font-feature-settings:normal;font-variant-alternates:normal;font-variant-caps:normal;font-variant-east-asian:normal;font-variant-ligatures:normal;font-variant-numeric:normal;font-variant-position:normal;font-variation-settings:normal;inline-size:0;isolation:auto;mix-blend-mode:normal;shape-margin:0;shape-padding:0;text-decoration-color:#000000;text-decoration-line:none;text-decoration-style:solid;text-indent:0;text-orientation:mixed;text-transform:none;white-space:normal"/>
</svg>
