<?xml version="1.0" encoding="UTF-8"?>
<!-- Created with Inkscape (http://www.inkscape.org/) -->
<svg width="400" height="599.7" version="1.1" viewBox="0 0 105.83 158.67" xmlns="http://www.w3.org/2000/svg">
 <g transform="matrix(.26445 0 0 .26445 .026585 0)" stroke="#000" stroke-width="40">
  <rect x="20" y="20" width="360" height="560" fill="#fff" stroke-linecap="round"/>
  <path d="m18.531 40 181.47 464.99 181.47-464.99" fill="none"/>
 </g>
 <path d="m52.917 11.906c-1.6227 0.01576-3.2606 0.25877-4.868 0.74525-7.3484 2.2239-12.405 9.0373-12.405 16.715h8.7307c0-3.8668 2.501-7.2367 6.202-8.3568s7.6516 0.29691 9.7957 3.5148c2.144 3.2178 1.9317 7.41-0.52696 10.394-7.2e-5 8.3e-5 7.3e-5 3.38e-4 0 4.21e-4l-24.202 29.374v8.7316h34.926v-8.7316h-23.613l19.627-23.822c-3.7334-3.0763-3.7339-3.0767 0-4.29e-4 4.8821-5.9254 5.3128-14.398 1.0556-20.787-3.1929-4.7919-8.4833-7.6028-14.029-7.7701-0.23106-0.0066-0.4627-0.0095-0.69452-0.0074z" color="#000000" color-rendering="auto" dominant-baseline="auto" image-rendering="auto" shape-rendering="auto" solid-color="#000000" stop-color="#000000" style="-inkscape-stroke:none;font-feature-settings:normal;font-variant-alternates:normal;font-variant-caps:normal;font-variant-east-asian:normal;font-variant-ligatures:normal;font-variant-numeric:normal;font-variant-position:normal;font-variation-settings:normal;inline-size:0;isolation:auto;mix-blend-mode:normal;shape-margin:0;shape-padding:0;text-decoration-color:#000000;text-decoration-line:none;text-decoration-style:solid;text-indent:0;text-orientation:mixed;text-transform:none;white-space:normal"/>
</svg>
