<?xml version="1.0" encoding="UTF-8"?>
<!-- Created with Inkscape (http://www.inkscape.org/) -->
<svg width="15.341" height="23" version="1.1" viewBox="0 0 4.0589 6.0854" xmlns="http://www.w3.org/2000/svg">
 <g transform="matrix(.010142 0 0 .010142 -.00043876 0)" stroke="#000" stroke-width="40">
  <rect x="20" y="20" width="360" height="560" fill="#fff" stroke-linecap="round"/>
  <path d="M 18.531,40 200.001,504.99 381.471,40" fill="none"/>
 </g>
 <path d="m1.5162 0.45662c-0.03772 3.64e-4 -0.07578 6e-3 -0.11315 0.01732-0.1708 0.05169-0.28832 0.21006-0.28832 0.38851h0.20293c0-0.08988 0.05813-0.1682 0.14416-0.19424 0.08602-0.02603 0.17785 0.0069 0.22768 0.08169 0.04984 0.07479 0.0449 0.17223-0.01225 0.2416-1e-6 2e-6 2e-6 8e-6 0 9e-6l-0.56252 0.68271v0.20295h0.81181v-0.20295h-0.54882l0.4562-0.5537c-0.08678-0.0715-0.08679-0.07151 0-1e-5 0.11347-0.13772 0.12349-0.33465 0.02454-0.48316-0.07421-0.11138-0.19718-0.17671-0.32608-0.1806-0.0054-1.53e-4 -0.01076-2.18e-4 -0.01614-1.72e-4z" color="#000000" color-rendering="auto" dominant-baseline="auto" image-rendering="auto" shape-rendering="auto" solid-color="#000000" stop-color="#000000" stroke-width=".038352" style="-inkscape-stroke:none;font-feature-settings:normal;font-variant-alternates:normal;font-variant-caps:normal;font-variant-east-asian:normal;font-variant-ligatures:normal;font-variant-numeric:normal;font-variant-position:normal;font-variation-settings:normal;inline-size:0;isolation:auto;mix-blend-mode:normal;shape-margin:0;shape-padding:0;text-decoration-color:#000000;text-decoration-line:none;text-decoration-style:solid;text-indent:0;text-orientation:mixed;text-transform:none;white-space:normal"/>
 <path d="m2.5354 0.45662c-0.22297 0-0.40588 0.18292-0.40588 0.40588h0.20296c0-0.11329 0.08964-0.20296 0.20293-0.20296 0.11329 0 0.20296 0.08967 0.20296 0.20296 0 0.11329-0.08967 0.20296-0.20295 0.20296v-1e-5h-0.10148v0.20295h0.10148v-1e-5c0.11328 5e-6 0.20295 0.08968 0.20295 0.20296 0 0.11329-0.08967 0.20296-0.20296 0.20296-0.11329 0-0.20293-0.08967-0.20293-0.20296h-0.20296c0 0.22297 0.18292 0.40588 0.40588 0.40588 0.22296 0 0.40592-0.18292 0.40592-0.40588 0-0.12085-0.05382-0.22985-0.13855-0.30443 0.08473-0.07457 0.13855-0.18358 0.13855-0.30443 0-0.22297-0.18295-0.40588-0.40592-0.40588z" stroke-miterlimit="5" stroke-width=".019177"/>
</svg>
