<?xml version="1.0" encoding="UTF-8"?>
<!-- Created with Inkscape (http://www.inkscape.org/) -->
<svg width="15.341" height="23" version="1.1" viewBox="0 0 4.0589 6.0854" xmlns="http://www.w3.org/2000/svg">
 <g transform="matrix(.010142 0 0 .010142 -.00043876 0)" stroke="#000" stroke-width="40">
  <rect x="20" y="20" width="360" height="560" fill="#fff" stroke-linecap="round"/>
  <path d="M 18.531,40 200.001,504.99 381.471,40" fill="none"/>
 </g>
 <path d="m1.6475 0.45662h-0.25369l-0.25369 0.50736h0.25369v1.2684h0.25369z" stroke-miterlimit="5" stroke-width=".25369"/>
 <path d="m2.4085 0.45662c-0.27872 0-0.50736 0.22865-0.50736 0.50736h0.2537c0-0.14161 0.11205-0.2537 0.25366-0.2537s0.2537 0.11209 0.2537 0.2537c0 0.14161-0.11208 0.25369-0.25369 0.2537v-1.2e-5h-0.12684v0.25369h0.12684v-1.2e-5c0.1416 6e-6 0.25369 0.11209 0.25369 0.2537 0 0.14161-0.11209 0.2537-0.2537 0.2537-0.14161 0-0.25366-0.11209-0.25366-0.2537h-0.2537c0 0.27872 0.22865 0.50737 0.50736 0.50737 0.27872 0 0.5074-0.22865 0.5074-0.50737 0-0.15106-0.06727-0.28732-0.17318-0.38053 0.10591-0.09322 0.17318-0.22947 0.17318-0.38053 0-0.27872-0.22869-0.50736-0.5074-0.50736z" stroke-miterlimit="5" stroke-width=".023971"/>
</svg>
