<?xml version="1.0" encoding="UTF-8"?>
<svg xmlns="http://www.w3.org/2000/svg" xmlns:xlink="http://www.w3.org/1999/xlink" width="16" height="16" viewBox="0 0 16 16">
<path fill-rule="nonzero" fill="rgb(100%, 100%, 100%)" fill-opacity="1" stroke-width="0.264583" stroke-linecap="butt" stroke-linejoin="miter" stroke="rgb(0%, 0%, 0%)" stroke-opacity="1" stroke-miterlimit="4" d="M 2565.628383 1282.814192 L 1282.814192 2565.628383 L 0 1282.814192 L 1282.814192 0 Z M 2565.628383 1282.814192 " transform="matrix(0.00623629, 0, 0, 0.00623629, 0, 0)"/>
<path fill-rule="nonzero" fill="rgb(0%, 26.666667%, 66.666667%)" fill-opacity="1" stroke-width="10" stroke-linecap="butt" stroke-linejoin="miter" stroke="rgb(0%, 0%, 0%)" stroke-opacity="1" stroke-miterlimit="4" d="M 20.039063 -459.960937 L 459.960937 -459.960937 L 459.960937 -20.039062 L 20.039063 -20.039062 Z M 20.039063 -459.960937 " transform="matrix(-0.0166667, 0.0166667, -0.0166667, -0.0166667, 8, 0.000000000423378)"/>
<path fill="none" stroke-width="22" stroke-linecap="butt" stroke-linejoin="miter" stroke="rgb(100%, 100%, 100%)" stroke-opacity="1" stroke-miterlimit="4" d="M 306.431353 243.454655 C 306.431353 225.224558 321.181158 210.474753 339.411255 210.474753 C 357.641352 210.474753 372.391157 225.224558 372.391157 243.454655 C 372.391157 261.684752 357.641352 276.434557 339.411255 276.434557 L 328.473197 276.434557 L 339.411255 276.434557 C 357.641352 276.434557 372.391157 291.184363 372.391157 309.414459 C 372.391157 327.644556 357.641352 342.394362 339.411255 342.394362 C 321.181158 342.394362 306.431353 327.644556 306.431353 309.414459 " transform="matrix(0.0235702, 0, 0, 0.0235702, 0, 0)"/>
<path fill="none" stroke-width="22" stroke-linecap="square" stroke-linejoin="miter" stroke="rgb(100%, 100%, 100%)" stroke-opacity="1" stroke-miterlimit="5" d="M 251.409606 425.424166 C 427.412903 425.424166 427.412903 425.424166 427.412903 425.424166 " transform="matrix(0.0235702, 0, 0, 0.0235702, 0, 0)"/>
<path fill="none" stroke-width="22" stroke-linecap="square" stroke-linejoin="miter" stroke="rgb(100%, 100%, 100%)" stroke-opacity="1" stroke-miterlimit="5" d="M 251.409606 469.342126 C 427.412903 469.342126 427.412903 469.342126 427.412903 469.342126 " transform="matrix(0.0235702, 0, 0, 0.0235702, 0, 0)"/>
</svg>
