<?xml version="1.0" encoding="UTF-8"?>
<svg xmlns="http://www.w3.org/2000/svg" xmlns:xlink="http://www.w3.org/1999/xlink" width="16" height="16" viewBox="0 0 16 16">
<path fill-rule="nonzero" fill="rgb(100%, 100%, 100%)" fill-opacity="1" stroke-width="0.264583" stroke-linecap="butt" stroke-linejoin="miter" stroke="rgb(0%, 0%, 0%)" stroke-opacity="1" stroke-miterlimit="4" d="M 2565.628383 1282.814192 L 1282.814192 2565.628383 L 0 1282.814192 L 1282.814192 0 Z M 2565.628383 1282.814192 " transform="matrix(0.00623629, 0, 0, 0.00623629, 0, 0)"/>
<path fill-rule="nonzero" fill="rgb(0%, 26.666667%, 66.666667%)" fill-opacity="1" stroke-width="10" stroke-linecap="butt" stroke-linejoin="miter" stroke="rgb(0%, 0%, 0%)" stroke-opacity="1" stroke-miterlimit="4" d="M 20.039063 -459.960937 L 459.960937 -459.960937 L 459.960937 -20.039062 L 20.039063 -20.039062 Z M 20.039063 -459.960937 " transform="matrix(-0.0166667, 0.0166667, -0.0166667, -0.0166667, 8, 0.000000000423378)"/>
<path fill="none" stroke-width="22" stroke-linecap="butt" stroke-linejoin="miter" stroke="rgb(100%, 100%, 100%)" stroke-opacity="1" stroke-miterlimit="4" d="M 416.474845 210.474753 L 339.411255 210.474753 L 339.411255 254.392713 L 372.391157 254.392713 C 390.621254 254.392713 405.371059 269.142519 405.371059 287.372615 L 405.371059 309.414459 C 405.371059 327.644556 390.621254 342.394362 372.391157 342.394362 C 354.16106 342.394362 339.411255 327.644556 339.411255 309.414459 " transform="matrix(0.0235702, 0, 0, 0.0235702, 0, 0)"/>
<path fill-rule="nonzero" fill="rgb(100%, 100%, 100%)" fill-opacity="1" d="M 6.703125 4.699219 L 6.183594 5.738281 L 6.703125 5.738281 L 6.703125 8.328125 L 7.222656 8.328125 L 7.222656 4.699219 Z M 6.703125 4.699219 "/>
<path fill="none" stroke-width="22" stroke-linecap="butt" stroke-linejoin="miter" stroke="rgb(100%, 100%, 100%)" stroke-opacity="1" stroke-miterlimit="4" d="M 251.409606 458.404068 C 251.409606 452.935039 262.347664 425.424166 295.493295 425.424166 C 328.473197 425.424166 339.411255 469.342126 383.329215 469.342126 C 416.474845 469.342126 427.412903 441.831253 427.412903 436.362224 " transform="matrix(0.0235702, 0, 0, 0.0235702, 0, 0)"/>
</svg>
