<?xml version="1.0" encoding="UTF-8"?>
<svg xmlns="http://www.w3.org/2000/svg" xmlns:xlink="http://www.w3.org/1999/xlink" width="16" height="16" viewBox="0 0 16 16">
<path fill-rule="nonzero" fill="rgb(100%, 100%, 100%)" fill-opacity="1" stroke-width="0.264583" stroke-linecap="butt" stroke-linejoin="miter" stroke="rgb(0%, 0%, 0%)" stroke-opacity="1" stroke-miterlimit="4" d="M 2565.628383 1282.814192 L 1282.814192 2565.628383 L 0 1282.814192 L 1282.814192 0 Z M 2565.628383 1282.814192 " transform="matrix(0.00623629, 0, 0, 0.00623629, 0, 0)"/>
<path fill-rule="nonzero" fill="rgb(0%, 26.666667%, 66.666667%)" fill-opacity="1" stroke-width="10" stroke-linecap="butt" stroke-linejoin="miter" stroke="rgb(0%, 0%, 0%)" stroke-opacity="1" stroke-miterlimit="4" d="M 20.039063 -459.960937 L 459.960937 -459.960937 L 459.960937 -20.039062 L 20.039063 -20.039062 Z M 20.039063 -459.960937 " transform="matrix(-0.0166667, 0.0166667, -0.0166667, -0.0166667, 8, 0.000000000423378)"/>
<path fill="none" stroke-width="22" stroke-linecap="butt" stroke-linejoin="miter" stroke="rgb(100%, 100%, 100%)" stroke-opacity="1" stroke-miterlimit="4" d="M 10.998351 44.04337 C 10.998351 29.459292 20.610584 16.532496 34.531749 12.389293 C 48.452914 8.246089 63.534176 13.715118 71.489127 25.813273 C 79.609806 37.911428 78.615437 53.987059 69.334661 65.090845 L 10.998351 136.022494 L 10.998351 142.983076 L 88.061942 142.983076 " transform="matrix(0.0235702, 0, 0, 0.0235702, 5.666548, 4.700169)"/>
<path fill="none" stroke-width="50" stroke-linecap="butt" stroke-linejoin="miter" stroke="rgb(100%, 100%, 100%)" stroke-opacity="1" stroke-miterlimit="4" d="M 549.862934 85.144247 L 375.095041 85.144247 L 375.095041 184.957807 L 450.049374 184.957807 C 491.481418 184.957807 525.003708 218.480097 525.003708 259.91214 L 525.003708 310.007248 C 525.003708 351.439292 491.481418 384.961582 450.049374 384.961582 C 408.617331 384.961582 375.095041 351.439292 375.095041 310.007248 " transform="matrix(0.0103709, 0, 0, 0.0103709, 4.629459, 4.077915)"/>
<path fill="none" stroke-width="22" stroke-linecap="butt" stroke-linejoin="miter" stroke="rgb(100%, 100%, 100%)" stroke-opacity="1" stroke-miterlimit="4" d="M 251.409606 458.404068 C 251.409606 452.935039 262.347664 425.424166 295.493295 425.424166 C 328.473197 425.424166 339.411255 469.342126 383.329215 469.342126 C 416.474845 469.342126 427.412903 441.831253 427.412903 436.362224 " transform="matrix(0.0235702, 0, 0, 0.0235702, 0, 0)"/>
<path fill-rule="nonzero" fill="rgb(49.803922%, 25.490196%, 66.27451%)" fill-opacity="1" stroke-width="80" stroke-linecap="butt" stroke-linejoin="bevel" stroke="rgb(73.333333%, 12.156863%, 6.666667%)" stroke-opacity="1" stroke-miterlimit="5" d="M 187.43854 491.38397 C 491.38397 187.43854 491.38397 187.43854 491.38397 187.43854 " transform="matrix(0.0235702, 0, 0, 0.0235702, 0, 0)"/>
</svg>
