<?xml version="1.0" encoding="UTF-8"?>
<svg xmlns="http://www.w3.org/2000/svg" xmlns:xlink="http://www.w3.org/1999/xlink" width="16" height="20.714045" viewBox="0 0 16 20.714045">
<path fill-rule="nonzero" fill="rgb(100%, 100%, 100%)" fill-opacity="1" stroke-width="0.264583" stroke-linecap="butt" stroke-linejoin="miter" stroke="rgb(0%, 0%, 0%)" stroke-opacity="1" stroke-miterlimit="4" d="M 2565.628383 2038.847751 L 1282.814192 3321.661943 L 0 2038.847751 L 1282.814192 756.033559 Z M 2565.628383 2038.847751 " transform="matrix(0.00623629, 0, 0, 0.00623629, 0, 0)"/>
<path fill-rule="nonzero" fill="rgb(0%, 26.666667%, 66.666667%)" fill-opacity="1" stroke-width="10" stroke-linecap="butt" stroke-linejoin="miter" stroke="rgb(0%, 0%, 0%)" stroke-opacity="1" stroke-miterlimit="4" d="M 20.063013 -459.984891 L 459.984888 -459.984891 L 459.984888 -20.063016 L 19.945826 -19.945829 Z M 20.063013 -459.984891 " transform="matrix(-0.0166667, 0.0166667, -0.0166667, -0.0166667, 8, 4.714045)"/>
<path fill="none" stroke-width="70" stroke-linecap="butt" stroke-linejoin="bevel" stroke="rgb(100%, 100%, 100%)" stroke-opacity="1" stroke-miterlimit="5" d="M 339.411255 444.482903 L 513.425814 444.482903 " transform="matrix(0.0235702, 0, 0, 0.0235702, 0, 0)"/>
<path fill="none" stroke-width="70" stroke-linecap="butt" stroke-linejoin="bevel" stroke="rgb(100%, 100%, 100%)" stroke-opacity="1" stroke-miterlimit="5" d="M 165.396695 633.578724 L 339.411255 633.578724 " transform="matrix(0.0235702, 0, 0, 0.0235702, 0, 0)"/>
<path fill-rule="nonzero" fill="rgb(100%, 100%, 100%)" fill-opacity="1" stroke-width="0.656056" stroke-linecap="butt" stroke-linejoin="bevel" stroke="rgb(0%, 0%, 0%)" stroke-opacity="1" stroke-miterlimit="5" d="M 905.110599 0 L 1660.517784 0 L 1660.517784 756.033559 L 905.110599 756.033559 Z M 905.110599 0 " transform="matrix(0.00623629, 0, 0, 0.00623629, 0, 0)"/>
<path fill-rule="nonzero" fill="rgb(0%, 0%, 0%)" fill-opacity="1" d="M 5.644531 0 C 10.355469 2.355469 10.355469 2.355469 10.355469 2.355469 L 5.644531 4.714844 Z M 5.644531 0 "/>
</svg>
