<?xml version="1.0" encoding="UTF-8"?>
<svg xmlns="http://www.w3.org/2000/svg" xmlns:xlink="http://www.w3.org/1999/xlink" width="16" height="20.714045" viewBox="0 0 16 20.714045">
<path fill-rule="nonzero" fill="rgb(100%, 100%, 100%)" fill-opacity="1" stroke-width="0.264583" stroke-linecap="butt" stroke-linejoin="miter" stroke="rgb(0%, 0%, 0%)" stroke-opacity="1" stroke-miterlimit="4" d="M 2565.628383 2038.847751 L 1282.814192 3321.661943 L 0 2038.847751 L 1282.814192 756.033559 Z M 2565.628383 2038.847751 " transform="matrix(0.00623629, 0, 0, 0.00623629, 0, 0)"/>
<path fill-rule="nonzero" fill="rgb(0%, 26.666667%, 66.666667%)" fill-opacity="1" stroke-width="10" stroke-linecap="butt" stroke-linejoin="miter" stroke="rgb(0%, 0%, 0%)" stroke-opacity="1" stroke-miterlimit="4" d="M 20.063024 -459.984896 L 459.984899 -459.984896 L 459.984899 -20.063021 L 19.945837 -19.945833 Z M 20.063024 -459.984896 " transform="matrix(-0.0166667, 0.0166667, -0.0166667, -0.0166667, 8, 4.714045)"/>
<path fill="none" stroke-width="70" stroke-linecap="square" stroke-linejoin="miter" stroke="rgb(100%, 100%, 100%)" stroke-opacity="1" stroke-miterlimit="5" d="M 234.339607 634.407365 C 444.482903 634.407365 444.482903 634.407365 444.482903 634.407365 " transform="matrix(0.0235702, 0, 0, 0.0235702, 0, 0)"/>
<path fill="none" stroke-width="70" stroke-linecap="butt" stroke-linejoin="miter" stroke="rgb(100%, 100%, 100%)" stroke-opacity="1" stroke-miterlimit="5" d="M 234.339607 539.445134 C 234.339607 419.457952 234.339607 419.457952 234.339607 419.457952 " transform="matrix(0.0235702, 0, 0, 0.0235702, 0, 0)"/>
<path fill="none" stroke-width="70" stroke-linecap="butt" stroke-linejoin="miter" stroke="rgb(100%, 100%, 100%)" stroke-opacity="1" stroke-miterlimit="5" d="M 444.482903 539.445134 C 444.482903 419.457952 444.482903 419.457952 444.482903 419.457952 " transform="matrix(0.0235702, 0, 0, 0.0235702, 0, 0)"/>
<path fill-rule="nonzero" fill="rgb(100%, 100%, 100%)" fill-opacity="1" stroke-width="0.656056" stroke-linecap="butt" stroke-linejoin="bevel" stroke="rgb(0%, 0%, 0%)" stroke-opacity="1" stroke-miterlimit="5" d="M 1660.517784 756.033559 L 905.110599 756.033559 L 905.110599 0 L 1660.517784 0 Z M 1660.517784 756.033559 " transform="matrix(0.00623629, 0, 0, 0.00623629, 0, 0)"/>
<path fill-rule="nonzero" fill="rgb(0%, 0%, 0%)" fill-opacity="1" d="M 10.355469 4.714844 C 5.644531 2.355469 5.644531 2.355469 5.644531 2.355469 L 10.355469 0 Z M 10.355469 4.714844 "/>
</svg>
