<?xml version="1.0" encoding="UTF-8"?>
<svg xmlns="http://www.w3.org/2000/svg" xmlns:xlink="http://www.w3.org/1999/xlink" width="16" height="20.714045" viewBox="0 0 16 20.714045">
<path fill-rule="nonzero" fill="rgb(100%, 100%, 100%)" fill-opacity="1" stroke-width="0.264583" stroke-linecap="butt" stroke-linejoin="miter" stroke="rgb(0%, 0%, 0%)" stroke-opacity="1" stroke-miterlimit="4" d="M 2565.628383 2038.847751 L 1282.814192 3321.661943 L 0 2038.847751 L 1282.814192 756.033559 Z M 2565.628383 2038.847751 " transform="matrix(0.00623629, 0, 0, 0.00623629, 0, 0)"/>
<path fill-rule="nonzero" fill="rgb(0%, 26.666667%, 66.666667%)" fill-opacity="1" stroke-width="10" stroke-linecap="butt" stroke-linejoin="miter" stroke="rgb(0%, 0%, 0%)" stroke-opacity="1" stroke-miterlimit="4" d="M 20.063013 -459.984891 L 459.984888 -459.984891 L 459.984888 -20.063016 L 19.945826 -19.945829 Z M 20.063013 -459.984891 " transform="matrix(-0.0166667, 0.0166667, -0.0166667, -0.0166667, 8, 4.714045)"/>
<path fill="none" stroke-width="70" stroke-linecap="butt" stroke-linejoin="miter" stroke="rgb(100%, 100%, 100%)" stroke-opacity="1" stroke-miterlimit="4" d="M 229.477079 80.883326 L 381.469266 232.875513 L 232.875516 381.469263 L 80.883329 229.477076 " transform="matrix(0.0166667, 0.0166667, -0.0166667, 0.0166667, 8, 4.714045)"/>
<path fill-rule="nonzero" fill="rgb(100%, 100%, 100%)" fill-opacity="1" stroke-width="0.656056" stroke-linecap="butt" stroke-linejoin="bevel" stroke="rgb(0%, 0%, 0%)" stroke-opacity="1" stroke-miterlimit="5" d="M 905.110599 0 L 1660.517784 0 L 1660.517784 756.033559 L 905.110599 756.033559 Z M 905.110599 0 " transform="matrix(0.00623629, 0, 0, 0.00623629, 0, 0)"/>
<path fill="none" stroke-width="50" stroke-linecap="butt" stroke-linejoin="miter" stroke="rgb(0%, 0%, 0%)" stroke-opacity="1" stroke-miterlimit="5" d="M 314.386304 20.053106 C 314.386304 154.955822 314.386304 154.955822 314.386304 154.955822 L 389.461157 154.955822 " transform="matrix(0.0235702, 0, 0, 0.0235702, 0, 0)"/>
</svg>
