<?xml version="1.0" encoding="UTF-8"?>
<svg xmlns="http://www.w3.org/2000/svg" width="12" height="12" viewBox="0 0 12 12">
<path fill="#000000" d="M 0,0 H 12 V 12 H 0 Z"/>
<path fill="none" stroke-width="0.5" stroke="#ffffff" d="M 1,1 H 11 V 11 H 1 Z"/>
<path fill="#ffffff" d="m 3.8183614,3.1425023 c -0.7897973,0 -1.3918605,0.4088636 -1.7248157,1.1646189 -0.204942,0.4676909 -0.304668,1.005078 -0.304668,1.6068792 0,1.0238922 0.139561,1.7659111 0.4619167,2.2383288 0.3202602,0.4693469 0.8519135,0.7051596 1.5307116,0.7051596 0.5485058,0 1.0201878,-0.1848064 1.3840712,-0.550164 0.3638827,-0.3653576 0.547133,-0.8371942 0.547133,-1.3810396 0,-0.5516599 -0.1742915,-1.0214172 -0.5233414,-1.375921 -0.3447351,-0.3556787 -0.811473,-0.5356264 -1.3636368,-0.5356264 -0.3230907,0 -0.6288012,0.09103 -0.9066334,0.2653562 -0.1165021,0.073099 -0.1724745,0.196204 -0.2653564,0.2899262 0.036977,-0.3603633 0.059457,-0.7441656 0.1695335,-0.9926288 0.22684,-0.5046047 0.5473521,-0.7223585 1.0393116,-0.7223585 0.2682064,0 0.4711195,0.073512 0.636363,0.2260442 v 0.00246 c 0.1660656,0.1490333 0.2662726,0.3442859 0.3022122,0.6093364 l 0.7837835,-0.00737 c -0.05819,-0.4840271 -0.2367284,-0.9035682 -0.5405402,-1.1621619 -0.3038126,-0.2585936 -0.7192481,-0.3808353 -1.2260445,-0.3808353 z m 0,2.584766 c 0.3523694,0 0.6095373,0.1153823 0.8157247,0.3513513 0.1934113,0.2294245 0.2923831,0.5127153 0.2923831,0.8771496 0,0.3424216 -0.1006079,0.6115978 -0.3046679,0.8378378 -0.2182203,0.2396306 -0.4710992,0.3538082 -0.7960693,0.3538082 -0.4025695,0 -0.6795804,-0.116346 -0.8771497,-0.3439804 -0.1816061,-0.2075503 -0.2776412,-0.4809852 -0.2776412,-0.8476656 0,-0.3687469 0.1042075,-0.6545789 0.3120391,-0.8845206 h 0.00248 c 0.2053458,-0.2315593 0.4681087,-0.3439803 0.8329238,-0.3439803 z"/>
<path fill="#ffffff" d="m 5.8,3.2 l 2,5.5 h 0.8 l 2,-5.5 h -0.8 l -1.6,4.35 -1.6,-4.35 z"/>
</svg>