<?xml version="1.0" encoding="UTF-8"?>
<svg xmlns="http://www.w3.org/2000/svg" width="12" height="12" viewBox="0 0 12 12">
<path fill="#000000" d="M 0,0 H 12 V 12 H 0 Z"/>
<path fill="none" stroke-width="0.5" stroke="#ffffff" d="M 1,1 H 11 V 11 H 1 Z"/>
<path fill="#ffffff" d="m 2.4112801,3.6781287 c -0.327547,0.3494249 -0.495891,0.8087608 -0.501229,1.3439801 h 0.628992 v -0.00245 h 0.157248 c -0.0093,-0.3712633 0.08246,-0.6463673 0.262899,-0.8525797 0.178859,-0.2086674 0.420297,-0.3120392 0.7715,-0.3120392 0.309373,0 0.5408,0.06984 0.71253,0.1990171 0.186931,0.1453915 0.277641,0.3375663 0.277641,0.6314495 0,0.2642642 -0.0903,0.4434752 -0.289927,0.5921376 v 0.00245 h -0.0025 c -0.172188,0.1334458 -0.369109,0.1990171 -0.61425,0.1990171 h -0.402949 v 0.7125306 h 0.402949 c 0.338013,0 0.593073,0.083916 0.791154,0.2432431 0.208169,0.1707386 0.309583,0.3901238 0.309583,0.7076166 0,0.3195473 -0.110212,0.5485772 -0.351351,0.7371006 -0.22604,0.1772864 -0.497063,0.267813 -0.832924,0.2678133 -0.386993,0 -0.662349,-0.1101341 -0.865314,-0.3292672 -0.202964,-0.2191333 -0.300886,-0.5061692 -0.28702,-0.894316 l -0.157248,-0.00246 v -0.00245 l -0.628992,-0.00982 c -0.0371,0.5830313 0.127181,1.0749141 0.496314,1.4275181 0.366263,0.3498626 0.86032,0.5208844 1.449631,0.5208844 0.537679,0 1.001229,-0.1476593 1.366092,-0.4471744 0.392939,-0.3219912 0.597053,-0.7721147 0.597053,-1.3046679 0,-0.3734713 -0.105042,-0.7011882 -0.31941,-0.9606878 -0.153821,-0.1902507 -0.401401,-0.2659065 -0.638822,-0.3513513 0.179686,-0.086363 0.372875,-0.1569475 0.4914,-0.3169532 0.180966,-0.237515 0.272728,-0.524165 0.272728,-0.8427517 0,-0.4748677 -0.197158,-0.8765234 -0.54855,-1.1274425 -0.351391,-0.2509189 -0.761289,-0.3639577 -1.264379,-0.3639652 -0.50309,-7.4e-6 -0.953837,0.1805937 -1.282833,0.535619 z"/>
<path fill="#ffffff" d="m 5.8,3.2 l 2,5.5 h 0.8 l 2,-5.5 h -0.8 l -1.6,4.35 -1.6,-4.35 z"/>
</svg>