<?xml version="1.0" encoding="UTF-8"?>
<svg xmlns="http://www.w3.org/2000/svg" width="12" height="12" viewBox="0 0 12 12">
<path fill="#000000" d="M 0,0 H 12 V 12 H 0 Z"/>
<path fill="none" stroke-width="0.5" stroke="#ffffff" d="M 1,1 H 11 V 11 H 1 Z"/>
<path fill="#ffffff" d="m 2.4560255,3.7223547 c -0.308666,0.3637853 -0.452726,0.8512414 -0.442259,1.4373462 l 0.628993,-0.00245 v -0.00246 h 0.157248 c -0.0094,-0.3956781 0.07258,-0.6978107 0.233415,-0.9238327 0.182062,-0.2557541 0.427255,-0.3759213 0.793611,-0.3759213 0.300237,0 0.532252,0.078467 0.722359,0.2383291 0.202223,0.1721046 0.297297,0.3833805 0.297297,0.6756757 0,0.3284927 -0.122188,0.6111261 -0.388207,0.8771496 -0.162291,0.1622913 -0.506257,0.4243033 -1.017198,0.7665846 -0.485425,0.3236169 -0.831792,0.6000917 -1.044226,0.8452086 -0.326212,0.3796899 -0.500348,0.8288176 -0.511056,1.3267811 l -0.0025,0.162162 h 3.61425 v -0.7493855 h -2.624079 c 0.08561,-0.1970239 0.177444,-0.3957392 0.452089,-0.6117935 l 0.0074,-0.00491 0.0049,-0.00737 h 0.0025 c 0.0099,-0.00714 0.02663,-0.018119 0.04668,-0.031941 0.04011,-0.027645 0.09736,-0.066335 0.174446,-0.1179361 0.154181,-0.1032013 0.381108,-0.2549295 0.680591,-0.4520884 0.417967,-0.2752469 0.735696,-0.5398644 0.950858,-0.8034396 0.28941,-0.3537214 0.439804,-0.7567235 0.439804,-1.191646 0,-0.5045909 -0.178571,-0.9269518 -0.528255,-1.2211299 -0.326419,-0.2766267 -0.753485,-0.4127764 -1.298237,-0.4127773 -0.544752,-9e-7 -1.024475,0.1930958 -1.350454,0.5798515 z"/>
<path fill="#ffffff" d="m 5.8,3.2 l 2,5.5 h 0.8 l 2,-5.5 h -0.8 l -1.6,4.35 -1.6,-4.35 z"/>
</svg>