<?xml version="1.0" encoding="UTF-8"?>
<svg xmlns="http://www.w3.org/2000/svg" width="12" height="12" viewBox="0 0 12 12">
<path fill="#000000" d="M 0,0 H 12 V 12 H 0 Z"/>
<path fill="none" stroke-width="0.5" stroke="#ffffff" d="M 1,1 H 11 V 11 H 1 Z"/>
<path fill="#ffffff" d="m 2.4615421,3.2555244 -0.567567,3.0343973 h 0.68059 l 0.04668,-0.073711 c 0.239828,-0.3755809 0.564682,-0.5503684 1.036854,-0.5503684 0.354609,0 0.623811,0.1112699 0.848103,0.3434455 0.224292,0.2321755 0.333715,0.5076615 0.333715,0.8629424 0,0.3626994 -0.10592,0.6571527 -0.321868,0.9090906 -0.211983,0.2473146 -0.473074,0.3660932 -0.830466,0.3660934 -0.331053,0 -0.590307,-0.097877 -0.803519,-0.2958209 -0.213212,-0.1979435 -0.32015,-0.441271 -0.329159,-0.7656039 l -0.78624,0.00737 c 0.0107,0.523004 0.194521,0.9664089 0.548325,1.2862034 0.353805,0.3197946 0.80614,0.477924 1.331281,0.477924 0.543846,0 1.020874,-0.184458 1.398034,-0.5454545 0.382958,-0.3667763 0.579853,-0.8398481 0.579853,-1.3857491 0,-0.5657381 -0.172371,-1.0479264 -0.520885,-1.4127759 -0.349608,-0.371459 -0.827879,-0.5577395 -1.395577,-0.5577395 -0.375081,0 -0.648467,0.2057044 -0.918919,0.4078623 l 0.262899,-1.3587221 h 2.167076 v -0.7493855 z"/>
<path fill="#ffffff" d="m 5.8,3.2 l 2,5.5 h 0.8 l 2,-5.5 h -0.8 l -1.6,4.35 -1.6,-4.35 z"/>
</svg>