<?xml version="1.0" encoding="UTF-8"?>
<svg xmlns="http://www.w3.org/2000/svg" width="12" height="12" viewBox="0 0 12 12">
<path fill="#000000" d="M 0,0 H 12 V 12 H 0 Z"/>
<path fill="none" stroke-width="0.5" stroke="#ffffff" d="M 1,1 H 11 V 11 H 1 Z"/>
<path fill="#ffffff" d="m 3.5961017,3.1425023 c -0.5490144,0 -1.0228589,0.1869758 -1.3857491,0.5552825 -0.3628287,0.3628285 -0.5479114,0.8345326 -0.5479114,1.378378 0,0.5511558 0.1721616,1.0187407 0.5159704,1.3734641 v 0.00245 h 0.00245 c 0.3495094,0.3549705 0.816386,0.5331693 1.36855,0.5331693 0.3230905,0 0.6312584,-0.088573 0.9090907,-0.2628992 0.1165309,-0.073117 0.1700002,-0.1986323 0.2628992,-0.2923832 -0.036991,0.3602326 -0.059486,0.7442343 -0.1695331,0.9926288 -0.2267807,0.5028972 -0.5481346,0.7248156 -1.0393118,0.7248156 -0.2678304,0 -0.4693805,-0.074476 -0.6357772,-0.2260632 -0.1663966,-0.1515865 -0.2670144,-0.3478755 -0.3027977,-0.6117745 h -0.7837836 c 0.06081,0.4838335 0.2393685,0.9110952 0.5429975,1.1695328 0.303629,0.2584377 0.7191577,0.3783785 1.223587,0.3783785 0.7897968,0 1.3918602,-0.4088637 1.7248153,-1.164619 0.2049432,-0.4676909 0.3071253,-1.0050779 0.3071253,-1.6068792 0,-1.0238922 -0.1395609,-1.7659111 -0.4619164,-2.2383288 -0.3202603,-0.4693469 -0.8519142,-0.7051595 -1.5307123,-0.7051595 z m -0.046683,0.7125306 c 0.4025696,0 0.682037,0.1138892 0.8796066,0.3415233 0.1816066,0.2075504 0.2751842,0.4809853 0.2751842,0.8476656 0,0.3694022 -0.1023207,0.6528077 -0.3046682,0.8771497 -0.2109055,0.2372686 -0.4785911,0.3538082 -0.8427517,0.3538082 -0.3539368,0 -0.6074565,-0.1125116 -0.8083536,-0.3439802 -0.1997928,-0.2353115 -0.2997542,-0.5222878 -0.2997542,-0.8869777 0,-0.3417226 0.1025258,-0.6134069 0.3120392,-0.8452087 0.2130999,-0.2352976 0.4621715,-0.3439802 0.7886977,-0.3439802 z"/>
<path fill="#ffffff" d="m 5.8,3.2 l 2,5.5 h 0.8 l 2,-5.5 h -0.8 l -1.6,4.35 -1.6,-4.35 z"/>
</svg>