<?xml version="1.0" encoding="UTF-8"?>
<svg xmlns="http://www.w3.org/2000/svg" width="12" height="12" viewBox="0 0 12 12">
<path fill="#000000" d="M 0,0 H 12 V 12 H 0 Z"/>
<path fill="none" stroke-width="0.5" stroke="#ffffff" d="M 1,1 H 11 V 11 H 1 Z"/>
<path fill="#ffffff" d="m 3.7065871,3.1425023 c -0.4504124,0 -0.8486686,0.1142162 -1.1986025,0.3640951 -0.3499341,0.2498789 -0.5483254,0.6438656 -0.5483254,1.1051921 0,0.3245535 0.080116,0.6067902 0.2456999,0.8304666 0.1137856,0.1537109 0.3118181,0.2329737 0.4963143,0.3243242 -0.2305118,0.090775 -0.4674555,0.174225 -0.6240783,0.3710074 v 0.00245 h -0.00248 c -0.2112774,0.2724368 -0.31892,0.6049641 -0.3243248,0.9778868 -0.00539,0.5420744 0.1968338,0.9966333 0.5921378,1.3095821 0.3608116,0.2889894 0.825781,0.4299754 1.3710071,0.4299754 0.5461158,0 1.0099447,-0.1400314 1.3710069,-0.4299754 0.3899497,-0.3130581 0.5921374,-0.7658571 0.5921376,-1.307125 0,-0.3817814 -0.1062633,-0.7157896 -0.3194103,-0.9803439 -0.1544137,-0.1950489 -0.3990509,-0.2815597 -0.6363635,-0.3734642 0.1763159,-0.09308 0.3655871,-0.1721343 0.5087472,-0.3670799 0.1431601,-0.1949455 0.2283534,-0.4754464 0.2283534,-0.787707 0,-0.4613265 -0.1959363,-0.855314 -0.5460376,-1.1053104 -0.3501014,-0.2499966 -0.7506993,-0.3639768 -1.205805,-0.3639768 z m 0.00737,0.7125306 c 0.3042078,0 0.5326564,0.071752 0.7051596,0.2063881 0.1733297,0.1320609 0.253071,0.2986574 0.253071,0.5503685 0,0.2819591 -0.089576,0.4698758 -0.2825552,0.6167073 -0.1681761,0.1303366 -0.3868286,0.1990173 -0.6756754,0.1990173 -0.2842822,0 -0.5038522,-0.066581 -0.6900115,-0.2010844 -0.1861592,-0.1345029 -0.2780473,-0.3223452 -0.2780473,-0.6146402 0,-0.2423726 0.086598,-0.4104438 0.2825553,-0.5552825 0.1800139,-0.1328675 0.402067,-0.2014741 0.6855035,-0.2014741 z m 0,2.2850117 c 0.3480125,0 0.6189061,0.084641 0.8329236,0.2506143 0.2353176,0.1830248 0.3439803,0.4094543 0.3439804,0.7297295 0,0.3491608 -0.1085352,0.5887969 -0.3316954,0.7690415 -0.2073716,0.1684896 -0.4818637,0.2579853 -0.8452086,0.2579853 -0.3573295,0 -0.6317473,-0.091102 -0.8452087,-0.2653563 -0.2236346,-0.1806279 -0.3316952,-0.4179698 -0.3316952,-0.7616705 0,-0.3320346 0.1081275,-0.5603503 0.3366091,-0.7371006 0.2075241,-0.1599664 0.480923,-0.2432432 0.8402948,-0.2432432 z"/>
<path fill="#ffffff" d="m 5.8,3.2 l 2,5.5 h 0.8 l 2,-5.5 h -0.8 l -1.6,4.35 -1.6,-4.35 z"/>
</svg>