<?xml version="1.0" encoding="UTF-8"?>
<svg xmlns="http://www.w3.org/2000/svg" width="19.643" height="10.643" viewBox="-0.821 -0.821 19.643 10.643">
<path fill="#0055ff" d="M 0,6 a 2.121 2.121 0 0 1 0,-3 l 3,-3 a 2.121 2.121 0 0 1 3,0 l 1.5,1.5 a 2.121 2.121 0 0 0 3,0 l 1.5,-1.5 a 2.121 2.121 0 0 1 3,0 l 3,3 a 2.121 2.121 0 0 1 0,3 l -3,3 a 2.121 2.121 0 0 1 -3,0 l -1.5,-1.5 a 2.121 2.121 0 0 0 -3,0 l -1.5,1.5 a 2.121 2.121 0 0 1 -3,0 z"/>
<path fill="#ffffff" d="M 0,6 a 2.121 2.121 0 0 1 0,-3 h 18 a 2.121 2.121 0 0 1 0,3 z"/>
<path fill="none" stroke-width="0.4" stroke="#000000" d="M 0,6 a 2.121 2.121 0 0 1 0,-3 l 3,-3 a 2.121 2.121 0 0 1 3,0 l 1.5,1.5 a 2.121 2.121 0 0 0 3,0 l 1.5,-1.5 a 2.121 2.121 0 0 1 3,0 l 3,3 a 2.121 2.121 0 0 1 0,3 l -3,3 a 2.121 2.121 0 0 1 -3,0 l -1.5,-1.5 a 2.121 2.121 0 0 0 -3,0 l -1.5,1.5 a 2.121 2.121 0 0 1 -3,0 z"/>
</svg>