<?xml version="1.0" encoding="UTF-8"?>
<svg xmlns="http://www.w3.org/2000/svg" width="18" height="12" viewBox="0 0 18 12">
<path fill="#ffffff" d="M 0,0 H 18 V 12 H 0 Z"/>
<path fill="#000000" d="m 2.295,4.519 v 1.215 h 0.918 q 0.341,0 0.511,-0.190 0.170,-0.190 0.170,-0.445 0,-0.305 -0.203,-0.456 -0.170,-0.124 -0.443,-0.124 z m -0.608,3.467 v -4.006 h 1.567 q 0.514,0 0.814,0.264 0.168,0.146 0.283,0.366 0.118,0.220 0.118,0.489 0,0.388 -0.209,0.687 -0.206,0.297 -0.569,0.421 l 0.929,1.779 h -0.720 l -0.828,-1.710 h -0.778 v 1.710 z"/>
<path fill="#000000" d="m 4.766,7.987 v -0.57 h 0.57 v 0.57 z"/>
<path fill="#000000" d="m 6.492,7.987 v -2.414 h -0.289 v -0.440 h 0.289 v -0.377 q 0,-0.399 0.220,-0.586 0.220,-0.190 0.555,-0.190 h 0.371 v 0.539 h -0.324 q -0.250,0 -0.250,0.236 v 0.377 h 0.575 v 0.440 h -0.575 v 2.414 z"/>
<path fill="#000000" d="m 7.660,7.987 v -0.57 h 0.57 v 0.57 z"/>
<path fill="#000000" d="m 9.295,7.296 v -3.316 h 0.575 v 3.269 q 0,0.198 0.214,0.198 h 0.195 v 0.539 h -0.253 q -0.313,0 -0.522,-0.151 -0.209,-0.154 -0.209,-0.539 z"/>
<path fill="#000000" d="m 10.633,7.030 v -1.897 h 0.575 v 1.702 q 0,0.291 0.159,0.454 0.162,0.159 0.410,0.159 0.239,0 0.399,-0.159 0.162,-0.162 0.162,-0.454 v -1.702 h 0.575 v 2.854 h -0.575 v -0.302 h -0.011 q -0.267,0.335 -0.737,0.335 -0.338,0 -0.649,-0.250 -0.308,-0.253 -0.308,-0.740 z"/>
<path fill="#000000" d="m 14.198,6.529 l -0.935,-1.397 h 0.687 l 0.569,0.924 l 0.569,-0.924 h 0.687 l -0.935,1.397 l 0.973,1.457 h -0.687 l -0.608,-0.949 l -0.608,0.949 h -0.687 z"/>
<path fill="#000000" d="m 15.938,7.987 v -0.57 h 0.57 v 0.57 z"/>
<path stroke-width="1" stroke="#ff0000" d="M 18,0.5 L 0,11.5"/>
<path fill="none" stroke-width="1" stroke="#000000" d="M 0.5,0.5 H 17.5 V 11.5 H 0.5 Z"/>
</svg>