<?xml version="1.0" encoding="UTF-8"?>
<svg xmlns="http://www.w3.org/2000/svg" width="12" height="16" viewBox="0 0 12 16">
<path fill="#ffffff" d="M 0,0 H 12 V 16 H 0 Z"/>
<path fill="#000000" d="m 3.0,3.580 v 1.215 h 0.918 q 0.341,0 0.511,-0.190 0.170,-0.190 0.170,-0.445 0,-0.305 -0.203,-0.456 -0.170,-0.124 -0.443,-0.124 z m -0.608,3.467 v -4.006 h 1.567 q 0.514,0 0.814,0.264 0.168,0.146 0.283,0.366 0.118,0.220 0.118,0.489 0,0.388 -0.209,0.687 -0.206,0.297 -0.569,0.421 l 0.929,1.779 h -0.720 l -0.828,-1.710 h -0.778 v 1.710 z"/>
<path fill="#000000" d="m 5.7,7.047 v -0.572 h 0.575 v 0.572 z"/>
<path fill="#000000" d="m 7.5,7.047 v -2.414 h -0.289 v -0.440 h 0.289 v -0.377 q 0,-0.399 0.220,-0.586 0.220,-0.190 0.555,-0.190 h 0.371 v 0.539 h -0.324 q -0.250,0 -0.250,0.236 v 0.377 h 0.575 v 0.440 h -0.575 v 2.414 z"/>
<path fill="#000000" d="m 9.0,7.047 v -0.572 h 0.575 v 0.572 z"/>
<path fill="#000000" d="m 2.185,12.926 v -2.854 h 0.575 v 0.305 h 0.011 q 0.267,-0.338 0.742,-0.338 0.333,0 0.641,0.253 0.311,0.253 0.311,0.737 v 1.897 h -0.575 v -1.699 q 0,-0.289 -0.162,-0.451 -0.159,-0.162 -0.399,-0.162 -0.247,0 -0.410,0.162 -0.159,0.162 -0.159,0.451 v 1.699 z"/>
<path fill="#000000" d="m 6.719,12.937 v -0.253 h -0.011 q -0.080,0.148 -0.239,0.214 -0.170,0.071 -0.445,0.071 -0.473,-0.011 -0.715,-0.253 -0.264,-0.242 -0.264,-0.619 0,-0.357 0.228,-0.599 0.228,-0.242 0.674,-0.247 h 0.773 v -0.302 q 0.003,-0.379 -0.569,-0.368 -0.198,0 -0.330,0.044 -0.129,0.058 -0.195,0.179 l -0.440,-0.346 q 0.319,-0.426 0.938,-0.415 0.520,-0.005 0.836,0.203 0.311,0.217 0.316,0.737 v 1.955 z m 0,-1.004 v -0.209 h -0.668 q -0.489,0.014 -0.484,0.346 0,0.143 0.126,0.247 0.121,0.113 0.399,0.113 0.352,0.005 0.495,-0.085 0.132,-0.091 0.132,-0.412 z"/>
<path fill="#000000" d="m 7.945,10.072 v -0.866 h 0.575 v 0.866 h 0.418 v 0.440 h -0.418 v 1.661 q 0,0.214 0.203,0.214 h 0.214 v 0.539 h -0.300 q -0.300,0 -0.498,-0.181 -0.195,-0.181 -0.195,-0.520 v -1.713 h -0.286 v -0.440 z"/>
<path fill="#000000" d="m 9.493,12.926 v -0.572 h 0.575 v 0.572 z"/>
<path stroke-width="1.5" stroke="#ff0000" d="M 11.5,0 L 0.5,16"/>
<path fill="none" stroke-width="1" stroke="#000000" d="M 0.5,0.5 H 11.5 V 15.5 H 0.5 Z"/>
</svg>