<?xml version="1.0" encoding="UTF-8"?>
<svg xmlns="http://www.w3.org/2000/svg" width="22" height="19.321" viewBox="0 0 22 19.321">
<path fill="#ffe300" d="m 0.134,1.5 a 1 1 0 0 1 0.866,-1.5 h 20 a 1 1 0 0 1 0.866,1.5 l -10,17.321 a 1 1 0 0 1 -1.732,0 z"/>
<path fill="#000000" d="m 8.1892971,11.914435 h 1.409011 v -9.82887 h -1.409011 l -1.409016,1.0325167 v 1.494577 l 1.409016,-1.038219 z"/>
<path fill="#000000" d="m 10.900741,11.914435 h 4.198518 v -1.409012 h -2.538504 l 2.070735,-3.987457 c 0.439248,-0.844269 0.467769,-1.08956 0.467769,-2.0422143 0,-1.312031 -0.62179,-2.4757517 -2.082144,-2.4757517 -1.175129,0 -2.116374,0.9697597 -2.116374,2.1448957 v 0.7701083 h 1.409015 v -0.7986403 c 0,-0.456358 0.279519,-0.707352 0.690244,-0.707352 0.690247,0 0.690247,0.593265 0.690247,1.08956 0,0.5419243 0,0.8157473 -0.245295,1.3006273 l -2.544211,4.791789 z"/>
</svg>