<?xml version="1.0" encoding="UTF-8"?>
<svg xmlns="http://www.w3.org/2000/svg" width="22" height="19.321" viewBox="0 0 22 19.321">
<path fill="#ffe300" d="m 0.134,1.5 a 1 1 0 0 1 0.866,-1.5 h 20 a 1 1 0 0 1 0.866,1.5 l -10,17.321 a 1 1 0 0 1 -1.732,0 z"/>
<path fill="#000000" d="m 11.690243,5.536791 c 0,0.38791 -0.33086,0.690245 -0.690244,0.690245 -0.359384,0 -0.690245,-0.302335 -0.690245,-0.690245 v -1.4375343 c 0,-0.382208 0.330861,-0.690245 0.690245,-0.690245 0.359384,0 0.690244,0.308037 0.690244,0.690245 z m -2.789502,-0.8841953 c 0,1.1580183 0.02852,1.5630353 0.707359,2.0992573 -0.678838,0.507699 -0.707359,0.924131 -0.707359,2.413006 0,1.203647 0.09698,1.534514 0.387905,1.962351 0.319454,0.48488 0.895607,0.87279 1.711353,0.87279 0.815745,0 1.397605,-0.38791 1.711352,-0.87279 0.29093,-0.427837 0.387908,-0.758704 0.387908,-1.962351 0,-1.488875 -0.02852,-1.905307 -0.701655,-2.413006 0.673131,-0.536222 0.701655,-0.941239 0.701655,-2.0992573 0,-1.078156 -0.136908,-1.420427 -0.513406,-1.88819 -0.370794,-0.4848907 -0.952654,-0.7644057 -1.585854,-0.7644057 -0.633201,0 -1.215061,0.279515 -1.585855,0.7644057 -0.376497,0.467763 -0.513403,0.810034 -0.513403,1.88819 z m 2.789502,5.2481473 c 0,0.382198 -0.33086,0.690245 -0.690244,0.690245 -0.359384,0 -0.690245,-0.308047 -0.690245,-0.690245 v -1.933829 c 0,-0.38791 0.330861,-0.690244 0.690245,-0.690244 0.359384,0 0.690244,0.302334 0.690244,0.690244 z"/>
</svg>