<?xml version="1.0" encoding="UTF-8"?>
<svg xmlns="http://www.w3.org/2000/svg" width="12" height="16" viewBox="0 0 12 16">
<path fill="#000000" d="M 0,0 H 12 V 16 H 0 Z"/>
<path fill="#ffffff" d="m 2.56,13.769554 h 1.654182 v -11.5391076 h -1.654182 l -1.654186,1.2121758 v 1.7546358 l 1.654186,-1.2188703 z"/>
<path fill="#ffffff" d="m 5.9023872,11.385381 c 0,1.54034 1.151901,2.484626 2.464535,2.484626 1.3126275,0 2.4645308,-0.944286 2.4645308,-2.484626 v -6.7707743 c 0,-1.540327 -1.1519043,-2.4846141 -2.4645308,-2.4846141 -1.312634,0 -2.464535,0.9442871 -2.464535,2.4846141 z m 1.654183,-6.7707743 c 0,-0.4687961 0.341553,-0.8304322 0.810352,-0.8304322 0.468793,0 0.8103445,0.3616361 0.8103445,0.8304322 v 6.7707743 c 0,0.468796 -0.3415515,0.830444 -0.8103445,0.830444 -0.468799,0 -0.810352,-0.361648 -0.810352,-0.830444 z"/>
</svg>