<?xml version="1.0" encoding="UTF-8"?>
<svg xmlns="http://www.w3.org/2000/svg" width="12" height="16" viewBox="0 0 12 16">
<path fill="#000000" d="M 0,0 H 12 V 16 H 0 Z"/>
<path fill="#ffffff" d="m 2.56,13.769554 h 1.654182 v -11.5391076 h -1.654182 l -1.654186,1.2121758 v 1.7546358 l 1.654186,-1.2188703 z"/>
<path fill="#ffffff" d="m 10.2617945,2.2304464 h -1.841701 l -2.176561,5.799685 c -0.227701,0.6161357 -0.308066,0.9442991 -0.308066,2.3707716 0,1.506854 0.06697,1.828311 0.388431,2.350688 0.442009,0.696506 1.18539,1.118416 2.076102,1.118416 0.910804,0 1.667581,-0.408521 2.089495,-1.118416 0.308066,-0.522377 0.375039,-0.843834 0.375039,-2.350688 0,-1.8350063 -0.06697,-2.2368211 -0.354944,-2.6922283 -0.274586,-0.4219229 -0.810351,-0.7433796 -1.392996,-0.7433796 -0.361647,0 -0.589347,0.060262 -0.6965,0.1406327 l -0.03347,-0.026729 z m -1.051444,9.1549346 c 0,0.502281 -0.388431,0.830444 -0.810351,0.830444 -0.421914,0 -0.810345,-0.328163 -0.810345,-0.830444 v -2.1363792 c 0,-0.5022811 0.388431,-0.8304322 0.810345,-0.8304322 0.42192,0 0.810351,0.3281511 0.810351,0.8304322 z"/>
</svg>