<?xml version="1.0" encoding="UTF-8"?>
<svg xmlns="http://www.w3.org/2000/svg" width="12" height="16" viewBox="0 0 12 16">
<path fill="#000000" d="M 0,0 H 12 V 16 H 0 Z"/>
<path fill="#ffffff" d="m 4.138206,13.769554 h 1.848401 l 2.16986,-5.7996972 c 0.227701,-0.6161238 0.308066,-0.9442871 0.308066,-2.3707717 0,-1.5068427 -0.06697,-1.8283116 -0.388431,-2.3506881 -0.435312,-0.6964938 -1.185387,-1.1184044 -2.0761,-1.1184044 -0.904112,0 -1.667579,0.4085216 -2.089499,1.1184044 -0.308066,0.5223765 -0.375036,0.8438454 -0.375036,2.3506881 0,1.8350061 0.06697,2.2368331 0.361644,2.6922407 0.274579,0.4219106 0.810348,0.7433795 1.392996,0.7433795 0.354947,0 0.582648,-0.060263 0.6965,-0.1406449 l 0.03348,0.02673 z m 1.051444,-9.1549473 c 0,-0.5022807 0.388431,-0.8304322 0.810352,-0.8304322 0.421917,0 0.810348,0.3281515 0.810348,0.8304322 v 2.1363798 c 0,0.5022807 -0.388431,0.8304443 -0.810348,0.8304443 -0.421921,0 -0.810352,-0.3281636 -0.810352,-0.8304443 z"/>
</svg>