<?xml version="1.0" encoding="UTF-8"?>
<svg xmlns="http://www.w3.org/2000/svg" width="12" height="16" viewBox="0 0 12 16">
<path fill="#000000" d="M 0,0 H 12 V 16 H 0 Z"/>
<path fill="#ffffff" d="m 2.56,13.769554 h 1.654182 v -11.5391076 h -1.654182 l -1.654186,1.2121758 v 1.7546358 l 1.654186,-1.2188703 z"/>
<path fill="#ffffff" d="m 10.864533,2.2304464 h -4.734853 v 6.2216075 h 1.459969 c 0.100454,-0.1942128 0.274583,-0.6295245 0.843835,-0.6295245 0.455402,0 0.776864,0.3750371 0.776864,0.8237377 v 2.7056299 c 0,0.535765 -0.287974,0.863928 -0.776864,0.863928 -0.488888,0 -0.843835,-0.328163 -0.843835,-0.890719 v -0.42191 h -1.654182 v 0.482185 c 0,1.54034 1.151901,2.484626 2.464533,2.484626 1.312632,0 2.464533,-0.944286 2.464533,-2.484626 v -2.9802124 c 0,-1.3260188 -0.776864,-2.0426081 -1.895282,-2.0426081 -0.582645,0 -1.071535,0.2410985 -1.379602,0.5357653 v -3.1141513 h 3.274884 z"/>
</svg>