<?xml version="1.0" encoding="UTF-8"?>
<svg xmlns="http://www.w3.org/2000/svg" width="12" height="16" viewBox="0 0 12 16">
<path fill="#000000" d="M 0,0 H 12 V 16 H 0 Z"/>
<path fill="#ffffff" d="m 6.810347,6.2821901 c 0,0.4554072 -0.388431,0.8103486 -0.810348,0.8103486 -0.421918,0 -0.810348,-0.3549414 -0.810348,-0.8103486 v -1.6876667 c 0,-0.4487128 0.38843,-0.8103489 0.810348,-0.8103489 0.421917,0 0.810348,0.3616361 0.810348,0.8103489 z m -3.27488,-1.0380463 c 0,1.3595152 0.03348,1.835006 0.83044,2.4645309 -0.796956,0.5960399 -0.83044,1.0849318 -0.83044,2.8328733 0,1.413083 0.113852,1.801521 0.455401,2.303802 0.375039,0.56925 1.051444,1.024657 2.009131,1.024657 0.957686,0 1.640791,-0.455407 2.00913,-1.024657 0.341552,-0.502281 0.455404,-0.890719 0.455404,-2.303802 0,-1.7479415 -0.03349,-2.2368334 -0.823743,-2.8328733 0.790257,-0.6295249 0.823743,-1.1050157 0.823743,-2.4645309 0,-1.2657561 -0.16073,-1.6675833 -0.602739,-2.2167377 -0.435313,-0.5692622 -1.118417,-0.8974135 -1.861795,-0.8974135 -0.743379,0 -1.426483,0.3281513 -1.861796,0.8974135 -0.442008,0.5491544 -0.602736,0.9509816 -0.602736,2.2167377 z m 3.27488,6.1613332 c 0,0.4487 -0.388431,0.810348 -0.810348,0.810348 -0.421918,0 -0.810348,-0.361648 -0.810348,-0.810348 v -2.270318 c 0,-0.4554072 0.38843,-0.8103486 0.810348,-0.8103486 0.421917,0 0.810348,0.3549414 0.810348,0.8103486 z"/>
</svg>