<?xml version="1.0" encoding="UTF-8"?>
<svg xmlns="http://www.w3.org/2000/svg" width="12" height="16" viewBox="0 0 12 16">
<path fill="#000000" d="M 0,0 H 12 V 16 H 0 Z"/>
<path fill="#ffffff" d="m 5.4977195,8.5525079 c 1.071537,0 1.312632,0.1942128 1.312632,1.0849321 v 1.654182 c 0,0.562555 -0.308067,0.924203 -0.810351,0.924203 -0.502281,0 -0.810348,-0.375037 -0.810348,-0.890719 v -0.863916 h -1.654186 v 0.944287 c 0,1.81491 1.392997,2.46453 2.45114,2.46453 1.004565,0 1.634093,-0.455407 2.042618,-1.058141 0.334855,-0.502281 0.435309,-0.843834 0.435309,-2.364077 0,-1.6407934 0,-2.0091239 -1.024654,-2.6453551 0.944289,-0.5625556 1.024654,-0.8237377 1.024654,-2.4109627 0,-1.4733581 -0.194213,-1.9287655 -0.629527,-2.4511299 -0.294673,-0.3549535 -0.910806,-0.8103487 -1.801519,-0.8103487 -1.359513,0 -2.498021,1.0916265 -2.498021,2.4511419 v 0.957676 h 1.654186 v -0.9442871 c 0,-0.3415525 0.227702,-0.8103489 0.810348,-0.8103489 0.502284,0 0.810351,0.3415525 0.810351,0.8103489 v 1.4934536 c 0,0.8572223 -0.321461,1.0045617 -1.312632,1.0045617 z"/>
</svg>