<?xml version="1.0" encoding="UTF-8"?>
<svg xmlns="http://www.w3.org/2000/svg" width="22" height="19.321" viewBox="0 0 22 19.321">
<path fill="#11aa55" d="m 0.134,17.821 a 1 1 0 0 0 0.866,1.5 h 20 a 1 1 0 0 0 0.866,-1.5 l -10,-17.321 a 1 1 0 0 0 -1.732,0 z"/>
<path fill="#ffffff" d="m 8.1892971,17.214435 h 1.409011 v -9.82887 h -1.409011 l -1.409016,1.0325167 v 1.494577 l 1.409016,-1.038219 z"/>
<path fill="#ffffff" d="m 10.911377,15.183626 c 0,1.312042 0.981175,2.116374 2.09926,2.116374 1.118083,0 2.099261,-0.804332 2.099261,-2.116374 v -5.7672623 c 0,-1.312032 -0.981178,-2.1163637 -2.099261,-2.1163637 -1.118085,0 -2.09926,0.8043317 -2.09926,2.1163637 z m 1.409013,-5.7672623 c 0,-0.399315 0.29093,-0.707352 0.690247,-0.707352 0.399315,0 0.690245,0.308037 0.690245,0.707352 v 5.7672623 c 0,0.399315 -0.29093,0.707362 -0.690245,0.707362 -0.399317,0 -0.690247,-0.308047 -0.690247,-0.707362 z"/>
</svg>