<?xml version="1.0" encoding="UTF-8"?>
<svg xmlns="http://www.w3.org/2000/svg" width="22" height="19.321" viewBox="0 0 22 19.321">
<path fill="#11aa55" d="m 0.134,17.821 a 1 1 0 0 0 0.866,1.5 h 20 a 1 1 0 0 0 0.866,-1.5 l -10,-17.321 a 1 1 0 0 0 -1.732,0 z"/>
<path fill="#ffffff" d="m 8.1892971,17.214435 h 1.409011 v -9.82887 h -1.409011 l -1.409016,1.0325167 v 1.494577 l 1.409016,-1.038219 z"/>
<path fill="#ffffff" d="m 14.585854,7.385565 h -1.568738 l -1.8539685,4.940101 c -0.193953,0.524816 -0.262407,0.804342 -0.262407,2.019393 0,1.283521 0.05704,1.557334 0.330861,2.002288 0.376498,0.593275 1.0097005,0.952653 1.7683985,0.952653 0.775812,0 1.420425,-0.347974 1.779806,-0.952653 0.262407,-0.444954 0.319454,-0.718767 0.319454,-2.002288 0,-1.563035 -0.05704,-1.905296 -0.302337,-2.293206 -0.233889,-0.359389 -0.690248,-0.633202 -1.186537,-0.633202 -0.308046,0 -0.501999,0.05133 -0.59327,0.119789 l -0.02851,-0.02277 z m -0.895607,7.798061 c 0,0.427837 -0.33086,0.707362 -0.690247,0.707362 -0.359382,0 -0.690242,-0.279525 -0.690242,-0.707362 v -1.819742 c 0,-0.427836 0.33086,-0.707352 0.690242,-0.707352 0.359387,0 0.690247,0.279516 0.690247,0.707352 z"/>
</svg>