<?xml version="1.0" encoding="UTF-8"?>
<svg xmlns="http://www.w3.org/2000/svg" width="22" height="19.321" viewBox="0 0 22 19.321">
<path fill="#11aa55" d="m 0.134,17.821 a 1 1 0 0 0 0.866,1.5 h 20 a 1 1 0 0 0 0.866,-1.5 l -10,-17.321 a 1 1 0 0 0 -1.732,0 z"/>
<path fill="#ffffff" d="m 8.1892971,17.214435 h 1.409011 v -9.82887 h -1.409011 l -1.409016,1.0325167 v 1.494577 l 1.409016,-1.038219 z"/>
<path fill="#ffffff" d="m 12.572163,12.770619 c 0.912722,0 1.118084,0.165429 1.118084,0.924132 v 1.409012 c 0,0.479178 -0.262407,0.787225 -0.690247,0.787225 -0.427836,0 -0.690244,-0.319452 -0.690244,-0.758703 v -0.735874 h -1.4090155 v 0.804332 c 0,1.545918 1.1865375,2.099257 2.0878505,2.099257 0.855677,0 1.3919,-0.38791 1.739877,-0.901312 0.285225,-0.427837 0.370791,-0.718767 0.370791,-2.013692 0,-1.397607 0,-1.711346 -0.872788,-2.25328 0.804333,-0.479178 0.872788,-0.70165 0.872788,-2.053629 0,-1.2549883 -0.165429,-1.6428983 -0.536224,-2.0878423 -0.250998,-0.3023447 -0.775813,-0.6902447 -1.534511,-0.6902447 -1.1580165,0 -2.1277835,0.9298337 -2.1277835,2.0878517 v 0.8157373 h 1.4090155 v -0.8043323 c 0,-0.29093 0.193953,-0.690245 0.690244,-0.690245 0.427841,0 0.690247,0.29093 0.690247,0.690245 v 1.2721053 c 0,0.730172 -0.273815,0.855674 -1.118084,0.855674 z"/>
</svg>