<?xml version="1.0" encoding="UTF-8"?>
<svg xmlns="http://www.w3.org/2000/svg" width="22" height="19.321" viewBox="0 0 22 19.321">
<path fill="#11aa55" d="m 0.134,17.821 a 1 1 0 0 0 0.866,1.5 h 20 a 1 1 0 0 0 0.866,-1.5 l -10,-17.321 a 1 1 0 0 0 -1.732,0 z"/>
<path fill="#ffffff" d="m 9.4141475,17.214435 h 1.5744455 l 1.84826,-4.940111 c 0.193952,-0.524806 0.262406,-0.804332 0.262406,-2.019394 0,-1.2835103 -0.05704,-1.5573333 -0.33086,-2.0022873 -0.370794,-0.5932647 -1.009698,-0.9526427 -1.768396,-0.9526427 -0.770112,0 -1.4204235,0.347974 -1.7798105,0.9526427 -0.262406,0.444954 -0.319451,0.718777 -0.319451,2.0022873 0,1.563036 0.05704,1.905307 0.308044,2.293218 0.233883,0.359378 0.690245,0.633201 1.1865375,0.633201 0.30234,0 0.496292,-0.05133 0.59327,-0.119799 l 0.02852,0.02277 z m 0.8956075,-7.7980713 c 0,-0.427837 0.330861,-0.707352 0.690248,-0.707352 0.359383,0 0.690244,0.279515 0.690244,0.707352 v 1.8197423 c 0,0.427836 -0.330861,0.707362 -0.690244,0.707362 -0.359387,0 -0.690248,-0.279526 -0.690248,-0.707362 z"/>
</svg>