<?xml version="1.0" encoding="UTF-8"?>
<svg xmlns="http://www.w3.org/2000/svg" width="22" height="19.321" viewBox="0 0 22 19.321">
<path fill="#11aa55" d="m 0.134,17.821 a 1 1 0 0 0 0.866,1.5 h 20 a 1 1 0 0 0 0.866,-1.5 l -10,-17.321 a 1 1 0 0 0 -1.732,0 z"/>
<path fill="#ffffff" d="m 8.1892971,17.214435 h 1.409011 v -9.82887 h -1.409011 l -1.409016,1.0325167 v 1.494577 l 1.409016,-1.038219 z"/>
<path fill="#ffffff" d="m 15.099259,7.385565 h -4.03309 v 5.299489 h 1.243584 c 0.08557,-0.165428 0.233887,-0.536221 0.718768,-0.536221 0.387906,0 0.661723,0.319452 0.661723,0.701649 v 2.304622 c 0,0.456359 -0.245292,0.735884 -0.661723,0.735884 -0.416428,0 -0.718768,-0.279525 -0.718768,-0.758703 v -0.359379 h -1.409012 v 0.41072 c 0,1.312042 0.981175,2.116374 2.099259,2.116374 1.118084,0 2.099259,-0.804332 2.099259,-2.116374 v -2.538508 c 0,-1.129487 -0.661723,-1.739869 -1.614377,-1.739869 -0.49629,0 -0.912721,0.205365 -1.175129,0.456359 v -2.6525963 h 2.789506 z"/>
</svg>