<?xml version="1.0" encoding="UTF-8"?>
<svg xmlns="http://www.w3.org/2000/svg" xmlns:xlink="http://www.w3.org/1999/xlink" width="11" height="30" viewBox="0 0 11 30">
<defs>
<clipPath id="clip-0">
<path clip-rule="nonzero" d="M 0.800781 0.800781 L 10.199219 0.800781 L 10.199219 29.199219 L 0.800781 29.199219 Z M 0.800781 0.800781 "/>
</clipPath>
</defs>
<rect x="-1.1" y="-3" width="13.2" height="36" fill="rgb(0%, 0%, 0%)" fill-opacity="1"/>
<path fill-rule="nonzero" fill="rgb(95.686275%, 85.490196%, 43.529412%)" fill-opacity="1" d="M 0.800781 0.800781 L 10.199219 0.800781 L 10.199219 29.199219 L 0.800781 29.199219 Z M 0.800781 0.800781 "/>
<path fill-rule="nonzero" fill="rgb(0%, 0%, 0%)" fill-opacity="1" d="M 1.808594 14.203125 L 1.808594 4.898438 L 3.636719 4.898438 L 7.445312 11.113281 L 7.445312 4.898438 L 9.191406 4.898438 L 9.191406 14.203125 L 7.304688 14.203125 L 3.554688 8.136719 L 3.554688 14.203125 Z M 1.808594 14.203125 "/>
<path fill-rule="nonzero" fill="rgb(0%, 0%, 0%)" fill-opacity="1" d="M 1.71875 21.910156 L 3.546875 21.730469 C 3.65625 22.34375 3.878906 22.796875 4.214844 23.082031 C 4.550781 23.371094 5.003906 23.515625 5.578125 23.515625 C 6.179688 23.515625 6.636719 23.386719 6.945312 23.132812 C 7.25 22.875 7.40625 22.574219 7.40625 22.234375 C 7.40625 22.011719 7.339844 21.824219 7.210938 21.671875 C 7.082031 21.515625 6.855469 21.382812 6.535156 21.269531 C 6.316406 21.191406 5.8125 21.058594 5.03125 20.863281 C 4.023438 20.613281 3.316406 20.304688 2.910156 19.941406 C 2.339844 19.429688 2.054688 18.804688 2.054688 18.070312 C 2.054688 17.59375 2.1875 17.152344 2.457031 16.738281 C 2.726562 16.328125 3.113281 16.011719 3.617188 15.796875 C 4.125 15.582031 4.734375 15.472656 5.449219 15.472656 C 6.617188 15.472656 7.496094 15.730469 8.085938 16.242188 C 8.675781 16.753906 8.988281 17.4375 9.015625 18.292969 L 7.136719 18.375 C 7.058594 17.894531 6.886719 17.550781 6.621094 17.34375 C 6.355469 17.132812 5.960938 17.027344 5.429688 17.027344 C 4.882812 17.027344 4.457031 17.140625 4.148438 17.363281 C 3.949219 17.507812 3.851562 17.699219 3.851562 17.941406 C 3.851562 18.164062 3.941406 18.351562 4.128906 18.507812 C 4.367188 18.707031 4.941406 18.914062 5.855469 19.128906 C 6.769531 19.34375 7.445312 19.566406 7.882812 19.796875 C 8.320312 20.03125 8.664062 20.34375 8.910156 20.746094 C 9.160156 21.144531 9.28125 21.636719 9.28125 22.226562 C 9.28125 22.761719 9.136719 23.257812 8.839844 23.726562 C 8.542969 24.191406 8.125 24.535156 7.582031 24.761719 C 7.039062 24.988281 6.367188 25.101562 5.558594 25.101562 C 4.378906 25.101562 3.476562 24.832031 2.847656 24.285156 C 2.214844 23.742188 1.839844 22.949219 1.71875 21.910156 Z M 1.71875 21.910156 "/>
<g clip-path="url(#clip-0)">
<path fill-rule="nonzero" fill="rgb(0%, 0%, 0%)" fill-opacity="1" stroke-width="1.6" stroke-linecap="butt" stroke-linejoin="miter" stroke="rgb(85.098039%, 15.686275%, 23.137255%)" stroke-opacity="1" stroke-miterlimit="4" d="M 10.199219 0.800781 L 0.800781 29.199219 "/>
</g>
</svg>
