<?xml version="1.0" encoding="UTF-8"?>
<svg width="8" height="22.406" version="1.1" viewBox="0 0 8 22.406" xmlns="http://www.w3.org/2000/svg">
 <path d="m0.09375 0.09375h7.8164v22.219h-7.8164z" fill="#ffcb00" stroke="#000" stroke-width=".15362"/>
 <path d="m6.3632 10.115h-1.4336l-2.3221-4.032h-0.029867q0.014933 0.3808 0.029867 0.7616 0.0224 0.3808 0.037333 0.7616v2.5088h-1.008v-5.3312h1.4261l2.3147 3.9947h0.0224q-0.0074666-0.37333-0.0224-0.7392-0.014933-0.36587-0.029867-0.73173v-2.5237h1.0155z"/>
 <path d="m5.736 16.07q0 0.70933-0.5152 1.1349-0.50773 0.41813-1.4485 0.41813-0.84373 0-1.5083-0.32107v-1.0528q0.3808 0.16427 0.784 0.30613 0.41067 0.1344 0.81387 0.1344 0.41813 0 0.58987-0.1568 0.1792-0.16427 0.1792-0.41067 0-0.2016-0.14187-0.34347-0.1344-0.14187-0.36587-0.26133-0.23147-0.12693-0.53013-0.2688-0.18667-0.0896-0.4032-0.20907-0.21653-0.12693-0.41813-0.30613-0.19413-0.18667-0.32107-0.448-0.12693-0.26133-0.12693-0.6272 0-0.7168 0.48533-1.1125 0.48533-0.4032 1.3216-0.4032 0.41813 0 0.79147 0.09707 0.3808 0.09707 0.79147 0.27627l-0.36587 0.88106q-0.36587-0.14933-0.65707-0.23147-0.2912-0.08213-0.59733-0.08213-0.32107 0-0.4928 0.14933t-0.17173 0.38827q0 0.28373 0.25387 0.448t0.75413 0.4032q0.41067 0.19413 0.6944 0.4032 0.2912 0.20907 0.448 0.4928t0.1568 0.70187z"/>
 <path d="m6.998 0.017578-6.9805 20.621v1.7246l0.076172 0.025391h0.81055l7.082-20.924v-1.4082l-0.11523-0.039062h-0.87305z" fill="#e00000"/>
</svg>
