<?xml version="1.0" encoding="UTF-8"?>
<svg xmlns="http://www.w3.org/2000/svg" xmlns:xlink="http://www.w3.org/1999/xlink" width="11" height="24" viewBox="0 0 11 24">
<rect x="-1.1" y="-2.4" width="13.2" height="28.8" fill="rgb(0%, 0%, 0%)" fill-opacity="1"/>
<path fill-rule="nonzero" fill="rgb(95.686275%, 85.490196%, 43.529412%)" fill-opacity="1" d="M 0.800781 0.800781 L 10.199219 0.800781 L 10.199219 23.199219 L 0.800781 23.199219 Z M 0.800781 0.800781 "/>
<path fill-rule="nonzero" fill="rgb(0%, 0%, 0%)" fill-opacity="1" d="M 6.253906 14.300781 L 4.636719 14.300781 C 4.632812 14.066406 4.628906 13.925781 4.628906 13.875 C 4.628906 13.351562 4.71875 12.917969 4.890625 12.582031 C 5.0625 12.242188 5.410156 11.863281 5.929688 11.4375 C 6.453125 11.015625 6.761719 10.738281 6.863281 10.605469 C 7.019531 10.398438 7.101562 10.171875 7.101562 9.921875 C 7.101562 9.574219 6.960938 9.277344 6.683594 9.03125 C 6.40625 8.78125 6.03125 8.65625 5.5625 8.65625 C 5.109375 8.65625 4.730469 8.785156 4.425781 9.046875 C 4.121094 9.304688 3.914062 9.695312 3.796875 10.226562 L 2.160156 10.023438 C 2.207031 9.265625 2.53125 8.621094 3.128906 8.09375 C 3.726562 7.5625 4.515625 7.300781 5.488281 7.300781 C 6.511719 7.300781 7.324219 7.566406 7.929688 8.101562 C 8.535156 8.636719 8.839844 9.261719 8.839844 9.972656 C 8.839844 10.367188 8.726562 10.738281 8.503906 11.089844 C 8.285156 11.441406 7.808594 11.917969 7.082031 12.523438 C 6.703125 12.835938 6.46875 13.089844 6.378906 13.277344 C 6.289062 13.46875 6.246094 13.808594 6.253906 14.300781 Z M 4.636719 16.699219 L 4.636719 14.917969 L 6.421875 14.917969 L 6.421875 16.699219 Z M 4.636719 16.699219 "/>
</svg>
