<?xml version="1.0" encoding="UTF-8"?>
<svg width="8.0271" height="21.043" version="1.1" viewBox="0 0 8.0271 21.043" xmlns="http://www.w3.org/2000/svg">
 <path d="m0.11903 0.10348h7.7891l0.015468 20.837h-7.82z" fill="#ffcb00" stroke="#000" stroke-width=".20696"/>
 <path d="m1.2597 4.3303v-1.1055c0.50781-0.023437 0.86328-0.054687 1.082-0.10547 0.32031-0.070313 0.58984-0.21875 0.79688-0.4375 0.14062-0.14453 0.25391-0.34375 0.31641-0.59766 0.039063-0.14453 0.066406-0.25781 0.066406-0.32813h1.3555v8.3047h-1.6719v-5.7305zm1.5664 10.684c0 0.95312 0.078125 1.6797 0.23438 2.1875 0.15234 0.50391 0.48438 0.76172 0.96875 0.76172s0.80078-0.25781 0.95312-0.76172c0.14453-0.50781 0.21875-1.2344 0.21875-2.1875 0-1.0039-0.074219-1.7383-0.21875-2.2227-0.15234-0.48438-0.46875-0.72656-0.95312-0.72656s-0.81641 0.24219-0.96875 0.72656c-0.15625 0.48438-0.23438 1.2188-0.23438 2.2227zm1.2031-4.2891c1.0586 0 1.793 0.37109 2.2227 1.1133 0.41797 0.74219 0.63672 1.8008 0.63672 3.1758 0 1.3633-0.21875 2.4219-0.63672 3.168-0.42969 0.73438-1.1641 1.1055-2.2227 1.1055s-1.8008-0.37109-2.2227-1.1055c-0.4375-0.74609-0.63672-1.8047-0.63672-3.168 0-1.375 0.19922-2.4336 0.63672-3.1758 0.42188-0.74219 1.1641-1.1133 2.2227-1.1133z"/>
</svg>
