<?xml version="1.0" encoding="UTF-8"?>
<svg width="7.9968" height="21.029" version="1.1" viewBox="0 0 7.9968 21.029" xmlns="http://www.w3.org/2000/svg">
 <path d="m0.088305 0.088304h7.8202l-4.1e-5 20.852h-7.82z" fill="#ffca00" stroke="#000" stroke-width=".17661"/>
 <path d="m1.6992 3.8835v-1.1992c0.55078-0.027344 0.95312-0.0625 1.1758-0.10938 0.35547-0.078125 0.64062-0.23828 0.87109-0.48047 0.14062-0.14844 0.26562-0.36328 0.33594-0.64062 0.054688-0.16016 0.074219-0.27344 0.074219-0.35547h1.4648v8.9961h-1.8047v-6.2109zm-0.019531 9.8398v-1.1914c0.5625-0.02734 0.95312-0.07422 1.1758-0.11719 0.35547-0.07813 0.64844-0.23828 0.87109-0.48047 0.14453-0.15234 0.26953-0.36328 0.34766-0.64062 0.042969-0.16016 0.0625-0.27344 0.0625-0.35547h1.4688v8.9922h-1.8086v-6.207z"/>
</svg>
