<?xml version="1.0" encoding="UTF-8"?>
<svg xmlns="http://www.w3.org/2000/svg" xmlns:xlink="http://www.w3.org/1999/xlink" width="11" height="30" viewBox="0 0 11 30">
<rect x="-1.1" y="-3" width="13.2" height="36" fill="rgb(0%, 0%, 0%)" fill-opacity="1"/>
<path fill-rule="nonzero" fill="rgb(95.686275%, 85.490196%, 43.529412%)" fill-opacity="1" d="M 0.800781 0.800781 L 10.199219 0.800781 L 10.199219 29.199219 L 0.800781 29.199219 Z M 0.800781 0.800781 "/>
<path fill-rule="nonzero" fill="rgb(0%, 0%, 0%)" fill-opacity="1" d="M 6.910156 14.367188 L 5.125 14.367188 L 5.125 7.644531 C 4.472656 8.253906 3.707031 8.703125 2.820312 8.996094 L 2.820312 7.375 C 3.285156 7.222656 3.792969 6.933594 4.339844 6.511719 C 4.882812 6.085938 5.257812 5.589844 5.460938 5.023438 L 6.910156 5.023438 Z M 6.910156 14.367188 "/>
<path fill-rule="nonzero" fill="rgb(0%, 0%, 0%)" fill-opacity="1" d="M 8.625 23.320312 L 8.625 24.976562 L 2.375 24.976562 C 2.441406 24.351562 2.644531 23.757812 2.984375 23.199219 C 3.320312 22.636719 3.992188 21.894531 4.988281 20.96875 C 5.792969 20.21875 6.285156 19.710938 6.46875 19.445312 C 6.714844 19.074219 6.835938 18.710938 6.835938 18.351562 C 6.835938 17.953125 6.730469 17.648438 6.515625 17.433594 C 6.300781 17.21875 6.007812 17.113281 5.628906 17.113281 C 5.257812 17.113281 4.960938 17.226562 4.742188 17.449219 C 4.519531 17.675781 4.394531 18.046875 4.359375 18.566406 L 2.582031 18.390625 C 2.6875 17.40625 3.019531 16.703125 3.578125 16.277344 C 4.136719 15.847656 4.835938 15.632812 5.675781 15.632812 C 6.59375 15.632812 7.3125 15.882812 7.839844 16.378906 C 8.363281 16.871094 8.625 17.488281 8.625 18.226562 C 8.625 18.644531 8.550781 19.042969 8.402344 19.421875 C 8.25 19.800781 8.011719 20.195312 7.6875 20.609375 C 7.472656 20.886719 7.082031 21.28125 6.519531 21.796875 C 5.957031 22.316406 5.597656 22.65625 5.449219 22.828125 C 5.300781 22.996094 5.175781 23.160156 5.085938 23.320312 Z M 8.625 23.320312 "/>
</svg>
