<?xml version="1.0" encoding="UTF-8"?>
<svg width="7.9968" height="21.029" version="1.1" viewBox="0 0 7.9968 21.029" xmlns="http://www.w3.org/2000/svg">
 <path d="m0.088305 0.088304h7.8202l-4.1e-5 20.852h-7.82z" fill="#ffca00" stroke="#000" stroke-width=".17661"/>
 <path d="m1.6914 4.1042v-1.1562c0.53516-0.027344 0.91016-0.066406 1.1289-0.10938 0.34375-0.074219 0.62891-0.23438 0.84766-0.46094 0.14062-0.14844 0.25781-0.35938 0.33203-0.61719 0.035156-0.16016 0.066406-0.26953 0.066406-0.35156h1.4141v8.6953h-1.7461v-6zm-0.66016 15.516c0.007812-0.61719 0.14844-1.1953 0.39844-1.707 0.24609-0.58594 0.82031-1.1953 1.7266-1.8398 0.78516-0.57031 1.2969-0.96484 1.5312-1.2148 0.35156-0.38672 0.53516-0.79687 0.53516-1.2461 0-0.37109-0.10938-0.67188-0.30859-0.91406-0.21094-0.25-0.49609-0.36719-0.87891-0.36719-0.51953 0-0.87109 0.19141-1.0547 0.57812-0.11719 0.22266-0.17578 0.58594-0.19141 1.0703h-1.668c0.027344-0.73828 0.16797-1.332 0.40234-1.793 0.45312-0.86719 1.2656-1.3047 2.4258-1.3047 0.92188 0 1.6484 0.26172 2.1953 0.76953 0.55078 0.51172 0.8125 1.1797 0.8125 2.0195 0 0.65234-0.1875 1.2188-0.57031 1.7148-0.26172 0.33594-0.67188 0.71094-1.2383 1.1133l-0.6875 0.48437c-0.42578 0.30078-0.71094 0.51953-0.87891 0.65234-0.16016 0.14453-0.29297 0.29297-0.40234 0.47656h3.8008v1.5078z"/>
</svg>
