<?xml version="1.0" encoding="UTF-8"?>
<svg width="7.9968" height="21.029" version="1.1" viewBox="0 0 7.9968 21.029" xmlns="http://www.w3.org/2000/svg">
 <path d="m0.088305 0.088304h7.8202l-4.1e-5 20.852h-7.82z" fill="#ffca00" stroke="#000" stroke-width=".17661"/>
 <path d="m1.4844 3.6238v-1.2383c0.57422-0.027344 0.97266-0.070313 1.2109-0.125 0.36328-0.078125 0.66406-0.24609 0.90234-0.48438 0.15234-0.16797 0.27344-0.39062 0.35547-0.66406 0.042969-0.17578 0.070313-0.30078 0.070313-0.37109h1.5195v9.2891h-1.875v-6.4063zm1.0977 13.578c0 0.37109 0.070313 0.67188 0.18359 0.92578 0.22266 0.44531 0.62109 0.66406 1.2109 0.66406 0.36328 0 0.67188-0.11328 0.9375-0.37109 0.26563-0.23828 0.39844-0.58984 0.39844-1.0586 0-0.60156-0.24609-1.0078-0.74219-1.2227-0.28125-0.11328-0.72656-0.17578-1.3242-0.17578v-1.3086c0.58984-0.0078 0.99609-0.0625 1.2344-0.16797 0.41016-0.17578 0.61328-0.53906 0.61328-1.0977 0-0.35156-0.10938-0.63672-0.3125-0.85547-0.21094-0.22266-0.50391-0.33594-0.875-0.33594-0.43359 0-0.75 0.13281-0.94531 0.40625-0.21094 0.27344-0.30859 0.63672-0.30078 1.0977h-1.707c0.019531-0.46094 0.097656-0.90234 0.24219-1.3203 0.14844-0.35156 0.38672-0.6875 0.70703-0.99609 0.23828-0.22266 0.51953-0.39062 0.84766-0.50391 0.33594-0.10547 0.73438-0.17969 1.2109-0.17969 0.89062 0 1.6172 0.24219 2.1562 0.69141 0.53906 0.46094 0.82422 1.0781 0.82422 1.8477 0 0.54688-0.16797 1.0156-0.49609 1.3867-0.20312 0.23828-0.41797 0.40625-0.64453 0.48828 0.17578 0 0.41406 0.14062 0.72266 0.42188 0.46094 0.44531 0.69922 1.0273 0.69922 1.7773 0 0.77734-0.26562 1.4766-0.82031 2.0703-0.54297 0.60938-1.3438 0.90234-2.4258 0.90234-1.3086 0-2.2266-0.43359-2.7383-1.293-0.26562-0.44922-0.41797-1.0508-0.45312-1.793z"/>
</svg>
