<?xml version="1.0" encoding="UTF-8"?>
<svg xmlns="http://www.w3.org/2000/svg" xmlns:xlink="http://www.w3.org/1999/xlink" width="11" height="30" viewBox="0 0 11 30">
<rect x="-1.1" y="-3" width="13.2" height="36" fill="rgb(0%, 0%, 0%)" fill-opacity="1"/>
<path fill-rule="nonzero" fill="rgb(95.686275%, 85.490196%, 43.529412%)" fill-opacity="1" d="M 0.800781 0.800781 L 10.199219 0.800781 L 10.199219 29.199219 L 0.800781 29.199219 Z M 0.800781 0.800781 "/>
<path fill-rule="nonzero" fill="rgb(0%, 0%, 0%)" fill-opacity="1" d="M 6.910156 14.285156 L 5.125 14.285156 L 5.125 7.5625 C 4.472656 8.171875 3.707031 8.625 2.820312 8.914062 L 2.820312 7.296875 C 3.285156 7.144531 3.792969 6.855469 4.339844 6.429688 C 4.882812 6.003906 5.257812 5.507812 5.460938 4.941406 L 6.910156 4.941406 Z M 6.910156 14.285156 "/>
<path fill-rule="nonzero" fill="rgb(0%, 0%, 0%)" fill-opacity="1" d="M 2.410156 22.429688 L 4.136719 22.21875 C 4.191406 22.660156 4.339844 22.996094 4.578125 23.230469 C 4.820312 23.460938 5.113281 23.578125 5.457031 23.578125 C 5.824219 23.578125 6.132812 23.4375 6.386719 23.160156 C 6.636719 22.878906 6.761719 22.503906 6.761719 22.03125 C 6.761719 21.582031 6.640625 21.226562 6.402344 20.964844 C 6.160156 20.703125 5.867188 20.570312 5.519531 20.570312 C 5.289062 20.570312 5.015625 20.613281 4.699219 20.703125 L 4.898438 19.25 C 5.378906 19.261719 5.746094 19.15625 6 18.9375 C 6.253906 18.714844 6.382812 18.417969 6.382812 18.050781 C 6.382812 17.738281 6.289062 17.488281 6.101562 17.300781 C 5.917969 17.113281 5.667969 17.023438 5.359375 17.023438 C 5.054688 17.023438 4.796875 17.128906 4.578125 17.339844 C 4.363281 17.550781 4.234375 17.859375 4.1875 18.265625 L 2.542969 17.988281 C 2.65625 17.421875 2.828125 16.972656 3.058594 16.636719 C 3.289062 16.300781 3.613281 16.035156 4.023438 15.84375 C 4.4375 15.652344 4.898438 15.554688 5.410156 15.554688 C 6.289062 15.554688 6.988281 15.835938 7.519531 16.394531 C 7.953125 16.851562 8.171875 17.367188 8.171875 17.941406 C 8.171875 18.757812 7.726562 19.410156 6.832031 19.898438 C 7.367188 20.011719 7.792969 20.265625 8.113281 20.664062 C 8.429688 21.0625 8.589844 21.542969 8.589844 22.105469 C 8.589844 22.921875 8.292969 23.617188 7.695312 24.195312 C 7.101562 24.769531 6.355469 25.058594 5.46875 25.058594 C 4.625 25.058594 3.929688 24.816406 3.375 24.332031 C 2.820312 23.847656 2.496094 23.210938 2.410156 22.429688 Z M 2.410156 22.429688 "/>
</svg>
