<?xml version="1.0" encoding="UTF-8"?>
<svg xmlns="http://www.w3.org/2000/svg" xmlns:xlink="http://www.w3.org/1999/xlink" width="11" height="30" viewBox="0 0 11 30">
<rect x="-1.1" y="-3" width="13.2" height="36" fill="rgb(0%, 0%, 0%)" fill-opacity="1"/>
<path fill-rule="nonzero" fill="rgb(95.686275%, 85.490196%, 43.529412%)" fill-opacity="1" d="M 0.800781 0.800781 L 10.199219 0.800781 L 10.199219 29.199219 L 0.800781 29.199219 Z M 0.800781 0.800781 "/>
<path fill-rule="nonzero" fill="rgb(0%, 0%, 0%)" fill-opacity="1" d="M 6.910156 14.367188 L 5.125 14.367188 L 5.125 7.644531 C 4.472656 8.253906 3.707031 8.703125 2.820312 8.996094 L 2.820312 7.375 C 3.285156 7.222656 3.792969 6.933594 4.339844 6.511719 C 4.882812 6.085938 5.257812 5.589844 5.460938 5.023438 L 6.910156 5.023438 Z M 6.910156 14.367188 "/>
<path fill-rule="nonzero" fill="rgb(0%, 0%, 0%)" fill-opacity="1" d="M 5.964844 24.976562 L 5.964844 23.105469 L 2.15625 23.105469 L 2.15625 21.542969 L 6.191406 15.632812 L 7.691406 15.632812 L 7.691406 21.539062 L 8.84375 21.539062 L 8.84375 23.105469 L 7.691406 23.105469 L 7.691406 24.976562 Z M 5.964844 21.539062 L 5.964844 18.359375 L 3.824219 21.539062 Z M 5.964844 21.539062 "/>
</svg>
