<?xml version="1.0" encoding="UTF-8"?>
<svg xmlns="http://www.w3.org/2000/svg" xmlns:xlink="http://www.w3.org/1999/xlink" width="11" height="30" viewBox="0 0 11 30">
<rect x="-1.1" y="-3" width="13.2" height="36" fill="rgb(0%, 0%, 0%)" fill-opacity="1"/>
<path fill-rule="nonzero" fill="rgb(95.686275%, 85.490196%, 43.529412%)" fill-opacity="1" d="M 0.800781 0.800781 L 10.199219 0.800781 L 10.199219 29.199219 L 0.800781 29.199219 Z M 0.800781 0.800781 "/>
<path fill-rule="nonzero" fill="rgb(0%, 0%, 0%)" fill-opacity="1" d="M 6.910156 14.285156 L 5.125 14.285156 L 5.125 7.5625 C 4.472656 8.171875 3.707031 8.625 2.820312 8.914062 L 2.820312 7.296875 C 3.285156 7.144531 3.792969 6.855469 4.339844 6.429688 C 4.882812 6.003906 5.257812 5.507812 5.460938 4.941406 L 6.910156 4.941406 Z M 6.910156 14.285156 "/>
<path fill-rule="nonzero" fill="rgb(0%, 0%, 0%)" fill-opacity="1" d="M 8.4375 17.871094 L 6.710938 18.0625 C 6.667969 17.707031 6.558594 17.445312 6.378906 17.277344 C 6.203125 17.105469 5.972656 17.023438 5.6875 17.023438 C 5.3125 17.023438 4.992188 17.191406 4.730469 17.53125 C 4.472656 17.867188 4.308594 18.574219 4.238281 19.644531 C 4.683594 19.117188 5.238281 18.855469 5.898438 18.855469 C 6.640625 18.855469 7.28125 19.140625 7.8125 19.707031 C 8.339844 20.273438 8.605469 21.007812 8.605469 21.902344 C 8.605469 22.855469 8.328125 23.617188 7.769531 24.195312 C 7.210938 24.769531 6.492188 25.058594 5.617188 25.058594 C 4.679688 25.058594 3.90625 24.691406 3.300781 23.960938 C 2.695312 23.234375 2.394531 22.035156 2.394531 20.375 C 2.394531 18.667969 2.707031 17.4375 3.339844 16.683594 C 3.96875 15.933594 4.789062 15.554688 5.796875 15.554688 C 6.5 15.554688 7.085938 15.753906 7.550781 16.148438 C 8.015625 16.542969 8.308594 17.117188 8.4375 17.871094 Z M 4.390625 21.761719 C 4.390625 22.34375 4.527344 22.789062 4.792969 23.105469 C 5.058594 23.421875 5.363281 23.578125 5.707031 23.578125 C 6.035156 23.578125 6.3125 23.449219 6.53125 23.191406 C 6.75 22.933594 6.863281 22.511719 6.863281 21.921875 C 6.863281 21.316406 6.742188 20.875 6.507812 20.59375 C 6.269531 20.3125 5.972656 20.171875 5.617188 20.171875 C 5.273438 20.171875 4.984375 20.304688 4.746094 20.574219 C 4.511719 20.84375 4.390625 21.238281 4.390625 21.761719 Z M 4.390625 21.761719 "/>
</svg>
