<?xml version="1.0" encoding="UTF-8"?>
<svg xmlns="http://www.w3.org/2000/svg" xmlns:xlink="http://www.w3.org/1999/xlink" width="11" height="24" viewBox="0 0 11 24">
<rect x="-1.1" y="-2.4" width="13.2" height="28.8" fill="rgb(0%, 0%, 0%)" fill-opacity="1"/>
<path fill-rule="nonzero" fill="rgb(95.686275%, 85.490196%, 43.529412%)" fill-opacity="1" d="M 0.800781 0.800781 L 10.199219 0.800781 L 10.199219 23.199219 L 0.800781 23.199219 Z M 0.800781 0.800781 "/>
<path fill-rule="nonzero" fill="rgb(0%, 0%, 0%)" fill-opacity="1" d="M 8.625 15.015625 L 8.625 16.671875 L 2.375 16.671875 C 2.441406 16.046875 2.644531 15.453125 2.984375 14.890625 C 3.320312 14.332031 3.992188 13.585938 4.988281 12.660156 C 5.792969 11.910156 6.285156 11.402344 6.46875 11.136719 C 6.714844 10.769531 6.835938 10.40625 6.835938 10.046875 C 6.835938 9.648438 6.730469 9.339844 6.515625 9.128906 C 6.300781 8.914062 6.007812 8.808594 5.628906 8.808594 C 5.257812 8.808594 4.960938 8.917969 4.742188 9.144531 C 4.519531 9.367188 4.394531 9.742188 4.359375 10.261719 L 2.582031 10.082031 C 2.6875 9.101562 3.019531 8.398438 3.578125 7.96875 C 4.136719 7.542969 4.835938 7.328125 5.675781 7.328125 C 6.59375 7.328125 7.3125 7.574219 7.839844 8.070312 C 8.363281 8.566406 8.625 9.179688 8.625 9.917969 C 8.625 10.335938 8.550781 10.734375 8.402344 11.113281 C 8.25 11.492188 8.011719 11.890625 7.6875 12.304688 C 7.472656 12.578125 7.082031 12.976562 6.519531 13.492188 C 5.957031 14.007812 5.597656 14.351562 5.449219 14.519531 C 5.300781 14.6875 5.175781 14.855469 5.085938 15.015625 Z M 8.625 15.015625 "/>
</svg>
