<?xml version="1.0" encoding="UTF-8"?>
<svg xmlns="http://www.w3.org/2000/svg" xmlns:xlink="http://www.w3.org/1999/xlink" width="11" height="24" viewBox="0 0 11 24">
<rect x="-1.1" y="-2.4" width="13.2" height="28.8" fill="rgb(0%, 0%, 0%)" fill-opacity="1"/>
<path fill-rule="nonzero" fill="rgb(95.686275%, 85.490196%, 43.529412%)" fill-opacity="1" d="M 0.800781 0.800781 L 10.199219 0.800781 L 10.199219 23.199219 L 0.800781 23.199219 Z M 0.800781 0.800781 "/>
<path fill-rule="nonzero" fill="rgb(0%, 0%, 0%)" fill-opacity="1" d="M 2.410156 14.125 L 4.136719 13.914062 C 4.191406 14.355469 4.339844 14.691406 4.578125 14.921875 C 4.820312 15.15625 5.113281 15.273438 5.457031 15.273438 C 5.824219 15.273438 6.132812 15.132812 6.386719 14.851562 C 6.636719 14.574219 6.761719 14.199219 6.761719 13.722656 C 6.761719 13.273438 6.640625 12.917969 6.402344 12.65625 C 6.160156 12.394531 5.867188 12.261719 5.519531 12.261719 C 5.289062 12.261719 5.015625 12.308594 4.699219 12.398438 L 4.898438 10.941406 C 5.378906 10.957031 5.746094 10.851562 6 10.628906 C 6.253906 10.40625 6.382812 10.113281 6.382812 9.742188 C 6.382812 9.429688 6.289062 9.179688 6.101562 8.996094 C 5.917969 8.808594 5.667969 8.714844 5.359375 8.714844 C 5.054688 8.714844 4.796875 8.820312 4.578125 9.03125 C 4.363281 9.242188 4.234375 9.554688 4.1875 9.960938 L 2.542969 9.679688 C 2.65625 9.117188 2.828125 8.667969 3.058594 8.332031 C 3.289062 7.996094 3.613281 7.730469 4.023438 7.539062 C 4.4375 7.34375 4.898438 7.25 5.410156 7.25 C 6.289062 7.25 6.988281 7.527344 7.519531 8.085938 C 7.953125 8.542969 8.171875 9.058594 8.171875 9.636719 C 8.171875 10.453125 7.726562 11.105469 6.832031 11.589844 C 7.367188 11.703125 7.792969 11.960938 8.113281 12.359375 C 8.429688 12.757812 8.589844 13.238281 8.589844 13.800781 C 8.589844 14.617188 8.292969 15.3125 7.695312 15.886719 C 7.101562 16.464844 6.355469 16.75 5.46875 16.75 C 4.625 16.75 3.929688 16.507812 3.375 16.023438 C 2.820312 15.539062 2.496094 14.90625 2.410156 14.125 Z M 2.410156 14.125 "/>
</svg>
