<?xml version="1.0" encoding="UTF-8"?>
<svg width="8" height="21.965" version="1.1" viewBox="0 0 8 21.965" xmlns="http://www.w3.org/2000/svg">
 <path transform="scale(1.1284)" d="m0.069236 0.069236h6.9548v19.327h-6.9548z" fill="#ffca00" stroke="#000" stroke-width=".13619"/>
 <path d="m2.5664 12.699c0 0.37891 0.0625 0.6875 0.17969 0.92969 0.22656 0.46094 0.62891 0.6875 1.2188 0.6875 0.36719 0 0.6875-0.12891 0.95703-0.375 0.26953-0.25 0.39844-0.60547 0.39844-1.0703 0-0.62109-0.24609-1.0312-0.75-1.2383-0.28125-0.11719-0.73437-0.17969-1.3398-0.17969v-1.3164c0.59375-0.0039 1.0156-0.06641 1.25-0.17578 0.41797-0.17188 0.61719-0.54688 0.61719-1.0977 0-0.35547-0.10156-0.64453-0.31641-0.87891-0.20312-0.21875-0.50391-0.32812-0.88281-0.32812-0.4375 0-0.75391 0.13281-0.95703 0.41016-0.20312 0.27344-0.30078 0.64453-0.29297 1.1094h-1.7305c0.019531-0.46484 0.097656-0.90625 0.24219-1.332 0.15234-0.35938 0.39062-0.70312 0.71484-1.0156 0.23828-0.21484 0.53516-0.38672 0.86328-0.49609 0.32422-0.125 0.73828-0.17969 1.2227-0.17969 0.89844 0 1.6172 0.23437 2.168 0.69531 0.55078 0.46484 0.82031 1.082 0.82031 1.8672 0 0.55078-0.16016 1.0195-0.48438 1.4023-0.20703 0.23438-0.42969 0.39453-0.64844 0.48047 0.17188 0 0.41016 0.14453 0.72266 0.42969 0.47266 0.44141 0.71094 1.0352 0.71094 1.793 0 0.79297-0.28125 1.4844-0.83203 2.0898-0.54688 0.60938-1.3633 0.90234-2.4414 0.90234-1.3281 0-2.2539-0.43359-2.7695-1.3008-0.27734-0.45703-0.42188-1.0664-0.44531-1.8125z"/>
</svg>
