<?xml version="1.0" encoding="UTF-8"?>
<svg width="8" height="22.334" version="1.1" viewBox="0 0 8 22.334" xmlns="http://www.w3.org/2000/svg">
 <path transform="scale(1.1071)" d="m0.08468 0.08468h7.0566v20.006h-7.0566z" fill="#ffca00" stroke="#000" stroke-width=".16435"/>
 <path d="m2.6172 13.128c0.074218 0.39844 0.21094 0.69531 0.41016 0.91016 0.19922 0.21875 0.50781 0.32422 0.89062 0.32422 0.44922 0 0.79297-0.15625 1.0234-0.47656 0.23828-0.31641 0.34766-0.71484 0.34766-1.1875 0-0.47656-0.097656-0.86719-0.32422-1.1914-0.21484-0.32422-0.56641-0.48438-1.0273-0.48438-0.22266 0-0.41016 0.02344-0.57422 0.07813-0.28516 0.10156-0.49609 0.29297-0.64062 0.5625l-1.6211-0.074224 0.64453-5.0859h5.0781v1.5391h-3.7656l-0.33594 2.0117c0.28125-0.1875 0.5-0.29688 0.66016-0.35938 0.26172-0.09375 0.58203-0.14844 0.95313-0.14844 0.76172 0 1.4297 0.26172 1.9961 0.76953 0.57422 0.51172 0.85156 1.2539 0.85156 2.2305 0 0.85547-0.27344 1.6172-0.82031 2.2812-0.54297 0.66797-1.3672 1.0039-2.4492 1.0039-0.87891 0-1.5977-0.23047-2.1641-0.70312-0.55859-0.46875-0.87109-1.1328-0.93359-2z"/>
</svg>
