<?xml version="1.0" encoding="UTF-8"?>
<svg xmlns="http://www.w3.org/2000/svg" xmlns:xlink="http://www.w3.org/1999/xlink" width="11" height="24" viewBox="0 0 11 24">
<rect x="-1.1" y="-2.4" width="13.2" height="28.8" fill="rgb(0%, 0%, 0%)" fill-opacity="1"/>
<path fill-rule="nonzero" fill="rgb(95.686275%, 85.490196%, 43.529412%)" fill-opacity="1" d="M 0.800781 0.800781 L 10.199219 0.800781 L 10.199219 23.199219 L 0.800781 23.199219 Z M 0.800781 0.800781 "/>
<path fill-rule="nonzero" fill="rgb(0%, 0%, 0%)" fill-opacity="1" d="M 2.371094 14.117188 L 4.148438 13.933594 C 4.199219 14.335938 4.347656 14.652344 4.597656 14.886719 C 4.847656 15.125 5.136719 15.242188 5.460938 15.242188 C 5.835938 15.242188 6.148438 15.089844 6.40625 14.785156 C 6.664062 14.484375 6.796875 14.027344 6.796875 13.417969 C 6.796875 12.847656 6.667969 12.417969 6.410156 12.132812 C 6.15625 11.847656 5.820312 11.703125 5.410156 11.703125 C 4.898438 11.703125 4.441406 11.929688 4.035156 12.382812 L 2.585938 12.175781 L 3.5 7.332031 L 8.21875 7.332031 L 8.21875 9 L 4.851562 9 L 4.574219 10.582031 C 4.972656 10.382812 5.378906 10.28125 5.792969 10.28125 C 6.582031 10.28125 7.253906 10.570312 7.804688 11.144531 C 8.355469 11.722656 8.628906 12.46875 8.628906 13.386719 C 8.628906 14.152344 8.40625 14.835938 7.960938 15.4375 C 7.359375 16.257812 6.519531 16.667969 5.441406 16.667969 C 4.582031 16.667969 3.882812 16.4375 3.34375 15.976562 C 2.800781 15.515625 2.476562 14.894531 2.371094 14.117188 Z M 2.371094 14.117188 "/>
</svg>
