<?xml version="1.0" encoding="UTF-8"?>
<svg width="8" height="22.586" version="1.1" viewBox="0 0 8 22.586" xmlns="http://www.w3.org/2000/svg">
 <path transform="scale(1.1311)" d="m0.082882 0.082882h6.9103v19.802h-6.9103z" fill="#ffca00" stroke="#000" stroke-width=".16176"/>
 <path d="m2.6016 12.94c0 0.50781 0.14063 0.91797 0.41797 1.2461 0.26562 0.31641 0.60938 0.47266 1.0312 0.47266 0.41016 0 0.73828-0.15234 0.96484-0.46094 0.23438-0.30859 0.35547-0.71094 0.35547-1.2109 0-0.53906-0.12891-0.96094-0.40625-1.2578-0.26172-0.28516-0.58594-0.4375-0.98047-0.4375-0.31641 0-0.59375 0.09766-0.83203 0.29297-0.36719 0.27734-0.55078 0.73047-0.55078 1.3555zm2.6055-4.0664c0-0.14453-0.058593-0.30859-0.17969-0.49219-0.19531-0.29688-0.49609-0.44141-0.89844-0.44141-0.60156 0-1.0273 0.33594-1.2852 1.0078-0.13281 0.375-0.23438 0.92578-0.28516 1.6523 0.22656-0.27734 0.49609-0.47266 0.80078-0.59766 0.29688-0.12891 0.64844-0.19141 1.0312-0.19141 0.83984 0 1.5273 0.28516 2.0547 0.85156 0.53906 0.56641 0.80078 1.293 0.80078 2.1758 0 0.875-0.26172 1.6562-0.78516 2.3242-0.51953 0.66797-1.332 1.0039-2.4414 1.0039-1.1758 0-2.0547-0.49219-2.6133-1.4883-0.4375-0.77734-0.66406-1.7734-0.66406-2.9961 0-0.72266 0.039062-1.2969 0.097656-1.75 0.10547-0.80859 0.3125-1.4688 0.62891-2.0039 0.26953-0.45312 0.61719-0.8125 1.0586-1.0898 0.42969-0.28516 0.95312-0.41797 1.5547-0.41797 0.87109 0 1.5703 0.22266 2.0859 0.67578 0.51953 0.44141 0.81641 1.0391 0.88281 1.7773z"/>
</svg>
