<?xml version="1.0" encoding="UTF-8"?>
<svg xmlns="http://www.w3.org/2000/svg" xmlns:xlink="http://www.w3.org/1999/xlink" width="11" height="24" viewBox="0 0 11 24">
<rect x="-1.1" y="-2.4" width="13.2" height="28.8" fill="rgb(0%, 0%, 0%)" fill-opacity="1"/>
<path fill-rule="nonzero" fill="rgb(95.686275%, 85.490196%, 43.529412%)" fill-opacity="1" d="M 0.800781 0.800781 L 10.199219 0.800781 L 10.199219 23.199219 L 0.800781 23.199219 Z M 0.800781 0.800781 "/>
<path fill-rule="nonzero" fill="rgb(0%, 0%, 0%)" fill-opacity="1" d="M 8.4375 9.566406 L 6.710938 9.757812 C 6.667969 9.402344 6.558594 9.136719 6.378906 8.96875 C 6.203125 8.800781 5.972656 8.714844 5.6875 8.714844 C 5.3125 8.714844 4.992188 8.882812 4.730469 9.222656 C 4.472656 9.5625 4.308594 10.265625 4.238281 11.335938 C 4.683594 10.8125 5.238281 10.550781 5.898438 10.550781 C 6.640625 10.550781 7.28125 10.832031 7.8125 11.398438 C 8.339844 11.96875 8.605469 12.699219 8.605469 13.597656 C 8.605469 14.546875 8.328125 15.3125 7.769531 15.886719 C 7.210938 16.464844 6.492188 16.75 5.617188 16.75 C 4.679688 16.75 3.90625 16.386719 3.300781 15.65625 C 2.695312 14.925781 2.394531 13.730469 2.394531 12.066406 C 2.394531 10.359375 2.707031 9.132812 3.339844 8.378906 C 3.96875 7.625 4.789062 7.25 5.796875 7.25 C 6.5 7.25 7.085938 7.445312 7.550781 7.84375 C 8.015625 8.238281 8.308594 8.8125 8.4375 9.566406 Z M 4.390625 13.457031 C 4.390625 14.035156 4.527344 14.484375 4.792969 14.800781 C 5.058594 15.113281 5.363281 15.273438 5.707031 15.273438 C 6.035156 15.273438 6.3125 15.144531 6.53125 14.886719 C 6.75 14.625 6.863281 14.203125 6.863281 13.617188 C 6.863281 13.011719 6.742188 12.566406 6.507812 12.285156 C 6.269531 12.003906 5.972656 11.863281 5.617188 11.863281 C 5.273438 11.863281 4.984375 11.996094 4.746094 12.265625 C 4.511719 12.535156 4.390625 12.933594 4.390625 13.457031 Z M 4.390625 13.457031 "/>
</svg>
