<?xml version="1.0" encoding="UTF-8"?>
<svg width="8" height="23.014" version="1.1" viewBox="0 0 8 23.014" xmlns="http://www.w3.org/2000/svg">
 <path transform="scale(1.1757)" d="m0.076419 0.076419h6.6485v19.424h-6.6485z" fill="#ffca00" stroke="#000" stroke-width=".15709"/>
 <path d="m2.6133 13.445c0 0.48828 0.12109 0.86328 0.37109 1.1211 0.25391 0.26953 0.59766 0.40234 1.0352 0.40234 0.44141 0 0.78906-0.13281 1.0352-0.40234 0.25-0.25781 0.37891-0.63281 0.37891-1.1211 0-0.49219-0.12891-0.87891-0.38672-1.1289-0.25781-0.26172-0.59766-0.39062-1.0273-0.39062-0.42969 0-0.77734 0.12891-1.0273 0.39062-0.25781 0.25-0.37891 0.63672-0.37891 1.1289zm-1.9961 0.13672c0-0.55078 0.12891-1.0469 0.37109-1.4961 0.25-0.44141 0.61719-0.77734 1.0977-1-0.47266-0.31641-0.78125-0.65625-0.92188-1.0234-0.14453-0.36719-0.20703-0.70703-0.20703-1.0273 0-0.70703 0.26172-1.3242 0.79688-1.8164 0.53125-0.5 1.2969-0.75 2.2656-0.75 0.97656 0 1.7344 0.25 2.2656 0.75 0.53516 0.49219 0.80469 1.1094 0.80469 1.8164 0 0.32031-0.070313 0.66016-0.21094 1.0273-0.14453 0.36719-0.44922 0.67969-0.92578 0.94922 0.48828 0.27734 0.84766 0.63281 1.0898 1.0742 0.24609 0.44922 0.35938 0.94531 0.35938 1.4961 0 0.82031-0.30078 1.5156-0.91016 2.1016-0.60938 0.57812-1.457 0.86328-2.5547 0.86328-1.0938 0-1.9141-0.28516-2.4805-0.86328-0.56641-0.58594-0.83984-1.2812-0.83984-2.1016zm2.168-4.3359c0 0.35547 0.10938 0.64844 0.32812 0.875 0.21484 0.22266 0.51953 0.33203 0.90625 0.33203 0.39062 0 0.69531-0.10938 0.91406-0.33203 0.21094-0.22656 0.3125-0.51953 0.3125-0.875 0-0.38281-0.10156-0.6875-0.3125-0.90234-0.21875-0.21875-0.52344-0.32422-0.91406-0.32422-0.38672 0-0.69141 0.10547-0.90625 0.32422-0.21875 0.21484-0.32812 0.51953-0.32812 0.90234z"/>
</svg>
