<?xml version="1.0" encoding="UTF-8"?>
<svg xmlns="http://www.w3.org/2000/svg" xmlns:xlink="http://www.w3.org/1999/xlink" width="11" height="24" viewBox="0 0 11 24">
<rect x="-1.1" y="-2.4" width="13.2" height="28.8" fill="rgb(0%, 0%, 0%)" fill-opacity="1"/>
<path fill-rule="nonzero" fill="rgb(95.686275%, 85.490196%, 43.529412%)" fill-opacity="1" d="M 0.800781 0.800781 L 10.199219 0.800781 L 10.199219 23.199219 L 0.800781 23.199219 Z M 0.800781 0.800781 "/>
<path fill-rule="nonzero" fill="rgb(0%, 0%, 0%)" fill-opacity="1" d="M 3.996094 11.570312 C 3.535156 11.375 3.199219 11.105469 2.988281 10.765625 C 2.78125 10.425781 2.675781 10.050781 2.675781 9.644531 C 2.675781 8.949219 2.917969 8.378906 3.402344 7.925781 C 3.886719 7.472656 4.574219 7.246094 5.46875 7.246094 C 6.351562 7.246094 7.039062 7.472656 7.527344 7.925781 C 8.015625 8.378906 8.261719 8.949219 8.261719 9.644531 C 8.261719 10.078125 8.148438 10.460938 7.925781 10.796875 C 7.699219 11.132812 7.386719 11.390625 6.980469 11.570312 C 7.496094 11.777344 7.886719 12.078125 8.15625 12.476562 C 8.425781 12.875 8.558594 13.332031 8.558594 13.851562 C 8.558594 14.710938 8.285156 15.410156 7.738281 15.949219 C 7.191406 16.484375 6.460938 16.753906 5.550781 16.753906 C 4.703125 16.753906 4 16.53125 3.4375 16.085938 C 2.773438 15.5625 2.441406 14.84375 2.441406 13.929688 C 2.441406 13.425781 2.566406 12.964844 2.816406 12.542969 C 3.066406 12.121094 3.457031 11.796875 3.996094 11.570312 Z M 4.363281 9.773438 C 4.363281 10.128906 4.464844 10.40625 4.664062 10.601562 C 4.867188 10.800781 5.132812 10.902344 5.46875 10.902344 C 5.808594 10.902344 6.078125 10.800781 6.28125 10.601562 C 6.484375 10.398438 6.585938 10.121094 6.585938 9.765625 C 6.585938 9.429688 6.484375 9.164062 6.285156 8.960938 C 6.082031 8.761719 5.816406 8.660156 5.488281 8.660156 C 5.144531 8.660156 4.871094 8.761719 4.667969 8.964844 C 4.464844 9.167969 4.363281 9.4375 4.363281 9.773438 Z M 4.199219 13.757812 C 4.199219 14.25 4.324219 14.632812 4.578125 14.90625 C 4.828125 15.183594 5.140625 15.320312 5.519531 15.320312 C 5.886719 15.320312 6.191406 15.1875 6.433594 14.921875 C 6.675781 14.660156 6.796875 14.277344 6.796875 13.777344 C 6.796875 13.339844 6.671875 12.992188 6.425781 12.726562 C 6.179688 12.460938 5.871094 12.328125 5.492188 12.328125 C 5.058594 12.328125 4.734375 12.480469 4.519531 12.78125 C 4.304688 13.082031 4.199219 13.40625 4.199219 13.757812 Z M 4.199219 13.757812 "/>
</svg>
