<?xml version="1.0" encoding="UTF-8"?>
<svg xmlns="http://www.w3.org/2000/svg" xmlns:xlink="http://www.w3.org/1999/xlink" width="11" height="24" viewBox="0 0 11 24">
<rect x="-1.1" y="-2.4" width="13.2" height="28.8" fill="rgb(0%, 0%, 0%)" fill-opacity="1"/>
<path fill-rule="nonzero" fill="rgb(95.686275%, 85.490196%, 43.529412%)" fill-opacity="1" d="M 0.800781 0.800781 L 10.199219 0.800781 L 10.199219 23.199219 L 0.800781 23.199219 Z M 0.800781 0.800781 "/>
<path fill-rule="nonzero" fill="rgb(0%, 0%, 0%)" fill-opacity="1" d="M 2.570312 14.4375 L 4.296875 14.246094 C 4.339844 14.597656 4.449219 14.859375 4.628906 15.027344 C 4.804688 15.195312 5.039062 15.28125 5.332031 15.28125 C 5.699219 15.28125 6.011719 15.113281 6.269531 14.773438 C 6.53125 14.433594 6.695312 13.734375 6.765625 12.667969 C 6.316406 13.1875 5.757812 13.445312 5.085938 13.445312 C 4.351562 13.445312 3.71875 13.164062 3.1875 12.601562 C 2.660156 12.035156 2.394531 11.300781 2.394531 10.394531 C 2.394531 9.449219 2.671875 8.691406 3.234375 8.113281 C 3.792969 7.535156 4.507812 7.246094 5.375 7.246094 C 6.320312 7.246094 7.09375 7.609375 7.699219 8.339844 C 8.304688 9.070312 8.605469 10.269531 8.605469 11.941406 C 8.605469 13.644531 8.292969 14.871094 7.660156 15.625 C 7.03125 16.378906 6.210938 16.753906 5.199219 16.753906 C 4.46875 16.753906 3.882812 16.5625 3.433594 16.171875 C 2.984375 15.785156 2.699219 15.207031 2.570312 14.4375 Z M 6.609375 10.539062 C 6.609375 9.964844 6.476562 9.519531 6.210938 9.199219 C 5.945312 8.882812 5.640625 8.726562 5.292969 8.726562 C 4.964844 8.726562 4.691406 8.855469 4.472656 9.113281 C 4.253906 9.375 4.144531 9.800781 4.144531 10.394531 C 4.144531 10.996094 4.261719 11.4375 4.5 11.71875 C 4.738281 12 5.035156 12.140625 5.390625 12.140625 C 5.730469 12.140625 6.019531 12.003906 6.253906 11.734375 C 6.492188 11.460938 6.609375 11.066406 6.609375 10.539062 Z M 6.609375 10.539062 "/>
</svg>
