<?xml version="1.0" encoding="UTF-8"?>
<svg width="8" height="21.03" version="1.1" viewBox="0 0 8 21.03" xmlns="http://www.w3.org/2000/svg">
 <path transform="scale(1.0883)" d="m0.082554 0.082554h7.1857v19.16h-7.1857z" fill="#ffca00" stroke="#000" stroke-width=".16228"/>
 <path d="m0.83984 9.0757c0-0.96094 0.28125-1.7539 0.83984-2.3516 0.55469-0.59766 1.2773-0.90234 2.1797-0.90234 1.375 0 2.3203 0.60938 2.8281 1.8281 0.29688 0.69531 0.4375 1.6055 0.4375 2.7305 0 1.0977-0.13672 2.0078-0.41797 2.7383-0.52734 1.3906-1.5156 2.0898-2.9336 2.0898-0.67578 0-1.2852-0.19922-1.832-0.59766-0.53125-0.40625-0.84375-0.98438-0.92188-1.7617h1.7695c0.046876 0.26953 0.15234 0.48438 0.33984 0.65234 0.1875 0.17188 0.42188 0.24609 0.73047 0.24609 0.58984 0 1-0.32031 1.2344-0.96875 0.13281-0.36328 0.21094-0.88281 0.23828-1.5664-0.15625 0.19922-0.33203 0.35938-0.51562 0.46484-0.33203 0.19922-0.74219 0.30078-1.2266 0.30078-0.72656 0-1.3555-0.25391-1.918-0.74609-0.5625-0.49219-0.83203-1.2148-0.83203-2.1563zm3.1367 1.457c0.25 0 0.47656-0.07031 0.69531-0.21094 0.39844-0.26562 0.60156-0.71094 0.60156-1.3438 0-0.51172-0.12109-0.92188-0.35547-1.2227-0.24219-0.30469-0.57031-0.44531-0.98828-0.44531-0.30469 0-0.56641 0.082031-0.77734 0.25391-0.33984 0.26562-0.51172 0.72266-0.51172 1.3555 0 0.53906 0.11328 0.9375 0.32422 1.2031 0.22266 0.27344 0.5625 0.41016 1.0117 0.41016z"/>
</svg>
