<?xml version="1.0" encoding="UTF-8"?>
<svg xmlns="http://www.w3.org/2000/svg" xmlns:xlink="http://www.w3.org/1999/xlink" width="14" height="10.5" viewBox="0 0 14 10.5">
<path fill-rule="nonzero" fill="rgb(100%, 100%, 100%)" fill-opacity="1" stroke-width="2" stroke-linecap="butt" stroke-linejoin="miter" stroke="rgb(100%, 0%, 0%)" stroke-opacity="1" stroke-miterlimit="4" d="M 0.998884 0.998884 L 19.001116 0.998884 L 19.001116 14.001116 L 0.998884 14.001116 Z M 0.998884 0.998884 " transform="matrix(0.7, 0, 0, 0.7, 0, 0)"/>
<path fill-rule="nonzero" fill="rgb(0%, 0%, 0%)" fill-opacity="1" d="M 4.914062 3.457031 C 4.515625 3.457031 4.203125 3.605469 3.980469 3.902344 C 3.761719 4.199219 3.648438 4.617188 3.648438 5.152344 C 3.648438 5.6875 3.761719 6.105469 3.980469 6.402344 C 4.203125 6.699219 4.515625 6.84375 4.914062 6.84375 C 5.320312 6.84375 5.628906 6.699219 5.851562 6.402344 C 6.074219 6.105469 6.183594 5.6875 6.183594 5.152344 C 6.183594 4.617188 6.074219 4.199219 5.851562 3.902344 C 5.628906 3.605469 5.320312 3.457031 4.914062 3.457031 Z M 4.914062 2.503906 C 5.734375 2.503906 6.378906 2.738281 6.84375 3.207031 C 7.308594 3.679688 7.539062 4.328125 7.539062 5.152344 C 7.539062 5.976562 7.308594 6.625 6.84375 7.09375 C 6.378906 7.5625 5.734375 7.800781 4.914062 7.800781 C 4.097656 7.800781 3.453125 7.5625 2.988281 7.09375 C 2.523438 6.625 2.289062 5.976562 2.289062 5.152344 C 2.289062 4.328125 2.523438 3.679688 2.988281 3.207031 C 3.453125 2.738281 4.097656 2.503906 4.914062 2.503906 Z M 11.472656 3.992188 L 11.472656 4.921875 C 11.207031 4.8125 10.957031 4.730469 10.710938 4.675781 C 10.46875 4.621094 10.238281 4.59375 10.019531 4.59375 C 9.789062 4.59375 9.617188 4.621094 9.503906 4.683594 C 9.390625 4.738281 9.335938 4.828125 9.335938 4.949219 C 9.335938 5.046875 9.375 5.121094 9.460938 5.175781 C 9.546875 5.226562 9.703125 5.265625 9.921875 5.289062 L 10.136719 5.320312 C 10.765625 5.402344 11.1875 5.53125 11.402344 5.714844 C 11.617188 5.894531 11.726562 6.183594 11.726562 6.570312 C 11.726562 6.980469 11.578125 7.285156 11.277344 7.492188 C 10.976562 7.695312 10.527344 7.800781 9.929688 7.800781 C 9.675781 7.800781 9.414062 7.777344 9.144531 7.738281 C 8.875 7.699219 8.597656 7.640625 8.3125 7.558594 L 8.3125 6.628906 C 8.554688 6.75 8.804688 6.835938 9.0625 6.898438 C 9.320312 6.957031 9.578125 6.984375 9.84375 6.984375 C 10.082031 6.984375 10.261719 6.953125 10.382812 6.886719 C 10.503906 6.820312 10.566406 6.722656 10.566406 6.59375 C 10.566406 6.484375 10.523438 6.402344 10.4375 6.351562 C 10.355469 6.296875 10.191406 6.253906 9.941406 6.222656 L 9.726562 6.195312 C 9.183594 6.128906 8.800781 6 8.582031 5.816406 C 8.363281 5.632812 8.253906 5.351562 8.253906 4.976562 C 8.253906 4.570312 8.394531 4.269531 8.671875 4.074219 C 8.949219 3.878906 9.375 3.78125 9.949219 3.78125 C 10.175781 3.78125 10.414062 3.796875 10.660156 3.832031 C 10.910156 3.863281 11.179688 3.917969 11.472656 3.992188 Z M 11.472656 3.992188 "/>
</svg>
