<?xml version="1.0" encoding="UTF-8"?>
<svg xmlns="http://www.w3.org/2000/svg" xmlns:xlink="http://www.w3.org/1999/xlink" width="14" height="24.577231" viewBox="0 0 14 24.577231">
<path fill-rule="nonzero" fill="rgb(0.392157%, 25.098039%, 69.803922%)" fill-opacity="1" d="M 0 0 L 14 0 L 14 14 L 0 14 Z M 0 0 "/>
<path fill-rule="evenodd" fill="rgb(100%, 100%, 100%)" fill-opacity="1" d="M 4.679688 0.585938 L 4.679688 6.9375 L 0.644531 6.9375 L 7 14 L 13.355469 6.9375 L 9.320312 6.9375 L 9.320312 0.585938 Z M 4.679688 0.585938 "/>
<path fill-rule="evenodd" fill="rgb(98.039216%, 98.039216%, 9.019608%)" fill-opacity="1" d="M 5.386719 0.585938 L 5.386719 7.644531 L 2.230469 7.644531 L 7 12.945312 L 11.765625 7.644531 L 8.613281 7.644531 L 8.613281 0.585938 Z M 5.386719 0.585938 "/>
<path fill-rule="nonzero" fill="rgb(0%, 0%, 0%)" fill-opacity="1" d="M 2.183594 14.945312 L 11.816406 14.945312 L 11.816406 24.578125 L 2.183594 24.578125 Z M 2.183594 14.945312 "/>
<path fill-rule="nonzero" fill="rgb(100%, 100%, 100%)" fill-opacity="1" d="M 10.410156 19.761719 C 10.410156 21.644531 8.882812 23.171875 7 23.171875 C 5.117188 23.171875 3.589844 21.644531 3.589844 19.761719 C 3.589844 17.878906 5.117188 16.351562 7 16.351562 C 8.882812 16.351562 10.410156 17.878906 10.410156 19.761719 Z M 10.410156 19.761719 "/>
</svg>
