<?xml version="1.0" encoding="UTF-8"?>
<svg xmlns="http://www.w3.org/2000/svg" xmlns:xlink="http://www.w3.org/1999/xlink" width="14" height="24.57723" viewBox="0 0 14 24.57723">
<path fill-rule="nonzero" fill="rgb(0.392157%, 25.098039%, 69.803922%)" fill-opacity="1" d="M 0 0 L 14 0 L 14 14 L 0 14 Z M 0 0 "/>
<path fill-rule="evenodd" fill="rgb(100%, 100%, 100%)" fill-opacity="1" d="M 0.644531 0 L 0.644531 14 L 13.941406 6.914062 Z M 0.644531 0 "/>
<path fill-rule="evenodd" fill="rgb(98.039216%, 98.039216%, 9.019608%)" fill-opacity="1" d="M 0.644531 0.964844 L 0.644531 13.039062 L 12.019531 6.910156 Z M 0.644531 0.964844 "/>
<path fill-rule="nonzero" fill="rgb(0%, 0%, 0%)" fill-opacity="1" d="M 2.183594 14.945312 L 11.816406 14.945312 L 11.816406 24.578125 L 2.183594 24.578125 Z M 2.183594 14.945312 "/>
<path fill-rule="nonzero" fill="rgb(100%, 100%, 100%)" fill-opacity="1" d="M 10.410156 19.761719 C 10.410156 21.644531 8.882812 23.171875 7 23.171875 C 5.117188 23.171875 3.589844 21.644531 3.589844 19.761719 C 3.589844 17.878906 5.117188 16.351562 7 16.351562 C 8.882812 16.351562 10.410156 17.878906 10.410156 19.761719 Z M 10.410156 19.761719 "/>
</svg>
