<?xml version="1.0" encoding="UTF-8"?>
<svg xmlns="http://www.w3.org/2000/svg" xmlns:xlink="http://www.w3.org/1999/xlink" width="23.181611" height="18" viewBox="0 0 23.181611 18">
<path fill-rule="nonzero" fill="rgb(14.901961%, 14.901961%, 14.901961%)" fill-opacity="1" d="M 18.480469 4.457031 L 22.386719 8.359375 L 13.542969 17.207031 L 9.636719 13.300781 Z M 18.480469 4.457031 "/>
<path fill-rule="nonzero" fill="rgb(14.901961%, 14.901961%, 14.901961%)" fill-opacity="1" d="M 13.542969 17.207031 C 12.476562 18.273438 10.734375 18.261719 9.660156 17.1875 C 8.582031 16.105469 8.570312 14.367188 9.636719 13.300781 C 10.707031 12.234375 12.445312 12.242188 13.523438 13.320312 C 14.601562 14.398438 14.609375 16.136719 13.542969 17.207031 Z M 13.542969 17.207031 "/>
<path fill-rule="nonzero" fill="rgb(14.901961%, 14.901961%, 14.901961%)" fill-opacity="1" d="M 9.640625 17.207031 C 10.707031 18.273438 12.445312 18.261719 13.523438 17.1875 C 14.601562 16.105469 14.609375 14.367188 13.542969 13.300781 C 12.476562 12.234375 10.734375 12.242188 9.65625 13.320312 C 8.582031 14.398438 8.570312 16.136719 9.640625 17.207031 Z M 9.640625 17.207031 "/>
<path fill-rule="nonzero" fill="rgb(14.901961%, 14.901961%, 14.901961%)" fill-opacity="1" d="M 14.335938 15.238281 C 14.335938 16.75 13.101562 17.972656 11.578125 17.972656 C 10.050781 17.972656 8.816406 16.75 8.816406 15.238281 C 8.816406 13.730469 10.050781 12.507812 11.578125 12.507812 C 13.101562 12.507812 14.335938 13.730469 14.335938 15.238281 Z M 14.335938 15.238281 "/>
<path fill-rule="nonzero" fill="rgb(66.27451%, 66.27451%, 66.27451%)" fill-opacity="1" d="M 13.664062 15.238281 C 13.664062 16.410156 12.722656 17.367188 11.5625 17.367188 C 10.402344 17.367188 9.460938 16.410156 9.460938 15.238281 C 9.460938 14.066406 10.402344 13.117188 11.5625 13.117188 C 12.722656 13.117188 13.664062 14.066406 13.664062 15.238281 Z M 13.664062 15.238281 "/>
<path fill-rule="nonzero" fill="rgb(14.901961%, 14.901961%, 14.901961%)" fill-opacity="1" d="M 22.386719 8.359375 C 21.320312 9.429688 19.578125 9.417969 18.503906 8.34375 C 17.421875 7.265625 17.414062 5.523438 18.480469 4.457031 C 19.550781 3.390625 21.289062 3.398438 22.367188 4.476562 C 23.445312 5.554688 23.453125 7.292969 22.386719 8.359375 Z M 22.386719 8.359375 "/>
<path fill-rule="nonzero" fill="rgb(66.27451%, 66.27451%, 66.27451%)" fill-opacity="1" d="M 21.910156 7.882812 C 21.082031 8.710938 19.742188 8.722656 18.917969 7.902344 C 18.101562 7.082031 18.113281 5.742188 18.941406 4.914062 C 19.769531 4.082031 21.105469 4.078125 21.925781 4.898438 C 22.746094 5.71875 22.742188 7.054688 21.910156 7.882812 Z M 21.910156 7.882812 "/>
</svg>
