<?xml version="1.0" encoding="UTF-8"?>
<svg xmlns="http://www.w3.org/2000/svg" xmlns:xlink="http://www.w3.org/1999/xlink" width="23.181611" height="18" viewBox="0 0 23.181611 18">
<path fill-rule="nonzero" fill="rgb(14.901961%, 14.901961%, 14.901961%)" fill-opacity="1" d="M 13.542969 17.207031 C 12.476562 18.273438 10.734375 18.261719 9.660156 17.1875 C 8.582031 16.105469 8.570312 14.367188 9.636719 13.300781 C 10.707031 12.234375 12.445312 12.242188 13.523438 13.320312 C 14.601562 14.398438 14.609375 16.136719 13.542969 17.207031 Z M 13.542969 17.207031 "/>
<path fill-rule="nonzero" fill="rgb(14.901961%, 14.901961%, 14.901961%)" fill-opacity="1" d="M 9.640625 17.207031 C 10.707031 18.273438 12.445312 18.261719 13.523438 17.1875 C 14.601562 16.105469 14.609375 14.367188 13.542969 13.300781 C 12.476562 12.234375 10.734375 12.242188 9.65625 13.320312 C 8.582031 14.398438 8.570312 16.136719 9.640625 17.207031 Z M 9.640625 17.207031 "/>
<path fill-rule="nonzero" fill="rgb(14.901961%, 14.901961%, 14.901961%)" fill-opacity="1" d="M 8.816406 2.730469 L 14.335938 2.730469 L 14.335938 15.238281 L 8.816406 15.238281 Z M 8.816406 2.730469 "/>
<path fill-rule="nonzero" fill="rgb(14.901961%, 14.901961%, 14.901961%)" fill-opacity="1" d="M 14.335938 15.238281 C 14.335938 16.75 13.101562 17.972656 11.578125 17.972656 C 10.050781 17.972656 8.816406 16.75 8.816406 15.238281 C 8.816406 13.730469 10.050781 12.507812 11.578125 12.507812 C 13.101562 12.507812 14.335938 13.730469 14.335938 15.238281 Z M 14.335938 15.238281 "/>
<path fill-rule="nonzero" fill="rgb(14.901961%, 14.901961%, 14.901961%)" fill-opacity="1" d="M 14.335938 2.730469 C 14.335938 4.242188 13.101562 5.464844 11.578125 5.464844 C 10.050781 5.464844 8.816406 4.242188 8.816406 2.730469 C 8.816406 1.222656 10.050781 0 11.578125 0 C 13.101562 0 14.335938 1.222656 14.335938 2.730469 Z M 14.335938 2.730469 "/>
<path fill-rule="nonzero" fill="rgb(66.27451%, 66.27451%, 66.27451%)" fill-opacity="1" d="M 13.664062 15.238281 C 13.664062 16.410156 12.722656 17.367188 11.5625 17.367188 C 10.402344 17.367188 9.460938 16.410156 9.460938 15.238281 C 9.460938 14.066406 10.402344 13.117188 11.5625 13.117188 C 12.722656 13.117188 13.664062 14.066406 13.664062 15.238281 Z M 13.664062 15.238281 "/>
<path fill-rule="nonzero" fill="rgb(66.27451%, 66.27451%, 66.27451%)" fill-opacity="1" d="M 13.664062 2.730469 C 13.664062 3.902344 12.722656 4.859375 11.5625 4.859375 C 10.402344 4.859375 9.460938 3.902344 9.460938 2.730469 C 9.460938 1.558594 10.402344 0.609375 11.5625 0.609375 C 12.722656 0.609375 13.664062 1.558594 13.664062 2.730469 Z M 13.664062 2.730469 "/>
</svg>
