<?xml version="1.0" encoding="UTF-8"?>
<svg xmlns="http://www.w3.org/2000/svg" xmlns:xlink="http://www.w3.org/1999/xlink" width="18" height="17.723079" viewBox="0 0 18 17.723079">
<path fill="none" stroke-width="0.363416" stroke-linecap="butt" stroke-linejoin="miter" stroke="rgb(0%, 0%, 0%)" stroke-opacity="1" stroke-miterlimit="4" d="M 0.183984 0.183984 L 15.81224 0.183984 L 15.81224 15.56577 L 0.183984 15.56577 Z M 0.183984 0.183984 " transform="matrix(1.125266, 0, 0, 1.125266, 0, 0)"/>
<path fill-rule="nonzero" fill="rgb(100%, 100%, 100%)" fill-opacity="1" d="M 0.207031 0.207031 L 17.792969 0.207031 L 17.792969 17.515625 L 0.207031 17.515625 Z M 0.207031 0.207031 "/>
<path fill-rule="nonzero" fill="rgb(0%, 0%, 0%)" fill-opacity="1" d="M 15.847656 16.46875 L 15.847656 11.601562 C 15.847656 7.347656 15.695312 6.265625 14.960938 5.007812 C 13.753906 3.015625 11.566406 1.851562 8.996094 1.851562 C 6.625 1.851562 4.667969 2.789062 3.382812 4.558594 C 2.328125 5.953125 2.152344 6.976562 2.152344 11.601562 L 2.152344 16.46875 L 4.152344 16.46875 L 4.152344 11.507812 C 4.152344 8.292969 4.328125 6.953125 4.835938 5.980469 C 5.601562 4.558594 7.253906 3.585938 8.996094 3.585938 C 10.621094 3.585938 12.195312 4.40625 13.015625 5.722656 C 13.671875 6.75 13.847656 7.921875 13.847656 11.507812 L 13.847656 16.46875 Z M 15.847656 16.46875 "/>
<path fill-rule="nonzero" fill="rgb(0%, 0%, 0%)" fill-opacity="1" d="M 8.09375 12.484375 C 8.09375 12.15625 8.125 11.875 8.1875 11.644531 C 8.253906 11.402344 8.367188 11.171875 8.523438 10.957031 C 8.683594 10.742188 8.90625 10.519531 9.179688 10.285156 C 9.515625 10 9.777344 9.765625 9.957031 9.574219 C 10.144531 9.386719 10.28125 9.199219 10.355469 9.019531 C 10.433594 8.839844 10.472656 8.617188 10.472656 8.359375 C 10.472656 7.945312 10.339844 7.628906 10.074219 7.402344 C 9.804688 7.179688 9.417969 7.066406 8.910156 7.066406 C 8.488281 7.066406 8.113281 7.125 7.785156 7.234375 C 7.457031 7.339844 7.144531 7.464844 6.839844 7.609375 L 6.441406 6.707031 C 6.785156 6.523438 7.164062 6.375 7.578125 6.253906 C 8 6.132812 8.46875 6.070312 8.988281 6.070312 C 9.804688 6.070312 10.4375 6.273438 10.886719 6.679688 C 11.335938 7.085938 11.558594 7.636719 11.558594 8.332031 C 11.558594 8.722656 11.496094 9.054688 11.363281 9.328125 C 11.246094 9.597656 11.066406 9.847656 10.835938 10.078125 C 10.609375 10.304688 10.34375 10.542969 10.035156 10.800781 C 9.75 11.042969 9.53125 11.253906 9.375 11.4375 C 9.226562 11.617188 9.128906 11.796875 9.078125 11.980469 C 9.027344 12.152344 9 12.363281 9 12.613281 L 9 12.832031 L 8.09375 12.832031 Z M 7.796875 14.730469 C 7.796875 14.414062 7.871094 14.1875 8.019531 14.058594 C 8.171875 13.929688 8.367188 13.867188 8.597656 13.867188 C 8.816406 13.867188 9 13.929688 9.15625 14.058594 C 9.308594 14.1875 9.386719 14.414062 9.386719 14.730469 C 9.386719 15.042969 9.308594 15.265625 9.15625 15.402344 C 9 15.542969 8.816406 15.609375 8.597656 15.609375 C 8.367188 15.609375 8.171875 15.542969 8.019531 15.402344 C 7.871094 15.265625 7.796875 15.042969 7.796875 14.730469 Z M 7.796875 14.730469 "/>
</svg>
