<?xml version="1.0" encoding="UTF-8"?>
<svg xmlns="http://www.w3.org/2000/svg" xmlns:xlink="http://www.w3.org/1999/xlink" width="18" height="17.723079" viewBox="0 0 18 17.723079">
<path fill="none" stroke-width="0.363416" stroke-linecap="butt" stroke-linejoin="miter" stroke="rgb(0%, 0%, 0%)" stroke-opacity="1" stroke-miterlimit="4" d="M 0.183984 0.183984 L 15.81224 0.183984 L 15.81224 15.56577 L 0.183984 15.56577 Z M 0.183984 0.183984 " transform="matrix(1.125266, 0, 0, 1.125266, 0, 0)"/>
<path fill-rule="nonzero" fill="rgb(100%, 100%, 100%)" fill-opacity="1" d="M 0.207031 0.207031 L 17.792969 0.207031 L 17.792969 17.515625 L 0.207031 17.515625 Z M 0.207031 0.207031 "/>
<path fill-rule="nonzero" fill="rgb(0%, 0%, 0%)" fill-opacity="1" d="M 15.847656 16.46875 L 15.847656 11.601562 C 15.847656 7.347656 15.695312 6.265625 14.960938 5.007812 C 13.753906 3.015625 11.566406 1.851562 8.996094 1.851562 C 6.625 1.851562 4.667969 2.789062 3.382812 4.558594 C 2.328125 5.953125 2.152344 6.976562 2.152344 11.601562 L 2.152344 16.46875 L 4.152344 16.46875 L 4.152344 11.507812 C 4.152344 8.292969 4.328125 6.953125 4.835938 5.980469 C 5.601562 4.558594 7.253906 3.585938 8.996094 3.585938 C 10.621094 3.585938 12.195312 4.40625 13.015625 5.722656 C 13.671875 6.75 13.847656 7.921875 13.847656 11.507812 L 13.847656 16.46875 Z M 15.847656 16.46875 "/>
<path fill-rule="nonzero" fill="rgb(0%, 0%, 0%)" fill-opacity="1" d="M 8.992188 6.019531 C 9.816406 6.019531 10.492188 6.210938 11.015625 6.597656 C 11.542969 6.984375 11.804688 7.539062 11.804688 8.265625 C 11.804688 8.644531 11.722656 8.972656 11.554688 9.25 C 11.398438 9.53125 11.183594 9.78125 10.910156 10 C 10.640625 10.210938 10.34375 10.398438 10.019531 10.566406 C 10.402344 10.75 10.753906 10.960938 11.070312 11.195312 C 11.382812 11.421875 11.632812 11.691406 11.816406 11.996094 C 12.011719 12.304688 12.105469 12.671875 12.105469 13.101562 C 12.105469 13.890625 11.828125 14.515625 11.265625 14.980469 C 10.714844 15.433594 9.96875 15.664062 9.03125 15.664062 C 8.027344 15.664062 7.25 15.445312 6.707031 15.007812 C 6.164062 14.558594 5.894531 13.9375 5.894531 13.140625 C 5.894531 12.710938 5.980469 12.339844 6.15625 12.023438 C 6.339844 11.707031 6.582031 11.4375 6.878906 11.210938 C 7.175781 10.980469 7.496094 10.789062 7.835938 10.632812 C 7.382812 10.367188 6.992188 10.054688 6.667969 9.683594 C 6.351562 9.308594 6.195312 8.832031 6.195312 8.253906 C 6.195312 7.769531 6.316406 7.367188 6.5625 7.042969 C 6.808594 6.710938 7.140625 6.457031 7.5625 6.28125 C 7.980469 6.105469 8.460938 6.019531 8.992188 6.019531 Z M 8.980469 6.953125 C 8.5 6.953125 8.101562 7.070312 7.785156 7.308594 C 7.476562 7.535156 7.324219 7.867188 7.324219 8.304688 C 7.324219 8.628906 7.398438 8.902344 7.546875 9.121094 C 7.707031 9.339844 7.917969 9.527344 8.179688 9.683594 C 8.441406 9.835938 8.730469 9.980469 9.046875 10.117188 C 9.5 9.925781 9.882812 9.695312 10.1875 9.421875 C 10.503906 9.152344 10.660156 8.777344 10.660156 8.304688 C 10.660156 7.867188 10.507812 7.535156 10.203125 7.308594 C 9.894531 7.070312 9.488281 6.953125 8.980469 6.953125 Z M 7.023438 13.152344 C 7.023438 13.609375 7.183594 13.988281 7.507812 14.296875 C 7.832031 14.59375 8.332031 14.742188 9.007812 14.742188 C 9.644531 14.742188 10.132812 14.59375 10.464844 14.296875 C 10.804688 13.988281 10.976562 13.597656 10.976562 13.113281 C 10.976562 12.660156 10.796875 12.28125 10.4375 11.984375 C 10.078125 11.675781 9.601562 11.410156 9.007812 11.183594 L 8.796875 11.105469 C 8.21875 11.347656 7.777344 11.632812 7.46875 11.957031 C 7.171875 12.273438 7.023438 12.671875 7.023438 13.152344 Z M 7.023438 13.152344 "/>
</svg>
