<?xml version="1.0" encoding="UTF-8"?>
<svg xmlns="http://www.w3.org/2000/svg" xmlns:xlink="http://www.w3.org/1999/xlink" width="18" height="17.723079" viewBox="0 0 18 17.723079">
<path fill="none" stroke-width="0.363416" stroke-linecap="butt" stroke-linejoin="miter" stroke="rgb(0%, 0%, 0%)" stroke-opacity="1" stroke-miterlimit="4" d="M 0.183984 0.183984 L 15.81224 0.183984 L 15.81224 15.56577 L 0.183984 15.56577 Z M 0.183984 0.183984 " transform="matrix(1.125266, 0, 0, 1.125266, 0, 0)"/>
<path fill-rule="nonzero" fill="rgb(100%, 100%, 100%)" fill-opacity="1" d="M 0.207031 0.207031 L 17.792969 0.207031 L 17.792969 17.515625 L 0.207031 17.515625 Z M 0.207031 0.207031 "/>
<path fill-rule="nonzero" fill="rgb(0%, 0%, 0%)" fill-opacity="1" d="M 15.847656 16.46875 L 15.847656 11.601562 C 15.847656 7.347656 15.695312 6.265625 14.960938 5.007812 C 13.753906 3.015625 11.566406 1.851562 8.996094 1.851562 C 6.625 1.851562 4.667969 2.789062 3.382812 4.558594 C 2.328125 5.953125 2.152344 6.976562 2.152344 11.601562 L 2.152344 16.46875 L 4.152344 16.46875 L 4.152344 11.507812 C 4.152344 8.292969 4.328125 6.953125 4.835938 5.980469 C 5.601562 4.558594 7.253906 3.585938 8.996094 3.585938 C 10.621094 3.585938 12.195312 4.40625 13.015625 5.722656 C 13.671875 6.75 13.847656 7.921875 13.847656 11.507812 L 13.847656 16.46875 Z M 15.847656 16.46875 "/>
<path fill-rule="nonzero" fill="rgb(0%, 0%, 0%)" fill-opacity="1" d="M 8.816406 9.777344 C 9.78125 9.777344 10.546875 10.019531 11.113281 10.5 C 11.683594 10.980469 11.96875 11.660156 11.96875 12.535156 C 11.96875 13.507812 11.660156 14.273438 11.035156 14.835938 C 10.421875 15.386719 9.566406 15.664062 8.460938 15.664062 C 7.980469 15.664062 7.523438 15.617188 7.09375 15.53125 C 6.675781 15.445312 6.320312 15.316406 6.03125 15.152344 L 6.03125 14.058594 C 6.347656 14.253906 6.726562 14.40625 7.175781 14.519531 C 7.628906 14.625 8.0625 14.675781 8.472656 14.675781 C 9.167969 14.675781 9.722656 14.515625 10.144531 14.191406 C 10.570312 13.859375 10.785156 13.347656 10.785156 12.652344 C 10.785156 12.042969 10.597656 11.574219 10.222656 11.25 C 9.84375 10.914062 9.25 10.75 8.433594 10.75 C 8.191406 10.75 7.910156 10.769531 7.59375 10.816406 C 7.277344 10.859375 7.023438 10.902344 6.832031 10.945312 L 6.253906 10.578125 L 6.609375 6.152344 L 11.3125 6.152344 L 11.3125 7.203125 L 7.59375 7.203125 L 7.371094 9.921875 C 7.519531 9.894531 7.722656 9.863281 7.976562 9.828125 C 8.230469 9.792969 8.507812 9.777344 8.816406 9.777344 Z M 8.816406 9.777344 "/>
</svg>
