<?xml version="1.0" encoding="UTF-8"?>
<svg xmlns="http://www.w3.org/2000/svg" xmlns:xlink="http://www.w3.org/1999/xlink" width="18" height="17.723079" viewBox="0 0 18 17.723079">
<path fill="none" stroke-width="0.363416" stroke-linecap="butt" stroke-linejoin="miter" stroke="rgb(0%, 0%, 0%)" stroke-opacity="1" stroke-miterlimit="4" d="M 0.183984 0.183984 L 15.81224 0.183984 L 15.81224 15.56577 L 0.183984 15.56577 Z M 0.183984 0.183984 " transform="matrix(1.125266, 0, 0, 1.125266, 0, 0)"/>
<path fill-rule="nonzero" fill="rgb(100%, 100%, 100%)" fill-opacity="1" d="M 0.207031 0.207031 L 17.792969 0.207031 L 17.792969 17.515625 L 0.207031 17.515625 Z M 0.207031 0.207031 "/>
<path fill-rule="nonzero" fill="rgb(0%, 0%, 0%)" fill-opacity="1" d="M 15.847656 16.46875 L 15.847656 11.601562 C 15.847656 7.347656 15.695312 6.265625 14.960938 5.007812 C 13.753906 3.015625 11.566406 1.851562 8.996094 1.851562 C 6.625 1.851562 4.667969 2.789062 3.382812 4.558594 C 2.328125 5.953125 2.152344 6.976562 2.152344 11.601562 L 2.152344 16.46875 L 4.152344 16.46875 L 4.152344 11.507812 C 4.152344 8.292969 4.328125 6.953125 4.835938 5.980469 C 5.601562 4.558594 7.253906 3.585938 8.996094 3.585938 C 10.621094 3.585938 12.195312 4.40625 13.015625 5.722656 C 13.671875 6.75 13.847656 7.921875 13.847656 11.507812 L 13.847656 16.46875 Z M 15.847656 16.46875 "/>
<path fill-rule="nonzero" fill="rgb(0%, 0%, 0%)" fill-opacity="1" d="M 5.914062 11.523438 C 5.914062 10.851562 5.96875 10.1875 6.082031 9.539062 C 6.207031 8.882812 6.421875 8.292969 6.726562 7.765625 C 7.042969 7.234375 7.480469 6.808594 8.039062 6.492188 C 8.601562 6.175781 9.324219 6.019531 10.207031 6.019531 C 10.394531 6.019531 10.59375 6.027344 10.8125 6.046875 C 11.039062 6.0625 11.226562 6.09375 11.363281 6.136719 L 11.363281 7.125 C 11.207031 7.070312 11.027344 7.03125 10.824219 7.003906 C 10.632812 6.980469 10.4375 6.964844 10.234375 6.964844 C 9.628906 6.964844 9.128906 7.066406 8.722656 7.269531 C 8.320312 7.46875 8 7.746094 7.765625 8.09375 C 7.539062 8.445312 7.371094 8.847656 7.265625 9.304688 C 7.160156 9.757812 7.09375 10.246094 7.070312 10.761719 L 7.148438 10.761719 C 7.347656 10.457031 7.628906 10.199219 7.988281 9.988281 C 8.347656 9.769531 8.808594 9.660156 9.367188 9.660156 C 10.183594 9.660156 10.839844 9.910156 11.339844 10.40625 C 11.835938 10.898438 12.085938 11.597656 12.085938 12.507812 C 12.085938 13.492188 11.816406 14.261719 11.273438 14.820312 C 10.738281 15.382812 10.015625 15.664062 9.105469 15.664062 C 8.507812 15.664062 7.972656 15.515625 7.488281 15.214844 C 7.007812 14.917969 6.621094 14.464844 6.332031 13.851562 C 6.054688 13.238281 5.914062 12.460938 5.914062 11.523438 Z M 9.09375 14.691406 C 9.644531 14.691406 10.089844 14.515625 10.433594 14.164062 C 10.773438 13.804688 10.945312 13.253906 10.945312 12.507812 C 10.945312 11.914062 10.792969 11.441406 10.484375 11.089844 C 10.1875 10.742188 9.734375 10.566406 9.132812 10.566406 C 8.71875 10.566406 8.359375 10.652344 8.054688 10.828125 C 7.746094 10.996094 7.507812 11.210938 7.332031 11.472656 C 7.164062 11.734375 7.082031 12.007812 7.082031 12.285156 C 7.082031 12.664062 7.15625 13.039062 7.304688 13.417969 C 7.453125 13.785156 7.675781 14.089844 7.976562 14.335938 C 8.273438 14.574219 8.644531 14.691406 9.09375 14.691406 Z M 9.09375 14.691406 "/>
</svg>
