<?xml version="1.0" encoding="UTF-8"?>
<svg xmlns="http://www.w3.org/2000/svg" xmlns:xlink="http://www.w3.org/1999/xlink" width="18" height="17.723079" viewBox="0 0 18 17.723079">
<path fill="none" stroke-width="0.363416" stroke-linecap="butt" stroke-linejoin="miter" stroke="rgb(0%, 0%, 0%)" stroke-opacity="1" stroke-miterlimit="4" d="M 0.183984 0.183984 L 15.81224 0.183984 L 15.81224 15.56577 L 0.183984 15.56577 Z M 0.183984 0.183984 " transform="matrix(1.125266, 0, 0, 1.125266, 0, 0)"/>
<path fill-rule="nonzero" fill="rgb(100%, 100%, 100%)" fill-opacity="1" d="M 0.207031 0.207031 L 17.792969 0.207031 L 17.792969 17.515625 L 0.207031 17.515625 Z M 0.207031 0.207031 "/>
<path fill-rule="nonzero" fill="rgb(0%, 0%, 0%)" fill-opacity="1" d="M 15.847656 16.46875 L 15.847656 11.601562 C 15.847656 7.347656 15.695312 6.265625 14.960938 5.007812 C 13.753906 3.015625 11.566406 1.851562 8.996094 1.851562 C 6.625 1.851562 4.667969 2.789062 3.382812 4.558594 C 2.328125 5.953125 2.152344 6.976562 2.152344 11.601562 L 2.152344 16.46875 L 4.152344 16.46875 L 4.152344 11.507812 C 4.152344 8.292969 4.328125 6.953125 4.835938 5.980469 C 5.601562 4.558594 7.253906 3.585938 8.996094 3.585938 C 10.621094 3.585938 12.195312 4.40625 13.015625 5.722656 C 13.671875 6.75 13.847656 7.921875 13.847656 11.507812 L 13.847656 16.46875 Z M 15.847656 16.46875 "/>
<path fill-rule="nonzero" fill="rgb(0%, 0%, 0%)" fill-opacity="1" d="M 11.796875 8.34375 C 11.796875 8.976562 11.625 9.480469 11.273438 9.855469 C 10.921875 10.222656 10.449219 10.46875 9.855469 10.589844 L 9.855469 10.644531 C 10.605469 10.730469 11.167969 10.96875 11.535156 11.355469 C 11.902344 11.738281 12.085938 12.242188 12.085938 12.863281 C 12.085938 13.40625 11.960938 13.894531 11.707031 14.324219 C 11.453125 14.742188 11.058594 15.070312 10.523438 15.308594 C 10 15.542969 9.320312 15.664062 8.488281 15.664062 C 7.996094 15.664062 7.542969 15.625 7.121094 15.542969 C 6.699219 15.472656 6.296875 15.34375 5.914062 15.152344 L 5.914062 14.074219 C 6.308594 14.265625 6.730469 14.417969 7.1875 14.53125 C 7.640625 14.636719 8.082031 14.691406 8.5 14.691406 C 9.339844 14.691406 9.945312 14.527344 10.3125 14.203125 C 10.691406 13.871094 10.878906 13.417969 10.878906 12.839844 C 10.878906 12.25 10.648438 11.832031 10.183594 11.578125 C 9.726562 11.3125 9.082031 11.183594 8.25 11.183594 L 7.34375 11.183594 L 7.34375 10.199219 L 8.265625 10.199219 C 9.035156 10.199219 9.617188 10.035156 10.011719 9.710938 C 10.414062 9.386719 10.617188 8.957031 10.617188 8.425781 C 10.617188 7.96875 10.460938 7.617188 10.15625 7.371094 C 9.847656 7.117188 9.433594 6.992188 8.90625 6.992188 C 8.398438 6.992188 7.964844 7.066406 7.605469 7.214844 C 7.25 7.363281 6.894531 7.550781 6.542969 7.78125 L 5.964844 6.992188 C 6.296875 6.730469 6.710938 6.5 7.199219 6.308594 C 7.699219 6.117188 8.265625 6.019531 8.894531 6.019531 C 9.875 6.019531 10.601562 6.238281 11.074219 6.675781 C 11.558594 7.113281 11.796875 7.671875 11.796875 8.34375 Z M 11.796875 8.34375 "/>
</svg>
