<?xml version="1.0" encoding="UTF-8"?>
<svg xmlns="http://www.w3.org/2000/svg" xmlns:xlink="http://www.w3.org/1999/xlink" width="18" height="17.723079" viewBox="0 0 18 17.723079">
<path fill="none" stroke-width="0.363416" stroke-linecap="butt" stroke-linejoin="miter" stroke="rgb(0%, 0%, 0%)" stroke-opacity="1" stroke-miterlimit="4" d="M 0.183984 0.183984 L 15.81224 0.183984 L 15.81224 15.56577 L 0.183984 15.56577 Z M 0.183984 0.183984 " transform="matrix(1.125266, 0, 0, 1.125266, 0, 0)"/>
<path fill-rule="nonzero" fill="rgb(100%, 100%, 100%)" fill-opacity="1" d="M 0.207031 0.207031 L 17.792969 0.207031 L 17.792969 17.515625 L 0.207031 17.515625 Z M 0.207031 0.207031 "/>
<path fill-rule="nonzero" fill="rgb(0%, 0%, 0%)" fill-opacity="1" d="M 15.847656 16.46875 L 15.847656 11.601562 C 15.847656 7.347656 15.695312 6.265625 14.960938 5.007812 C 13.753906 3.015625 11.566406 1.851562 8.996094 1.851562 C 6.625 1.851562 4.667969 2.789062 3.382812 4.558594 C 2.328125 5.953125 2.152344 6.976562 2.152344 11.601562 L 2.152344 16.46875 L 4.152344 16.46875 L 4.152344 11.507812 C 4.152344 8.292969 4.328125 6.953125 4.835938 5.980469 C 5.601562 4.558594 7.253906 3.585938 8.996094 3.585938 C 10.621094 3.585938 12.195312 4.40625 13.015625 5.722656 C 13.671875 6.75 13.847656 7.921875 13.847656 11.507812 L 13.847656 16.46875 Z M 15.847656 16.46875 "/>
<path fill-rule="nonzero" fill="rgb(0%, 0%, 0%)" fill-opacity="1" d="M 7.0625 15.53125 L 10.910156 7.203125 L 5.851562 7.203125 L 5.851562 6.152344 L 12.148438 6.152344 L 12.148438 7.042969 L 8.335938 15.53125 Z M 7.0625 15.53125 "/>
</svg>
