<?xml version="1.0" encoding="UTF-8"?>
<svg xmlns="http://www.w3.org/2000/svg" xmlns:xlink="http://www.w3.org/1999/xlink" width="18" height="20.893128" viewBox="0 0 18 20.893128">
<path fill-rule="nonzero" fill="rgb(100%, 100%, 100%)" fill-opacity="1" stroke-width="0.936349" stroke-linecap="round" stroke-linejoin="round" stroke="rgb(0%, 0%, 0%)" stroke-opacity="1" stroke-miterlimit="4" d="M 0.827651 0.467414 L 12.891113 0.467414 C 13.087606 0.467414 13.251349 0.610318 13.251349 0.782994 L 13.251349 15.135893 C 13.251349 15.314523 13.087606 15.457427 12.891113 15.457427 L 0.827651 15.457427 C 0.628181 15.457427 0.467414 15.314523 0.467414 15.135893 L 0.467414 0.782994 C 0.467414 0.610318 0.628181 0.467414 0.827651 0.467414 Z M 0.827651 0.467414 " transform="matrix(1.312072, 0, 0, 1.312072, 0, 0)"/>
<path fill-rule="nonzero" fill="rgb(0%, 0%, 0%)" fill-opacity="1" d="M 16.808594 2.457031 L 9 4.578125 L 1.191406 2.457031 Z M 16.808594 2.457031 "/>
<path fill-rule="nonzero" fill="rgb(0%, 0%, 0%)" fill-opacity="1" d="M 1.191406 0.820312 L 16.808594 0.820312 L 16.808594 2.457031 L 1.191406 2.457031 Z M 1.191406 0.820312 "/>
<path fill-rule="nonzero" fill="rgb(0%, 0%, 0%)" fill-opacity="1" d="M 16.808594 18.382812 L 9 16.261719 L 1.191406 18.382812 Z M 16.808594 18.382812 "/>
<path fill-rule="nonzero" fill="rgb(0%, 0%, 0%)" fill-opacity="1" d="M 1.191406 20.019531 L 16.808594 20.019531 L 16.808594 18.382812 L 1.191406 18.382812 Z M 1.191406 20.019531 "/>
<path fill-rule="nonzero" fill="rgb(0%, 0%, 0%)" fill-opacity="1" d="M 7.96875 12.316406 C 7.96875 11.941406 8.003906 11.625 8.074219 11.359375 C 8.152344 11.085938 8.277344 10.824219 8.457031 10.578125 C 8.640625 10.332031 8.890625 10.078125 9.207031 9.8125 C 9.589844 9.488281 9.882812 9.21875 10.089844 9.003906 C 10.304688 8.789062 10.457031 8.578125 10.546875 8.371094 C 10.632812 8.164062 10.675781 7.914062 10.675781 7.621094 C 10.675781 7.148438 10.527344 6.785156 10.222656 6.53125 C 9.917969 6.277344 9.476562 6.148438 8.898438 6.148438 C 8.417969 6.148438 7.988281 6.214844 7.617188 6.339844 C 7.242188 6.457031 6.886719 6.601562 6.542969 6.765625 L 6.085938 5.738281 C 6.480469 5.53125 6.910156 5.359375 7.382812 5.222656 C 7.863281 5.085938 8.398438 5.015625 8.984375 5.015625 C 9.917969 5.015625 10.636719 5.246094 11.148438 5.707031 C 11.660156 6.167969 11.914062 6.796875 11.914062 7.589844 C 11.914062 8.03125 11.839844 8.410156 11.691406 8.726562 C 11.554688 9.027344 11.355469 9.3125 11.089844 9.578125 C 10.835938 9.832031 10.53125 10.109375 10.175781 10.402344 C 9.855469 10.675781 9.601562 10.917969 9.425781 11.125 C 9.261719 11.328125 9.148438 11.535156 9.089844 11.742188 C 9.03125 11.9375 9 12.179688 9 12.460938 L 9 12.714844 L 7.96875 12.714844 Z M 7.632812 14.875 C 7.632812 14.511719 7.714844 14.257812 7.882812 14.109375 C 8.058594 13.964844 8.277344 13.890625 8.542969 13.890625 C 8.789062 13.890625 9 13.964844 9.175781 14.109375 C 9.351562 14.257812 9.441406 14.511719 9.441406 14.875 C 9.441406 15.230469 9.351562 15.484375 9.175781 15.640625 C 9 15.796875 8.789062 15.878906 8.542969 15.878906 C 8.277344 15.878906 8.058594 15.796875 7.882812 15.640625 C 7.714844 15.484375 7.632812 15.230469 7.632812 14.875 Z M 7.632812 14.875 "/>
</svg>
