<?xml version="1.0" encoding="UTF-8"?>
<svg xmlns="http://www.w3.org/2000/svg" xmlns:xlink="http://www.w3.org/1999/xlink" width="18" height="20.893128" viewBox="0 0 18 20.893128">
<path fill-rule="nonzero" fill="rgb(100%, 100%, 100%)" fill-opacity="1" stroke-width="0.936349" stroke-linecap="round" stroke-linejoin="round" stroke="rgb(0%, 0%, 0%)" stroke-opacity="1" stroke-miterlimit="4" d="M 0.827651 0.467414 L 12.891113 0.467414 C 13.087606 0.467414 13.251349 0.610318 13.251349 0.782994 L 13.251349 15.135893 C 13.251349 15.314523 13.087606 15.457427 12.891113 15.457427 L 0.827651 15.457427 C 0.628181 15.457427 0.467414 15.314523 0.467414 15.135893 L 0.467414 0.782994 C 0.467414 0.610318 0.628181 0.467414 0.827651 0.467414 Z M 0.827651 0.467414 " transform="matrix(1.312072, 0, 0, 1.312072, 0, 0)"/>
<path fill-rule="nonzero" fill="rgb(0%, 0%, 0%)" fill-opacity="1" d="M 16.808594 2.457031 L 9 4.578125 L 1.191406 2.457031 Z M 16.808594 2.457031 "/>
<path fill-rule="nonzero" fill="rgb(0%, 0%, 0%)" fill-opacity="1" d="M 1.191406 0.820312 L 16.808594 0.820312 L 16.808594 2.457031 L 1.191406 2.457031 Z M 1.191406 0.820312 "/>
<path fill-rule="nonzero" fill="rgb(0%, 0%, 0%)" fill-opacity="1" d="M 16.808594 18.382812 L 9 16.261719 L 1.191406 18.382812 Z M 16.808594 18.382812 "/>
<path fill-rule="nonzero" fill="rgb(0%, 0%, 0%)" fill-opacity="1" d="M 1.191406 20.019531 L 16.808594 20.019531 L 16.808594 18.382812 L 1.191406 18.382812 Z M 1.191406 20.019531 "/>
<path fill-rule="nonzero" fill="rgb(0%, 0%, 0%)" fill-opacity="1" d="M 12.457031 9.679688 C 12.457031 10.4375 12.390625 11.183594 12.253906 11.917969 C 12.125 12.644531 11.882812 13.304688 11.53125 13.90625 C 11.1875 14.492188 10.699219 14.964844 10.058594 15.316406 C 9.433594 15.671875 8.621094 15.847656 7.632812 15.847656 C 7.433594 15.847656 7.203125 15.832031 6.941406 15.804688 C 6.683594 15.785156 6.472656 15.75 6.308594 15.699219 L 6.308594 14.597656 C 6.691406 14.722656 7.121094 14.789062 7.601562 14.789062 C 8.289062 14.789062 8.851562 14.675781 9.292969 14.449219 C 9.746094 14.222656 10.105469 13.917969 10.367188 13.535156 C 10.632812 13.144531 10.824219 12.691406 10.941406 12.183594 C 11.058594 11.664062 11.128906 11.117188 11.148438 10.550781 L 11.058594 10.550781 C 10.84375 10.882812 10.53125 11.171875 10.117188 11.417969 C 9.714844 11.652344 9.195312 11.769531 8.558594 11.769531 C 7.65625 11.769531 6.925781 11.496094 6.367188 10.945312 C 5.816406 10.386719 5.542969 9.601562 5.542969 8.59375 C 5.542969 7.855469 5.679688 7.222656 5.953125 6.695312 C 6.238281 6.164062 6.628906 5.757812 7.132812 5.472656 C 7.632812 5.1875 8.21875 5.046875 8.898438 5.046875 C 9.5625 5.046875 10.167969 5.21875 10.707031 5.5625 C 11.246094 5.894531 11.671875 6.40625 11.988281 7.089844 C 12.300781 7.769531 12.457031 8.632812 12.457031 9.679688 Z M 8.898438 6.132812 C 8.289062 6.132812 7.789062 6.335938 7.394531 6.738281 C 7.011719 7.140625 6.820312 7.753906 6.820312 8.578125 C 6.820312 9.253906 6.984375 9.789062 7.308594 10.183594 C 7.640625 10.5625 8.152344 10.753906 8.839844 10.753906 C 9.308594 10.753906 9.714844 10.664062 10.058594 10.476562 C 10.402344 10.28125 10.667969 10.035156 10.855469 9.738281 C 11.050781 9.445312 11.148438 9.140625 11.148438 8.828125 C 11.148438 8.40625 11.066406 7.988281 10.898438 7.578125 C 10.730469 7.164062 10.480469 6.820312 10.148438 6.546875 C 9.8125 6.273438 9.398438 6.132812 8.898438 6.132812 Z M 8.898438 6.132812 "/>
</svg>
