<?xml version="1.0" encoding="UTF-8"?>
<svg xmlns="http://www.w3.org/2000/svg" xmlns:xlink="http://www.w3.org/1999/xlink" width="18" height="20.893128" viewBox="0 0 18 20.893128">
<path fill-rule="nonzero" fill="rgb(100%, 100%, 100%)" fill-opacity="1" stroke-width="0.936349" stroke-linecap="round" stroke-linejoin="round" stroke="rgb(0%, 0%, 0%)" stroke-opacity="1" stroke-miterlimit="4" d="M 0.827651 0.467414 L 12.891113 0.467414 C 13.087606 0.467414 13.251349 0.610318 13.251349 0.782994 L 13.251349 15.135893 C 13.251349 15.314523 13.087606 15.457427 12.891113 15.457427 L 0.827651 15.457427 C 0.628181 15.457427 0.467414 15.314523 0.467414 15.135893 L 0.467414 0.782994 C 0.467414 0.610318 0.628181 0.467414 0.827651 0.467414 Z M 0.827651 0.467414 " transform="matrix(1.312072, 0, 0, 1.312072, 0, 0)"/>
<path fill-rule="nonzero" fill="rgb(0%, 0%, 0%)" fill-opacity="1" d="M 16.808594 2.457031 L 9 4.578125 L 1.191406 2.457031 Z M 16.808594 2.457031 "/>
<path fill-rule="nonzero" fill="rgb(0%, 0%, 0%)" fill-opacity="1" d="M 1.191406 0.820312 L 16.808594 0.820312 L 16.808594 2.457031 L 1.191406 2.457031 Z M 1.191406 0.820312 "/>
<path fill-rule="nonzero" fill="rgb(0%, 0%, 0%)" fill-opacity="1" d="M 16.808594 18.382812 L 9 16.261719 L 1.191406 18.382812 Z M 16.808594 18.382812 "/>
<path fill-rule="nonzero" fill="rgb(0%, 0%, 0%)" fill-opacity="1" d="M 1.191406 20.019531 L 16.808594 20.019531 L 16.808594 18.382812 L 1.191406 18.382812 Z M 1.191406 20.019531 "/>
<path fill-rule="nonzero" fill="rgb(0%, 0%, 0%)" fill-opacity="1" d="M 6.828125 15.699219 L 11.140625 6.371094 L 5.476562 6.371094 L 5.476562 5.191406 L 12.523438 5.191406 L 12.523438 6.195312 L 8.257812 15.699219 Z M 6.828125 15.699219 "/>
</svg>
