<?xml version="1.0" encoding="UTF-8"?>
<svg xmlns="http://www.w3.org/2000/svg" xmlns:xlink="http://www.w3.org/1999/xlink" width="18" height="20.893128" viewBox="0 0 18 20.893128">
<path fill-rule="nonzero" fill="rgb(100%, 100%, 100%)" fill-opacity="1" stroke-width="0.936349" stroke-linecap="round" stroke-linejoin="round" stroke="rgb(0%, 0%, 0%)" stroke-opacity="1" stroke-miterlimit="4" d="M 0.827651 0.467414 L 12.891113 0.467414 C 13.087606 0.467414 13.251349 0.610318 13.251349 0.782994 L 13.251349 15.135893 C 13.251349 15.314523 13.087606 15.457427 12.891113 15.457427 L 0.827651 15.457427 C 0.628181 15.457427 0.467414 15.314523 0.467414 15.135893 L 0.467414 0.782994 C 0.467414 0.610318 0.628181 0.467414 0.827651 0.467414 Z M 0.827651 0.467414 " transform="matrix(1.312072, 0, 0, 1.312072, 0, 0)"/>
<path fill-rule="nonzero" fill="rgb(0%, 0%, 0%)" fill-opacity="1" d="M 16.808594 2.457031 L 9 4.578125 L 1.191406 2.457031 Z M 16.808594 2.457031 "/>
<path fill-rule="nonzero" fill="rgb(0%, 0%, 0%)" fill-opacity="1" d="M 1.191406 0.820312 L 16.808594 0.820312 L 16.808594 2.457031 L 1.191406 2.457031 Z M 1.191406 0.820312 "/>
<path fill-rule="nonzero" fill="rgb(0%, 0%, 0%)" fill-opacity="1" d="M 16.808594 18.382812 L 9 16.261719 L 1.191406 18.382812 Z M 16.808594 18.382812 "/>
<path fill-rule="nonzero" fill="rgb(0%, 0%, 0%)" fill-opacity="1" d="M 1.191406 20.019531 L 16.808594 20.019531 L 16.808594 18.382812 L 1.191406 18.382812 Z M 1.191406 20.019531 "/>
<path fill-rule="nonzero" fill="rgb(0%, 0%, 0%)" fill-opacity="1" d="M 8.992188 5.046875 C 9.914062 5.046875 10.671875 5.261719 11.257812 5.691406 C 11.847656 6.125 12.140625 6.746094 12.140625 7.5625 C 12.140625 7.984375 12.046875 8.351562 11.863281 8.664062 C 11.6875 8.980469 11.445312 9.257812 11.140625 9.503906 C 10.835938 9.738281 10.503906 9.949219 10.140625 10.136719 C 10.570312 10.34375 10.964844 10.578125 11.316406 10.84375 C 11.671875 11.097656 11.949219 11.398438 12.15625 11.742188 C 12.371094 12.085938 12.480469 12.496094 12.480469 12.976562 C 12.480469 13.859375 12.167969 14.5625 11.539062 15.082031 C 10.921875 15.59375 10.085938 15.847656 9.035156 15.847656 C 7.910156 15.847656 7.039062 15.601562 6.433594 15.113281 C 5.824219 14.613281 5.519531 13.914062 5.519531 13.023438 C 5.519531 12.542969 5.617188 12.125 5.8125 11.769531 C 6.019531 11.417969 6.289062 11.113281 6.625 10.859375 C 6.957031 10.605469 7.316406 10.386719 7.699219 10.210938 C 7.1875 9.917969 6.75 9.5625 6.386719 9.152344 C 6.035156 8.730469 5.859375 8.195312 5.859375 7.546875 C 5.859375 7.007812 5.996094 6.554688 6.269531 6.195312 C 6.542969 5.820312 6.917969 5.535156 7.386719 5.339844 C 7.859375 5.144531 8.394531 5.046875 8.992188 5.046875 Z M 8.976562 6.089844 C 8.4375 6.089844 7.992188 6.222656 7.640625 6.488281 C 7.296875 6.742188 7.125 7.117188 7.125 7.605469 C 7.125 7.96875 7.207031 8.273438 7.375 8.519531 C 7.550781 8.765625 7.785156 8.976562 8.082031 9.152344 C 8.375 9.316406 8.699219 9.480469 9.050781 9.636719 C 9.5625 9.421875 9.988281 9.160156 10.332031 8.855469 C 10.683594 8.554688 10.863281 8.136719 10.863281 7.605469 C 10.863281 7.117188 10.691406 6.742188 10.347656 6.488281 C 10.003906 6.222656 9.546875 6.089844 8.976562 6.089844 Z M 6.785156 13.035156 C 6.785156 13.546875 6.964844 13.972656 7.328125 14.316406 C 7.691406 14.652344 8.25 14.816406 9.007812 14.816406 C 9.722656 14.816406 10.269531 14.652344 10.640625 14.316406 C 11.023438 13.972656 11.214844 13.53125 11.214844 12.992188 C 11.214844 12.480469 11.015625 12.058594 10.613281 11.726562 C 10.210938 11.382812 9.675781 11.085938 9.007812 10.828125 L 8.773438 10.742188 C 8.125 11.015625 7.628906 11.335938 7.285156 11.699219 C 6.953125 12.050781 6.785156 12.496094 6.785156 13.035156 Z M 6.785156 13.035156 "/>
</svg>
