<?xml version="1.0" encoding="UTF-8"?>
<svg xmlns="http://www.w3.org/2000/svg" xmlns:xlink="http://www.w3.org/1999/xlink" width="18" height="20.893128" viewBox="0 0 18 20.893128">
<path fill-rule="nonzero" fill="rgb(100%, 100%, 100%)" fill-opacity="1" stroke-width="0.936349" stroke-linecap="round" stroke-linejoin="round" stroke="rgb(0%, 0%, 0%)" stroke-opacity="1" stroke-miterlimit="4" d="M 0.827651 0.467414 L 12.891113 0.467414 C 13.087606 0.467414 13.251349 0.610318 13.251349 0.782994 L 13.251349 15.135893 C 13.251349 15.314523 13.087606 15.457427 12.891113 15.457427 L 0.827651 15.457427 C 0.628181 15.457427 0.467414 15.314523 0.467414 15.135893 L 0.467414 0.782994 C 0.467414 0.610318 0.628181 0.467414 0.827651 0.467414 Z M 0.827651 0.467414 " transform="matrix(1.312072, 0, 0, 1.312072, 0, 0)"/>
<path fill-rule="nonzero" fill="rgb(0%, 0%, 0%)" fill-opacity="1" d="M 16.808594 2.457031 L 9 4.578125 L 1.191406 2.457031 Z M 16.808594 2.457031 "/>
<path fill-rule="nonzero" fill="rgb(0%, 0%, 0%)" fill-opacity="1" d="M 1.191406 0.820312 L 16.808594 0.820312 L 16.808594 2.457031 L 1.191406 2.457031 Z M 1.191406 0.820312 "/>
<path fill-rule="nonzero" fill="rgb(0%, 0%, 0%)" fill-opacity="1" d="M 16.808594 18.382812 L 9 16.261719 L 1.191406 18.382812 Z M 16.808594 18.382812 "/>
<path fill-rule="nonzero" fill="rgb(0%, 0%, 0%)" fill-opacity="1" d="M 1.191406 20.019531 L 16.808594 20.019531 L 16.808594 18.382812 L 1.191406 18.382812 Z M 1.191406 20.019531 "/>
<path fill-rule="nonzero" fill="rgb(0%, 0%, 0%)" fill-opacity="1" d="M 8.378906 15.417969 L 7.332031 15.417969 L 7.332031 9.332031 C 7.332031 8.980469 7.335938 8.699219 7.34375 8.488281 C 7.351562 8.277344 7.363281 8.058594 7.378906 7.828125 C 7.25 7.960938 7.132812 8.070312 7.023438 8.160156 C 6.917969 8.25 6.785156 8.363281 6.621094 8.5 L 5.695312 9.257812 L 5.132812 8.539062 L 7.488281 6.707031 L 8.378906 6.707031 Z M 8.378906 15.417969 "/>
<path fill-rule="nonzero" fill="rgb(0%, 0%, 0%)" fill-opacity="1" d="M 11.25 7.332031 C 11.746094 7.332031 12.136719 7.453125 12.429688 7.699219 C 12.71875 7.945312 12.867188 8.292969 12.867188 8.742188 C 12.867188 9.242188 12.707031 9.632812 12.386719 9.921875 C 12.074219 10.203125 11.636719 10.34375 11.070312 10.34375 C 10.824219 10.34375 10.589844 10.320312 10.371094 10.277344 C 10.15625 10.230469 9.972656 10.167969 9.824219 10.082031 L 9.824219 9.523438 C 9.988281 9.621094 10.183594 9.699219 10.410156 9.757812 C 10.644531 9.8125 10.867188 9.839844 11.078125 9.839844 C 11.429688 9.839844 11.714844 9.757812 11.929688 9.589844 C 12.152344 9.421875 12.261719 9.15625 12.261719 8.804688 C 12.261719 8.488281 12.164062 8.25 11.972656 8.082031 C 11.777344 7.914062 11.472656 7.828125 11.054688 7.828125 C 10.929688 7.828125 10.789062 7.839844 10.625 7.863281 C 10.464844 7.882812 10.335938 7.90625 10.234375 7.929688 L 9.941406 7.742188 L 10.121094 5.472656 L 12.53125 5.472656 L 12.53125 6.011719 L 10.625 6.011719 L 10.511719 7.40625 C 10.589844 7.390625 10.691406 7.375 10.820312 7.355469 C 10.949219 7.339844 11.09375 7.332031 11.25 7.332031 Z M 11.25 7.332031 "/>
</svg>
