<?xml version="1.0" encoding="UTF-8"?>
<svg xmlns="http://www.w3.org/2000/svg" xmlns:xlink="http://www.w3.org/1999/xlink" width="18" height="20.893128" viewBox="0 0 18 20.893128">
<path fill-rule="nonzero" fill="rgb(100%, 100%, 100%)" fill-opacity="1" stroke-width="0.936349" stroke-linecap="round" stroke-linejoin="round" stroke="rgb(0%, 0%, 0%)" stroke-opacity="1" stroke-miterlimit="4" d="M 0.827651 0.467414 L 12.891113 0.467414 C 13.087606 0.467414 13.251349 0.610318 13.251349 0.782994 L 13.251349 15.135893 C 13.251349 15.314523 13.087606 15.457427 12.891113 15.457427 L 0.827651 15.457427 C 0.628181 15.457427 0.467414 15.314523 0.467414 15.135893 L 0.467414 0.782994 C 0.467414 0.610318 0.628181 0.467414 0.827651 0.467414 Z M 0.827651 0.467414 " transform="matrix(1.312072, 0, 0, 1.312072, 0, 0)"/>
<path fill-rule="nonzero" fill="rgb(0%, 0%, 0%)" fill-opacity="1" d="M 16.808594 2.457031 L 9 4.578125 L 1.191406 2.457031 Z M 16.808594 2.457031 "/>
<path fill-rule="nonzero" fill="rgb(0%, 0%, 0%)" fill-opacity="1" d="M 1.191406 0.820312 L 16.808594 0.820312 L 16.808594 2.457031 L 1.191406 2.457031 Z M 1.191406 0.820312 "/>
<path fill-rule="nonzero" fill="rgb(0%, 0%, 0%)" fill-opacity="1" d="M 16.808594 18.382812 L 9 16.261719 L 1.191406 18.382812 Z M 16.808594 18.382812 "/>
<path fill-rule="nonzero" fill="rgb(0%, 0%, 0%)" fill-opacity="1" d="M 1.191406 20.019531 L 16.808594 20.019531 L 16.808594 18.382812 L 1.191406 18.382812 Z M 1.191406 20.019531 "/>
<path fill-rule="nonzero" fill="rgb(0%, 0%, 0%)" fill-opacity="1" d="M 8.792969 9.179688 C 9.875 9.179688 10.730469 9.449219 11.371094 9.992188 C 12.007812 10.53125 12.324219 11.289062 12.324219 12.269531 C 12.324219 13.359375 11.976562 14.21875 11.28125 14.847656 C 10.59375 15.464844 9.632812 15.773438 8.398438 15.773438 C 7.855469 15.773438 7.347656 15.726562 6.867188 15.625 C 6.394531 15.527344 5.996094 15.386719 5.675781 15.199219 L 5.675781 13.980469 C 6.027344 14.195312 6.453125 14.367188 6.953125 14.492188 C 7.464844 14.613281 7.949219 14.671875 8.410156 14.671875 C 9.1875 14.671875 9.808594 14.488281 10.28125 14.125 C 10.761719 13.753906 11 13.179688 11 12.402344 C 11 11.71875 10.789062 11.191406 10.367188 10.828125 C 9.945312 10.457031 9.28125 10.269531 8.367188 10.269531 C 8.09375 10.269531 7.777344 10.292969 7.425781 10.34375 C 7.070312 10.394531 6.789062 10.441406 6.570312 10.492188 L 5.925781 10.078125 L 6.320312 5.121094 L 11.589844 5.121094 L 11.589844 6.296875 L 7.425781 6.296875 L 7.175781 9.34375 C 7.34375 9.3125 7.566406 9.277344 7.851562 9.238281 C 8.136719 9.199219 8.449219 9.179688 8.792969 9.179688 Z M 8.792969 9.179688 "/>
</svg>
