<?xml version="1.0" encoding="UTF-8"?>
<svg xmlns="http://www.w3.org/2000/svg" xmlns:xlink="http://www.w3.org/1999/xlink" width="18" height="20.893128" viewBox="0 0 18 20.893128">
<path fill-rule="nonzero" fill="rgb(100%, 100%, 100%)" fill-opacity="1" stroke-width="0.936349" stroke-linecap="round" stroke-linejoin="round" stroke="rgb(0%, 0%, 0%)" stroke-opacity="1" stroke-miterlimit="4" d="M 0.827651 0.467414 L 12.891113 0.467414 C 13.087606 0.467414 13.251349 0.610318 13.251349 0.782994 L 13.251349 15.135893 C 13.251349 15.314523 13.087606 15.457427 12.891113 15.457427 L 0.827651 15.457427 C 0.628181 15.457427 0.467414 15.314523 0.467414 15.135893 L 0.467414 0.782994 C 0.467414 0.610318 0.628181 0.467414 0.827651 0.467414 Z M 0.827651 0.467414 " transform="matrix(1.312072, 0, 0, 1.312072, 0, 0)"/>
<path fill-rule="nonzero" fill="rgb(0%, 0%, 0%)" fill-opacity="1" d="M 16.808594 2.457031 L 9 4.578125 L 1.191406 2.457031 Z M 16.808594 2.457031 "/>
<path fill-rule="nonzero" fill="rgb(0%, 0%, 0%)" fill-opacity="1" d="M 1.191406 0.820312 L 16.808594 0.820312 L 16.808594 2.457031 L 1.191406 2.457031 Z M 1.191406 0.820312 "/>
<path fill-rule="nonzero" fill="rgb(0%, 0%, 0%)" fill-opacity="1" d="M 16.808594 18.382812 L 9 16.261719 L 1.191406 18.382812 Z M 16.808594 18.382812 "/>
<path fill-rule="nonzero" fill="rgb(0%, 0%, 0%)" fill-opacity="1" d="M 1.191406 20.019531 L 16.808594 20.019531 L 16.808594 18.382812 L 1.191406 18.382812 Z M 1.191406 20.019531 "/>
<path fill-rule="nonzero" fill="rgb(0%, 0%, 0%)" fill-opacity="1" d="M 5.539062 11.21875 C 5.539062 10.457031 5.601562 9.710938 5.726562 8.984375 C 5.863281 8.25 6.109375 7.589844 6.460938 7 C 6.804688 6.398438 7.292969 5.925781 7.921875 5.574219 C 8.558594 5.226562 9.371094 5.046875 10.359375 5.046875 C 10.554688 5.046875 10.78125 5.0625 11.035156 5.085938 C 11.28125 5.101562 11.488281 5.132812 11.652344 5.179688 L 11.652344 6.285156 C 11.476562 6.226562 11.277344 6.183594 11.054688 6.15625 C 10.828125 6.117188 10.601562 6.097656 10.378906 6.097656 C 9.703125 6.097656 9.140625 6.210938 8.691406 6.4375 C 8.242188 6.660156 7.882812 6.976562 7.621094 7.375 C 7.359375 7.761719 7.171875 8.210938 7.058594 8.722656 C 6.945312 9.238281 6.871094 9.78125 6.835938 10.355469 L 6.929688 10.355469 C 7.152344 10.015625 7.460938 9.730469 7.867188 9.492188 C 8.265625 9.242188 8.785156 9.117188 9.421875 9.117188 C 10.332031 9.117188 11.0625 9.398438 11.617188 9.960938 C 12.179688 10.515625 12.460938 11.292969 12.460938 12.304688 C 12.460938 13.40625 12.160156 14.273438 11.558594 14.910156 C 10.960938 15.539062 10.144531 15.847656 9.121094 15.847656 C 8.457031 15.847656 7.851562 15.679688 7.304688 15.34375 C 6.765625 15.003906 6.332031 14.5 6.007812 13.824219 C 5.695312 13.140625 5.539062 12.265625 5.539062 11.21875 Z M 9.101562 14.761719 C 9.726562 14.761719 10.226562 14.5625 10.601562 14.160156 C 10.988281 13.761719 11.183594 13.144531 11.183594 12.304688 C 11.183594 11.644531 11.015625 11.117188 10.679688 10.730469 C 10.339844 10.332031 9.835938 10.128906 9.160156 10.128906 C 8.695312 10.128906 8.289062 10.234375 7.941406 10.429688 C 7.601562 10.617188 7.332031 10.859375 7.132812 11.160156 C 6.945312 11.453125 6.851562 11.75 6.851562 12.0625 C 6.851562 12.488281 6.933594 12.914062 7.097656 13.335938 C 7.269531 13.75 7.519531 14.09375 7.847656 14.367188 C 8.183594 14.628906 8.601562 14.761719 9.101562 14.761719 Z M 4.734375 -0.03125 "/>
</svg>
