<?xml version="1.0" encoding="UTF-8"?>
<svg xmlns="http://www.w3.org/2000/svg" xmlns:xlink="http://www.w3.org/1999/xlink" width="18" height="20.893128" viewBox="0 0 18 20.893128">
<path fill-rule="nonzero" fill="rgb(100%, 100%, 100%)" fill-opacity="1" stroke-width="0.936349" stroke-linecap="round" stroke-linejoin="round" stroke="rgb(0%, 0%, 0%)" stroke-opacity="1" stroke-miterlimit="4" d="M 0.827651 0.467414 L 12.891113 0.467414 C 13.087606 0.467414 13.251349 0.610318 13.251349 0.782994 L 13.251349 15.135893 C 13.251349 15.314523 13.087606 15.457427 12.891113 15.457427 L 0.827651 15.457427 C 0.628181 15.457427 0.467414 15.314523 0.467414 15.135893 L 0.467414 0.782994 C 0.467414 0.610318 0.628181 0.467414 0.827651 0.467414 Z M 0.827651 0.467414 " transform="matrix(1.312072, 0, 0, 1.312072, 0, 0)"/>
<path fill-rule="nonzero" fill="rgb(0%, 0%, 0%)" fill-opacity="1" d="M 16.808594 2.457031 L 9 4.578125 L 1.191406 2.457031 Z M 16.808594 2.457031 "/>
<path fill-rule="nonzero" fill="rgb(0%, 0%, 0%)" fill-opacity="1" d="M 1.191406 0.820312 L 16.808594 0.820312 L 16.808594 2.457031 L 1.191406 2.457031 Z M 1.191406 0.820312 "/>
<path fill-rule="nonzero" fill="rgb(0%, 0%, 0%)" fill-opacity="1" d="M 16.808594 18.382812 L 9 16.261719 L 1.191406 18.382812 Z M 16.808594 18.382812 "/>
<path fill-rule="nonzero" fill="rgb(0%, 0%, 0%)" fill-opacity="1" d="M 1.191406 20.019531 L 16.808594 20.019531 L 16.808594 18.382812 L 1.191406 18.382812 Z M 1.191406 20.019531 "/>
<path fill-rule="nonzero" fill="rgb(0%, 0%, 0%)" fill-opacity="1" d="M 5.808594 15.351562 L 4.640625 15.351562 L 4.640625 8.589844 C 4.640625 8.199219 4.648438 7.890625 4.65625 7.65625 C 4.664062 7.417969 4.679688 7.175781 4.695312 6.921875 C 4.550781 7.066406 4.421875 7.1875 4.304688 7.289062 C 4.1875 7.386719 4.035156 7.515625 3.855469 7.667969 L 2.828125 8.507812 L 2.203125 7.707031 L 4.820312 5.675781 L 5.808594 5.675781 Z M 5.808594 15.351562 "/>
<path fill-rule="nonzero" fill="rgb(0%, 0%, 0%)" fill-opacity="1" d="M 15.796875 15.351562 L 9.398438 15.351562 L 9.398438 14.363281 L 11.933594 11.800781 C 12.421875 11.3125 12.832031 10.878906 13.167969 10.5 C 13.503906 10.121094 13.753906 9.75 13.925781 9.390625 C 14.097656 9.019531 14.183594 8.617188 14.183594 8.183594 C 14.183594 7.648438 14.027344 7.246094 13.710938 6.976562 C 13.394531 6.695312 12.984375 6.554688 12.476562 6.554688 C 12.007812 6.554688 11.589844 6.636719 11.230469 6.800781 C 10.878906 6.964844 10.515625 7.1875 10.144531 7.476562 L 9.507812 6.679688 C 9.886719 6.363281 10.320312 6.097656 10.808594 5.878906 C 11.304688 5.652344 11.863281 5.539062 12.476562 5.539062 C 13.378906 5.539062 14.09375 5.769531 14.617188 6.230469 C 15.140625 6.683594 15.402344 7.3125 15.402344 8.117188 C 15.402344 8.621094 15.300781 9.09375 15.09375 9.539062 C 14.882812 9.980469 14.59375 10.417969 14.226562 10.851562 C 13.855469 11.277344 13.421875 11.734375 12.925781 12.222656 L 10.90625 14.214844 L 10.90625 14.269531 L 15.796875 14.269531 Z M 15.796875 15.351562 "/>
</svg>
