<?xml version="1.0" encoding="UTF-8"?>
<svg xmlns="http://www.w3.org/2000/svg" xmlns:xlink="http://www.w3.org/1999/xlink" width="18" height="20.893128" viewBox="0 0 18 20.893128">
<path fill-rule="nonzero" fill="rgb(100%, 100%, 100%)" fill-opacity="1" stroke-width="0.936349" stroke-linecap="round" stroke-linejoin="round" stroke="rgb(0%, 0%, 0%)" stroke-opacity="1" stroke-miterlimit="4" d="M 0.827651 0.467414 L 12.891113 0.467414 C 13.087606 0.467414 13.251349 0.610318 13.251349 0.782994 L 13.251349 15.135893 C 13.251349 15.314523 13.087606 15.457427 12.891113 15.457427 L 0.827651 15.457427 C 0.628181 15.457427 0.467414 15.314523 0.467414 15.135893 L 0.467414 0.782994 C 0.467414 0.610318 0.628181 0.467414 0.827651 0.467414 Z M 0.827651 0.467414 " transform="matrix(1.312072, 0, 0, 1.312072, 0, 0)"/>
<path fill-rule="nonzero" fill="rgb(0%, 0%, 0%)" fill-opacity="1" d="M 16.808594 2.457031 L 9 4.578125 L 1.191406 2.457031 Z M 16.808594 2.457031 "/>
<path fill-rule="nonzero" fill="rgb(0%, 0%, 0%)" fill-opacity="1" d="M 1.191406 0.820312 L 16.808594 0.820312 L 16.808594 2.457031 L 1.191406 2.457031 Z M 1.191406 0.820312 "/>
<path fill-rule="nonzero" fill="rgb(0%, 0%, 0%)" fill-opacity="1" d="M 16.808594 18.382812 L 9 16.261719 L 1.191406 18.382812 Z M 16.808594 18.382812 "/>
<path fill-rule="nonzero" fill="rgb(0%, 0%, 0%)" fill-opacity="1" d="M 1.191406 20.019531 L 16.808594 20.019531 L 16.808594 18.382812 L 1.191406 18.382812 Z M 1.191406 20.019531 "/>
<path fill-rule="nonzero" fill="rgb(0%, 0%, 0%)" fill-opacity="1" d="M 9.769531 8.683594 C 9.769531 9.269531 9.609375 9.738281 9.28125 10.085938 C 8.957031 10.429688 8.519531 10.65625 7.964844 10.769531 L 7.964844 10.820312 C 8.664062 10.902344 9.183594 11.121094 9.527344 11.476562 C 9.867188 11.835938 10.039062 12.304688 10.039062 12.882812 C 10.039062 13.386719 9.921875 13.835938 9.683594 14.234375 C 9.449219 14.625 9.082031 14.929688 8.585938 15.152344 C 8.097656 15.371094 7.46875 15.480469 6.695312 15.480469 C 6.242188 15.480469 5.816406 15.445312 5.425781 15.371094 C 5.035156 15.304688 4.664062 15.183594 4.304688 15.003906 L 4.304688 14.003906 C 4.671875 14.183594 5.066406 14.324219 5.488281 14.429688 C 5.910156 14.527344 6.316406 14.578125 6.707031 14.578125 C 7.488281 14.578125 8.050781 14.425781 8.390625 14.125 C 8.742188 13.816406 8.917969 13.394531 8.917969 12.855469 C 8.917969 12.3125 8.703125 11.921875 8.269531 11.683594 C 7.847656 11.441406 7.25 11.320312 6.476562 11.320312 L 5.632812 11.320312 L 5.632812 10.402344 L 6.488281 10.402344 C 7.203125 10.402344 7.746094 10.253906 8.113281 9.953125 C 8.484375 9.652344 8.671875 9.253906 8.671875 8.757812 C 8.671875 8.332031 8.53125 8.007812 8.246094 7.78125 C 7.960938 7.542969 7.574219 7.425781 7.085938 7.425781 C 6.613281 7.425781 6.210938 7.496094 5.878906 7.632812 C 5.542969 7.773438 5.214844 7.949219 4.890625 8.160156 L 4.351562 7.425781 C 4.664062 7.183594 5.042969 6.972656 5.5 6.792969 C 5.964844 6.613281 6.488281 6.523438 7.074219 6.523438 C 7.984375 6.523438 8.660156 6.726562 9.101562 7.132812 C 9.546875 7.539062 9.769531 8.058594 9.769531 8.683594 Z M 9.769531 8.683594 "/>
<path fill-rule="nonzero" fill="rgb(0%, 0%, 0%)" fill-opacity="1" d="M 12.082031 7.269531 C 12.574219 7.269531 12.96875 7.394531 13.257812 7.640625 C 13.550781 7.886719 13.695312 8.234375 13.695312 8.683594 C 13.695312 9.179688 13.535156 9.570312 13.21875 9.859375 C 12.902344 10.140625 12.464844 10.28125 11.898438 10.28125 C 11.652344 10.28125 11.417969 10.261719 11.199219 10.214844 C 10.984375 10.171875 10.804688 10.105469 10.65625 10.019531 L 10.65625 9.460938 C 10.816406 9.5625 11.011719 9.640625 11.242188 9.699219 C 11.472656 9.75 11.695312 9.777344 11.90625 9.777344 C 12.261719 9.777344 12.546875 9.695312 12.761719 9.53125 C 12.980469 9.359375 13.089844 9.097656 13.089844 8.742188 C 13.089844 8.429688 12.992188 8.1875 12.800781 8.023438 C 12.609375 7.851562 12.304688 7.765625 11.886719 7.765625 C 11.761719 7.765625 11.617188 7.777344 11.457031 7.800781 C 11.292969 7.824219 11.164062 7.84375 11.066406 7.867188 L 10.769531 7.679688 L 10.949219 5.414062 L 13.359375 5.414062 L 13.359375 5.949219 L 11.457031 5.949219 L 11.339844 7.34375 C 11.417969 7.328125 11.519531 7.3125 11.652344 7.296875 C 11.78125 7.277344 11.925781 7.269531 12.082031 7.269531 Z M 12.082031 7.269531 "/>
</svg>
