<?xml version="1.0" encoding="UTF-8"?>
<svg xmlns="http://www.w3.org/2000/svg" xmlns:xlink="http://www.w3.org/1999/xlink" width="16" height="18.57167" viewBox="0 0 16 18.57167">
<path fill-rule="nonzero" fill="rgb(100%, 100%, 100%)" fill-opacity="1" stroke-width="0.936349" stroke-linecap="round" stroke-linejoin="round" stroke="rgb(0%, 0%, 0%)" stroke-opacity="1" stroke-miterlimit="4" d="M 0.830628 0.468903 L 12.888134 0.468903 C 13.085743 0.468903 13.249859 0.609574 13.249859 0.783738 L 13.249859 15.138869 C 13.249859 15.316382 13.085743 15.457053 12.888134 15.457053 L 0.830628 15.457053 C 0.62967 15.457053 0.468903 15.316382 0.468903 15.138869 L 0.468903 0.783738 C 0.468903 0.609574 0.62967 0.468903 0.830628 0.468903 Z M 0.830628 0.468903 " transform="matrix(1.166286, 0, 0, 1.166286, 0, 0)"/>
<path fill-rule="nonzero" fill="rgb(0%, 0%, 0%)" fill-opacity="1" d="M 8.578125 13.347656 L 8.578125 11.78125 L 4.898438 11.78125 L 4.898438 10.46875 L 8.140625 5.222656 L 10.035156 5.222656 L 10.035156 10.597656 L 11.09375 10.597656 L 11.09375 11.78125 L 10.035156 11.78125 L 10.035156 13.347656 Z M 6.15625 10.597656 L 8.578125 10.597656 L 8.578125 6.714844 L 8.488281 6.714844 Z M 4.53125 1.417969 "/>
<path fill-rule="nonzero" fill="rgb(0%, 0%, 0%)" fill-opacity="1" d="M 14.941406 2.183594 L 8 4.070312 L 1.058594 2.183594 Z M 14.941406 2.183594 "/>
<path fill-rule="nonzero" fill="rgb(0%, 0%, 0%)" fill-opacity="1" d="M 1.058594 0.730469 L 14.941406 0.730469 L 14.941406 2.183594 L 1.058594 2.183594 Z M 1.058594 0.730469 "/>
<path fill-rule="nonzero" fill="rgb(0%, 0%, 0%)" fill-opacity="1" d="M 14.941406 16.34375 L 8 14.453125 L 1.058594 16.34375 Z M 14.941406 16.34375 "/>
<path fill-rule="nonzero" fill="rgb(0%, 0%, 0%)" fill-opacity="1" d="M 1.058594 17.796875 L 14.941406 17.796875 L 14.941406 16.34375 L 1.058594 16.34375 Z M 1.058594 17.796875 "/>
</svg>
