<?xml version="1.0" encoding="UTF-8"?>
<svg xmlns="http://www.w3.org/2000/svg" xmlns:xlink="http://www.w3.org/1999/xlink" width="18" height="24.135292" viewBox="0 0 18 24.135292">
<path fill-rule="nonzero" fill="rgb(14.901961%, 14.901961%, 14.901961%)" fill-opacity="1" d="M 0.511719 0 L 17.488281 0 C 17.765625 0 18 0.230469 18 0.511719 L 18 23.625 C 18 23.910156 17.765625 24.136719 17.488281 24.136719 L 0.511719 24.136719 C 0.230469 24.136719 0 23.910156 0 23.625 L 0 0.511719 C 0 0.230469 0.230469 0 0.511719 0 Z M 0.511719 0 "/>
<path fill="none" stroke-width="0.204" stroke-linecap="butt" stroke-linejoin="miter" stroke="rgb(60.392157%, 60.392157%, 60.392157%)" stroke-opacity="1" stroke-miterlimit="4" d="M 1.396729 1.047547 L 13.475849 1.047547 C 13.64074 1.047547 13.770067 1.189806 13.770067 1.374097 L 13.770067 18.222141 C 13.770067 18.406431 13.64074 18.548691 13.475849 18.548691 L 1.396729 18.548691 C 1.238304 18.548691 1.105744 18.406431 1.105744 18.222141 L 1.105744 1.374097 C 1.105744 1.189806 1.238304 1.047547 1.396729 1.047547 Z M 1.396729 1.047547 " transform="matrix(1.20818, 0, 0, 1.20818, 0, 0)"/>
<path fill-rule="nonzero" fill="rgb(100%, 100%, 100%)" fill-opacity="1" stroke-width="0.468347" stroke-linecap="butt" stroke-linejoin="miter" stroke="rgb(100%, 100%, 100%)" stroke-opacity="1" stroke-dasharray="0.468347 0.468347" stroke-dashoffset="0.468347" stroke-miterlimit="4" d="M 8.535398 -0.594183 L 2.655334 9.58891 L -3.228212 -0.594183 Z M 8.535398 -0.594183 " transform="matrix(1.121374, 0, 0, 0.347543, 6.084877, 2.534629)"/>
<path fill-rule="nonzero" fill="rgb(100%, 100%, 100%)" fill-opacity="1" stroke-width="0.468347" stroke-linecap="butt" stroke-linejoin="miter" stroke="rgb(100%, 100%, 100%)" stroke-opacity="1" stroke-dasharray="0.468347 0.468347" stroke-dashoffset="0.468347" stroke-miterlimit="4" d="M 8.535398 -0.587089 L 2.655334 9.607243 L -3.228212 -0.587089 Z M 8.535398 -0.587089 " transform="matrix(1.121374, 0, 0, -0.347543, 6.084877, 21.600649)"/>
<path fill-rule="nonzero" fill="rgb(100%, 100%, 100%)" fill-opacity="1" stroke-width="0.230376" stroke-linecap="butt" stroke-linejoin="miter" stroke="rgb(100%, 100%, 100%)" stroke-opacity="1" stroke-dasharray="0.230376 0.230376" stroke-dashoffset="0.230376" stroke-miterlimit="4" d="M 7.493489 5.429687 C 8.284505 5.429687 8.932291 5.615234 9.433593 5.983073 C 9.938151 6.354166 10.192057 6.888021 10.192057 7.584635 C 10.192057 7.945963 10.110677 8.261718 9.951171 8.531901 C 9.801432 8.798828 9.596354 9.039713 9.332682 9.248047 C 9.072265 9.449869 8.789062 9.632161 8.476562 9.791666 C 8.847656 9.967448 9.182942 10.16927 9.485677 10.397135 C 9.788411 10.615234 10.029296 10.872395 10.205078 11.165364 C 10.390625 11.458333 10.48177 11.813151 10.48177 12.223307 C 10.48177 12.98177 10.211588 13.580729 9.674479 14.026692 C 9.14388 14.46289 8.430989 14.684244 7.532552 14.684244 C 6.565755 14.684244 5.820312 14.472656 5.299479 14.052734 C 4.778646 13.623046 4.518229 13.027343 4.518229 12.262369 C 4.518229 11.848958 4.602864 11.49414 4.772135 11.191406 C 4.947916 10.888671 5.179036 10.628255 5.465495 10.410156 C 5.748698 10.192057 6.057942 10.00651 6.383463 9.853515 C 5.947265 9.602864 5.572916 9.30013 5.263672 8.945312 C 4.960937 8.583984 4.807943 8.128255 4.807943 7.571614 C 4.807943 7.109375 4.92513 6.72526 5.16276 6.41276 C 5.397135 6.09375 5.716146 5.849609 6.119791 5.680338 C 6.523437 5.514323 6.982422 5.429687 7.493489 5.429687 Z M 7.480468 6.32487 C 7.018229 6.32487 6.63737 6.438802 6.334635 6.663411 C 6.038411 6.884765 5.891927 7.203776 5.891927 7.623698 C 5.891927 7.932942 5.963541 8.193359 6.106771 8.404948 C 6.259765 8.613281 6.458333 8.795573 6.712239 8.945312 C 6.96289 9.088541 7.242838 9.228515 7.545573 9.361979 C 7.981771 9.176432 8.346354 8.955078 8.639323 8.694661 C 8.942057 8.434244 9.095052 8.076172 9.095052 7.623698 C 9.095052 7.203776 8.948567 6.884765 8.652343 6.663411 C 8.359375 6.438802 7.96875 6.32487 7.480468 6.32487 Z M 5.602213 12.27539 C 5.602213 12.711588 5.758463 13.076171 6.067708 13.372395 C 6.380208 13.658854 6.858724 13.798828 7.50651 13.798828 C 8.118489 13.798828 8.587239 13.658854 8.90625 13.372395 C 9.235026 13.076171 9.397786 12.698567 9.397786 12.236328 C 9.397786 11.80013 9.22526 11.438802 8.880208 11.152343 C 8.535156 10.859375 8.079427 10.602213 7.50651 10.384114 L 7.304687 10.309244 C 6.751302 10.543619 6.32487 10.817057 6.031901 11.126302 C 5.745442 11.429036 5.602213 11.813151 5.602213 12.27539 Z M 5.602213 12.27539 " transform="matrix(1.2, 0, 0, 1.2, 0, 0)"/>
</svg>
