<?xml version="1.0" encoding="UTF-8"?>
<svg xmlns="http://www.w3.org/2000/svg" xmlns:xlink="http://www.w3.org/1999/xlink" width="18" height="24.135292" viewBox="0 0 18 24.135292">
<path fill-rule="nonzero" fill="rgb(14.901961%, 14.901961%, 14.901961%)" fill-opacity="1" d="M 0.511719 0 L 17.488281 0 C 17.765625 0 18 0.230469 18 0.511719 L 18 23.625 C 18 23.910156 17.765625 24.136719 17.488281 24.136719 L 0.511719 24.136719 C 0.230469 24.136719 0 23.910156 0 23.625 L 0 0.511719 C 0 0.230469 0.230469 0 0.511719 0 Z M 0.511719 0 "/>
<path fill="none" stroke-width="0.204" stroke-linecap="butt" stroke-linejoin="miter" stroke="rgb(60.392157%, 60.392157%, 60.392157%)" stroke-opacity="1" stroke-miterlimit="4" d="M 1.396729 1.047547 L 13.475849 1.047547 C 13.64074 1.047547 13.770067 1.189806 13.770067 1.374097 L 13.770067 18.222141 C 13.770067 18.406431 13.64074 18.548691 13.475849 18.548691 L 1.396729 18.548691 C 1.238304 18.548691 1.105744 18.406431 1.105744 18.222141 L 1.105744 1.374097 C 1.105744 1.189806 1.238304 1.047547 1.396729 1.047547 Z M 1.396729 1.047547 " transform="matrix(1.20818, 0, 0, 1.20818, 0, 0)"/>
<path fill-rule="nonzero" fill="rgb(100%, 100%, 100%)" fill-opacity="1" stroke-width="0.468347" stroke-linecap="butt" stroke-linejoin="miter" stroke="rgb(100%, 100%, 100%)" stroke-opacity="1" stroke-dasharray="0.468347 0.468347" stroke-dashoffset="0.468347" stroke-miterlimit="4" d="M 8.535398 -0.594183 L 2.655334 9.58891 L -3.228212 -0.594183 Z M 8.535398 -0.594183 " transform="matrix(1.121374, 0, 0, 0.347543, 6.084877, 2.534629)"/>
<path fill-rule="nonzero" fill="rgb(100%, 100%, 100%)" fill-opacity="1" stroke-width="0.468347" stroke-linecap="butt" stroke-linejoin="miter" stroke="rgb(100%, 100%, 100%)" stroke-opacity="1" stroke-dasharray="0.468347 0.468347" stroke-dashoffset="0.468347" stroke-miterlimit="4" d="M 8.535398 -0.587089 L 2.655334 9.607243 L -3.228212 -0.587089 Z M 8.535398 -0.587089 " transform="matrix(1.121374, 0, 0, -0.347543, 6.084877, 21.600649)"/>
<path fill-rule="nonzero" fill="rgb(100%, 100%, 100%)" fill-opacity="1" stroke-width="0.230376" stroke-linecap="butt" stroke-linejoin="miter" stroke="rgb(100%, 100%, 100%)" stroke-opacity="1" stroke-dasharray="0.230376 0.230376" stroke-dashoffset="0.230376" stroke-miterlimit="4" d="M 8.168893 9.036458 C 9.093372 9.036458 9.829049 9.267578 10.375924 9.729817 C 10.919544 10.192057 11.192981 10.843099 11.192981 11.682942 C 11.192981 12.613932 10.896757 13.349609 10.297799 13.889973 C 9.711861 14.417317 8.888294 14.684244 7.827096 14.684244 C 7.364856 14.684244 6.928658 14.641927 6.515247 14.557291 C 6.114856 14.472656 5.773059 14.352213 5.496367 14.192708 L 5.496367 13.144531 C 5.799101 13.330078 6.163684 13.476562 6.593372 13.587239 C 7.02957 13.68815 7.446236 13.736979 7.840117 13.736979 C 8.504179 13.736979 9.038033 13.580729 9.441679 13.271484 C 9.851835 12.952473 10.060169 12.460937 10.060169 11.796875 C 10.060169 11.207682 9.877877 10.758463 9.516549 10.445963 C 9.155221 10.126953 8.585559 9.967448 7.801054 9.967448 C 7.566679 9.967448 7.299752 9.990234 6.997018 10.032552 C 6.694283 10.071614 6.450143 10.113932 6.264596 10.15625 L 5.71121 9.804687 L 6.049752 5.55664 L 10.564726 5.55664 L 10.564726 6.5625 L 6.997018 6.5625 L 6.782174 9.173177 C 6.925403 9.147135 7.11746 9.117838 7.361601 9.085286 C 7.605742 9.052734 7.872669 9.036458 8.168893 9.036458 Z M 8.168893 9.036458 " transform="matrix(1.2, 0, 0, 1.2, -1.013609, 0)"/>
</svg>
