<?xml version="1.0" encoding="UTF-8"?>
<svg xmlns="http://www.w3.org/2000/svg" xmlns:xlink="http://www.w3.org/1999/xlink" width="16" height="21.453592" viewBox="0 0 16 21.453592">
<path fill-rule="nonzero" fill="rgb(14.901961%, 14.901961%, 14.901961%)" fill-opacity="1" d="M 0.453125 0 L 15.546875 0 C 15.792969 0 16 0.203125 16 0.453125 L 16 21 C 16 21.253906 15.792969 21.453125 15.546875 21.453125 L 0.453125 21.453125 C 0.203125 21.453125 0 21.253906 0 21 L 0 0.453125 C 0 0.203125 0.203125 0 0.453125 0 Z M 0.453125 0 "/>
<path fill="none" stroke-width="0.204" stroke-linecap="butt" stroke-linejoin="miter" stroke="rgb(60.392157%, 60.392157%, 60.392157%)" stroke-opacity="1" stroke-miterlimit="4" d="M 1.396729 1.047547 L 13.472618 1.047547 C 13.639935 1.047547 13.770878 1.19304 13.770878 1.374905 L 13.770878 18.222953 C 13.770878 18.404819 13.639935 18.550311 13.472618 18.550311 L 1.396729 18.550311 C 1.236687 18.550311 1.105744 18.404819 1.105744 18.222953 L 1.105744 1.374905 C 1.105744 1.19304 1.236687 1.047547 1.396729 1.047547 Z M 1.396729 1.047547 " transform="matrix(1.073938, 0, 0, 1.073938, 0, 0)"/>
<path fill="none" stroke-width="0.468347" stroke-linecap="butt" stroke-linejoin="miter" stroke="rgb(100%, 100%, 100%)" stroke-opacity="1" stroke-dasharray="0.468347 0.468347" stroke-dashoffset="0.468347" stroke-miterlimit="4" d="M 8.536704 -0.591376 L 2.654464 9.600149 L -3.227777 -0.591376 Z M 8.536704 -0.591376 " transform="matrix(0.996777, 0, 0, 0.308927, 5.40878, 2.253004)"/>
<path fill="none" stroke-width="0.25" stroke-linecap="butt" stroke-linejoin="miter" stroke="rgb(100%, 100%, 100%)" stroke-opacity="1" stroke-dasharray="0.25 0.25" stroke-miterlimit="4" d="M 8.074841 14.461968 L 8.074841 12.726968 L 4.026509 12.726968 L 4.026509 11.290229 L 7.591078 5.525083 L 9.682535 5.525083 L 9.682535 11.428447 L 10.839201 11.428447 L 10.839201 12.726968 L 9.682535 12.726968 L 9.682535 14.461968 Z M 5.419601 11.428447 L 8.074841 11.428447 L 8.074841 7.165512 L 7.980271 7.165512 Z M 3.622767 1.331258 " transform="matrix(1.073938, 0, 0, 1.073938, 0, 0)"/>
<path fill="none" stroke-width="0.468347" stroke-linecap="butt" stroke-linejoin="miter" stroke="rgb(100%, 100%, 100%)" stroke-opacity="1" stroke-dasharray="0.468347 0.468347" stroke-dashoffset="0.468347" stroke-miterlimit="4" d="M 8.536704 -0.589908 L 2.654464 9.601616 L -3.227777 -0.589908 Z M 8.536704 -0.589908 " transform="matrix(0.996777, 0, 0, -0.308927, 5.40878, 19.200574)"/>
</svg>
