<?xml version="1.0" encoding="UTF-8"?>
<svg xmlns="http://www.w3.org/2000/svg" xmlns:xlink="http://www.w3.org/1999/xlink" width="18" height="24.135292" viewBox="0 0 18 24.135292">
<path fill-rule="nonzero" fill="rgb(14.901961%, 14.901961%, 14.901961%)" fill-opacity="1" d="M 0.511719 0 L 17.488281 0 C 17.765625 0 18 0.230469 18 0.511719 L 18 23.625 C 18 23.910156 17.765625 24.136719 17.488281 24.136719 L 0.511719 24.136719 C 0.230469 24.136719 0 23.910156 0 23.625 L 0 0.511719 C 0 0.230469 0.230469 0 0.511719 0 Z M 0.511719 0 "/>
<path fill="none" stroke-width="0.204" stroke-linecap="butt" stroke-linejoin="miter" stroke="rgb(60.392157%, 60.392157%, 60.392157%)" stroke-opacity="1" stroke-miterlimit="4" d="M 1.396729 1.047547 L 13.475849 1.047547 C 13.64074 1.047547 13.770067 1.189806 13.770067 1.374097 L 13.770067 18.222141 C 13.770067 18.406431 13.64074 18.548691 13.475849 18.548691 L 1.396729 18.548691 C 1.238304 18.548691 1.105744 18.406431 1.105744 18.222141 L 1.105744 1.374097 C 1.105744 1.189806 1.238304 1.047547 1.396729 1.047547 Z M 1.396729 1.047547 " transform="matrix(1.20818, 0, 0, 1.20818, 0, 0)"/>
<path fill-rule="nonzero" fill="rgb(100%, 100%, 100%)" fill-opacity="1" stroke-width="0.468347" stroke-linecap="butt" stroke-linejoin="miter" stroke="rgb(100%, 100%, 100%)" stroke-opacity="1" stroke-dasharray="0.468347 0.468347" stroke-dashoffset="0.468347" stroke-miterlimit="4" d="M 8.535398 -0.594183 L 2.655334 9.58891 L -3.228212 -0.594183 Z M 8.535398 -0.594183 " transform="matrix(1.121374, 0, 0, 0.347543, 6.084877, 2.534629)"/>
<path fill-rule="nonzero" fill="rgb(100%, 100%, 100%)" fill-opacity="1" stroke-width="0.468347" stroke-linecap="butt" stroke-linejoin="miter" stroke="rgb(100%, 100%, 100%)" stroke-opacity="1" stroke-dasharray="0.468347 0.468347" stroke-dashoffset="0.468347" stroke-miterlimit="4" d="M 8.535398 -0.587089 L 2.655334 9.607243 L -3.228212 -0.587089 Z M 8.535398 -0.587089 " transform="matrix(1.121374, 0, 0, -0.347543, 6.084877, 21.600649)"/>
<path fill-rule="nonzero" fill="rgb(100%, 100%, 100%)" fill-opacity="1" stroke-width="0.230376" stroke-linecap="butt" stroke-linejoin="miter" stroke="rgb(100%, 100%, 100%)" stroke-opacity="1" stroke-dasharray="0.230376 0.230376" stroke-dashoffset="0.230376" stroke-miterlimit="4" d="M 6.4166 14.557291 L 10.108006 6.5625 L 5.254491 6.5625 L 5.254491 5.55664 L 11.296157 5.55664 L 11.296157 6.41276 L 7.637303 14.557291 Z M 6.4166 14.557291 " transform="matrix(1.2, 0, 0, 1.2, -0.930389, 0)"/>
</svg>
