<?xml version="1.0" encoding="UTF-8"?>
<svg xmlns="http://www.w3.org/2000/svg" xmlns:xlink="http://www.w3.org/1999/xlink" width="18" height="24.135292" viewBox="0 0 18 24.135292">
<path fill-rule="nonzero" fill="rgb(14.901961%, 14.901961%, 14.901961%)" fill-opacity="1" d="M 0.511719 0 L 17.488281 0 C 17.765625 0 18 0.230469 18 0.511719 L 18 23.625 C 18 23.910156 17.765625 24.136719 17.488281 24.136719 L 0.511719 24.136719 C 0.230469 24.136719 0 23.910156 0 23.625 L 0 0.511719 C 0 0.230469 0.230469 0 0.511719 0 Z M 0.511719 0 "/>
<path fill="none" stroke-width="0.204" stroke-linecap="butt" stroke-linejoin="miter" stroke="rgb(60.392157%, 60.392157%, 60.392157%)" stroke-opacity="1" stroke-miterlimit="4" d="M 1.396729 1.047547 L 13.475849 1.047547 C 13.64074 1.047547 13.770067 1.189806 13.770067 1.374097 L 13.770067 18.222141 C 13.770067 18.406431 13.64074 18.548691 13.475849 18.548691 L 1.396729 18.548691 C 1.238304 18.548691 1.105744 18.406431 1.105744 18.222141 L 1.105744 1.374097 C 1.105744 1.189806 1.238304 1.047547 1.396729 1.047547 Z M 1.396729 1.047547 " transform="matrix(1.20818, 0, 0, 1.20818, 0, 0)"/>
<path fill-rule="nonzero" fill="rgb(100%, 100%, 100%)" fill-opacity="1" stroke-width="0.468347" stroke-linecap="butt" stroke-linejoin="miter" stroke="rgb(100%, 100%, 100%)" stroke-opacity="1" stroke-dasharray="0.468347 0.468347" stroke-dashoffset="0.468347" stroke-miterlimit="4" d="M 8.535398 -0.594183 L 2.655334 9.58891 L -3.228212 -0.594183 Z M 8.535398 -0.594183 " transform="matrix(1.121374, 0, 0, 0.347543, 6.084877, 2.534629)"/>
<path fill-rule="nonzero" fill="rgb(100%, 100%, 100%)" fill-opacity="1" stroke-width="0.468347" stroke-linecap="butt" stroke-linejoin="miter" stroke="rgb(100%, 100%, 100%)" stroke-opacity="1" stroke-dasharray="0.468347 0.468347" stroke-dashoffset="0.468347" stroke-miterlimit="4" d="M 8.535398 -0.587089 L 2.655334 9.607243 L -3.228212 -0.587089 Z M 8.535398 -0.587089 " transform="matrix(1.121374, 0, 0, -0.347543, 6.084877, 21.600649)"/>
<path fill-rule="nonzero" fill="rgb(100%, 100%, 100%)" fill-opacity="1" stroke-width="0.230376" stroke-linecap="butt" stroke-linejoin="miter" stroke="rgb(100%, 100%, 100%)" stroke-opacity="1" stroke-dasharray="0.230376 0.230376" stroke-dashoffset="0.230376" stroke-miterlimit="4" d="M 5.394823 10.71289 C 5.394823 10.065104 5.450161 9.430338 5.557583 8.808593 C 5.674771 8.177083 5.883104 7.610677 6.176073 7.10612 C 6.478807 6.595052 6.898729 6.184896 7.435838 5.882161 C 7.976203 5.579427 8.669562 5.429687 9.515916 5.429687 C 9.694953 5.429687 9.88701 5.439453 10.098599 5.455729 C 10.316698 5.472005 10.492479 5.501302 10.625942 5.54362 L 10.625942 6.48763 C 10.476203 6.438802 10.303677 6.399739 10.108364 6.373698 C 9.926073 6.350911 9.734015 6.33789 9.541958 6.33789 C 8.962531 6.33789 8.48076 6.432291 8.09339 6.627604 C 7.706021 6.819661 7.400031 7.086588 7.172166 7.421875 C 6.954067 7.757161 6.794562 8.144531 6.693651 8.580729 C 6.592739 9.016927 6.53089 9.485677 6.504849 9.980468 L 6.579719 9.980468 C 6.771776 9.6875 7.041958 9.436849 7.38701 9.238281 C 7.732062 9.026692 8.171515 8.922526 8.71188 8.922526 C 9.49313 8.922526 10.121385 9.160156 10.599901 9.638671 C 11.081671 10.110677 11.319302 10.784505 11.319302 11.656901 C 11.319302 12.597656 11.058885 13.336588 10.538052 13.876953 C 10.026984 14.414062 9.333625 14.684244 8.457974 14.684244 C 7.885057 14.684244 7.370734 14.541015 6.908495 14.254557 C 6.446255 13.968098 6.075161 13.531901 5.798469 12.942708 C 5.528286 12.353515 5.394823 11.611328 5.394823 10.71289 Z M 8.444953 13.749999 C 8.975552 13.749999 9.405239 13.580729 9.73076 13.245442 C 10.059536 12.90039 10.222297 12.373046 10.222297 11.656901 C 10.222297 11.087239 10.075812 10.63151 9.782843 10.296224 C 9.496385 9.960937 9.063442 9.791666 8.484015 9.791666 C 8.08688 9.791666 7.745083 9.876302 7.448859 10.042317 C 7.15589 10.201823 6.924771 10.410156 6.7555 10.660807 C 6.595995 10.914713 6.51787 11.17513 6.51787 11.442057 C 6.51787 11.803385 6.589484 12.164713 6.729458 12.526041 C 6.872687 12.880859 7.087531 13.173828 7.373989 13.408203 C 7.660448 13.636067 8.015265 13.749999 8.444953 13.749999 Z M 8.444953 13.749999 " transform="matrix(1.2, 0, 0, 1.2, -1.028475, 0)"/>
</svg>
