<?xml version="1.0" encoding="UTF-8"?>
<svg xmlns="http://www.w3.org/2000/svg" xmlns:xlink="http://www.w3.org/1999/xlink" width="18" height="24.135292" viewBox="0 0 18 24.135292">
<path fill-rule="nonzero" fill="rgb(14.901961%, 14.901961%, 14.901961%)" fill-opacity="1" d="M 0.511719 0 L 17.488281 0 C 17.765625 0 18 0.230469 18 0.511719 L 18 23.625 C 18 23.910156 17.765625 24.136719 17.488281 24.136719 L 0.511719 24.136719 C 0.230469 24.136719 0 23.910156 0 23.625 L 0 0.511719 C 0 0.230469 0.230469 0 0.511719 0 Z M 0.511719 0 "/>
<path fill="none" stroke-width="0.204" stroke-linecap="butt" stroke-linejoin="miter" stroke="rgb(60.392157%, 60.392157%, 60.392157%)" stroke-opacity="1" stroke-miterlimit="4" d="M 1.396729 1.047547 L 13.475849 1.047547 C 13.64074 1.047547 13.770067 1.189806 13.770067 1.374097 L 13.770067 18.222141 C 13.770067 18.406431 13.64074 18.548691 13.475849 18.548691 L 1.396729 18.548691 C 1.238304 18.548691 1.105744 18.406431 1.105744 18.222141 L 1.105744 1.374097 C 1.105744 1.189806 1.238304 1.047547 1.396729 1.047547 Z M 1.396729 1.047547 " transform="matrix(1.20818, 0, 0, 1.20818, 0, 0)"/>
<path fill-rule="nonzero" fill="rgb(100%, 100%, 100%)" fill-opacity="1" stroke-width="0.468347" stroke-linecap="butt" stroke-linejoin="miter" stroke="rgb(100%, 100%, 100%)" stroke-opacity="1" stroke-dasharray="0.468347 0.468347" stroke-dashoffset="0.468347" stroke-miterlimit="4" d="M 8.535398 -0.594183 L 2.655334 9.58891 L -3.228212 -0.594183 Z M 8.535398 -0.594183 " transform="matrix(1.121374, 0, 0, 0.347543, 6.084877, 2.534629)"/>
<path fill-rule="nonzero" fill="rgb(100%, 100%, 100%)" fill-opacity="1" stroke-width="0.468347" stroke-linecap="butt" stroke-linejoin="miter" stroke="rgb(100%, 100%, 100%)" stroke-opacity="1" stroke-dasharray="0.468347 0.468347" stroke-dashoffset="0.468347" stroke-miterlimit="4" d="M 8.535398 -0.587089 L 2.655334 9.607243 L -3.228212 -0.587089 Z M 8.535398 -0.587089 " transform="matrix(1.121374, 0, 0, -0.347543, 6.084877, 21.600649)"/>
<path fill-rule="nonzero" fill="rgb(100%, 100%, 100%)" fill-opacity="1" stroke-width="0.191077" stroke-linecap="butt" stroke-linejoin="miter" stroke="rgb(100%, 100%, 100%)" stroke-opacity="1" stroke-dasharray="0.191077 0.191077" stroke-dashoffset="0.191077" stroke-miterlimit="4" d="M 7.949218 8.655599 C 7.949218 9.160156 7.809244 9.560546 7.529297 9.860026 C 7.252604 10.152994 6.875 10.348307 6.399739 10.445963 L 6.399739 10.488281 C 6.998698 10.55664 7.447916 10.745442 7.73763 11.051432 C 8.030599 11.357421 8.177083 11.757812 8.177083 12.252604 C 8.177083 12.685546 8.076172 13.072916 7.874349 13.414713 C 7.672526 13.749999 7.360026 14.010416 6.933593 14.199218 C 6.516927 14.38802 5.976562 14.482421 5.3125 14.482421 C 4.921875 14.482421 4.560547 14.449869 4.22526 14.38802 C 3.889974 14.332682 3.570963 14.22526 3.264974 14.072265 L 3.264974 13.216145 C 3.577474 13.36914 3.916015 13.492838 4.277344 13.580729 C 4.641927 13.665364 4.990234 13.707682 5.322265 13.707682 C 5.992838 13.707682 6.474609 13.577473 6.767578 13.320312 C 7.067057 13.05664 7.216797 12.692057 7.216797 12.233072 C 7.216797 11.767578 7.03125 11.432291 6.663411 11.230468 C 6.298828 11.01888 5.78776 10.914713 5.123698 10.914713 L 4.404297 10.914713 L 4.404297 10.130208 L 5.136719 10.130208 C 5.748698 10.130208 6.214192 10.003255 6.526692 9.742838 C 6.845703 9.485677 7.008463 9.14388 7.008463 8.720703 C 7.008463 8.356119 6.884765 8.079427 6.640625 7.884114 C 6.396484 7.682291 6.067708 7.58138 5.647786 7.58138 C 5.24414 7.58138 4.899088 7.639974 4.61263 7.757161 C 4.326172 7.877604 4.046224 8.027343 3.766276 8.20638 L 3.307292 7.58138 C 3.570963 7.369791 3.899739 7.190755 4.287109 7.03776 C 4.6875 6.88151 5.136719 6.80664 5.638021 6.80664 C 6.419271 6.80664 6.995442 6.979166 7.373047 7.327474 C 7.757161 7.679036 7.949218 8.121744 7.949218 8.655599 Z M 7.949218 8.655599 " transform="matrix(1.2, 0, 0, 1.2, 0, 0)"/>
<path fill-rule="nonzero" fill="rgb(100%, 100%, 100%)" fill-opacity="1" stroke-width="0.110445" stroke-linecap="butt" stroke-linejoin="miter" stroke="rgb(100%, 100%, 100%)" stroke-opacity="1" stroke-dasharray="0.110445 0.110445" stroke-dashoffset="0.110445" stroke-miterlimit="4" d="M 10.32552 6.630859 C 10.768229 6.630859 11.123046 6.741536 11.383463 6.96289 C 11.64388 7.184245 11.777343 7.496744 11.777343 7.90039 C 11.777343 8.349609 11.634114 8.701172 11.347656 8.958333 C 11.064453 9.212239 10.670572 9.339192 10.16276 9.339192 C 9.941406 9.339192 9.733073 9.319661 9.534505 9.277343 C 9.339192 9.238281 9.176432 9.179687 9.042968 9.104817 L 9.042968 8.603515 C 9.189453 8.691406 9.365234 8.759765 9.570312 8.815104 C 9.778645 8.860677 9.980468 8.886718 10.16927 8.886718 C 10.488281 8.886718 10.742187 8.811849 10.9375 8.662109 C 11.132812 8.509114 11.233724 8.274739 11.233724 7.955729 C 11.233724 7.672526 11.145833 7.457682 10.973307 7.307942 C 10.800781 7.154948 10.524088 7.080078 10.149739 7.080078 C 10.039062 7.080078 9.908854 7.089843 9.762369 7.109375 C 9.61914 7.128906 9.501953 7.148437 9.414062 7.171224 L 9.147135 7.001953 L 9.309895 4.964193 L 11.474609 4.964193 L 11.474609 5.445963 L 9.762369 5.445963 L 9.661458 6.699218 C 9.729817 6.686198 9.820963 6.673177 9.938151 6.656901 C 10.055338 6.640625 10.185546 6.630859 10.32552 6.630859 Z M 10.32552 6.630859 " transform="matrix(1.2, 0, 0, 1.2, 0, 0)"/>
</svg>
