<?xml version="1.0" encoding="UTF-8"?>
<svg xmlns="http://www.w3.org/2000/svg" xmlns:xlink="http://www.w3.org/1999/xlink" width="18" height="24.135292" viewBox="0 0 18 24.135292">
<path fill-rule="nonzero" fill="rgb(14.901961%, 14.901961%, 14.901961%)" fill-opacity="1" d="M 0.511719 0 L 17.488281 0 C 17.765625 0 18 0.230469 18 0.511719 L 18 23.625 C 18 23.910156 17.765625 24.136719 17.488281 24.136719 L 0.511719 24.136719 C 0.230469 24.136719 0 23.910156 0 23.625 L 0 0.511719 C 0 0.230469 0.230469 0 0.511719 0 Z M 0.511719 0 "/>
<path fill="none" stroke-width="0.204" stroke-linecap="butt" stroke-linejoin="miter" stroke="rgb(60.392157%, 60.392157%, 60.392157%)" stroke-opacity="1" stroke-miterlimit="4" d="M 1.396729 1.047547 L 13.475849 1.047547 C 13.64074 1.047547 13.770067 1.189806 13.770067 1.374097 L 13.770067 18.222141 C 13.770067 18.406431 13.64074 18.548691 13.475849 18.548691 L 1.396729 18.548691 C 1.238304 18.548691 1.105744 18.406431 1.105744 18.222141 L 1.105744 1.374097 C 1.105744 1.189806 1.238304 1.047547 1.396729 1.047547 Z M 1.396729 1.047547 " transform="matrix(1.20818, 0, 0, 1.20818, 0, 0)"/>
<path fill-rule="nonzero" fill="rgb(100%, 100%, 100%)" fill-opacity="1" stroke-width="0.468347" stroke-linecap="butt" stroke-linejoin="miter" stroke="rgb(100%, 100%, 100%)" stroke-opacity="1" stroke-dasharray="0.468347 0.468347" stroke-dashoffset="0.468347" stroke-miterlimit="4" d="M 8.535398 -0.594183 L 2.655334 9.58891 L -3.228212 -0.594183 Z M 8.535398 -0.594183 " transform="matrix(1.121374, 0, 0, 0.347543, 6.084877, 2.534629)"/>
<path fill-rule="nonzero" fill="rgb(100%, 100%, 100%)" fill-opacity="1" stroke-width="0.468347" stroke-linecap="butt" stroke-linejoin="miter" stroke="rgb(100%, 100%, 100%)" stroke-opacity="1" stroke-dasharray="0.468347 0.468347" stroke-dashoffset="0.468347" stroke-miterlimit="4" d="M 8.535398 -0.587089 L 2.655334 9.607243 L -3.228212 -0.587089 Z M 8.535398 -0.587089 " transform="matrix(1.121374, 0, 0, -0.347543, 6.084877, 21.600649)"/>
<path fill-rule="nonzero" fill="rgb(100%, 100%, 100%)" fill-opacity="1" stroke-width="0.187647" stroke-linecap="butt" stroke-linejoin="miter" stroke="rgb(100%, 100%, 100%)" stroke-opacity="1" stroke-dasharray="0.187647 0.187647" stroke-dashoffset="0.187647" stroke-miterlimit="4" d="M 6.930338 13.720703 L 6.048177 13.720703 L 6.048177 8.597005 C 6.048177 8.304036 6.051432 8.066406 6.057942 7.890625 C 6.064453 7.711588 6.074219 7.526041 6.090495 7.333984 C 5.979817 7.444661 5.878906 7.535807 5.791015 7.610677 C 5.703125 7.688802 5.589192 7.783203 5.452474 7.90039 L 4.671224 8.535156 L 4.199219 7.929687 L 6.18164 6.389974 L 6.930338 6.389974 Z M 6.930338 13.720703 " transform="matrix(1.2, 0, 0, 1.2, 0, 0)"/>
<path fill-rule="nonzero" fill="rgb(100%, 100%, 100%)" fill-opacity="1" stroke-width="0.110445" stroke-linecap="butt" stroke-linejoin="miter" stroke="rgb(100%, 100%, 100%)" stroke-opacity="1" stroke-dasharray="0.110445 0.110445" stroke-dashoffset="0.110445" stroke-miterlimit="4" d="M 10.325534 6.630859 C 10.768242 6.630859 11.12306 6.741536 11.383476 6.96289 C 11.643893 7.184245 11.777357 7.496744 11.777357 7.90039 C 11.777357 8.349609 11.634127 8.701172 11.347669 8.958333 C 11.064466 9.212239 10.670586 9.339192 10.162773 9.339192 C 9.941419 9.339192 9.733086 9.319661 9.534518 9.277343 C 9.339206 9.238281 9.176445 9.179687 9.042982 9.104817 L 9.042982 8.603515 C 9.189466 8.691406 9.365247 8.759765 9.570325 8.815104 C 9.778659 8.860677 9.980482 8.886718 10.169284 8.886718 C 10.488294 8.886718 10.7422 8.811849 10.937513 8.662109 C 11.132825 8.509114 11.233737 8.274739 11.233737 7.955729 C 11.233737 7.672526 11.145846 7.457682 10.97332 7.307942 C 10.800794 7.154948 10.524101 7.080078 10.149752 7.080078 C 10.039075 7.080078 9.908867 7.089843 9.762383 7.109375 C 9.619154 7.128906 9.501966 7.148437 9.414075 7.171224 L 9.147148 7.001953 L 9.309909 4.964193 L 11.474622 4.964193 L 11.474622 5.445963 L 9.762383 5.445963 L 9.661471 6.699218 C 9.729831 6.686198 9.820976 6.673177 9.938164 6.656901 C 10.055351 6.640625 10.18556 6.630859 10.325534 6.630859 Z M 10.325534 6.630859 " transform="matrix(1.2, 0, 0, 1.2, -1.125016, 0)"/>
</svg>
