<?xml version="1.0" encoding="UTF-8"?>
<svg xmlns="http://www.w3.org/2000/svg" xmlns:xlink="http://www.w3.org/1999/xlink" width="18" height="24.135292" viewBox="0 0 18 24.135292">
<path fill-rule="nonzero" fill="rgb(14.901961%, 14.901961%, 14.901961%)" fill-opacity="1" d="M 0.511719 0 L 17.488281 0 C 17.765625 0 18 0.230469 18 0.511719 L 18 23.625 C 18 23.910156 17.765625 24.136719 17.488281 24.136719 L 0.511719 24.136719 C 0.230469 24.136719 0 23.910156 0 23.625 L 0 0.511719 C 0 0.230469 0.230469 0 0.511719 0 Z M 0.511719 0 "/>
<path fill="none" stroke-width="0.204" stroke-linecap="butt" stroke-linejoin="miter" stroke="rgb(60.392157%, 60.392157%, 60.392157%)" stroke-opacity="1" stroke-miterlimit="4" d="M 1.396729 1.047547 L 13.475849 1.047547 C 13.64074 1.047547 13.770067 1.189806 13.770067 1.374097 L 13.770067 18.222141 C 13.770067 18.406431 13.64074 18.548691 13.475849 18.548691 L 1.396729 18.548691 C 1.238304 18.548691 1.105744 18.406431 1.105744 18.222141 L 1.105744 1.374097 C 1.105744 1.189806 1.238304 1.047547 1.396729 1.047547 Z M 1.396729 1.047547 " transform="matrix(1.20818, 0, 0, 1.20818, 0, 0)"/>
<path fill-rule="nonzero" fill="rgb(100%, 100%, 100%)" fill-opacity="1" stroke-width="0.468347" stroke-linecap="butt" stroke-linejoin="miter" stroke="rgb(100%, 100%, 100%)" stroke-opacity="1" stroke-dasharray="0.468347 0.468347" stroke-dashoffset="0.468347" stroke-miterlimit="4" d="M 8.535398 -0.594183 L 2.655334 9.58891 L -3.228212 -0.594183 Z M 8.535398 -0.594183 " transform="matrix(1.121374, 0, 0, 0.347543, 6.084877, 2.534629)"/>
<path fill-rule="nonzero" fill="rgb(100%, 100%, 100%)" fill-opacity="1" stroke-width="0.468347" stroke-linecap="butt" stroke-linejoin="miter" stroke="rgb(100%, 100%, 100%)" stroke-opacity="1" stroke-dasharray="0.468347 0.468347" stroke-dashoffset="0.468347" stroke-miterlimit="4" d="M 8.535398 -0.587089 L 2.655334 9.607243 L -3.228212 -0.587089 Z M 8.535398 -0.587089 " transform="matrix(1.121374, 0, 0, -0.347543, 6.084877, 21.600649)"/>
<path fill-rule="nonzero" fill="rgb(100%, 100%, 100%)" fill-opacity="1" stroke-width="0.193734" stroke-linecap="butt" stroke-linejoin="miter" stroke="rgb(100%, 100%, 100%)" stroke-opacity="1" stroke-dasharray="0.193734 0.193734" stroke-dashoffset="0.193734" stroke-miterlimit="4" d="M 5.003255 13.83138 L 4.091797 13.83138 L 4.091797 8.541666 C 4.091797 8.235677 4.095052 7.991536 4.101562 7.809244 C 4.108073 7.626953 4.121094 7.434896 4.134114 7.236328 C 4.020182 7.35026 3.919271 7.444661 3.828125 7.522786 C 3.733724 7.600911 3.616536 7.698567 3.476562 7.81901 L 2.672526 8.476562 L 2.184245 7.851562 L 4.228515 6.259765 L 5.003255 6.259765 Z M 5.003255 13.83138 " transform="matrix(1.2, 0, 0, 1.2, 0, 0)"/>
<path fill-rule="nonzero" fill="rgb(100%, 100%, 100%)" fill-opacity="1" stroke-width="0.193734" stroke-linecap="butt" stroke-linejoin="miter" stroke="rgb(100%, 100%, 100%)" stroke-opacity="1" stroke-dasharray="0.193734 0.193734" stroke-dashoffset="0.193734" stroke-miterlimit="4" d="M 12.815755 13.83138 L 7.8125 13.83138 L 7.8125 13.05664 L 9.794921 11.054687 C 10.175781 10.670572 10.498046 10.332031 10.758463 10.035807 C 11.022135 9.739583 11.220703 9.449869 11.354166 9.166666 C 11.48763 8.876953 11.555989 8.561198 11.555989 8.222656 C 11.555989 7.805989 11.432291 7.490234 11.184895 7.278646 C 10.9375 7.060547 10.615234 6.94987 10.218099 6.94987 C 9.85026 6.94987 9.527994 7.014974 9.244791 7.141927 C 8.968099 7.26888 8.684895 7.444661 8.395182 7.672526 L 7.897135 7.044271 C 8.193359 6.80013 8.535156 6.588541 8.916015 6.419271 C 9.303385 6.243489 9.739583 6.155599 10.218099 6.155599 C 10.927734 6.155599 11.484375 6.334635 11.894531 6.695963 C 12.304687 7.050781 12.509765 7.539062 12.509765 8.170573 C 12.509765 8.564453 12.428385 8.935547 12.265625 9.283854 C 12.102864 9.628906 11.878255 9.970703 11.588541 10.3125 C 11.295572 10.644531 10.957031 10.999349 10.569661 11.383463 L 8.990885 12.939453 L 8.990885 12.98177 L 12.815755 12.98177 Z M 12.815755 13.83138 " transform="matrix(1.2, 0, 0, 1.2, 0, 0)"/>
</svg>
