<?xml version="1.0" encoding="UTF-8"?>
<svg xmlns="http://www.w3.org/2000/svg" xmlns:xlink="http://www.w3.org/1999/xlink" width="18" height="24.135292" viewBox="0 0 18 24.135292">
<path fill-rule="nonzero" fill="rgb(14.901961%, 14.901961%, 14.901961%)" fill-opacity="1" d="M 0.511719 0 L 17.488281 0 C 17.765625 0 18 0.230469 18 0.511719 L 18 23.625 C 18 23.910156 17.765625 24.136719 17.488281 24.136719 L 0.511719 24.136719 C 0.230469 24.136719 0 23.910156 0 23.625 L 0 0.511719 C 0 0.230469 0.230469 0 0.511719 0 Z M 0.511719 0 "/>
<path fill="none" stroke-width="0.204" stroke-linecap="butt" stroke-linejoin="miter" stroke="rgb(60.392157%, 60.392157%, 60.392157%)" stroke-opacity="1" stroke-miterlimit="4" d="M 1.396729 1.047547 L 13.475849 1.047547 C 13.64074 1.047547 13.770067 1.189806 13.770067 1.374097 L 13.770067 18.222141 C 13.770067 18.406431 13.64074 18.548691 13.475849 18.548691 L 1.396729 18.548691 C 1.238304 18.548691 1.105744 18.406431 1.105744 18.222141 L 1.105744 1.374097 C 1.105744 1.189806 1.238304 1.047547 1.396729 1.047547 Z M 1.396729 1.047547 " transform="matrix(1.20818, 0, 0, 1.20818, 0, 0)"/>
<path fill-rule="nonzero" fill="rgb(100%, 100%, 100%)" fill-opacity="1" stroke-width="0.468347" stroke-linecap="butt" stroke-linejoin="miter" stroke="rgb(100%, 100%, 100%)" stroke-opacity="1" stroke-dasharray="0.468347 0.468347" stroke-dashoffset="0.468347" stroke-miterlimit="4" d="M 8.535398 -0.594183 L 2.655334 9.58891 L -3.228212 -0.594183 Z M 8.535398 -0.594183 " transform="matrix(1.121374, 0, 0, 0.347543, 6.084877, 2.534629)"/>
<path fill-rule="nonzero" fill="rgb(100%, 100%, 100%)" fill-opacity="1" stroke-width="0.468347" stroke-linecap="butt" stroke-linejoin="miter" stroke="rgb(100%, 100%, 100%)" stroke-opacity="1" stroke-dasharray="0.468347 0.468347" stroke-dashoffset="0.468347" stroke-miterlimit="4" d="M 8.535398 -0.587089 L 2.655334 9.607243 L -3.228212 -0.587089 Z M 8.535398 -0.587089 " transform="matrix(1.121374, 0, 0, -0.347543, 6.084877, 21.600649)"/>
<path fill-rule="nonzero" fill="rgb(100%, 100%, 100%)" fill-opacity="1" stroke-width="0.29238" stroke-linecap="butt" stroke-linejoin="miter" stroke="rgb(100%, 100%, 100%)" stroke-opacity="1" stroke-dasharray="0.29238 0.29238" stroke-dashoffset="0.29238" stroke-miterlimit="4" d="M 8.066406 13.757812 C 8.066406 13.421875 8.097656 13.132812 8.160156 12.894531 C 8.230469 12.644531 8.347656 12.40625 8.507812 12.1875 C 8.675781 11.964844 8.902344 11.734375 9.1875 11.492188 C 9.535156 11.199219 9.800781 10.953125 9.988281 10.757812 C 10.183594 10.5625 10.320312 10.371094 10.398438 10.1875 C 10.480469 10 10.519531 9.773438 10.519531 9.507812 C 10.519531 9.078125 10.382812 8.75 10.105469 8.519531 C 9.832031 8.289062 9.429688 8.171875 8.90625 8.171875 C 8.472656 8.171875 8.085938 8.230469 7.746094 8.347656 C 7.410156 8.453125 7.085938 8.582031 6.773438 8.734375 L 6.359375 7.800781 C 6.714844 7.613281 7.105469 7.457031 7.535156 7.332031 C 7.96875 7.207031 8.453125 7.144531 8.988281 7.144531 C 9.832031 7.144531 10.484375 7.355469 10.945312 7.773438 C 11.410156 8.191406 11.640625 8.757812 11.640625 9.480469 C 11.640625 9.878906 11.574219 10.222656 11.441406 10.507812 C 11.316406 10.78125 11.132812 11.039062 10.894531 11.277344 C 10.664062 11.511719 10.386719 11.757812 10.066406 12.027344 C 9.773438 12.273438 9.546875 12.492188 9.386719 12.679688 C 9.234375 12.867188 9.132812 13.050781 9.078125 13.238281 C 9.027344 13.417969 9 13.636719 9 13.894531 L 9 14.121094 L 8.066406 14.121094 Z M 7.761719 16.078125 C 7.761719 15.75 7.835938 15.519531 7.988281 15.386719 C 8.148438 15.253906 8.347656 15.1875 8.585938 15.1875 C 8.808594 15.1875 9 15.253906 9.160156 15.386719 C 9.320312 15.519531 9.398438 15.75 9.398438 16.078125 C 9.398438 16.398438 9.320312 16.628906 9.160156 16.773438 C 9 16.914062 8.808594 16.984375 8.585938 16.984375 C 8.347656 16.984375 8.148438 16.914062 7.988281 16.773438 C 7.835938 16.628906 7.761719 16.398438 7.761719 16.078125 Z M 7.761719 16.078125 "/>
</svg>
