<?xml version="1.0" encoding="UTF-8"?>
<svg xmlns="http://www.w3.org/2000/svg" xmlns:xlink="http://www.w3.org/1999/xlink" width="18" height="24.135292" viewBox="0 0 18 24.135292">
<path fill-rule="nonzero" fill="rgb(14.901961%, 14.901961%, 14.901961%)" fill-opacity="1" d="M 0.511719 0 L 17.488281 0 C 17.765625 0 18 0.230469 18 0.511719 L 18 23.625 C 18 23.910156 17.765625 24.136719 17.488281 24.136719 L 0.511719 24.136719 C 0.230469 24.136719 0 23.910156 0 23.625 L 0 0.511719 C 0 0.230469 0.230469 0 0.511719 0 Z M 0.511719 0 "/>
<path fill="none" stroke-width="0.204" stroke-linecap="butt" stroke-linejoin="miter" stroke="rgb(60.392157%, 60.392157%, 60.392157%)" stroke-opacity="1" stroke-miterlimit="4" d="M 1.396729 1.047547 L 13.475849 1.047547 C 13.64074 1.047547 13.770067 1.189806 13.770067 1.374097 L 13.770067 18.222141 C 13.770067 18.406431 13.64074 18.548691 13.475849 18.548691 L 1.396729 18.548691 C 1.238304 18.548691 1.105744 18.406431 1.105744 18.222141 L 1.105744 1.374097 C 1.105744 1.189806 1.238304 1.047547 1.396729 1.047547 Z M 1.396729 1.047547 " transform="matrix(1.20818, 0, 0, 1.20818, 0, 0)"/>
<path fill-rule="nonzero" fill="rgb(100%, 100%, 100%)" fill-opacity="1" stroke-width="0.468347" stroke-linecap="butt" stroke-linejoin="miter" stroke="rgb(100%, 100%, 100%)" stroke-opacity="1" stroke-dasharray="0.468347 0.468347" stroke-dashoffset="0.468347" stroke-miterlimit="4" d="M 8.535398 -0.594183 L 2.655334 9.58891 L -3.228212 -0.594183 Z M 8.535398 -0.594183 " transform="matrix(1.121374, 0, 0, 0.347543, 6.084877, 2.534629)"/>
<path fill-rule="nonzero" fill="rgb(100%, 100%, 100%)" fill-opacity="1" stroke-width="0.468347" stroke-linecap="butt" stroke-linejoin="miter" stroke="rgb(100%, 100%, 100%)" stroke-opacity="1" stroke-dasharray="0.468347 0.468347" stroke-dashoffset="0.468347" stroke-miterlimit="4" d="M 8.535398 -0.587089 L 2.655334 9.607243 L -3.228212 -0.587089 Z M 8.535398 -0.587089 " transform="matrix(1.121374, 0, 0, -0.347543, 6.084877, 21.600649)"/>
<path fill-rule="nonzero" fill="rgb(100%, 100%, 100%)" fill-opacity="1" stroke-width="0.230376" stroke-linecap="butt" stroke-linejoin="miter" stroke="rgb(100%, 100%, 100%)" stroke-opacity="1" stroke-dasharray="0.230376 0.230376" stroke-dashoffset="0.230376" stroke-miterlimit="4" d="M 10.462239 9.401041 C 10.462239 10.048828 10.403645 10.686849 10.286458 11.318359 C 10.175781 11.940104 9.970703 12.50651 9.667968 13.017578 C 9.375 13.522135 8.955078 13.925781 8.408203 14.228515 C 7.871093 14.531249 7.177734 14.684244 6.328125 14.684244 C 6.158854 14.684244 5.963541 14.671223 5.735677 14.645182 C 5.517578 14.628906 5.335286 14.599609 5.192057 14.557291 L 5.192057 13.610026 C 5.520833 13.720703 5.891927 13.776041 6.302083 13.776041 C 6.891276 13.776041 7.373047 13.678385 7.750651 13.486328 C 8.138021 13.291015 8.44401 13.030598 8.671875 12.705078 C 8.899739 12.366536 9.0625 11.982421 9.163411 11.542968 C 9.264323 11.097005 9.322916 10.63151 9.339192 10.143229 L 9.264323 10.143229 C 9.078776 10.429687 8.811849 10.677083 8.457031 10.888671 C 8.111979 11.090494 7.669271 11.191406 7.122396 11.191406 C 6.347656 11.191406 5.722656 10.957031 5.24414 10.485026 C 4.772135 10.00651 4.53776 9.332682 4.53776 8.466797 C 4.53776 7.838541 4.654948 7.294922 4.889323 6.842448 C 5.133463 6.386718 5.46875 6.038411 5.898437 5.794271 C 6.328125 5.55013 6.832682 5.429687 7.412109 5.429687 C 7.981771 5.429687 8.499349 5.576172 8.961588 5.86914 C 9.423828 6.155599 9.791666 6.595052 10.058593 7.180989 C 10.328776 7.760416 10.462239 8.502604 10.462239 9.401041 Z M 7.412109 6.363932 C 6.891276 6.363932 6.461588 6.533203 6.126302 6.878255 C 5.797526 7.223307 5.634765 7.750651 5.634765 8.453776 C 5.634765 9.036458 5.771484 9.492187 6.051432 9.830729 C 6.334635 10.15625 6.774088 10.322265 7.360026 10.322265 C 7.763672 10.322265 8.111979 10.240885 8.408203 10.08138 C 8.701172 9.912109 8.929036 9.703776 9.088541 9.449869 C 9.257812 9.199218 9.339192 8.938802 9.339192 8.668619 C 9.339192 8.307291 9.267578 7.949218 9.127604 7.597656 C 8.984375 7.246093 8.769531 6.94987 8.483073 6.715495 C 8.196614 6.48112 7.841797 6.363932 7.412109 6.363932 Z M 7.412109 6.363932 " transform="matrix(1.2, 0, 0, 1.2, 0, 0)"/>
</svg>
