<?xml version="1.0" encoding="UTF-8"?>
<svg xmlns="http://www.w3.org/2000/svg" xmlns:xlink="http://www.w3.org/1999/xlink" width="18" height="15.413925" viewBox="0 0 18 15.413925">
<path fill-rule="nonzero" fill="rgb(100%, 79.607843%, 0%)" fill-opacity="1" stroke-width="0.7" stroke-linecap="round" stroke-linejoin="round" stroke="rgb(0%, 0%, 0%)" stroke-opacity="1" stroke-miterlimit="4" d="M 21.972775 0.444041 C 13.540851 0.444041 7.114436 0.414764 0.35133 0.351329 C 3.615773 6.104361 7.836615 13.150483 11.101058 18.903515 C 14.482611 13.160242 22.133801 0.444041 22.133801 0.444041 Z M 21.972775 0.444041 " transform="matrix(0.800529, 0, 0, 0.800529, 0, 0.00000065376)"/>
<path fill-rule="nonzero" fill="rgb(0%, 0%, 0%)" fill-opacity="1" d="M 11.875 8.394531 L 11.875 5.15625 C 11.875 3.359375 11.8125 2.902344 11.5 2.371094 C 10.992188 1.527344 10.066406 1.035156 8.980469 1.035156 C 7.980469 1.035156 7.152344 1.433594 6.609375 2.179688 C 6.164062 2.769531 6.089844 3.203125 6.089844 5.15625 L 6.089844 8.394531 L 6.933594 8.394531 L 6.933594 5.117188 C 6.933594 3.757812 7.007812 3.191406 7.222656 2.78125 C 7.546875 2.179688 8.246094 1.769531 8.980469 1.769531 C 9.667969 1.769531 10.332031 2.117188 10.679688 2.671875 C 10.957031 3.105469 11.03125 3.601562 11.03125 5.117188 L 11.03125 8.394531 Z M 11.875 8.394531 "/>
<path fill-rule="nonzero" fill="rgb(0%, 0%, 0%)" fill-opacity="1" d="M 8.585938 6.492188 C 8.585938 6.34375 8.597656 6.214844 8.625 6.105469 C 8.65625 5.996094 8.710938 5.890625 8.78125 5.792969 C 8.855469 5.691406 8.957031 5.589844 9.082031 5.484375 C 9.238281 5.351562 9.355469 5.242188 9.4375 5.15625 C 9.527344 5.070312 9.585938 4.984375 9.625 4.902344 C 9.660156 4.820312 9.675781 4.71875 9.675781 4.597656 C 9.675781 4.410156 9.613281 4.261719 9.492188 4.160156 C 9.371094 4.058594 9.191406 4.003906 8.957031 4.003906 C 8.765625 4.003906 8.59375 4.03125 8.441406 4.082031 C 8.292969 4.128906 8.148438 4.1875 8.007812 4.253906 L 7.824219 3.839844 C 7.984375 3.757812 8.15625 3.6875 8.347656 3.632812 C 8.542969 3.578125 8.757812 3.550781 8.992188 3.550781 C 9.371094 3.550781 9.660156 3.640625 9.867188 3.828125 C 10.070312 4.015625 10.175781 4.265625 10.175781 4.585938 C 10.175781 4.765625 10.144531 4.917969 10.085938 5.042969 C 10.03125 5.167969 9.949219 5.28125 9.84375 5.386719 C 9.738281 5.492188 9.617188 5.601562 9.476562 5.722656 C 9.34375 5.832031 9.242188 5.929688 9.171875 6.011719 C 9.105469 6.09375 9.058594 6.175781 9.035156 6.261719 C 9.011719 6.339844 9 6.4375 9 6.550781 L 9 6.652344 L 8.585938 6.652344 Z M 8.449219 7.523438 C 8.449219 7.378906 8.480469 7.277344 8.550781 7.214844 C 8.621094 7.15625 8.710938 7.128906 8.816406 7.128906 C 8.914062 7.128906 9 7.15625 9.070312 7.214844 C 9.140625 7.277344 9.179688 7.378906 9.179688 7.523438 C 9.179688 7.667969 9.140625 7.769531 9.070312 7.832031 C 9 7.898438 8.914062 7.929688 8.816406 7.929688 C 8.710938 7.929688 8.621094 7.898438 8.550781 7.832031 C 8.480469 7.769531 8.449219 7.667969 8.449219 7.523438 Z M 8.449219 7.523438 "/>
</svg>
