<?xml version="1.0" encoding="UTF-8"?>
<svg xmlns="http://www.w3.org/2000/svg" xmlns:xlink="http://www.w3.org/1999/xlink" width="8" height="13.272727" viewBox="0 0 8 13.272727">
<path fill-rule="evenodd" fill="rgb(100%, 100%, 100%)" fill-opacity="1" d="M 0 0 L 8 0 L 8 13.273438 L 0 13.273438 Z M 0 0 "/>
<path fill-rule="evenodd" fill="rgb(0%, 0%, 0%)" fill-opacity="1" d="M 0 0 L 8 0 L 8 13.273438 L 0 13.273438 Z M 0.363281 0.363281 L 7.636719 0.363281 L 7.636719 12.910156 L 0.363281 12.910156 Z M 0.363281 0.363281 "/>
<path fill-rule="nonzero" fill="rgb(0%, 0%, 0%)" fill-opacity="1" d="M 6.15625 5.742188 C 6.15625 6.1875 6.082031 6.585938 5.929688 6.933594 C 5.777344 7.285156 5.5625 7.554688 5.277344 7.746094 C 4.996094 7.9375 4.660156 8.035156 4.273438 8.035156 L 2.992188 8.035156 L 2.992188 10.464844 L 1.910156 10.464844 L 1.910156 3.558594 L 4.230469 3.558594 C 4.847656 3.558594 5.324219 3.75 5.65625 4.128906 C 5.988281 4.511719 6.15625 5.046875 6.15625 5.742188 Z M 5.066406 5.769531 C 5.066406 5.042969 4.75 4.679688 4.109375 4.679688 L 2.992188 4.679688 L 2.992188 6.921875 L 4.136719 6.921875 C 4.4375 6.921875 4.664062 6.820312 4.828125 6.625 C 4.988281 6.425781 5.066406 6.140625 5.066406 5.769531 Z M 1.40625 1.378906 "/>
</svg>
