<?xml version="1.0" encoding="UTF-8"?>
<svg xmlns="http://www.w3.org/2000/svg" xmlns:xlink="http://www.w3.org/1999/xlink" width="12" height="23.177192" viewBox="0 0 12 23.177192">
<path fill-rule="nonzero" fill="rgb(0%, 26.666667%, 66.666667%)" fill-opacity="1" stroke-width="0.4" stroke-linecap="butt" stroke-linejoin="miter" stroke="rgb(0%, 0%, 0%)" stroke-opacity="1" stroke-miterlimit="4" d="M 4.265767 2.255012 C 4.265767 3.391968 3.35562 4.313746 2.234657 4.313746 C 1.106424 4.313746 0.200639 3.391968 0.200639 2.255012 C 0.200639 1.118055 1.106424 0.200639 2.234657 0.200639 C 3.35562 0.200639 4.265767 1.118055 4.265767 2.255012 Z M 4.265767 2.255012 " transform="matrix(2.686724, 0, 0, 2.686724, 0, 0)"/>
<path fill-rule="nonzero" fill="rgb(0%, 26.666667%, 66.666667%)" fill-opacity="1" stroke-width="0.4" stroke-linecap="butt" stroke-linejoin="miter" stroke="rgb(0%, 0%, 0%)" stroke-opacity="1" stroke-miterlimit="4" d="M 4.265767 6.368118 C 4.265767 7.505074 3.35562 8.426852 2.234657 8.426852 C 1.106424 8.426852 0.200639 7.505074 0.200639 6.368118 C 0.200639 5.231162 1.106424 4.313746 2.234657 4.313746 C 3.35562 4.313746 4.265767 5.231162 4.265767 6.368118 Z M 4.265767 6.368118 " transform="matrix(2.686724, 0, 0, 2.686724, 0, 0)"/>
</svg>
