<?xml version="1.0" encoding="UTF-8"?>
<svg xmlns="http://www.w3.org/2000/svg" xmlns:xlink="http://www.w3.org/1999/xlink" width="16" height="13.692153" viewBox="0 0 16 13.692153">
<path fill-rule="nonzero" fill="rgb(43.921569%, 74.901961%, 28.235294%)" fill-opacity="1" stroke-width="0.7" stroke-linecap="round" stroke-linejoin="round" stroke="rgb(0%, 0%, 0%)" stroke-opacity="1" stroke-miterlimit="4" d="M 17.659355 15.157465 C 10.906467 15.135324 5.760988 15.139752 0.349822 15.170749 C 2.980127 10.574357 6.376497 4.946213 9.006802 0.349821 C 11.699101 4.955069 17.78777 15.157465 17.78777 15.157465 Z M 17.659355 15.157465 " transform="matrix(0.882146, 0, 0, 0.882146, 0, 0.00000042064)"/>
<path fill-rule="nonzero" fill="rgb(0%, 0%, 0%)" fill-opacity="1" d="M 6.523438 11.835938 L 5.984375 11.835938 L 5.984375 8.527344 C 5.984375 8.335938 5.984375 8.183594 5.988281 8.070312 C 5.992188 7.953125 6 7.835938 6.007812 7.710938 C 5.941406 7.78125 5.878906 7.84375 5.824219 7.890625 C 5.769531 7.9375 5.703125 8 5.617188 8.078125 L 5.140625 8.488281 L 4.851562 8.097656 L 6.0625 7.101562 L 6.523438 7.101562 Z M 6.523438 11.835938 "/>
<path fill-rule="nonzero" fill="rgb(0%, 0%, 0%)" fill-opacity="1" d="M 11.148438 11.835938 L 8.183594 11.835938 L 8.183594 11.351562 L 9.359375 10.097656 C 9.585938 9.859375 9.773438 9.648438 9.929688 9.460938 C 10.085938 9.277344 10.203125 9.09375 10.28125 8.917969 C 10.359375 8.738281 10.398438 8.539062 10.398438 8.328125 C 10.398438 8.066406 10.328125 7.871094 10.179688 7.738281 C 10.035156 7.601562 9.84375 7.53125 9.609375 7.53125 C 9.390625 7.53125 9.199219 7.574219 9.03125 7.652344 C 8.867188 7.730469 8.703125 7.84375 8.53125 7.984375 L 8.234375 7.59375 C 8.410156 7.4375 8.613281 7.308594 8.835938 7.199219 C 9.066406 7.089844 9.324219 7.035156 9.609375 7.035156 C 10.027344 7.035156 10.359375 7.148438 10.601562 7.375 C 10.84375 7.59375 10.964844 7.902344 10.964844 8.296875 C 10.964844 8.542969 10.917969 8.773438 10.820312 8.992188 C 10.722656 9.207031 10.589844 9.421875 10.417969 9.632812 C 10.246094 9.84375 10.046875 10.066406 9.816406 10.304688 L 8.882812 11.277344 L 8.882812 11.304688 L 11.148438 11.304688 Z M 11.148438 11.835938 "/>
</svg>
