<?xml version="1.0" encoding="UTF-8"?>
<svg xmlns="http://www.w3.org/2000/svg" xmlns:xlink="http://www.w3.org/1999/xlink" width="16" height="13.692153" viewBox="0 0 16 13.692153">
<path fill-rule="nonzero" fill="rgb(43.921569%, 74.901961%, 28.235294%)" fill-opacity="1" stroke-width="0.7" stroke-linecap="round" stroke-linejoin="round" stroke="rgb(0%, 0%, 0%)" stroke-opacity="1" stroke-miterlimit="4" d="M 17.659355 15.157465 C 10.906467 15.135324 5.760988 15.139752 0.349822 15.170749 C 2.980127 10.574357 6.376497 4.946213 9.006802 0.349821 C 11.699101 4.955069 17.78777 15.157465 17.78777 15.157465 Z M 17.659355 15.157465 " transform="matrix(0.882146, 0, 0, 0.882146, 0, 0.00000042064)"/>
<path fill-rule="nonzero" fill="rgb(0%, 0%, 0%)" fill-opacity="1" d="M 6.03125 9.175781 C 6.03125 8.722656 6.066406 8.273438 6.140625 7.839844 C 6.21875 7.394531 6.355469 6.996094 6.550781 6.644531 C 6.75 6.285156 7.03125 5.996094 7.386719 5.785156 C 7.746094 5.574219 8.207031 5.464844 8.769531 5.464844 C 8.886719 5.464844 9.015625 5.472656 9.15625 5.484375 C 9.300781 5.496094 9.417969 5.515625 9.507812 5.546875 L 9.507812 6.210938 C 9.40625 6.175781 9.292969 6.148438 9.164062 6.128906 C 9.042969 6.113281 8.917969 6.101562 8.789062 6.101562 C 8.402344 6.101562 8.082031 6.171875 7.824219 6.308594 C 7.566406 6.441406 7.363281 6.628906 7.210938 6.863281 C 7.066406 7.101562 6.960938 7.371094 6.894531 7.679688 C 6.828125 7.984375 6.785156 8.3125 6.769531 8.660156 L 6.820312 8.660156 C 6.945312 8.457031 7.125 8.28125 7.355469 8.140625 C 7.582031 7.992188 7.878906 7.917969 8.234375 7.917969 C 8.753906 7.917969 9.171875 8.085938 9.492188 8.421875 C 9.808594 8.753906 9.96875 9.226562 9.96875 9.839844 C 9.96875 10.5 9.796875 11.019531 9.449219 11.398438 C 9.109375 11.773438 8.648438 11.964844 8.066406 11.964844 C 7.6875 11.964844 7.34375 11.863281 7.035156 11.664062 C 6.730469 11.460938 6.484375 11.15625 6.300781 10.742188 C 6.121094 10.328125 6.03125 9.808594 6.03125 9.175781 Z M 8.058594 11.308594 C 8.410156 11.308594 8.695312 11.191406 8.914062 10.953125 C 9.132812 10.710938 9.238281 10.339844 9.238281 9.839844 C 9.238281 9.4375 9.140625 9.121094 8.945312 8.882812 C 8.757812 8.648438 8.46875 8.527344 8.082031 8.527344 C 7.820312 8.527344 7.59375 8.589844 7.398438 8.707031 C 7.203125 8.816406 7.046875 8.960938 6.9375 9.140625 C 6.828125 9.316406 6.777344 9.5 6.777344 9.6875 C 6.777344 9.941406 6.824219 10.195312 6.917969 10.449219 C 7.015625 10.699219 7.15625 10.90625 7.347656 11.070312 C 7.535156 11.230469 7.773438 11.308594 8.058594 11.308594 Z M 8.058594 11.308594 "/>
</svg>
