<?xml version="1.0" encoding="UTF-8"?>
<svg xmlns="http://www.w3.org/2000/svg" xmlns:xlink="http://www.w3.org/1999/xlink" width="16" height="13.692153" viewBox="0 0 16 13.692153">
<path fill-rule="nonzero" fill="rgb(43.921569%, 74.901961%, 28.235294%)" fill-opacity="1" stroke-width="0.7" stroke-linecap="round" stroke-linejoin="round" stroke="rgb(0%, 0%, 0%)" stroke-opacity="1" stroke-miterlimit="4" d="M 17.659355 15.157465 C 10.906467 15.135324 5.760988 15.139752 0.349822 15.170749 C 2.980127 10.574357 6.376497 4.946213 9.006802 0.349821 C 11.699101 4.955069 17.78777 15.157465 17.78777 15.157465 Z M 17.659355 15.157465 " transform="matrix(0.882146, 0, 0, 0.882146, 0, 0.00000042064)"/>
<path fill-rule="nonzero" fill="rgb(0%, 0%, 0%)" fill-opacity="1" d="M 7.882812 7.996094 C 8.496094 7.996094 8.984375 8.160156 9.347656 8.484375 C 9.710938 8.808594 9.894531 9.265625 9.894531 9.855469 C 9.894531 10.511719 9.695312 11.027344 9.296875 11.40625 C 8.90625 11.777344 8.359375 11.964844 7.65625 11.964844 C 7.347656 11.964844 7.058594 11.933594 6.785156 11.875 C 6.515625 11.816406 6.289062 11.730469 6.105469 11.617188 L 6.105469 10.882812 C 6.308594 11.011719 6.550781 11.117188 6.835938 11.195312 C 7.125 11.265625 7.402344 11.300781 7.664062 11.300781 C 8.105469 11.300781 8.460938 11.191406 8.730469 10.972656 C 9.003906 10.746094 9.140625 10.402344 9.140625 9.9375 C 9.140625 9.523438 9.019531 9.207031 8.777344 8.988281 C 8.539062 8.765625 8.160156 8.652344 7.640625 8.652344 C 7.484375 8.652344 7.304688 8.667969 7.105469 8.695312 C 6.902344 8.726562 6.742188 8.757812 6.617188 8.785156 L 6.25 8.539062 L 6.476562 5.554688 L 9.472656 5.554688 L 9.472656 6.261719 L 7.105469 6.261719 L 6.960938 8.09375 C 7.054688 8.078125 7.183594 8.058594 7.347656 8.035156 C 7.507812 8.007812 7.6875 7.996094 7.882812 7.996094 Z M 7.882812 7.996094 "/>
</svg>
