<?xml version="1.0" encoding="UTF-8"?>
<svg xmlns="http://www.w3.org/2000/svg" xmlns:xlink="http://www.w3.org/1999/xlink" width="16" height="13.692153" viewBox="0 0 16 13.692153">
<path fill-rule="nonzero" fill="rgb(43.921569%, 74.901961%, 28.235294%)" fill-opacity="1" stroke-width="0.7" stroke-linecap="round" stroke-linejoin="round" stroke="rgb(0%, 0%, 0%)" stroke-opacity="1" stroke-miterlimit="4" d="M 17.659355 15.157465 C 10.906467 15.135324 5.760988 15.139752 0.349822 15.170749 C 2.980127 10.574357 6.376497 4.946213 9.006802 0.349821 C 11.699101 4.955069 17.78777 15.157465 17.78777 15.157465 Z M 17.659355 15.157465 " transform="matrix(0.882146, 0, 0, 0.882146, 0, 0.00000042064)"/>
<path fill-rule="nonzero" fill="rgb(0%, 0%, 0%)" fill-opacity="1" d="M 6.539062 11.835938 L 6 11.835938 L 6 8.527344 C 6 8.335938 6 8.183594 6.003906 8.070312 C 6.007812 7.953125 6.015625 7.835938 6.023438 7.710938 C 5.957031 7.78125 5.894531 7.84375 5.839844 7.890625 C 5.785156 7.9375 5.71875 8 5.632812 8.078125 L 5.15625 8.488281 L 4.867188 8.097656 L 6.078125 7.101562 L 6.539062 7.101562 Z M 6.539062 11.835938 "/>
<path fill-rule="nonzero" fill="rgb(0%, 0%, 0%)" fill-opacity="1" d="M 10.992188 8.207031 C 10.992188 8.527344 10.910156 8.78125 10.742188 8.972656 C 10.574219 9.15625 10.347656 9.28125 10.066406 9.34375 L 10.066406 9.371094 C 10.425781 9.414062 10.691406 9.53125 10.867188 9.726562 C 11.042969 9.921875 11.132812 10.175781 11.132812 10.488281 C 11.132812 10.765625 11.070312 11.007812 10.949219 11.226562 C 10.828125 11.4375 10.640625 11.605469 10.382812 11.722656 C 10.132812 11.84375 9.808594 11.902344 9.410156 11.902344 C 9.175781 11.902344 8.960938 11.882812 8.757812 11.84375 C 8.558594 11.808594 8.367188 11.742188 8.183594 11.644531 L 8.183594 11.101562 C 8.371094 11.195312 8.574219 11.273438 8.789062 11.332031 C 9.007812 11.386719 9.21875 11.410156 9.417969 11.410156 C 9.820312 11.410156 10.109375 11.328125 10.285156 11.167969 C 10.464844 11 10.554688 10.769531 10.554688 10.476562 C 10.554688 10.179688 10.441406 9.96875 10.222656 9.839844 C 10.003906 9.707031 9.695312 9.640625 9.300781 9.640625 L 8.867188 9.640625 L 8.867188 9.144531 L 9.304688 9.144531 C 9.671875 9.144531 9.953125 9.0625 10.140625 8.898438 C 10.332031 8.734375 10.429688 8.519531 10.429688 8.25 C 10.429688 8.019531 10.355469 7.84375 10.207031 7.71875 C 10.0625 7.589844 9.863281 7.527344 9.613281 7.527344 C 9.371094 7.527344 9.164062 7.5625 8.992188 7.640625 C 8.820312 7.714844 8.652344 7.808594 8.484375 7.925781 L 8.207031 7.527344 C 8.367188 7.394531 8.5625 7.277344 8.796875 7.179688 C 9.035156 7.085938 9.304688 7.035156 9.605469 7.035156 C 10.074219 7.035156 10.421875 7.144531 10.648438 7.367188 C 10.878906 7.589844 10.992188 7.867188 10.992188 8.207031 Z M 10.992188 8.207031 "/>
</svg>
