<?xml version="1.0" encoding="UTF-8"?>
<svg xmlns="http://www.w3.org/2000/svg" xmlns:xlink="http://www.w3.org/1999/xlink" width="16" height="13.692153" viewBox="0 0 16 13.692153">
<path fill-rule="nonzero" fill="rgb(43.921569%, 74.901961%, 28.235294%)" fill-opacity="1" stroke-width="0.7" stroke-linecap="round" stroke-linejoin="round" stroke="rgb(0%, 0%, 0%)" stroke-opacity="1" stroke-miterlimit="4" d="M 17.659355 15.157465 C 10.906467 15.135324 5.760988 15.139752 0.349822 15.170749 C 2.980127 10.574357 6.376497 4.946213 9.006802 0.349821 C 11.699101 4.955069 17.78777 15.157465 17.78777 15.157465 Z M 17.659355 15.157465 " transform="matrix(0.882146, 0, 0, 0.882146, 0, 0.00000042064)"/>
<path fill-rule="nonzero" fill="rgb(0%, 0%, 0%)" fill-opacity="1" d="M 5.429688 11.945312 L 5 11.945312 L 5 9.292969 C 5 9.144531 5 9.019531 5.003906 8.929688 C 5.007812 8.835938 5.011719 8.742188 5.019531 8.640625 C 4.964844 8.699219 4.917969 8.746094 4.871094 8.785156 C 4.828125 8.824219 4.773438 8.875 4.707031 8.933594 L 4.324219 9.261719 L 4.09375 8.949219 L 5.0625 8.152344 L 5.429688 8.152344 Z M 5.429688 11.945312 "/>
<path fill-rule="nonzero" fill="rgb(0%, 0%, 0%)" fill-opacity="1" d="M 9.132812 11.945312 L 6.761719 11.945312 L 6.761719 11.558594 L 7.703125 10.554688 C 7.882812 10.363281 8.035156 10.191406 8.160156 10.042969 C 8.285156 9.894531 8.378906 9.75 8.441406 9.609375 C 8.503906 9.464844 8.535156 9.304688 8.535156 9.136719 C 8.535156 8.925781 8.476562 8.769531 8.359375 8.664062 C 8.242188 8.554688 8.089844 8.5 7.902344 8.5 C 7.730469 8.5 7.574219 8.53125 7.441406 8.59375 C 7.308594 8.65625 7.175781 8.746094 7.039062 8.859375 L 6.800781 8.546875 C 6.941406 8.421875 7.105469 8.316406 7.285156 8.234375 C 7.46875 8.144531 7.675781 8.101562 7.902344 8.101562 C 8.238281 8.101562 8.503906 8.191406 8.699219 8.371094 C 8.890625 8.546875 8.988281 8.792969 8.988281 9.109375 C 8.988281 9.308594 8.949219 9.492188 8.875 9.667969 C 8.796875 9.839844 8.6875 10.011719 8.550781 10.183594 C 8.414062 10.347656 8.253906 10.527344 8.070312 10.71875 L 7.320312 11.5 L 7.320312 11.519531 L 9.132812 11.519531 Z M 9.132812 11.945312 "/>
<path fill-rule="nonzero" fill="rgb(0%, 0%, 0%)" fill-opacity="1" d="M 10.195312 7.9375 C 10.472656 7.9375 10.691406 8.007812 10.851562 8.152344 C 11.011719 8.300781 11.09375 8.503906 11.09375 8.765625 C 11.09375 9.058594 11.007812 9.289062 10.828125 9.457031 C 10.65625 9.625 10.410156 9.707031 10.097656 9.707031 C 9.960938 9.707031 9.828125 9.695312 9.707031 9.667969 C 9.585938 9.640625 9.488281 9.601562 9.402344 9.550781 L 9.402344 9.226562 C 9.492188 9.28125 9.601562 9.328125 9.730469 9.363281 C 9.859375 9.394531 9.984375 9.410156 10.101562 9.410156 C 10.296875 9.410156 10.457031 9.363281 10.574219 9.265625 C 10.695312 9.164062 10.757812 9.011719 10.757812 8.800781 C 10.757812 8.617188 10.703125 8.476562 10.597656 8.378906 C 10.488281 8.277344 10.320312 8.230469 10.089844 8.230469 C 10.019531 8.230469 9.9375 8.234375 9.847656 8.25 C 9.757812 8.261719 9.6875 8.273438 9.632812 8.289062 L 9.46875 8.175781 L 9.570312 6.847656 L 10.90625 6.847656 L 10.90625 7.164062 L 9.847656 7.164062 L 9.785156 7.980469 C 9.828125 7.972656 9.886719 7.964844 9.957031 7.953125 C 10.03125 7.941406 10.109375 7.9375 10.195312 7.9375 Z M 10.195312 7.9375 "/>
</svg>
