<?xml version="1.0" encoding="UTF-8"?>
<svg xmlns="http://www.w3.org/2000/svg" xmlns:xlink="http://www.w3.org/1999/xlink" width="16" height="13.692153" viewBox="0 0 16 13.692153">
<path fill-rule="nonzero" fill="rgb(43.921569%, 74.901961%, 28.235294%)" fill-opacity="1" stroke-width="0.7" stroke-linecap="round" stroke-linejoin="round" stroke="rgb(0%, 0%, 0%)" stroke-opacity="1" stroke-miterlimit="4" d="M 17.659355 15.157465 C 10.906467 15.135324 5.760988 15.139752 0.349822 15.170749 C 2.980127 10.574357 6.376497 4.946213 9.006802 0.349821 C 11.699101 4.955069 17.78777 15.157465 17.78777 15.157465 Z M 17.659355 15.157465 " transform="matrix(0.882146, 0, 0, 0.882146, 0, 0.00000042064)"/>
<path fill-rule="nonzero" fill="rgb(0%, 0%, 0%)" fill-opacity="1" d="M 7.039062 11.835938 L 6.5 11.835938 L 6.5 8.527344 C 6.5 8.335938 6.503906 8.183594 6.507812 8.070312 C 6.511719 7.953125 6.515625 7.835938 6.523438 7.710938 C 6.457031 7.78125 6.398438 7.84375 6.34375 7.890625 C 6.289062 7.9375 6.21875 8 6.136719 8.078125 L 5.660156 8.488281 L 5.371094 8.097656 L 6.582031 7.101562 L 7.039062 7.101562 Z M 7.039062 11.835938 "/>
<path fill-rule="nonzero" fill="rgb(0%, 0%, 0%)" fill-opacity="1" d="M 10.628906 11.835938 L 10.089844 11.835938 L 10.089844 8.527344 C 10.089844 8.335938 10.089844 8.183594 10.097656 8.070312 C 10.101562 7.953125 10.105469 7.835938 10.113281 7.710938 C 10.046875 7.78125 9.988281 7.84375 9.933594 7.890625 C 9.878906 7.9375 9.808594 8 9.726562 8.078125 L 9.25 8.488281 L 8.960938 8.097656 L 10.171875 7.101562 L 10.628906 7.101562 Z M 10.628906 11.835938 "/>
</svg>
