<?xml version="1.0" encoding="UTF-8"?>
<svg xmlns="http://www.w3.org/2000/svg" xmlns:xlink="http://www.w3.org/1999/xlink" width="16" height="13.692153" viewBox="0 0 16 13.692153">
<path fill-rule="nonzero" fill="rgb(43.921569%, 74.901961%, 28.235294%)" fill-opacity="1" stroke-width="0.7" stroke-linecap="round" stroke-linejoin="round" stroke="rgb(0%, 0%, 0%)" stroke-opacity="1" stroke-miterlimit="4" d="M 17.659355 15.157465 C 10.906467 15.135324 5.760988 15.139752 0.349822 15.170749 C 2.980127 10.574357 6.376497 4.946213 9.006802 0.349821 C 11.699101 4.955069 17.78777 15.157465 17.78777 15.157465 Z M 17.659355 15.157465 " transform="matrix(0.882146, 0, 0, 0.882146, 0, 0.00000042064)"/>
<path fill-rule="nonzero" fill="rgb(0%, 0%, 0%)" fill-opacity="1" d="M 6.507812 11.835938 L 5.96875 11.835938 L 5.96875 8.527344 C 5.96875 8.335938 5.96875 8.183594 5.972656 8.070312 C 5.976562 7.953125 5.984375 7.835938 5.992188 7.710938 C 5.925781 7.78125 5.863281 7.84375 5.808594 7.890625 C 5.753906 7.9375 5.6875 8 5.601562 8.078125 L 5.125 8.488281 L 4.835938 8.097656 L 6.046875 7.101562 L 6.507812 7.101562 Z M 6.507812 11.835938 "/>
<path fill-rule="nonzero" fill="rgb(0%, 0%, 0%)" fill-opacity="1" d="M 8.214844 9.8125 C 8.214844 9.472656 8.242188 9.140625 8.296875 8.8125 C 8.351562 8.480469 8.457031 8.183594 8.601562 7.917969 C 8.753906 7.648438 8.960938 7.433594 9.230469 7.273438 C 9.496094 7.113281 9.84375 7.035156 10.265625 7.035156 C 10.351562 7.035156 10.449219 7.039062 10.554688 7.046875 C 10.664062 7.058594 10.75 7.074219 10.816406 7.09375 L 10.816406 7.59375 C 10.742188 7.566406 10.65625 7.546875 10.558594 7.53125 C 10.46875 7.519531 10.375 7.511719 10.277344 7.511719 C 9.988281 7.511719 9.75 7.5625 9.554688 7.664062 C 9.363281 7.765625 9.210938 7.90625 9.097656 8.082031 C 8.988281 8.261719 8.910156 8.464844 8.859375 8.691406 C 8.808594 8.921875 8.777344 9.167969 8.765625 9.429688 L 8.804688 9.429688 C 8.898438 9.273438 9.035156 9.144531 9.203125 9.039062 C 9.375 8.925781 9.597656 8.871094 9.863281 8.871094 C 10.253906 8.871094 10.566406 8.996094 10.804688 9.25 C 11.042969 9.496094 11.164062 9.851562 11.164062 10.3125 C 11.164062 10.804688 11.03125 11.195312 10.773438 11.476562 C 10.519531 11.761719 10.171875 11.902344 9.738281 11.902344 C 9.453125 11.902344 9.195312 11.828125 8.964844 11.675781 C 8.734375 11.527344 8.550781 11.296875 8.414062 10.988281 C 8.28125 10.675781 8.214844 10.285156 8.214844 9.8125 Z M 9.730469 11.410156 C 9.996094 11.410156 10.207031 11.324219 10.371094 11.144531 C 10.535156 10.964844 10.617188 10.6875 10.617188 10.3125 C 10.617188 10.011719 10.542969 9.769531 10.398438 9.59375 C 10.253906 9.417969 10.039062 9.328125 9.75 9.328125 C 9.554688 9.328125 9.382812 9.375 9.234375 9.460938 C 9.089844 9.546875 8.976562 9.65625 8.890625 9.785156 C 8.8125 9.917969 8.773438 10.054688 8.773438 10.199219 C 8.773438 10.386719 8.808594 10.578125 8.878906 10.769531 C 8.949219 10.953125 9.054688 11.109375 9.199219 11.230469 C 9.339844 11.351562 9.519531 11.410156 9.730469 11.410156 Z M 9.730469 11.410156 "/>
</svg>
