<?xml version="1.0" encoding="UTF-8"?>
<svg xmlns="http://www.w3.org/2000/svg" xmlns:xlink="http://www.w3.org/1999/xlink" width="16" height="13.692153" viewBox="0 0 16 13.692153">
<path fill-rule="nonzero" fill="rgb(43.921569%, 74.901961%, 28.235294%)" fill-opacity="1" stroke-width="0.7" stroke-linecap="round" stroke-linejoin="round" stroke="rgb(0%, 0%, 0%)" stroke-opacity="1" stroke-miterlimit="4" d="M 17.659355 15.157465 C 10.906467 15.135324 5.760988 15.139752 0.349822 15.170749 C 2.980127 10.574357 6.376497 4.946213 9.006802 0.349821 C 11.699101 4.955069 17.78777 15.157465 17.78777 15.157465 Z M 17.659355 15.157465 " transform="matrix(0.882146, 0, 0, 0.882146, 0, 0.00000042064)"/>
<path fill-rule="nonzero" fill="rgb(0%, 0%, 0%)" fill-opacity="1" d="M 9.785156 7.03125 C 9.785156 7.457031 9.671875 7.796875 9.449219 8.050781 C 9.226562 8.300781 8.925781 8.464844 8.542969 8.546875 L 8.542969 8.582031 C 9.023438 8.640625 9.382812 8.800781 9.617188 9.058594 C 9.851562 9.320312 9.96875 9.660156 9.96875 10.078125 C 9.96875 10.445312 9.886719 10.773438 9.726562 11.0625 C 9.5625 11.34375 9.3125 11.566406 8.972656 11.726562 C 8.636719 11.882812 8.203125 11.964844 7.671875 11.964844 C 7.359375 11.964844 7.070312 11.9375 6.800781 11.882812 C 6.535156 11.835938 6.277344 11.75 6.03125 11.617188 L 6.03125 10.890625 C 6.28125 11.023438 6.554688 11.125 6.84375 11.203125 C 7.132812 11.273438 7.414062 11.308594 7.679688 11.308594 C 8.21875 11.308594 8.601562 11.199219 8.835938 10.980469 C 9.078125 10.757812 9.199219 10.449219 9.199219 10.058594 C 9.199219 9.664062 9.050781 9.382812 8.753906 9.210938 C 8.464844 9.035156 8.054688 8.945312 7.523438 8.945312 L 6.945312 8.945312 L 6.945312 8.28125 L 7.53125 8.28125 C 8.023438 8.28125 8.394531 8.171875 8.644531 7.953125 C 8.902344 7.734375 9.03125 7.445312 9.03125 7.085938 C 9.03125 6.777344 8.933594 6.542969 8.738281 6.378906 C 8.542969 6.207031 8.277344 6.121094 7.941406 6.121094 C 7.617188 6.121094 7.339844 6.171875 7.113281 6.273438 C 6.882812 6.371094 6.65625 6.5 6.433594 6.652344 L 6.066406 6.121094 C 6.277344 5.945312 6.539062 5.789062 6.851562 5.660156 C 7.171875 5.53125 7.53125 5.464844 7.933594 5.464844 C 8.558594 5.464844 9.023438 5.613281 9.324219 5.910156 C 9.632812 6.203125 9.785156 6.578125 9.785156 7.03125 Z M 9.785156 7.03125 "/>
</svg>
