<?xml version="1.0" encoding="UTF-8"?>
<svg xmlns="http://www.w3.org/2000/svg" xmlns:xlink="http://www.w3.org/1999/xlink" width="16" height="13.692153" viewBox="0 0 16 13.692153">
<path fill-rule="nonzero" fill="rgb(43.921569%, 74.901961%, 28.235294%)" fill-opacity="1" stroke-width="0.7" stroke-linecap="round" stroke-linejoin="round" stroke="rgb(0%, 0%, 0%)" stroke-opacity="1" stroke-miterlimit="4" d="M 17.659355 15.157465 C 10.906467 15.135324 5.760988 15.139752 0.349822 15.170749 C 2.980127 10.574357 6.376497 4.946213 9.006802 0.349821 C 11.699101 4.955069 17.78777 15.157465 17.78777 15.157465 Z M 17.659355 15.157465 " transform="matrix(0.882146, 0, 0, 0.882146, 0, 0.00000042064)"/>
<path fill-rule="nonzero" fill="rgb(0%, 0%, 0%)" fill-opacity="1" d="M 9.96875 8.253906 C 9.96875 8.710938 9.929688 9.15625 9.851562 9.601562 C 9.777344 10.035156 9.640625 10.433594 9.441406 10.796875 C 9.246094 11.148438 8.964844 11.433594 8.601562 11.644531 C 8.246094 11.859375 7.785156 11.964844 7.222656 11.964844 C 7.109375 11.964844 6.976562 11.953125 6.828125 11.9375 C 6.683594 11.925781 6.5625 11.90625 6.464844 11.875 L 6.464844 11.210938 C 6.683594 11.289062 6.929688 11.328125 7.203125 11.328125 C 7.59375 11.328125 7.917969 11.257812 8.167969 11.121094 C 8.425781 10.988281 8.628906 10.804688 8.777344 10.574219 C 8.929688 10.335938 9.039062 10.066406 9.105469 9.757812 C 9.171875 9.445312 9.210938 9.121094 9.222656 8.777344 L 9.171875 8.777344 C 9.050781 8.976562 8.871094 9.152344 8.636719 9.300781 C 8.40625 9.441406 8.113281 9.511719 7.75 9.511719 C 7.234375 9.511719 6.820312 9.347656 6.5 9.015625 C 6.1875 8.679688 6.03125 8.207031 6.03125 7.597656 C 6.03125 7.15625 6.109375 6.777344 6.265625 6.457031 C 6.425781 6.140625 6.652344 5.894531 6.9375 5.722656 C 7.222656 5.550781 7.554688 5.464844 7.941406 5.464844 C 8.320312 5.464844 8.664062 5.570312 8.972656 5.777344 C 9.277344 5.976562 9.523438 6.285156 9.699219 6.695312 C 9.878906 7.105469 9.96875 7.625 9.96875 8.253906 Z M 7.941406 6.121094 C 7.59375 6.121094 7.308594 6.242188 7.085938 6.484375 C 6.867188 6.726562 6.761719 7.09375 6.761719 7.589844 C 6.761719 7.996094 6.851562 8.320312 7.035156 8.554688 C 7.226562 8.785156 7.515625 8.902344 7.90625 8.902344 C 8.175781 8.902344 8.40625 8.84375 8.601562 8.734375 C 8.796875 8.613281 8.949219 8.46875 9.054688 8.289062 C 9.167969 8.113281 9.222656 7.929688 9.222656 7.742188 C 9.222656 7.488281 9.175781 7.238281 9.082031 6.988281 C 8.984375 6.742188 8.84375 6.535156 8.652344 6.367188 C 8.464844 6.203125 8.226562 6.121094 7.941406 6.121094 Z M 7.941406 6.121094 "/>
</svg>
