<?xml version="1.0" encoding="UTF-8"?>
<svg xmlns="http://www.w3.org/2000/svg" xmlns:xlink="http://www.w3.org/1999/xlink" width="16" height="13.692153" viewBox="0 0 16 13.692153">
<path fill-rule="nonzero" fill="rgb(43.921569%, 74.901961%, 28.235294%)" fill-opacity="1" stroke-width="0.7" stroke-linecap="round" stroke-linejoin="round" stroke="rgb(0%, 0%, 0%)" stroke-opacity="1" stroke-miterlimit="4" d="M 17.659355 15.157465 C 10.906467 15.135324 5.760988 15.139752 0.349822 15.170749 C 2.980127 10.574357 6.376497 4.946213 9.006802 0.349821 C 11.699101 4.955069 17.78777 15.157465 17.78777 15.157465 Z M 17.659355 15.157465 " transform="matrix(0.882146, 0, 0, 0.882146, 0, 0.00000042064)"/>
<path fill-rule="nonzero" fill="rgb(0%, 0%, 0%)" fill-opacity="1" d="M 6.511719 11.835938 L 5.972656 11.835938 L 5.972656 8.527344 C 5.972656 8.335938 5.976562 8.183594 5.980469 8.070312 C 5.984375 7.953125 5.988281 7.835938 6 7.710938 C 5.929688 7.78125 5.871094 7.84375 5.816406 7.890625 C 5.761719 7.9375 5.691406 8 5.609375 8.078125 L 5.132812 8.488281 L 4.84375 8.097656 L 6.054688 7.101562 L 6.511719 7.101562 Z M 6.511719 11.835938 "/>
<path fill-rule="nonzero" fill="rgb(0%, 0%, 0%)" fill-opacity="1" d="M 11.15625 9.460938 C 11.15625 9.96875 11.105469 10.40625 11.003906 10.773438 C 10.90625 11.136719 10.746094 11.414062 10.527344 11.609375 C 10.3125 11.804688 10.023438 11.902344 9.664062 11.902344 C 9.15625 11.902344 8.78125 11.6875 8.539062 11.257812 C 8.300781 10.824219 8.183594 10.226562 8.183594 9.460938 C 8.183594 8.949219 8.230469 8.511719 8.328125 8.148438 C 8.425781 7.785156 8.585938 7.511719 8.804688 7.320312 C 9.019531 7.125 9.308594 7.027344 9.664062 7.027344 C 10.164062 7.027344 10.539062 7.242188 10.785156 7.671875 C 11.03125 8.097656 11.15625 8.691406 11.15625 9.460938 Z M 8.734375 9.460938 C 8.734375 10.113281 8.804688 10.597656 8.941406 10.921875 C 9.082031 11.242188 9.324219 11.40625 9.664062 11.40625 C 9.996094 11.40625 10.234375 11.246094 10.378906 10.925781 C 10.523438 10.605469 10.597656 10.117188 10.597656 9.460938 C 10.597656 8.816406 10.523438 8.332031 10.378906 8.011719 C 10.234375 7.6875 9.996094 7.527344 9.664062 7.527344 C 9.324219 7.527344 9.082031 7.6875 8.941406 8.011719 C 8.804688 8.332031 8.734375 8.816406 8.734375 9.460938 Z M 8.734375 9.460938 "/>
</svg>
