<?xml version="1.0" encoding="UTF-8"?>
<svg xmlns="http://www.w3.org/2000/svg" xmlns:xlink="http://www.w3.org/1999/xlink" width="16" height="13.692153" viewBox="0 0 16 13.692153">
<path fill-rule="nonzero" fill="rgb(43.921569%, 74.901961%, 28.235294%)" fill-opacity="1" stroke-width="0.7" stroke-linecap="round" stroke-linejoin="round" stroke="rgb(0%, 0%, 0%)" stroke-opacity="1" stroke-miterlimit="4" d="M 17.659355 15.157465 C 10.906467 15.135324 5.760988 15.139752 0.349822 15.170749 C 2.980127 10.574357 6.376497 4.946213 9.006802 0.349821 C 11.699101 4.955069 17.78777 15.157465 17.78777 15.157465 Z M 17.659355 15.157465 " transform="matrix(0.882146, 0, 0, 0.882146, 0, 0.00000042064)"/>
<path fill-rule="nonzero" fill="rgb(0%, 0%, 0%)" fill-opacity="1" d="M 6.421875 11.835938 L 5.882812 11.835938 L 5.882812 8.527344 C 5.882812 8.335938 5.882812 8.183594 5.886719 8.070312 C 5.894531 7.953125 5.898438 7.835938 5.90625 7.710938 C 5.839844 7.78125 5.78125 7.84375 5.726562 7.890625 C 5.671875 7.9375 5.601562 8 5.519531 8.078125 L 5.042969 8.488281 L 4.753906 8.097656 L 5.964844 7.101562 L 6.421875 7.101562 Z M 6.421875 11.835938 "/>
<path fill-rule="nonzero" fill="rgb(0%, 0%, 0%)" fill-opacity="1" d="M 11.246094 10.761719 L 10.59375 10.761719 L 10.59375 11.835938 L 10.0625 11.835938 L 10.0625 10.761719 L 7.914062 10.761719 L 7.914062 10.265625 L 10.023438 7.074219 L 10.59375 7.074219 L 10.59375 10.238281 L 11.246094 10.238281 Z M 10.0625 8.746094 C 10.0625 8.515625 10.066406 8.320312 10.074219 8.164062 C 10.082031 8 10.089844 7.84375 10.09375 7.699219 L 10.066406 7.699219 C 10.035156 7.78125 9.992188 7.871094 9.941406 7.96875 C 9.890625 8.066406 9.84375 8.148438 9.796875 8.214844 L 8.453125 10.238281 L 10.0625 10.238281 Z M 10.0625 8.746094 "/>
</svg>
