<?xml version="1.0" encoding="UTF-8"?>
<svg xmlns="http://www.w3.org/2000/svg" xmlns:xlink="http://www.w3.org/1999/xlink" width="16" height="13.718825" viewBox="0 0 16 13.718825">
<path fill-rule="nonzero" fill="rgb(43.921569%, 74.901961%, 28.235294%)" fill-opacity="1" stroke-width="0.7" stroke-linecap="round" stroke-linejoin="round" stroke="rgb(0%, 0%, 0%)" stroke-opacity="1" stroke-miterlimit="4" d="M 17.659212 15.126346 C 10.906379 15.126346 5.760942 15.148487 0.349819 15.201624 C 2.96239 10.596413 6.341021 4.95503 8.953593 0.349819 C 11.663582 4.946174 17.787627 15.126346 17.787627 15.126346 Z M 17.659212 15.126346 " transform="matrix(0.882153, 0, 0, 0.882153, 0, 0)"/>
<path fill-rule="nonzero" fill="rgb(0%, 0%, 0%)" fill-opacity="1" d="M 7.117188 9.734375 C 7.117188 9.421875 7.183594 9.152344 7.316406 8.9375 C 7.449219 8.722656 7.675781 8.5 8 8.265625 C 8.285156 8.0625 8.484375 7.890625 8.609375 7.742188 C 8.734375 7.589844 8.796875 7.414062 8.796875 7.210938 C 8.796875 7.007812 8.722656 6.855469 8.570312 6.753906 C 8.421875 6.644531 8.21875 6.59375 7.953125 6.59375 C 7.6875 6.59375 7.421875 6.636719 7.164062 6.714844 C 6.90625 6.796875 6.640625 6.910156 6.363281 7.046875 L 5.863281 6.03125 C 6.171875 5.859375 6.511719 5.722656 6.867188 5.613281 C 7.230469 5.507812 7.625 5.453125 8.054688 5.453125 C 8.714844 5.453125 9.226562 5.609375 9.585938 5.925781 C 9.953125 6.242188 10.136719 6.644531 10.136719 7.136719 C 10.136719 7.390625 10.097656 7.617188 10.015625 7.808594 C 9.929688 8 9.808594 8.175781 9.640625 8.339844 C 9.480469 8.5 9.273438 8.671875 9.023438 8.855469 C 8.84375 8.984375 8.703125 9.101562 8.597656 9.195312 C 8.496094 9.292969 8.425781 9.382812 8.390625 9.472656 C 8.359375 9.558594 8.339844 9.671875 8.339844 9.800781 L 8.339844 10.078125 L 7.117188 10.078125 Z M 6.964844 11.667969 C 6.964844 11.375 7.046875 11.171875 7.203125 11.054688 C 7.359375 10.9375 7.550781 10.875 7.78125 10.875 C 8.003906 10.875 8.195312 10.9375 8.351562 11.054688 C 8.511719 11.171875 8.589844 11.375 8.589844 11.667969 C 8.589844 11.945312 8.511719 12.144531 8.351562 12.273438 C 8.195312 12.390625 8.003906 12.453125 7.78125 12.453125 C 7.550781 12.453125 7.359375 12.390625 7.203125 12.273438 C 7.046875 12.144531 6.964844 11.945312 6.964844 11.667969 Z M 6.964844 11.667969 "/>
</svg>
