<?xml version="1.0" encoding="UTF-8"?>
<svg xmlns="http://www.w3.org/2000/svg" xmlns:xlink="http://www.w3.org/1999/xlink" width="16" height="13.692153" viewBox="0 0 16 13.692153">
<path fill-rule="nonzero" fill="rgb(43.921569%, 74.901961%, 28.235294%)" fill-opacity="1" stroke-width="0.7" stroke-linecap="round" stroke-linejoin="round" stroke="rgb(0%, 0%, 0%)" stroke-opacity="1" stroke-miterlimit="4" d="M 17.659355 15.157465 C 10.906467 15.135324 5.760988 15.139752 0.349822 15.170749 C 2.980127 10.574357 6.376497 4.946213 9.006802 0.349821 C 11.699101 4.955069 17.78777 15.157465 17.78777 15.157465 Z M 17.659355 15.157465 " transform="matrix(0.882146, 0, 0, 0.882146, 0, 0.00000042064)"/>
<path fill-rule="nonzero" fill="rgb(0%, 0%, 0%)" fill-opacity="1" d="M 10.222656 10.441406 L 9.351562 10.441406 L 9.351562 11.875 L 8.640625 11.875 L 8.640625 10.441406 L 5.777344 10.441406 L 5.777344 9.777344 L 8.589844 5.519531 L 9.351562 5.519531 L 9.351562 9.742188 L 10.222656 9.742188 Z M 8.640625 7.75 C 8.640625 7.441406 8.648438 7.183594 8.65625 6.972656 C 8.667969 6.753906 8.675781 6.546875 8.683594 6.351562 L 8.648438 6.351562 C 8.605469 6.464844 8.546875 6.585938 8.480469 6.714844 C 8.414062 6.84375 8.351562 6.953125 8.289062 7.042969 L 6.496094 9.742188 L 8.640625 9.742188 Z M 8.640625 7.75 "/>
</svg>
