<?xml version="1.0" encoding="UTF-8"?>
<svg xmlns="http://www.w3.org/2000/svg" xmlns:xlink="http://www.w3.org/1999/xlink" width="16" height="13.692153" viewBox="0 0 16 13.692153">
<path fill-rule="nonzero" fill="rgb(43.921569%, 74.901961%, 28.235294%)" fill-opacity="1" stroke-width="0.7" stroke-linecap="round" stroke-linejoin="round" stroke="rgb(0%, 0%, 0%)" stroke-opacity="1" stroke-miterlimit="4" d="M 17.659355 15.157465 C 10.906467 15.135324 5.760988 15.139752 0.349822 15.170749 C 2.980127 10.574357 6.376497 4.946213 9.006802 0.349821 C 11.699101 4.955069 17.78777 15.157465 17.78777 15.157465 Z M 17.659355 15.157465 " transform="matrix(0.882146, 0, 0, 0.882146, 0, 0.00000042064)"/>
<path fill-rule="nonzero" fill="rgb(0%, 0%, 0%)" fill-opacity="1" d="M 7.996094 5.464844 C 8.519531 5.464844 8.949219 5.597656 9.285156 5.855469 C 9.621094 6.117188 9.789062 6.488281 9.789062 6.980469 C 9.789062 7.234375 9.734375 7.453125 9.628906 7.644531 C 9.527344 7.832031 9.390625 8 9.21875 8.148438 C 9.046875 8.289062 8.855469 8.417969 8.648438 8.527344 C 8.894531 8.652344 9.117188 8.792969 9.320312 8.953125 C 9.519531 9.105469 9.679688 9.289062 9.796875 9.492188 C 9.921875 9.699219 9.980469 9.949219 9.980469 10.238281 C 9.980469 10.769531 9.800781 11.191406 9.445312 11.503906 C 9.09375 11.808594 8.617188 11.964844 8.019531 11.964844 C 7.378906 11.964844 6.882812 11.816406 6.539062 11.519531 C 6.191406 11.21875 6.019531 10.800781 6.019531 10.265625 C 6.019531 9.976562 6.074219 9.722656 6.1875 9.511719 C 6.304688 9.300781 6.457031 9.117188 6.648438 8.960938 C 6.835938 8.808594 7.039062 8.679688 7.257812 8.574219 C 6.96875 8.394531 6.71875 8.183594 6.511719 7.9375 C 6.3125 7.683594 6.210938 7.359375 6.210938 6.972656 C 6.210938 6.644531 6.289062 6.375 6.445312 6.15625 C 6.601562 5.933594 6.816406 5.761719 7.082031 5.644531 C 7.351562 5.523438 7.65625 5.464844 7.996094 5.464844 Z M 7.988281 6.09375 C 7.679688 6.09375 7.425781 6.175781 7.226562 6.332031 C 7.03125 6.488281 6.933594 6.710938 6.933594 7.007812 C 6.933594 7.226562 6.980469 7.40625 7.074219 7.554688 C 7.175781 7.703125 7.308594 7.828125 7.476562 7.9375 C 7.644531 8.035156 7.828125 8.132812 8.03125 8.226562 C 8.320312 8.097656 8.5625 7.941406 8.757812 7.757812 C 8.960938 7.574219 9.058594 7.324219 9.058594 7.007812 C 9.058594 6.710938 8.960938 6.488281 8.765625 6.332031 C 8.570312 6.175781 8.3125 6.09375 7.988281 6.09375 Z M 6.738281 10.273438 C 6.738281 10.578125 6.84375 10.835938 7.050781 11.042969 C 7.253906 11.242188 7.574219 11.34375 8.003906 11.34375 C 8.410156 11.34375 8.722656 11.242188 8.933594 11.042969 C 9.152344 10.835938 9.261719 10.570312 9.261719 10.246094 C 9.261719 9.941406 9.144531 9.6875 8.917969 9.484375 C 8.6875 9.277344 8.382812 9.097656 8.003906 8.945312 L 7.871094 8.890625 C 7.5 9.058594 7.21875 9.25 7.023438 9.46875 C 6.835938 9.679688 6.738281 9.949219 6.738281 10.273438 Z M 6.738281 10.273438 "/>
</svg>
