<?xml version="1.0" encoding="UTF-8"?>
<svg xmlns="http://www.w3.org/2000/svg" xmlns:xlink="http://www.w3.org/1999/xlink" width="11" height="23.357408" viewBox="0 0 11 23.357408">
<path fill-rule="nonzero" fill="rgb(5.882353%, 5.882353%, 5.882353%)" fill-opacity="1" d="M 0 5.441406 L 11 5.441406 L 11 18.226562 L 0 18.226562 Z M 0 5.441406 "/>
<path fill-rule="nonzero" fill="rgb(5.882353%, 5.882353%, 5.882353%)" fill-opacity="1" d="M 11 17.917969 C 11 20.921875 8.535156 23.355469 5.503906 23.355469 C 2.464844 23.355469 0 20.921875 0 17.917969 C 0 14.910156 2.464844 12.472656 5.503906 12.472656 C 8.535156 12.472656 11 14.910156 11 17.917969 Z M 11 17.917969 "/>
<path fill-rule="nonzero" fill="rgb(5.882353%, 5.882353%, 5.882353%)" fill-opacity="1" d="M 11 5.441406 C 11 8.449219 8.535156 10.886719 5.503906 10.886719 C 2.464844 10.886719 0 8.449219 0 5.441406 C 0 2.433594 2.464844 0 5.503906 0 C 8.535156 0 11 2.433594 11 5.441406 Z M 11 5.441406 "/>
<path fill-rule="nonzero" fill="rgb(0%, 69.019608%, 31.372549%)" fill-opacity="1" d="M 7.660156 5.285156 C 7.660156 6.492188 6.695312 7.46875 5.503906 7.46875 C 4.304688 7.46875 3.34375 6.492188 3.34375 5.285156 C 3.34375 4.078125 4.304688 3.101562 5.503906 3.101562 C 6.695312 3.101562 7.660156 4.078125 7.660156 5.285156 Z M 7.660156 5.285156 "/>
<path fill-rule="nonzero" fill="rgb(20.784314%, 20.784314%, 20.784314%)" fill-opacity="1" d="M 7.660156 11.601562 C 7.660156 12.808594 6.695312 13.78125 5.503906 13.78125 C 4.304688 13.78125 3.34375 12.808594 3.34375 11.601562 C 3.34375 10.394531 4.304688 9.414062 5.503906 9.414062 C 6.695312 9.414062 7.660156 10.394531 7.660156 11.601562 Z M 7.660156 11.601562 "/>
<path fill-rule="nonzero" fill="rgb(20.784314%, 20.784314%, 20.784314%)" fill-opacity="1" d="M 7.632812 17.917969 C 7.632812 19.117188 6.664062 20.101562 5.46875 20.101562 C 4.28125 20.101562 3.3125 19.117188 3.3125 17.917969 C 3.3125 16.710938 4.28125 15.734375 5.46875 15.734375 C 6.664062 15.734375 7.632812 16.710938 7.632812 17.917969 Z M 7.632812 17.917969 "/>
</svg>
