<svg version="1.1" viewBox="0.0 0.0 979.5301837270341 774.98687664042" fill="none" stroke="none" stroke-linecap="square" stroke-miterlimit="10" xmlns:xlink="http://www.w3.org/1999/xlink" xmlns="http://www.w3.org/2000/svg"><clipPath id="p.0"><path d="m0 0l979.5302 0l0 774.9869l-979.5302 0l0 -774.9869z" clip-rule="nonzero"/></clipPath><g clip-path="url(#p.0)"><path fill="#000000" fill-opacity="0.0" d="m0 0l979.5302 0l0 774.9869l-979.5302 0z" fill-rule="evenodd"/><path fill="#d9d9d9" d="m479.9987 141.94751l52.81888 0l0 633.03937l-52.81888 0z" fill-rule="evenodd"/><path stroke="#000000" stroke-width="1.0" stroke-linejoin="round" stroke-linecap="butt" d="m479.9987 141.94751l52.81888 0l0 633.03937l-52.81888 0z" fill-rule="evenodd"/><path fill="#000000" d="m524.3808 192.09343l0 0c40.599426 -40.599457 92.56964 -54.45395 116.078735 -30.944885l0 0c11.289429 11.289459 14.371521 29.861496 8.568237 51.630478c-5.8032837 21.768982 -20.016602 44.95172 -39.513123 64.44827l0 0c-40.599426 40.599457 -92.5697 54.45395 -116.078735 30.944885l0 0c-23.509064 -23.509064 -9.654572 -75.479294 30.944885 -116.07875z" fill-rule="evenodd"/><path stroke="#000000" stroke-width="1.0" stroke-linejoin="round" stroke-linecap="butt" d="m524.3808 192.09343l0 0c40.599426 -40.599457 92.56964 -54.45395 116.078735 -30.944885l0 0c11.289429 11.289459 14.371521 29.861496 8.568237 51.630478c-5.8032837 21.768982 -20.016602 44.95172 -39.513123 64.44827l0 0c-40.599426 40.599457 -92.5697 54.45395 -116.078735 30.944885l0 0c-23.509064 -23.509064 -9.654572 -75.479294 30.944885 -116.07875z" fill-rule="evenodd"/><path fill="#000000" d="m505.7069 173.4187l0 0c17.69049 -17.690506 45.47705 -18.585938 62.06299 -2.0l0 0c7.9648438 7.9648438 12.22876 18.97821 11.853699 30.61728c-0.37506104 11.639069 -5.3583984 22.950424 -13.853699 31.44571l0 0c-17.69049 17.690506 -45.47705 18.585938 -62.06299 2.0l0 0c-16.585938 -16.585938 -15.690491 -44.372482 2.0 -62.06299z" fill-rule="evenodd"/><path stroke="#000000" stroke-width="1.0" stroke-linejoin="round" stroke-linecap="butt" d="m505.7069 173.4187l0 0c17.69049 -17.690506 45.47705 -18.585938 62.06299 -2.0l0 0c7.9648438 7.9648438 12.22876 18.97821 11.853699 30.61728c-0.37506104 11.639069 -5.3583984 22.950424 -13.853699 31.44571l0 0c-17.69049 17.690506 -45.47705 18.585938 -62.06299 2.0l0 0c-16.585938 -16.585938 -15.690491 -44.372482 2.0 -62.06299z" fill-rule="evenodd"/><path fill="#000000" d="m634.9795 164.2763l37.35437 37.354324l-31.275574 31.275589l-37.35437 -37.354324z" fill-rule="evenodd"/><path stroke="#000000" stroke-width="1.0" stroke-linejoin="round" stroke-linecap="butt" d="m634.9795 164.2763l37.35437 37.354324l-31.275574 31.275589l-37.35437 -37.354324z" fill-rule="evenodd"/><path fill="#ff0000" d="m822.15405 58.3485l-148.95282 144.14955l-35.8266 -35.826645l144.14954 -148.95282z" fill-rule="evenodd"/><path stroke="#000000" stroke-width="1.0" stroke-linejoin="round" stroke-linecap="butt" d="m822.15405 58.3485l-148.95282 144.14955l-35.8266 -35.826645l144.14954 -148.95282z" fill-rule="evenodd"/><path fill="#ffffff" d="m804.82434 75.09916l-16.845032 16.288773l-39.47522 -39.47518l16.288757 -16.845085z" fill-rule="evenodd"/><path stroke="#000000" stroke-width="1.0" stroke-linejoin="round" stroke-linecap="butt" d="m804.82434 75.09916l-16.845032 16.288773l-39.47522 -39.47518l16.288757 -16.845085z" fill-rule="evenodd"/><path fill="#274e13" d="m503.96524 262.3535l0 0c9.749786 -9.749771 25.557343 -9.749771 35.3071 0l0 0c4.682007 4.6820374 7.312317 11.032196 7.312317 17.653564c0 6.6213684 -2.63031 12.971527 -7.312317 17.653534l0 0c-9.749756 9.749786 -25.557312 9.749786 -35.3071 0l0 0c-9.749756 -9.749786 -9.749756 -25.557312 0 -35.3071z" fill-rule="evenodd"/><path stroke="#000000" stroke-width="1.0" stroke-linejoin="round" stroke-linecap="butt" d="m503.96524 262.3535l0 0c9.749786 -9.749771 25.557343 -9.749771 35.3071 0l0 0c4.682007 4.6820374 7.312317 11.032196 7.312317 17.653564c0 6.6213684 -2.63031 12.971527 -7.312317 17.653534l0 0c-9.749756 9.749786 -25.557312 9.749786 -35.3071 0l0 0c-9.749756 -9.749786 -9.749756 -25.557312 0 -35.3071z" fill-rule="evenodd"/><path fill="#ffff00" d="m565.5086 239.07187l0 0c9.749756 -9.749786 25.557312 -9.749786 35.307068 0l0 0c4.682007 4.682007 7.312317 11.032181 7.312317 17.653534c0 6.6213684 -2.63031 12.971558 -7.312317 17.653564l0 0c-9.749756 9.749786 -25.557312 9.749786 -35.307068 0l0 0c-9.749817 -9.749786 -9.749817 -25.557312 0 -35.3071z" fill-rule="evenodd"/><path stroke="#000000" stroke-width="1.0" stroke-linejoin="round" stroke-linecap="butt" d="m565.5086 239.07187l0 0c9.749756 -9.749786 25.557312 -9.749786 35.307068 0l0 0c4.682007 4.682007 7.312317 11.032181 7.312317 17.653534c0 6.6213684 -2.63031 12.971558 -7.312317 17.653564l0 0c-9.749756 9.749786 -25.557312 9.749786 -35.307068 0l0 0c-9.749817 -9.749786 -9.749817 -25.557312 0 -35.3071z" fill-rule="evenodd"/><path fill="#660000" d="m582.76404 171.50235l0 0c9.749817 -9.749786 25.557312 -9.749786 35.307068 0l0 0c4.682007 4.682007 7.312378 11.032166 7.312378 17.653534c0 6.6213684 -2.630371 12.971527 -7.312378 17.65355l0 0c-9.749756 9.749771 -25.557251 9.749771 -35.307068 0l0 0c-9.749756 -9.749786 -9.749756 -25.557312 0 -35.307083z" fill-rule="evenodd"/><path stroke="#000000" stroke-width="1.0" stroke-linejoin="round" stroke-linecap="butt" d="m582.76404 171.50235l0 0c9.749817 -9.749786 25.557312 -9.749786 35.307068 0l0 0c4.682007 4.682007 7.312378 11.032166 7.312378 17.653534c0 6.6213684 -2.630371 12.971527 -7.312378 17.65355l0 0c-9.749756 9.749771 -25.557251 9.749771 -35.307068 0l0 0c-9.749756 -9.749786 -9.749756 -25.557312 0 -35.307083z" fill-rule="evenodd"/></g></svg>