<?xml version="1.0" encoding="UTF-8"?>
<svg xmlns="http://www.w3.org/2000/svg" xmlns:xlink="http://www.w3.org/1999/xlink" width="18.337973" height="16" viewBox="0 0 18.337973 16">
<path fill-rule="nonzero" fill="rgb(100%, 100%, 100%)" fill-opacity="1" stroke-width="10.1564" stroke-linecap="butt" stroke-linejoin="round" stroke="rgb(99.607843%, 8.627451%, 6.27451%)" stroke-opacity="1" stroke-miterlimit="4" d="M 3468.560925 663.873521 L 3556.403293 816.032174 L 3380.718557 816.032174 Z M 3468.560925 663.873521 " transform="matrix(0.0986764, 0, 0, 0.0985813, -333.09714, -64.945524)"/>
<path fill-rule="nonzero" fill="rgb(99.607843%, 8.627451%, 6.27451%)" fill-opacity="1" d="M 8.289062 12.636719 C 8.332031 12.890625 8.421875 13.082031 8.550781 13.21875 C 8.679688 13.355469 8.871094 13.421875 9.117188 13.421875 C 9.40625 13.421875 9.625 13.324219 9.773438 13.121094 C 9.921875 12.921875 9.996094 12.667969 9.996094 12.363281 C 9.996094 12.0625 9.925781 11.808594 9.785156 11.601562 C 9.644531 11.394531 9.425781 11.292969 9.132812 11.292969 C 8.992188 11.292969 8.867188 11.308594 8.765625 11.34375 C 8.585938 11.410156 8.449219 11.53125 8.355469 11.707031 L 7.320312 11.65625 L 7.734375 8.414062 L 10.96875 8.414062 L 10.96875 9.394531 L 8.566406 9.394531 L 8.355469 10.675781 C 8.535156 10.5625 8.675781 10.484375 8.773438 10.445312 C 8.941406 10.382812 9.144531 10.355469 9.386719 10.355469 C 9.871094 10.355469 10.296875 10.515625 10.65625 10.84375 C 11.019531 11.171875 11.199219 11.644531 11.199219 12.269531 C 11.199219 12.8125 11.027344 13.296875 10.675781 13.722656 C 10.328125 14.152344 9.808594 14.363281 9.113281 14.363281 C 8.554688 14.363281 8.09375 14.214844 7.738281 13.914062 C 7.378906 13.613281 7.179688 13.1875 7.136719 12.636719 Z M 6.917969 7.820312 "/>
</svg>
