<?xml version="1.0" encoding="UTF-8"?>
<svg xmlns="http://www.w3.org/2000/svg" xmlns:xlink="http://www.w3.org/1999/xlink" width="18.337973" height="16" viewBox="0 0 18.337973 16">
<path fill-rule="nonzero" fill="rgb(100%, 100%, 100%)" fill-opacity="1" stroke-width="10.1564" stroke-linecap="butt" stroke-linejoin="round" stroke="rgb(99.607843%, 8.627451%, 6.27451%)" stroke-opacity="1" stroke-miterlimit="4" d="M 3468.560925 663.873521 L 3556.403293 816.032174 L 3380.718557 816.032174 Z M 3468.560925 663.873521 " transform="matrix(0.0986764, 0, 0, 0.0985813, -333.09714, -64.945524)"/>
<path fill-rule="nonzero" fill="rgb(99.607843%, 8.627451%, 6.27451%)" fill-opacity="1" d="M 7.140625 14.363281 C 7.152344 13.9375 7.246094 13.550781 7.414062 13.199219 C 7.582031 12.804688 7.972656 12.386719 8.589844 11.945312 C 9.128906 11.5625 9.472656 11.285156 9.632812 11.121094 C 9.875 10.863281 9.996094 10.578125 9.996094 10.269531 C 9.996094 10.019531 9.925781 9.8125 9.789062 9.648438 C 9.648438 9.480469 9.449219 9.398438 9.191406 9.398438 C 8.835938 9.398438 8.597656 9.53125 8.46875 9.792969 C 8.394531 9.945312 8.351562 10.1875 8.339844 10.519531 L 7.207031 10.519531 C 7.226562 10.015625 7.316406 9.609375 7.480469 9.300781 C 7.792969 8.710938 8.34375 8.414062 9.136719 8.414062 C 9.761719 8.414062 10.257812 8.585938 10.628906 8.933594 C 10.996094 9.28125 11.183594 9.742188 11.183594 10.3125 C 11.183594 10.75 11.054688 11.140625 10.792969 11.480469 C 10.621094 11.707031 10.339844 11.957031 9.945312 12.234375 L 9.480469 12.566406 C 9.191406 12.773438 8.992188 12.921875 8.882812 13.015625 C 8.777344 13.105469 8.683594 13.214844 8.613281 13.335938 L 11.195312 13.335938 L 11.195312 14.363281 Z M 6.882812 7.925781 "/>
</svg>
