<?xml version="1.0" encoding="UTF-8"?>
<svg xmlns="http://www.w3.org/2000/svg" xmlns:xlink="http://www.w3.org/1999/xlink" width="18.337973" height="16" viewBox="0 0 18.337973 16">
<path fill-rule="nonzero" fill="rgb(100%, 100%, 100%)" fill-opacity="1" stroke-width="10.1564" stroke-linecap="butt" stroke-linejoin="round" stroke="rgb(99.607843%, 8.627451%, 6.27451%)" stroke-opacity="1" stroke-miterlimit="4" d="M 3468.560925 663.873521 L 3556.403293 816.032174 L 3380.718557 816.032174 Z M 3468.560925 663.873521 " transform="matrix(0.0986764, 0, 0, 0.0985813, -333.09714, -64.945524)"/>
<path fill-rule="nonzero" fill="rgb(99.607843%, 8.627451%, 6.27451%)" fill-opacity="1" d="M 8.285156 12.445312 C 8.285156 12.675781 8.324219 12.867188 8.398438 13.019531 C 8.535156 13.300781 8.789062 13.4375 9.152344 13.4375 C 9.375 13.4375 9.566406 13.363281 9.734375 13.207031 C 9.902344 13.054688 9.984375 12.835938 9.984375 12.550781 C 9.984375 12.167969 9.832031 11.914062 9.523438 11.789062 C 9.34375 11.714844 9.070312 11.679688 8.691406 11.679688 L 8.691406 10.867188 C 9.0625 10.863281 9.320312 10.828125 9.464844 10.761719 C 9.71875 10.648438 9.84375 10.421875 9.84375 10.082031 C 9.84375 9.863281 9.78125 9.683594 9.652344 9.542969 C 9.523438 9.40625 9.339844 9.335938 9.105469 9.335938 C 8.839844 9.335938 8.640625 9.421875 8.515625 9.59375 C 8.386719 9.761719 8.328125 9.988281 8.335938 10.273438 L 7.273438 10.273438 C 7.285156 9.988281 7.332031 9.714844 7.421875 9.457031 C 7.515625 9.230469 7.660156 9.023438 7.859375 8.832031 C 8.007812 8.695312 8.183594 8.59375 8.386719 8.519531 C 8.59375 8.449219 8.84375 8.414062 9.144531 8.414062 C 9.695312 8.414062 10.140625 8.554688 10.480469 8.84375 C 10.820312 9.128906 10.988281 9.511719 10.988281 9.992188 C 10.988281 10.332031 10.886719 10.617188 10.683594 10.851562 C 10.558594 11 10.425781 11.097656 10.289062 11.152344 C 10.390625 11.152344 10.539062 11.238281 10.730469 11.417969 C 11.023438 11.6875 11.167969 12.054688 11.167969 12.519531 C 11.167969 13.007812 10.996094 13.4375 10.660156 13.808594 C 10.320312 14.175781 9.820312 14.363281 9.15625 14.363281 C 8.335938 14.363281 7.769531 14.09375 7.449219 13.5625 C 7.28125 13.277344 7.1875 12.90625 7.171875 12.445312 Z M 6.953125 7.933594 "/>
</svg>
