<?xml version="1.0" encoding="UTF-8"?>
<svg xmlns="http://www.w3.org/2000/svg" xmlns:xlink="http://www.w3.org/1999/xlink" width="18.337973" height="16" viewBox="0 0 18.337973 16">
<path fill-rule="nonzero" fill="rgb(100%, 100%, 100%)" fill-opacity="1" stroke-width="10.1564" stroke-linecap="butt" stroke-linejoin="round" stroke="rgb(99.607843%, 8.627451%, 6.27451%)" stroke-opacity="1" stroke-miterlimit="4" d="M 3468.560925 663.873521 L 3556.403293 816.032174 L 3380.718557 816.032174 Z M 3468.560925 663.873521 " transform="matrix(0.0986764, 0, 0, 0.0985813, -333.09714, -64.945524)"/>
<path fill-rule="nonzero" fill="rgb(99.607843%, 8.627451%, 6.27451%)" fill-opacity="1" d="M 8.601562 13.207031 L 9.792969 13.207031 L 9.792969 14.363281 L 8.601562 14.363281 Z M 7.144531 10.332031 C 7.175781 9.570312 7.441406 9.035156 7.9375 8.714844 C 8.253906 8.515625 8.636719 8.410156 9.097656 8.410156 C 9.699219 8.410156 10.199219 8.554688 10.597656 8.84375 C 10.996094 9.132812 11.195312 9.558594 11.195312 10.125 C 11.195312 10.46875 11.109375 10.761719 10.933594 10.996094 C 10.835938 11.140625 10.640625 11.324219 10.351562 11.550781 L 10.070312 11.769531 C 9.914062 11.890625 9.8125 12.03125 9.761719 12.1875 C 9.726562 12.289062 9.710938 12.449219 9.707031 12.660156 L 8.628906 12.660156 C 8.644531 12.210938 8.6875 11.898438 8.757812 11.726562 C 8.828125 11.554688 9.003906 11.359375 9.292969 11.132812 L 9.585938 10.90625 C 9.679688 10.835938 9.757812 10.753906 9.816406 10.671875 C 9.921875 10.523438 9.976562 10.363281 9.976562 10.1875 C 9.976562 9.984375 9.917969 9.800781 9.796875 9.632812 C 9.679688 9.46875 9.460938 9.382812 9.148438 9.382812 C 8.839844 9.382812 8.621094 9.488281 8.492188 9.691406 C 8.363281 9.898438 8.296875 10.109375 8.296875 10.332031 Z M 6.652344 8.0625 "/>
</svg>
