<?xml version="1.0" encoding="UTF-8"?>
<svg xmlns="http://www.w3.org/2000/svg" xmlns:xlink="http://www.w3.org/1999/xlink" width="18.337973" height="16" viewBox="0 0 18.337973 16">
<path fill-rule="nonzero" fill="rgb(100%, 100%, 100%)" fill-opacity="1" stroke-width="10.1564" stroke-linecap="butt" stroke-linejoin="round" stroke="rgb(99.607843%, 8.627451%, 6.27451%)" stroke-opacity="1" stroke-miterlimit="4" d="M 3468.560925 663.873521 L 3556.403293 816.032174 L 3380.718557 816.032174 Z M 3468.560925 663.873521 " transform="matrix(0.0986764, 0, 0, 0.0985813, -333.09714, -64.945524)"/>
<path fill-rule="nonzero" fill="rgb(99.607843%, 8.627451%, 6.27451%)" fill-opacity="1" d="M 8.316406 12.394531 C 8.316406 12.703125 8.398438 12.957031 8.566406 13.152344 C 8.734375 13.347656 8.945312 13.445312 9.199219 13.445312 C 9.453125 13.445312 9.648438 13.351562 9.792969 13.160156 C 9.9375 12.972656 10.007812 12.726562 10.007812 12.425781 C 10.007812 12.089844 9.925781 11.832031 9.761719 11.65625 C 9.597656 11.476562 9.398438 11.386719 9.160156 11.386719 C 8.96875 11.386719 8.796875 11.445312 8.652344 11.5625 C 8.429688 11.734375 8.316406 12.011719 8.316406 12.394531 Z M 9.90625 9.914062 C 9.90625 9.824219 9.871094 9.71875 9.796875 9.609375 C 9.675781 9.429688 9.492188 9.339844 9.25 9.339844 C 8.882812 9.339844 8.621094 9.546875 8.464844 9.957031 C 8.378906 10.1875 8.320312 10.523438 8.289062 10.964844 C 8.429688 10.796875 8.589844 10.675781 8.777344 10.601562 C 8.960938 10.523438 9.171875 10.484375 9.410156 10.484375 C 9.921875 10.484375 10.339844 10.660156 10.664062 11.003906 C 10.988281 11.351562 11.152344 11.792969 11.152344 12.332031 C 11.152344 12.867188 10.992188 13.339844 10.671875 13.75 C 10.355469 14.160156 9.859375 14.363281 9.183594 14.363281 C 8.460938 14.363281 7.925781 14.0625 7.585938 13.457031 C 7.316406 12.984375 7.183594 12.375 7.183594 11.625 C 7.183594 11.1875 7.203125 10.832031 7.242188 10.558594 C 7.304688 10.066406 7.433594 9.660156 7.625 9.335938 C 7.789062 9.058594 8.003906 8.835938 8.269531 8.667969 C 8.535156 8.496094 8.851562 8.414062 9.222656 8.414062 C 9.753906 8.414062 10.179688 8.550781 10.496094 8.824219 C 10.8125 9.097656 10.992188 9.460938 11.03125 9.914062 Z M 6.929688 7.964844 "/>
</svg>
