<?xml version="1.0" encoding="UTF-8"?>
<svg xmlns="http://www.w3.org/2000/svg" xmlns:xlink="http://www.w3.org/1999/xlink" width="16" height="16" viewBox="0 0 16 16">
<path fill-rule="evenodd" fill="rgb(99.215686%, 10.588235%, 5.098039%)" fill-opacity="1" d="M 15.3125 8 C 15.3125 12.039062 12.039062 15.3125 8 15.3125 C 3.960938 15.3125 0.6875 12.039062 0.6875 8 C 0.6875 3.960938 3.960938 0.6875 8 0.6875 C 12.039062 0.6875 15.3125 3.960938 15.3125 8 Z M 15.3125 8 "/>
<path fill-rule="evenodd" fill="rgb(100%, 100%, 100%)" fill-opacity="1" d="M 14.398438 8 C 14.398438 11.535156 11.535156 14.398438 8 14.398438 C 4.464844 14.398438 1.601562 11.535156 1.601562 8 C 1.601562 4.464844 4.464844 1.601562 8 1.601562 C 11.535156 1.601562 14.398438 4.464844 14.398438 8 Z M 14.398438 8 "/>
<path fill-rule="nonzero" fill="rgb(99.215686%, 10.588235%, 5.098039%)" fill-opacity="1" d="M 2.410156 8.738281 L 2.410156 9.179688 C 2.410156 9.59375 2.640625 10.292969 3.679688 10.292969 C 4.28125 10.292969 4.964844 10.011719 4.964844 8.964844 L 4.964844 5.707031 L 4.363281 5.707031 L 4.363281 9.003906 C 4.363281 9.4375 4.207031 9.773438 3.648438 9.773438 C 3.230469 9.773438 2.976562 9.582031 2.976562 9.046875 L 2.976562 8.738281 Z M 2.410156 8.738281 "/>
<path fill-rule="nonzero" fill="rgb(99.215686%, 10.588235%, 5.098039%)" fill-opacity="1" d="M 6.488281 8.605469 L 7.191406 7.933594 L 8.753906 10.171875 L 9.535156 10.171875 L 7.628906 7.511719 L 9.484375 5.707031 L 8.652344 5.707031 L 6.488281 7.871094 L 6.488281 5.707031 L 5.886719 5.707031 L 5.886719 10.171875 L 6.488281 10.171875 Z M 6.488281 8.605469 "/>
<path fill-rule="nonzero" fill="rgb(99.215686%, 10.588235%, 5.098039%)" fill-opacity="1" d="M 11.648438 9.515625 L 11.636719 9.515625 L 10.363281 5.707031 L 9.691406 5.707031 L 11.320312 10.171875 L 11.960938 10.171875 L 13.589844 5.707031 L 12.910156 5.707031 Z M 11.648438 9.515625 "/>
</svg>
