<?xml version="1.0" encoding="UTF-8"?>
<svg xmlns="http://www.w3.org/2000/svg" xmlns:xlink="http://www.w3.org/1999/xlink" width="16" height="16" viewBox="0 0 16 16">
<path fill-rule="evenodd" fill="rgb(95.686275%, 39.215686%, 5.490196%)" fill-opacity="1" stroke-width="0.484848" stroke-linecap="round" stroke-linejoin="miter" stroke="rgb(0%, 0%, 0%)" stroke-opacity="1" stroke-miterlimit="4" d="M 1.211094 0.241508 L 13.33624 0.241508 C 13.872531 0.241508 14.305825 0.674803 14.305825 1.211094 L 14.305825 13.33624 C 14.305825 13.872531 13.872531 14.305825 13.33624 14.305825 L 1.211094 14.305825 C 0.674803 14.305825 0.241508 13.872531 0.241508 13.33624 L 0.241508 1.211094 C 0.241508 0.674803 0.674803 0.241508 1.211094 0.241508 Z M 1.211094 0.241508 " transform="matrix(1.099858, 0, 0, 1.099858, 0, 0)"/>
<path fill-rule="nonzero" fill="rgb(0%, 0%, 0%)" fill-opacity="1" d="M 4.441406 8.578125 L 5.101562 7.949219 L 6.5625 10.046875 L 7.296875 10.046875 L 5.507812 7.554688 L 7.25 5.867188 L 6.46875 5.867188 L 4.441406 7.894531 L 4.441406 5.867188 L 3.878906 5.867188 L 3.878906 10.046875 L 4.441406 10.046875 Z M 4.441406 8.578125 "/>
<path fill-rule="nonzero" fill="rgb(0%, 0%, 0%)" fill-opacity="1" d="M 8.417969 8.273438 C 8.417969 7.832031 8.722656 7.464844 9.199219 7.464844 L 9.386719 7.464844 L 9.386719 6.929688 C 9.347656 6.921875 9.320312 6.914062 9.253906 6.914062 C 8.871094 6.914062 8.605469 7.152344 8.398438 7.511719 L 8.386719 7.511719 L 8.386719 7.003906 L 7.90625 7.003906 L 7.90625 10.046875 L 8.417969 10.046875 Z M 8.417969 8.273438 "/>
<path fill-rule="nonzero" fill="rgb(0%, 0%, 0%)" fill-opacity="1" d="M 12.019531 7.871094 C 12.019531 7.714844 11.949219 6.914062 10.855469 6.914062 C 10.261719 6.914062 9.707031 7.21875 9.707031 7.886719 C 9.707031 8.304688 9.984375 8.519531 10.410156 8.628906 L 11.003906 8.769531 C 11.441406 8.878906 11.609375 8.960938 11.609375 9.207031 C 11.609375 9.546875 11.277344 9.691406 10.910156 9.691406 C 10.191406 9.691406 10.117188 9.304688 10.101562 9.070312 L 9.605469 9.070312 C 9.625 9.433594 9.710938 10.132812 10.917969 10.132812 C 11.605469 10.132812 12.121094 9.753906 12.121094 9.125 C 12.121094 8.714844 11.902344 8.480469 11.265625 8.320312 L 10.753906 8.191406 C 10.359375 8.09375 10.199219 8.039062 10.199219 7.789062 C 10.199219 7.410156 10.652344 7.355469 10.804688 7.355469 C 11.449219 7.355469 11.523438 7.679688 11.527344 7.871094 Z M 12.019531 7.871094 "/>
</svg>
