<?xml version="1.0" encoding="UTF-8"?>
<svg xmlns="http://www.w3.org/2000/svg" xmlns:xlink="http://www.w3.org/1999/xlink" width="2.958922" height="28" viewBox="0 0 2.958922 28">
<path fill="none" stroke-width="0.3" stroke-linecap="butt" stroke-linejoin="miter" stroke="rgb(100%, 100%, 100%)" stroke-opacity="1" stroke-miterlimit="4" d="M 0.150901 0.150901 L 2.282779 0.150901 L 2.282779 8.970584 L 0.150901 8.970584 Z M 0.150901 0.150901 " transform="matrix(1.21665, 0, 0, 1.21665, 0, 0)"/>
<path fill-rule="nonzero" fill="rgb(0%, 0%, 0%)" fill-opacity="1" d="M 0.183594 0.183594 L 2.773438 0.183594 L 2.773438 10.914062 L 0.183594 10.914062 Z M 0.183594 0.183594 "/>
<path fill="none" stroke-width="0.219551" stroke-linecap="butt" stroke-linejoin="miter" stroke="rgb(100%, 100%, 100%)" stroke-opacity="1" stroke-miterlimit="4" d="M 0.109162 9.230648 L 2.321307 9.230648 L 2.321307 13.783364 L 0.109162 13.783364 Z M 0.109162 9.230648 " transform="matrix(1.21665, 0, 0, 1.21665, 0, 0)"/>
<path fill-rule="nonzero" fill="rgb(100%, 100%, 100%)" fill-opacity="1" d="M 0.132812 11.230469 L 2.824219 11.230469 L 2.824219 16.769531 L 0.132812 16.769531 Z M 0.132812 11.230469 "/>
<path fill-rule="evenodd" fill="rgb(0%, 68.235294%, 41.960784%)" fill-opacity="1" d="M 2.566406 1.527344 C 2.566406 2.128906 2.078125 2.617188 1.480469 2.617188 C 0.878906 2.617188 0.398438 2.128906 0.398438 1.527344 C 0.398438 0.929688 0.878906 0.441406 1.480469 0.441406 C 2.078125 0.441406 2.566406 0.929688 2.566406 1.527344 Z M 2.566406 1.527344 "/>
<path fill="none" stroke-width="0.3" stroke-linecap="butt" stroke-linejoin="miter" stroke="rgb(100%, 100%, 100%)" stroke-opacity="1" stroke-miterlimit="4" d="M 0.150901 14.043427 L 2.282779 14.043427 L 2.282779 22.86311 L 0.150901 22.86311 Z M 0.150901 14.043427 " transform="matrix(1.21665, 0, 0, 1.21665, 0, 0)"/>
<path fill-rule="nonzero" fill="rgb(0%, 0%, 0%)" fill-opacity="1" d="M 0.183594 17.085938 L 2.773438 17.085938 L 2.773438 27.816406 L 0.183594 27.816406 Z M 0.183594 17.085938 "/>
</svg>
