<?xml version="1.0" encoding="UTF-8"?>
<svg xmlns="http://www.w3.org/2000/svg" xmlns:xlink="http://www.w3.org/1999/xlink" width="11" height="33.270153" viewBox="0 0 11 33.270153">
<path fill-rule="nonzero" fill="rgb(5.882353%, 5.882353%, 5.882353%)" fill-opacity="1" d="M 0 5.441406 L 11 5.441406 L 11 18.230469 L 0 18.230469 Z M 0 5.441406 "/>
<path fill-rule="nonzero" fill="rgb(5.882353%, 5.882353%, 5.882353%)" fill-opacity="1" d="M 11 17.917969 C 11 20.925781 8.535156 23.359375 5.503906 23.359375 C 2.464844 23.359375 0 20.925781 0 17.917969 C 0 14.910156 2.464844 12.472656 5.503906 12.472656 C 8.535156 12.472656 11 14.910156 11 17.917969 Z M 11 17.917969 "/>
<path fill-rule="nonzero" fill="rgb(5.882353%, 5.882353%, 5.882353%)" fill-opacity="1" d="M 11 5.441406 C 11 8.449219 8.535156 10.886719 5.503906 10.886719 C 2.464844 10.886719 0 8.449219 0 5.441406 C 0 2.433594 2.464844 0 5.503906 0 C 8.535156 0 11 2.433594 11 5.441406 Z M 11 5.441406 "/>
<path fill-rule="nonzero" fill="rgb(0%, 69.019608%, 31.372549%)" fill-opacity="1" d="M 7.660156 5.285156 C 7.660156 6.492188 6.695312 7.46875 5.503906 7.46875 C 4.304688 7.46875 3.34375 6.492188 3.34375 5.285156 C 3.34375 4.078125 4.304688 3.101562 5.503906 3.101562 C 6.695312 3.101562 7.660156 4.078125 7.660156 5.285156 Z M 7.660156 5.285156 "/>
<path fill-rule="nonzero" fill="rgb(20.784314%, 20.784314%, 20.784314%)" fill-opacity="1" d="M 7.660156 11.601562 C 7.660156 12.808594 6.695312 13.78125 5.503906 13.78125 C 4.304688 13.78125 3.34375 12.808594 3.34375 11.601562 C 3.34375 10.394531 4.304688 9.414062 5.503906 9.414062 C 6.695312 9.414062 7.660156 10.394531 7.660156 11.601562 Z M 7.660156 11.601562 "/>
<path fill-rule="nonzero" fill="rgb(20.784314%, 20.784314%, 20.784314%)" fill-opacity="1" d="M 7.632812 17.917969 C 7.632812 19.121094 6.664062 20.105469 5.472656 20.105469 C 4.28125 20.105469 3.3125 19.121094 3.3125 17.917969 C 3.3125 16.710938 4.28125 15.738281 5.472656 15.738281 C 6.664062 15.738281 7.632812 16.710938 7.632812 17.917969 Z M 7.632812 17.917969 "/>
<path fill-rule="nonzero" fill="rgb(100%, 95.686275%, 5.882353%)" fill-opacity="1" stroke-width="0.292573" stroke-linecap="butt" stroke-linejoin="miter" stroke="rgb(0%, 0%, 0%)" stroke-opacity="1" stroke-miterlimit="4" d="M 9.439686 26.862271 C 9.439686 29.249784 7.504661 31.184809 5.117149 31.184809 C 2.729636 31.184809 0.790932 29.249784 0.790932 26.862271 C 0.790932 24.474759 2.729636 22.536055 5.117149 22.536055 C 7.504661 22.536055 9.439686 24.474759 9.439686 26.862271 Z M 9.439686 26.862271 " transform="matrix(1.06184, 0, 0, 1.06184, 0, 0)"/>
<path fill-rule="nonzero" fill="rgb(0%, 0%, 0%)" fill-opacity="1" d="M 7.558594 28.738281 C 7.558594 27.921875 7.328125 27.304688 6.878906 26.882812 C 6.433594 26.449219 5.796875 26.234375 4.96875 26.234375 L 4.1875 26.234375 L 4.1875 31.328125 C 4.542969 31.351562 4.957031 31.363281 5.433594 31.363281 C 6.164062 31.363281 6.699219 31.152344 7.042969 30.730469 C 7.382812 30.300781 7.558594 29.636719 7.558594 28.738281 Z M 5.25 25.835938 C 6.347656 25.835938 7.152344 26.082031 7.671875 26.566406 C 8.203125 27.054688 8.46875 27.785156 8.46875 28.757812 C 8.46875 29.742188 8.210938 30.492188 7.707031 30.996094 C 7.195312 31.507812 6.4375 31.761719 5.433594 31.761719 L 3.328125 31.742188 L 2.578125 31.742188 L 2.578125 31.511719 L 3.328125 31.394531 L 3.328125 26.183594 L 2.578125 26.070312 L 2.578125 25.835938 Z M 2.316406 23.703125 "/>
</svg>
