<?xml version="1.0" encoding="UTF-8"?>
<svg xmlns="http://www.w3.org/2000/svg" xmlns:xlink="http://www.w3.org/1999/xlink" width="12" height="36.294711" viewBox="0 0 12 36.294711">
<path fill-rule="nonzero" fill="rgb(6.666667%, 6.666667%, 6.666667%)" fill-opacity="1" d="M 6.003906 0 C 2.691406 0 0 2.652344 0 5.933594 L 0 19.890625 L 0.0078125 19.890625 C 0.1875 23.011719 2.808594 25.480469 6.003906 25.480469 C 9.191406 25.480469 11.8125 23.011719 11.992188 19.890625 L 12 19.890625 L 12 5.933594 C 12 2.652344 9.308594 0 6.003906 0 Z M 6.003906 0 "/>
<path fill-rule="nonzero" fill="rgb(1.568627%, 69.019608%, 30.980392%)" fill-opacity="1" d="M 8.359375 5.765625 C 8.359375 7.082031 7.304688 8.148438 6.003906 8.148438 C 4.695312 8.148438 3.648438 7.082031 3.648438 5.765625 C 3.648438 4.449219 4.695312 3.382812 6.003906 3.382812 C 7.304688 3.382812 8.359375 4.449219 8.359375 5.765625 Z M 8.359375 5.765625 "/>
<path fill-rule="nonzero" fill="rgb(20.784314%, 21.176471%, 20.784314%)" fill-opacity="1" d="M 8.359375 12.65625 C 8.359375 13.972656 7.304688 15.03125 6.003906 15.03125 C 4.695312 15.03125 3.648438 13.972656 3.648438 12.65625 C 3.648438 11.339844 4.695312 10.269531 6.003906 10.269531 C 7.304688 10.269531 8.359375 11.339844 8.359375 12.65625 Z M 8.359375 12.65625 "/>
<path fill-rule="nonzero" fill="rgb(20.784314%, 21.176471%, 20.784314%)" fill-opacity="1" d="M 8.324219 19.546875 C 8.324219 20.859375 7.269531 21.933594 5.972656 21.933594 C 4.667969 21.933594 3.613281 20.859375 3.613281 19.546875 C 3.613281 18.230469 4.667969 17.171875 5.972656 17.171875 C 7.269531 17.171875 8.324219 18.230469 8.324219 19.546875 Z M 8.324219 19.546875 "/>
<path fill-rule="nonzero" fill="rgb(100%, 95.686275%, 5.882353%)" fill-opacity="1" stroke-width="0.292573" stroke-linecap="butt" stroke-linejoin="miter" stroke="rgb(0%, 0%, 0%)" stroke-opacity="1" stroke-miterlimit="4" d="M 9.442143 26.862896 C 9.442143 29.25041 7.506504 31.182677 5.11899 31.182677 C 2.731477 31.182677 0.789093 29.25041 0.789093 26.862896 C 0.789093 24.475383 2.731477 22.533 5.11899 22.533 C 7.506504 22.533 9.442143 24.475383 9.442143 26.862896 Z M 9.442143 26.862896 " transform="matrix(1.158371, 0, 0, 1.158371, 0, 0)"/>
<path fill-rule="nonzero" fill="rgb(0%, 0%, 0%)" fill-opacity="1" stroke-width="0.17513" stroke-linecap="butt" stroke-linejoin="miter" stroke="rgb(0%, 0%, 0%)" stroke-opacity="1" stroke-miterlimit="4" d="M 7.428385 25.94401 C 7.428385 26.842448 7.180989 27.51302 6.692708 27.96875 C 6.207682 28.424479 5.527344 28.645833 4.654948 28.645833 L 3.180338 28.645833 L 3.180338 23.346354 L 4.811198 23.346354 C 5.348307 23.346354 5.807292 23.44401 6.197917 23.639323 C 6.595052 23.841145 6.894531 24.134114 7.102864 24.518229 C 7.320963 24.899088 7.428385 25.377604 7.428385 25.94401 Z M 6.72526 25.963541 C 6.72526 25.260416 6.549479 24.739583 6.197917 24.414062 C 5.846354 24.082031 5.354818 23.91276 4.713542 23.91276 L 3.847656 23.91276 L 3.847656 28.072916 L 4.567057 28.072916 C 6.002604 28.072916 6.72526 27.369791 6.72526 25.963541 Z M 6.72526 25.963541 " transform="matrix(1.2, 0, 0, 1.2, 0, 0)"/>
</svg>
