<?xml version="1.0" encoding="UTF-8"?>
<svg xmlns="http://www.w3.org/2000/svg" xmlns:xlink="http://www.w3.org/1999/xlink" width="10" height="30.245594" viewBox="0 0 10 30.245594">
<path fill-rule="nonzero" fill="rgb(5.882353%, 5.882353%, 5.882353%)" fill-opacity="1" d="M 0 4.945312 L 10 4.945312 L 10 16.574219 L 0 16.574219 Z M 0 4.945312 "/>
<path fill-rule="nonzero" fill="rgb(5.882353%, 5.882353%, 5.882353%)" fill-opacity="1" d="M 10 16.289062 C 10 19.023438 7.757812 21.234375 5.003906 21.234375 C 2.242188 21.234375 0 19.023438 0 16.289062 C 0 13.554688 2.242188 11.339844 5.003906 11.339844 C 7.757812 11.339844 10 13.554688 10 16.289062 Z M 10 16.289062 "/>
<path fill-rule="nonzero" fill="rgb(5.882353%, 5.882353%, 5.882353%)" fill-opacity="1" d="M 10 4.945312 C 10 7.679688 7.757812 9.898438 5.003906 9.898438 C 2.242188 9.898438 0 7.679688 0 4.945312 C 0 2.210938 2.242188 0 5.003906 0 C 7.757812 0 10 2.210938 10 4.945312 Z M 10 4.945312 "/>
<path fill-rule="nonzero" fill="rgb(0%, 69.019608%, 31.372549%)" fill-opacity="1" d="M 6.964844 4.804688 C 6.964844 5.902344 6.085938 6.789062 5.003906 6.789062 C 3.914062 6.789062 3.039062 5.902344 3.039062 4.804688 C 3.039062 3.707031 3.914062 2.820312 5.003906 2.820312 C 6.085938 2.820312 6.964844 3.707031 6.964844 4.804688 Z M 6.964844 4.804688 "/>
<path fill-rule="nonzero" fill="rgb(20.784314%, 20.784314%, 20.784314%)" fill-opacity="1" d="M 6.964844 10.546875 C 6.964844 11.644531 6.085938 12.527344 5.003906 12.527344 C 3.914062 12.527344 3.039062 11.644531 3.039062 10.546875 C 3.039062 9.449219 3.914062 8.558594 5.003906 8.558594 C 6.085938 8.558594 6.964844 9.449219 6.964844 10.546875 Z M 6.964844 10.546875 "/>
<path fill-rule="nonzero" fill="rgb(20.784314%, 20.784314%, 20.784314%)" fill-opacity="1" d="M 6.9375 16.289062 C 6.9375 17.382812 6.058594 18.277344 4.976562 18.277344 C 3.890625 18.277344 3.011719 17.382812 3.011719 16.289062 C 3.011719 15.191406 3.890625 14.308594 4.976562 14.308594 C 6.058594 14.308594 6.9375 15.191406 6.9375 16.289062 Z M 6.9375 16.289062 "/>
<path fill-rule="nonzero" fill="rgb(100%, 95.686275%, 5.882353%)" fill-opacity="1" stroke-width="0.292573" stroke-linecap="butt" stroke-linejoin="miter" stroke="rgb(0%, 0%, 0%)" stroke-opacity="1" stroke-miterlimit="4" d="M 9.44079 26.861537 C 9.44079 29.24905 7.506501 31.183339 5.118988 31.183339 C 2.731476 31.183339 0.789093 29.24905 0.789093 26.861537 C 0.789093 24.474025 2.731476 22.535689 5.118988 22.535689 C 7.506501 22.535689 9.44079 24.474025 9.44079 26.861537 Z M 9.44079 26.861537 " transform="matrix(0.965309, 0, 0, 0.965309, 0, 0)"/>
<path fill-rule="nonzero" fill="rgb(0%, 0%, 0%)" fill-opacity="1" d="M 6.871094 26.125 C 6.871094 25.382812 6.660156 24.824219 6.253906 24.4375 C 5.847656 24.042969 5.269531 23.847656 4.515625 23.847656 L 3.808594 23.847656 L 3.808594 28.480469 C 4.128906 28.5 4.507812 28.511719 4.941406 28.511719 C 5.605469 28.511719 6.089844 28.320312 6.402344 27.9375 C 6.710938 27.546875 6.871094 26.941406 6.871094 26.125 Z M 4.773438 23.488281 C 5.769531 23.488281 6.503906 23.710938 6.972656 24.152344 C 7.457031 24.59375 7.699219 25.257812 7.699219 26.144531 C 7.699219 27.039062 7.464844 27.71875 7.007812 28.179688 C 6.542969 28.644531 5.851562 28.875 4.941406 28.875 L 3.027344 28.855469 L 2.34375 28.855469 L 2.34375 28.648438 L 3.027344 28.539062 L 3.027344 23.804688 L 2.34375 23.699219 L 2.34375 23.488281 Z M 2.105469 21.546875 "/>
</svg>
