<?xml version="1.0" encoding="UTF-8"?>
<svg xmlns="http://www.w3.org/2000/svg" xmlns:xlink="http://www.w3.org/1999/xlink" width="16" height="48.39295" viewBox="0 0 16 48.39295">
<path fill-rule="nonzero" fill="rgb(6.666667%, 6.666667%, 6.666667%)" fill-opacity="1" d="M 8.007812 0 C 3.585938 0 0 3.539062 0 7.914062 L 0 26.519531 L 0.0117188 26.519531 C 0.25 30.679688 3.742188 33.976562 8.007812 33.976562 C 12.257812 33.976562 15.75 30.679688 15.988281 26.519531 L 16 26.519531 L 16 7.914062 C 16 3.539062 12.414062 0 8.007812 0 Z M 8.007812 0 "/>
<path fill-rule="nonzero" fill="rgb(1.568627%, 69.019608%, 30.980392%)" fill-opacity="1" d="M 11.144531 7.6875 C 11.144531 9.445312 9.738281 10.863281 8.007812 10.863281 C 6.261719 10.863281 4.863281 9.445312 4.863281 7.6875 C 4.863281 5.929688 6.261719 4.511719 8.007812 4.511719 C 9.738281 4.511719 11.144531 5.929688 11.144531 7.6875 Z M 11.144531 7.6875 "/>
<path fill-rule="nonzero" fill="rgb(20.784314%, 21.176471%, 20.784314%)" fill-opacity="1" d="M 11.144531 16.875 C 11.144531 18.632812 9.738281 20.042969 8.007812 20.042969 C 6.261719 20.042969 4.863281 18.632812 4.863281 16.875 C 4.863281 15.117188 6.261719 13.695312 8.007812 13.695312 C 9.738281 13.695312 11.144531 15.117188 11.144531 16.875 Z M 11.144531 16.875 "/>
<path fill-rule="nonzero" fill="rgb(20.784314%, 21.176471%, 20.784314%)" fill-opacity="1" d="M 11.101562 26.0625 C 11.101562 27.8125 9.695312 29.242188 7.960938 29.242188 C 6.226562 29.242188 4.820312 27.8125 4.820312 26.0625 C 4.820312 24.304688 6.226562 22.894531 7.960938 22.894531 C 9.695312 22.894531 11.101562 24.304688 11.101562 26.0625 Z M 11.101562 26.0625 "/>
<path fill-rule="nonzero" fill="rgb(100%, 95.686275%, 5.882353%)" fill-opacity="1" stroke-width="0.292573" stroke-linecap="butt" stroke-linejoin="miter" stroke="rgb(0%, 0%, 0%)" stroke-opacity="1" stroke-miterlimit="4" d="M 9.441297 26.862046 C 9.441297 29.249559 7.506502 31.184355 5.118989 31.184355 C 2.731476 31.184355 0.789093 29.249559 0.789093 26.862046 C 0.789093 24.474534 2.731476 22.53468 5.118989 22.53468 C 7.506502 22.53468 9.441297 24.474534 9.441297 26.862046 Z M 9.441297 26.862046 " transform="matrix(1.544494, 0, 0, 1.544494, 0, 0)"/>
<path fill-rule="nonzero" fill="rgb(0%, 0%, 0%)" fill-opacity="1" stroke-width="0.17513" stroke-linecap="butt" stroke-linejoin="miter" stroke="rgb(0%, 0%, 0%)" stroke-opacity="1" stroke-miterlimit="4" d="M 7.426758 25.942383 C 7.426758 26.84082 7.180176 27.514648 6.691895 27.96875 C 6.206055 28.422852 5.527344 28.64502 4.655762 28.64502 L 3.178711 28.64502 L 3.178711 23.344727 L 4.812012 23.344727 C 5.34668 23.344727 5.808105 23.442383 6.19873 23.640137 C 6.594238 23.840332 6.894531 24.133301 7.104492 24.516602 C 7.319336 24.897461 7.426758 25.375977 7.426758 25.942383 Z M 6.723633 25.964355 C 6.723633 25.258789 6.547852 24.73877 6.196289 24.414062 C 5.847168 24.082031 5.356445 23.913574 4.714355 23.913574 L 3.847656 23.913574 L 3.847656 28.07373 L 4.56543 28.07373 C 6.003418 28.07373 6.723633 27.370605 6.723633 25.964355 Z M 6.723633 25.964355 " transform="matrix(1.6, 0, 0, 1.6, 0, 0)"/>
</svg>
