<?xml version="1.0" encoding="UTF-8"?>
<svg id="Layer_1" data-name="Layer 1" xmlns="http://www.w3.org/2000/svg" viewBox="0 0 16 16">
  <defs>
    <style>
      .cls-1 {
        fill: #111;
      }

      .cls-2 {
        fill: #353635;
      }

      .cls-3 {
        fill: #04b04f;
      }
    </style>
  </defs>
  <path class="cls-1" d="M0,12.06v2.3c0,.91.73,1.64,1.64,1.64h12.72c.91,0,1.64-.73,1.64-1.64V4.4c0-2.64-2.54-5.56-8-3.04C3.63,3.37,0,7.67,0,12.06Z"/>
  <path class="cls-3" d="M14.43,4.35c0,1.23-.99,2.23-2.2,2.23s-2.21-1-2.21-2.23c0-1.23.98-2.23,2.21-2.23s2.2,1,2.2,2.23Z"/>
  <path class="cls-2" d="M14.43,12.58c0,1.23-.99,2.23-2.2,2.23s-2.21-1-2.21-2.23.98-2.23,2.21-2.23,2.2,1,2.2,2.23Z"/>
  <path class="cls-2" d="M8.69,7c0,1.23-.99,2.23-2.2,2.23s-2.21-1-2.21-2.23.98-2.23,2.21-2.23,2.2,1,2.2,2.23Z"/>
  <path class="cls-2" d="M5.98,12.58c0,1.23-.99,2.23-2.2,2.23s-2.21-1-2.21-2.23c0-1.23.98-2.23,2.21-2.23s2.2,1,2.2,2.23Z"/>
</svg>