<?xml version="1.0" encoding="UTF-8"?>
<svg id="Layer_1" data-name="Layer 1" xmlns="http://www.w3.org/2000/svg" viewBox="0 0 16 16">
  <defs>
    <style>
      .cls-1 {
        fill: #111;
      }

      .cls-2 {
        fill: #353635;
      }

      .cls-3 {
        fill: #04b04f;
      }
    </style>
  </defs>
  <path class="cls-1" d="M16,12.06v2.3c0,.91-.73,1.64-1.64,1.64H1.64c-.91,0-1.64-.73-1.64-1.64V4.4C0,1.76,2.54-1.16,8,1.36c4.37,2.01,8,6.31,8,10.7Z"/>
  <path class="cls-3" d="M3.78,2.12c1.22,0,2.21,1,2.21,2.23s-.98,2.23-2.21,2.23-2.2-1-2.2-2.23.99-2.23,2.2-2.23Z"/>
  <path class="cls-2" d="M3.78,10.35c1.22,0,2.21,1,2.21,2.23s-.98,2.23-2.21,2.23-2.2-1-2.2-2.23.99-2.23,2.2-2.23Z"/>
  <path class="cls-2" d="M9.52,4.77c1.22,0,2.21,1,2.21,2.23s-.98,2.23-2.21,2.23-2.2-1-2.2-2.23.99-2.23,2.2-2.23Z"/>
  <path class="cls-2" d="M12.22,10.35c1.22,0,2.21,1,2.21,2.23,0,1.23-.98,2.23-2.21,2.23s-2.2-1-2.2-2.23.99-2.23,2.2-2.23Z"/>
</svg>