<?xml version="1.0" encoding="utf-8"?>
<svg version="1.0" id="Layer_1" xmlns="http://www.w3.org/2000/svg" xmlns:xlink="http://www.w3.org/1999/xlink" x="0px" y="0px" width="16px" height="16px" viewBox="0 0 16 16" enable-background="new 0 0 16 16" xml:space="preserve">
  <circle fill="#FFCE04" cx="8" cy="8" r="7.7"/>
  <g>
    <circle fill="none" stroke="#010101" stroke-width="0.25" stroke-miterlimit="10" cx="8" cy="8" r="7.35"/>
    <path fill="none" stroke="#010101" stroke-width="1.5" stroke-miterlimit="10" d="M13.13,2.87L2.87,13.13 M2.87,2.87l10.27,10.27" />
  </g>
  <path id="a" fill="#010101" d="M1.65,6.2V9.8h0.62v-1.4h1.09c0.6,0,1.09-0.49,1.09-1.09S3.96,6.2,3.36,6.2 M2.26,6.82h1.09
	c0.26,0,0.48,0.21,0.48,0.48c0,0.26-0.21,0.48-0.48,0.48H2.26 M3.22,8.39l0.62,1.4h0.67L3.76,8.08"/>
  <g>
    <path id="a_00000069363097131115234860000016297879665379996810_" fill="#010101" d="M11.66,6.2V9.8h0.62v-1.4h1.09 c0.6,0,1.09-0.49,1.09-1.09S13.97,6.2,13.37,6.2 M12.28,6.82h1.09c0.26,0,0.48,0.21,0.48,0.48c0,0.26-0.21,0.48-0.48,0.48h-1.09 M13.23,8.39l0.62,1.4h0.67l-0.75-1.71"/>
  </g>
</svg>
