<?xml version="1.0" encoding="UTF-8"?>
<svg xmlns="http://www.w3.org/2000/svg" xmlns:xlink="http://www.w3.org/1999/xlink" width="16" height="16" viewBox="0 0 16 16">
<path fill-rule="nonzero" fill="rgb(100%, 80.784314%, 1.568627%)" fill-opacity="1" d="M 15.699219 8 C 15.699219 12.253906 12.253906 15.699219 8 15.699219 C 3.746094 15.699219 0.300781 12.253906 0.300781 8 C 0.300781 3.746094 3.746094 0.300781 8 0.300781 C 12.253906 0.300781 15.699219 3.746094 15.699219 8 Z M 15.699219 8 "/>
<path fill="none" stroke-width="0.25" stroke-linecap="butt" stroke-linejoin="miter" stroke="rgb(0.392157%, 0.392157%, 0.392157%)" stroke-opacity="1" stroke-miterlimit="10" d="M 15.351562 8 C 15.351562 12.058594 12.058594 15.351562 8 15.351562 C 3.941406 15.351562 0.648438 12.058594 0.648438 8 C 0.648438 3.941406 3.941406 0.648438 8 0.648438 C 12.058594 0.648438 15.351562 3.941406 15.351562 8 Z M 15.351562 8 "/>
<path fill="none" stroke-width="1.5" stroke-linecap="butt" stroke-linejoin="miter" stroke="rgb(0.392157%, 0.392157%, 0.392157%)" stroke-opacity="1" stroke-miterlimit="10" d="M 13.128906 2.871094 L 2.871094 13.128906 M 2.871094 2.871094 L 13.140625 13.140625 "/>
<path fill-rule="nonzero" fill="rgb(0.392157%, 0.392157%, 0.392157%)" fill-opacity="1" d="M 1.648438 6.199219 L 1.648438 9.800781 L 2.269531 9.800781 L 2.269531 8.398438 L 3.359375 8.398438 C 3.960938 8.398438 4.449219 7.910156 4.449219 7.308594 C 4.449219 6.710938 3.960938 6.199219 3.359375 6.199219 M 2.261719 6.820312 L 3.351562 6.820312 C 3.609375 6.820312 3.828125 7.03125 3.828125 7.300781 C 3.828125 7.558594 3.621094 7.78125 3.351562 7.78125 L 2.261719 7.78125 M 3.21875 8.390625 L 3.839844 9.789062 L 4.511719 9.789062 L 3.761719 8.078125 "/>
<path fill-rule="nonzero" fill="rgb(0.392157%, 0.392157%, 0.392157%)" fill-opacity="1" d="M 11.660156 6.199219 L 11.660156 9.800781 L 12.28125 9.800781 L 12.28125 8.398438 L 13.371094 8.398438 C 13.96875 8.398438 14.460938 7.910156 14.460938 7.308594 C 14.460938 6.710938 13.96875 6.199219 13.371094 6.199219 M 12.28125 6.820312 L 13.371094 6.820312 C 13.628906 6.820312 13.851562 7.03125 13.851562 7.300781 C 13.851562 7.558594 13.640625 7.78125 13.371094 7.78125 L 12.28125 7.78125 M 13.230469 8.390625 L 13.851562 9.789062 L 14.519531 9.789062 L 13.769531 8.078125 "/>
</svg>
