<?xml version="1.0" encoding="UTF-8"?>
<svg xmlns="http://www.w3.org/2000/svg" xmlns:xlink="http://www.w3.org/1999/xlink" width="16" height="16" viewBox="0 0 16 16">
<path fill-rule="nonzero" fill="rgb(6.666667%, 6.666667%, 6.666667%)" fill-opacity="1" d="M 16 12.058594 L 16 14.359375 C 16 15.269531 15.269531 16 14.359375 16 L 1.640625 16 C 0.730469 16 0 15.269531 0 14.359375 L 0 4.398438 C 0 1.761719 2.539062 -1.160156 8 1.359375 C 12.371094 3.371094 16 7.671875 16 12.058594 Z M 16 12.058594 "/>
<path fill-rule="nonzero" fill="rgb(1.568627%, 69.019608%, 30.980392%)" fill-opacity="1" d="M 3.78125 2.121094 C 5 2.121094 5.988281 3.121094 5.988281 4.351562 C 5.988281 5.578125 5.011719 6.578125 3.78125 6.578125 C 2.550781 6.578125 1.578125 5.578125 1.578125 4.351562 C 1.578125 3.121094 2.570312 2.121094 3.78125 2.121094 Z M 3.78125 2.121094 "/>
<path fill-rule="nonzero" fill="rgb(20.784314%, 21.176471%, 20.784314%)" fill-opacity="1" d="M 3.78125 10.351562 C 5 10.351562 5.988281 11.351562 5.988281 12.578125 C 5.988281 13.808594 5.011719 14.808594 3.78125 14.808594 C 2.550781 14.808594 1.578125 13.808594 1.578125 12.578125 C 1.578125 11.351562 2.570312 10.351562 3.78125 10.351562 Z M 3.78125 10.351562 "/>
<path fill-rule="nonzero" fill="rgb(20.784314%, 21.176471%, 20.784314%)" fill-opacity="1" d="M 9.519531 4.769531 C 10.738281 4.769531 11.730469 5.769531 11.730469 7 C 11.730469 8.230469 10.75 9.230469 9.519531 9.230469 C 8.289062 9.230469 7.320312 8.230469 7.320312 7 C 7.320312 5.769531 8.308594 4.769531 9.519531 4.769531 Z M 9.519531 4.769531 "/>
<path fill-rule="nonzero" fill="rgb(20.784314%, 21.176471%, 20.784314%)" fill-opacity="1" d="M 12.21875 10.351562 C 13.441406 10.351562 14.429688 11.351562 14.429688 12.578125 C 14.429688 13.808594 13.449219 14.808594 12.21875 14.808594 C 10.988281 14.808594 10.019531 13.808594 10.019531 12.578125 C 10.019531 11.351562 11.011719 10.351562 12.21875 10.351562 Z M 12.21875 10.351562 "/>
</svg>
