<?xml version="1.0" encoding="UTF-8"?>
<svg xmlns="http://www.w3.org/2000/svg" xmlns:xlink="http://www.w3.org/1999/xlink" width="12" height="25.480811" viewBox="0 0 12 25.480811">
<path fill-rule="nonzero" fill="rgb(6.666667%, 6.666667%, 6.666667%)" fill-opacity="1" d="M 6.003906 0 C 2.691406 0 0 2.652344 0 5.933594 L 0 19.882812 L 0.0078125 19.882812 C 0.1875 23.003906 2.808594 25.476562 6.003906 25.476562 C 9.195312 25.476562 11.8125 23.003906 11.992188 19.882812 L 12 19.882812 L 12 5.933594 C 12 2.652344 9.308594 0 6.003906 0 Z M 6.003906 0 "/>
<path fill-rule="nonzero" fill="rgb(1.568627%, 69.019608%, 30.980392%)" fill-opacity="1" d="M 8.359375 5.765625 C 8.359375 7.082031 7.304688 8.148438 6.003906 8.148438 C 4.695312 8.148438 3.648438 7.082031 3.648438 5.765625 C 3.648438 4.449219 4.695312 3.382812 6.003906 3.382812 C 7.304688 3.382812 8.359375 4.449219 8.359375 5.765625 Z M 8.359375 5.765625 "/>
<path fill-rule="nonzero" fill="rgb(20.784314%, 21.176471%, 20.784314%)" fill-opacity="1" d="M 8.359375 12.65625 C 8.359375 13.972656 7.304688 15.03125 6.003906 15.03125 C 4.695312 15.03125 3.648438 13.972656 3.648438 12.65625 C 3.648438 11.339844 4.695312 10.269531 6.003906 10.269531 C 7.304688 10.269531 8.359375 11.339844 8.359375 12.65625 Z M 8.359375 12.65625 "/>
<path fill-rule="nonzero" fill="rgb(20.784314%, 21.176471%, 20.784314%)" fill-opacity="1" d="M 8.324219 19.546875 C 8.324219 20.855469 7.269531 21.929688 5.96875 21.929688 C 4.667969 21.929688 3.613281 20.855469 3.613281 19.546875 C 3.613281 18.230469 4.667969 17.164062 5.96875 17.164062 C 7.269531 17.164062 8.324219 18.230469 8.324219 19.546875 Z M 8.324219 19.546875 "/>
</svg>
