<?xml version="1.0" encoding="UTF-8"?>
<svg xmlns="http://www.w3.org/2000/svg" xmlns:xlink="http://www.w3.org/1999/xlink" width="16" height="33.974414" viewBox="0 0 16 33.974414">
<path fill-rule="nonzero" fill="rgb(6.666667%, 6.666667%, 6.666667%)" fill-opacity="1" d="M 8.007812 0 C 3.585938 0 0 3.539062 0 7.914062 L 0 26.511719 L 0.0117188 26.511719 C 0.25 30.671875 3.742188 33.96875 8.007812 33.96875 C 12.261719 33.96875 15.75 30.671875 15.988281 26.511719 L 16 26.511719 L 16 7.914062 C 16 3.539062 12.414062 0 8.007812 0 Z M 8.007812 0 "/>
<path fill-rule="nonzero" fill="rgb(1.568627%, 69.019608%, 30.980392%)" fill-opacity="1" d="M 11.144531 7.6875 C 11.144531 9.445312 9.738281 10.863281 8.007812 10.863281 C 6.261719 10.863281 4.863281 9.445312 4.863281 7.6875 C 4.863281 5.929688 6.261719 4.511719 8.007812 4.511719 C 9.738281 4.511719 11.144531 5.929688 11.144531 7.6875 Z M 11.144531 7.6875 "/>
<path fill-rule="nonzero" fill="rgb(20.784314%, 21.176471%, 20.784314%)" fill-opacity="1" d="M 11.144531 16.875 C 11.144531 18.632812 9.738281 20.042969 8.007812 20.042969 C 6.261719 20.042969 4.863281 18.632812 4.863281 16.875 C 4.863281 15.117188 6.261719 13.695312 8.007812 13.695312 C 9.738281 13.695312 11.144531 15.117188 11.144531 16.875 Z M 11.144531 16.875 "/>
<path fill-rule="nonzero" fill="rgb(20.784314%, 21.176471%, 20.784314%)" fill-opacity="1" d="M 11.101562 26.0625 C 11.101562 27.804688 9.695312 29.238281 7.957031 29.238281 C 6.226562 29.238281 4.820312 27.804688 4.820312 26.0625 C 4.820312 24.304688 6.226562 22.886719 7.957031 22.886719 C 9.695312 22.886719 11.101562 24.304688 11.101562 26.0625 Z M 11.101562 26.0625 "/>
</svg>
