<?xml version="1.0" encoding="UTF-8"?>
<svg xmlns="http://www.w3.org/2000/svg" xmlns:xlink="http://www.w3.org/1999/xlink" width="16" height="16" viewBox="0 0 16 16">
<path fill-rule="nonzero" fill="rgb(6.666667%, 6.666667%, 6.666667%)" fill-opacity="1" d="M 0 12.058594 L 0 14.359375 C 0 15.269531 0.730469 16 1.640625 16 L 14.359375 16 C 15.269531 16 16 15.269531 16 14.359375 L 16 4.398438 C 16 1.761719 13.460938 -1.160156 8 1.359375 C 3.628906 3.371094 0 7.671875 0 12.058594 Z M 0 12.058594 "/>
<path fill-rule="nonzero" fill="rgb(1.568627%, 69.019608%, 30.980392%)" fill-opacity="1" d="M 14.429688 4.351562 C 14.429688 5.578125 13.441406 6.578125 12.230469 6.578125 C 11.019531 6.578125 10.019531 5.578125 10.019531 4.351562 C 10.019531 3.121094 11 2.121094 12.230469 2.121094 C 13.460938 2.121094 14.429688 3.121094 14.429688 4.351562 Z M 14.429688 4.351562 "/>
<path fill-rule="nonzero" fill="rgb(20.784314%, 21.176471%, 20.784314%)" fill-opacity="1" d="M 14.429688 12.578125 C 14.429688 13.808594 13.441406 14.808594 12.230469 14.808594 C 11.019531 14.808594 10.019531 13.808594 10.019531 12.578125 C 10.019531 11.351562 11 10.351562 12.230469 10.351562 C 13.460938 10.351562 14.429688 11.351562 14.429688 12.578125 Z M 14.429688 12.578125 "/>
<path fill-rule="nonzero" fill="rgb(20.784314%, 21.176471%, 20.784314%)" fill-opacity="1" d="M 8.691406 7 C 8.691406 8.230469 7.699219 9.230469 6.488281 9.230469 C 5.28125 9.230469 4.28125 8.230469 4.28125 7 C 4.28125 5.769531 5.261719 4.769531 6.488281 4.769531 C 7.71875 4.769531 8.691406 5.769531 8.691406 7 Z M 8.691406 7 "/>
<path fill-rule="nonzero" fill="rgb(20.784314%, 21.176471%, 20.784314%)" fill-opacity="1" d="M 5.980469 12.578125 C 5.980469 13.808594 4.988281 14.808594 3.78125 14.808594 C 2.570312 14.808594 1.570312 13.808594 1.570312 12.578125 C 1.570312 11.351562 2.550781 10.351562 3.78125 10.351562 C 5.011719 10.351562 5.980469 11.351562 5.980469 12.578125 Z M 5.980469 12.578125 "/>
</svg>
