<?xml version="1.0" encoding="UTF-8"?>
<svg xmlns="http://www.w3.org/2000/svg" xmlns:xlink="http://www.w3.org/1999/xlink" width="16.469559" height="22.328831" viewBox="0 0 16.469559 22.328831">
<path fill-rule="nonzero" fill="rgb(5.882353%, 5.882353%, 5.882353%)" fill-opacity="1" d="M 3.234375 4.945312 L 13.234375 4.945312 L 13.234375 20.570312 L 3.234375 20.570312 Z M 3.234375 4.945312 "/>
<path fill-rule="nonzero" fill="rgb(5.882353%, 5.882353%, 5.882353%)" fill-opacity="1" d="M 13.234375 4.945312 C 13.234375 7.679688 10.992188 9.898438 8.238281 9.898438 C 5.476562 9.898438 3.234375 7.679688 3.234375 4.945312 C 3.234375 2.210938 5.476562 0 8.238281 0 C 10.992188 0 13.234375 2.210938 13.234375 4.945312 Z M 13.234375 4.945312 "/>
<path fill-rule="nonzero" fill="rgb(0%, 69.019608%, 31.372549%)" fill-opacity="1" d="M 10.199219 4.804688 C 10.199219 5.902344 9.320312 6.789062 8.238281 6.789062 C 7.148438 6.789062 6.273438 5.902344 6.273438 4.804688 C 6.273438 3.707031 7.148438 2.820312 8.238281 2.820312 C 9.320312 2.820312 10.199219 3.707031 10.199219 4.804688 Z M 10.199219 4.804688 "/>
<path fill-rule="nonzero" fill="rgb(20.784314%, 20.784314%, 20.784314%)" fill-opacity="1" d="M 10.199219 10.546875 C 10.199219 11.644531 9.320312 12.527344 8.238281 12.527344 C 7.148438 12.527344 6.273438 11.644531 6.273438 10.546875 C 6.273438 9.449219 7.148438 8.558594 8.238281 8.558594 C 9.320312 8.558594 10.199219 9.449219 10.199219 10.546875 Z M 10.199219 10.546875 "/>
<path fill-rule="nonzero" fill="rgb(20.784314%, 20.784314%, 20.784314%)" fill-opacity="1" d="M 10.171875 16.289062 C 10.171875 17.378906 9.292969 18.273438 8.207031 18.273438 C 7.125 18.273438 6.246094 17.378906 6.246094 16.289062 C 6.246094 15.191406 7.125 14.304688 8.207031 14.304688 C 9.292969 14.304688 10.171875 15.191406 10.171875 16.289062 Z M 10.171875 16.289062 "/>
<path fill-rule="nonzero" fill="rgb(5.882353%, 5.882353%, 5.882353%)" fill-opacity="1" d="M 0 19.210938 L 16.46875 19.210938 L 16.46875 22.328125 L 0 22.328125 Z M 0 19.210938 "/>
</svg>
