<svg xmlns="http://www.w3.org/2000/svg" viewBox="0 0 500 500" width="17" height="17">
  <rect x="10" y="10" width="480" height="480" fill="#ddd" stroke="red" stroke-width="15px" rx="60"/>
  <circle r="90" cx="250" cy="250" fill="red" stroke="#fff" stroke-width="3"/>
  <path d="M 171.65 461.65 L 192.15 461.65 L 192.15 355 L 171.5 355 L 171.45 423.5 L 142 355 L 121.25 355 L 121.25 461.65 L 142 461.65 L 142 392.85 L 171.65 461.65 Z M 53.65 414.9 L 97.45 414.9 L 97.45 398.65 L 53.65 398.65 L 53.65 371.75 L 104.65 371.75 L 104.65 355 L 33 355 L 33 461.65 L 104.85 461.65 L 104.85 445 L 53.65 445 L 53.65 414.9 Z M 322.45 421.8 L 338.05 421.8 L 358.1 461.65 L 380.15 461.65 L 380.15 460.7 L 357.25 416.65 A 41.2 41.2 90 0 0 363.8 413 A 37.1 37.1 90 0 0 365.2 412 Q 368.75 409.25 371.3 405.6 A 27.55 27.55 90 0 0 374.6 399.15 A 32.1 32.1 90 0 0 375.15 397.45 Q 376.5 392.85 376.5 387.15 A 38.75 38.75 90 0 0 375.9 380.15 A 29.25 29.25 90 0 0 373.75 373.25 Q 371 367.25 365.95 363.2 A 33.55 33.55 90 0 0 358.15 358.65 A 41.9 41.9 90 0 0 353.65 357.1 A 51.3 51.3 90 0 0 345.05 355.4 A 66.55 66.55 90 0 0 337.6 355 L 301.85 355 L 301.85 461.65 L 322.45 461.65 L 322.45 421.8 Z M 449.3 355 L 428.3 404.15 L 407.25 355 L 384.7 355 L 417.75 423.85 L 417.8 461.65 L 438.3 461.65 L 438.4 424.75 L 471.95 355 L 449.3 355 Z M 257.35 371.75 L 290.25 371.75 L 290.25 355 L 204.25 355 L 204.25 371.75 L 236.7 371.75 L 236.7 461.65 L 257.35 461.65 L 257.35 371.75 Z M 337.7 405.1 L 322.45 405.1 L 322.45 371.7 L 337.6 371.7 A 30.1 30.1 90 0 1 341.4 371.9 A 21.95 21.95 90 0 1 345.15 372.7 A 17.85 17.85 90 0 1 348.35 374.05 A 14.15 14.15 90 0 1 350.7 375.65 Q 353.3 377.8 354.55 381.05 A 18 18 90 0 1 355.6 385 A 24.25 24.25 90 0 1 355.85 388.55 A 21.6 21.6 90 0 1 355.55 392.2 A 17.2 17.2 90 0 1 354.85 394.9 A 14.15 14.15 90 0 1 353 398.55 A 12.85 12.85 90 0 1 351.95 399.8 A 13.75 13.75 90 0 1 347.85 402.95 A 17.2 17.2 90 0 1 346.05 403.75 A 20.65 20.65 90 0 1 341.9 404.8 A 28.4 28.4 90 0 1 337.7 405.1 Z" />
  <path d="M194.1899 100.1127H177.9693l8.2181-28.7892 8.0025 28.7892ZM396.5723 84.4289V95.9228q0 2.9007-.2948 5.5858-.2959 2.6862-.8866 4.9423-.7513 2.8996-2.0141 5.1832-1.2617 2.2825-3.0888 3.7862-1.4498 1.2353-3.3297 1.8799-1.8799.6446-4.136.6446-2.3628 0-4.2163-.6985-1.8524-.6985-3.3033-1.9877-1.5576-1.4498-2.7115-3.7862-1.155-2.3364-1.7457-5.1832-.5379-2.2561-.7524-4.8873-.2145-2.6323-.2145-5.4791V84.4289q0-3.0074.2409-5.7475.242-2.739.7788-5.0479.6985-3.0085 1.9613-5.2646 1.2617-2.255 3.0877-3.7598 1.3431-1.0197 3.0349-1.5576 1.6918-.5368 3.7873-.5368 2.2011 0 4.0007.5907 1.7996.5907 3.2494 1.6654 1.826 1.4498 3.1691 3.7334 1.3431 2.2825 2.1483 5.1821.6446 2.31.9405 5.0226.2948 2.7126.2948 5.72Zm15.3076 11.4939V84.5367q0-5.3174-.9933-10.0441-.9933-4.7267-2.8732-8.701-1.7193-3.4914-4.1096-6.3921-2.3892-2.9007-5.5583-4.9412-3.1691-2.1483-7.117-3.3033T382.7695 50q-4.4583 0-8.272 1.1286-3.8137 1.1275-6.875 3.2219-3.1152 2.1483-5.5055 5.1568-2.3903 3.0074-4.0546 6.7133-1.7193 3.9215-2.6059 8.5404-.8855 4.6189-.8855 9.7757V95.9228q0 4.8345.7788 9.185.7788 4.3505 2.2825 8.0564 1.6654 4.0282 4.136 7.2237 2.4706 3.1966 5.5858 5.4527 3.1691 2.1483 7.0356 3.3297 3.8676 1.1814 8.4326 1.1814 4.2977 0 8.03-1.0472 3.7334-1.0472 6.8486-2.9271 3.4375-2.1483 6.1226-5.3713 2.6862-3.223 4.5122-7.0895 1.7182-3.8676 2.6312-8.4062t.913-9.5876ZM174.2634 112.9497h23.4718l4.565 16.3284h15.8983L193.0624 51.0747H179.3652l-25.6201 78.2034h15.8994l4.6189-16.3284Zm84.3799-49.5759h24.1164V51.0747H219.7022V63.3738h23.7941v65.9043h15.147V63.3738Zm-132.022 0h24.1164V51.0747H87.6813V63.3738h23.7941v65.9043h15.1459V63.3738ZM339.8541 51.0747H294.6298V63.2671h14.8775v53.8714H294.6298v12.1396h45.2243V117.1385H324.6004V63.2671h15.2537V51.0747ZM39.8247 105H25q0 6.0698 2.3364 10.5809 2.3364 4.5122 6.3657 7.8419 4.2427 3.3836 9.9627 5.1293t11.5753 1.7457q5.962 0 11.0099-1.4234 5.049-1.4234 8.7021-4.2163 3.652-2.739 5.72-6.7408 2.068-4.0007 2.068-9.1575 0-5.962-2.7401-10.527-2.739-4.565-7.3579-8.0025-3.0613-2.0955-6.7144-3.707-3.652-1.6104-7.6802-2.739-3.7598-1.0208-6.7408-2.2022-2.981-1.1814-5.0754-2.6312-2.0955-1.397-3.1955-3.1691-1.1011-1.7732-1.1011-3.9754 0-2.0944.8316-3.894.8327-1.7985 2.4442-3.1416 1.6115-1.2892 3.9479-2.0141 2.3364-.7249 5.3438-.7249 3.2769 0 5.7211.8855 2.4431.8866 4.1085 2.4442 1.6115 1.6115 2.4442 3.8137.8316 2.2022.9394 4.8334H82.6323q0-5.2635-2.0416-9.6679-2.0405-4.4044-5.6925-7.6263-3.6531-3.1691-8.7285-4.9412Q61.0943 50 54.9706 50q-5.9081 0-10.956 1.5312-5.049 1.5301-8.7549 4.3769-3.707 2.8468-5.8014 6.875-2.0944 4.0282-2.0944 8.9705 0 4.2966 1.584 7.9486 1.5851 3.6531 4.7003 6.6605t8.0289 5.5319q4.9148 2.5245 11.4136 4.2966 4.1899 1.1286 7.0103 2.4442 2.8193 1.3156 4.5914 2.8732 1.7193 1.6115 2.4442 3.4375.7249 1.8271.7249 3.9215 0 2.0944-.8591 3.8401-.8591 1.7457-2.4706 2.981-1.6115 1.2353-3.9479 1.9338t-5.3438.6985q-3.3847 0-6.204-.7524-2.8204-.7524-4.807-2.3628-2.0416-1.6115-3.1691-4.136T39.8247 105Zm420.0196 24.2781h15.0392V51.0747h-15.147l-.0539 50.2194-21.5919-50.2194H422.8909v78.2034h15.1998V78.8431l21.7536 50.435Z" />
</svg>
