<?xml version="1.0" encoding="UTF-8" standalone="no"?>
<svg
   width="10"
   height="26"
   viewBox="0 0 10 26"
   version="1.1"
   id="svg3"
   sodipodi:docname="fv1.svg"
   inkscape:version="1.3 (0e150ed, 2023-07-21)"
   xmlns:inkscape="http://www.inkscape.org/namespaces/inkscape"
   xmlns:sodipodi="http://sodipodi.sourceforge.net/DTD/sodipodi-0.dtd"
   xmlns="http://www.w3.org/2000/svg"
   xmlns:svg="http://www.w3.org/2000/svg">
  <defs
     id="defs3" />
  <sodipodi:namedview
     id="namedview3"
     pagecolor="#ffffff"
     bordercolor="#000000"
     borderopacity="0.25"
     inkscape:showpageshadow="2"
     inkscape:pageopacity="0.0"
     inkscape:pagecheckerboard="0"
     inkscape:deskcolor="#d1d1d1"
     inkscape:zoom="44.2"
     inkscape:cx="5.0113122"
     inkscape:cy="23.506787"
     inkscape:window-width="1920"
     inkscape:window-height="1027"
     inkscape:window-x="1512"
     inkscape:window-y="25"
     inkscape:window-maximized="1"
     inkscape:current-layer="svg3" />
  <g
     id="g1"
     transform="translate(0,5.6289574)">
    <rect
       x="-0.9591167"
       y="9.061554"
       width="11.954751"
       height="11.941176"
       fill="#838383"
       fill-opacity="1"
       id="rect1"
       style="display:inline;stroke-width:0.70404" />
    <g
       id="g4"
       transform="rotate(90,4.9898142,15.060997)"
       style="display:inline">
      <path
         fill-rule="nonzero"
         fill="#000000"
         fill-opacity="1"
         d="M 3.3503764,19.14939 C 1.0777523,18.259972 -0.04921665,15.695363 0.84020254,13.422738 1.7320321,11.143954 4.3003901,10.025556 6.5730138,10.914975 8.8517966,11.806804 9.9726054,14.369001 9.0807755,16.647786 8.1913566,18.92041 5.6291592,20.041219 3.3503764,19.14939 Z m 0,0"
         id="path2-9"
         style="display:inline;fill:#000000;stroke-width:1.69311" />
      <path
         fill-rule="nonzero"
         fill="#ffffff"
         fill-opacity="1"
         stroke-width="0.0633648"
         stroke-linecap="round"
         stroke-linejoin="round"
         stroke="#ffffff"
         stroke-opacity="1"
         stroke-miterlimit="4"
         d="m 6.9466526,13.872339 c 0.6432164,0 1.1603993,0.517197 1.1603993,1.160378 0,0.643181 -0.5171829,1.160378 -1.1603993,1.160378 -0.6365623,0 -1.1603364,-0.517197 -1.1603364,-1.160378 0,-0.643181 0.5237741,-1.160378 1.1603364,-1.160378 z m 0,0"
         id="path5-3" />
      <path
         fill-rule="nonzero"
         fill="#ffffff"
         fill-opacity="1"
         stroke-width="0.0633648"
         stroke-linecap="round"
         stroke-linejoin="round"
         stroke="#ffffff"
         stroke-opacity="1"
         stroke-miterlimit="4"
         d="m 3.0212683,13.872339 c 0.6432164,0 1.1603992,0.517197 1.1603992,1.160378 0,0.643181 -0.5171828,1.160378 -1.1603992,1.160378 -0.6431519,0 -1.1603993,-0.517197 -1.1603993,-1.160378 0,-0.643181 0.5172474,-1.160378 1.1603993,-1.160378 z m 0,0"
         id="path6-6" />
    </g>
    <g
       id="g3"
       style="display:inline"
       transform="translate(-0.04524887,-3.6651584)">
      <path
         fill-rule="nonzero"
         fill="#ffe500"
         fill-opacity="0.96078"
         stroke-width="1.51552"
         stroke-linecap="round"
         stroke-linejoin="round"
         stroke="#ffffff"
         stroke-opacity="0.96078"
         stroke-miterlimit="4"
         d="M -0.20151632,-1.206039 H 10.229585 V 11.976687 H -0.20151632 Z m 0,0"
         id="path3-8"
         style="display:inline" />
      <path
         fill-rule="evenodd"
         fill="#000000"
         fill-opacity="1"
         d="m 2.1466396,1.0825758 2.2753958,8.486433 H 5.5994196 L 7.8748154,1.0825758 H 6.7834196 L 5.0107275,7.604496 3.2380355,1.0825758 Z m 0,0"
         id="path4"
         style="display:inline;stroke-width:1.69332" />
    </g>
  </g>
</svg>
