<?xml version="1.0" encoding="UTF-8" standalone="no"?>
<svg
   width="10"
   height="26"
   viewBox="0 0 10 26"
   version="1.1"
   id="svg3"
   sodipodi:docname="fv3.svg"
   inkscape:version="1.3 (0e150ed, 2023-07-21)"
   xmlns:inkscape="http://www.inkscape.org/namespaces/inkscape"
   xmlns:sodipodi="http://sodipodi.sourceforge.net/DTD/sodipodi-0.dtd"
   xmlns="http://www.w3.org/2000/svg"
   xmlns:svg="http://www.w3.org/2000/svg">
  <defs
     id="defs3" />
  <sodipodi:namedview
     id="namedview3"
     pagecolor="#ffffff"
     bordercolor="#000000"
     borderopacity="0.25"
     inkscape:showpageshadow="2"
     inkscape:pageopacity="0.0"
     inkscape:pagecheckerboard="0"
     inkscape:deskcolor="#d1d1d1"
     inkscape:zoom="44.2"
     inkscape:cx="5.0113122"
     inkscape:cy="28.099548"
     inkscape:window-width="1920"
     inkscape:window-height="1027"
     inkscape:window-x="1512"
     inkscape:window-y="25"
     inkscape:window-maximized="1"
     inkscape:current-layer="svg3" />
  <g
     id="g1"
     transform="translate(0,5.6289574)">
    <rect
       x="-0.9591167"
       y="9.061554"
       width="11.954751"
       height="11.941176"
       fill="#838383"
       fill-opacity="1"
       id="rect1"
       style="display:inline;stroke-width:0.70404" />
    <g
       id="g4"
       transform="translate(0.05656115)">
      <path
         fill-rule="nonzero"
         fill="#000000"
         fill-opacity="1"
         d="m 4.9616984,19.453426 c -2.440468,0 -4.42459048,-1.977507 -4.42459048,-4.417976 0,-2.447084 1.98412248,-4.424591 4.42459048,-4.424591 2.447082,0 4.424589,1.977507 4.424589,4.424591 0,2.440469 -1.977507,4.417976 -4.424589,4.417976 z m 0,0"
         id="path2-9"
         style="display:inline;stroke-width:1.69311" />
      <path
         fill-rule="nonzero"
         fill="#ffffff"
         fill-opacity="1"
         stroke-width="0.169311"
         stroke-linecap="round"
         stroke-linejoin="round"
         stroke="#ffffff"
         stroke-opacity="1"
         stroke-miterlimit="4"
         d="m 7.4149954,16.71064 c 0,0.641533 -0.515872,1.157404 -1.157404,1.157404 -0.641532,0 -1.157404,-0.515871 -1.157404,-1.157404 0,-0.634919 0.515872,-1.157403 1.157404,-1.157403 0.641532,0 1.157404,0.522484 1.157404,1.157403 z m 0,0"
         id="path5"
         style="display:inline" />
      <path
         fill-rule="nonzero"
         fill="#ffffff"
         fill-opacity="1"
         stroke-width="0.169311"
         stroke-linecap="round"
         stroke-linejoin="round"
         stroke="#ffffff"
         stroke-opacity="1"
         stroke-miterlimit="4"
         d="m 4.9291854,13.355769 c 0,0.641532 -0.51587,1.157404 -1.157402,1.157404 -0.6415322,0 -1.1574045,-0.515872 -1.1574045,-1.157404 0,-0.641532 0.5158723,-1.157405 1.1574045,-1.157405 0.641532,0 1.157402,0.515873 1.157402,1.157405 z m 0,0"
         id="path6"
         style="display:inline" />
    </g>
    <g
       id="g3"
       style="display:inline"
       transform="translate(-0.04524887,-3.6651584)">
      <path
         fill-rule="nonzero"
         fill="#ffe500"
         fill-opacity="0.96078"
         stroke-width="1.51552"
         stroke-linecap="round"
         stroke-linejoin="round"
         stroke="#ffffff"
         stroke-opacity="0.96078"
         stroke-miterlimit="4"
         d="M -0.20151632,-1.206039 H 10.229585 V 11.976687 H -0.20151632 Z m 0,0"
         id="path3-8"
         style="display:inline" />
      <path
         fill-rule="evenodd"
         fill="#000000"
         fill-opacity="1"
         d="m 2.1466396,1.0825758 2.2753958,8.486433 H 5.5994196 L 7.8748154,1.0825758 H 6.7834196 L 5.0107275,7.604496 3.2380355,1.0825758 Z m 0,0"
         id="path4"
         style="display:inline;stroke-width:1.69332" />
    </g>
  </g>
</svg>
