<?xml version="1.0" encoding="UTF-8" standalone="no"?>
<svg
   width="10"
   height="10.135228"
   viewBox="0 0 10 10.135228"
   version="1.1"
   id="svg3"
   xmlns="http://www.w3.org/2000/svg"
   xmlns:svg="http://www.w3.org/2000/svg">
  <defs
     id="defs3" />
  <path
     fill-rule="nonzero"
     fill="#838383"
     fill-opacity="1"
     d="M 0,0 H 10 V 10.132812 H 0 Z m 0,0"
     id="path1" />
  <path
     fill-rule="nonzero"
     fill="#000000"
     fill-opacity="1"
     d="m 9.375,5.066406 c 0,2.417969 -1.957031,4.375 -4.375,4.375 -2.417969,0 -4.375,-1.957031 -4.375,-4.375 0,-2.414062 1.957031,-4.375 4.375,-4.375 2.417969,0 4.375,1.960938 4.375,4.375 z m 0,0"
     id="path2" />
  <path
     fill-rule="nonzero"
     fill="#00f1a5"
     fill-opacity="1"
     d="M 6.5141411,2.861031 C 6.3949607,3.1574612 6.0567393,3.3017062 5.7582648,3.181704 5.4597903,3.0617017 5.3155454,2.7234802 5.4347257,2.42705 5.5547281,2.128575 5.8929494,1.9843305 6.1914239,2.1043328 6.4898983,2.224335 6.6341435,2.562556 6.5141411,2.861031 Z M 4.5091876,2.4372795 C 4.6359182,2.7304624 4.4986554,3.0718681 4.2034283,3.1977767 3.9082012,3.3236855 3.5667955,3.1864228 3.4408868,2.8911956 3.3149781,2.5959685 3.4522409,2.2545627 3.7466461,2.1306983 4.0418733,2.0047897 4.383279,2.1420524 4.5091876,2.4372795 Z M 2.7920149,3.5541153 C 3.0904894,3.6741175 3.2347344,4.012339 3.115554,4.3087692 2.9955518,4.6072437 2.6573303,4.7514887 2.3588558,4.6314864 2.062425,4.5123059 1.9181805,4.1740846 2.0381827,3.8756101 2.1573631,3.5791798 2.4955841,3.4349347 2.7920149,3.5541153 Z M 2.3682633,5.5590687 C 2.6634904,5.4331607 3.004896,5.5704234 3.1308048,5.86565 3.2567136,6.1608771 3.1202727,6.5002385 2.8250456,6.6261472 2.5298184,6.7520559 2.1884128,6.6147932 2.062504,6.319566 1.9365954,6.0243389 2.0730363,5.6849775 2.3682633,5.5590687 Z M 3.485921,7.2741972 C 3.6051014,6.977767 3.9433227,6.8335226 4.2417972,6.9535248 4.5402716,7.073527 4.6845167,7.411748 4.5653364,7.7081782 4.445334,8.0066532 4.1071127,8.1508977 3.8086382,8.0308954 3.5101638,7.9108932 3.3659186,7.5726722 3.485921,7.2741972 Z M 5.4908746,7.6979488 C 5.3649657,7.4027216 5.5014066,7.0633602 5.7966339,6.9374515 6.0918608,6.8115434 6.4332664,6.9488061 6.5591753,7.2440327 6.685084,7.5392599 6.5486431,7.8786213 6.253416,8.0045299 5.9581888,8.1304387 5.6167832,7.9931759 5.4908746,7.6979488 Z M 7.2080472,6.5811129 C 6.9095728,6.4611107 6.7653278,6.1228893 6.88533,5.8244148 7.0045104,5.5279845 7.3427319,5.3837395 7.6412063,5.5037418 7.9376371,5.6229223 8.0818816,5.9611436 7.9627012,6.2575739 7.842699,6.5560484 7.504478,6.7002935 7.2080472,6.5811129 Z M 7.6317987,4.5761595 C 7.3365716,4.7020682 6.9951659,4.5648055 6.8692573,4.2695784 6.7433485,3.9743512 6.8806113,3.6329454 7.1750166,3.509081 7.4702437,3.3831724 7.8116494,3.5204351 7.9375581,3.8156622 8.0642886,4.1088451 7.9270259,4.4502509 7.6317987,4.5761595 Z m 0,0"
     id="path3-0"
     style="fill:#ffffff;stroke-width:0.564068;stroke:#ffffff;stroke-opacity:1" />
</svg>
