<?xml version="1.0" encoding="UTF-8"?>
<svg xmlns="http://www.w3.org/2000/svg" xmlns:xlink="http://www.w3.org/1999/xlink" width="15" height="44.965767" viewBox="0 0 15 44.965767">
<path fill-rule="nonzero" fill="rgb(51.372549%, 51.372549%, 51.372549%)" fill-opacity="1" d="M 0.0585938 0 L 15 0 L 15 44.964844 L 0.0585938 44.964844 Z M 0.0585938 0 "/>
<path fill-rule="nonzero" fill="rgb(0%, 0%, 0%)" fill-opacity="1" d="M 7.5 13.980469 C 3.878906 13.980469 0.9375 11.042969 0.9375 7.417969 C 0.9375 3.792969 3.878906 0.851562 7.5 0.851562 C 11.125 0.851562 14.0625 3.792969 14.0625 7.417969 C 14.0625 11.042969 11.125 13.980469 7.5 13.980469 Z M 7.5 13.980469 "/>
<path fill-rule="evenodd" fill="rgb(100%, 100%, 100%)" fill-opacity="1" d="M 6.050781 3.273438 L 3.191406 10.941406 L 4.933594 10.941406 L 5.824219 8.816406 L 9.175781 8.816406 L 10.070312 10.941406 L 11.8125 10.941406 L 8.953125 3.273438 Z M 7.5 4.835938 L 8.441406 7.074219 L 6.5625 7.074219 Z M 7.5 4.835938 "/>
<path fill-rule="nonzero" fill="rgb(0%, 0%, 0%)" fill-opacity="1" d="M 14.0625 37.496094 C 14.0625 41.109375 11.140625 44.03125 7.527344 44.03125 C 3.914062 44.03125 0.992188 41.109375 0.992188 37.496094 C 0.992188 33.882812 3.914062 30.960938 7.527344 30.960938 C 11.140625 30.960938 14.0625 33.882812 14.0625 37.496094 Z M 14.0625 37.496094 "/>
<path fill-rule="nonzero" fill="rgb(100%, 100%, 100%)" fill-opacity="1" d="M 6.25 32.878906 L 9.125 32.878906 L 9.125 42.460938 L 6.25 42.460938 Z M 6.25 32.878906 "/>
<path fill-rule="nonzero" fill="rgb(0%, 0%, 0%)" fill-opacity="1" d="M 7.527344 29.089844 C 3.914062 29.089844 0.992188 26.167969 0.992188 22.554688 C 0.992188 18.941406 3.914062 16.019531 7.527344 16.019531 C 11.140625 16.019531 14.0625 18.941406 14.0625 22.554688 C 14.0625 26.167969 11.140625 29.089844 7.527344 29.089844 Z M 7.527344 29.089844 "/>
</svg>
