<?xml version="1.0" encoding="UTF-8"?>
<svg xmlns="http://www.w3.org/2000/svg" xmlns:xlink="http://www.w3.org/1999/xlink" width="12" height="35.972614" viewBox="0 0 12 35.972614">
<path fill-rule="nonzero" fill="rgb(51.372549%, 51.372549%, 51.372549%)" fill-opacity="1" d="M 0.046875 0 L 12 0 L 12 35.972656 L 0.046875 35.972656 Z M 0.046875 0 "/>
<path fill-rule="nonzero" fill="rgb(0%, 0%, 0%)" fill-opacity="1" d="M 6 11.183594 C 3.101562 11.183594 0.75 8.835938 0.75 5.933594 C 0.75 3.03125 3.101562 0.679688 6 0.679688 C 8.902344 0.679688 11.25 3.03125 11.25 5.933594 C 11.25 8.835938 8.902344 11.183594 6 11.183594 Z M 6 11.183594 "/>
<path fill-rule="evenodd" fill="rgb(100%, 100%, 100%)" fill-opacity="1" d="M 4.84375 2.621094 L 2.554688 8.75 L 3.945312 8.75 L 4.660156 7.054688 L 7.339844 7.054688 L 8.058594 8.75 L 9.449219 8.75 L 7.164062 2.621094 Z M 6 3.867188 L 6.753906 5.65625 L 5.25 5.65625 Z M 6 3.867188 "/>
<path fill-rule="nonzero" fill="rgb(0%, 0%, 0%)" fill-opacity="1" d="M 11.25 29.996094 C 11.25 32.886719 8.910156 35.226562 6.023438 35.226562 C 3.132812 35.226562 0.792969 32.886719 0.792969 29.996094 C 0.792969 27.109375 3.132812 24.769531 6.023438 24.769531 C 8.910156 24.769531 11.25 27.109375 11.25 29.996094 Z M 11.25 29.996094 "/>
<path fill-rule="nonzero" fill="rgb(100%, 100%, 100%)" fill-opacity="1" d="M 5 26.300781 L 7.296875 26.300781 L 7.296875 33.96875 L 5 33.96875 Z M 5 26.300781 "/>
<path fill-rule="nonzero" fill="rgb(0%, 0%, 0%)" fill-opacity="1" d="M 6.023438 23.273438 C 3.132812 23.273438 0.792969 20.933594 0.792969 18.042969 C 0.792969 15.15625 3.132812 12.816406 6.023438 12.816406 C 8.910156 12.816406 11.25 15.15625 11.25 18.042969 C 11.25 20.933594 8.910156 23.273438 6.023438 23.273438 Z M 6.023438 23.273438 "/>
</svg>
