<?xml version="1.0" encoding="UTF-8"?>
<svg xmlns="http://www.w3.org/2000/svg" xmlns:xlink="http://www.w3.org/1999/xlink" width="15" height="45.138045" viewBox="0 0 15 45.138045">
<path fill-rule="nonzero" fill="rgb(51.372549%, 51.372549%, 51.372549%)" fill-opacity="1" d="M 0 0 L 15 0 L 15 45.136719 L 0 45.136719 Z M 0 0 "/>
<path fill-rule="nonzero" fill="rgb(0%, 0%, 0%)" fill-opacity="1" d="M 7.472656 14.035156 C 3.835938 14.035156 0.882812 11.085938 0.882812 7.445312 C 0.882812 3.804688 3.835938 0.855469 7.472656 0.855469 C 11.109375 0.855469 14.058594 3.804688 14.058594 7.445312 C 14.058594 11.085938 11.109375 14.035156 7.472656 14.035156 Z M 7.472656 14.035156 "/>
<path fill-rule="evenodd" fill="rgb(100%, 100%, 100%)" fill-opacity="1" d="M 6.015625 3.285156 L 3.144531 10.984375 L 4.894531 10.984375 L 5.789062 8.847656 L 9.152344 8.847656 L 10.050781 10.984375 L 11.800781 10.984375 L 8.929688 3.285156 Z M 7.472656 4.855469 L 8.414062 7.101562 L 6.527344 7.101562 Z M 7.472656 4.855469 "/>
<path fill-rule="nonzero" fill="rgb(0%, 0%, 0%)" fill-opacity="1" d="M 14.058594 37.640625 C 14.058594 41.265625 11.125 44.199219 7.5 44.199219 C 3.871094 44.199219 0.9375 41.265625 0.9375 37.640625 C 0.9375 34.011719 3.871094 31.078125 7.5 31.078125 C 11.125 31.078125 14.058594 34.011719 14.058594 37.640625 Z M 14.058594 37.640625 "/>
<path fill-rule="nonzero" fill="rgb(100%, 100%, 100%)" fill-opacity="1" d="M 2.765625 36.660156 L 4.210938 34.152344 L 12.542969 38.96875 L 11.101562 41.476562 Z M 2.765625 36.660156 "/>
<path fill-rule="nonzero" fill="rgb(0%, 0%, 0%)" fill-opacity="1" d="M 7.5 29.203125 C 3.871094 29.203125 0.9375 26.269531 0.9375 22.640625 C 0.9375 19.015625 3.871094 16.078125 7.5 16.078125 C 11.125 16.078125 14.058594 19.015625 14.058594 22.640625 C 14.058594 26.269531 11.125 29.203125 7.5 29.203125 Z M 7.5 29.203125 "/>
</svg>
