<?xml version="1.0" encoding="UTF-8"?>
<svg xmlns="http://www.w3.org/2000/svg" xmlns:xlink="http://www.w3.org/1999/xlink" width="12" height="36.110438" viewBox="0 0 12 36.110438">
<path fill-rule="nonzero" fill="rgb(51.372549%, 51.372549%, 51.372549%)" fill-opacity="1" d="M 0 0 L 12 0 L 12 36.109375 L 0 36.109375 Z M 0 0 "/>
<path fill-rule="nonzero" fill="rgb(0%, 0%, 0%)" fill-opacity="1" d="M 5.976562 11.226562 C 3.070312 11.226562 0.707031 8.867188 0.707031 5.957031 C 0.707031 3.042969 3.070312 0.683594 5.976562 0.683594 C 8.886719 0.683594 11.246094 3.042969 11.246094 5.957031 C 11.246094 8.867188 8.886719 11.226562 5.976562 11.226562 Z M 5.976562 11.226562 "/>
<path fill-rule="evenodd" fill="rgb(100%, 100%, 100%)" fill-opacity="1" d="M 4.8125 2.628906 L 2.515625 8.789062 L 3.914062 8.789062 L 4.632812 7.078125 L 7.320312 7.078125 L 8.039062 8.789062 L 9.441406 8.789062 L 7.144531 2.628906 Z M 5.976562 3.886719 L 6.730469 5.679688 L 5.222656 5.679688 Z M 5.976562 3.886719 "/>
<path fill-rule="nonzero" fill="rgb(0%, 0%, 0%)" fill-opacity="1" d="M 11.246094 30.113281 C 11.246094 33.015625 8.902344 35.359375 6 35.359375 C 3.097656 35.359375 0.75 33.015625 0.75 30.113281 C 0.75 27.210938 3.097656 24.863281 6 24.863281 C 8.902344 24.863281 11.246094 27.210938 11.246094 30.113281 Z M 11.246094 30.113281 "/>
<path fill-rule="nonzero" fill="rgb(100%, 100%, 100%)" fill-opacity="1" d="M 2.210938 29.328125 L 3.371094 27.324219 L 10.035156 31.175781 L 8.882812 33.183594 Z M 2.210938 29.328125 "/>
<path fill-rule="nonzero" fill="rgb(0%, 0%, 0%)" fill-opacity="1" d="M 6 23.363281 C 3.097656 23.363281 0.75 21.015625 0.75 18.113281 C 0.75 15.210938 3.097656 12.863281 6 12.863281 C 8.902344 12.863281 11.246094 15.210938 11.246094 18.113281 C 11.246094 21.015625 8.902344 23.363281 6 23.363281 Z M 6 23.363281 "/>
</svg>
