<?xml version="1.0" encoding="UTF-8"?>
<svg xmlns="http://www.w3.org/2000/svg" xmlns:xlink="http://www.w3.org/1999/xlink" width="12" height="24" viewBox="0 0 12 24">
<rect x="-1.2" y="-2.4" width="14.4" height="28.8" fill="rgb(51.372549%, 51.372549%, 51.372549%)" fill-opacity="1"/>
<path fill-rule="nonzero" fill="rgb(0%, 0%, 0%)" fill-opacity="1" d="M 11.25 18 C 11.25 20.902344 8.902344 23.25 6 23.25 C 3.097656 23.25 0.75 20.902344 0.75 18 C 0.75 15.097656 3.097656 12.75 6 12.75 C 8.902344 12.75 11.25 15.097656 11.25 18 Z M 11.25 18 "/>
<path fill-rule="nonzero" fill="rgb(0%, 0%, 0%)" fill-opacity="1" d="M 6 11.25 C 3.097656 11.25 0.75 8.902344 0.75 6 C 0.75 3.097656 3.097656 0.75 6 0.75 C 8.902344 0.75 11.25 3.097656 11.25 6 C 11.25 8.902344 8.902344 11.25 6 11.25 Z M 6 11.25 "/>
<path fill-rule="nonzero" fill="rgb(100%, 100%, 100%)" fill-opacity="1" d="M 6.039062 22.167969 L 4.238281 19.046875 L 2.433594 15.917969 L 9.652344 15.917969 Z M 6.039062 22.167969 "/>
</svg>
