<?xml version="1.0" encoding="UTF-8"?>
<svg xmlns="http://www.w3.org/2000/svg" xmlns:xlink="http://www.w3.org/1999/xlink" width="15" height="30" viewBox="0 0 15 30">
<rect x="-1.5" y="-3" width="18" height="36" fill="rgb(51.372549%, 51.372549%, 51.372549%)" fill-opacity="1"/>
<path fill-rule="nonzero" fill="rgb(0%, 0%, 0%)" fill-opacity="1" d="M 14.0625 22.5 C 14.0625 26.128906 11.128906 29.0625 7.5 29.0625 C 3.871094 29.0625 0.9375 26.128906 0.9375 22.5 C 0.9375 18.871094 3.871094 15.9375 7.5 15.9375 C 11.128906 15.9375 14.0625 18.871094 14.0625 22.5 Z M 14.0625 22.5 "/>
<path fill-rule="nonzero" fill="rgb(0%, 0%, 0%)" fill-opacity="1" d="M 7.5 14.0625 C 3.871094 14.0625 0.9375 11.128906 0.9375 7.5 C 0.9375 3.871094 3.871094 0.9375 7.5 0.9375 C 11.128906 0.9375 14.0625 3.871094 14.0625 7.5 C 14.0625 11.128906 11.128906 14.0625 7.5 14.0625 Z M 7.5 14.0625 "/>
<path fill-rule="nonzero" fill="rgb(100%, 100%, 100%)" fill-opacity="1" d="M 7.546875 27.707031 L 5.296875 23.808594 L 3.042969 19.898438 L 12.066406 19.898438 Z M 7.546875 27.707031 "/>
</svg>
