<?xml version="1.0" encoding="UTF-8" standalone="no"?>
<svg
   width="22.254094"
   height="19"
   viewBox="0 0 22.254094 19"
   version="1.1"
   id="svg3"
   sodipodi:docname="g1a-{70}.svg"
   inkscape:version="1.4 (e7c3feb100, 2024-10-09)"
   xmlns:inkscape="http://www.inkscape.org/namespaces/inkscape"
   xmlns:sodipodi="http://sodipodi.sourceforge.net/DTD/sodipodi-0.dtd"
   xmlns="http://www.w3.org/2000/svg"
   xmlns:svg="http://www.w3.org/2000/svg">
  <defs
     id="defs3" />
  <sodipodi:namedview
     id="namedview3"
     pagecolor="#ffffff"
     bordercolor="#999999"
     borderopacity="1"
     inkscape:showpageshadow="0"
     inkscape:pageopacity="0"
     inkscape:pagecheckerboard="0"
     inkscape:deskcolor="#d1d1d1"
     inkscape:zoom="14.86785"
     inkscape:cx="-3.093924"
     inkscape:cy="12.812881"
     inkscape:window-width="1920"
     inkscape:window-height="1008"
     inkscape:window-x="1920"
     inkscape:window-y="0"
     inkscape:window-maximized="1"
     inkscape:current-layer="svg3" />
  <path
     fill-rule="nonzero"
     fill="rgb(100%, 84.705883%, 8.235294%)"
     fill-opacity="1"
     stroke-width="22.5"
     stroke-linecap="butt"
     stroke-linejoin="miter"
     stroke="rgb(100%, 100%, 100%)"
     stroke-opacity="1"
     stroke-miterlimit="4"
     d="M 164.736278 -115.128243 C 71.761771 -115.019245 -19.250789 -115.673228 -106.611947 -115.891222 C -63.503603 -39.920259 -15.708384 39.429613 27.454459 115.509574 Z M 164.736278 -115.128243 "
     transform="matrix(0.0716762, 0, 0, 0.0716762, 9.028262, 9.119146)"
     id="path1" />
  <path
     fill="none"
     stroke-width="8.040658"
     stroke-linecap="butt"
     stroke-linejoin="miter"
     stroke="rgb(0%, 0%, 0%)"
     stroke-opacity="1"
     stroke-miterlimit="4"
     d="M 165.444759 -115.782225 C 71.979765 -115.564231 -19.468783 -116.272712 -107.320428 -116.545205 C -63.99409 -40.083755 -15.926378 39.647608 27.454459 116.054559 Z M 165.444759 -115.782225 "
     transform="matrix(0.0716762, 0, 0, 0.0716762, 9.028262, 9.119146)"
     id="path2" />
  <path
     fill-rule="nonzero"
     fill="#000000"
     fill-opacity="1"
     d="M 9.1192341,3.054689 V 5.362217 H 10.14078 V 4.181465 h 1.96333 l -2.4787049,7.175601 1.0307489,0.01012 2.478705,-7.18572 V 3.064808 h -2.929658 v -0.01012 z m 0,0"
     id="path2-3"
     style="stroke-width:0.823555" />
</svg>
