<?xml version="1.0" encoding="UTF-8"?>
<svg xmlns="http://www.w3.org/2000/svg" xmlns:xlink="http://www.w3.org/1999/xlink" width="19" height="19" viewBox="0 0 19 19">
<path fill-rule="nonzero" fill="rgb(54.901963%, 54.901963%, 54.901963%)" fill-opacity="1" stroke-width="0.5" stroke-linecap="butt" stroke-linejoin="miter" stroke="rgb(0%, 0%, 0%)" stroke-opacity="1" stroke-miterlimit="4" d="M 9.251645 2.251234 L 40.748356 2.251234 L 40.748356 47.748767 L 9.251645 47.748767 Z M 9.251645 2.251234 " transform="matrix(0.38, 0, 0, 0.38, 0, 0)"/>
<path fill-rule="nonzero" fill="rgb(36.078432%, 36.078432%, 36.078432%)" fill-opacity="1" stroke-width="0.25" stroke-linecap="butt" stroke-linejoin="miter" stroke="rgb(0%, 0%, 0%)" stroke-opacity="1" stroke-miterlimit="4" d="M 20.014392 14.463405 C 20.014392 15.008224 19.562089 15.460527 19.00699 15.460527 C 18.462171 15.460527 18.009869 15.008224 18.009869 14.463405 C 18.009869 13.908306 18.462171 13.456003 19.00699 13.456003 C 19.562089 13.456003 20.014392 13.908306 20.014392 14.463405 Z M 20.014392 14.463405 " transform="matrix(0.38, 0, 0, 0.38, 0, 0)"/>
<path fill-rule="nonzero" fill="rgb(100%, 100%, 100%)" fill-opacity="1" stroke-width="0.25" stroke-linecap="butt" stroke-linejoin="miter" stroke="rgb(0%, 0%, 0%)" stroke-opacity="1" stroke-miterlimit="4" d="M 23.005757 14.463405 C 23.005757 15.008224 22.553454 15.460527 22.008635 15.460527 C 21.453536 15.460527 21.001234 15.008224 21.001234 14.463405 C 21.001234 13.908306 21.453536 13.456003 22.008635 13.456003 C 22.553454 13.456003 23.005757 13.908306 23.005757 14.463405 Z M 23.005757 14.463405 " transform="matrix(0.38, 0, 0, 0.38, 0, 0)"/>
<path fill-rule="nonzero" fill="rgb(36.078432%, 36.078432%, 36.078432%)" fill-opacity="1" stroke-width="0.25" stroke-linecap="butt" stroke-linejoin="miter" stroke="rgb(0%, 0%, 0%)" stroke-opacity="1" stroke-miterlimit="4" d="M 31.990132 14.463405 C 31.990132 15.008224 31.537829 15.460527 30.99301 15.460527 C 30.437912 15.460527 29.985609 15.008224 29.985609 14.463405 C 29.985609 13.908306 30.437912 13.456003 30.99301 13.456003 C 31.537829 13.456003 31.990132 13.908306 31.990132 14.463405 Z M 31.990132 14.463405 " transform="matrix(0.38, 0, 0, 0.38, 0, 0)"/>
<path fill-rule="nonzero" fill="rgb(36.078432%, 36.078432%, 36.078432%)" fill-opacity="1" stroke-width="0.25" stroke-linecap="butt" stroke-linejoin="miter" stroke="rgb(0%, 0%, 0%)" stroke-opacity="1" stroke-miterlimit="4" d="M 20.011583 14.463829 C 20.011583 15.008648 19.55928 15.460951 19.014461 15.460951 C 18.459363 15.460951 18.00706 15.008648 18.00706 14.463829 C 18.00706 13.908731 18.459363 13.456428 19.014461 13.456428 C 19.55928 13.456428 20.011583 13.908731 20.011583 14.463829 Z M 20.011583 14.463829 " transform="matrix(0.38, 0, 0, 0.38, 1.137786, 1.14437)"/>
<path fill-rule="nonzero" fill="rgb(36.078432%, 36.078432%, 36.078432%)" fill-opacity="1" stroke-width="0.25" stroke-linecap="butt" stroke-linejoin="miter" stroke="rgb(0%, 0%, 0%)" stroke-opacity="1" stroke-miterlimit="4" d="M 20.008774 14.463829 C 20.008774 15.008648 19.566751 15.460951 19.011653 15.460951 C 18.456554 15.460951 18.014531 15.008648 18.014531 14.463829 C 18.014531 13.908731 18.456554 13.456428 19.011653 13.456428 C 19.566751 13.456428 20.008774 13.908731 20.008774 14.463829 Z M 20.008774 14.463829 " transform="matrix(0.38, 0, 0, 0.38, 2.275572, 1.14437)"/>
<path fill-rule="nonzero" fill="rgb(36.078432%, 36.078432%, 36.078432%)" fill-opacity="1" stroke-width="0.25" stroke-linecap="butt" stroke-linejoin="miter" stroke="rgb(0%, 0%, 0%)" stroke-opacity="1" stroke-miterlimit="4" d="M 20.016246 14.463829 C 20.016246 15.008648 19.563943 15.460951 19.008844 15.460951 C 18.464025 15.460951 18.011723 15.008648 18.011723 14.463829 C 18.011723 13.908731 18.464025 13.456428 19.008844 13.456428 C 19.563943 13.456428 20.016246 13.908731 20.016246 14.463829 Z M 20.016246 14.463829 " transform="matrix(0.38, 0, 0, 0.38, 3.413358, 1.14437)"/>
<path fill-rule="nonzero" fill="rgb(100%, 100%, 100%)" fill-opacity="1" stroke-width="0.25" stroke-linecap="butt" stroke-linejoin="miter" stroke="rgb(0%, 0%, 0%)" stroke-opacity="1" stroke-miterlimit="4" d="M 20.014392 14.464251 C 20.014392 15.00907 19.562089 15.461372 19.00699 15.461372 C 18.462171 15.461372 18.009869 15.00907 18.009869 14.464251 C 18.009869 13.909152 18.462171 13.456849 19.00699 13.456849 C 19.562089 13.456849 20.014392 13.909152 20.014392 14.464251 Z M 20.014392 14.464251 " transform="matrix(0.38, 0, 0, 0.38, 0, 2.288741)"/>
<path fill-rule="nonzero" fill="rgb(36.078432%, 36.078432%, 36.078432%)" fill-opacity="1" stroke-width="0.25" stroke-linecap="butt" stroke-linejoin="miter" stroke="rgb(0%, 0%, 0%)" stroke-opacity="1" stroke-miterlimit="4" d="M 20.011583 14.464251 C 20.011583 15.00907 19.55928 15.461372 19.014461 15.461372 C 18.459363 15.461372 18.00706 15.00907 18.00706 14.464251 C 18.00706 13.909152 18.459363 13.456849 19.014461 13.456849 C 19.55928 13.456849 20.011583 13.909152 20.011583 14.464251 Z M 20.011583 14.464251 " transform="matrix(0.38, 0, 0, 0.38, 1.137786, 2.288741)"/>
<path fill-rule="nonzero" fill="rgb(36.078432%, 36.078432%, 36.078432%)" fill-opacity="1" stroke-width="0.25" stroke-linecap="butt" stroke-linejoin="miter" stroke="rgb(0%, 0%, 0%)" stroke-opacity="1" stroke-miterlimit="4" d="M 20.008774 14.464251 C 20.008774 15.00907 19.566751 15.461372 19.011653 15.461372 C 18.456554 15.461372 18.014531 15.00907 18.014531 14.464251 C 18.014531 13.909152 18.456554 13.456849 19.011653 13.456849 C 19.566751 13.456849 20.008774 13.909152 20.008774 14.464251 Z M 20.008774 14.464251 " transform="matrix(0.38, 0, 0, 0.38, 2.275572, 2.288741)"/>
<path fill-rule="nonzero" fill="rgb(36.078432%, 36.078432%, 36.078432%)" fill-opacity="1" stroke-width="0.25" stroke-linecap="butt" stroke-linejoin="miter" stroke="rgb(0%, 0%, 0%)" stroke-opacity="1" stroke-miterlimit="4" d="M 20.016246 14.464251 C 20.016246 15.00907 19.563943 15.461372 19.008844 15.461372 C 18.464025 15.461372 18.011723 15.00907 18.011723 14.464251 C 18.011723 13.909152 18.464025 13.456849 19.008844 13.456849 C 19.563943 13.456849 20.016246 13.909152 20.016246 14.464251 Z M 20.016246 14.464251 " transform="matrix(0.38, 0, 0, 0.38, 3.413358, 2.288741)"/>
<path fill-rule="nonzero" fill="rgb(36.078432%, 36.078432%, 36.078432%)" fill-opacity="1" stroke-width="0.25" stroke-linecap="butt" stroke-linejoin="miter" stroke="rgb(0%, 0%, 0%)" stroke-opacity="1" stroke-miterlimit="4" d="M 20.013437 14.464678 C 20.013437 15.009497 19.561134 15.4618 19.016315 15.4618 C 18.461216 15.4618 18.008914 15.009497 18.008914 14.464678 C 18.008914 13.909579 18.461216 13.457276 19.016315 13.457276 C 19.561134 13.457276 20.013437 13.909579 20.013437 14.464678 Z M 20.013437 14.464678 " transform="matrix(0.38, 0, 0, 0.38, 4.551144, 3.43311)"/>
<path fill-rule="nonzero" fill="rgb(100%, 100%, 100%)" fill-opacity="1" stroke-width="0.25" stroke-linecap="butt" stroke-linejoin="miter" stroke="rgb(0%, 0%, 0%)" stroke-opacity="1" stroke-miterlimit="4" d="M 20.011583 14.464678 C 20.011583 15.009497 19.55928 15.4618 19.014461 15.4618 C 18.459363 15.4618 18.00706 15.009497 18.00706 14.464678 C 18.00706 13.909579 18.459363 13.457276 19.014461 13.457276 C 19.55928 13.457276 20.011583 13.909579 20.011583 14.464678 Z M 20.011583 14.464678 " transform="matrix(0.38, 0, 0, 0.38, 1.137786, 3.43311)"/>
<path fill-rule="nonzero" fill="rgb(100%, 100%, 100%)" fill-opacity="1" stroke-width="0.25" stroke-linecap="butt" stroke-linejoin="miter" stroke="rgb(0%, 0%, 0%)" stroke-opacity="1" stroke-miterlimit="4" d="M 20.014392 14.464678 C 20.014392 15.009497 19.562089 15.4618 19.00699 15.4618 C 18.462171 15.4618 18.009869 15.009497 18.009869 14.464678 C 18.009869 13.909579 18.462171 13.457276 19.00699 13.457276 C 19.562089 13.457276 20.014392 13.909579 20.014392 14.464678 Z M 20.014392 14.464678 " transform="matrix(0.38, 0, 0, 0.38, 0, 3.43311)"/>
<path fill-rule="nonzero" fill="rgb(36.078432%, 36.078432%, 36.078432%)" fill-opacity="1" stroke-width="0.25" stroke-linecap="butt" stroke-linejoin="miter" stroke="rgb(0%, 0%, 0%)" stroke-opacity="1" stroke-miterlimit="4" d="M 20.016246 14.454817 C 20.016246 15.009915 19.563943 15.462218 19.008844 15.462218 C 18.464025 15.462218 18.011723 15.009915 18.011723 14.454817 C 18.011723 13.909998 18.464025 13.457695 19.008844 13.457695 C 19.563943 13.457695 20.016246 13.909998 20.016246 14.454817 Z M 20.016246 14.454817 " transform="matrix(0.38, 0, 0, 0.38, 3.413358, 4.577482)"/>
<path fill-rule="nonzero" fill="rgb(36.078432%, 36.078432%, 36.078432%)" fill-opacity="1" stroke-width="0.25" stroke-linecap="butt" stroke-linejoin="miter" stroke="rgb(0%, 0%, 0%)" stroke-opacity="1" stroke-miterlimit="4" d="M 20.008774 14.454817 C 20.008774 15.009915 19.566751 15.462218 19.011653 15.462218 C 18.456554 15.462218 18.014531 15.009915 18.014531 14.454817 C 18.014531 13.909998 18.456554 13.457695 19.011653 13.457695 C 19.566751 13.457695 20.008774 13.909998 20.008774 14.454817 Z M 20.008774 14.454817 " transform="matrix(0.38, 0, 0, 0.38, 2.275572, 4.577482)"/>
<path fill-rule="nonzero" fill="rgb(36.078432%, 36.078432%, 36.078432%)" fill-opacity="1" stroke-width="0.25" stroke-linecap="butt" stroke-linejoin="miter" stroke="rgb(0%, 0%, 0%)" stroke-opacity="1" stroke-miterlimit="4" d="M 20.011583 14.454817 C 20.011583 15.009915 19.55928 15.462218 19.014461 15.462218 C 18.459363 15.462218 18.00706 15.009915 18.00706 14.454817 C 18.00706 13.909998 18.459363 13.457695 19.014461 13.457695 C 19.55928 13.457695 20.011583 13.909998 20.011583 14.454817 Z M 20.011583 14.454817 " transform="matrix(0.38, 0, 0, 0.38, 1.137786, 4.577482)"/>
<path fill-rule="nonzero" fill="rgb(100%, 100%, 100%)" fill-opacity="1" stroke-width="0.25" stroke-linecap="butt" stroke-linejoin="miter" stroke="rgb(0%, 0%, 0%)" stroke-opacity="1" stroke-miterlimit="4" d="M 20.014392 14.454817 C 20.014392 15.009915 19.562089 15.462218 19.00699 15.462218 C 18.462171 15.462218 18.009869 15.009915 18.009869 14.454817 C 18.009869 13.909998 18.462171 13.457695 19.00699 13.457695 C 19.562089 13.457695 20.014392 13.909998 20.014392 14.454817 Z M 20.014392 14.454817 " transform="matrix(0.38, 0, 0, 0.38, 0, 4.577482)"/>
<path fill-rule="nonzero" fill="rgb(36.078432%, 36.078432%, 36.078432%)" fill-opacity="1" stroke-width="0.25" stroke-linecap="butt" stroke-linejoin="miter" stroke="rgb(0%, 0%, 0%)" stroke-opacity="1" stroke-miterlimit="4" d="M 20.011583 14.455245 C 20.011583 15.010343 19.55928 15.462646 19.014461 15.462646 C 18.459363 15.462646 18.00706 15.010343 18.00706 14.455245 C 18.00706 13.910426 18.459363 13.458123 19.014461 13.458123 C 19.55928 13.458123 20.011583 13.910426 20.011583 14.455245 Z M 20.011583 14.455245 " transform="matrix(0.38, 0, 0, 0.38, 1.137786, 5.721851)"/>
<path fill-rule="nonzero" fill="rgb(36.078432%, 36.078432%, 36.078432%)" fill-opacity="1" stroke-width="0.25" stroke-linecap="butt" stroke-linejoin="miter" stroke="rgb(0%, 0%, 0%)" stroke-opacity="1" stroke-miterlimit="4" d="M 20.008774 14.455245 C 20.008774 15.010343 19.566751 15.462646 19.011653 15.462646 C 18.456554 15.462646 18.014531 15.010343 18.014531 14.455245 C 18.014531 13.910426 18.456554 13.458123 19.011653 13.458123 C 19.566751 13.458123 20.008774 13.910426 20.008774 14.455245 Z M 20.008774 14.455245 " transform="matrix(0.38, 0, 0, 0.38, 2.275572, 5.721851)"/>
<path fill-rule="nonzero" fill="rgb(36.078432%, 36.078432%, 36.078432%)" fill-opacity="1" stroke-width="0.25" stroke-linecap="butt" stroke-linejoin="miter" stroke="rgb(0%, 0%, 0%)" stroke-opacity="1" stroke-miterlimit="4" d="M 20.016246 14.455245 C 20.016246 15.010343 19.563943 15.462646 19.008844 15.462646 C 18.464025 15.462646 18.011723 15.010343 18.011723 14.455245 C 18.011723 13.910426 18.464025 13.458123 19.008844 13.458123 C 19.563943 13.458123 20.016246 13.910426 20.016246 14.455245 Z M 20.016246 14.455245 " transform="matrix(0.38, 0, 0, 0.38, 3.413358, 5.721851)"/>
<path fill-rule="nonzero" fill="rgb(36.078432%, 36.078432%, 36.078432%)" fill-opacity="1" stroke-width="0.25" stroke-linecap="butt" stroke-linejoin="miter" stroke="rgb(0%, 0%, 0%)" stroke-opacity="1" stroke-miterlimit="4" d="M 20.011583 14.455666 C 20.011583 15.010765 19.55928 15.463068 19.014461 15.463068 C 18.459363 15.463068 18.00706 15.010765 18.00706 14.455666 C 18.00706 13.910847 18.459363 13.458544 19.014461 13.458544 C 19.55928 13.458544 20.011583 13.910847 20.011583 14.455666 Z M 20.011583 14.455666 " transform="matrix(0.38, 0, 0, 0.38, 1.137786, 6.866222)"/>
<path fill-rule="nonzero" fill="rgb(36.078432%, 36.078432%, 36.078432%)" fill-opacity="1" stroke-width="0.25" stroke-linecap="butt" stroke-linejoin="miter" stroke="rgb(0%, 0%, 0%)" stroke-opacity="1" stroke-miterlimit="4" d="M 20.008774 14.455666 C 20.008774 15.010765 19.566751 15.463068 19.011653 15.463068 C 18.456554 15.463068 18.014531 15.010765 18.014531 14.455666 C 18.014531 13.910847 18.456554 13.458544 19.011653 13.458544 C 19.566751 13.458544 20.008774 13.910847 20.008774 14.455666 Z M 20.008774 14.455666 " transform="matrix(0.38, 0, 0, 0.38, 2.275572, 6.866222)"/>
<path fill-rule="nonzero" fill="rgb(36.078432%, 36.078432%, 36.078432%)" fill-opacity="1" stroke-width="0.25" stroke-linecap="butt" stroke-linejoin="miter" stroke="rgb(0%, 0%, 0%)" stroke-opacity="1" stroke-miterlimit="4" d="M 20.016246 14.455666 C 20.016246 15.010765 19.563943 15.463068 19.008844 15.463068 C 18.464025 15.463068 18.011723 15.010765 18.011723 14.455666 C 18.011723 13.910847 18.464025 13.458544 19.008844 13.458544 C 19.563943 13.458544 20.016246 13.910847 20.016246 14.455666 Z M 20.016246 14.455666 " transform="matrix(0.38, 0, 0, 0.38, 3.413358, 6.866222)"/>
<path fill-rule="nonzero" fill="rgb(36.078432%, 36.078432%, 36.078432%)" fill-opacity="1" stroke-width="0.25" stroke-linecap="butt" stroke-linejoin="miter" stroke="rgb(0%, 0%, 0%)" stroke-opacity="1" stroke-miterlimit="4" d="M 20.014392 14.456087 C 20.014392 15.011185 19.562089 15.463488 19.00699 15.463488 C 18.462171 15.463488 18.009869 15.011185 18.009869 14.456087 C 18.009869 13.911268 18.462171 13.458965 19.00699 13.458965 C 19.562089 13.458965 20.014392 13.911268 20.014392 14.456087 Z M 20.014392 14.456087 " transform="matrix(0.38, 0, 0, 0.38, 0, 8.010593)"/>
<path fill-rule="nonzero" fill="rgb(36.078432%, 36.078432%, 36.078432%)" fill-opacity="1" stroke-width="0.25" stroke-linecap="butt" stroke-linejoin="miter" stroke="rgb(0%, 0%, 0%)" stroke-opacity="1" stroke-miterlimit="4" d="M 20.013437 14.456087 C 20.013437 15.011185 19.561134 15.463488 19.016315 15.463488 C 18.461216 15.463488 18.008914 15.011185 18.008914 14.456087 C 18.008914 13.911268 18.461216 13.458965 19.016315 13.458965 C 19.561134 13.458965 20.013437 13.911268 20.013437 14.456087 Z M 20.013437 14.456087 " transform="matrix(0.38, 0, 0, 0.38, 4.551144, 8.010593)"/>
<path fill-rule="nonzero" fill="rgb(100%, 100%, 100%)" fill-opacity="1" stroke-width="0.25" stroke-linecap="butt" stroke-linejoin="miter" stroke="rgb(0%, 0%, 0%)" stroke-opacity="1" stroke-miterlimit="4" d="M 23.002951 14.463405 C 23.002951 15.008224 22.560928 15.460527 22.005829 15.460527 C 21.450731 15.460527 21.008708 15.008224 21.008708 14.463405 C 21.008708 13.908306 21.450731 13.456003 22.005829 13.456003 C 22.560928 13.456003 23.002951 13.908306 23.002951 14.463405 Z M 23.002951 14.463405 " transform="matrix(0.38, 0, 0, 0.38, 1.137785, 0)"/>
<path fill-rule="nonzero" fill="rgb(100%, 100%, 100%)" fill-opacity="1" stroke-width="0.25" stroke-linecap="butt" stroke-linejoin="miter" stroke="rgb(0%, 0%, 0%)" stroke-opacity="1" stroke-miterlimit="4" d="M 23.010419 14.463405 C 23.010419 15.008224 22.558117 15.460527 22.003018 15.460527 C 21.458199 15.460527 21.005896 15.008224 21.005896 14.463405 C 21.005896 13.908306 21.458199 13.456003 22.003018 13.456003 C 22.558117 13.456003 23.010419 13.908306 23.010419 14.463405 Z M 23.010419 14.463405 " transform="matrix(0.38, 0, 0, 0.38, 2.275572, 0)"/>
<path fill-rule="nonzero" fill="rgb(100%, 100%, 100%)" fill-opacity="1" stroke-width="0.25" stroke-linecap="butt" stroke-linejoin="miter" stroke="rgb(0%, 0%, 0%)" stroke-opacity="1" stroke-miterlimit="4" d="M 23.008566 14.463829 C 23.008566 15.008648 22.556263 15.460951 22.001164 15.460951 C 21.456345 15.460951 21.004042 15.008648 21.004042 14.463829 C 21.004042 13.908731 21.456345 13.456428 22.001164 13.456428 C 22.556263 13.456428 23.008566 13.908731 23.008566 14.463829 Z M 23.008566 14.463829 " transform="matrix(0.38, 0, 0, 0.38, -1.137786, 1.14437)"/>
<path fill-rule="nonzero" fill="rgb(100%, 100%, 100%)" fill-opacity="1" stroke-width="0.25" stroke-linecap="butt" stroke-linejoin="miter" stroke="rgb(0%, 0%, 0%)" stroke-opacity="1" stroke-miterlimit="4" d="M 23.007611 14.463829 C 23.007611 15.008648 22.555308 15.460951 22.010489 15.460951 C 21.45539 15.460951 21.003088 15.008648 21.003088 14.463829 C 21.003088 13.908731 21.45539 13.456428 22.010489 13.456428 C 22.555308 13.456428 23.007611 13.908731 23.007611 14.463829 Z M 23.007611 14.463829 " transform="matrix(0.38, 0, 0, 0.38, 3.413358, 1.14437)"/>
<path fill-rule="nonzero" fill="rgb(36.078432%, 36.078432%, 36.078432%)" fill-opacity="1" stroke-width="0.25" stroke-linecap="butt" stroke-linejoin="miter" stroke="rgb(0%, 0%, 0%)" stroke-opacity="1" stroke-miterlimit="4" d="M 23.007611 14.464251 C 23.007611 15.00907 22.555308 15.461372 22.010489 15.461372 C 21.45539 15.461372 21.003088 15.00907 21.003088 14.464251 C 21.003088 13.909152 21.45539 13.456849 22.010489 13.456849 C 22.555308 13.456849 23.007611 13.909152 23.007611 14.464251 Z M 23.007611 14.464251 " transform="matrix(0.38, 0, 0, 0.38, 3.413358, 2.288741)"/>
<path fill-rule="nonzero" fill="rgb(100%, 100%, 100%)" fill-opacity="1" stroke-width="0.25" stroke-linecap="butt" stroke-linejoin="miter" stroke="rgb(0%, 0%, 0%)" stroke-opacity="1" stroke-miterlimit="4" d="M 23.002948 14.464678 C 23.002948 15.009497 22.560925 15.4618 22.005827 15.4618 C 21.450728 15.4618 21.008705 15.009497 21.008705 14.464678 C 21.008705 13.909579 21.450728 13.457276 22.005827 13.457276 C 22.560925 13.457276 23.002948 13.909579 23.002948 14.464678 Z M 23.002948 14.464678 " transform="matrix(0.38, 0, 0, 0.38, 1.137786, 3.43311)"/>
<path fill-rule="nonzero" fill="rgb(100%, 100%, 100%)" fill-opacity="1" stroke-width="0.25" stroke-linecap="butt" stroke-linejoin="miter" stroke="rgb(0%, 0%, 0%)" stroke-opacity="1" stroke-miterlimit="4" d="M 23.010419 14.464678 C 23.010419 15.009497 22.558117 15.4618 22.003018 15.4618 C 21.458199 15.4618 21.005896 15.009497 21.005896 14.464678 C 21.005896 13.909579 21.458199 13.457276 22.003018 13.457276 C 22.558117 13.457276 23.010419 13.909579 23.010419 14.464678 Z M 23.010419 14.464678 " transform="matrix(0.38, 0, 0, 0.38, 2.275572, 3.43311)"/>
<path fill-rule="nonzero" fill="rgb(100%, 100%, 100%)" fill-opacity="1" stroke-width="0.25" stroke-linecap="butt" stroke-linejoin="miter" stroke="rgb(0%, 0%, 0%)" stroke-opacity="1" stroke-miterlimit="4" d="M 23.007611 14.454817 C 23.007611 15.009915 22.555308 15.462218 22.010489 15.462218 C 21.45539 15.462218 21.003088 15.009915 21.003088 14.454817 C 21.003088 13.909998 21.45539 13.457695 22.010489 13.457695 C 22.555308 13.457695 23.007611 13.909998 23.007611 14.454817 Z M 23.007611 14.454817 " transform="matrix(0.38, 0, 0, 0.38, 3.413358, 4.577482)"/>
<path fill-rule="nonzero" fill="rgb(100%, 100%, 100%)" fill-opacity="1" stroke-width="0.25" stroke-linecap="butt" stroke-linejoin="miter" stroke="rgb(0%, 0%, 0%)" stroke-opacity="1" stroke-miterlimit="4" d="M 23.007611 14.455245 C 23.007611 15.010343 22.555308 15.462646 22.010489 15.462646 C 21.45539 15.462646 21.003088 15.010343 21.003088 14.455245 C 21.003088 13.910426 21.45539 13.458123 22.010489 13.458123 C 22.555308 13.458123 23.007611 13.910426 23.007611 14.455245 Z M 23.007611 14.455245 " transform="matrix(0.38, 0, 0, 0.38, 3.413358, 5.721851)"/>
<path fill-rule="nonzero" fill="rgb(100%, 100%, 100%)" fill-opacity="1" stroke-width="0.25" stroke-linecap="butt" stroke-linejoin="miter" stroke="rgb(0%, 0%, 0%)" stroke-opacity="1" stroke-miterlimit="4" d="M 23.007611 14.455666 C 23.007611 15.010765 22.555308 15.463068 22.010489 15.463068 C 21.45539 15.463068 21.003088 15.010765 21.003088 14.455666 C 21.003088 13.910847 21.45539 13.458544 22.010489 13.458544 C 22.555308 13.458544 23.007611 13.910847 23.007611 14.455666 Z M 23.007611 14.455666 " transform="matrix(0.38, 0, 0, 0.38, 3.413358, 6.866222)"/>
<path fill-rule="nonzero" fill="rgb(100%, 100%, 100%)" fill-opacity="1" stroke-width="0.25" stroke-linecap="butt" stroke-linejoin="miter" stroke="rgb(0%, 0%, 0%)" stroke-opacity="1" stroke-miterlimit="4" d="M 23.010419 14.456087 C 23.010419 15.011185 22.558117 15.463488 22.003018 15.463488 C 21.458199 15.463488 21.005896 15.011185 21.005896 14.456087 C 21.005896 13.911268 21.458199 13.458965 22.003018 13.458965 C 22.558117 13.458965 23.010419 13.911268 23.010419 14.456087 Z M 23.010419 14.456087 " transform="matrix(0.38, 0, 0, 0.38, 2.275572, 8.010593)"/>
<path fill-rule="nonzero" fill="rgb(100%, 100%, 100%)" fill-opacity="1" stroke-width="0.25" stroke-linecap="butt" stroke-linejoin="miter" stroke="rgb(0%, 0%, 0%)" stroke-opacity="1" stroke-miterlimit="4" d="M 23.002948 14.456087 C 23.002948 15.011185 22.560925 15.463488 22.005827 15.463488 C 21.450728 15.463488 21.008705 15.011185 21.008705 14.456087 C 21.008705 13.911268 21.450728 13.458965 22.005827 13.458965 C 22.560925 13.458965 23.002948 13.911268 23.002948 14.456087 Z M 23.002948 14.456087 " transform="matrix(0.38, 0, 0, 0.38, 1.137786, 8.010593)"/>
<path fill-rule="nonzero" fill="rgb(100%, 100%, 100%)" fill-opacity="1" stroke-width="0.25" stroke-linecap="butt" stroke-linejoin="miter" stroke="rgb(0%, 0%, 0%)" stroke-opacity="1" stroke-miterlimit="4" d="M 23.005758 14.456087 C 23.005758 15.011185 22.553455 15.463488 22.008636 15.463488 C 21.453537 15.463488 21.001235 15.011185 21.001235 14.456087 C 21.001235 13.911268 21.453537 13.458965 22.008636 13.458965 C 22.553455 13.458965 23.005758 13.911268 23.005758 14.456087 Z M 23.005758 14.456087 " transform="matrix(0.38, 0, 0, 0.38, -0.000000340979, 8.010593)"/>
<path fill-rule="nonzero" fill="rgb(100%, 100%, 100%)" fill-opacity="1" stroke-width="0.25" stroke-linecap="butt" stroke-linejoin="miter" stroke="rgb(0%, 0%, 0%)" stroke-opacity="1" stroke-miterlimit="4" d="M 23.008566 14.455666 C 23.008566 15.010765 22.556263 15.463068 22.001164 15.463068 C 21.456345 15.463068 21.004042 15.010765 21.004042 14.455666 C 21.004042 13.910847 21.456345 13.458544 22.001164 13.458544 C 22.556263 13.458544 23.008566 13.910847 23.008566 14.455666 Z M 23.008566 14.455666 " transform="matrix(0.38, 0, 0, 0.38, -1.137786, 6.866222)"/>
<path fill-rule="nonzero" fill="rgb(100%, 100%, 100%)" fill-opacity="1" stroke-width="0.25" stroke-linecap="butt" stroke-linejoin="miter" stroke="rgb(0%, 0%, 0%)" stroke-opacity="1" stroke-miterlimit="4" d="M 23.008566 14.455245 C 23.008566 15.010343 22.556263 15.462646 22.001164 15.462646 C 21.456345 15.462646 21.004042 15.010343 21.004042 14.455245 C 21.004042 13.910426 21.456345 13.458123 22.001164 13.458123 C 22.556263 13.458123 23.008566 13.910426 23.008566 14.455245 Z M 23.008566 14.455245 " transform="matrix(0.38, 0, 0, 0.38, -1.137786, 5.721851)"/>
</svg>
