<?xml version="1.0" encoding="UTF-8"?>
<svg xmlns="http://www.w3.org/2000/svg" xmlns:xlink="http://www.w3.org/1999/xlink" width="12.908434" height="19" viewBox="0 0 12.908434 19">
<path fill-rule="nonzero" fill="rgb(100%, 100%, 100%)" fill-opacity="1" stroke-width="8.48" stroke-linecap="round" stroke-linejoin="round" stroke="rgb(0%, 0%, 0%)" stroke-opacity="1" stroke-miterlimit="4" d="M -39.511425 -101.147419 L 111.022573 -101.147419 L 111.022573 121.261464 L -39.511425 121.261464 Z M -39.511425 -101.147419 " transform="matrix(0.0823371, 0, 0, 0.0823371, 3.534506, 8.64459)"/>
<path fill-rule="nonzero" fill="rgb(0%, 0%, 0%)" fill-opacity="1" d="M 8.179688 3.878906 C 7.011719 3.886719 5.839844 4.6875 5.839844 6.257812 L 5.820312 6.257812 L 5.820312 12.753906 L 5.839844 12.753906 C 5.863281 15.929688 10.519531 15.894531 10.519531 12.753906 L 10.535156 12.753906 L 10.535156 6.257812 L 10.519531 6.257812 C 10.519531 4.660156 9.347656 3.871094 8.179688 3.878906 Z M 8.175781 5.292969 C 8.671875 5.289062 9.171875 5.609375 9.171875 6.257812 L 9.164062 6.257812 L 9.164062 12.753906 L 9.171875 12.753906 C 9.171875 14.03125 7.195312 14.03125 7.195312 12.726562 L 7.195312 6.257812 L 7.1875 6.257812 C 7.1875 5.621094 7.683594 5.296875 8.175781 5.292969 Z M 8.175781 5.292969 "/>
<path fill-rule="nonzero" fill="rgb(0%, 0%, 0%)" fill-opacity="1" d="M 3.632812 6.011719 L 2.371094 7.113281 L 2.371094 4.988281 L 3.625 3.878906 L 5 3.878906 L 5 15.121094 L 3.621094 15.121094 Z M 3.632812 6.011719 "/>
</svg>
