<?xml version="1.0" encoding="UTF-8"?>
<svg xmlns="http://www.w3.org/2000/svg" xmlns:xlink="http://www.w3.org/1999/xlink" width="12.908434" height="19" viewBox="0 0 12.908434 19">
<path fill-rule="nonzero" fill="rgb(100%, 100%, 100%)" fill-opacity="1" stroke-width="8.48" stroke-linecap="round" stroke-linejoin="round" stroke="rgb(0%, 0%, 0%)" stroke-opacity="1" stroke-miterlimit="4" d="M -39.511425 -101.147419 L 111.022573 -101.147419 L 111.022573 121.261464 L -39.511425 121.261464 Z M -39.511425 -101.147419 " transform="matrix(0.0823371, 0, 0, 0.0823371, 3.534506, 8.64459)"/>
<path fill-rule="nonzero" fill="rgb(0%, 0%, 0%)" fill-opacity="1" d="M 8.914062 3.273438 L 8.914062 6.234375 L 9.691406 6.234375 C 9.691406 5.996094 9.929688 5.925781 10.113281 5.925781 C 10.351562 5.925781 10.558594 6.070312 10.558594 6.277344 L 10.550781 7.449219 C 10.550781 7.796875 10.433594 8.078125 10.125 8.078125 C 9.808594 8.078125 9.675781 7.867188 9.675781 7.449219 L 8.914062 7.449219 C 8.914062 8.1875 9.238281 8.863281 10.125 8.863281 C 10.851562 8.863281 11.332031 8.351562 11.332031 7.726562 C 11.332031 7.234375 11.335938 6.742188 11.332031 6.246094 C 11.316406 5.601562 10.90625 5.261719 10.433594 5.246094 C 10.183594 5.246094 9.882812 5.367188 9.691406 5.53125 L 9.691406 4.015625 L 11.332031 4.015625 L 11.332031 3.277344 L 9.539062 3.277344 L 9.539062 3.273438 Z M 8.914062 3.273438 "/>
<path fill-rule="nonzero" fill="rgb(0%, 0%, 0%)" fill-opacity="1" d="M 2.355469 3.730469 L 2.355469 9.929688 L 3.871094 9.929688 L 3.871094 9.875 C 4.058594 9.261719 4.613281 8.835938 5.257812 8.832031 C 6.03125 8.835938 6.667969 9.441406 6.710938 10.214844 L 6.6875 12.3125 C 6.621094 13.066406 6.042969 13.648438 5.28125 13.652344 C 4.519531 13.648438 3.890625 13.066406 3.828125 12.3125 L 2.359375 12.3125 C 2.367188 13.921875 3.675781 15.214844 5.28125 15.214844 C 6.886719 15.214844 8.183594 13.929688 8.207031 12.328125 L 8.207031 10.214844 L 8.203125 10.214844 C 8.207031 10.148438 8.214844 10.078125 8.214844 10.011719 C 8.214844 8.519531 7.007812 7.316406 5.511719 7.316406 C 4.894531 7.316406 4.324219 7.519531 3.871094 7.871094 L 3.871094 5.261719 L 7.980469 5.261719 L 7.980469 3.738281 L 3.871094 3.738281 L 3.871094 3.730469 Z M 2.355469 3.730469 "/>
</svg>
