<?xml version="1.0" encoding="UTF-8"?>
<svg xmlns="http://www.w3.org/2000/svg" xmlns:xlink="http://www.w3.org/1999/xlink" width="12.908434" height="19" viewBox="0 0 12.908434 19">
<path fill-rule="nonzero" fill="rgb(100%, 100%, 100%)" fill-opacity="1" stroke-width="8.48" stroke-linecap="round" stroke-linejoin="round" stroke="rgb(0%, 0%, 0%)" stroke-opacity="1" stroke-miterlimit="4" d="M -39.511425 -101.147419 L 111.022573 -101.147419 L 111.022573 121.261464 L -39.511425 121.261464 Z M -39.511425 -101.147419 " transform="matrix(0.0823371, 0, 0, 0.0823371, 3.534506, 8.64459)"/>
<path fill-rule="nonzero" fill="rgb(0%, 0%, 0%)" fill-opacity="1" d="M 6.480469 3.878906 C 5.109375 3.878906 4.109375 4.796875 4.089844 6.269531 C 4.085938 6.269531 4.085938 6.269531 4.085938 6.269531 L 4.085938 7.523438 C 4.085938 8.078125 4.328125 8.730469 4.785156 9.179688 C 4.328125 9.628906 4.085938 10.257812 4.085938 10.808594 L 4.089844 12.734375 C 4.089844 14.199219 5.109375 15.121094 6.480469 15.121094 C 7.753906 15.121094 8.820312 14.222656 8.820312 12.734375 L 8.820312 10.808594 C 8.820312 10.257812 8.523438 9.535156 8.117188 9.171875 C 8.613281 8.695312 8.820312 8.058594 8.820312 7.503906 L 8.820312 6.269531 C 8.820312 4.777344 7.753906 3.878906 6.480469 3.878906 Z M 6.429688 5.292969 C 7.003906 5.289062 7.445312 5.648438 7.445312 6.234375 L 7.445312 7.480469 C 7.445312 7.984375 7.078125 8.488281 6.453125 8.488281 C 5.828125 8.488281 5.457031 7.984375 5.457031 7.480469 L 5.460938 6.214844 C 5.460938 5.636719 5.96875 5.300781 6.429688 5.292969 Z M 6.453125 9.863281 C 7.03125 9.863281 7.445312 10.332031 7.445312 10.867188 L 7.445312 12.765625 C 7.445312 13.347656 7.003906 13.710938 6.429688 13.707031 C 5.96875 13.699219 5.460938 13.363281 5.460938 12.773438 L 5.457031 10.867188 C 5.457031 10.324219 5.890625 9.863281 6.453125 9.863281 Z M 6.453125 9.863281 "/>
</svg>
