<?xml version="1.0" encoding="UTF-8"?>
<svg xmlns="http://www.w3.org/2000/svg" xmlns:xlink="http://www.w3.org/1999/xlink" width="12.908434" height="19" viewBox="0 0 12.908434 19">
<path fill-rule="nonzero" fill="rgb(100%, 100%, 100%)" fill-opacity="1" stroke-width="8.48" stroke-linecap="round" stroke-linejoin="round" stroke="rgb(0%, 0%, 0%)" stroke-opacity="1" stroke-miterlimit="4" d="M -39.511425 -101.147419 L 111.022573 -101.147419 L 111.022573 121.261464 L -39.511425 121.261464 Z M -39.511425 -101.147419 " transform="matrix(0.0823371, 0, 0, 0.0823371, 3.534506, 8.64459)"/>
<path fill-rule="nonzero" fill="rgb(0%, 0%, 0%)" fill-opacity="1" d="M 6.453125 15.136719 C 7.675781 15.136719 8.898438 13.847656 8.898438 12.621094 L 8.898438 6.007812 C 8.898438 5.175781 8.164062 3.863281 6.496094 3.863281 C 5.152344 3.863281 4.097656 5.085938 4.097656 6.007812 L 4.097656 9.148438 C 4.097656 11.382812 6.453125 11.433594 7.269531 11.105469 L 7.269531 12.773438 C 7.269531 13.664062 5.460938 13.636719 5.460938 12.773438 L 4.007812 12.773438 C 4.007812 13.847656 5.234375 15.136719 6.453125 15.136719 Z M 6.546875 9.601562 C 6.125 9.617188 5.683594 9.398438 5.683594 8.96875 L 5.683594 6.410156 C 5.683594 5.285156 7.253906 5.210938 7.253906 6.410156 L 7.253906 8.988281 C 7.253906 9.382812 6.910156 9.582031 6.546875 9.601562 Z M 6.546875 9.601562 "/>
</svg>
