<?xml version="1.0" encoding="UTF-8" standalone="no"?>
<svg
   width="10.87026"
   height="16"
   viewBox="0 0 10.87026 16"
   version="1.1"
   id="svg2"
   sodipodi:docname="g4-{5}.svg"
   inkscape:version="1.4.2 (ebf0e940d0, 2025-05-08)"
   xmlns:inkscape="http://www.inkscape.org/namespaces/inkscape"
   xmlns:sodipodi="http://sodipodi.sourceforge.net/DTD/sodipodi-0.dtd"
   xmlns="http://www.w3.org/2000/svg"
   xmlns:svg="http://www.w3.org/2000/svg">
  <defs
     id="defs2" />
  <sodipodi:namedview
     id="namedview2"
     pagecolor="#ffffff"
     bordercolor="#999999"
     borderopacity="1"
     inkscape:showpageshadow="0"
     inkscape:pageopacity="0"
     inkscape:pagecheckerboard="0"
     inkscape:deskcolor="#d1d1d1"
     inkscape:zoom="12.84375"
     inkscape:cx="2.0243309"
     inkscape:cy="7.7858881"
     inkscape:window-width="1920"
     inkscape:window-height="1008"
     inkscape:window-x="1920"
     inkscape:window-y="0"
     inkscape:window-maximized="1"
     inkscape:current-layer="svg2" />
  <path
     fill-rule="nonzero"
     fill="rgb(100%, 100%, 100%)"
     fill-opacity="1"
     stroke-width="8.48"
     stroke-linecap="round"
     stroke-linejoin="round"
     stroke="rgb(0%, 0%, 0%)"
     stroke-opacity="1"
     stroke-miterlimit="4"
     d="M -39.490669 -101.159279 L 111.043329 -101.159279 L 111.043329 121.261464 L -39.490669 121.261464 Z M -39.490669 -101.159279 "
     transform="matrix(0.0693365, 0, 0, 0.0693365, 2.976426, 7.279655)"
     id="path1" />
  <path
     fill-rule="nonzero"
     fill="#000000"
     fill-opacity="1"
     d="m 7.5796601,1.8554691 v 2.492187 h 0.660157 c 0,-0.199218 0.203125,-0.257812 0.351562,-0.257812 0.203125,0 0.375,0.121094 0.375,0.304687 l -0.00391,0.976563 c 0,0.292968 -0.097656,0.535156 -0.363281,0.535156 -0.265625,0 -0.378906,-0.183594 -0.378906,-0.535156 h -0.640622 c 0,0.625 0.277344,1.195312 1.019532,1.195312 0.613281,0 1.019531,-0.429687 1.019531,-0.960937 0,-0.410157 0.00391,-0.828125 0,-1.246094 -0.011719,-0.539063 -0.359375,-0.828125 -0.753906,-0.835937 -0.214844,0 -0.46875,0.09375 -0.625,0.238281 v -1.28125 h 1.378906 v -0.621094 h -1.507813 v -0.00391 z m 0,0"
     id="path2" />
  <path
     fill-rule="nonzero"
     fill="#000000"
     fill-opacity="1"
     d="m 4.6030931,3.2617189 c -0.9804693,0.00781 -1.9687503,0.6835939 -1.9687503,2.003906 h -0.015625 v 5.4687501 h 0.015625 c 0.019531,2.675781 3.9414063,2.648438 3.9414063,0 h 0.01172 V 5.2656249 h -0.01172 c 0,-1.34375 -0.988281,-2.007812 -1.972656,-2.003906 z m 0,1.191406 c 0.414062,-0.00391 0.835937,0.265625 0.835937,0.8125 h -0.0039 v 5.4687501 h 0.0039 c 0,1.078125 -1.664062,1.078125 -1.664062,-0.01953 V 5.2656249 h -0.0078 c 0,-0.5351561 0.417969,-0.808593 0.835938,-0.8125 z m 0,0"
     id="path2-7" />
</svg>
