<?xml version="1.0" encoding="UTF-8" standalone="no"?>
<svg
   width="10.87026"
   height="16"
   viewBox="0 0 10.87026 16"
   version="1.1"
   id="svg2"
   sodipodi:docname="g4-{15}.svg"
   inkscape:version="1.4.2 (ebf0e940d0, 2025-05-08)"
   xmlns:inkscape="http://www.inkscape.org/namespaces/inkscape"
   xmlns:sodipodi="http://sodipodi.sourceforge.net/DTD/sodipodi-0.dtd"
   xmlns="http://www.w3.org/2000/svg"
   xmlns:svg="http://www.w3.org/2000/svg">
  <defs
     id="defs2" />
  <sodipodi:namedview
     id="namedview2"
     pagecolor="#ffffff"
     bordercolor="#999999"
     borderopacity="1"
     inkscape:showpageshadow="0"
     inkscape:pageopacity="0"
     inkscape:pagecheckerboard="0"
     inkscape:deskcolor="#d1d1d1"
     inkscape:zoom="12.84375"
     inkscape:cx="1.9075426"
     inkscape:cy="7.7858881"
     inkscape:window-width="1920"
     inkscape:window-height="1008"
     inkscape:window-x="1920"
     inkscape:window-y="0"
     inkscape:window-maximized="1"
     inkscape:current-layer="svg2" />
  <path
     fill-rule="nonzero"
     fill="rgb(100%, 100%, 100%)"
     fill-opacity="1"
     stroke-width="8.48"
     stroke-linecap="round"
     stroke-linejoin="round"
     stroke="rgb(0%, 0%, 0%)"
     stroke-opacity="1"
     stroke-miterlimit="4"
     d="M -39.490669 -101.159279 L 111.043329 -101.159279 L 111.043329 121.261464 L -39.490669 121.261464 Z M -39.490669 -101.159279 "
     transform="matrix(0.0693365, 0, 0, 0.0693365, 2.976426, 7.279655)"
     id="path1" />
  <path
     fill-rule="nonzero"
     fill="#000000"
     fill-opacity="1"
     d="m 6.4273211,1.855469 v 2.492187 h 0.660157 c 0,-0.199218 0.203125,-0.257812 0.351562,-0.257812 0.203125,0 0.375,0.121094 0.375,0.304687 l -0.00391,0.976563 c 0,0.292968 -0.097656,0.535156 -0.363281,0.535156 -0.265625,0 -0.378906,-0.183594 -0.378906,-0.535156 h -0.640622 c 0,0.625 0.277344,1.195312 1.019532,1.195312 0.613281,0 1.019531,-0.429687 1.019531,-0.960937 0,-0.410157 0.00391,-0.828125 0,-1.246094 -0.011719,-0.539063 -0.359375,-0.828125 -0.753906,-0.835937 -0.214844,0 -0.46875,0.09375 -0.625,0.238281 v -1.28125 h 1.378906 V 1.859375 h -1.507813 v -0.00391 z m 0,0"
     id="path2" />
  <path
     fill-rule="nonzero"
     fill="#000000"
     fill-opacity="1"
     d="m 4.0562281,5.234375 -1.273438,0.871094 -0.00391,-1.683594 1.269531,-0.878906 h 1.386719 v 8.914062 h -1.390625 z m 0,0"
     id="path3" />
</svg>
