<?xml version="1.0" encoding="UTF-8" standalone="no"?>
<svg
   width="7"
   height="21"
   viewBox="0 0 7 21"
   version="1.1"
   id="svg3"
   sodipodi:docname="hp3.svg"
   inkscape:version="1.4 (e7c3feb100, 2024-10-09)"
   xmlns:inkscape="http://www.inkscape.org/namespaces/inkscape"
   xmlns:sodipodi="http://sodipodi.sourceforge.net/DTD/sodipodi-0.dtd"
   xmlns="http://www.w3.org/2000/svg"
   xmlns:svg="http://www.w3.org/2000/svg">
  <defs
     id="defs3" />
  <sodipodi:namedview
     id="namedview3"
     pagecolor="#ffffff"
     bordercolor="#999999"
     borderopacity="1"
     inkscape:showpageshadow="0"
     inkscape:pageopacity="0"
     inkscape:pagecheckerboard="0"
     inkscape:deskcolor="#d1d1d1"
     inkscape:zoom="38.047619"
     inkscape:cx="3.4956195"
     inkscape:cy="10.5"
     inkscape:window-width="1920"
     inkscape:window-height="1008"
     inkscape:window-x="1920"
     inkscape:window-y="0"
     inkscape:window-maximized="1"
     inkscape:current-layer="svg3" />
  <rect
     x="-0.7"
     y="-2.1"
     width="8.4"
     height="25.2"
     fill="rgb(10.196078%, 10.196078%, 10.196078%)"
     fill-opacity="1"
     id="rect1" />
  <path
     fill-rule="nonzero"
     fill="rgb(9.803922%, 9.803922%, 9.803922%)"
     fill-opacity="1"
     stroke-width="0.0481541"
     stroke-linecap="butt"
     stroke-linejoin="miter"
     stroke="rgb(40.392157%, 40.392157%, 40.392157%)"
     stroke-opacity="1"
     stroke-miterlimit="4"
     d="M 1.48208 0.926041 C 1.48208 1.232999 1.233 1.48208 0.926042 1.48208 C 0.619084 1.48208 0.370003 1.232999 0.370003 0.926041 C 0.370003 0.619084 0.619084 0.370003 0.926042 0.370003 C 1.233 0.370003 1.48208 0.619084 1.48208 0.926041 Z M 1.48208 0.926041 "
     transform="matrix(3.779528, 0, 0, 3.779528, 0, 0.000000225277)"
     id="path1"
     style="fill:#00ff00;fill-opacity:1" />
  <path
     fill-rule="nonzero"
     fill="rgb(100%, 100%, 0%)"
     fill-opacity="1"
     stroke-width="0.0481541"
     stroke-linecap="butt"
     stroke-linejoin="miter"
     stroke="rgb(40%, 40%, 40%)"
     stroke-opacity="1"
     stroke-miterlimit="4"
     d="M 1.48208 2.778125 C 1.48208 3.085083 1.233 3.334163 0.926042 3.334163 C 0.619084 3.334163 0.370003 3.085083 0.370003 2.778125 C 0.370003 2.471167 0.619084 2.222086 0.926042 2.222086 C 1.233 2.222086 1.48208 2.471167 1.48208 2.778125 Z M 1.48208 2.778125 "
     transform="matrix(3.779528, 0, 0, 3.779528, 0, 0.000000225277)"
     id="path2"
     style="fill:#191919;fill-opacity:1" />
  <path
     fill-rule="nonzero"
     fill="rgb(9.803922%, 9.803922%, 9.803922%)"
     fill-opacity="1"
     stroke-width="0.0481541"
     stroke-linecap="butt"
     stroke-linejoin="miter"
     stroke="rgb(40%, 40%, 40%)"
     stroke-opacity="1"
     stroke-miterlimit="4"
     d="M 1.48208 4.630208 C 1.48208 4.937166 1.233 5.186246 0.926042 5.186246 C 0.619084 5.186246 0.370003 4.937166 0.370003 4.630208 C 0.370003 4.32325 0.619084 4.074169 0.926042 4.074169 C 1.233 4.074169 1.48208 4.32325 1.48208 4.630208 Z M 1.48208 4.630208 "
     transform="matrix(3.779528, 0, 0, 3.779528, 0, 0.000000225277)"
     id="path3"
     style="fill:#ffff00;fill-opacity:1" />
</svg>
