<?xml version="1.0" encoding="UTF-8"?>
<svg xmlns="http://www.w3.org/2000/svg" xmlns:xlink="http://www.w3.org/1999/xlink" width="16" height="16.032388" viewBox="0 0 16 16.032388">
<path fill-rule="nonzero" fill="rgb(0%, 0%, 0%)" fill-opacity="1" stroke-width="0.969125" stroke-linecap="round" stroke-linejoin="miter" stroke="rgb(0%, 0%, 0%)" stroke-opacity="1" stroke-miterlimit="4" d="M 0.4836 0.4836 L 15.490806 0.4836 L 15.490806 15.522006 L 0.4836 15.522006 Z M 0.4836 0.4836 " transform="matrix(1.001602, 0, 0, 1.001602, 0, 0)"/>
<path fill-rule="nonzero" fill="rgb(21.176471%, 21.176471%, 21.176471%)" fill-opacity="1" d="M 13.058594 10.117188 C 13.058594 11.195312 12.183594 12.066406 11.109375 12.066406 C 10.03125 12.066406 9.15625 11.195312 9.15625 10.117188 C 9.15625 9.039062 10.03125 8.167969 11.109375 8.167969 C 12.183594 8.167969 13.058594 9.039062 13.058594 10.117188 Z M 13.058594 10.117188 "/>
<path fill-rule="nonzero" fill="rgb(90.588235%, 47.45098%, 9.803922%)" fill-opacity="1" d="M 6.988281 10.117188 C 6.988281 11.195312 6.117188 12.066406 5.039062 12.066406 C 3.960938 12.066406 3.089844 11.195312 3.089844 10.117188 C 3.089844 9.039062 3.960938 8.167969 5.039062 8.167969 C 6.117188 8.167969 6.988281 9.039062 6.988281 10.117188 Z M 6.988281 10.117188 "/>
<path fill="none" stroke-width="0.891863" stroke-linecap="round" stroke-linejoin="miter" stroke="rgb(100%, 100%, 100%)" stroke-opacity="1" stroke-miterlimit="4" d="M 0.8658 0.8658 L 15.108606 0.8658 L 15.108606 15.139806 L 0.8658 15.139806 Z M 0.8658 0.8658 " transform="matrix(1.001602, 0, 0, 1.001602, 0, 0)"/>
</svg>
