<?xml version="1.0" encoding="UTF-8"?>
<svg xmlns="http://www.w3.org/2000/svg" xmlns:xlink="http://www.w3.org/1999/xlink" width="16" height="16.587582" viewBox="0 0 16 16.587582">
<path fill-rule="nonzero" fill="rgb(47.058824%, 47.058824%, 47.058824%)" fill-opacity="1" stroke-width="0.8" stroke-linecap="butt" stroke-linejoin="miter" stroke="rgb(0%, 0%, 0%)" stroke-opacity="1" stroke-miterlimit="4" d="M 117.504196 78.504198 L 158.0858 78.504198 L 158.0858 120.611654 L 117.504196 120.611654 Z M 117.504196 78.504198 " transform="matrix(0.386567, 0, 0, 0.386567, -45.266968, -30.190865)"/>
<path fill-rule="nonzero" fill="rgb(100%, 94.901961%, 0%)" fill-opacity="1" stroke-width="0.7" stroke-linecap="butt" stroke-linejoin="miter" stroke="rgb(0%, 0%, 0%)" stroke-opacity="1" stroke-miterlimit="4" d="M 127.558652 86.497238 C 127.558652 87.911935 126.416789 89.063903 125.002092 89.063903 C 123.587395 89.063903 122.435427 87.911935 122.435427 86.497238 C 122.435427 85.08254 123.587395 83.940678 125.002092 83.940678 C 126.416789 83.940678 127.558652 85.08254 127.558652 86.497238 Z M 127.558652 86.497238 " transform="matrix(0.386567, 0, 0, 0.386567, -45.266968, -30.190865)"/>
<path fill-rule="nonzero" fill="rgb(100%, 94.901961%, 0%)" fill-opacity="1" stroke-width="0.7" stroke-linecap="butt" stroke-linejoin="miter" stroke="rgb(0%, 0%, 0%)" stroke-opacity="1" stroke-miterlimit="4" d="M 127.558652 92.994741 C 127.558652 94.409438 126.416789 95.551301 125.002092 95.551301 C 123.587395 95.551301 122.435427 94.409438 122.435427 92.994741 C 122.435427 91.569938 123.587395 90.428076 125.002092 90.428076 C 126.416789 90.428076 127.558652 91.569938 127.558652 92.994741 Z M 127.558652 92.994741 " transform="matrix(0.386567, 0, 0, 0.386567, -45.266968, -30.190865)"/>
<path fill-rule="nonzero" fill="rgb(100%, 94.901961%, 0%)" fill-opacity="1" stroke-width="0.7" stroke-linecap="butt" stroke-linejoin="miter" stroke="rgb(0%, 0%, 0%)" stroke-opacity="1" stroke-miterlimit="4" d="M 127.558652 99.482139 C 127.558652 100.896836 126.416789 102.038699 125.002092 102.038699 C 123.587395 102.038699 122.435427 100.896836 122.435427 99.482139 C 122.435427 98.067441 123.587395 96.915474 125.002092 96.915474 C 126.416789 96.915474 127.558652 98.067441 127.558652 99.482139 Z M 127.558652 99.482139 " transform="matrix(0.386567, 0, 0, 0.386567, -45.266968, -30.190865)"/>
<path fill-rule="nonzero" fill="rgb(100%, 94.901961%, 0%)" fill-opacity="1" stroke-width="0.7" stroke-linecap="butt" stroke-linejoin="miter" stroke="rgb(0%, 0%, 0%)" stroke-opacity="1" stroke-miterlimit="4" d="M 153.164675 86.497238 C 153.164675 87.911935 152.012707 89.063903 150.598009 89.063903 C 149.183312 89.063903 148.041449 87.911935 148.041449 86.497238 C 148.041449 85.08254 149.183312 83.940678 150.598009 83.940678 C 152.012707 83.940678 153.164675 85.08254 153.164675 86.497238 Z M 153.164675 86.497238 " transform="matrix(0.386567, 0, 0, 0.386567, -45.266968, -30.190865)"/>
<path fill-rule="nonzero" fill="rgb(100%, 94.901961%, 0%)" fill-opacity="1" stroke-width="0.7" stroke-linecap="butt" stroke-linejoin="miter" stroke="rgb(0%, 0%, 0%)" stroke-opacity="1" stroke-miterlimit="4" d="M 153.164675 92.994741 C 153.164675 94.409438 152.012707 95.551301 150.598009 95.551301 C 149.183312 95.551301 148.041449 94.409438 148.041449 92.994741 C 148.041449 91.569938 149.183312 90.428076 150.598009 90.428076 C 152.012707 90.428076 153.164675 91.569938 153.164675 92.994741 Z M 153.164675 92.994741 " transform="matrix(0.386567, 0, 0, 0.386567, -45.266968, -30.190865)"/>
<path fill-rule="nonzero" fill="rgb(100%, 94.901961%, 0%)" fill-opacity="1" stroke-width="0.7" stroke-linecap="butt" stroke-linejoin="miter" stroke="rgb(0%, 0%, 0%)" stroke-opacity="1" stroke-miterlimit="4" d="M 153.164675 99.482139 C 153.164675 100.896836 152.012707 102.038699 150.598009 102.038699 C 149.183312 102.038699 148.041449 100.896836 148.041449 99.482139 C 148.041449 98.067441 149.183312 96.915474 150.598009 96.915474 C 152.012707 96.915474 153.164675 98.067441 153.164675 99.482139 Z M 153.164675 99.482139 " transform="matrix(0.386567, 0, 0, 0.386567, -45.266968, -30.190865)"/>
<path fill-rule="nonzero" fill="rgb(100%, 94.901961%, 0%)" fill-opacity="1" stroke-width="0.7" stroke-linecap="butt" stroke-linejoin="miter" stroke="rgb(0%, 0%, 0%)" stroke-opacity="1" stroke-miterlimit="4" d="M 146.758117 99.482139 C 146.758117 100.896836 145.616254 102.038699 144.201556 102.038699 C 142.786859 102.038699 141.634891 100.896836 141.634891 99.482139 C 141.634891 98.067441 142.786859 96.915474 144.201556 96.915474 C 145.616254 96.915474 146.758117 98.067441 146.758117 99.482139 Z M 146.758117 99.482139 " transform="matrix(0.386567, 0, 0, 0.386567, -45.266968, -30.190865)"/>
<path fill-rule="nonzero" fill="rgb(100%, 94.901961%, 0%)" fill-opacity="1" stroke-width="0.7" stroke-linecap="butt" stroke-linejoin="miter" stroke="rgb(0%, 0%, 0%)" stroke-opacity="1" stroke-miterlimit="4" d="M 140.361663 99.482139 C 140.361663 100.896836 139.219801 102.038699 137.794998 102.038699 C 136.380301 102.038699 135.238438 100.896836 135.238438 99.482139 C 135.238438 98.067441 136.380301 96.915474 137.794998 96.915474 C 139.219801 96.915474 140.361663 98.067441 140.361663 99.482139 Z M 140.361663 99.482139 " transform="matrix(0.386567, 0, 0, 0.386567, -45.266968, -30.190865)"/>
<path fill-rule="nonzero" fill="rgb(100%, 94.901961%, 0%)" fill-opacity="1" stroke-width="0.7" stroke-linecap="butt" stroke-linejoin="miter" stroke="rgb(0%, 0%, 0%)" stroke-opacity="1" stroke-miterlimit="4" d="M 133.96521 99.482139 C 133.96521 100.896836 132.813242 102.038699 131.398545 102.038699 C 129.983848 102.038699 128.841985 100.896836 128.841985 99.482139 C 128.841985 98.067441 129.983848 96.915474 131.398545 96.915474 C 132.813242 96.915474 133.96521 98.067441 133.96521 99.482139 Z M 133.96521 99.482139 " transform="matrix(0.386567, 0, 0, 0.386567, -45.266968, -30.190865)"/>
</svg>
