<?xml version="1.0" encoding="UTF-8"?>
<svg xmlns="http://www.w3.org/2000/svg" xmlns:xlink="http://www.w3.org/1999/xlink" width="14" height="41.51215" viewBox="0 0 14 41.51215">
<path fill-rule="nonzero" fill="rgb(0%, 0%, 0%)" fill-opacity="1" d="M 2.929688 0 L 2.964844 0.0351562 L 0.0351562 2.964844 L 0 2.929688 L 0 38.582031 L 2.929688 41.511719 L 11.070312 41.511719 L 11.035156 41.476562 L 13.964844 38.546875 L 14 38.582031 L 14 2.929688 L 11.070312 0 Z M 2.929688 0 "/>
<path fill="none" stroke-width="0.603331" stroke-linecap="round" stroke-linejoin="round" stroke="rgb(100%, 100%, 100%)" stroke-opacity="1" stroke-miterlimit="4" d="M 1.927567 0.54407 L 1.945333 0.564056 L 0.521864 2.018614 L 0.504099 21.736204 L 1.958657 23.128582 L 6.00033 23.128582 L 5.982564 23.110816 L 7.437122 21.716217 L 7.454888 21.736204 L 7.454888 1.892034 L 6.00033 0.54407 Z M 1.927567 0.54407 " transform="matrix(1.759018, 0, 0, 1.759018, 0, 0.00000292106)"/>
<path fill-rule="nonzero" fill="rgb(21.176471%, 21.176471%, 21.176471%)" fill-opacity="1" d="M 9.5625 20.820312 C 9.5625 22.238281 8.417969 23.382812 7 23.382812 C 5.582031 23.382812 4.4375 22.238281 4.4375 20.820312 C 4.4375 19.402344 5.582031 18.257812 7 18.257812 C 8.417969 18.257812 9.5625 19.402344 9.5625 20.820312 Z M 9.5625 20.820312 "/>
<path fill-rule="nonzero" fill="rgb(0%, 96.470588%, 0%)" fill-opacity="1" d="M 9.5625 6.136719 C 9.5625 7.554688 8.417969 8.699219 7 8.699219 C 5.582031 8.699219 4.4375 7.554688 4.4375 6.136719 C 4.4375 4.71875 5.582031 3.574219 7 3.574219 C 8.417969 3.574219 9.5625 4.71875 9.5625 6.136719 Z M 9.5625 6.136719 "/>
<path fill-rule="nonzero" fill="rgb(21.176471%, 21.176471%, 21.176471%)" fill-opacity="1" d="M 9.5625 35.503906 C 9.5625 36.921875 8.417969 38.070312 7 38.070312 C 5.582031 38.070312 4.4375 36.921875 4.4375 35.503906 C 4.4375 34.085938 5.582031 32.941406 7 32.941406 C 8.417969 32.941406 9.5625 34.085938 9.5625 35.503906 Z M 9.5625 35.503906 "/>
<path fill-rule="nonzero" fill="rgb(21.176471%, 21.176471%, 21.176471%)" fill-opacity="1" d="M 9.5625 13.480469 C 9.5625 14.898438 8.417969 16.042969 7 16.042969 C 5.582031 16.042969 4.4375 14.898438 4.4375 13.480469 C 4.4375 12.0625 5.582031 10.914062 7 10.914062 C 8.417969 10.914062 9.5625 12.0625 9.5625 13.480469 Z M 9.5625 13.480469 "/>
<path fill-rule="nonzero" fill="rgb(0%, 96.470588%, 0%)" fill-opacity="1" d="M 9.5625 28.164062 C 9.5625 29.582031 8.417969 30.726562 7 30.726562 C 5.582031 30.726562 4.4375 29.582031 4.4375 28.164062 C 4.4375 26.746094 5.582031 25.597656 7 25.597656 C 8.417969 25.597656 9.5625 26.746094 9.5625 28.164062 Z M 9.5625 28.164062 "/>
</svg>
