<?xml version="1.0" encoding="UTF-8"?>
<svg xmlns="http://www.w3.org/2000/svg" xmlns:xlink="http://www.w3.org/1999/xlink" width="14" height="19.073793" viewBox="0 0 14 19.073793">
<path fill-rule="nonzero" fill="rgb(100%, 100%, 100%)" fill-opacity="1" stroke-width="0.38563" stroke-linecap="round" stroke-linejoin="round" stroke="rgb(0%, 0%, 0%)" stroke-opacity="1" stroke-miterlimit="4" d="M 9.065817 0.195409 L 8.455902 0.799402 L 8.455902 6.904468 L 8.461824 6.898547 L 9.071738 7.508461 L 9.065817 7.514383 L 12.15684 7.514383 L 12.766754 6.904468 L 12.766754 0.775716 L 12.760833 0.787559 L 12.168683 0.195409 Z M 9.065817 0.195409 " transform="matrix(0.659672, 0, 0, 0.659672, 0, 0.000000629113)"/>
<path fill-rule="nonzero" fill="rgb(0%, 0%, 0%)" fill-opacity="1" d="M 7.890625 2.542969 C 7.890625 3.035156 7.492188 3.429688 7 3.429688 C 6.507812 3.429688 6.109375 3.035156 6.109375 2.542969 C 6.109375 2.050781 6.507812 1.652344 7 1.652344 C 7.492188 1.652344 7.890625 2.050781 7.890625 2.542969 Z M 7.890625 2.542969 "/>
<path fill-rule="nonzero" fill="rgb(0%, 0%, 0%)" fill-opacity="1" d="M 1.238281 5.074219 L 0 6.3125 L 0 17.835938 L 1.238281 19.074219 L 12.761719 19.074219 L 14 17.835938 L 14 6.3125 L 12.761719 5.074219 Z M 1.238281 5.074219 "/>
<path fill="none" stroke-width="0.611253" stroke-linecap="square" stroke-linejoin="miter" stroke="rgb(100%, 100%, 100%)" stroke-opacity="1" stroke-miterlimit="4" d="M 2.522559 8.473666 L 0.781638 10.214587 L 0.781638 26.392125 L 2.522559 28.133046 L 18.700097 28.133046 L 20.441018 26.392125 L 20.441018 10.214587 L 18.700097 8.473666 Z M 2.522559 8.473666 " transform="matrix(0.659672, 0, 0, 0.659672, 0, 0.000000629113)"/>
<path fill-rule="nonzero" fill="rgb(21.176471%, 21.176471%, 21.176471%)" fill-opacity="1" d="M 8.207031 12.074219 C 8.207031 12.742188 7.667969 13.28125 7 13.28125 C 6.332031 13.28125 5.792969 12.742188 5.792969 12.074219 C 5.792969 11.40625 6.332031 10.867188 7 10.867188 C 7.667969 10.867188 8.207031 11.40625 8.207031 12.074219 Z M 8.207031 12.074219 "/>
<path fill-rule="nonzero" fill="rgb(21.176471%, 21.176471%, 21.176471%)" fill-opacity="1" d="M 8.207031 8.148438 C 8.207031 8.816406 7.667969 9.355469 7 9.355469 C 6.332031 9.355469 5.792969 8.816406 5.792969 8.148438 C 5.792969 7.484375 6.332031 6.945312 7 6.945312 C 7.667969 6.945312 8.207031 7.484375 8.207031 8.148438 Z M 8.207031 8.148438 "/>
<path fill-rule="nonzero" fill="rgb(90.588235%, 47.45098%, 9.803922%)" fill-opacity="1" d="M 4.699219 8.148438 C 4.699219 8.816406 4.160156 9.355469 3.492188 9.355469 C 2.824219 9.355469 2.285156 8.816406 2.285156 8.148438 C 2.285156 7.484375 2.824219 6.945312 3.492188 6.945312 C 4.160156 6.945312 4.699219 7.484375 4.699219 8.148438 Z M 4.699219 8.148438 "/>
<path fill-rule="nonzero" fill="rgb(21.176471%, 21.176471%, 21.176471%)" fill-opacity="1" d="M 4.699219 15.726562 C 4.699219 16.394531 4.160156 16.933594 3.492188 16.933594 C 2.824219 16.933594 2.285156 16.394531 2.285156 15.726562 C 2.285156 15.0625 2.824219 14.523438 3.492188 14.523438 C 4.160156 14.523438 4.699219 15.0625 4.699219 15.726562 Z M 4.699219 15.726562 "/>
<path fill-rule="nonzero" fill="rgb(21.176471%, 21.176471%, 21.176471%)" fill-opacity="1" d="M 8.207031 15.726562 C 8.207031 16.394531 7.667969 16.933594 7 16.933594 C 6.332031 16.933594 5.792969 16.394531 5.792969 15.726562 C 5.792969 15.0625 6.332031 14.523438 7 14.523438 C 7.667969 14.523438 8.207031 15.0625 8.207031 15.726562 Z M 8.207031 15.726562 "/>
<path fill-rule="nonzero" fill="rgb(0%, 96.470588%, 0%)" fill-opacity="1" d="M 11.714844 11.9375 C 11.714844 12.605469 11.175781 13.144531 10.507812 13.144531 C 9.839844 13.144531 9.300781 12.605469 9.300781 11.9375 C 9.300781 11.273438 9.839844 10.734375 10.507812 10.734375 C 11.175781 10.734375 11.714844 11.273438 11.714844 11.9375 Z M 11.714844 11.9375 "/>
<path fill-rule="nonzero" fill="rgb(21.176471%, 21.176471%, 21.176471%)" fill-opacity="1" d="M 11.714844 15.726562 C 11.714844 16.394531 11.175781 16.933594 10.507812 16.933594 C 9.839844 16.933594 9.300781 16.394531 9.300781 15.726562 C 9.300781 15.0625 9.839844 14.523438 10.507812 14.523438 C 11.175781 14.523438 11.714844 15.0625 11.714844 15.726562 Z M 11.714844 15.726562 "/>
<path fill-rule="nonzero" fill="rgb(21.176471%, 21.176471%, 21.176471%)" fill-opacity="1" d="M 11.714844 8.148438 C 11.714844 8.816406 11.175781 9.355469 10.507812 9.355469 C 9.839844 9.355469 9.300781 8.816406 9.300781 8.148438 C 9.300781 7.484375 9.839844 6.945312 10.507812 6.945312 C 11.175781 6.945312 11.714844 7.484375 11.714844 8.148438 Z M 11.714844 8.148438 "/>
</svg>
