<?xml version="1.0" encoding="UTF-8"?>
<svg xmlns="http://www.w3.org/2000/svg" xmlns:xlink="http://www.w3.org/1999/xlink" width="8.244444" height="14" viewBox="0 0 8.244444 14">
<path fill-rule="nonzero" fill="rgb(0%, 0%, 0%)" fill-opacity="1" d="M 1.164062 0 L 0 1.164062 L 0 12.835938 L 0.015625 12.824219 L 1.175781 13.988281 L 1.164062 14 L 7.082031 14 L 8.246094 12.835938 L 8.246094 1.117188 L 8.230469 1.132812 L 7.097656 0 Z M 1.164062 0 "/>
<path fill="none" stroke-width="0.625654" stroke-linecap="round" stroke-linejoin="round" stroke="rgb(100%, 100%, 100%)" stroke-opacity="1" stroke-miterlimit="4" d="M 2.118792 0.789249 L 0.741577 2.235324 L 0.741577 16.749049 L 0.757468 16.733158 L 2.129386 18.179233 L 2.118792 18.195124 L 9.110805 18.195124 L 10.482723 16.749049 L 10.482723 2.182355 L 10.466832 2.198246 L 9.131993 0.789249 Z M 2.118792 0.789249 " transform="matrix(0.737449, 0, 0, 0.737449, 0, 0.000000703286)"/>
<path fill-rule="nonzero" fill="rgb(21.176471%, 21.176471%, 21.176471%)" fill-opacity="1" d="M 5.558594 3.859375 C 5.558594 4.65625 4.917969 5.296875 4.121094 5.296875 C 3.328125 5.296875 2.683594 4.65625 2.683594 3.859375 C 2.683594 3.066406 3.328125 2.421875 4.121094 2.421875 C 4.917969 2.421875 5.558594 3.066406 5.558594 3.859375 Z M 5.558594 3.859375 "/>
<path fill-rule="nonzero" fill="rgb(90.588235%, 47.45098%, 9.803922%)" fill-opacity="1" d="M 5.472656 9.675781 C 5.472656 10.421875 4.867188 11.023438 4.121094 11.023438 C 3.375 11.023438 2.773438 10.421875 2.773438 9.675781 C 2.773438 8.929688 3.375 8.328125 4.121094 8.328125 C 4.867188 8.328125 5.472656 8.929688 5.472656 9.675781 Z M 5.472656 9.675781 "/>
</svg>
