<?xml version="1.0" encoding="UTF-8"?>
<svg xmlns="http://www.w3.org/2000/svg" xmlns:xlink="http://www.w3.org/1999/xlink" width="16" height="16.587582" viewBox="0 0 16 16.587582">
<path fill-rule="nonzero" fill="rgb(47.058824%, 47.058824%, 47.058824%)" fill-opacity="1" stroke-width="0.8" stroke-linecap="butt" stroke-linejoin="miter" stroke="rgb(0%, 0%, 0%)" stroke-opacity="1" stroke-miterlimit="4" d="M 117.504196 78.504198 L 158.0858 78.504198 L 158.0858 120.611654 L 117.504196 120.611654 Z M 117.504196 78.504198 " transform="matrix(0.386567, 0, 0, 0.386567, -45.266968, -30.190865)"/>
<path fill-rule="nonzero" fill="rgb(100%, 94.901961%, 0%)" fill-opacity="1" stroke-width="0.7" stroke-linecap="butt" stroke-linejoin="miter" stroke="rgb(0%, 0%, 0%)" stroke-opacity="1" stroke-miterlimit="4" d="M 127.558652 86.497238 C 127.558652 87.911935 126.416789 89.063903 125.002092 89.063903 C 123.587395 89.063903 122.435427 87.911935 122.435427 86.497238 C 122.435427 85.08254 123.587395 83.940678 125.002092 83.940678 C 126.416789 83.940678 127.558652 85.08254 127.558652 86.497238 Z M 127.558652 86.497238 " transform="matrix(0.386567, 0, 0, 0.386567, -45.266968, -30.190865)"/>
<path fill-rule="nonzero" fill="rgb(100%, 94.901961%, 0%)" fill-opacity="1" stroke-width="0.7" stroke-linecap="butt" stroke-linejoin="miter" stroke="rgb(0%, 0%, 0%)" stroke-opacity="1" stroke-miterlimit="4" d="M 127.558652 92.994741 C 127.558652 94.409438 126.416789 95.551301 125.002092 95.551301 C 123.587395 95.551301 122.435427 94.409438 122.435427 92.994741 C 122.435427 91.569938 123.587395 90.428076 125.002092 90.428076 C 126.416789 90.428076 127.558652 91.569938 127.558652 92.994741 Z M 127.558652 92.994741 " transform="matrix(0.386567, 0, 0, 0.386567, -45.266968, -30.190865)"/>
<path fill-rule="nonzero" fill="rgb(100%, 94.901961%, 0%)" fill-opacity="1" stroke-width="0.7" stroke-linecap="butt" stroke-linejoin="miter" stroke="rgb(0%, 0%, 0%)" stroke-opacity="1" stroke-miterlimit="4" d="M 127.558652 113.002604 C 127.558652 114.417301 126.416789 115.559164 125.002092 115.559164 C 123.587395 115.559164 122.435427 114.417301 122.435427 113.002604 C 122.435427 111.587906 123.587395 110.435938 125.002092 110.435938 C 126.416789 110.435938 127.558652 111.587906 127.558652 113.002604 Z M 127.558652 113.002604 " transform="matrix(0.386567, 0, 0, 0.386567, -45.266968, -30.190865)"/>
<path fill-rule="nonzero" fill="rgb(100%, 94.901961%, 0%)" fill-opacity="1" stroke-width="0.7" stroke-linecap="butt" stroke-linejoin="miter" stroke="rgb(0%, 0%, 0%)" stroke-opacity="1" stroke-miterlimit="4" d="M 153.164675 86.497238 C 153.164675 87.911935 152.012707 89.063903 150.598009 89.063903 C 149.183312 89.063903 148.041449 87.911935 148.041449 86.497238 C 148.041449 85.08254 149.183312 83.940678 150.598009 83.940678 C 152.012707 83.940678 153.164675 85.08254 153.164675 86.497238 Z M 153.164675 86.497238 " transform="matrix(0.386567, 0, 0, 0.386567, -45.266968, -30.190865)"/>
<path fill-rule="nonzero" fill="rgb(100%, 94.901961%, 0%)" fill-opacity="1" stroke-width="0.7" stroke-linecap="butt" stroke-linejoin="miter" stroke="rgb(0%, 0%, 0%)" stroke-opacity="1" stroke-miterlimit="4" d="M 153.164675 92.994741 C 153.164675 94.409438 152.012707 95.551301 150.598009 95.551301 C 149.183312 95.551301 148.041449 94.409438 148.041449 92.994741 C 148.041449 91.569938 149.183312 90.428076 150.598009 90.428076 C 152.012707 90.428076 153.164675 91.569938 153.164675 92.994741 Z M 153.164675 92.994741 " transform="matrix(0.386567, 0, 0, 0.386567, -45.266968, -30.190865)"/>
<path fill-rule="nonzero" fill="rgb(100%, 94.901961%, 0%)" fill-opacity="1" stroke-width="0.7" stroke-linecap="butt" stroke-linejoin="miter" stroke="rgb(0%, 0%, 0%)" stroke-opacity="1" stroke-miterlimit="4" d="M 153.164675 113.002604 C 153.164675 114.417301 152.012707 115.559164 150.598009 115.559164 C 149.183312 115.559164 148.041449 114.417301 148.041449 113.002604 C 148.041449 111.587906 149.183312 110.435938 150.598009 110.435938 C 152.012707 110.435938 153.164675 111.587906 153.164675 113.002604 Z M 153.164675 113.002604 " transform="matrix(0.386567, 0, 0, 0.386567, -45.266968, -30.190865)"/>
<path fill-rule="nonzero" fill="rgb(100%, 94.901961%, 0%)" fill-opacity="1" stroke-width="0.7" stroke-linecap="butt" stroke-linejoin="miter" stroke="rgb(0%, 0%, 0%)" stroke-opacity="1" stroke-miterlimit="4" d="M 146.758117 113.002604 C 146.758117 114.417301 145.616254 115.559164 144.201556 115.559164 C 142.786859 115.559164 141.634891 114.417301 141.634891 113.002604 C 141.634891 111.587906 142.786859 110.435938 144.201556 110.435938 C 145.616254 110.435938 146.758117 111.587906 146.758117 113.002604 Z M 146.758117 113.002604 " transform="matrix(0.386567, 0, 0, 0.386567, -45.266968, -30.190865)"/>
<path fill-rule="nonzero" fill="rgb(100%, 94.901961%, 0%)" fill-opacity="1" stroke-width="0.7" stroke-linecap="butt" stroke-linejoin="miter" stroke="rgb(0%, 0%, 0%)" stroke-opacity="1" stroke-miterlimit="4" d="M 140.361663 113.002604 C 140.361663 114.417301 139.219801 115.559164 137.794998 115.559164 C 136.380301 115.559164 135.238438 114.417301 135.238438 113.002604 C 135.238438 111.587906 136.380301 110.435938 137.794998 110.435938 C 139.219801 110.435938 140.361663 111.587906 140.361663 113.002604 Z M 140.361663 113.002604 " transform="matrix(0.386567, 0, 0, 0.386567, -45.266968, -30.190865)"/>
<path fill-rule="nonzero" fill="rgb(100%, 94.901961%, 0%)" fill-opacity="1" stroke-width="0.7" stroke-linecap="butt" stroke-linejoin="miter" stroke="rgb(0%, 0%, 0%)" stroke-opacity="1" stroke-miterlimit="4" d="M 133.96521 113.002604 C 133.96521 114.417301 132.813242 115.559164 131.398545 115.559164 C 129.983848 115.559164 128.841985 114.417301 128.841985 113.002604 C 128.841985 111.587906 129.983848 110.435938 131.398545 110.435938 C 132.813242 110.435938 133.96521 111.587906 133.96521 113.002604 Z M 133.96521 113.002604 " transform="matrix(0.386567, 0, 0, 0.386567, -45.266968, -30.190865)"/>
</svg>
