<?xml version="1.0" encoding="UTF-8"?>
<svg xmlns="http://www.w3.org/2000/svg" xmlns:xlink="http://www.w3.org/1999/xlink" width="14" height="23.773586" viewBox="0 0 14 23.773586">
<path fill-rule="nonzero" fill="rgb(0%, 0%, 0%)" fill-opacity="1" d="M 1.976562 0 L 0 1.976562 L 0 21.796875 L 0.0273438 21.777344 L 1.996094 23.753906 L 1.976562 23.773438 L 12.027344 23.773438 L 14.003906 21.796875 L 14.003906 1.898438 L 13.976562 1.921875 L 12.050781 0 Z M 1.976562 0 "/>
<path fill="none" stroke-width="0.625654" stroke-linecap="round" stroke-linejoin="round" stroke="rgb(100%, 100%, 100%)" stroke-opacity="1" stroke-miterlimit="4" d="M 2.118025 0.78919 L 0.742401 2.236559 L 0.742401 16.747683 L 0.757997 16.732087 L 2.130503 18.179456 L 2.118025 18.195053 L 9.111564 18.195053 L 10.484069 16.747683 L 10.484069 2.18353 L 10.465353 2.199127 L 9.133399 0.78919 Z M 2.118025 0.78919 " transform="matrix(1.252272, 0, 0, 1.252272, 0, 0.00000119426)"/>
<path fill-rule="nonzero" fill="rgb(21.176471%, 21.176471%, 21.176471%)" fill-opacity="1" d="M 9.4375 6.554688 C 9.4375 7.90625 8.351562 8.996094 7 8.996094 C 5.652344 8.996094 4.558594 7.90625 4.558594 6.554688 C 4.558594 5.207031 5.652344 4.113281 7 4.113281 C 8.351562 4.113281 9.4375 5.207031 9.4375 6.554688 Z M 9.4375 6.554688 "/>
<path fill-rule="nonzero" fill="rgb(90.588235%, 47.45098%, 9.803922%)" fill-opacity="1" d="M 9.292969 16.429688 C 9.292969 17.699219 8.265625 18.71875 7 18.71875 C 5.730469 18.71875 4.710938 17.699219 4.710938 16.429688 C 4.710938 15.164062 5.730469 14.140625 7 14.140625 C 8.265625 14.140625 9.292969 15.164062 9.292969 16.429688 Z M 9.292969 16.429688 "/>
</svg>
