<?xml version="1.0" encoding="UTF-8"?>
<svg xmlns="http://www.w3.org/2000/svg" xmlns:xlink="http://www.w3.org/1999/xlink" width="16" height="32.113295" viewBox="0 0 16 32.113295">
<path fill-rule="nonzero" fill="rgb(0%, 0%, 0%)" fill-opacity="1" stroke-width="0.969125" stroke-linecap="round" stroke-linejoin="miter" stroke="rgb(0%, 0%, 0%)" stroke-opacity="1" stroke-miterlimit="4" d="M 0.4836 0.4836 L 15.490807 0.4836 L 15.490807 15.522007 L 0.4836 15.522007 Z M 0.4836 0.4836 " transform="matrix(1.001602, 0, 0, 1.001602, 0, 0)"/>
<path fill-rule="nonzero" fill="rgb(0%, 0%, 0%)" fill-opacity="1" stroke-width="0.969125" stroke-linecap="round" stroke-linejoin="miter" stroke="rgb(0%, 0%, 0%)" stroke-opacity="1" stroke-miterlimit="4" d="M 0.4836 16.539907 L 15.490807 16.539907 L 15.490807 31.578314 L 0.4836 31.578314 Z M 0.4836 16.539907 " transform="matrix(1.001602, 0, 0, 1.001602, 0, 0)"/>
<path fill="none" stroke-width="1.31406" stroke-linecap="round" stroke-linejoin="miter" stroke="rgb(100%, 100%, 100%)" stroke-opacity="1" stroke-miterlimit="4" d="M 15.319207 8.002804 C 15.319207 12.058805 12.035405 15.350407 7.987204 15.350407 C 3.939002 15.350407 0.6552 12.058805 0.6552 8.002804 C 0.6552 3.946802 3.939002 0.6552 7.987204 0.6552 C 12.035405 0.6552 15.319207 3.946802 15.319207 8.002804 Z M 15.319207 8.002804 " transform="matrix(1.001602, 0, 0, 1.001602, 0, 0)"/>
<path fill-rule="nonzero" fill="rgb(21.176471%, 21.176471%, 21.176471%)" fill-opacity="1" d="M 9.949219 4.824219 C 9.949219 5.902344 9.078125 6.777344 8 6.777344 C 6.921875 6.777344 6.050781 5.902344 6.050781 4.824219 C 6.050781 3.75 6.921875 2.875 8 2.875 C 9.078125 2.875 9.949219 3.75 9.949219 4.824219 Z M 9.949219 4.824219 "/>
<path fill-rule="nonzero" fill="rgb(21.176471%, 21.176471%, 21.176471%)" fill-opacity="1" d="M 13.058594 10.117188 C 13.058594 11.195312 12.183594 12.066406 11.109375 12.066406 C 10.03125 12.066406 9.15625 11.195312 9.15625 10.117188 C 9.15625 9.039062 10.03125 8.167969 11.109375 8.167969 C 12.183594 8.167969 13.058594 9.039062 13.058594 10.117188 Z M 13.058594 10.117188 "/>
<path fill-rule="nonzero" fill="rgb(90.588235%, 47.45098%, 9.803922%)" fill-opacity="1" d="M 6.988281 10.117188 C 6.988281 11.195312 6.117188 12.066406 5.039062 12.066406 C 3.960938 12.066406 3.089844 11.195312 3.089844 10.117188 C 3.089844 9.039062 3.960938 8.167969 5.039062 8.167969 C 6.117188 8.167969 6.988281 9.039062 6.988281 10.117188 Z M 6.988281 10.117188 "/>
<path fill-rule="nonzero" fill="rgb(90.588235%, 47.45098%, 9.803922%)" fill-opacity="1" d="M 10.710938 17.96875 L 13.371094 17.96875 L 9.1875 30.222656 L 6.769531 30.222656 L 2.628906 17.96875 L 5.363281 17.96875 L 8.023438 27.273438 Z M 10.710938 17.96875 "/>
</svg>
