<?xml version="1.0" encoding="UTF-8"?>
<svg xmlns="http://www.w3.org/2000/svg" xmlns:xlink="http://www.w3.org/1999/xlink" width="12" height="11.999977" viewBox="0 0 12 11.999977">
<path fill-rule="nonzero" fill="rgb(0%, 0%, 0%)" fill-opacity="1" stroke-width="0.264583" stroke-linecap="butt" stroke-linejoin="miter" stroke="rgb(0%, 0%, 0%)" stroke-opacity="1" stroke-miterlimit="4" d="M -470.140893 299.685864 L -463.792439 299.685864 C -463.645936 299.685864 -463.527339 299.804462 -463.527339 299.950965 L -463.527339 306.299419 C -463.527339 306.445922 -463.645936 306.564519 -463.792439 306.564519 L -470.140893 306.564519 C -470.287396 306.564519 -470.405994 306.445922 -470.405994 306.299419 L -470.405994 299.950965 C -470.405994 299.804462 -470.287396 299.685864 -470.140893 299.685864 Z M -470.140893 299.685864 " transform="matrix(1.679789, 0, 0, 1.679789, 790.405404, -503.18632)"/>
<path fill="none" stroke-width="0.79375" stroke-linecap="round" stroke-linejoin="round" stroke="rgb(0%, 100%, 0%)" stroke-opacity="1" stroke-miterlimit="4" d="M -465.908591 301.00904 L -468.024742 301.00904 L -468.024742 303.125192 L -467.273624 302.860091 L -466.701566 302.860091 C -466.436466 302.860091 -465.908591 303.125192 -465.908591 303.655392 L -465.908591 304.448368 C -465.908591 304.976243 -466.436466 305.241343 -466.701566 305.241343 L -467.231767 305.241343 C -467.496867 305.241343 -468.024742 304.976243 -468.024742 304.448368 " transform="matrix(1.679789, 0, 0, 1.679789, 790.405404, -503.18632)"/>
<path fill="none" stroke-width="0.79375" stroke-linecap="round" stroke-linejoin="round" stroke="rgb(0%, 100%, 0%)" stroke-opacity="1" stroke-miterlimit="4" d="M -464.320314 301.00904 L -464.320314 305.241343 " transform="matrix(1.679789, 0, 0, 1.679789, 790.405404, -503.18632)"/>
<path fill="none" stroke-width="0.79375" stroke-linecap="round" stroke-linejoin="round" stroke="rgb(0%, 100%, 0%)" stroke-opacity="1" stroke-miterlimit="4" d="M -469.613018 301.00904 L -469.613018 305.241343 " transform="matrix(1.679789, 0, 0, 1.679789, 790.405404, -503.18632)"/>
</svg>
