<?xml version="1.0" encoding="UTF-8"?>
<svg xmlns="http://www.w3.org/2000/svg" xmlns:xlink="http://www.w3.org/1999/xlink" width="12" height="11.999977" viewBox="0 0 12 11.999977">
<path fill-rule="nonzero" fill="rgb(0%, 0%, 0%)" fill-opacity="1" stroke-width="0.264583" stroke-linecap="butt" stroke-linejoin="miter" stroke="rgb(0%, 0%, 0%)" stroke-opacity="1" stroke-miterlimit="4" d="M -471.486718 311.414868 L -465.138264 311.414868 C -464.991762 311.414868 -464.873164 311.533466 -464.873164 311.679969 L -464.873164 318.028423 C -464.873164 318.174925 -464.991762 318.293523 -465.138264 318.293523 L -471.486718 318.293523 C -471.633221 318.293523 -471.751819 318.174925 -471.751819 318.028423 L -471.751819 311.679969 C -471.751819 311.533466 -471.633221 311.414868 -471.486718 311.414868 Z M -471.486718 311.414868 " transform="matrix(1.679789, 0, 0, 1.679789, 792.666106, -522.88857)"/>
<path fill="none" stroke-width="0.79375" stroke-linecap="round" stroke-linejoin="round" stroke="rgb(100%, 88.627451%, 0%)" stroke-opacity="1" stroke-miterlimit="4" d="M -465.666139 312.738044 L -465.666139 316.970347 " transform="matrix(1.679789, 0, 0, 1.679789, 792.666106, -522.88857)"/>
<path fill="none" stroke-width="0.79375" stroke-linecap="round" stroke-linejoin="round" stroke="rgb(100%, 88.627451%, 0%)" stroke-opacity="1" stroke-miterlimit="4" d="M -470.958843 312.738044 L -470.958843 316.970347 " transform="matrix(1.679789, 0, 0, 1.679789, 792.666106, -522.88857)"/>
<path fill="none" stroke-width="0.79375" stroke-linecap="round" stroke-linejoin="round" stroke="rgb(100%, 88.627451%, 0%)" stroke-opacity="1" stroke-miterlimit="4" d="M -469.370567 313.53102 C -469.370567 313.003145 -468.842692 312.738044 -468.577592 312.738044 L -468.047391 312.738044 C -467.782291 312.738044 -467.254416 313.003145 -467.254416 313.53102 L -467.254416 314.06122 C -467.254416 314.589095 -467.782291 314.854196 -468.047391 314.854196 L -468.577592 314.854196 L -468.047391 314.854196 C -467.782291 314.854196 -467.254416 315.119296 -467.254416 315.647171 L -467.254416 316.177372 C -467.254416 316.705247 -467.782291 316.970347 -468.047391 316.970347 L -468.577592 316.970347 C -468.842692 316.970347 -469.370567 316.705247 -469.370567 316.177372 " transform="matrix(1.679789, 0, 0, 1.679789, 792.666106, -522.88857)"/>
</svg>
