<?xml version="1.0" encoding="UTF-8"?>
<svg xmlns="http://www.w3.org/2000/svg" xmlns:xlink="http://www.w3.org/1999/xlink" width="12" height="11.999977" viewBox="0 0 12 11.999977">
<path fill-rule="nonzero" fill="rgb(0%, 0%, 0%)" fill-opacity="1" stroke-width="0.264583" stroke-linecap="butt" stroke-linejoin="miter" stroke="rgb(0%, 0%, 0%)" stroke-opacity="1" stroke-miterlimit="4" d="M -483.392968 311.414868 L -477.044514 311.414868 C -476.898012 311.414868 -476.779414 311.533466 -476.779414 311.679969 L -476.779414 318.028423 C -476.779414 318.174925 -476.898012 318.293523 -477.044514 318.293523 L -483.392968 318.293523 C -483.539471 318.293523 -483.658069 318.174925 -483.658069 318.028423 L -483.658069 311.679969 C -483.658069 311.533466 -483.539471 311.414868 -483.392968 311.414868 Z M -483.392968 311.414868 " transform="matrix(1.679789, 0, 0, 1.679789, 812.666092, -522.88857)"/>
<path fill="none" stroke-width="0.79375" stroke-linecap="round" stroke-linejoin="round" stroke="rgb(100%, 100%, 100%)" stroke-opacity="1" stroke-miterlimit="4" d="M -481.276817 313.53102 C -481.276817 313.003145 -480.748942 312.738044 -480.483842 312.738044 L -479.953641 312.738044 C -479.688541 312.738044 -479.160666 313.003145 -479.160666 313.53102 L -479.160666 314.06122 C -479.160666 314.589095 -479.688541 314.854196 -479.953641 314.854196 L -480.483842 314.854196 L -479.953641 314.854196 C -479.688541 314.854196 -479.160666 315.119296 -479.160666 315.647171 L -479.160666 316.177372 C -479.160666 316.705247 -479.688541 316.970347 -479.953641 316.970347 L -480.483842 316.970347 C -480.748942 316.970347 -481.276817 316.705247 -481.276817 316.177372 " transform="matrix(1.679789, 0, 0, 1.679789, 812.666092, -522.88857)"/>
<path fill="none" stroke-width="0.264583" stroke-linecap="round" stroke-linejoin="round" stroke="rgb(100%, 100%, 100%)" stroke-opacity="1" stroke-miterlimit="4" d="M -483.392968 311.679969 L -477.044514 311.679969 L -477.044514 318.028423 L -483.392968 318.028423 Z M -483.392968 311.679969 " transform="matrix(1.679789, 0, 0, 1.679789, 812.666092, -522.88857)"/>
</svg>
