<?xml version="1.0" encoding="UTF-8"?>
<svg xmlns="http://www.w3.org/2000/svg" xmlns:xlink="http://www.w3.org/1999/xlink" width="12" height="11.999977" viewBox="0 0 12 11.999977">
<path fill-rule="nonzero" fill="rgb(0%, 0%, 0%)" fill-opacity="1" stroke-width="0.264583" stroke-linecap="butt" stroke-linejoin="miter" stroke="rgb(0%, 0%, 0%)" stroke-opacity="1" stroke-miterlimit="4" d="M -483.392968 300.831525 L -477.044514 300.831525 C -476.898012 300.831525 -476.779414 300.950122 -476.779414 301.096625 L -476.779414 307.445079 C -476.779414 307.591582 -476.898012 307.710179 -477.044514 307.710179 L -483.392968 307.710179 C -483.539471 307.710179 -483.658069 307.591582 -483.658069 307.445079 L -483.658069 301.096625 C -483.658069 300.950122 -483.539471 300.831525 -483.392968 300.831525 Z M -483.392968 300.831525 " transform="matrix(1.679789, 0, 0, 1.679789, 812.666092, -505.110788)"/>
<path fill="none" stroke-width="0.79375" stroke-linecap="round" stroke-linejoin="round" stroke="rgb(100%, 100%, 100%)" stroke-opacity="1" stroke-miterlimit="4" d="M -479.160666 302.154701 L -481.276817 302.154701 L -481.276817 304.270852 L -480.5257 304.005752 L -479.953641 304.005752 C -479.688541 304.005752 -479.160666 304.270852 -479.160666 304.801053 L -479.160666 305.594028 C -479.160666 306.121903 -479.688541 306.387003 -479.953641 306.387003 L -480.483842 306.387003 C -480.748942 306.387003 -481.276817 306.121903 -481.276817 305.594028 " transform="matrix(1.679789, 0, 0, 1.679789, 812.666092, -505.110788)"/>
<path fill="none" stroke-width="0.264583" stroke-linecap="round" stroke-linejoin="round" stroke="rgb(100%, 100%, 100%)" stroke-opacity="1" stroke-miterlimit="4" d="M -483.392968 301.096625 L -477.044514 301.096625 L -477.044514 307.445079 L -483.392968 307.445079 Z M -483.392968 301.096625 " transform="matrix(1.679789, 0, 0, 1.679789, 812.666092, -505.110788)"/>
</svg>
