<?xml version="1.0" encoding="UTF-8"?>
<svg xmlns="http://www.w3.org/2000/svg" xmlns:xlink="http://www.w3.org/1999/xlink" width="16" height="16" viewBox="0 0 16 16">
<path fill-rule="nonzero" fill="rgb(6.666667%, 41.176471%, 98.431373%)" fill-opacity="1" stroke-width="50.467499" stroke-linecap="square" stroke-linejoin="miter" stroke="rgb(100%, 100%, 100%)" stroke-opacity="1" stroke-miterlimit="2.2" d="M 25.146467 25.146467 L 974.853453 25.146467 L 974.853453 974.853453 L 25.146467 974.853453 Z M 25.146467 25.146467 L 25.146467 25.146467 M 25.146467 25.146467 " transform="matrix(0.016, 0, 0, 0.016, 0.000000256001, 0.000000256001)"/>
<path fill="none" stroke-width="50" stroke-linecap="square" stroke-linejoin="miter" stroke="rgb(100%, 100%, 100%)" stroke-opacity="1" stroke-miterlimit="2.2" d="M 449.192655 -257.914627 L 965.02191 -257.914627 L 965.02191 257.914627 L 449.192655 257.914627 Z M 449.192655 -257.914627 L 449.192655 -257.914627 M 449.192655 -257.914627 " transform="matrix(0.0113137, 0.0113137, -0.0113137, 0.0113137, 0.000000256001, 0.000000256001)"/>
<path fill="none" stroke-width="50" stroke-linecap="square" stroke-linejoin="miter" stroke="rgb(100%, 100%, 100%)" stroke-opacity="1" stroke-miterlimit="2" d="M 548.456986 -158.650296 L 865.757579 -158.650296 L 865.757579 158.650296 L 548.456986 158.650296 Z M 548.456986 -158.650296 L 548.456986 -158.650296 M 548.456986 -158.650296 " transform="matrix(0.0113137, 0.0113137, -0.0113137, 0.0113137, 0.000000256001, 0.000000256001)"/>
</svg>
