<?xml version="1.0" encoding="UTF-8"?>
<svg xmlns="http://www.w3.org/2000/svg" xmlns:xlink="http://www.w3.org/1999/xlink" width="16" height="16" viewBox="0 0 16 16">
<path fill="none" stroke-width="4.33707" stroke-linecap="square" stroke-linejoin="miter" stroke="rgb(0%, 0%, 0%)" stroke-opacity="1" stroke-miterlimit="4" d="M 2.713015 2.19625 L 526.454019 2.19625 C 526.712402 2.19625 526.970784 2.454632 526.970784 2.713015 L 526.970784 526.454019 C 526.970784 526.712402 526.712402 526.970784 526.454019 526.970784 L 2.713015 526.970784 C 2.454632 526.970784 2.19625 526.712402 2.19625 526.454019 L 2.19625 2.713015 C 2.19625 2.454632 2.454632 2.19625 2.713015 2.19625 Z M 2.713015 2.19625 L 2.713015 2.19625 M 2.713015 2.19625 L 2.713015 2.19625 M 2.713015 2.19625 L 2.713015 2.19625 M 2.713015 2.19625 " transform="matrix(0.0302362, 0, 0, 0.0302362, 0, 0)"/>
<path fill-rule="nonzero" fill="rgb(100%, 100%, 100%)" fill-opacity="1" d="M 0.0820312 0.0664062 L 15.917969 0.0664062 C 15.925781 0.0664062 15.933594 0.0742188 15.933594 0.0820312 L 15.933594 15.917969 C 15.933594 15.925781 15.925781 15.933594 15.917969 15.933594 L 0.0820312 15.933594 C 0.0742188 15.933594 0.0664062 15.925781 0.0664062 15.917969 L 0.0664062 0.0820312 C 0.0664062 0.0742188 0.0742188 0.0664062 0.0820312 0.0664062 Z M 0.0820312 0.0664062 "/>
<path fill-rule="nonzero" fill="rgb(0%, 0%, 0%)" fill-opacity="1" d="M 5.921875 6.921875 L 5.921875 4 L 6.3125 4 L 6.3125 6.609375 L 7.871094 6.609375 L 7.871094 6.921875 Z M 7.65625 4.3125 L 7.65625 4 L 10.148438 4 L 10.148438 4.3125 L 9.101562 4.3125 L 9.101562 6.921875 L 8.710938 6.921875 L 8.710938 4.3125 Z M 7.65625 4.3125 "/>
<path fill-rule="nonzero" fill="rgb(0%, 0%, 0%)" fill-opacity="1" d="M 2.734375 11.949219 L 2.734375 9.023438 L 4.839844 9.023438 L 4.839844 9.339844 L 3.125 9.339844 L 3.125 10.292969 L 4.710938 10.292969 L 4.710938 10.609375 L 3.125 10.609375 L 3.125 11.632812 L 4.839844 11.632812 L 4.839844 11.949219 Z M 5.097656 9.339844 L 5.097656 9.023438 L 7.59375 9.023438 L 7.59375 9.339844 L 6.542969 9.339844 L 6.542969 11.949219 L 6.152344 11.949219 L 6.152344 9.339844 Z M 9.199219 11.996094 C 8.898438 11.996094 8.636719 11.929688 8.414062 11.804688 C 8.191406 11.671875 8.015625 11.496094 7.890625 11.269531 C 7.765625 11.042969 7.703125 10.78125 7.703125 10.488281 C 7.703125 10.191406 7.765625 9.929688 7.890625 9.703125 C 8.015625 9.476562 8.1875 9.300781 8.414062 9.171875 C 8.636719 9.042969 8.898438 8.976562 9.199219 8.976562 C 9.367188 8.976562 9.523438 9 9.671875 9.046875 C 9.820312 9.089844 9.953125 9.15625 10.070312 9.246094 C 10.191406 9.332031 10.289062 9.4375 10.367188 9.558594 C 10.445312 9.679688 10.5 9.816406 10.53125 9.96875 L 10.128906 9.96875 C 10.105469 9.863281 10.0625 9.769531 10.007812 9.6875 C 9.949219 9.605469 9.882812 9.535156 9.800781 9.480469 C 9.71875 9.421875 9.628906 9.378906 9.523438 9.351562 C 9.425781 9.320312 9.316406 9.304688 9.199219 9.304688 C 8.96875 9.304688 8.773438 9.355469 8.609375 9.457031 C 8.445312 9.558594 8.316406 9.695312 8.226562 9.875 C 8.136719 10.050781 8.09375 10.253906 8.09375 10.488281 C 8.09375 10.71875 8.136719 10.925781 8.226562 11.101562 C 8.316406 11.277344 8.445312 11.414062 8.609375 11.515625 C 8.773438 11.617188 8.96875 11.664062 9.199219 11.664062 C 9.316406 11.664062 9.425781 11.652344 9.523438 11.621094 C 9.625 11.59375 9.71875 11.550781 9.796875 11.496094 C 9.878906 11.4375 9.949219 11.371094 10.003906 11.289062 C 10.0625 11.207031 10.105469 11.113281 10.132812 11.007812 L 10.53125 11.007812 C 10.5 11.160156 10.445312 11.296875 10.367188 11.417969 C 10.289062 11.539062 10.191406 11.640625 10.070312 11.730469 C 9.953125 11.816406 9.820312 11.882812 9.671875 11.925781 C 9.523438 11.972656 9.367188 11.996094 9.199219 11.996094 Z M 12.105469 11.996094 C 11.855469 11.996094 11.640625 11.957031 11.457031 11.875 C 11.277344 11.792969 11.136719 11.679688 11.035156 11.53125 C 10.9375 11.382812 10.886719 11.210938 10.886719 11.007812 L 11.285156 11.007812 C 11.285156 11.144531 11.316406 11.265625 11.378906 11.367188 C 11.445312 11.464844 11.539062 11.542969 11.664062 11.59375 C 11.785156 11.648438 11.933594 11.671875 12.105469 11.671875 C 12.261719 11.671875 12.398438 11.652344 12.515625 11.609375 C 12.632812 11.570312 12.722656 11.507812 12.789062 11.433594 C 12.855469 11.355469 12.886719 11.265625 12.886719 11.160156 C 12.886719 11.078125 12.867188 11.007812 12.824219 10.949219 C 12.78125 10.886719 12.714844 10.835938 12.621094 10.789062 C 12.527344 10.746094 12.402344 10.703125 12.246094 10.671875 L 11.882812 10.589844 C 11.554688 10.515625 11.316406 10.417969 11.171875 10.296875 C 11.023438 10.171875 10.949219 10.011719 10.949219 9.8125 C 10.949219 9.644531 10.996094 9.496094 11.085938 9.375 C 11.179688 9.246094 11.308594 9.148438 11.476562 9.082031 C 11.644531 9.011719 11.84375 8.976562 12.066406 8.976562 C 12.289062 8.976562 12.484375 9.015625 12.648438 9.089844 C 12.816406 9.160156 12.945312 9.265625 13.039062 9.402344 C 13.128906 9.539062 13.179688 9.699219 13.1875 9.886719 L 12.800781 9.886719 C 12.789062 9.703125 12.714844 9.5625 12.582031 9.457031 C 12.449219 9.351562 12.273438 9.300781 12.054688 9.300781 C 11.914062 9.300781 11.789062 9.320312 11.683594 9.363281 C 11.574219 9.40625 11.492188 9.464844 11.429688 9.539062 C 11.367188 9.613281 11.335938 9.699219 11.335938 9.796875 C 11.335938 9.871094 11.359375 9.9375 11.402344 9.992188 C 11.445312 10.050781 11.515625 10.097656 11.609375 10.144531 C 11.703125 10.1875 11.828125 10.226562 11.984375 10.261719 L 12.351562 10.34375 C 12.511719 10.378906 12.648438 10.421875 12.761719 10.46875 C 12.878906 10.519531 12.972656 10.578125 13.050781 10.644531 C 13.125 10.707031 13.183594 10.785156 13.21875 10.867188 C 13.257812 10.949219 13.277344 11.042969 13.277344 11.144531 C 13.277344 11.3125 13.226562 11.460938 13.128906 11.589844 C 13.03125 11.71875 12.894531 11.816406 12.71875 11.890625 C 12.542969 11.960938 12.339844 11.996094 12.105469 11.996094 Z M 12.105469 11.996094 "/>
</svg>
