<?xml version="1.0" encoding="UTF-8"?>
<svg xmlns="http://www.w3.org/2000/svg" xmlns:xlink="http://www.w3.org/1999/xlink" width="16" height="16" viewBox="0 0 16 16">
<path fill-rule="nonzero" fill="rgb(0%, 0%, 0%)" fill-opacity="1" d="M 15.679688 16 C 15.855469 16 16 15.855469 16 15.679688 L 16 0.320312 C 16 0.144531 15.855469 0 15.679688 0 L 0.320312 0 C 0.144531 0 0 0.144531 0 0.320312 L 0 15.679688 C 0 15.855469 0.144531 16 0.320312 16 Z M 15.441406 15.679688 L 0.558594 15.679688 C 0.425781 15.679688 0.320312 15.574219 0.320312 15.441406 L 0.320312 0.558594 C 0.320312 0.425781 0.425781 0.320312 0.558594 0.320312 L 15.441406 0.320312 C 15.574219 0.320312 15.679688 0.425781 15.679688 0.558594 L 15.679688 15.441406 C 15.679688 15.574219 15.574219 15.679688 15.441406 15.679688 Z M 15.441406 15.679688 "/>
<path fill-rule="nonzero" fill="rgb(100%, 100%, 100%)" fill-opacity="1" stroke-width="0.211666" stroke-linecap="butt" stroke-linejoin="miter" stroke="rgb(0%, 0%, 0%)" stroke-opacity="1" stroke-miterlimit="4" d="M 1823.787359 1851.930802 L 65.975612 1851.930802 C 50.289102 1851.930802 37.832169 1839.473868 37.832169 1823.787359 L 37.832169 65.975612 C 37.832169 50.289102 50.289102 37.832169 65.975612 37.832169 L 1823.787359 37.832169 C 1839.473868 37.832169 1851.930802 50.289102 1851.930802 65.975612 L 1851.930802 1823.787359 C 1851.930802 1839.473868 1839.473868 1851.930802 1823.787359 1851.930802 Z M 1823.787359 1851.930802 " transform="matrix(0.00846667, 0, 0, 0.00846667, 0, 0)"/>
<path fill-rule="nonzero" fill="rgb(0%, 0%, 0%)" fill-opacity="1" stroke-width="0.220486" stroke-linecap="butt" stroke-linejoin="miter" stroke="rgb(0%, 0%, 0%)" stroke-opacity="1" stroke-miterlimit="4" d="M 94.580422 1254.920723 L 944.881485 1254.920723 L 944.881485 1795.182549 L 1851.930802 944.881485 L 944.881485 94.580422 L 944.881485 634.842248 L 94.580422 634.842248 Z M 94.580422 1254.920723 " transform="matrix(0.00846667, 0, 0, 0.00846667, 0, 0)"/>
</svg>
