<?xml version="1.0" encoding="UTF-8"?>
<svg xmlns="http://www.w3.org/2000/svg" xmlns:xlink="http://www.w3.org/1999/xlink" width="16" height="16" viewBox="0 0 16 16">
<path fill-rule="nonzero" fill="rgb(0%, 0%, 0%)" fill-opacity="1" d="M 0.320312 16 C 0.144531 16 0 15.855469 0 15.679688 L 0 0.320312 C 0 0.144531 0.144531 0 0.320312 0 L 15.679688 0 C 15.855469 0 16 0.144531 16 0.320312 L 16 15.679688 C 16 15.855469 15.855469 16 15.679688 16 Z M 0.558594 15.679688 L 15.441406 15.679688 C 15.574219 15.679688 15.679688 15.574219 15.679688 15.441406 L 15.679688 0.558594 C 15.679688 0.425781 15.574219 0.320312 15.441406 0.320312 L 0.558594 0.320312 C 0.425781 0.320312 0.320312 0.425781 0.320312 0.558594 L 0.320312 15.441406 C 0.320312 15.574219 0.425781 15.679688 0.558594 15.679688 Z M 0.558594 15.679688 "/>
<path fill-rule="nonzero" fill="rgb(100%, 100%, 100%)" fill-opacity="1" stroke-width="0.211666" stroke-linecap="butt" stroke-linejoin="miter" stroke="rgb(0%, 0%, 0%)" stroke-opacity="1" stroke-miterlimit="4" d="M 0.558594 15.679688 L 15.441406 15.679688 C 15.574219 15.679688 15.679688 15.574219 15.679688 15.441406 L 15.679688 0.558594 C 15.679688 0.425781 15.574219 0.320312 15.441406 0.320312 L 0.558594 0.320312 C 0.425781 0.320312 0.320312 0.425781 0.320312 0.558594 L 0.320312 15.441406 C 0.320312 15.574219 0.425781 15.679688 0.558594 15.679688 Z M 0.558594 15.679688 "/>
<path fill-rule="nonzero" fill="rgb(0%, 0%, 0%)" fill-opacity="1" stroke-width="0.220486" stroke-linecap="butt" stroke-linejoin="miter" stroke="rgb(0%, 0%, 0%)" stroke-opacity="1" stroke-miterlimit="4" d="M 15.199219 10.625 L 8 10.625 L 8 15.199219 L 0.320312 8 L 8 0.800781 L 8 5.375 L 15.199219 5.375 Z M 15.199219 10.625 "/>
</svg>
