<?xml version="1.0" encoding="UTF-8"?>
<svg xmlns="http://www.w3.org/2000/svg" xmlns:xlink="http://www.w3.org/1999/xlink" width="16" height="16" viewBox="0 0 16 16">
<path fill-rule="nonzero" fill="rgb(0%, 36.470588%, 81.960784%)" fill-opacity="1" stroke-width="0.220486" stroke-linecap="butt" stroke-linejoin="miter" stroke="rgb(100%, 100%, 100%)" stroke-opacity="1" stroke-miterlimit="4" d="M 37.832169 0 L 1851.930802 0 C 1872.692358 0 1889.762971 17.070613 1889.762971 37.832169 L 1889.762971 1851.930802 C 1889.762971 1872.692358 1872.692358 1889.762971 1851.930802 1889.762971 L 37.832169 1889.762971 C 17.070613 1889.762971 0 1872.692358 0 1851.930802 L 0 37.832169 C 0 17.070613 17.070613 0 37.832169 0 Z M 37.832169 0 " transform="matrix(0.00846667, 0, 0, 0.00846667, 0, 0)"/>
<path fill-rule="nonzero" fill="rgb(100%, 100%, 100%)" fill-opacity="1" d="M 0.800781 10.625 L 8 10.613281 L 8 15.199219 L 16 8 L 8 0.800781 L 8 5.359375 L 0.800781 5.375 Z M 0.800781 10.625 "/>
<path fill-rule="nonzero" fill="rgb(95.294118%, 87.058824%, 21.960784%)" fill-opacity="1" d="M 8.800781 6.175781 L 8.800781 2.59375 L 14.804688 8 L 8.800781 13.40625 L 8.800781 9.824219 L 0.800781 9.824219 L 0.800781 6.175781 Z M 8.800781 6.175781 "/>
</svg>
