<?xml version="1.0" encoding="UTF-8"?>
<svg xmlns="http://www.w3.org/2000/svg" xmlns:xlink="http://www.w3.org/1999/xlink" width="16" height="16" viewBox="0 0 16 16">
<path fill-rule="nonzero" fill="rgb(0%, 36.470588%, 81.960784%)" fill-opacity="1" stroke-width="0.220486" stroke-linecap="butt" stroke-linejoin="miter" stroke="rgb(100%, 100%, 100%)" stroke-opacity="1" stroke-miterlimit="4" d="M 15.679688 0 L 0.320312 0 C 0.144531 0 0 0.144531 0 0.320312 L 0 15.679688 C 0 15.855469 0.144531 16 0.320312 16 L 15.679688 16 C 15.855469 16 16 15.855469 16 15.679688 L 16 0.320312 C 16 0.144531 15.855469 0 15.679688 0 Z M 15.679688 0 "/>
<path fill-rule="nonzero" fill="rgb(100%, 100%, 100%)" fill-opacity="1" d="M 15.199219 10.625 L 8 10.613281 L 8 15.199219 L 0 8 L 8 0.800781 L 8 5.359375 L 15.199219 5.375 Z M 15.199219 10.625 "/>
<path fill-rule="nonzero" fill="rgb(95.294118%, 87.058824%, 21.960784%)" fill-opacity="1" d="M 7.199219 6.175781 L 7.199219 2.59375 L 1.195312 8 L 7.199219 13.40625 L 7.199219 9.824219 L 15.199219 9.824219 L 15.199219 6.175781 Z M 7.199219 6.175781 "/>
</svg>
