<?xml version="1.0" encoding="UTF-8"?>
<svg xmlns="http://www.w3.org/2000/svg" xmlns:xlink="http://www.w3.org/1999/xlink" width="11" height="36" viewBox="0 0 11 36">
<rect x="-1.1" y="-3.6" width="13.2" height="43.2" fill="rgb(0%, 0%, 0%)" fill-opacity="1"/>
<path fill-rule="nonzero" fill="rgb(100%, 100%, 100%)" fill-opacity="1" d="M 0.800781 0.800781 L 10.199219 0.800781 L 10.199219 35.199219 L 0.800781 35.199219 Z M 0.800781 0.800781 "/>
<path fill-rule="nonzero" fill="rgb(0%, 0%, 0%)" fill-opacity="1" d="M 6.910156 11.898438 L 5.125 11.898438 L 5.125 5.179688 C 4.472656 5.789062 3.707031 6.238281 2.820312 6.53125 L 2.820312 4.910156 C 3.285156 4.757812 3.792969 4.46875 4.339844 4.042969 C 4.882812 3.621094 5.257812 3.125 5.460938 2.554688 L 6.910156 2.554688 Z M 6.910156 11.898438 "/>
<path fill-rule="nonzero" fill="rgb(0%, 0%, 0%)" fill-opacity="1" d="M 5.5 13.167969 C 6.402344 13.167969 7.105469 13.492188 7.613281 14.132812 C 8.21875 14.894531 8.523438 16.160156 8.523438 17.921875 C 8.523438 19.683594 8.21875 20.949219 7.609375 21.71875 C 7.105469 22.355469 6.402344 22.671875 5.5 22.671875 C 4.59375 22.671875 3.863281 22.324219 3.308594 21.628906 C 2.753906 20.929688 2.476562 19.691406 2.476562 17.90625 C 2.476562 16.152344 2.78125 14.890625 3.390625 14.121094 C 3.894531 13.488281 4.597656 13.167969 5.5 13.167969 Z M 5.5 14.648438 C 5.285156 14.648438 5.089844 14.71875 4.921875 14.855469 C 4.753906 14.992188 4.621094 15.238281 4.527344 15.59375 C 4.40625 16.054688 4.34375 16.832031 4.34375 17.921875 C 4.34375 19.015625 4.398438 19.765625 4.507812 20.175781 C 4.621094 20.582031 4.757812 20.855469 4.925781 20.988281 C 5.09375 21.125 5.285156 21.191406 5.5 21.191406 C 5.714844 21.191406 5.910156 21.125 6.078125 20.988281 C 6.246094 20.847656 6.378906 20.601562 6.472656 20.246094 C 6.59375 19.789062 6.65625 19.015625 6.65625 17.921875 C 6.65625 16.832031 6.601562 16.082031 6.492188 15.671875 C 6.378906 15.265625 6.242188 14.992188 6.074219 14.855469 C 5.90625 14.71875 5.714844 14.648438 5.5 14.648438 Z M 5.5 14.648438 "/>
<path fill-rule="nonzero" fill="rgb(0%, 0%, 0%)" fill-opacity="1" d="M 5.5 23.941406 C 6.402344 23.941406 7.105469 24.261719 7.613281 24.90625 C 8.21875 25.667969 8.523438 26.929688 8.523438 28.695312 C 8.523438 30.457031 8.21875 31.722656 7.609375 32.492188 C 7.105469 33.125 6.402344 33.445312 5.5 33.445312 C 4.59375 33.445312 3.863281 33.097656 3.308594 32.398438 C 2.753906 31.703125 2.476562 30.460938 2.476562 28.675781 C 2.476562 26.925781 2.78125 25.664062 3.390625 24.894531 C 3.894531 24.257812 4.597656 23.941406 5.5 23.941406 Z M 5.5 25.421875 C 5.285156 25.421875 5.089844 25.488281 4.921875 25.625 C 4.753906 25.765625 4.621094 26.011719 4.527344 26.367188 C 4.40625 26.828125 4.34375 27.605469 4.34375 28.695312 C 4.34375 29.789062 4.398438 30.539062 4.507812 30.945312 C 4.621094 31.355469 4.757812 31.625 4.925781 31.761719 C 5.09375 31.898438 5.285156 31.964844 5.5 31.964844 C 5.714844 31.964844 5.910156 31.894531 6.078125 31.757812 C 6.246094 31.621094 6.378906 31.375 6.472656 31.019531 C 6.59375 30.5625 6.65625 29.789062 6.65625 28.695312 C 6.65625 27.605469 6.601562 26.855469 6.492188 26.445312 C 6.378906 26.039062 6.242188 25.765625 6.074219 25.625 C 5.90625 25.488281 5.714844 25.421875 5.5 25.421875 Z M 5.5 25.421875 "/>
</svg>
