<?xml version="1.0" encoding="UTF-8"?>
<svg xmlns="http://www.w3.org/2000/svg" xmlns:xlink="http://www.w3.org/1999/xlink" width="11" height="36" viewBox="0 0 11 36">
<rect x="-1.1" y="-3.6" width="13.2" height="43.2" fill="rgb(0%, 0%, 0%)" fill-opacity="1"/>
<path fill-rule="nonzero" fill="rgb(100%, 100%, 100%)" fill-opacity="1" d="M 0.800781 0.800781 L 10.199219 0.800781 L 10.199219 35.199219 L 0.800781 35.199219 Z M 0.800781 0.800781 "/>
<path fill-rule="nonzero" fill="rgb(0%, 0%, 0%)" fill-opacity="1" d="M 6.910156 11.984375 L 5.125 11.984375 L 5.125 5.261719 C 4.472656 5.871094 3.707031 6.320312 2.820312 6.613281 L 2.820312 4.992188 C 3.285156 4.839844 3.792969 4.550781 4.339844 4.128906 C 4.882812 3.703125 5.257812 3.207031 5.460938 2.640625 L 6.910156 2.640625 Z M 6.910156 11.984375 "/>
<path fill-rule="nonzero" fill="rgb(0%, 0%, 0%)" fill-opacity="1" d="M 5.5 13.25 C 6.402344 13.25 7.105469 13.574219 7.613281 14.21875 C 8.21875 14.976562 8.523438 16.242188 8.523438 18.007812 C 8.523438 19.765625 8.21875 21.03125 7.609375 21.800781 C 7.105469 22.4375 6.402344 22.753906 5.5 22.753906 C 4.59375 22.753906 3.863281 22.40625 3.308594 21.710938 C 2.753906 21.015625 2.476562 19.773438 2.476562 17.988281 C 2.476562 16.234375 2.78125 14.972656 3.390625 14.203125 C 3.894531 13.570312 4.597656 13.25 5.5 13.25 Z M 5.5 14.730469 C 5.285156 14.730469 5.089844 14.800781 4.921875 14.9375 C 4.753906 15.074219 4.621094 15.320312 4.527344 15.675781 C 4.40625 16.136719 4.34375 16.914062 4.34375 18.007812 C 4.34375 19.097656 4.398438 19.847656 4.507812 20.257812 C 4.621094 20.664062 4.757812 20.9375 4.925781 21.070312 C 5.09375 21.207031 5.285156 21.273438 5.5 21.273438 C 5.714844 21.273438 5.910156 21.207031 6.078125 21.070312 C 6.246094 20.929688 6.378906 20.683594 6.472656 20.328125 C 6.59375 19.871094 6.65625 19.097656 6.65625 18.007812 C 6.65625 16.914062 6.601562 16.164062 6.492188 15.757812 C 6.378906 15.347656 6.242188 15.074219 6.074219 14.9375 C 5.90625 14.800781 5.714844 14.730469 5.5 14.730469 Z M 5.5 14.730469 "/>
<path fill-rule="nonzero" fill="rgb(0%, 0%, 0%)" fill-opacity="1" d="M 2.371094 30.808594 L 4.148438 30.625 C 4.199219 31.027344 4.347656 31.347656 4.597656 31.582031 C 4.847656 31.816406 5.136719 31.933594 5.460938 31.933594 C 5.835938 31.933594 6.148438 31.78125 6.40625 31.480469 C 6.664062 31.175781 6.796875 30.71875 6.796875 30.109375 C 6.796875 29.539062 6.667969 29.113281 6.410156 28.824219 C 6.15625 28.539062 5.820312 28.398438 5.410156 28.398438 C 4.898438 28.398438 4.441406 28.625 4.035156 29.078125 L 2.585938 28.867188 L 3.5 24.023438 L 8.21875 24.023438 L 8.21875 25.695312 L 4.851562 25.695312 L 4.574219 27.273438 C 4.972656 27.074219 5.378906 26.976562 5.792969 26.976562 C 6.582031 26.976562 7.253906 27.261719 7.804688 27.839844 C 8.355469 28.414062 8.628906 29.160156 8.628906 30.078125 C 8.628906 30.84375 8.40625 31.527344 7.960938 32.128906 C 7.359375 32.949219 6.519531 33.359375 5.441406 33.359375 C 4.582031 33.359375 3.882812 33.128906 3.34375 32.667969 C 2.800781 32.207031 2.476562 31.589844 2.371094 30.808594 Z M 2.371094 30.808594 "/>
</svg>
