<?xml version="1.0" encoding="UTF-8"?>
<svg xmlns="http://www.w3.org/2000/svg" xmlns:xlink="http://www.w3.org/1999/xlink" width="11" height="30" viewBox="0 0 11 30">
<rect x="-1.1" y="-3" width="13.2" height="36" fill="rgb(0%, 0%, 0%)" fill-opacity="1"/>
<path fill-rule="nonzero" fill="rgb(100%, 100%, 100%)" fill-opacity="1" d="M 0.800781 0.800781 L 10.199219 0.800781 L 10.199219 29.199219 L 0.800781 29.199219 Z M 0.800781 0.800781 "/>
<path fill-rule="nonzero" fill="rgb(0%, 0%, 0%)" fill-opacity="1" d="M 6.910156 14.285156 L 5.125 14.285156 L 5.125 7.5625 C 4.472656 8.171875 3.707031 8.625 2.820312 8.914062 L 2.820312 7.296875 C 3.285156 7.144531 3.792969 6.855469 4.339844 6.429688 C 4.882812 6.003906 5.257812 5.507812 5.460938 4.941406 L 6.910156 4.941406 Z M 6.910156 14.285156 "/>
<path fill-rule="nonzero" fill="rgb(0%, 0%, 0%)" fill-opacity="1" d="M 5.5 15.554688 C 6.402344 15.554688 7.105469 15.878906 7.613281 16.519531 C 8.21875 17.28125 8.523438 18.546875 8.523438 20.308594 C 8.523438 22.070312 8.21875 23.335938 7.609375 24.105469 C 7.105469 24.742188 6.402344 25.058594 5.5 25.058594 C 4.59375 25.058594 3.863281 24.710938 3.308594 24.015625 C 2.753906 23.316406 2.476562 22.078125 2.476562 20.289062 C 2.476562 18.539062 2.78125 17.277344 3.390625 16.507812 C 3.894531 15.871094 4.597656 15.554688 5.5 15.554688 Z M 5.5 17.035156 C 5.285156 17.035156 5.089844 17.101562 4.921875 17.242188 C 4.753906 17.378906 4.621094 17.625 4.527344 17.980469 C 4.40625 18.441406 4.34375 19.21875 4.34375 20.308594 C 4.34375 21.402344 4.398438 22.152344 4.507812 22.558594 C 4.621094 22.96875 4.757812 23.242188 4.925781 23.375 C 5.09375 23.511719 5.285156 23.578125 5.5 23.578125 C 5.714844 23.578125 5.910156 23.511719 6.078125 23.371094 C 6.246094 23.234375 6.378906 22.988281 6.472656 22.632812 C 6.59375 22.175781 6.65625 21.402344 6.65625 20.308594 C 6.65625 19.21875 6.601562 18.46875 6.492188 18.058594 C 6.378906 17.652344 6.242188 17.378906 6.074219 17.242188 C 5.90625 17.101562 5.714844 17.035156 5.5 17.035156 Z M 5.5 17.035156 "/>
</svg>
