<?xml version="1.0" encoding="UTF-8"?>
<svg xmlns="http://www.w3.org/2000/svg" xmlns:xlink="http://www.w3.org/1999/xlink" width="11" height="36" viewBox="0 0 11 36">
<rect x="-1.1" y="-3.6" width="13.2" height="43.2" fill="rgb(0%, 0%, 0%)" fill-opacity="1"/>
<path fill-rule="nonzero" fill="rgb(100%, 100%, 100%)" fill-opacity="1" d="M 0.800781 0.800781 L 10.199219 0.800781 L 10.199219 35.199219 L 0.800781 35.199219 Z M 0.800781 0.800781 "/>
<path fill-rule="nonzero" fill="rgb(0%, 0%, 0%)" fill-opacity="1" d="M 6.910156 11.980469 L 5.125 11.980469 L 5.125 5.257812 C 4.472656 5.867188 3.707031 6.316406 2.820312 6.609375 L 2.820312 4.992188 C 3.285156 4.839844 3.792969 4.550781 4.339844 4.125 C 4.882812 3.699219 5.257812 3.203125 5.460938 2.636719 L 6.910156 2.636719 Z M 6.910156 11.980469 "/>
<path fill-rule="nonzero" fill="rgb(0%, 0%, 0%)" fill-opacity="1" d="M 6.910156 22.59375 L 5.125 22.59375 L 5.125 15.871094 C 4.472656 16.480469 3.707031 16.929688 2.820312 17.222656 L 2.820312 15.605469 C 3.285156 15.453125 3.792969 15.164062 4.339844 14.738281 C 4.882812 14.3125 5.257812 13.816406 5.460938 13.25 L 6.910156 13.25 Z M 6.910156 22.59375 "/>
<path fill-rule="nonzero" fill="rgb(0%, 0%, 0%)" fill-opacity="1" d="M 5.5 23.863281 C 6.402344 23.863281 7.105469 24.183594 7.613281 24.828125 C 8.21875 25.589844 8.523438 26.851562 8.523438 28.617188 C 8.523438 30.375 8.21875 31.640625 7.609375 32.414062 C 7.105469 33.046875 6.402344 33.363281 5.5 33.363281 C 4.59375 33.363281 3.863281 33.015625 3.308594 32.320312 C 2.753906 31.625 2.476562 30.382812 2.476562 28.597656 C 2.476562 26.84375 2.78125 25.585938 3.390625 24.8125 C 3.894531 24.179688 4.597656 23.863281 5.5 23.863281 Z M 5.5 25.339844 C 5.285156 25.339844 5.089844 25.410156 4.921875 25.546875 C 4.753906 25.683594 4.621094 25.929688 4.527344 26.285156 C 4.40625 26.75 4.34375 27.523438 4.34375 28.617188 C 4.34375 29.707031 4.398438 30.457031 4.507812 30.867188 C 4.621094 31.273438 4.757812 31.546875 4.925781 31.683594 C 5.09375 31.816406 5.285156 31.886719 5.5 31.886719 C 5.714844 31.886719 5.910156 31.816406 6.078125 31.679688 C 6.246094 31.542969 6.378906 31.296875 6.472656 30.941406 C 6.59375 30.484375 6.65625 29.707031 6.65625 28.617188 C 6.65625 27.523438 6.601562 26.773438 6.492188 26.367188 C 6.378906 25.957031 6.242188 25.683594 6.074219 25.546875 C 5.90625 25.410156 5.714844 25.339844 5.5 25.339844 Z M 5.5 25.339844 "/>
</svg>
