<?xml version="1.0" encoding="UTF-8"?>
<svg xmlns="http://www.w3.org/2000/svg" xmlns:xlink="http://www.w3.org/1999/xlink" width="11" height="36" viewBox="0 0 11 36">
<rect x="-1.1" y="-3.6" width="13.2" height="43.2" fill="rgb(0%, 0%, 0%)" fill-opacity="1"/>
<path fill-rule="nonzero" fill="rgb(100%, 100%, 100%)" fill-opacity="1" d="M 0.800781 0.800781 L 10.199219 0.800781 L 10.199219 35.199219 L 0.800781 35.199219 Z M 0.800781 0.800781 "/>
<path fill-rule="nonzero" fill="rgb(0%, 0%, 0%)" fill-opacity="1" d="M 6.910156 11.980469 L 5.125 11.980469 L 5.125 5.257812 C 4.472656 5.867188 3.707031 6.316406 2.820312 6.609375 L 2.820312 4.992188 C 3.285156 4.839844 3.792969 4.550781 4.339844 4.125 C 4.882812 3.699219 5.257812 3.203125 5.460938 2.636719 L 6.910156 2.636719 Z M 6.910156 11.980469 "/>
<path fill-rule="nonzero" fill="rgb(0%, 0%, 0%)" fill-opacity="1" d="M 8.625 20.9375 L 8.625 22.59375 L 2.375 22.59375 C 2.441406 21.964844 2.644531 21.371094 2.984375 20.8125 C 3.320312 20.25 3.992188 19.507812 4.988281 18.582031 C 5.792969 17.832031 6.285156 17.324219 6.46875 17.058594 C 6.714844 16.6875 6.835938 16.324219 6.835938 15.964844 C 6.835938 15.566406 6.730469 15.261719 6.515625 15.046875 C 6.300781 14.835938 6.007812 14.726562 5.628906 14.726562 C 5.257812 14.726562 4.960938 14.839844 4.742188 15.0625 C 4.519531 15.289062 4.394531 15.660156 4.359375 16.179688 L 2.582031 16.003906 C 2.6875 15.023438 3.019531 14.316406 3.578125 13.890625 C 4.136719 13.460938 4.835938 13.25 5.675781 13.25 C 6.59375 13.25 7.3125 13.496094 7.839844 13.992188 C 8.363281 14.488281 8.625 15.101562 8.625 15.839844 C 8.625 16.257812 8.550781 16.65625 8.402344 17.035156 C 8.25 17.414062 8.011719 17.8125 7.6875 18.226562 C 7.472656 18.5 7.082031 18.894531 6.519531 19.414062 C 5.957031 19.929688 5.597656 20.269531 5.449219 20.441406 C 5.300781 20.609375 5.175781 20.773438 5.085938 20.9375 Z M 8.625 20.9375 "/>
<path fill-rule="nonzero" fill="rgb(0%, 0%, 0%)" fill-opacity="1" d="M 5.5 23.863281 C 6.402344 23.863281 7.105469 24.183594 7.613281 24.828125 C 8.21875 25.589844 8.523438 26.851562 8.523438 28.617188 C 8.523438 30.375 8.21875 31.640625 7.609375 32.414062 C 7.105469 33.046875 6.402344 33.363281 5.5 33.363281 C 4.59375 33.363281 3.863281 33.015625 3.308594 32.320312 C 2.753906 31.625 2.476562 30.382812 2.476562 28.597656 C 2.476562 26.84375 2.78125 25.585938 3.390625 24.8125 C 3.894531 24.179688 4.597656 23.863281 5.5 23.863281 Z M 5.5 25.339844 C 5.285156 25.339844 5.089844 25.410156 4.921875 25.546875 C 4.753906 25.683594 4.621094 25.929688 4.527344 26.285156 C 4.40625 26.75 4.34375 27.523438 4.34375 28.617188 C 4.34375 29.707031 4.398438 30.457031 4.507812 30.867188 C 4.621094 31.273438 4.757812 31.546875 4.925781 31.683594 C 5.09375 31.816406 5.285156 31.886719 5.5 31.886719 C 5.714844 31.886719 5.910156 31.816406 6.078125 31.679688 C 6.246094 31.542969 6.378906 31.296875 6.472656 30.941406 C 6.59375 30.484375 6.65625 29.707031 6.65625 28.617188 C 6.65625 27.523438 6.601562 26.773438 6.492188 26.367188 C 6.378906 25.957031 6.242188 25.683594 6.074219 25.546875 C 5.90625 25.410156 5.714844 25.339844 5.5 25.339844 Z M 5.5 25.339844 "/>
</svg>
