<?xml version="1.0" encoding="UTF-8"?>
<svg xmlns="http://www.w3.org/2000/svg" xmlns:xlink="http://www.w3.org/1999/xlink" width="11" height="36" viewBox="0 0 11 36">
<rect x="-1.1" y="-3.6" width="13.2" height="43.2" fill="rgb(0%, 0%, 0%)" fill-opacity="1"/>
<path fill-rule="nonzero" fill="rgb(100%, 100%, 100%)" fill-opacity="1" d="M 0.800781 0.800781 L 10.199219 0.800781 L 10.199219 35.199219 L 0.800781 35.199219 Z M 0.800781 0.800781 "/>
<path fill-rule="nonzero" fill="rgb(0%, 0%, 0%)" fill-opacity="1" d="M 6.910156 12.0625 L 5.125 12.0625 L 5.125 5.339844 C 4.472656 5.949219 3.707031 6.398438 2.820312 6.691406 L 2.820312 5.074219 C 3.285156 4.921875 3.792969 4.632812 4.339844 4.207031 C 4.882812 3.78125 5.257812 3.285156 5.460938 2.71875 L 6.910156 2.71875 Z M 6.910156 12.0625 "/>
<path fill-rule="nonzero" fill="rgb(0%, 0%, 0%)" fill-opacity="1" d="M 8.625 21.019531 L 8.625 22.675781 L 2.375 22.675781 C 2.441406 22.046875 2.644531 21.457031 2.984375 20.894531 C 3.320312 20.332031 3.992188 19.589844 4.988281 18.664062 C 5.792969 17.914062 6.285156 17.40625 6.46875 17.140625 C 6.714844 16.773438 6.835938 16.40625 6.835938 16.046875 C 6.835938 15.648438 6.730469 15.34375 6.515625 15.132812 C 6.300781 14.917969 6.007812 14.808594 5.628906 14.808594 C 5.257812 14.808594 4.960938 14.921875 4.742188 15.148438 C 4.519531 15.371094 4.394531 15.742188 4.359375 16.265625 L 2.582031 16.085938 C 2.6875 15.105469 3.019531 14.398438 3.578125 13.972656 C 4.136719 13.546875 4.835938 13.332031 5.675781 13.332031 C 6.59375 13.332031 7.3125 13.578125 7.839844 14.074219 C 8.363281 14.570312 8.625 15.183594 8.625 15.921875 C 8.625 16.339844 8.550781 16.738281 8.402344 17.117188 C 8.25 17.496094 8.011719 17.894531 7.6875 18.308594 C 7.472656 18.582031 7.082031 18.980469 6.519531 19.496094 C 5.957031 20.011719 5.597656 20.355469 5.449219 20.523438 C 5.300781 20.691406 5.175781 20.859375 5.085938 21.019531 Z M 8.625 21.019531 "/>
<path fill-rule="nonzero" fill="rgb(0%, 0%, 0%)" fill-opacity="1" d="M 2.371094 30.730469 L 4.148438 30.546875 C 4.199219 30.949219 4.347656 31.265625 4.597656 31.5 C 4.847656 31.734375 5.136719 31.855469 5.460938 31.855469 C 5.835938 31.855469 6.148438 31.703125 6.40625 31.398438 C 6.664062 31.097656 6.796875 30.640625 6.796875 30.03125 C 6.796875 29.460938 6.667969 29.03125 6.410156 28.746094 C 6.15625 28.460938 5.820312 28.316406 5.410156 28.316406 C 4.898438 28.316406 4.441406 28.542969 4.035156 28.996094 L 2.585938 28.789062 L 3.5 23.945312 L 8.21875 23.945312 L 8.21875 25.613281 L 4.851562 25.613281 L 4.574219 27.195312 C 4.972656 26.996094 5.378906 26.894531 5.792969 26.894531 C 6.582031 26.894531 7.253906 27.183594 7.804688 27.757812 C 8.355469 28.335938 8.628906 29.082031 8.628906 30 C 8.628906 30.765625 8.40625 31.449219 7.960938 32.050781 C 7.359375 32.871094 6.519531 33.28125 5.441406 33.28125 C 4.582031 33.28125 3.882812 33.050781 3.34375 32.589844 C 2.800781 32.128906 2.476562 31.507812 2.371094 30.730469 Z M 2.371094 30.730469 "/>
</svg>
