<?xml version="1.0" encoding="UTF-8"?>
<svg xmlns="http://www.w3.org/2000/svg" xmlns:xlink="http://www.w3.org/1999/xlink" width="11" height="36" viewBox="0 0 11 36">
<rect x="-1.1" y="-3.6" width="13.2" height="43.2" fill="rgb(0%, 0%, 0%)" fill-opacity="1"/>
<path fill-rule="nonzero" fill="rgb(100%, 100%, 100%)" fill-opacity="1" d="M 0.800781 0.800781 L 10.199219 0.800781 L 10.199219 35.199219 L 0.800781 35.199219 Z M 0.800781 0.800781 "/>
<path fill-rule="nonzero" fill="rgb(0%, 0%, 0%)" fill-opacity="1" d="M 6.910156 11.898438 L 5.125 11.898438 L 5.125 5.179688 C 4.472656 5.789062 3.707031 6.238281 2.820312 6.53125 L 2.820312 4.910156 C 3.285156 4.757812 3.792969 4.46875 4.339844 4.042969 C 4.882812 3.621094 5.257812 3.125 5.460938 2.554688 L 6.910156 2.554688 Z M 6.910156 11.898438 "/>
<path fill-rule="nonzero" fill="rgb(0%, 0%, 0%)" fill-opacity="1" d="M 2.410156 20.042969 L 4.136719 19.835938 C 4.191406 20.273438 4.339844 20.609375 4.578125 20.84375 C 4.820312 21.078125 5.113281 21.191406 5.457031 21.191406 C 5.824219 21.191406 6.132812 21.054688 6.386719 20.773438 C 6.636719 20.496094 6.761719 20.117188 6.761719 19.644531 C 6.761719 19.195312 6.640625 18.839844 6.402344 18.578125 C 6.160156 18.316406 5.867188 18.183594 5.519531 18.183594 C 5.289062 18.183594 5.015625 18.226562 4.699219 18.316406 L 4.898438 16.863281 C 5.378906 16.875 5.746094 16.773438 6 16.550781 C 6.253906 16.328125 6.382812 16.03125 6.382812 15.664062 C 6.382812 15.351562 6.289062 15.101562 6.101562 14.914062 C 5.917969 14.730469 5.667969 14.636719 5.359375 14.636719 C 5.054688 14.636719 4.796875 14.742188 4.578125 14.953125 C 4.363281 15.164062 4.234375 15.472656 4.1875 15.878906 L 2.542969 15.601562 C 2.65625 15.039062 2.828125 14.589844 3.058594 14.25 C 3.289062 13.914062 3.613281 13.652344 4.023438 13.457031 C 4.4375 13.265625 4.898438 13.167969 5.410156 13.167969 C 6.289062 13.167969 6.988281 13.449219 7.519531 14.007812 C 7.953125 14.464844 8.171875 14.980469 8.171875 15.554688 C 8.171875 16.371094 7.726562 17.023438 6.832031 17.511719 C 7.367188 17.625 7.792969 17.882812 8.113281 18.28125 C 8.429688 18.675781 8.589844 19.15625 8.589844 19.71875 C 8.589844 20.535156 8.292969 21.234375 7.695312 21.808594 C 7.101562 22.382812 6.355469 22.671875 5.46875 22.671875 C 4.625 22.671875 3.929688 22.429688 3.375 21.945312 C 2.820312 21.460938 2.496094 20.828125 2.410156 20.042969 Z M 2.410156 20.042969 "/>
<path fill-rule="nonzero" fill="rgb(0%, 0%, 0%)" fill-opacity="1" d="M 5.5 23.941406 C 6.402344 23.941406 7.105469 24.261719 7.613281 24.90625 C 8.21875 25.667969 8.523438 26.929688 8.523438 28.695312 C 8.523438 30.457031 8.21875 31.722656 7.609375 32.492188 C 7.105469 33.125 6.402344 33.445312 5.5 33.445312 C 4.59375 33.445312 3.863281 33.097656 3.308594 32.398438 C 2.753906 31.703125 2.476562 30.460938 2.476562 28.675781 C 2.476562 26.925781 2.78125 25.664062 3.390625 24.894531 C 3.894531 24.257812 4.597656 23.941406 5.5 23.941406 Z M 5.5 25.421875 C 5.285156 25.421875 5.089844 25.488281 4.921875 25.625 C 4.753906 25.765625 4.621094 26.011719 4.527344 26.367188 C 4.40625 26.828125 4.34375 27.605469 4.34375 28.695312 C 4.34375 29.789062 4.398438 30.539062 4.507812 30.945312 C 4.621094 31.355469 4.757812 31.625 4.925781 31.761719 C 5.09375 31.898438 5.285156 31.964844 5.5 31.964844 C 5.714844 31.964844 5.910156 31.894531 6.078125 31.757812 C 6.246094 31.621094 6.378906 31.375 6.472656 31.019531 C 6.59375 30.5625 6.65625 29.789062 6.65625 28.695312 C 6.65625 27.605469 6.601562 26.855469 6.492188 26.445312 C 6.378906 26.039062 6.242188 25.765625 6.074219 25.625 C 5.90625 25.488281 5.714844 25.421875 5.5 25.421875 Z M 5.5 25.421875 "/>
</svg>
