<?xml version="1.0" encoding="UTF-8"?>
<svg xmlns="http://www.w3.org/2000/svg" xmlns:xlink="http://www.w3.org/1999/xlink" width="11" height="36" viewBox="0 0 11 36">
<rect x="-1.1" y="-3.6" width="13.2" height="43.2" fill="rgb(0%, 0%, 0%)" fill-opacity="1"/>
<path fill-rule="nonzero" fill="rgb(100%, 100%, 100%)" fill-opacity="1" d="M 0.800781 0.800781 L 10.199219 0.800781 L 10.199219 35.199219 L 0.800781 35.199219 Z M 0.800781 0.800781 "/>
<path fill-rule="nonzero" fill="rgb(0%, 0%, 0%)" fill-opacity="1" d="M 6.910156 11.984375 L 5.125 11.984375 L 5.125 5.261719 C 4.472656 5.871094 3.707031 6.320312 2.820312 6.613281 L 2.820312 4.992188 C 3.285156 4.839844 3.792969 4.550781 4.339844 4.128906 C 4.882812 3.703125 5.257812 3.207031 5.460938 2.640625 L 6.910156 2.640625 Z M 6.910156 11.984375 "/>
<path fill-rule="nonzero" fill="rgb(0%, 0%, 0%)" fill-opacity="1" d="M 2.410156 20.125 L 4.136719 19.917969 C 4.191406 20.355469 4.339844 20.695312 4.578125 20.925781 C 4.820312 21.160156 5.113281 21.273438 5.457031 21.273438 C 5.824219 21.273438 6.132812 21.136719 6.386719 20.855469 C 6.636719 20.578125 6.761719 20.199219 6.761719 19.726562 C 6.761719 19.277344 6.640625 18.921875 6.402344 18.660156 C 6.160156 18.398438 5.867188 18.265625 5.519531 18.265625 C 5.289062 18.265625 5.015625 18.3125 4.699219 18.398438 L 4.898438 16.945312 C 5.378906 16.960938 5.746094 16.855469 6 16.632812 C 6.253906 16.410156 6.382812 16.113281 6.382812 15.746094 C 6.382812 15.433594 6.289062 15.183594 6.101562 14.996094 C 5.917969 14.8125 5.667969 14.71875 5.359375 14.71875 C 5.054688 14.71875 4.796875 14.824219 4.578125 15.035156 C 4.363281 15.246094 4.234375 15.554688 4.1875 15.960938 L 2.542969 15.683594 C 2.65625 15.121094 2.828125 14.671875 3.058594 14.335938 C 3.289062 13.996094 3.613281 13.734375 4.023438 13.539062 C 4.4375 13.347656 4.898438 13.25 5.410156 13.25 C 6.289062 13.25 6.988281 13.53125 7.519531 14.089844 C 7.953125 14.546875 8.171875 15.0625 8.171875 15.640625 C 8.171875 16.457031 7.726562 17.105469 6.832031 17.59375 C 7.367188 17.707031 7.792969 17.964844 8.113281 18.363281 C 8.429688 18.757812 8.589844 19.238281 8.589844 19.804688 C 8.589844 20.621094 8.292969 21.316406 7.695312 21.890625 C 7.101562 22.464844 6.355469 22.753906 5.46875 22.753906 C 4.625 22.753906 3.929688 22.511719 3.375 22.027344 C 2.820312 21.542969 2.496094 20.910156 2.410156 20.125 Z M 2.410156 20.125 "/>
<path fill-rule="nonzero" fill="rgb(0%, 0%, 0%)" fill-opacity="1" d="M 2.371094 30.808594 L 4.148438 30.625 C 4.199219 31.027344 4.347656 31.347656 4.597656 31.582031 C 4.847656 31.816406 5.136719 31.933594 5.460938 31.933594 C 5.835938 31.933594 6.148438 31.78125 6.40625 31.480469 C 6.664062 31.175781 6.796875 30.71875 6.796875 30.109375 C 6.796875 29.539062 6.667969 29.113281 6.410156 28.824219 C 6.15625 28.539062 5.820312 28.398438 5.410156 28.398438 C 4.898438 28.398438 4.441406 28.625 4.035156 29.078125 L 2.585938 28.867188 L 3.5 24.023438 L 8.21875 24.023438 L 8.21875 25.695312 L 4.851562 25.695312 L 4.574219 27.273438 C 4.972656 27.074219 5.378906 26.976562 5.792969 26.976562 C 6.582031 26.976562 7.253906 27.261719 7.804688 27.839844 C 8.355469 28.414062 8.628906 29.160156 8.628906 30.078125 C 8.628906 30.84375 8.40625 31.527344 7.960938 32.128906 C 7.359375 32.949219 6.519531 33.359375 5.441406 33.359375 C 4.582031 33.359375 3.882812 33.128906 3.34375 32.667969 C 2.800781 32.207031 2.476562 31.589844 2.371094 30.808594 Z M 2.371094 30.808594 "/>
</svg>
