<?xml version="1.0" encoding="UTF-8"?>
<svg xmlns="http://www.w3.org/2000/svg" xmlns:xlink="http://www.w3.org/1999/xlink" width="11" height="36" viewBox="0 0 11 36">
<rect x="-1.1" y="-3.6" width="13.2" height="43.2" fill="rgb(0%, 0%, 0%)" fill-opacity="1"/>
<path fill-rule="nonzero" fill="rgb(100%, 100%, 100%)" fill-opacity="1" d="M 0.800781 0.800781 L 10.199219 0.800781 L 10.199219 35.199219 L 0.800781 35.199219 Z M 0.800781 0.800781 "/>
<path fill-rule="nonzero" fill="rgb(0%, 0%, 0%)" fill-opacity="1" d="M 6.910156 12.0625 L 5.125 12.0625 L 5.125 5.339844 C 4.472656 5.949219 3.707031 6.398438 2.820312 6.691406 L 2.820312 5.074219 C 3.285156 4.921875 3.792969 4.632812 4.339844 4.207031 C 4.882812 3.78125 5.257812 3.285156 5.460938 2.71875 L 6.910156 2.71875 Z M 6.910156 12.0625 "/>
<path fill-rule="nonzero" fill="rgb(0%, 0%, 0%)" fill-opacity="1" d="M 5.964844 22.675781 L 5.964844 20.800781 L 2.15625 20.800781 L 2.15625 19.242188 L 6.191406 13.332031 L 7.691406 13.332031 L 7.691406 19.234375 L 8.84375 19.234375 L 8.84375 20.800781 L 7.691406 20.800781 L 7.691406 22.675781 Z M 5.964844 19.234375 L 5.964844 16.054688 L 3.824219 19.234375 Z M 5.964844 19.234375 "/>
<path fill-rule="nonzero" fill="rgb(0%, 0%, 0%)" fill-opacity="1" d="M 2.371094 30.730469 L 4.148438 30.546875 C 4.199219 30.949219 4.347656 31.265625 4.597656 31.5 C 4.847656 31.734375 5.136719 31.855469 5.460938 31.855469 C 5.835938 31.855469 6.148438 31.703125 6.40625 31.398438 C 6.664062 31.097656 6.796875 30.640625 6.796875 30.03125 C 6.796875 29.460938 6.667969 29.03125 6.410156 28.746094 C 6.15625 28.460938 5.820312 28.316406 5.410156 28.316406 C 4.898438 28.316406 4.441406 28.542969 4.035156 28.996094 L 2.585938 28.789062 L 3.5 23.945312 L 8.21875 23.945312 L 8.21875 25.613281 L 4.851562 25.613281 L 4.574219 27.195312 C 4.972656 26.996094 5.378906 26.894531 5.792969 26.894531 C 6.582031 26.894531 7.253906 27.183594 7.804688 27.757812 C 8.355469 28.335938 8.628906 29.082031 8.628906 30 C 8.628906 30.765625 8.40625 31.449219 7.960938 32.050781 C 7.359375 32.871094 6.519531 33.28125 5.441406 33.28125 C 4.582031 33.28125 3.882812 33.050781 3.34375 32.589844 C 2.800781 32.128906 2.476562 31.507812 2.371094 30.730469 Z M 2.371094 30.730469 "/>
</svg>
