<?xml version="1.0" encoding="UTF-8"?>
<svg xmlns="http://www.w3.org/2000/svg" xmlns:xlink="http://www.w3.org/1999/xlink" width="11" height="36" viewBox="0 0 11 36">
<rect x="-1.1" y="-3.6" width="13.2" height="43.2" fill="rgb(0%, 0%, 0%)" fill-opacity="1"/>
<path fill-rule="nonzero" fill="rgb(100%, 100%, 100%)" fill-opacity="1" d="M 0.800781 0.800781 L 10.199219 0.800781 L 10.199219 35.199219 L 0.800781 35.199219 Z M 0.800781 0.800781 "/>
<path fill-rule="nonzero" fill="rgb(0%, 0%, 0%)" fill-opacity="1" d="M 6.910156 11.984375 L 5.125 11.984375 L 5.125 5.261719 C 4.472656 5.871094 3.707031 6.320312 2.820312 6.613281 L 2.820312 4.992188 C 3.285156 4.839844 3.792969 4.550781 4.339844 4.128906 C 4.882812 3.703125 5.257812 3.207031 5.460938 2.640625 L 6.910156 2.640625 Z M 6.910156 11.984375 "/>
<path fill-rule="nonzero" fill="rgb(0%, 0%, 0%)" fill-opacity="1" d="M 2.371094 20.039062 L 4.148438 19.851562 C 4.199219 20.253906 4.347656 20.574219 4.597656 20.808594 C 4.847656 21.042969 5.136719 21.160156 5.460938 21.160156 C 5.835938 21.160156 6.148438 21.011719 6.40625 20.707031 C 6.664062 20.40625 6.796875 19.949219 6.796875 19.339844 C 6.796875 18.769531 6.667969 18.339844 6.410156 18.054688 C 6.15625 17.769531 5.820312 17.625 5.410156 17.625 C 4.898438 17.625 4.441406 17.851562 4.035156 18.304688 L 2.585938 18.09375 L 3.5 13.25 L 8.21875 13.25 L 8.21875 14.921875 L 4.851562 14.921875 L 4.574219 16.5 C 4.972656 16.304688 5.378906 16.203125 5.792969 16.203125 C 6.582031 16.203125 7.253906 16.492188 7.804688 17.066406 C 8.355469 17.640625 8.628906 18.390625 8.628906 19.308594 C 8.628906 20.074219 8.40625 20.757812 7.960938 21.359375 C 7.359375 22.179688 6.519531 22.589844 5.441406 22.589844 C 4.582031 22.589844 3.882812 22.359375 3.34375 21.898438 C 2.800781 21.4375 2.476562 20.816406 2.371094 20.039062 Z M 2.371094 20.039062 "/>
<path fill-rule="nonzero" fill="rgb(0%, 0%, 0%)" fill-opacity="1" d="M 5.5 23.859375 C 6.402344 23.859375 7.105469 24.179688 7.613281 24.824219 C 8.21875 25.585938 8.523438 26.847656 8.523438 28.613281 C 8.523438 30.375 8.21875 31.640625 7.609375 32.410156 C 7.105469 33.042969 6.402344 33.359375 5.5 33.359375 C 4.59375 33.359375 3.863281 33.011719 3.308594 32.316406 C 2.753906 31.621094 2.476562 30.378906 2.476562 28.59375 C 2.476562 26.84375 2.78125 25.582031 3.390625 24.8125 C 3.894531 24.175781 4.597656 23.859375 5.5 23.859375 Z M 5.5 25.335938 C 5.285156 25.335938 5.089844 25.40625 4.921875 25.542969 C 4.753906 25.683594 4.621094 25.929688 4.527344 26.285156 C 4.40625 26.746094 4.34375 27.523438 4.34375 28.613281 C 4.34375 29.703125 4.398438 30.457031 4.507812 30.863281 C 4.621094 31.273438 4.757812 31.542969 4.925781 31.679688 C 5.09375 31.816406 5.285156 31.882812 5.5 31.882812 C 5.714844 31.882812 5.910156 31.8125 6.078125 31.675781 C 6.246094 31.539062 6.378906 31.292969 6.472656 30.9375 C 6.59375 30.480469 6.65625 29.703125 6.65625 28.613281 C 6.65625 27.523438 6.601562 26.769531 6.492188 26.363281 C 6.378906 25.953125 6.242188 25.683594 6.074219 25.542969 C 5.90625 25.40625 5.714844 25.335938 5.5 25.335938 Z M 5.5 25.335938 "/>
</svg>
