<?xml version="1.0" encoding="UTF-8"?>
<svg xmlns="http://www.w3.org/2000/svg" xmlns:xlink="http://www.w3.org/1999/xlink" width="11" height="36" viewBox="0 0 11 36">
<rect x="-1.1" y="-3.6" width="13.2" height="43.2" fill="rgb(0%, 0%, 0%)" fill-opacity="1"/>
<path fill-rule="nonzero" fill="rgb(100%, 100%, 100%)" fill-opacity="1" d="M 0.800781 0.800781 L 10.199219 0.800781 L 10.199219 35.199219 L 0.800781 35.199219 Z M 0.800781 0.800781 "/>
<path fill-rule="nonzero" fill="rgb(0%, 0%, 0%)" fill-opacity="1" d="M 6.910156 12.066406 L 5.125 12.066406 L 5.125 5.34375 C 4.472656 5.953125 3.707031 6.402344 2.820312 6.695312 L 2.820312 5.078125 C 3.285156 4.921875 3.792969 4.636719 4.339844 4.210938 C 4.882812 3.785156 5.257812 3.289062 5.460938 2.722656 L 6.910156 2.722656 Z M 6.910156 12.066406 "/>
<path fill-rule="nonzero" fill="rgb(0%, 0%, 0%)" fill-opacity="1" d="M 2.371094 20.121094 L 4.148438 19.9375 C 4.199219 20.339844 4.347656 20.65625 4.597656 20.890625 C 4.847656 21.125 5.136719 21.242188 5.460938 21.242188 C 5.835938 21.242188 6.148438 21.09375 6.40625 20.789062 C 6.664062 20.488281 6.796875 20.03125 6.796875 19.421875 C 6.796875 18.851562 6.667969 18.421875 6.410156 18.136719 C 6.15625 17.851562 5.820312 17.707031 5.410156 17.707031 C 4.898438 17.707031 4.441406 17.933594 4.035156 18.386719 L 2.585938 18.179688 L 3.5 13.335938 L 8.21875 13.335938 L 8.21875 15.003906 L 4.851562 15.003906 L 4.574219 16.585938 C 4.972656 16.386719 5.378906 16.285156 5.792969 16.285156 C 6.582031 16.285156 7.253906 16.574219 7.804688 17.148438 C 8.355469 17.726562 8.628906 18.472656 8.628906 19.390625 C 8.628906 20.15625 8.40625 20.839844 7.960938 21.441406 C 7.359375 22.261719 6.519531 22.671875 5.441406 22.671875 C 4.582031 22.671875 3.882812 22.441406 3.34375 21.980469 C 2.800781 21.519531 2.476562 20.898438 2.371094 20.121094 Z M 2.371094 20.121094 "/>
<path fill-rule="nonzero" fill="rgb(0%, 0%, 0%)" fill-opacity="1" d="M 2.371094 30.726562 L 4.148438 30.542969 C 4.199219 30.945312 4.347656 31.261719 4.597656 31.5 C 4.847656 31.734375 5.136719 31.851562 5.460938 31.851562 C 5.835938 31.851562 6.148438 31.699219 6.40625 31.398438 C 6.664062 31.09375 6.796875 30.636719 6.796875 30.027344 C 6.796875 29.457031 6.667969 29.027344 6.410156 28.742188 C 6.15625 28.457031 5.820312 28.316406 5.410156 28.316406 C 4.898438 28.316406 4.441406 28.542969 4.035156 28.992188 L 2.585938 28.785156 L 3.5 23.941406 L 8.21875 23.941406 L 8.21875 25.609375 L 4.851562 25.609375 L 4.574219 27.191406 C 4.972656 26.992188 5.378906 26.894531 5.792969 26.894531 C 6.582031 26.894531 7.253906 27.179688 7.804688 27.757812 C 8.355469 28.332031 8.628906 29.078125 8.628906 29.996094 C 8.628906 30.761719 8.40625 31.445312 7.960938 32.046875 C 7.359375 32.867188 6.519531 33.277344 5.441406 33.277344 C 4.582031 33.277344 3.882812 33.046875 3.34375 32.585938 C 2.800781 32.125 2.476562 31.503906 2.371094 30.726562 Z M 2.371094 30.726562 "/>
</svg>
