<?xml version="1.0" encoding="UTF-8"?>
<svg xmlns="http://www.w3.org/2000/svg" xmlns:xlink="http://www.w3.org/1999/xlink" width="11" height="36" viewBox="0 0 11 36">
<rect x="-1.1" y="-3.6" width="13.2" height="43.2" fill="rgb(0%, 0%, 0%)" fill-opacity="1"/>
<path fill-rule="nonzero" fill="rgb(100%, 100%, 100%)" fill-opacity="1" d="M 0.800781 0.800781 L 10.199219 0.800781 L 10.199219 35.199219 L 0.800781 35.199219 Z M 0.800781 0.800781 "/>
<path fill-rule="nonzero" fill="rgb(0%, 0%, 0%)" fill-opacity="1" d="M 6.910156 11.898438 L 5.125 11.898438 L 5.125 5.179688 C 4.472656 5.789062 3.707031 6.238281 2.820312 6.53125 L 2.820312 4.910156 C 3.285156 4.757812 3.792969 4.46875 4.339844 4.042969 C 4.882812 3.621094 5.257812 3.125 5.460938 2.554688 L 6.910156 2.554688 Z M 6.910156 11.898438 "/>
<path fill-rule="nonzero" fill="rgb(0%, 0%, 0%)" fill-opacity="1" d="M 8.4375 15.484375 L 6.710938 15.675781 C 6.667969 15.320312 6.558594 15.058594 6.378906 14.890625 C 6.203125 14.71875 5.972656 14.636719 5.6875 14.636719 C 5.3125 14.636719 4.992188 14.804688 4.730469 15.144531 C 4.472656 15.480469 4.308594 16.1875 4.238281 17.257812 C 4.683594 16.734375 5.238281 16.46875 5.898438 16.46875 C 6.640625 16.46875 7.28125 16.753906 7.8125 17.320312 C 8.339844 17.886719 8.605469 18.621094 8.605469 19.515625 C 8.605469 20.46875 8.328125 21.234375 7.769531 21.808594 C 7.210938 22.382812 6.492188 22.671875 5.617188 22.671875 C 4.679688 22.671875 3.90625 22.308594 3.300781 21.578125 C 2.695312 20.847656 2.394531 19.648438 2.394531 17.988281 C 2.394531 16.28125 2.707031 15.050781 3.339844 14.300781 C 3.96875 13.546875 4.789062 13.167969 5.796875 13.167969 C 6.5 13.167969 7.085938 13.367188 7.550781 13.761719 C 8.015625 14.160156 8.308594 14.734375 8.4375 15.484375 Z M 4.390625 19.378906 C 4.390625 19.957031 4.527344 20.40625 4.792969 20.71875 C 5.058594 21.035156 5.363281 21.191406 5.707031 21.191406 C 6.035156 21.191406 6.3125 21.0625 6.53125 20.804688 C 6.75 20.546875 6.863281 20.125 6.863281 19.535156 C 6.863281 18.929688 6.742188 18.488281 6.507812 18.207031 C 6.269531 17.925781 5.972656 17.785156 5.617188 17.785156 C 5.273438 17.785156 4.984375 17.917969 4.746094 18.1875 C 4.511719 18.457031 4.390625 18.851562 4.390625 19.378906 Z M 4.390625 19.378906 "/>
<path fill-rule="nonzero" fill="rgb(0%, 0%, 0%)" fill-opacity="1" d="M 5.5 23.941406 C 6.402344 23.941406 7.105469 24.261719 7.613281 24.90625 C 8.21875 25.667969 8.523438 26.929688 8.523438 28.695312 C 8.523438 30.457031 8.21875 31.722656 7.609375 32.492188 C 7.105469 33.125 6.402344 33.445312 5.5 33.445312 C 4.59375 33.445312 3.863281 33.097656 3.308594 32.398438 C 2.753906 31.703125 2.476562 30.460938 2.476562 28.675781 C 2.476562 26.925781 2.78125 25.664062 3.390625 24.894531 C 3.894531 24.257812 4.597656 23.941406 5.5 23.941406 Z M 5.5 25.421875 C 5.285156 25.421875 5.089844 25.488281 4.921875 25.625 C 4.753906 25.765625 4.621094 26.011719 4.527344 26.367188 C 4.40625 26.828125 4.34375 27.605469 4.34375 28.695312 C 4.34375 29.789062 4.398438 30.539062 4.507812 30.945312 C 4.621094 31.355469 4.757812 31.625 4.925781 31.761719 C 5.09375 31.898438 5.285156 31.964844 5.5 31.964844 C 5.714844 31.964844 5.910156 31.894531 6.078125 31.757812 C 6.246094 31.621094 6.378906 31.375 6.472656 31.019531 C 6.59375 30.5625 6.65625 29.789062 6.65625 28.695312 C 6.65625 27.605469 6.601562 26.855469 6.492188 26.445312 C 6.378906 26.039062 6.242188 25.765625 6.074219 25.625 C 5.90625 25.488281 5.714844 25.421875 5.5 25.421875 Z M 5.5 25.421875 "/>
</svg>
