<?xml version="1.0" encoding="UTF-8"?>
<svg xmlns="http://www.w3.org/2000/svg" xmlns:xlink="http://www.w3.org/1999/xlink" width="11" height="30" viewBox="0 0 11 30">
<rect x="-1.1" y="-3" width="13.2" height="36" fill="rgb(0%, 0%, 0%)" fill-opacity="1"/>
<path fill-rule="nonzero" fill="rgb(100%, 100%, 100%)" fill-opacity="1" d="M 0.800781 0.800781 L 10.199219 0.800781 L 10.199219 29.199219 L 0.800781 29.199219 Z M 0.800781 0.800781 "/>
<path fill-rule="nonzero" fill="rgb(0%, 0%, 0%)" fill-opacity="1" d="M 8.625 12.628906 L 8.625 14.285156 L 2.375 14.285156 C 2.441406 13.660156 2.644531 13.066406 2.984375 12.503906 C 3.320312 11.945312 3.992188 11.199219 4.988281 10.273438 C 5.792969 9.523438 6.285156 9.015625 6.46875 8.75 C 6.714844 8.382812 6.835938 8.019531 6.835938 7.660156 C 6.835938 7.261719 6.730469 6.957031 6.515625 6.742188 C 6.300781 6.527344 6.007812 6.421875 5.628906 6.421875 C 5.257812 6.421875 4.960938 6.535156 4.742188 6.757812 C 4.519531 6.980469 4.394531 7.355469 4.359375 7.875 L 2.582031 7.695312 C 2.6875 6.714844 3.019531 6.011719 3.578125 5.582031 C 4.136719 5.15625 4.835938 4.941406 5.675781 4.941406 C 6.59375 4.941406 7.3125 5.191406 7.839844 5.683594 C 8.363281 6.179688 8.625 6.796875 8.625 7.53125 C 8.625 7.949219 8.550781 8.351562 8.402344 8.726562 C 8.25 9.105469 8.011719 9.503906 7.6875 9.917969 C 7.472656 10.195312 7.082031 10.589844 6.519531 11.105469 C 5.957031 11.621094 5.597656 11.964844 5.449219 12.132812 C 5.300781 12.304688 5.175781 12.46875 5.085938 12.628906 Z M 8.625 12.628906 "/>
<path fill-rule="nonzero" fill="rgb(0%, 0%, 0%)" fill-opacity="1" d="M 5.5 15.554688 C 6.402344 15.554688 7.105469 15.878906 7.613281 16.519531 C 8.21875 17.28125 8.523438 18.546875 8.523438 20.308594 C 8.523438 22.070312 8.21875 23.335938 7.609375 24.105469 C 7.105469 24.742188 6.402344 25.058594 5.5 25.058594 C 4.59375 25.058594 3.863281 24.710938 3.308594 24.015625 C 2.753906 23.316406 2.476562 22.078125 2.476562 20.289062 C 2.476562 18.539062 2.78125 17.277344 3.390625 16.507812 C 3.894531 15.871094 4.597656 15.554688 5.5 15.554688 Z M 5.5 17.035156 C 5.285156 17.035156 5.089844 17.101562 4.921875 17.242188 C 4.753906 17.378906 4.621094 17.625 4.527344 17.980469 C 4.40625 18.441406 4.34375 19.21875 4.34375 20.308594 C 4.34375 21.402344 4.398438 22.152344 4.507812 22.558594 C 4.621094 22.96875 4.757812 23.242188 4.925781 23.375 C 5.09375 23.511719 5.285156 23.578125 5.5 23.578125 C 5.714844 23.578125 5.910156 23.511719 6.078125 23.371094 C 6.246094 23.234375 6.378906 22.988281 6.472656 22.632812 C 6.59375 22.175781 6.65625 21.402344 6.65625 20.308594 C 6.65625 19.21875 6.601562 18.46875 6.492188 18.058594 C 6.378906 17.652344 6.242188 17.378906 6.074219 17.242188 C 5.90625 17.101562 5.714844 17.035156 5.5 17.035156 Z M 5.5 17.035156 "/>
</svg>
