<?xml version="1.0" encoding="UTF-8"?>
<svg xmlns="http://www.w3.org/2000/svg" xmlns:xlink="http://www.w3.org/1999/xlink" width="11" height="30" viewBox="0 0 11 30">
<rect x="-1.1" y="-3" width="13.2" height="36" fill="rgb(0%, 0%, 0%)" fill-opacity="1"/>
<path fill-rule="nonzero" fill="rgb(100%, 100%, 100%)" fill-opacity="1" d="M 0.800781 0.800781 L 10.199219 0.800781 L 10.199219 29.199219 L 0.800781 29.199219 Z M 0.800781 0.800781 "/>
<path fill-rule="nonzero" fill="rgb(0%, 0%, 0%)" fill-opacity="1" d="M 8.625 12.710938 L 8.625 14.367188 L 2.375 14.367188 C 2.441406 13.742188 2.644531 13.148438 2.984375 12.585938 C 3.320312 12.027344 3.992188 11.285156 4.988281 10.355469 C 5.792969 9.609375 6.285156 9.101562 6.46875 8.832031 C 6.714844 8.464844 6.835938 8.101562 6.835938 7.742188 C 6.835938 7.34375 6.730469 7.039062 6.515625 6.824219 C 6.300781 6.609375 6.007812 6.503906 5.628906 6.503906 C 5.257812 6.503906 4.960938 6.617188 4.742188 6.839844 C 4.519531 7.0625 4.394531 7.4375 4.359375 7.957031 L 2.582031 7.78125 C 2.6875 6.796875 3.019531 6.09375 3.578125 5.664062 C 4.136719 5.238281 4.835938 5.023438 5.675781 5.023438 C 6.59375 5.023438 7.3125 5.273438 7.839844 5.765625 C 8.363281 6.261719 8.625 6.878906 8.625 7.613281 C 8.625 8.035156 8.550781 8.433594 8.402344 8.8125 C 8.25 9.191406 8.011719 9.585938 7.6875 10 C 7.472656 10.277344 7.082031 10.671875 6.519531 11.1875 C 5.957031 11.703125 5.597656 12.046875 5.449219 12.214844 C 5.300781 12.386719 5.175781 12.550781 5.085938 12.710938 Z M 8.625 12.710938 "/>
<path fill-rule="nonzero" fill="rgb(0%, 0%, 0%)" fill-opacity="1" d="M 2.371094 22.421875 L 4.148438 22.238281 C 4.199219 22.640625 4.347656 22.960938 4.597656 23.195312 C 4.847656 23.429688 5.136719 23.546875 5.460938 23.546875 C 5.835938 23.546875 6.148438 23.394531 6.40625 23.09375 C 6.664062 22.789062 6.796875 22.335938 6.796875 21.726562 C 6.796875 21.152344 6.667969 20.726562 6.410156 20.441406 C 6.15625 20.15625 5.820312 20.011719 5.410156 20.011719 C 4.898438 20.011719 4.441406 20.238281 4.035156 20.691406 L 2.585938 20.480469 L 3.5 15.636719 L 8.21875 15.636719 L 8.21875 17.308594 L 4.851562 17.308594 L 4.574219 18.886719 C 4.972656 18.6875 5.378906 18.589844 5.792969 18.589844 C 6.582031 18.589844 7.253906 18.878906 7.804688 19.453125 C 8.355469 20.027344 8.628906 20.773438 8.628906 21.695312 C 8.628906 22.460938 8.40625 23.144531 7.960938 23.742188 C 7.359375 24.566406 6.519531 24.976562 5.441406 24.976562 C 4.582031 24.976562 3.882812 24.746094 3.34375 24.285156 C 2.800781 23.820312 2.476562 23.203125 2.371094 22.421875 Z M 2.371094 22.421875 "/>
</svg>
