<?xml version="1.0" encoding="UTF-8"?>
<svg xmlns="http://www.w3.org/2000/svg" xmlns:xlink="http://www.w3.org/1999/xlink" width="11" height="30" viewBox="0 0 11 30">
<rect x="-1.1" y="-3" width="13.2" height="36" fill="rgb(0%, 0%, 0%)" fill-opacity="1"/>
<path fill-rule="nonzero" fill="rgb(100%, 100%, 100%)" fill-opacity="1" d="M 0.800781 0.800781 L 10.199219 0.800781 L 10.199219 29.199219 L 0.800781 29.199219 Z M 0.800781 0.800781 "/>
<path fill-rule="nonzero" fill="rgb(0%, 0%, 0%)" fill-opacity="1" d="M 2.410156 11.738281 L 4.136719 11.527344 C 4.191406 11.96875 4.339844 12.304688 4.578125 12.539062 C 4.820312 12.769531 5.113281 12.886719 5.457031 12.886719 C 5.824219 12.886719 6.132812 12.746094 6.386719 12.46875 C 6.636719 12.1875 6.761719 11.8125 6.761719 11.335938 C 6.761719 10.890625 6.640625 10.535156 6.402344 10.269531 C 6.160156 10.007812 5.867188 9.878906 5.519531 9.878906 C 5.289062 9.878906 5.015625 9.921875 4.699219 10.011719 L 4.898438 8.558594 C 5.378906 8.570312 5.746094 8.464844 6 8.242188 C 6.253906 8.019531 6.382812 7.726562 6.382812 7.359375 C 6.382812 7.042969 6.289062 6.792969 6.101562 6.609375 C 5.917969 6.421875 5.667969 6.328125 5.359375 6.328125 C 5.054688 6.328125 4.796875 6.433594 4.578125 6.648438 C 4.363281 6.859375 4.234375 7.167969 4.1875 7.574219 L 2.542969 7.292969 C 2.65625 6.730469 2.828125 6.28125 3.058594 5.945312 C 3.289062 5.609375 3.613281 5.34375 4.023438 5.152344 C 4.4375 4.960938 4.898438 4.863281 5.410156 4.863281 C 6.289062 4.863281 6.988281 5.140625 7.519531 5.699219 C 7.953125 6.15625 8.171875 6.675781 8.171875 7.25 C 8.171875 8.066406 7.726562 8.71875 6.832031 9.203125 C 7.367188 9.320312 7.792969 9.574219 8.113281 9.972656 C 8.429688 10.371094 8.589844 10.851562 8.589844 11.414062 C 8.589844 12.230469 8.292969 12.925781 7.695312 13.5 C 7.101562 14.078125 6.355469 14.367188 5.46875 14.367188 C 4.625 14.367188 3.929688 14.121094 3.375 13.636719 C 2.820312 13.152344 2.496094 12.519531 2.410156 11.738281 Z M 2.410156 11.738281 "/>
<path fill-rule="nonzero" fill="rgb(0%, 0%, 0%)" fill-opacity="1" d="M 5.5 15.632812 C 6.402344 15.632812 7.105469 15.957031 7.613281 16.601562 C 8.21875 17.359375 8.523438 18.625 8.523438 20.390625 C 8.523438 22.148438 8.21875 23.414062 7.609375 24.183594 C 7.105469 24.820312 6.402344 25.136719 5.5 25.136719 C 4.59375 25.136719 3.863281 24.789062 3.308594 24.09375 C 2.753906 23.398438 2.476562 22.15625 2.476562 20.371094 C 2.476562 18.617188 2.78125 17.355469 3.390625 16.585938 C 3.894531 15.953125 4.597656 15.632812 5.5 15.632812 Z M 5.5 17.113281 C 5.285156 17.113281 5.089844 17.183594 4.921875 17.320312 C 4.753906 17.457031 4.621094 17.703125 4.527344 18.058594 C 4.40625 18.519531 4.34375 19.296875 4.34375 20.390625 C 4.34375 21.480469 4.398438 22.230469 4.507812 22.640625 C 4.621094 23.046875 4.757812 23.320312 4.925781 23.453125 C 5.09375 23.589844 5.285156 23.65625 5.5 23.65625 C 5.714844 23.65625 5.910156 23.589844 6.078125 23.453125 C 6.246094 23.3125 6.378906 23.066406 6.472656 22.710938 C 6.59375 22.253906 6.65625 21.480469 6.65625 20.390625 C 6.65625 19.296875 6.601562 18.546875 6.492188 18.140625 C 6.378906 17.730469 6.242188 17.457031 6.074219 17.320312 C 5.90625 17.183594 5.714844 17.113281 5.5 17.113281 Z M 5.5 17.113281 "/>
</svg>
