<?xml version="1.0" encoding="UTF-8"?>
<svg xmlns="http://www.w3.org/2000/svg" xmlns:xlink="http://www.w3.org/1999/xlink" width="11" height="30" viewBox="0 0 11 30">
<rect x="-1.1" y="-3" width="13.2" height="36" fill="rgb(0%, 0%, 0%)" fill-opacity="1"/>
<path fill-rule="nonzero" fill="rgb(100%, 100%, 100%)" fill-opacity="1" d="M 0.800781 0.800781 L 10.199219 0.800781 L 10.199219 29.199219 L 0.800781 29.199219 Z M 0.800781 0.800781 "/>
<path fill-rule="nonzero" fill="rgb(0%, 0%, 0%)" fill-opacity="1" d="M 2.410156 11.820312 L 4.136719 11.609375 C 4.191406 12.050781 4.339844 12.386719 4.578125 12.621094 C 4.820312 12.851562 5.113281 12.96875 5.457031 12.96875 C 5.824219 12.96875 6.132812 12.828125 6.386719 12.550781 C 6.636719 12.269531 6.761719 11.894531 6.761719 11.421875 C 6.761719 10.972656 6.640625 10.617188 6.402344 10.351562 C 6.160156 10.089844 5.867188 9.960938 5.519531 9.960938 C 5.289062 9.960938 5.015625 10.003906 4.699219 10.09375 L 4.898438 8.640625 C 5.378906 8.652344 5.746094 8.546875 6 8.324219 C 6.253906 8.101562 6.382812 7.808594 6.382812 7.441406 C 6.382812 7.125 6.289062 6.878906 6.101562 6.691406 C 5.917969 6.503906 5.667969 6.410156 5.359375 6.410156 C 5.054688 6.410156 4.796875 6.515625 4.578125 6.730469 C 4.363281 6.941406 4.234375 7.25 4.1875 7.65625 L 2.542969 7.375 C 2.65625 6.8125 2.828125 6.363281 3.058594 6.027344 C 3.289062 5.691406 3.613281 5.425781 4.023438 5.234375 C 4.4375 5.042969 4.898438 4.945312 5.410156 4.945312 C 6.289062 4.945312 6.988281 5.226562 7.519531 5.78125 C 7.953125 6.242188 8.171875 6.757812 8.171875 7.332031 C 8.171875 8.148438 7.726562 8.800781 6.832031 9.289062 C 7.367188 9.402344 7.792969 9.65625 8.113281 10.054688 C 8.429688 10.453125 8.589844 10.933594 8.589844 11.496094 C 8.589844 12.3125 8.292969 13.007812 7.695312 13.585938 C 7.101562 14.160156 6.355469 14.449219 5.46875 14.449219 C 4.625 14.449219 3.929688 14.207031 3.375 13.722656 C 2.820312 13.238281 2.496094 12.601562 2.410156 11.820312 Z M 2.410156 11.820312 "/>
<path fill-rule="nonzero" fill="rgb(0%, 0%, 0%)" fill-opacity="1" d="M 2.371094 22.503906 L 4.148438 22.320312 C 4.199219 22.722656 4.347656 23.039062 4.597656 23.273438 C 4.847656 23.507812 5.136719 23.625 5.460938 23.625 C 5.835938 23.625 6.148438 23.476562 6.40625 23.171875 C 6.664062 22.871094 6.796875 22.414062 6.796875 21.804688 C 6.796875 21.234375 6.667969 20.804688 6.410156 20.519531 C 6.15625 20.234375 5.820312 20.089844 5.410156 20.089844 C 4.898438 20.089844 4.441406 20.316406 4.035156 20.769531 L 2.585938 20.5625 L 3.5 15.71875 L 8.21875 15.71875 L 8.21875 17.386719 L 4.851562 17.386719 L 4.574219 18.96875 C 4.972656 18.769531 5.378906 18.667969 5.792969 18.667969 C 6.582031 18.667969 7.253906 18.957031 7.804688 19.53125 C 8.355469 20.109375 8.628906 20.855469 8.628906 21.773438 C 8.628906 22.539062 8.40625 23.222656 7.960938 23.824219 C 7.359375 24.644531 6.519531 25.054688 5.441406 25.054688 C 4.582031 25.054688 3.882812 24.824219 3.34375 24.363281 C 2.800781 23.902344 2.476562 23.28125 2.371094 22.503906 Z M 2.371094 22.503906 "/>
</svg>
