<?xml version="1.0" encoding="UTF-8"?>
<svg xmlns="http://www.w3.org/2000/svg" xmlns:xlink="http://www.w3.org/1999/xlink" width="11" height="30" viewBox="0 0 11 30">
<rect x="-1.1" y="-3" width="13.2" height="36" fill="rgb(0%, 0%, 0%)" fill-opacity="1"/>
<path fill-rule="nonzero" fill="rgb(100%, 100%, 100%)" fill-opacity="1" d="M 0.800781 0.800781 L 10.199219 0.800781 L 10.199219 29.199219 L 0.800781 29.199219 Z M 0.800781 0.800781 "/>
<path fill-rule="nonzero" fill="rgb(0%, 0%, 0%)" fill-opacity="1" d="M 2.371094 11.730469 L 4.148438 11.546875 C 4.199219 11.949219 4.347656 12.265625 4.597656 12.503906 C 4.847656 12.738281 5.136719 12.855469 5.460938 12.855469 C 5.835938 12.855469 6.148438 12.703125 6.40625 12.402344 C 6.664062 12.097656 6.796875 11.640625 6.796875 11.03125 C 6.796875 10.460938 6.667969 10.03125 6.410156 9.746094 C 6.15625 9.460938 5.820312 9.320312 5.410156 9.320312 C 4.898438 9.320312 4.441406 9.546875 4.035156 10 L 2.585938 9.789062 L 3.5 4.945312 L 8.21875 4.945312 L 8.21875 6.613281 L 4.851562 6.613281 L 4.574219 8.195312 C 4.972656 7.996094 5.378906 7.898438 5.792969 7.898438 C 6.582031 7.898438 7.253906 8.183594 7.804688 8.761719 C 8.355469 9.335938 8.628906 10.082031 8.628906 11 C 8.628906 11.765625 8.40625 12.449219 7.960938 13.050781 C 7.359375 13.871094 6.519531 14.28125 5.441406 14.28125 C 4.582031 14.28125 3.882812 14.050781 3.34375 13.589844 C 2.800781 13.128906 2.476562 12.507812 2.371094 11.730469 Z M 2.371094 11.730469 "/>
<path fill-rule="nonzero" fill="rgb(0%, 0%, 0%)" fill-opacity="1" d="M 5.5 15.550781 C 6.402344 15.550781 7.105469 15.875 7.613281 16.515625 C 8.21875 17.277344 8.523438 18.542969 8.523438 20.304688 C 8.523438 22.066406 8.21875 23.332031 7.609375 24.101562 C 7.105469 24.738281 6.402344 25.054688 5.5 25.054688 C 4.59375 25.054688 3.863281 24.707031 3.308594 24.011719 C 2.753906 23.3125 2.476562 22.074219 2.476562 20.289062 C 2.476562 18.535156 2.78125 17.273438 3.390625 16.503906 C 3.894531 15.871094 4.597656 15.550781 5.5 15.550781 Z M 5.5 17.03125 C 5.285156 17.03125 5.089844 17.101562 4.921875 17.238281 C 4.753906 17.375 4.621094 17.621094 4.527344 17.976562 C 4.40625 18.4375 4.34375 19.214844 4.34375 20.304688 C 4.34375 21.398438 4.398438 22.148438 4.507812 22.558594 C 4.621094 22.964844 4.757812 23.238281 4.925781 23.371094 C 5.09375 23.507812 5.285156 23.574219 5.5 23.574219 C 5.714844 23.574219 5.910156 23.507812 6.078125 23.371094 C 6.246094 23.230469 6.378906 22.984375 6.472656 22.628906 C 6.59375 22.171875 6.65625 21.398438 6.65625 20.304688 C 6.65625 19.214844 6.601562 18.464844 6.492188 18.054688 C 6.378906 17.648438 6.242188 17.375 6.074219 17.238281 C 5.90625 17.101562 5.714844 17.03125 5.5 17.03125 Z M 5.5 17.03125 "/>
</svg>
