<?xml version="1.0" encoding="UTF-8"?>
<svg xmlns="http://www.w3.org/2000/svg" xmlns:xlink="http://www.w3.org/1999/xlink" width="11" height="30" viewBox="0 0 11 30">
<rect x="-1.1" y="-3" width="13.2" height="36" fill="rgb(0%, 0%, 0%)" fill-opacity="1"/>
<path fill-rule="nonzero" fill="rgb(100%, 100%, 100%)" fill-opacity="1" d="M 0.800781 0.800781 L 10.199219 0.800781 L 10.199219 29.199219 L 0.800781 29.199219 Z M 0.800781 0.800781 "/>
<path fill-rule="nonzero" fill="rgb(0%, 0%, 0%)" fill-opacity="1" d="M 2.371094 11.8125 L 4.148438 11.628906 C 4.199219 12.03125 4.347656 12.351562 4.597656 12.585938 C 4.847656 12.820312 5.136719 12.9375 5.460938 12.9375 C 5.835938 12.9375 6.148438 12.785156 6.40625 12.484375 C 6.664062 12.179688 6.796875 11.726562 6.796875 11.117188 C 6.796875 10.542969 6.667969 10.117188 6.410156 9.828125 C 6.15625 9.542969 5.820312 9.402344 5.410156 9.402344 C 4.898438 9.402344 4.441406 9.628906 4.035156 10.082031 L 2.585938 9.871094 L 3.5 5.027344 L 8.21875 5.027344 L 8.21875 6.695312 L 4.851562 6.695312 L 4.574219 8.277344 C 4.972656 8.078125 5.378906 7.980469 5.792969 7.980469 C 6.582031 7.980469 7.253906 8.265625 7.804688 8.84375 C 8.355469 9.417969 8.628906 10.164062 8.628906 11.082031 C 8.628906 11.847656 8.40625 12.53125 7.960938 13.132812 C 7.359375 13.953125 6.519531 14.367188 5.441406 14.367188 C 4.582031 14.367188 3.882812 14.132812 3.34375 13.671875 C 2.800781 13.210938 2.476562 12.59375 2.371094 11.8125 Z M 2.371094 11.8125 "/>
<path fill-rule="nonzero" fill="rgb(0%, 0%, 0%)" fill-opacity="1" d="M 2.371094 22.421875 L 4.148438 22.234375 C 4.199219 22.636719 4.347656 22.957031 4.597656 23.191406 C 4.847656 23.425781 5.136719 23.542969 5.460938 23.542969 C 5.835938 23.542969 6.148438 23.394531 6.40625 23.089844 C 6.664062 22.789062 6.796875 22.332031 6.796875 21.722656 C 6.796875 21.152344 6.667969 20.722656 6.410156 20.4375 C 6.15625 20.152344 5.820312 20.007812 5.410156 20.007812 C 4.898438 20.007812 4.441406 20.234375 4.035156 20.6875 L 2.585938 20.476562 L 3.5 15.632812 L 8.21875 15.632812 L 8.21875 17.304688 L 4.851562 17.304688 L 4.574219 18.882812 C 4.972656 18.6875 5.378906 18.585938 5.792969 18.585938 C 6.582031 18.585938 7.253906 18.875 7.804688 19.449219 C 8.355469 20.023438 8.628906 20.773438 8.628906 21.691406 C 8.628906 22.457031 8.40625 23.140625 7.960938 23.742188 C 7.359375 24.5625 6.519531 24.972656 5.441406 24.972656 C 4.582031 24.972656 3.882812 24.742188 3.34375 24.28125 C 2.800781 23.820312 2.476562 23.199219 2.371094 22.421875 Z M 2.371094 22.421875 "/>
</svg>
