<?xml version="1.0" encoding="UTF-8"?>
<svg xmlns="http://www.w3.org/2000/svg" xmlns:xlink="http://www.w3.org/1999/xlink" width="11" height="30" viewBox="0 0 11 30">
<rect x="-1.1" y="-3" width="13.2" height="36" fill="rgb(0%, 0%, 0%)" fill-opacity="1"/>
<path fill-rule="nonzero" fill="rgb(100%, 100%, 100%)" fill-opacity="1" d="M 0.800781 0.800781 L 10.199219 0.800781 L 10.199219 29.199219 L 0.800781 29.199219 Z M 0.800781 0.800781 "/>
<path fill-rule="nonzero" fill="rgb(0%, 0%, 0%)" fill-opacity="1" d="M 8.4375 7.179688 L 6.710938 7.371094 C 6.667969 7.015625 6.558594 6.753906 6.378906 6.582031 C 6.203125 6.414062 5.972656 6.328125 5.6875 6.328125 C 5.3125 6.328125 4.992188 6.5 4.730469 6.835938 C 4.472656 7.175781 4.308594 7.878906 4.238281 8.949219 C 4.683594 8.425781 5.238281 8.164062 5.898438 8.164062 C 6.640625 8.164062 7.28125 8.445312 7.8125 9.015625 C 8.339844 9.582031 8.605469 10.3125 8.605469 11.210938 C 8.605469 12.164062 8.328125 12.925781 7.769531 13.5 C 7.210938 14.078125 6.492188 14.367188 5.617188 14.367188 C 4.679688 14.367188 3.90625 14 3.300781 13.269531 C 2.695312 12.539062 2.394531 11.34375 2.394531 9.679688 C 2.394531 7.976562 2.707031 6.746094 3.339844 5.992188 C 3.96875 5.238281 4.789062 4.863281 5.796875 4.863281 C 6.5 4.863281 7.085938 5.0625 7.550781 5.457031 C 8.015625 5.851562 8.308594 6.425781 8.4375 7.179688 Z M 4.390625 11.070312 C 4.390625 11.652344 4.527344 12.097656 4.792969 12.414062 C 5.058594 12.730469 5.363281 12.886719 5.707031 12.886719 C 6.035156 12.886719 6.3125 12.757812 6.53125 12.5 C 6.75 12.242188 6.863281 11.816406 6.863281 11.230469 C 6.863281 10.625 6.742188 10.179688 6.507812 9.898438 C 6.269531 9.617188 5.972656 9.476562 5.617188 9.476562 C 5.273438 9.476562 4.984375 9.613281 4.746094 9.878906 C 4.511719 10.148438 4.390625 10.546875 4.390625 11.070312 Z M 4.390625 11.070312 "/>
<path fill-rule="nonzero" fill="rgb(0%, 0%, 0%)" fill-opacity="1" d="M 5.5 15.632812 C 6.402344 15.632812 7.105469 15.957031 7.613281 16.601562 C 8.21875 17.359375 8.523438 18.625 8.523438 20.390625 C 8.523438 22.148438 8.21875 23.414062 7.609375 24.183594 C 7.105469 24.820312 6.402344 25.136719 5.5 25.136719 C 4.59375 25.136719 3.863281 24.789062 3.308594 24.09375 C 2.753906 23.398438 2.476562 22.15625 2.476562 20.371094 C 2.476562 18.617188 2.78125 17.355469 3.390625 16.585938 C 3.894531 15.953125 4.597656 15.632812 5.5 15.632812 Z M 5.5 17.113281 C 5.285156 17.113281 5.089844 17.183594 4.921875 17.320312 C 4.753906 17.457031 4.621094 17.703125 4.527344 18.058594 C 4.40625 18.519531 4.34375 19.296875 4.34375 20.390625 C 4.34375 21.480469 4.398438 22.230469 4.507812 22.640625 C 4.621094 23.046875 4.757812 23.320312 4.925781 23.453125 C 5.09375 23.589844 5.285156 23.65625 5.5 23.65625 C 5.714844 23.65625 5.910156 23.589844 6.078125 23.453125 C 6.246094 23.3125 6.378906 23.066406 6.472656 22.710938 C 6.59375 22.253906 6.65625 21.480469 6.65625 20.390625 C 6.65625 19.296875 6.601562 18.546875 6.492188 18.140625 C 6.378906 17.730469 6.242188 17.457031 6.074219 17.320312 C 5.90625 17.183594 5.714844 17.113281 5.5 17.113281 Z M 5.5 17.113281 "/>
</svg>
