<?xml version="1.0" encoding="UTF-8"?>
<svg xmlns="http://www.w3.org/2000/svg" xmlns:xlink="http://www.w3.org/1999/xlink" width="11" height="30" viewBox="0 0 11 30">
<rect x="-1.1" y="-3" width="13.2" height="36" fill="rgb(0%, 0%, 0%)" fill-opacity="1"/>
<path fill-rule="nonzero" fill="rgb(100%, 100%, 100%)" fill-opacity="1" d="M 0.800781 0.800781 L 10.199219 0.800781 L 10.199219 29.199219 L 0.800781 29.199219 Z M 0.800781 0.800781 "/>
<path fill-rule="nonzero" fill="rgb(0%, 0%, 0%)" fill-opacity="1" d="M 8.4375 7.261719 L 6.710938 7.453125 C 6.667969 7.097656 6.558594 6.835938 6.378906 6.664062 C 6.203125 6.496094 5.972656 6.410156 5.6875 6.410156 C 5.3125 6.410156 4.992188 6.582031 4.730469 6.917969 C 4.472656 7.257812 4.308594 7.960938 4.238281 9.03125 C 4.683594 8.507812 5.238281 8.246094 5.898438 8.246094 C 6.640625 8.246094 7.28125 8.53125 7.8125 9.097656 C 8.339844 9.664062 8.605469 10.394531 8.605469 11.292969 C 8.605469 12.246094 8.328125 13.007812 7.769531 13.585938 C 7.210938 14.160156 6.492188 14.449219 5.617188 14.449219 C 4.679688 14.449219 3.90625 14.082031 3.300781 13.351562 C 2.695312 12.621094 2.394531 11.425781 2.394531 9.761719 C 2.394531 8.058594 2.707031 6.828125 3.339844 6.074219 C 3.96875 5.320312 4.789062 4.945312 5.796875 4.945312 C 6.5 4.945312 7.085938 5.144531 7.550781 5.539062 C 8.015625 5.933594 8.308594 6.507812 8.4375 7.261719 Z M 4.390625 11.152344 C 4.390625 11.734375 4.527344 12.179688 4.792969 12.496094 C 5.058594 12.8125 5.363281 12.96875 5.707031 12.96875 C 6.035156 12.96875 6.3125 12.839844 6.53125 12.582031 C 6.75 12.324219 6.863281 11.898438 6.863281 11.3125 C 6.863281 10.707031 6.742188 10.261719 6.507812 9.980469 C 6.269531 9.699219 5.972656 9.558594 5.617188 9.558594 C 5.273438 9.558594 4.984375 9.695312 4.746094 9.964844 C 4.511719 10.230469 4.390625 10.628906 4.390625 11.152344 Z M 4.390625 11.152344 "/>
<path fill-rule="nonzero" fill="rgb(0%, 0%, 0%)" fill-opacity="1" d="M 2.371094 22.503906 L 4.148438 22.320312 C 4.199219 22.722656 4.347656 23.039062 4.597656 23.273438 C 4.847656 23.507812 5.136719 23.625 5.460938 23.625 C 5.835938 23.625 6.148438 23.476562 6.40625 23.171875 C 6.664062 22.871094 6.796875 22.414062 6.796875 21.804688 C 6.796875 21.234375 6.667969 20.804688 6.410156 20.519531 C 6.15625 20.234375 5.820312 20.089844 5.410156 20.089844 C 4.898438 20.089844 4.441406 20.316406 4.035156 20.769531 L 2.585938 20.5625 L 3.5 15.71875 L 8.21875 15.71875 L 8.21875 17.386719 L 4.851562 17.386719 L 4.574219 18.96875 C 4.972656 18.769531 5.378906 18.667969 5.792969 18.667969 C 6.582031 18.667969 7.253906 18.957031 7.804688 19.53125 C 8.355469 20.109375 8.628906 20.855469 8.628906 21.773438 C 8.628906 22.539062 8.40625 23.222656 7.960938 23.824219 C 7.359375 24.644531 6.519531 25.054688 5.441406 25.054688 C 4.582031 25.054688 3.882812 24.824219 3.34375 24.363281 C 2.800781 23.902344 2.476562 23.28125 2.371094 22.503906 Z M 2.371094 22.503906 "/>
</svg>
