<?xml version="1.0" encoding="UTF-8"?>
<svg xmlns="http://www.w3.org/2000/svg" xmlns:xlink="http://www.w3.org/1999/xlink" width="11" height="30" viewBox="0 0 11 30">
<rect x="-1.1" y="-3" width="13.2" height="36" fill="rgb(0%, 0%, 0%)" fill-opacity="1"/>
<path fill-rule="nonzero" fill="rgb(100%, 100%, 100%)" fill-opacity="1" d="M 0.800781 0.800781 L 10.199219 0.800781 L 10.199219 29.199219 L 0.800781 29.199219 Z M 0.800781 0.800781 "/>
<path fill-rule="nonzero" fill="rgb(0%, 0%, 0%)" fill-opacity="1" d="M 2.449219 6.679688 L 2.449219 5.023438 L 8.550781 5.023438 L 8.550781 6.320312 C 8.046875 6.816406 7.535156 7.527344 7.015625 8.453125 C 6.492188 9.378906 6.097656 10.363281 5.824219 11.40625 C 5.550781 12.449219 5.417969 13.382812 5.421875 14.203125 L 3.699219 14.203125 C 3.730469 12.917969 3.996094 11.605469 4.496094 10.269531 C 5 8.929688 5.667969 7.734375 6.507812 6.679688 Z M 2.449219 6.679688 "/>
<path fill-rule="nonzero" fill="rgb(0%, 0%, 0%)" fill-opacity="1" d="M 5.5 15.472656 C 6.402344 15.472656 7.105469 15.792969 7.613281 16.4375 C 8.21875 17.199219 8.523438 18.460938 8.523438 20.226562 C 8.523438 21.988281 8.21875 23.253906 7.609375 24.023438 C 7.105469 24.65625 6.402344 24.976562 5.5 24.976562 C 4.59375 24.976562 3.863281 24.628906 3.308594 23.929688 C 2.753906 23.234375 2.476562 21.992188 2.476562 20.207031 C 2.476562 18.457031 2.78125 17.195312 3.390625 16.425781 C 3.894531 15.789062 4.597656 15.472656 5.5 15.472656 Z M 5.5 16.953125 C 5.285156 16.953125 5.089844 17.019531 4.921875 17.15625 C 4.753906 17.296875 4.621094 17.542969 4.527344 17.898438 C 4.40625 18.359375 4.34375 19.136719 4.34375 20.226562 C 4.34375 21.320312 4.398438 22.070312 4.507812 22.476562 C 4.621094 22.886719 4.757812 23.15625 4.925781 23.292969 C 5.09375 23.429688 5.285156 23.496094 5.5 23.496094 C 5.714844 23.496094 5.910156 23.425781 6.078125 23.289062 C 6.246094 23.152344 6.378906 22.90625 6.472656 22.550781 C 6.59375 22.09375 6.65625 21.320312 6.65625 20.226562 C 6.65625 19.136719 6.601562 18.386719 6.492188 17.976562 C 6.378906 17.570312 6.242188 17.296875 6.074219 17.15625 C 5.90625 17.019531 5.714844 16.953125 5.5 16.953125 Z M 5.5 16.953125 "/>
</svg>
