<?xml version="1.0" encoding="UTF-8"?>
<svg xmlns="http://www.w3.org/2000/svg" xmlns:xlink="http://www.w3.org/1999/xlink" width="11" height="30" viewBox="0 0 11 30">
<rect x="-1.1" y="-3" width="13.2" height="36" fill="rgb(0%, 0%, 0%)" fill-opacity="1"/>
<path fill-rule="nonzero" fill="rgb(100%, 100%, 100%)" fill-opacity="1" d="M 0.800781 0.800781 L 10.199219 0.800781 L 10.199219 29.199219 L 0.800781 29.199219 Z M 0.800781 0.800781 "/>
<path fill-rule="nonzero" fill="rgb(0%, 0%, 0%)" fill-opacity="1" d="M 2.449219 6.765625 L 2.449219 5.105469 L 8.550781 5.105469 L 8.550781 6.402344 C 8.046875 6.898438 7.535156 7.609375 7.015625 8.535156 C 6.492188 9.460938 6.097656 10.445312 5.824219 11.488281 C 5.550781 12.53125 5.417969 13.464844 5.421875 14.285156 L 3.699219 14.285156 C 3.730469 13 3.996094 11.6875 4.496094 10.351562 C 5 9.011719 5.667969 7.816406 6.507812 6.765625 Z M 2.449219 6.765625 "/>
<path fill-rule="nonzero" fill="rgb(0%, 0%, 0%)" fill-opacity="1" d="M 2.371094 22.339844 L 4.148438 22.15625 C 4.199219 22.558594 4.347656 22.878906 4.597656 23.113281 C 4.847656 23.347656 5.136719 23.464844 5.460938 23.464844 C 5.835938 23.464844 6.148438 23.3125 6.40625 23.011719 C 6.664062 22.707031 6.796875 22.253906 6.796875 21.644531 C 6.796875 21.070312 6.667969 20.644531 6.410156 20.359375 C 6.15625 20.070312 5.820312 19.929688 5.410156 19.929688 C 4.898438 19.929688 4.441406 20.15625 4.035156 20.609375 L 2.585938 20.398438 L 3.5 15.554688 L 8.21875 15.554688 L 8.21875 17.226562 L 4.851562 17.226562 L 4.574219 18.804688 C 4.972656 18.605469 5.378906 18.507812 5.792969 18.507812 C 6.582031 18.507812 7.253906 18.792969 7.804688 19.371094 C 8.355469 19.945312 8.628906 20.691406 8.628906 21.609375 C 8.628906 22.378906 8.40625 23.058594 7.960938 23.660156 C 7.359375 24.480469 6.519531 24.894531 5.441406 24.894531 C 4.582031 24.894531 3.882812 24.664062 3.34375 24.199219 C 2.800781 23.738281 2.476562 23.121094 2.371094 22.339844 Z M 2.371094 22.339844 "/>
</svg>
