<?xml version="1.0" encoding="UTF-8"?>
<svg xmlns="http://www.w3.org/2000/svg" xmlns:xlink="http://www.w3.org/1999/xlink" width="11" height="30" viewBox="0 0 11 30">
<rect x="-1.1" y="-3" width="13.2" height="36" fill="rgb(0%, 0%, 0%)" fill-opacity="1"/>
<path fill-rule="nonzero" fill="rgb(100%, 100%, 100%)" fill-opacity="1" d="M 0.800781 0.800781 L 10.199219 0.800781 L 10.199219 29.199219 L 0.800781 29.199219 Z M 0.800781 0.800781 "/>
<path fill-rule="nonzero" fill="rgb(0%, 0%, 0%)" fill-opacity="1" d="M 3.996094 9.183594 C 3.535156 8.988281 3.199219 8.71875 2.988281 8.378906 C 2.78125 8.039062 2.675781 7.664062 2.675781 7.257812 C 2.675781 6.566406 2.917969 5.992188 3.402344 5.539062 C 3.886719 5.085938 4.574219 4.859375 5.46875 4.859375 C 6.351562 4.859375 7.039062 5.085938 7.527344 5.539062 C 8.015625 5.992188 8.261719 6.566406 8.261719 7.257812 C 8.261719 7.691406 8.148438 8.074219 7.925781 8.410156 C 7.699219 8.746094 7.386719 9.003906 6.980469 9.183594 C 7.496094 9.390625 7.886719 9.691406 8.15625 10.089844 C 8.425781 10.488281 8.558594 10.945312 8.558594 11.46875 C 8.558594 12.328125 8.285156 13.023438 7.738281 13.5625 C 7.191406 14.101562 6.460938 14.367188 5.550781 14.367188 C 4.703125 14.367188 4 14.144531 3.4375 13.703125 C 2.773438 13.175781 2.441406 12.457031 2.441406 11.542969 C 2.441406 11.039062 2.566406 10.578125 2.816406 10.15625 C 3.066406 9.734375 3.457031 9.410156 3.996094 9.183594 Z M 4.363281 7.386719 C 4.363281 7.742188 4.464844 8.019531 4.664062 8.21875 C 4.867188 8.417969 5.132812 8.515625 5.46875 8.515625 C 5.808594 8.515625 6.078125 8.414062 6.28125 8.214844 C 6.484375 8.011719 6.585938 7.734375 6.585938 7.378906 C 6.585938 7.046875 6.484375 6.777344 6.285156 6.578125 C 6.082031 6.375 5.816406 6.273438 5.488281 6.273438 C 5.144531 6.273438 4.871094 6.375 4.667969 6.578125 C 4.464844 6.78125 4.363281 7.050781 4.363281 7.386719 Z M 4.199219 11.371094 C 4.199219 11.863281 4.324219 12.246094 4.578125 12.519531 C 4.828125 12.796875 5.140625 12.933594 5.519531 12.933594 C 5.886719 12.933594 6.191406 12.800781 6.433594 12.539062 C 6.675781 12.273438 6.796875 11.890625 6.796875 11.390625 C 6.796875 10.957031 6.671875 10.605469 6.425781 10.339844 C 6.179688 10.078125 5.871094 9.945312 5.492188 9.945312 C 5.058594 9.945312 4.734375 10.09375 4.519531 10.394531 C 4.304688 10.695312 4.199219 11.019531 4.199219 11.371094 Z M 4.199219 11.371094 "/>
<path fill-rule="nonzero" fill="rgb(0%, 0%, 0%)" fill-opacity="1" d="M 5.5 15.636719 C 6.402344 15.636719 7.105469 15.960938 7.613281 16.601562 C 8.21875 17.363281 8.523438 18.628906 8.523438 20.390625 C 8.523438 22.152344 8.21875 23.417969 7.609375 24.1875 C 7.105469 24.824219 6.402344 25.140625 5.5 25.140625 C 4.59375 25.140625 3.863281 24.792969 3.308594 24.097656 C 2.753906 23.398438 2.476562 22.160156 2.476562 20.375 C 2.476562 18.621094 2.78125 17.359375 3.390625 16.589844 C 3.894531 15.957031 4.597656 15.636719 5.5 15.636719 Z M 5.5 17.117188 C 5.285156 17.117188 5.089844 17.1875 4.921875 17.324219 C 4.753906 17.460938 4.621094 17.707031 4.527344 18.0625 C 4.40625 18.523438 4.34375 19.300781 4.34375 20.390625 C 4.34375 21.484375 4.398438 22.234375 4.507812 22.640625 C 4.621094 23.050781 4.757812 23.324219 4.925781 23.457031 C 5.09375 23.59375 5.285156 23.660156 5.5 23.660156 C 5.714844 23.660156 5.910156 23.59375 6.078125 23.453125 C 6.246094 23.316406 6.378906 23.070312 6.472656 22.714844 C 6.59375 22.257812 6.65625 21.484375 6.65625 20.390625 C 6.65625 19.300781 6.601562 18.550781 6.492188 18.140625 C 6.378906 17.734375 6.242188 17.460938 6.074219 17.324219 C 5.90625 17.1875 5.714844 17.117188 5.5 17.117188 Z M 5.5 17.117188 "/>
</svg>
