<?xml version="1.0" encoding="UTF-8"?>
<svg xmlns="http://www.w3.org/2000/svg" xmlns:xlink="http://www.w3.org/1999/xlink" width="11" height="30" viewBox="0 0 11 30">
<rect x="-1.1" y="-3" width="13.2" height="36" fill="rgb(0%, 0%, 0%)" fill-opacity="1"/>
<path fill-rule="nonzero" fill="rgb(100%, 100%, 100%)" fill-opacity="1" d="M 0.800781 0.800781 L 10.199219 0.800781 L 10.199219 29.199219 L 0.800781 29.199219 Z M 0.800781 0.800781 "/>
<path fill-rule="nonzero" fill="rgb(0%, 0%, 0%)" fill-opacity="1" d="M 3.996094 9.265625 C 3.535156 9.070312 3.199219 8.800781 2.988281 8.460938 C 2.78125 8.121094 2.675781 7.746094 2.675781 7.339844 C 2.675781 6.648438 2.917969 6.074219 3.402344 5.621094 C 3.886719 5.167969 4.574219 4.941406 5.46875 4.941406 C 6.351562 4.941406 7.039062 5.167969 7.527344 5.621094 C 8.015625 6.074219 8.261719 6.648438 8.261719 7.339844 C 8.261719 7.773438 8.148438 8.15625 7.925781 8.492188 C 7.699219 8.828125 7.386719 9.085938 6.980469 9.265625 C 7.496094 9.472656 7.886719 9.773438 8.15625 10.171875 C 8.425781 10.570312 8.558594 11.03125 8.558594 11.550781 C 8.558594 12.410156 8.285156 13.105469 7.738281 13.644531 C 7.191406 14.183594 6.460938 14.449219 5.550781 14.449219 C 4.703125 14.449219 4 14.230469 3.4375 13.785156 C 2.773438 13.257812 2.441406 12.539062 2.441406 11.625 C 2.441406 11.121094 2.566406 10.660156 2.816406 10.238281 C 3.066406 9.816406 3.457031 9.492188 3.996094 9.265625 Z M 4.363281 7.46875 C 4.363281 7.824219 4.464844 8.101562 4.664062 8.300781 C 4.867188 8.5 5.132812 8.597656 5.46875 8.597656 C 5.808594 8.597656 6.078125 8.496094 6.28125 8.296875 C 6.484375 8.097656 6.585938 7.816406 6.585938 7.460938 C 6.585938 7.128906 6.484375 6.859375 6.285156 6.660156 C 6.082031 6.457031 5.816406 6.359375 5.488281 6.359375 C 5.144531 6.359375 4.871094 6.460938 4.667969 6.664062 C 4.464844 6.867188 4.363281 7.132812 4.363281 7.46875 Z M 4.199219 11.453125 C 4.199219 11.945312 4.324219 12.328125 4.578125 12.605469 C 4.828125 12.878906 5.140625 13.015625 5.519531 13.015625 C 5.886719 13.015625 6.191406 12.882812 6.433594 12.621094 C 6.675781 12.355469 6.796875 11.972656 6.796875 11.472656 C 6.796875 11.039062 6.671875 10.6875 6.425781 10.421875 C 6.179688 10.160156 5.871094 10.027344 5.492188 10.027344 C 5.058594 10.027344 4.734375 10.175781 4.519531 10.476562 C 4.304688 10.777344 4.199219 11.105469 4.199219 11.453125 Z M 4.199219 11.453125 "/>
<path fill-rule="nonzero" fill="rgb(0%, 0%, 0%)" fill-opacity="1" d="M 2.371094 22.507812 L 4.148438 22.320312 C 4.199219 22.722656 4.347656 23.042969 4.597656 23.277344 C 4.847656 23.511719 5.136719 23.628906 5.460938 23.628906 C 5.835938 23.628906 6.148438 23.476562 6.40625 23.175781 C 6.664062 22.875 6.796875 22.417969 6.796875 21.808594 C 6.796875 21.238281 6.667969 20.808594 6.410156 20.523438 C 6.15625 20.238281 5.820312 20.09375 5.410156 20.09375 C 4.898438 20.09375 4.441406 20.320312 4.035156 20.773438 L 2.585938 20.5625 L 3.5 15.71875 L 8.21875 15.71875 L 8.21875 17.390625 L 4.851562 17.390625 L 4.574219 18.96875 C 4.972656 18.773438 5.378906 18.671875 5.792969 18.671875 C 6.582031 18.671875 7.253906 18.960938 7.804688 19.535156 C 8.355469 20.109375 8.628906 20.859375 8.628906 21.777344 C 8.628906 22.542969 8.40625 23.226562 7.960938 23.828125 C 7.359375 24.648438 6.519531 25.058594 5.441406 25.058594 C 4.582031 25.058594 3.882812 24.828125 3.34375 24.367188 C 2.800781 23.90625 2.476562 23.285156 2.371094 22.507812 Z M 2.371094 22.507812 "/>
</svg>
