<?xml version="1.0" encoding="UTF-8"?>
<svg xmlns="http://www.w3.org/2000/svg" xmlns:xlink="http://www.w3.org/1999/xlink" width="11" height="30" viewBox="0 0 11 30">
<rect x="-1.1" y="-3" width="13.2" height="36" fill="rgb(0%, 0%, 0%)" fill-opacity="1"/>
<path fill-rule="nonzero" fill="rgb(100%, 100%, 100%)" fill-opacity="1" d="M 0.800781 0.800781 L 10.199219 0.800781 L 10.199219 29.199219 L 0.800781 29.199219 Z M 0.800781 0.800781 "/>
<path fill-rule="nonzero" fill="rgb(0%, 0%, 0%)" fill-opacity="1" d="M 2.570312 12.050781 L 4.296875 11.859375 C 4.339844 12.210938 4.449219 12.472656 4.628906 12.640625 C 4.804688 12.8125 5.039062 12.894531 5.332031 12.894531 C 5.699219 12.894531 6.011719 12.726562 6.269531 12.386719 C 6.53125 12.050781 6.695312 11.347656 6.765625 10.28125 C 6.316406 10.800781 5.757812 11.0625 5.085938 11.0625 C 4.351562 11.0625 3.71875 10.777344 3.1875 10.214844 C 2.660156 9.648438 2.394531 8.914062 2.394531 8.007812 C 2.394531 7.0625 2.671875 6.304688 3.234375 5.726562 C 3.792969 5.148438 4.507812 4.859375 5.375 4.859375 C 6.320312 4.859375 7.09375 5.226562 7.699219 5.953125 C 8.304688 6.683594 8.605469 7.886719 8.605469 9.558594 C 8.605469 11.257812 8.292969 12.484375 7.660156 13.238281 C 7.03125 13.992188 6.210938 14.367188 5.199219 14.367188 C 4.46875 14.367188 3.882812 14.175781 3.433594 13.789062 C 2.984375 13.398438 2.699219 12.820312 2.570312 12.050781 Z M 6.609375 8.152344 C 6.609375 7.578125 6.476562 7.132812 6.210938 6.816406 C 5.945312 6.496094 5.640625 6.339844 5.292969 6.339844 C 4.964844 6.339844 4.691406 6.46875 4.472656 6.730469 C 4.253906 6.988281 4.144531 7.414062 4.144531 8.007812 C 4.144531 8.609375 4.261719 9.050781 4.5 9.332031 C 4.738281 9.613281 5.035156 9.753906 5.390625 9.753906 C 5.730469 9.753906 6.019531 9.617188 6.253906 9.347656 C 6.492188 9.078125 6.609375 8.679688 6.609375 8.152344 Z M 6.609375 8.152344 "/>
<path fill-rule="nonzero" fill="rgb(0%, 0%, 0%)" fill-opacity="1" d="M 5.5 15.636719 C 6.402344 15.636719 7.105469 15.960938 7.613281 16.601562 C 8.21875 17.363281 8.523438 18.628906 8.523438 20.390625 C 8.523438 22.152344 8.21875 23.417969 7.609375 24.1875 C 7.105469 24.824219 6.402344 25.140625 5.5 25.140625 C 4.59375 25.140625 3.863281 24.792969 3.308594 24.097656 C 2.753906 23.398438 2.476562 22.160156 2.476562 20.375 C 2.476562 18.621094 2.78125 17.359375 3.390625 16.589844 C 3.894531 15.957031 4.597656 15.636719 5.5 15.636719 Z M 5.5 17.117188 C 5.285156 17.117188 5.089844 17.1875 4.921875 17.324219 C 4.753906 17.460938 4.621094 17.707031 4.527344 18.0625 C 4.40625 18.523438 4.34375 19.300781 4.34375 20.390625 C 4.34375 21.484375 4.398438 22.234375 4.507812 22.640625 C 4.621094 23.050781 4.757812 23.324219 4.925781 23.457031 C 5.09375 23.59375 5.285156 23.660156 5.5 23.660156 C 5.714844 23.660156 5.910156 23.59375 6.078125 23.453125 C 6.246094 23.316406 6.378906 23.070312 6.472656 22.714844 C 6.59375 22.257812 6.65625 21.484375 6.65625 20.390625 C 6.65625 19.300781 6.601562 18.550781 6.492188 18.140625 C 6.378906 17.734375 6.242188 17.460938 6.074219 17.324219 C 5.90625 17.1875 5.714844 17.117188 5.5 17.117188 Z M 5.5 17.117188 "/>
</svg>
