<?xml version="1.0" encoding="UTF-8"?>
<svg xmlns="http://www.w3.org/2000/svg" xmlns:xlink="http://www.w3.org/1999/xlink" width="11" height="30" viewBox="0 0 11 30">
<rect x="-1.1" y="-3" width="13.2" height="36" fill="rgb(0%, 0%, 0%)" fill-opacity="1"/>
<path fill-rule="nonzero" fill="rgb(100%, 100%, 100%)" fill-opacity="1" d="M 0.800781 0.800781 L 10.199219 0.800781 L 10.199219 29.199219 L 0.800781 29.199219 Z M 0.800781 0.800781 "/>
<path fill-rule="nonzero" fill="rgb(0%, 0%, 0%)" fill-opacity="1" d="M 2.570312 12.132812 L 4.296875 11.945312 C 4.339844 12.292969 4.449219 12.554688 4.628906 12.722656 C 4.804688 12.894531 5.039062 12.976562 5.332031 12.976562 C 5.699219 12.976562 6.011719 12.808594 6.269531 12.46875 C 6.53125 12.132812 6.695312 11.429688 6.765625 10.363281 C 6.316406 10.882812 5.757812 11.144531 5.085938 11.144531 C 4.351562 11.144531 3.71875 10.859375 3.1875 10.296875 C 2.660156 9.730469 2.394531 8.996094 2.394531 8.089844 C 2.394531 7.148438 2.671875 6.386719 3.234375 5.808594 C 3.792969 5.230469 4.507812 4.941406 5.375 4.941406 C 6.320312 4.941406 7.09375 5.308594 7.699219 6.039062 C 8.304688 6.765625 8.605469 7.96875 8.605469 9.640625 C 8.605469 11.339844 8.292969 12.566406 7.660156 13.320312 C 7.03125 14.074219 6.210938 14.449219 5.199219 14.449219 C 4.46875 14.449219 3.882812 14.257812 3.433594 13.871094 C 2.984375 13.484375 2.699219 12.902344 2.570312 12.132812 Z M 6.609375 8.238281 C 6.609375 7.660156 6.476562 7.214844 6.210938 6.898438 C 5.945312 6.578125 5.640625 6.421875 5.292969 6.421875 C 4.964844 6.421875 4.691406 6.550781 4.472656 6.8125 C 4.253906 7.070312 4.144531 7.5 4.144531 8.089844 C 4.144531 8.691406 4.261719 9.132812 4.5 9.414062 C 4.738281 9.695312 5.035156 9.835938 5.390625 9.835938 C 5.730469 9.835938 6.019531 9.699219 6.253906 9.429688 C 6.492188 9.160156 6.609375 8.761719 6.609375 8.238281 Z M 6.609375 8.238281 "/>
<path fill-rule="nonzero" fill="rgb(0%, 0%, 0%)" fill-opacity="1" d="M 2.371094 22.507812 L 4.148438 22.320312 C 4.199219 22.722656 4.347656 23.042969 4.597656 23.277344 C 4.847656 23.511719 5.136719 23.628906 5.460938 23.628906 C 5.835938 23.628906 6.148438 23.476562 6.40625 23.175781 C 6.664062 22.875 6.796875 22.417969 6.796875 21.808594 C 6.796875 21.238281 6.667969 20.808594 6.410156 20.523438 C 6.15625 20.238281 5.820312 20.09375 5.410156 20.09375 C 4.898438 20.09375 4.441406 20.320312 4.035156 20.773438 L 2.585938 20.5625 L 3.5 15.71875 L 8.21875 15.71875 L 8.21875 17.390625 L 4.851562 17.390625 L 4.574219 18.96875 C 4.972656 18.773438 5.378906 18.671875 5.792969 18.671875 C 6.582031 18.671875 7.253906 18.960938 7.804688 19.535156 C 8.355469 20.109375 8.628906 20.859375 8.628906 21.777344 C 8.628906 22.542969 8.40625 23.226562 7.960938 23.828125 C 7.359375 24.648438 6.519531 25.058594 5.441406 25.058594 C 4.582031 25.058594 3.882812 24.828125 3.34375 24.367188 C 2.800781 23.90625 2.476562 23.285156 2.371094 22.507812 Z M 2.371094 22.507812 "/>
</svg>
