<?xml version="1.0" encoding="UTF-8"?>
<svg xmlns="http://www.w3.org/2000/svg" xmlns:xlink="http://www.w3.org/1999/xlink" width="16.640337" height="15" viewBox="0 0 16.640337 15">
<path fill="none" stroke-width="0.132292" stroke-linecap="round" stroke-linejoin="round" stroke="rgb(72.941176%, 0%, 0%)" stroke-opacity="1" stroke-miterlimit="4" d="M 40.481069 73.28399 L 53.503894 73.28399 L 53.503894 189.730507 L 40.481069 189.730507 Z M 40.481069 73.28399 " transform="matrix(0.12868, 0, 0, 0.12868, -5.201304, -9.422395)"/>
<path fill-rule="nonzero" fill="rgb(72.941176%, 0%, 0%)" fill-opacity="1" d="M 0.0078125 0.0078125 L 1.683594 0.0078125 L 1.683594 14.992188 L 0.0078125 14.992188 Z M 0.0078125 0.0078125 "/>
<path fill="none" stroke-width="0.132292" stroke-linecap="round" stroke-linejoin="round" stroke="rgb(72.941176%, 0%, 0%)" stroke-opacity="1" stroke-miterlimit="4" d="M 67.680256 73.28399 L 80.672725 73.28399 L 80.672725 189.730507 L 67.680256 189.730507 Z M 67.680256 73.28399 " transform="matrix(0.12868, 0, 0, 0.12868, -5.201304, -9.422395)"/>
<path fill-rule="nonzero" fill="rgb(72.941176%, 0%, 0%)" fill-opacity="1" d="M 3.507812 0.0078125 L 5.179688 0.0078125 L 5.179688 14.992188 L 3.507812 14.992188 Z M 3.507812 0.0078125 "/>
<path fill="none" stroke-width="10" stroke-linecap="butt" stroke-linejoin="miter" stroke="rgb(72.941176%, 0%, 0%)" stroke-opacity="1" stroke-miterlimit="4" d="M 72.962241 186.72524 C 72.962241 186.72524 75.63359 153.849438 96.124048 125.830633 C 114.48957 100.756382 137.347815 90.1317 137.347815 90.1317 " transform="matrix(0.12868, 0, 0, 0.12868, -5.201304, -9.422395)"/>
<path fill-rule="evenodd" fill="rgb(72.941176%, 0%, 0%)" fill-opacity="1" d="M 12.472656 2.175781 L 12.160156 5.867188 L 16.640625 0.242188 L 9.449219 0.03125 Z M 12.472656 2.175781 "/>
</svg>
