<?xml version="1.0" encoding="UTF-8" standalone="no"?>
<svg
   width="15"
   height="12.278229"
   viewBox="0 0 15 12.278229"
   version="1.1"
   id="svg28"
   sodipodi:docname="level-crossing-barrier.svg"
   inkscape:version="1.4 (e7c3feb100, 2024-10-09)"
   xmlns:inkscape="http://www.inkscape.org/namespaces/inkscape"
   xmlns:sodipodi="http://sodipodi.sourceforge.net/DTD/sodipodi-0.dtd"
   xmlns="http://www.w3.org/2000/svg"
   xmlns:svg="http://www.w3.org/2000/svg">
  <defs
     id="defs28" />
  <sodipodi:namedview
     id="namedview28"
     pagecolor="#ffffff"
     bordercolor="#999999"
     borderopacity="1"
     inkscape:showpageshadow="0"
     inkscape:pageopacity="0"
     inkscape:pagecheckerboard="0"
     inkscape:deskcolor="#d1d1d1"
     inkscape:zoom="47.28163"
     inkscape:cx="6.0911606"
     inkscape:cy="5.9536865"
     inkscape:window-width="1920"
     inkscape:window-height="1008"
     inkscape:window-x="1920"
     inkscape:window-y="0"
     inkscape:window-maximized="1"
     inkscape:current-layer="svg28" />
  <path
     fill="none"
     stroke-width="0.562503"
     stroke-linecap="round"
     stroke-linejoin="miter"
     stroke="rgb(0%, 0%, 0%)"
     stroke-opacity="1"
     stroke-miterlimit="4"
     d="M 3.722805 0.398364 L 1.958622 2.167289 L 7.246429 7.455096 L 1.968107 12.728675 L 3.73229 14.492857 L 9.005869 9.214536 L 10.774795 10.978719 L 14.293675 14.507085 L 16.053116 12.738159 L 12.529493 9.214536 L 10.774795 7.455096 L 16.053116 2.167289 L 14.293675 0.398364 L 12.529493 2.167289 L 10.774795 3.931472 L 9.005869 5.690913 L 5.482246 2.167289 Z M 3.722805 0.398364 "
     transform="matrix(0.823682, 0, 0, 0.823682, 0, 0)"
     id="path7" />
  <path
     fill-rule="nonzero"
     fill="rgb(79.607843%, 7.843137%, 7.843137%)"
     fill-opacity="1"
     d="M 1.621094 10.484375 L 3.074219 9.035156 L 4.527344 10.484375 L 3.074219 11.9375 Z M 1.621094 10.484375 "
     id="path8" />
  <path
     fill-rule="nonzero"
     fill="rgb(100%, 100%, 100%)"
     fill-opacity="1"
     d="M 3.066406 9.042969 L 4.515625 7.589844 L 5.96875 9.042969 L 4.515625 10.492188 Z M 3.066406 9.042969 "
     id="path9" />
  <path
     fill-rule="nonzero"
     fill="rgb(79.607843%, 7.843137%, 7.843137%)"
     fill-opacity="1"
     d="M 4.515625 7.589844 L 5.96875 6.140625 L 7.421875 7.589844 L 5.96875 9.042969 Z M 4.515625 7.589844 "
     id="path10" />
  <path
     fill-rule="nonzero"
     fill="rgb(100%, 100%, 100%)"
     fill-opacity="1"
     d="M 5.96875 6.140625 L 7.421875 4.6875 L 8.875 6.140625 L 7.421875 7.589844 Z M 5.96875 6.140625 "
     id="path11" />
  <path
     fill-rule="nonzero"
     fill="rgb(79.607843%, 7.843137%, 7.843137%)"
     fill-opacity="1"
     d="M 7.421875 4.6875 L 8.875 3.238281 L 10.324219 4.6875 L 8.875 6.140625 Z M 7.421875 4.6875 "
     id="path12" />
  <path
     fill-rule="nonzero"
     fill="rgb(100%, 100%, 100%)"
     fill-opacity="1"
     d="M 8.875 3.238281 L 10.324219 1.785156 L 11.773438 3.238281 L 10.324219 4.6875 Z M 8.875 3.238281 "
     id="path13" />
  <path
     fill-rule="nonzero"
     fill="rgb(79.607843%, 7.843137%, 7.843137%)"
     fill-opacity="1"
     d="M 10.324219 1.785156 L 11.773438 0.335938 L 13.222656 1.785156 L 11.773438 3.238281 Z M 10.324219 1.785156 "
     id="path14" />
  <path
     fill-rule="nonzero"
     fill="rgb(79.607843%, 7.843137%, 7.843137%)"
     fill-opacity="1"
     d="M 3.066406 0.335938 L 4.515625 1.785156 L 3.066406 3.238281 L 1.613281 1.785156 Z M 3.066406 0.335938 "
     id="path15" />
  <path
     fill-rule="nonzero"
     fill="rgb(100%, 100%, 100%)"
     fill-opacity="1"
     d="M 4.515625 1.785156 L 5.96875 3.238281 L 4.515625 4.6875 L 3.066406 3.238281 Z M 4.515625 1.785156 "
     id="path16" />
  <path
     fill-rule="nonzero"
     fill="rgb(79.607843%, 7.843137%, 7.843137%)"
     fill-opacity="1"
     d="M 5.96875 3.238281 L 7.421875 4.6875 L 5.96875 6.140625 L 4.515625 4.6875 Z M 5.96875 3.238281 "
     id="path17" />
  <path
     fill-rule="nonzero"
     fill="rgb(79.607843%, 7.843137%, 7.843137%)"
     fill-opacity="1"
     d="M 8.875 6.140625 L 10.320312 7.589844 L 8.875 9.042969 L 7.421875 7.589844 Z M 8.875 6.140625 "
     id="path18" />
  <path
     fill-rule="nonzero"
     fill="rgb(100%, 100%, 100%)"
     fill-opacity="1"
     d="M 10.324219 7.589844 L 11.773438 9.042969 L 10.324219 10.492188 L 8.875 9.042969 Z M 10.324219 7.589844 "
     id="path19" />
  <path
     fill-rule="nonzero"
     fill="rgb(79.607843%, 7.843137%, 7.843137%)"
     fill-opacity="1"
     d="M 11.773438 9.042969 L 13.222656 10.492188 L 11.773438 11.945312 L 10.320312 10.492188 Z M 11.773438 9.042969 "
     id="path20" />
  <path
     fill="none"
     stroke-width="1.12499"
     stroke-linecap="round"
     stroke-linejoin="miter"
     stroke="rgb(0%, 0%, 0%)"
     stroke-opacity="1"
     stroke-miterlimit="4"
     d="M 12.761872 12.23072 L 0.564349 12.23072 L 0.564349 13.217145 L 17.646572 13.217145 L 17.646572 12.23072 Z M 12.761872 12.23072 "
     transform="matrix(0.823682, 0, 0, 0.823682, 0, 0)"
     id="path21" />
  <path
     fill-rule="nonzero"
     fill="rgb(79.607843%, 7.843137%, 7.843137%)"
     fill-opacity="1"
     d="M 0.464844 10.074219 L 2.476562 10.074219 L 2.476562 10.886719 L 0.464844 10.886719 Z M 0.464844 10.074219 "
     id="path22" />
  <path
     fill-rule="nonzero"
     fill="rgb(100%, 100%, 100%)"
     fill-opacity="1"
     d="M 2.464844 10.074219 L 4.480469 10.074219 L 4.480469 10.886719 L 2.464844 10.886719 Z M 2.464844 10.074219 "
     id="path23" />
  <path
     fill-rule="nonzero"
     fill="rgb(79.607843%, 7.843137%, 7.843137%)"
     fill-opacity="1"
     d="M 4.480469 10.074219 L 6.488281 10.074219 L 6.488281 10.886719 L 4.480469 10.886719 Z M 4.480469 10.074219 "
     id="path24" />
  <path
     fill-rule="nonzero"
     fill="rgb(100%, 100%, 100%)"
     fill-opacity="1"
     d="M 6.488281 10.074219 L 8.503906 10.074219 L 8.503906 10.886719 L 6.488281 10.886719 Z M 6.488281 10.074219 "
     id="path25" />
  <path
     fill-rule="nonzero"
     fill="rgb(79.607843%, 7.843137%, 7.843137%)"
     fill-opacity="1"
     d="M 8.503906 10.074219 L 10.511719 10.074219 L 10.511719 10.886719 L 8.503906 10.886719 Z M 8.503906 10.074219 "
     id="path26" />
  <path
     fill-rule="nonzero"
     fill="rgb(100%, 100%, 100%)"
     fill-opacity="1"
     d="M 10.515625 10.074219 L 12.527344 10.074219 L 12.527344 10.886719 L 10.511719 10.886719 Z M 10.515625 10.074219 "
     id="path27" />
  <path
     fill-rule="nonzero"
     fill="rgb(79.607843%, 7.843137%, 7.843137%)"
     fill-opacity="1"
     d="M 12.527344 10.074219 L 14.535156 10.074219 L 14.535156 10.886719 L 12.527344 10.886719 Z M 12.527344 10.074219 "
     id="path28" />
</svg>
