<?xml version="1.0" encoding="UTF-8"?>
<svg xmlns="http://www.w3.org/2000/svg" xmlns:xlink="http://www.w3.org/1999/xlink" width="12" height="12" viewBox="0 0 12 12">
<path fill-rule="nonzero" fill="rgb(100%, 100%, 100%)" fill-opacity="1" d="M 1.828125 0.328125 L 10.171875 0.328125 C 11 0.328125 11.671875 1 11.671875 1.828125 L 11.671875 10.171875 C 11.671875 11 11 11.671875 10.171875 11.671875 L 1.828125 11.671875 C 1 11.671875 0.328125 11 0.328125 10.171875 L 0.328125 1.828125 C 0.328125 1 1 0.328125 1.828125 0.328125 Z M 1.828125 0.328125 "/>
<path fill="none" stroke-width="16" stroke-linecap="butt" stroke-linejoin="miter" stroke="rgb(80%, 80%, 80%)" stroke-opacity="1" stroke-miterlimit="4" d="M 169 58 L 57 145 L 195 199 " transform="matrix(0.046875, 0, 0, 0.046875, 0, 0)"/>
<path fill-rule="nonzero" fill="rgb(0%, 0%, 0%)" fill-opacity="1" d="M 9.046875 2.71875 C 9.046875 3.339844 8.542969 3.84375 7.921875 3.84375 C 7.300781 3.84375 6.796875 3.339844 6.796875 2.71875 C 6.796875 2.097656 7.300781 1.59375 7.921875 1.59375 C 8.542969 1.59375 9.046875 2.097656 9.046875 2.71875 Z M 9.046875 2.71875 "/>
<path fill-rule="nonzero" fill="rgb(0%, 0%, 0%)" fill-opacity="1" d="M 3.796875 6.796875 C 3.796875 7.417969 3.292969 7.921875 2.671875 7.921875 C 2.050781 7.921875 1.546875 7.417969 1.546875 6.796875 C 1.546875 6.175781 2.050781 5.671875 2.671875 5.671875 C 3.292969 5.671875 3.796875 6.175781 3.796875 6.796875 Z M 3.796875 6.796875 "/>
<path fill-rule="nonzero" fill="rgb(0%, 0%, 0%)" fill-opacity="1" d="M 10.265625 9.328125 C 10.265625 9.949219 9.761719 10.453125 9.140625 10.453125 C 8.519531 10.453125 8.015625 9.949219 8.015625 9.328125 C 8.015625 8.707031 8.519531 8.203125 9.140625 8.203125 C 9.761719 8.203125 10.265625 8.707031 10.265625 9.328125 Z M 10.265625 9.328125 "/>
<path fill="none" stroke-width="12" stroke-linecap="butt" stroke-linejoin="miter" stroke="rgb(0%, 0%, 0%)" stroke-opacity="1" stroke-miterlimit="4" d="M 39 7 L 217 7 C 234.666667 7 249 21.333333 249 39 L 249 217 C 249 234.666667 234.666667 249 217 249 L 39 249 C 21.333333 249 7 234.666667 7 217 L 7 39 C 7 21.333333 21.333333 7 39 7 Z M 39 7 " transform="matrix(0.046875, 0, 0, 0.046875, 0, 0)"/>
</svg>
