<?xml version="1.0" encoding="UTF-8"?>
<svg xmlns="http://www.w3.org/2000/svg" xmlns:xlink="http://www.w3.org/1999/xlink" width="12" height="12" viewBox="0 0 12 12">
<path fill-rule="nonzero" fill="rgb(100%, 100%, 100%)" fill-opacity="1" d="M 1.828125 0.328125 L 10.171875 0.328125 C 11 0.328125 11.671875 1 11.671875 1.828125 L 11.671875 10.171875 C 11.671875 11 11 11.671875 10.171875 11.671875 L 1.828125 11.671875 C 1 11.671875 0.328125 11 0.328125 10.171875 L 0.328125 1.828125 C 0.328125 1 1 0.328125 1.828125 0.328125 Z M 1.828125 0.328125 "/>
<path fill-rule="nonzero" fill="rgb(74.509804%, 90.196078%, 74.509804%)" fill-opacity="1" stroke-width="10" stroke-linecap="butt" stroke-linejoin="miter" stroke="rgb(0%, 0%, 0%)" stroke-opacity="1" stroke-miterlimit="4" d="M 152 128 C 152 141.25 141.25 152 128 152 C 114.75 152 104 141.25 104 128 C 104 114.75 114.75 104 128 104 C 141.25 104 152 114.75 152 128 Z M 152 128 " transform="matrix(0.046875, 0, 0, 0.046875, 0, 0)"/>
<path fill="none" stroke-width="12" stroke-linecap="butt" stroke-linejoin="miter" stroke="rgb(0%, 0%, 0%)" stroke-opacity="1" stroke-miterlimit="4" d="M 39 7 L 217 7 C 234.666667 7 249 21.333333 249 39 L 249 217 C 249 234.666667 234.666667 249 217 249 L 39 249 C 21.333333 249 7 234.666667 7 217 L 7 39 C 7 21.333333 21.333333 7 39 7 Z M 39 7 " transform="matrix(0.046875, 0, 0, 0.046875, 0, 0)"/>
</svg>
