<?xml version="1.0" encoding="UTF-8"?>
<svg xmlns="http://www.w3.org/2000/svg" xmlns:xlink="http://www.w3.org/1999/xlink" width="16" height="16" viewBox="0 0 16 16">
<path fill-rule="nonzero" fill="rgb(0%, 0%, 0%)" fill-opacity="1" d="M 0.699219 0 L 1.121094 0 C 1.507812 0 1.820312 0.277344 1.820312 0.617188 L 1.820312 15.382812 C 1.820312 15.722656 1.507812 16 1.121094 16 L 0.699219 16 C 0.3125 16 0 15.722656 0 15.382812 L 0 0.617188 C 0 0.277344 0.3125 0 0.699219 0 Z M 0.699219 0 "/>
<path fill-rule="nonzero" fill="rgb(0%, 0%, 0%)" fill-opacity="1" d="M 3.425781 0 L 3.851562 0 C 4.238281 0 4.550781 0.277344 4.550781 0.617188 L 4.550781 15.382812 C 4.550781 15.722656 4.238281 16 3.851562 16 L 3.425781 16 C 3.042969 16 2.730469 15.722656 2.730469 15.382812 L 2.730469 0.617188 C 2.730469 0.277344 3.042969 0 3.425781 0 Z M 3.425781 0 "/>
<path fill-rule="nonzero" fill="rgb(0%, 0%, 0%)" fill-opacity="1" d="M 12.148438 0 L 12.574219 0 C 12.957031 0 13.269531 0.277344 13.269531 0.617188 L 13.269531 15.382812 C 13.269531 15.722656 12.957031 16 12.574219 16 L 12.148438 16 C 11.761719 16 11.449219 15.722656 11.449219 15.382812 L 11.449219 0.617188 C 11.449219 0.277344 11.761719 0 12.148438 0 Z M 12.148438 0 "/>
<path fill-rule="nonzero" fill="rgb(0%, 0%, 0%)" fill-opacity="1" d="M 14.878906 0 L 15.300781 0 C 15.6875 0 16 0.277344 16 0.617188 L 16 15.382812 C 16 15.722656 15.6875 16 15.300781 16 L 14.878906 16 C 14.492188 16 14.179688 15.722656 14.179688 15.382812 L 14.179688 0.617188 C 14.179688 0.277344 14.492188 0 14.878906 0 Z M 14.878906 0 "/>
</svg>
