<?xml version="1.0" encoding="UTF-8" standalone="no"?>
<svg
   width="12.429688"
   height="16"
   viewBox="0 0 12.429688 15.999999"
   version="1.1"
   id="svg30"
   sodipodi:docname="switch-double-slip.svg"
   inkscape:version="1.2.2 (b0a8486541, 2022-12-01)"
   xmlns:inkscape="http://www.inkscape.org/namespaces/inkscape"
   xmlns:sodipodi="http://sodipodi.sourceforge.net/DTD/sodipodi-0.dtd"
   xmlns="http://www.w3.org/2000/svg"
   xmlns:svg="http://www.w3.org/2000/svg">
  <defs
     id="defs34" />
  <sodipodi:namedview
     id="namedview32"
     pagecolor="#ffffff"
     bordercolor="#666666"
     borderopacity="1.0"
     inkscape:showpageshadow="2"
     inkscape:pageopacity="0.0"
     inkscape:pagecheckerboard="0"
     inkscape:deskcolor="#d1d1d1"
     showgrid="false"
     inkscape:zoom="36.18433"
     inkscape:cx="-2.2109018"
     inkscape:cy="9.6726953"
     inkscape:window-width="1920"
     inkscape:window-height="1129"
     inkscape:window-x="0"
     inkscape:window-y="0"
     inkscape:window-maximized="1"
     inkscape:current-layer="svg30"
     showguides="true">
    <sodipodi:guide
       position="7.9999997,7.9999997"
       orientation="0,-1"
       id="guide4050"
       inkscape:locked="false" />
    <sodipodi:guide
       position="8.0288673,9.9999992"
       orientation="1,0"
       id="guide4052"
       inkscape:locked="false" />
    <sodipodi:guide
       position="12.43179,16"
       orientation="1,0"
       id="guide4807"
       inkscape:locked="false" />
    <sodipodi:guide
       position="11.462968,14.753103"
       orientation="1,0"
       id="guide5544"
       inkscape:locked="false" />
  </sodipodi:namedview>
  <path
     style="color:#000000;fill:#003687;-inkscape-stroke:none"
     d="m 11.800781,-0.49023438 -0.96875,1.24609375 C 10.212233,1.553554 9.7345208,2.7574259 9.3457031,4.0859375 8.9568855,5.4144491 8.6894531,6.8313538 8.6894531,8 c 0,2.337956 0.9855182,5.399067 2.1152349,7.044922 l 0.966796,1.40625 1.316407,-0.902344 -0.966797,-1.408203 C 11.318352,12.971131 10.287109,9.821834 10.287109,8 c 0,-0.9112489 0.235809,-2.2485043 0.591797,-3.4648438 0.355988,-1.2163394 0.865821,-2.3496278 1.214844,-2.7988281 L 13.0625,0.49023438 Z"
     id="path1597-5-3-6" />
  <path
     style="color:#000000;fill:#003687;-inkscape-stroke:none"
     d="m 0.65039062,-0.47070313 -1.26171874,0.98046875 0.96875,1.24609378 C 0.70509467,2.2033222 1.2063114,3.3296766 1.5546875,4.5410156 1.9030636,5.7523547 2.1308594,7.0847429 2.1308594,8 c 0,1.8298506 -1.0044967,5.000069 -1.80078127,6.160156 L -0.63671875,15.566406 0.6796875,16.470703 1.6464844,15.0625 C 2.7826579,13.407238 3.7285156,10.329939 3.7285156,8 3.7285156,6.8353621 3.47062,5.4236071 3.0898438,4.0996094 2.7090675,2.7756117 2.2402889,1.5748226 1.6191406,0.77539062 Z"
     id="path1597-5-3-6-3" />
  <path
     style="color:#000000;fill:#003687;-inkscape-stroke:none"
     d="M 0.63085937,-0.49023438 -0.63085937,0.49023438 11.798828,16.490234 13.060547,15.509766 Z"
     id="path1597-5-3-6-5-7" />
  <path
     style="color:#000000;fill:#003687;-inkscape-stroke:none"
     d="M 11.800781,-0.49023438 -0.63085937,15.509766 0.63085937,16.490234 13.0625,0.49023438 Z"
     id="path1597-5-3-6-5-7-5" />
</svg>
