<?xml version="1.0" encoding="UTF-8" standalone="no"?>
<svg
   width="12.429688"
   height="16"
   viewBox="0 0 12.429688 15.999999"
   version="1.1"
   id="svg30"
   sodipodi:docname="switch-single-slip.svg"
   inkscape:version="1.2.2 (b0a8486541, 2022-12-01)"
   xmlns:inkscape="http://www.inkscape.org/namespaces/inkscape"
   xmlns:sodipodi="http://sodipodi.sourceforge.net/DTD/sodipodi-0.dtd"
   xmlns="http://www.w3.org/2000/svg"
   xmlns:svg="http://www.w3.org/2000/svg">
  <defs
     id="defs34" />
  <sodipodi:namedview
     id="namedview32"
     pagecolor="#ffffff"
     bordercolor="#666666"
     borderopacity="1.0"
     inkscape:showpageshadow="2"
     inkscape:pageopacity="0.0"
     inkscape:pagecheckerboard="0"
     inkscape:deskcolor="#d1d1d1"
     showgrid="false"
     inkscape:zoom="36.18433"
     inkscape:cx="1.3265411"
     inkscape:cy="9.6726953"
     inkscape:window-width="1920"
     inkscape:window-height="1129"
     inkscape:window-x="0"
     inkscape:window-y="0"
     inkscape:window-maximized="1"
     inkscape:current-layer="svg30"
     showguides="true">
    <sodipodi:guide
       position="7.9999997,7.9999997"
       orientation="0,-1"
       id="guide4050"
       inkscape:locked="false" />
    <sodipodi:guide
       position="8.0288673,9.9999992"
       orientation="1,0"
       id="guide4052"
       inkscape:locked="false" />
    <sodipodi:guide
       position="12.43179,16"
       orientation="1,0"
       id="guide4807"
       inkscape:locked="false" />
    <sodipodi:guide
       position="11.462968,14.753103"
       orientation="1,0"
       id="guide5544"
       inkscape:locked="false" />
  </sodipodi:namedview>
  <path
     style="color:#000000;fill:#003687;-inkscape-stroke:none"
     d="m 11.800781,-0.49023438 -0.96875,1.24609375 C 10.211236,1.5548368 9.7372006,2.7593631 9.3515625,4.0878906 8.9659244,5.4164181 8.703125,6.8329157 8.703125,8 c 0,2.334832 0.9700709,5.39648 2.101563,7.044922 l 0.966796,1.40625 1.316407,-0.902344 -0.966797,-1.408203 C 11.320127,12.973717 10.300781,9.8249577 10.300781,8 c 0,-0.9128107 0.23287,-2.2504734 0.585938,-3.4667969 0.353068,-1.2163235 0.859005,-2.3489575 1.207031,-2.796875 L 13.0625,0.49023438 Z"
     id="path1597-5-3-6" />
  <path
     style="color:#000000;fill:#003687;-inkscape-stroke:none"
     d="M 0.63085937,-0.49023438 -0.63085937,0.49023438 11.798828,16.490234 13.060547,15.509766 Z"
     id="path1597-5-3-6-5-7" />
  <path
     style="color:#000000;fill:#003687;-inkscape-stroke:none"
     d="M 11.800781,-0.49023438 -0.63085937,15.509766 0.63085937,16.490234 13.0625,0.49023438 Z"
     id="path1597-5-3-6-5-7-5" />
</svg>
