<?xml version="1.0" encoding="UTF-8" standalone="no"?>
<svg
   width="16"
   height="12"
   viewBox="0 0 16 11.999999"
   version="1.1"
   id="svg30"
   sodipodi:docname="switch-abt.svg"
   inkscape:version="1.2.2 (b0a8486541, 2022-12-01)"
   xmlns:inkscape="http://www.inkscape.org/namespaces/inkscape"
   xmlns:sodipodi="http://sodipodi.sourceforge.net/DTD/sodipodi-0.dtd"
   xmlns="http://www.w3.org/2000/svg"
   xmlns:svg="http://www.w3.org/2000/svg">
  <defs
     id="defs34" />
  <sodipodi:namedview
     id="namedview32"
     pagecolor="#ffffff"
     bordercolor="#666666"
     borderopacity="1.0"
     inkscape:showpageshadow="2"
     inkscape:pageopacity="0.0"
     inkscape:pagecheckerboard="0"
     inkscape:deskcolor="#d1d1d1"
     showgrid="false"
     inkscape:zoom="52.539979"
     inkscape:cx="0.32356313"
     inkscape:cy="5.8241363"
     inkscape:window-width="1920"
     inkscape:window-height="1129"
     inkscape:window-x="0"
     inkscape:window-y="0"
     inkscape:window-maximized="1"
     inkscape:current-layer="svg30" />
  <path
     style="color:#000000;fill:#003687;-inkscape-stroke:none"
     d="m 10.255859,0 c 0,2.9676467 -0.3562938,3.3715148 -1.4628902,5.4257812 l -0.00391,0.00586 -0.00195,0.00586 C 7.2734876,8.3591561 7.2269593,9.1478754 7.2011719,11.992188 l 1.5976562,0.01563 C 8.8247171,9.1522967 8.7265705,9.0277055 10.205078,6.1738281 11.293419,4.1534993 11.853516,3.1222548 11.853516,0 Z"
     id="path1597-5-3-6" />
  <path
     style="color:#000000;fill:#003687;-inkscape-stroke:none"
     d="m 4.1464844,0 c 0,3.1222548 0.5600968,4.1534993 1.6484375,6.1738281 1.4785077,2.8538771 1.3803592,2.9784682 1.40625,5.8339849 l 1.5976562,-0.01563 C 8.7730389,9.1478758 8.7265127,8.3591563 7.2128906,5.4375 l -0.00195,-0.00586 -0.00391,-0.00586 C 6.1004348,3.3715148 5.7441406,2.9676467 5.7441406,0 Z"
     id="path1597-5-3-6-3" />
</svg>
