<?xml version="1.0" encoding="UTF-8"?>
<svg xmlns="http://www.w3.org/2000/svg" xmlns:xlink="http://www.w3.org/1999/xlink" width="9.322266" height="12" viewBox="0 0 9.322266 12">
<path fill-rule="nonzero" fill="rgb(0%, 21.176471%, 52.941176%)" fill-opacity="1" d="M 0.515625 -0.339844 L -0.472656 0.339844 L 0.25 1.394531 C 0.851562 2.269531 1.617188 4.632812 1.617188 6 C 1.617188 6.683594 1.441406 7.6875 1.179688 8.601562 C 0.914062 9.511719 0.535156 10.363281 0.273438 10.699219 L -0.453125 11.632812 L 0.492188 12.367188 L 1.21875 11.433594 C 1.683594 10.832031 2.039062 9.929688 2.328125 8.933594 C 2.617188 7.9375 2.816406 6.875 2.816406 6 C 2.816406 4.25 2.085938 1.953125 1.238281 0.714844 Z M 0.515625 -0.339844 "/>
<path fill-rule="nonzero" fill="rgb(0%, 21.176471%, 52.941176%)" fill-opacity="1" d="M 0.492188 -0.367188 L -0.453125 0.367188 L 8.871094 12.367188 L 9.816406 11.632812 Z M 0.492188 -0.367188 "/>
<path fill-rule="nonzero" fill="rgb(0%, 21.176471%, 52.941176%)" fill-opacity="1" d="M 8.871094 -0.367188 L -0.453125 11.632812 L 0.492188 12.367188 L 9.816406 0.367188 Z M 8.871094 -0.367188 "/>
</svg>
