<?xml version="1.0" encoding="UTF-8"?>
<svg xmlns="http://www.w3.org/2000/svg" xmlns:xlink="http://www.w3.org/1999/xlink" width="22.198511" height="10" viewBox="0 0 22.198511 10">
<path fill="none" stroke-width="0.585824" stroke-linecap="round" stroke-linejoin="miter" stroke="rgb(100%, 100%, 100%)" stroke-opacity="1" stroke-miterlimit="4" d="M 0.294448 3.66494 L 8.911756 3.66494 L 8.911756 4.294558 L 0.294448 4.294558 Z M 0.294448 3.66494 " transform="matrix(1.247036, 0, 0, 1.247036, 0, 0)"/>
<path fill-rule="nonzero" fill="rgb(29.803922%, 29.803922%, 29.803922%)" fill-opacity="1" d="M 0.367188 4.570312 L 11.113281 4.570312 L 11.113281 5.355469 L 0.367188 5.355469 Z M 0.367188 4.570312 "/>
<path fill-rule="nonzero" fill="rgb(29.803922%, 29.803922%, 29.803922%)" fill-opacity="1" stroke-width="1" stroke-linecap="butt" stroke-linejoin="miter" stroke="rgb(100%, 100%, 100%)" stroke-opacity="1" stroke-miterlimit="4" d="M 2.311731 0.507453 C 2.311731 0.507453 2.217759 0.698531 2.03921 0.767445 C 1.891986 0.823828 1.804278 0.848888 1.804278 0.848888 L 1.772954 3.981315 L 2.424499 3.981315 L 2.424499 0.510586 Z M 2.311731 0.507453 " transform="matrix(1.247036, 0, 0, 1.247036, 0, 0)"/>
<path fill-rule="nonzero" fill="rgb(29.803922%, 29.803922%, 29.803922%)" fill-opacity="1" stroke-width="1" stroke-linecap="butt" stroke-linejoin="miter" stroke="rgb(100%, 100%, 100%)" stroke-opacity="1" stroke-miterlimit="4" d="M 2.311731 7.505296 C 2.311731 7.505296 2.217759 7.317351 2.03921 7.248437 C 1.891986 7.192054 1.804278 7.166994 1.804278 7.166994 L 1.772954 4.034567 L 2.424499 4.034567 L 2.424499 7.502164 Z M 2.311731 7.505296 " transform="matrix(1.247036, 0, 0, 1.247036, 0, 0)"/>
<path fill="none" stroke-width="0.585824" stroke-linecap="round" stroke-linejoin="miter" stroke="rgb(100%, 100%, 100%)" stroke-opacity="1" stroke-miterlimit="4" d="M -17.507137 3.668073 L -8.889829 3.668073 L -8.889829 4.297691 L -17.507137 4.297691 Z M -17.507137 3.668073 " transform="matrix(-1.247036, 0, 0, 1.247036, 0, 0)"/>
<path fill-rule="nonzero" fill="rgb(29.803922%, 29.803922%, 29.803922%)" fill-opacity="1" d="M 21.832031 4.574219 L 11.085938 4.574219 L 11.085938 5.359375 L 21.832031 5.359375 Z M 21.832031 4.574219 "/>
<path fill-rule="nonzero" fill="rgb(29.803922%, 29.803922%, 29.803922%)" fill-opacity="1" stroke-width="1" stroke-linecap="butt" stroke-linejoin="miter" stroke="rgb(100%, 100%, 100%)" stroke-opacity="1" stroke-miterlimit="4" d="M 15.489854 0.513718 C 15.489854 0.513718 15.580694 0.701664 15.762375 0.770577 C 15.909599 0.826961 15.997307 0.85202 15.997307 0.85202 L 16.028631 3.984448 L 15.377087 3.984448 L 15.377087 0.516851 Z M 15.489854 0.513718 " transform="matrix(1.247036, 0, 0, 1.247036, 0, 0)"/>
<path fill-rule="nonzero" fill="rgb(29.803922%, 29.803922%, 29.803922%)" fill-opacity="1" stroke-width="1" stroke-linecap="butt" stroke-linejoin="miter" stroke="rgb(100%, 100%, 100%)" stroke-opacity="1" stroke-miterlimit="4" d="M 15.489854 7.511561 C 15.489854 7.511561 15.580694 7.320483 15.762375 7.25157 C 15.909599 7.195186 15.997307 7.170127 15.997307 7.170127 L 16.028631 4.037699 L 15.377087 4.037699 L 15.377087 7.508429 Z M 15.489854 7.511561 " transform="matrix(1.247036, 0, 0, 1.247036, 0, 0)"/>
<path fill-rule="nonzero" fill="rgb(29.803922%, 29.803922%, 29.803922%)" fill-opacity="1" d="M 0.367188 4.570312 L 11.113281 4.570312 L 11.113281 5.355469 L 0.367188 5.355469 Z M 0.367188 4.570312 "/>
<path fill-rule="nonzero" fill="rgb(29.803922%, 29.803922%, 29.803922%)" fill-opacity="1" d="M 2.882812 0.632812 C 2.882812 0.632812 2.765625 0.871094 2.542969 0.957031 C 2.359375 1.027344 2.25 1.058594 2.25 1.058594 L 2.210938 4.964844 L 3.023438 4.964844 L 3.023438 0.636719 Z M 2.882812 0.632812 "/>
<path fill-rule="nonzero" fill="rgb(29.803922%, 29.803922%, 29.803922%)" fill-opacity="1" d="M 2.882812 9.359375 C 2.882812 9.359375 2.765625 9.125 2.542969 9.039062 C 2.359375 8.96875 2.25 8.9375 2.25 8.9375 L 2.210938 5.03125 L 3.023438 5.03125 L 3.023438 9.355469 Z M 2.882812 9.359375 "/>
<path fill-rule="nonzero" fill="rgb(29.803922%, 29.803922%, 29.803922%)" fill-opacity="1" d="M 21.832031 4.574219 L 11.085938 4.574219 L 11.085938 5.359375 L 21.832031 5.359375 Z M 21.832031 4.574219 "/>
<path fill-rule="nonzero" fill="rgb(29.803922%, 29.803922%, 29.803922%)" fill-opacity="1" d="M 19.316406 0.640625 C 19.316406 0.640625 19.429688 0.875 19.65625 0.960938 C 19.839844 1.03125 19.949219 1.0625 19.949219 1.0625 L 19.988281 4.96875 L 19.175781 4.96875 L 19.175781 0.644531 Z M 19.316406 0.640625 "/>
<path fill-rule="nonzero" fill="rgb(29.803922%, 29.803922%, 29.803922%)" fill-opacity="1" d="M 19.316406 9.367188 C 19.316406 9.367188 19.429688 9.128906 19.65625 9.042969 C 19.839844 8.972656 19.949219 8.941406 19.949219 8.941406 L 19.988281 5.035156 L 19.175781 5.035156 L 19.175781 9.363281 Z M 19.316406 9.367188 "/>
</svg>
