<?xml version="1.0" encoding="UTF-8"?>
<svg xmlns="http://www.w3.org/2000/svg" xmlns:xlink="http://www.w3.org/1999/xlink" width="16" height="10.151971" viewBox="0 0 16 10.151971">
<path fill-rule="nonzero" fill="rgb(0%, 0%, 0%)" fill-opacity="1" d="M 0 0 L 15.171875 0 L 15.171875 1.980469 L 0 1.980469 Z M 0 0 "/>
<path fill-rule="nonzero" fill="rgb(0%, 0%, 0%)" fill-opacity="1" d="M 15.171875 0 L 15.171875 4.679688 L 13.683594 4.679688 L 13.683594 0 Z M 15.171875 0 "/>
<path fill-rule="evenodd" fill="rgb(1.568627%, 1.568627%, 1.568627%)" fill-opacity="1" d="M 14.40625 5.5625 C 14.355469 5.617188 14.183594 5.832031 14.050781 6.007812 C 13.417969 6.84375 13.003906 7.628906 12.890625 8.195312 C 12.859375 8.339844 12.859375 8.375 12.859375 8.527344 C 12.859375 8.644531 12.859375 8.683594 12.867188 8.726562 C 12.949219 9.164062 13.183594 9.566406 13.515625 9.832031 C 13.789062 10.050781 14.136719 10.164062 14.488281 10.152344 C 14.929688 10.132812 15.3125 9.929688 15.609375 9.558594 C 15.800781 9.324219 15.945312 9 15.988281 8.710938 C 16.007812 8.597656 16.003906 8.414062 15.976562 8.265625 C 15.882812 7.691406 15.46875 6.894531 14.8125 6.019531 C 14.664062 5.824219 14.441406 5.542969 14.429688 5.542969 C 14.425781 5.542969 14.417969 5.550781 14.40625 5.5625 "/>
</svg>
