<?xml version="1.0" encoding="UTF-8"?>
<svg xmlns="http://www.w3.org/2000/svg" xmlns:xlink="http://www.w3.org/1999/xlink" width="16" height="16" viewBox="0 0 16 16">
<path fill-rule="nonzero" fill="black" fill-opacity="1" d="M 3 1 L 3 4.5 C 3 5.945312 3.789062 6.980469 4.90625 7.625 L 4 15 L 5.5 15 L 5.6875 13.53125 L 8 12 L 10.3125 13.5625 L 10.5 15 L 12 15 L 11.09375 7.65625 C 12.21875 7.011719 13 5.960938 13 4.5 L 13 1 L 11.5 1 L 11.5 2.5 L 11 2.5 C 9.871094 3 9 3 8 2.5 C 7 2 6.039062 2 5 2.5 L 4.5 2.5 L 4.5 1 Z M 6.34375 8.1875 C 7.414062 8.453125 8.585938 8.480469 9.65625 8.21875 L 9.84375 9.78125 L 8 11 L 6.15625 9.78125 Z M 6.03125 10.6875 L 7.25 11.5 L 5.8125 12.46875 Z M 9.96875 10.6875 L 10.1875 12.46875 L 8.75 11.5 Z M 9.96875 10.6875 "/>
</svg>
