<?xml version="1.0" encoding="UTF-8" standalone="no"?>
<svg
   height="16"
   viewBox="0 -960 640 640"
   width="16"
   fill="#000000"
   version="1.1"
   id="svg1"
   sodipodi:docname="workshop.svg"
   inkscape:version="1.4 (e7c3feb100, 2024-10-09)"
   xmlns:inkscape="http://www.inkscape.org/namespaces/inkscape"
   xmlns:sodipodi="http://sodipodi.sourceforge.net/DTD/sodipodi-0.dtd"
   xmlns="http://www.w3.org/2000/svg"
   xmlns:svg="http://www.w3.org/2000/svg">
  <defs
     id="defs1" />
  <sodipodi:namedview
     id="namedview1"
     pagecolor="#ffffff"
     bordercolor="#999999"
     borderopacity="1"
     inkscape:showpageshadow="0"
     inkscape:pageopacity="0"
     inkscape:pagecheckerboard="0"
     inkscape:deskcolor="#d1d1d1"
     inkscape:zoom="34.208333"
     inkscape:cx="8.2143727"
     inkscape:cy="7.9366626"
     inkscape:window-width="1920"
     inkscape:window-height="1008"
     inkscape:window-x="1920"
     inkscape:window-y="0"
     inkscape:window-maximized="1"
     inkscape:current-layer="svg1" />
  <path
     d="m 566.5857,-320 -189.1498,-194.39667 72.55061,-74.56311 189.1498,194.39667 z m -476.76114,0 -72.550603,-74.56311 238.380563,-244.99306 -58.73145,-60.36062 -24.18353,24.85438 -44.04858,-45.27046 v 72.7878 L 104.50742,-622.69071 0,-730.09709 24.183539,-754.95146 H 95.006747 L 51.821864,-799.33425 174.46694,-925.38142 q 17.27395,-17.75312 37.139,-25.74201 19.86505,-7.98891 40.59379,-7.98891 20.72874,0 40.5938,7.98891 19.86504,7.98889 37.139,25.74201 l -79.4602,81.66436 43.18489,44.38281 -24.18354,24.85436 58.73145,60.36062 77.73279,-79.88905 q -3.45479,-9.76422 -5.61403,-20.41609 -2.15924,-10.65187 -2.15924,-21.30374 0,-52.37171 34.97975,-88.32178 Q 468.12416,-960 519.08232,-960 q 12.95547,0 24.61539,2.66297 11.65992,2.66296 23.75168,7.9889 l -85.50607,87.87795 62.18623,63.91123 85.50608,-87.87794 q 6.04588,12.42718 8.20513,24.41054 2.15924,11.98336 2.15924,25.2982 0,52.3717 -34.97976,88.32177 -34.97975,35.95007 -85.93792,35.95007 -10.36437,0 -20.72874,-1.77531 -10.36438,-1.77531 -19.86505,-6.21359 z"
     id="path1"
     style="stroke-width:0.875593" />
</svg>
