<svg xmlns="http://www.w3.org/2000/svg" width="18.2" height="5.2" viewBox="0 0 36.4 10.4">
  <rect x=".2" y=".2" width="36" height="10" fill="#111" stroke="#fff" stroke-width=".5px"/>
  <path fill="#fff" d="M27.969 8.286 26.325 5.721l-.684.738V8.286h-1.32V1.887h1.32V4.788l.579-.795 1.632-2.106h1.62L27.201 4.731l2.337 3.555H27.969Zm6.705-4.509H33.357q0-.438-.276-.684-.279-.243-.78-.243-.483 0-.75.204t-.267.54q0 .312.312.522.315.21.927.396 1.125.339 1.638.84.513.501.513 1.248 0 .828-.627 1.302-.627.471-1.692.471-.738 0-1.344-.27t-.927-.738q-.318-.471-.318-1.092h1.323q0 1.059 1.266 1.059.471 0 .735-.189.264-.192.264-.534 0-.375-.264-.576-.264-.198-.951-.42-.684-.222-1.086-.438-1.089-.588-1.089-1.587 0-.519.294-.924.291-.408.837-.636.549-.228 1.23-.228.684 0 1.221.249t.834.699q.294.453.294 1.029ZM17.046 1.887h1.32V6.102q0 1.05-.657 1.662-.657.609-1.794.609-1.119 0-1.779-.591-.66-.594-.672-1.632V1.887h1.317V6.111q0 .627.3.915.303.288.834.288 1.113 0 1.131-1.167V1.887ZM11.601 8.286l-.444-1.317H8.844L8.406 8.286H7.002L9.384 1.887h1.224l2.394 6.399H11.601Zm-7.314 0H1.8V1.887H4.041q1.164 0 1.767.447t.603 1.308q0 .471-.243.828t-.672.525q.492.123.774.495.285.375.285.915 0 .924-.588 1.398-.591.474-1.68.483ZM20.766 1.887v5.34h2.799V8.286H19.449V1.887h1.317ZM4.326 5.499H3.117V7.227H4.248q.465 0 .726-.222.264-.222.264-.612 0-.879-.912-.894Zm5.67-1.995-.795 2.397H10.8L9.996 3.504ZM3.117 2.955V4.569h.978q.996-.018.996-.795 0-.435-.252-.627-.252-.192-.798-.192H3.117Z" />
</svg>
