<svg xmlns="http://www.w3.org/2000/svg" width="16" height="10" viewBox="0 0 8 5">
  <rect x=".2" y=".2" width="7.6" height="4.6" rx=".5" fill="#fff" stroke="#000" stroke-width="0.2px" />
  <path d="M6.0334.6203V2.1134H5.7261l-.5992-.9821v.9821H4.8196V.6203h.3073l.5999.9849V.6203h.3066Zm-2.8651 0V2.1134H2.861V1.4736H2.2611v.6398H1.9538V.6203h.3073v.6055H2.861V.6203h.3073Zm-1.4231.441H1.4379q0-.1022-.0651-.1596Q1.3084.845 1.1915.845q-.1127 0-.175.0476-.063.0476-.063.126 0 .0728.0735.1218.0735.049.2156.0924.2625.0791.3829.196.1197.1169.1197.2912 0 .1932-.1463.3038-.147.1099-.3948.1099-.1722 0-.3136-.063-.1421-.063-.2163-.1722Q.6 1.7886.6 1.6437H.9087q0 .2471.2954.2471.1099 0 .1708-.0441.0616-.0448.0616-.1246 0-.0875-.0616-.1344-.0609-.0462-.2212-.098Q.9941 1.4379.9003 1.3875.6462 1.2503.6462 1.0172.6462.8961.7141.8016.7827.7064.9101.6532 1.0375.6 1.1971.6q.1596 0 .2849.0581.1246.0581.1939.1631.0693.1057.0693.2401ZM4.2589.6203h.308v.9835q0 .245-.1533.3878-.1533.1421-.4186.1421-.2611 0-.4151-.1379-.154-.1386-.1568-.3808V.6203h.3073v.9856q0 .1463.0707.2135.07.0672.1939.0672.2597 0 .2639-.2723V.6203Zm3.1374 0V.8695H6.9392V2.1134h-.308V.8695H6.1804V.6203H7.3963Z" />
  <path d="M3.1493 2.7h.4018l.3836 1.0829L4.3162 2.7h.4039V4.1931H4.4114V3.785l.0308-.7049-.4025 1.113H3.8283L3.4265 3.0815l.0301.7035v.4081H3.1493V2.7Zm3.5455 0v.2492H6.2377V4.1931H5.9304V2.9492H5.4789V2.7H6.6948Zm-4.9875 0V3.946h.6538v.2471H1.4V2.7h.3073Zm1.1571 0V4.1931h-.308V2.7h.308Zm2.4514 0V4.1931H5.0085V2.7h.3073Z" />
</svg>
