<svg xmlns="http://www.w3.org/2000/svg" width="22.5" height="15" viewBox="0 0 15 10">
  <rect fill="#000" stroke="#fff" stroke-width=".2" width="14.8" height="9.8" ry="1" x=".1" y=".1"/>
  <path fill="#fff" d="M4.5523 6.1883q-.0273.4297-.1855.7734-.1582.3438-.4238.5859-.2656.2422-.6328.373t-.8125.1309q-.3516 0-.6504-.0918-.2988-.0918-.5371-.2637-.2187-.1602-.3886-.3867t-.2871-.5Q.5211 6.5359.4606 6.2078.4 5.8797.4 5.5125v-.7656q0-.3438.0547-.6543.0546-.3105.1641-.5762.125-.3242.3281-.5781t.461-.4297q.2305-.1485.5058-.2286T2.5054 2.2q.4688 0 .834.1328.3653.1328.623.379.2578.2461.4063.6015.1484.3555.1874.8008H3.4625q-.0156-.2539-.0762-.4453-.0606-.1914-.1738-.3203-.1171-.125-.291-.1895-.1738-.0644-.4161-.0644-.1289 0-.2402.0274-.1114.0273-.2051.082-.1602.0938-.2714.2676-.1114.1738-.1778.4042-.0508.1798-.0742.3966-.0234.2167-.0234.4667v.7734q0 .3398.0371.6074.0371.2676.1152.4668.0547.1367.1309.2422.0762.1054.1738.1758.1054.0781.2363.1152t.291.0371q.2148 0 .3867-.0547.1718-.0546.293-.1718t.1914-.3008q.0702-.1836.0859-.4414h1.0976Zm1.9414.5938-.3359 1.1874H5.0016L6.8649 2.2821H7.861L9.689 7.9695H8.5328l-.332-1.1874H6.4938Zm3.7031-4.5h1.9102q.4649 0 .8457.0937.3809.0938.6504.2852.2695.1914.416.4844.1465.293.1465.6914-.0038.2578-.0918.4863-.0879.2286-.2598.4004-.0938.0938-.2129.1719-.1191.0781-.2637.1328v.0039q.2813.0781.4473.1992.166.121.2793.2812.1172.1719.1738.3731.0566.2011.0566.416 0 .4102-.1406.7226t-.4023.5234q-.2618.211-.6367.3164-.375.1054-.8438.1054H10.1969V2.2821Zm1.1016 4.8007h.9766q.2148 0 .3847-.0546.1699-.0547.2832-.1485.125-.1054.1894-.2539.0645-.1484.0645-.332 0-.1914-.0488-.3438-.0489-.1523-.1543-.2578-.1054-.1094-.2734-.168-.168-.0586-.3984-.0625H11.2985v1.621Zm.8164-2.414q.25-.0039.4414-.0606.1914-.0566.3086-.1699.0976-.0898.1504-.2188.0527-.1289.0527-.293 0-.1718-.045-.3008-.0449-.1289-.1347-.2148-.1172-.1211-.3145-.1758-.1973-.0547-.4629-.0586h-.8125V4.6688h.8164ZM7.943 5.8485 7.361 3.7547 6.7633 5.8485H7.943Z" />
</svg>
