<svg xmlns="http://www.w3.org/2000/svg" width="15" height="15" viewBox="0 0 10 10">
  <rect fill="#000" stroke="#fff" stroke-width=".1" width="9.8" height="9.8" ry="0.5" x=".1" y=".1"/>
  <path fill="#fc0" d="M.6.15A.45.45 0 00.15.6V5.05h9.7V.6A.45.45 0 009.4.15H.6Z" />
  <path d="M8.4612 4.3547 7.4724 2.0622V4.3547H6.7815V.8h.6909l.9815 2.2827L8.4563.8h.6885V4.3547H8.4612ZM6.1711 3.1559q0 .2979-.0818.5298-.0818.2319-.2356.3906-.1563.1611-.3796.2441-.2233.083-.509.083-.2685 0-.4846-.083-.2161-.083-.3699-.2417-.1538-.1587-.238-.3918-.0842-.2332-.0842-.531L3.7907.8h.686l.0025 2.3559q.0024.1783.0354.3125.0329.1343.0989.2222.061.0805.1489.1208.0879.0403.2026.0403.1245 0 .221-.0427.0964-.0427.1599-.1282.0683-.0879.1025-.2197.0342-.1319.0366-.3052L5.4875.8h.6812l.0024 2.3559ZM1.486 3.0266v1.3281H.8V.8H1.9914q.2954 0 .5347.0696.2393.0696.4102.2038.1684.1342.26.3345.0915.2002.0915.4639 0 .1904-.0451.343-.0452.1526-.1282.2722-.0855.1221-.2039.2124-.1184.0904-.2649.1563L3.4099 4.323v.0317H2.675L2.0061 3.0266h-.52Zm.5078-.5566q.1586-0 .2795-.0452t.1965-.1306q.0635-.0684.0964-.1636.033-.0952.033-.2124 0-.1416-.0427-.2502-.0427-.1087-.1282-.1795-.0756-.0635-.1856-.0977-.1098-.0342-.2514-.0342H1.4861V2.4699h.5078Z" />
  <path fill="#fff" d="M4.6574 7.7313V9.2035H3.969V5.6488H6.3713v.5591H4.6574v.9668H6.1809v.5567H4.6574Zm3.0004 0V9.2035H6.9695V5.6488H9.3718v.5591H7.6579v.9668H9.1814v.5567H7.6579ZM3.405 7.6874q0 .2295-.0415.4358-.0415.2063-.1197.3821-.083.1757-.205.3223-.1221.1465-.2783.2441-.1416.0854-.3113.1331-.1697.0476-.365.0476-.2075 0-.3833-.0537-.1758-.0537-.3198-.1514-.1416-.1025-.2539-.2478-.1123-.1453-.188-.3284-.0684-.1684-.1038-.3662T.8 7.6874V7.1698q0-.2344.0403-.4443.0403-.21.1184-.3882.0757-.1684.1843-.3052.1087-.1368.2503-.2344.1392-.0952.3125-.1464.1734-.0513.376-.0513.205 0 .3845.0525t.3235.1502q.1441.0927.2527.2246.1087.1319.1868.2906.0854.1806.1306.3955.0452.2149.0452.4566v.5176Zm-.6958-.5225q0-.1367-.0134-.26-.0134-.1233-.0427-.2283-.0366-.1318-.0977-.2356-.061-.1037-.1441-.1696-.0659-.0488-.1477-.0757-.0818-.0268-.1819-.0268-.0952 0-.1721.0244-.077.0244-.138.0708-.083.0684-.1404.1709-.0574.1025-.0891.2393-.0244.1049-.0354.2294-.011.1246-.011.2612v.5225q0 .1294.0098.249.0098.1196.0342.2222.0269.1294.0794.2356.0525.1062.1233.1721.0659.0586.1502.0903.0842.0318.1917.0318.1025 0 .1879-.0293.0855-.0293.1514-.0854.083-.0684.1404-.1722.0574-.1037.0916-.2355.0269-.1026.0403-.2247.0134-.122.0134-.2539V7.1649Z" />
</svg>
