<svg xmlns="http://www.w3.org/2000/svg" width="22.5" height="15" viewBox="0 0 15 10">
  <rect fill="#000" stroke="#fff" stroke-width=".2" width="14.8" height="9.8" ry="1" x=".1" y=".1"/>
  <path d="M14.6.6.4 9.4" stroke="#f00" stroke-width="1.5" />
  <path fill="#fff" d="M12.9396 5.8896q-.026.4992-.2704.7202-.2444.2236-.663.2236-.4992 0-.728-.3926-.2314-.3926-.2314-1.2116v-.754q0-.3796.0572-.6786.0572-.299.1768-.5044.1196-.208.3042-.3146.182-.1066.429-.1066.2366 0 .4056.065.169.0624.2834.1846.1118.1248.169.312.0598.1872.0754.4342h1.066q-.0364-.4342-.182-.7826-.1456-.3458-.3952-.585-.2522-.2392-.6084-.3692Q12.4716 2 12.014 2q-.4706 0-.8502.182-.3796.1794-.6474.507-.2652.3276-.4108.7852-.143.4576-.143 1.0088v.7462q-0 .5486.1352 1.0062.1378.4576.3978.7826.2574.325.6396.507.3796.1794.871.1794.4342 0 .793-.1274.3588-.1274.6162-.364.26-.234.4134-.5694.1534-.3354.182-.754H12.9396Zm-9.36 0q-.0286.4992-.2704.7202-.2444.2236-.663.2236-.4992 0-.7306-.3926-.2314-.3926-.2314-1.2116v-.754q0-.3796.0572-.6786.0572-.299.1794-.5044.1196-.208.3016-.3146.182-.1066.4316-.1066.234 0 .4056.065.169.0624.2808.1846.1118.1248.1716.312.0598.1872.0728.4342H4.6534q-.039-.4342-.1846-.7826-.143-.3458-.3952-.585Q3.8214 2.26 3.4652 2.13T2.654 2q-.4732 0-.8528.182-.3796.1794-.6448.507-.2678.3276-.4108.7852Q.6 3.9318.6 4.483v.7462q0 .5486.1378 1.0062.1352.4576.3952.7826.26.325.6396.507.3822.1794.8736.1794.4342 0 .7904-.1274.3588-.1274.6188-.364.2574-.234.4134-.5694.1534-.3354.1794-.754H3.5796Zm5.5588-3.809H8.0802V4.353H6.5098V2.0806H5.449V7.6264H6.5098V5.2214H8.0802v2.405H9.1384V2.0806Z" />
</svg>
