<svg xmlns="http://www.w3.org/2000/svg" width="22.5" height="12" viewBox="0 0 15 8">
  <rect fill="#fff" stroke="#000" stroke-width=".2" width="14.8" height="7.8" ry="1" x=".1" y=".1"/>
  <path d="M5.182 2.526h.634q.176 0 .306.056.128.056.216.152.086.098.128.226.042.13.042.278 0 .13-.042.248-.042.118-.128.21-.088.09-.216.144-.13.052-.306.052H5.182V2.526ZM5.816 4.56q.35 0 .63-.1.282-.1.48-.276.198-.178.304-.422.108-.242.108-.53 0-.306-.108-.558-.106-.252-.304-.434-.198-.18-.48-.28-.28-.102-.63-.102H4.358V6.124h.824V4.56h.634ZM3.84 1.858H.4V2.53H1.698V6.124h.826V2.53H3.84V1.858ZM14.526 3.11q0-.288-.11-.528-.112-.24-.31-.414-.2-.174-.476-.272-.278-.096-.612-.096-.322 0-.598.084-.274.084-.478.238-.202.156-.316.376-.114.22-.114.488 0 .278.116.492t.31.376q.192.16.446.276.254.114.532.19.228.062.382.132.154.072.248.16.096.086.136.186.04.098.04.212 0 .116-.048.21-.046.096-.134.164-.088.066-.216.104-.128.038-.292.038-.184 0-.338-.04-.154-.042-.264-.13-.11-.088-.17-.224-.062-.138-.068-.332h-.808q0 .234.066.428.066.194.18.346.116.152.274.266.16.114.342.19.184.076.384.114.2.036.402.036.326 0 .602-.078.274-.078.474-.228.2-.152.312-.37t.112-.498q0-.264-.098-.48-.098-.216-.274-.384-.178-.168-.424-.292-.246-.122-.54-.208-.204-.054-.366-.12-.164-.064-.278-.142-.114-.078-.174-.174-.06-.096-.06-.216 0-.114.046-.212.044-.1.132-.17.088-.072.216-.112t.292-.04q.178 0 .312.048.132.048.222.136.09.086.134.206.046.12.052.264h.802ZM9.608 1.858H9.02L8.656 4.41 8.352 1.858H7.598l.586 4.266h.744l.39-2.52.404 2.52h.744l.592-4.266h-.756l-.31 2.57-.384-2.57Z" />
</svg>
