<svg xmlns="http://www.w3.org/2000/svg" width="22.5" height="15" viewBox="0 0 15 10">
  <rect fill="#fff" stroke="#000" stroke-width=".2" width="14.8" height="9.8" ry="1" x=".1" y=".1"/>
  <path fill="#000" d="M2.801 3.5158l.5668 2.041H2.2186l.5824-2.041ZM3.9424 7.6264H5.0708L3.2872 2.0806H2.3174L.5 7.6264H1.6284L1.956 6.4668H3.62l.3224 1.1596Zm9.0922-1.7368q-.026.4992-.2704.7202-.2444.2236-.663.2236-.4992 0-.7306-.3926-.2288-.3926-.2288-1.2116v-.754q0-.3796.0572-.6786.0572-.299.1768-.5044.1196-.208.3016-.3146.1846-.1066.4316-.1066.2366 0 .4056.065.169.0624.2808.1846.1118.1248.1716.312.0598.1872.0754.4342h1.066q-.039-.4342-.182-.7826-.1456-.3458-.3978-.585-.2496-.2392-.6058-.3692Q12.5666 2 12.109 2q-.4732 0-.8528.182-.377.1794-.6448.507-.2652.3276-.4108.7852-.1456.4576-.1456 1.0088v.7462q0 .5486.1378 1.0062.1378.4576.3952.7826.26.325.6396.507.3822.1794.8736.1794.4342 0 .793-.1274.3562-.1274.6162-.364.26-.234.4134-.5694t.1794-.754H13.0346ZM6.48 2.0806H5.2294L6.7868 4.8288 5.1878 7.6264H6.454L7.4654 5.6062 8.482 7.6264H9.7326L8.1336 4.8288l1.56-2.7482H8.4378L7.4498 4.067 6.48 2.0806Z" />
</svg>
