<svg xmlns="http://www.w3.org/2000/svg" width="22.5" height="15" viewBox="0 0 15 10">
  <rect fill="#fff" stroke="#000" stroke-width=".2" width="14.8" height="9.8" ry="1" x=".1" y=".1"/>
  <path d="M8.8004 4.3816V5.25H6.424v2.2958H5.3502V2H9.0968v.871H6.424V4.3816h2.3764ZM3.525 7.5458 2.4824 5.4736H1.6712v2.0722H.6V2H2.459q.4602 0 .8346.1092.3718.1092.637.3172.2652.2106.4082.5226.143.312.143.7228 0 .2964-.0702.5356-.0728.2366-.2028.4264-.1326.1872-.3172.3302-.1846.1404-.4134.2418l1.1934 2.2906v.0494H3.525Zm9.3626 0-1.0452-2.0722h-.8112v2.0722H9.9626V2h1.8564q.4628 0 .8346.1092.3744.1092.6396.3172.2626.2106.4056.5226.143.312.143.7228 0 .2964-.0702.5356-.0702.2366-.2002.4264-.1326.1872-.3172.3302-.1846.1404-.4134.2418l1.1934 2.2906v.0494H12.8876ZM1.6712 2.8684v1.7368h.7904q.455 0 .6994-.2314.247-.2288.247-.6292 0-.416-.2418-.6448-.2392-.2314-.7072-.2314H1.6712Zm9.36 0v1.7368h.793q.4524 0 .6994-.2314.2444-.2288.2444-.6292 0-.416-.2392-.6448-.2392-.2314-.7098-.2314h-.7878Z" />
</svg>
