<svg xmlns="http://www.w3.org/2000/svg" width="22.5" height="12" viewBox="0 0 15 8">
  <rect fill="#fff" stroke="#000" stroke-width=".2" width="14.8" height="7.8" ry="1" x=".1" y=".1"/>
  <path d="M2.692 4.792h.822q-.02.322-.138.58-.12.258-.318.438-.2.182-.476.28-.274.098-.608.098-.378 0-.672-.138Q1.01 5.91.81 5.66.61 5.41.506 5.058.4 4.706.4 4.284V3.71q0-.424.112-.776.11-.352.316-.604.204-.252.496-.39.292-.14.656-.14.35 0 .624.1t.468.284q.194.184.304.45.112.268.142.602H2.696q-.01-.19-.056-.334-.046-.144-.132-.24-.086-.094-.216-.142-.132-.05-.312-.05-.192 0-.332.082t-.232.242q-.094.158-.138.388t-.044.522v.58q0 .63.178.932t.562.302q.322 0 .51-.172.186-.17.208-.554Zm10.8 0h.824q-.02.322-.14.58-.118.258-.316.438-.2.182-.476.28-.274.098-.608.098-.378 0-.672-.138-.292-.14-.492-.39-.2-.25-.304-.602-.106-.352-.106-.774V3.71q0-.424.112-.776.11-.352.316-.604.204-.252.496-.39.292-.14.654-.14.352 0 .626.1.274.1.468.284.194.184.304.45.112.268.14.602h-.82q-.012-.19-.056-.334-.046-.144-.132-.24-.086-.094-.218-.142-.13-.05-.312-.05-.19 0-.33.082-.14.082-.234.242-.092.158-.136.388t-.044.522v.58q0 .63.178.932t.562.302q.322 0 .508-.172.188-.17.208-.554Zm-2.604-2.93v.67H9.572V6.128H8.746V2.532H7.448v-.67h3.44ZM5.702 6.128H4.148V1.862H5.58q.348 0 .634.07.286.07.488.214.202.144.312.362.11.22.11.52-.004.298-.16.536-.156.236-.462.36.186.046.32.14.134.094.224.222.09.128.132.278.042.152.042.312 0 .308-.106.542-.104.234-.3.392-.198.158-.478.238-.282.08-.634.08ZM5.74 4.246H4.974V5.462h.732q.336-.002.514-.166.178-.162.178-.426.002-.292-.16-.456-.16-.164-.498-.168ZM4.974 2.532v1.12h.612q.342-.004.526-.144.186-.14.188-.414 0-.298-.184-.428t-.534-.134H4.974Z" />
</svg>
