<?xml version="1.0" encoding="UTF-8"?>
<svg xmlns="http://www.w3.org/2000/svg" xmlns:xlink="http://www.w3.org/1999/xlink" width="12" height="23.798437" viewBox="0 0 12 23.798437">
<path fill-rule="nonzero" fill="rgb(0%, 0%, 0%)" fill-opacity="0.960784" d="M 3.078125 0.0546875 L 0 1.578125 L 0.0625 22.203125 L 3.140625 23.796875 L 9.304688 23.796875 L 12 22.203125 L 11.9375 1.578125 L 9.242188 0 Z M 3.078125 0.0546875 "/>
<path fill-rule="nonzero" fill="rgb(17.647059%, 17.647059%, 17.647059%)" fill-opacity="1" d="M 8.621094 12.039062 C 8.621094 13.476562 7.445312 14.652344 6 14.652344 C 4.546875 14.652344 3.378906 13.476562 3.378906 12.039062 C 3.378906 10.597656 4.546875 9.421875 6 9.421875 C 7.445312 9.421875 8.621094 10.597656 8.621094 12.039062 Z M 8.621094 12.039062 "/>
<path fill-rule="nonzero" fill="rgb(17.647059%, 17.647059%, 17.647059%)" fill-opacity="1" d="M 8.621094 18.242188 C 8.621094 19.683594 7.445312 20.859375 6 20.859375 C 4.546875 20.859375 3.378906 19.683594 3.378906 18.242188 C 3.378906 16.804688 4.546875 15.628906 6 15.628906 C 7.445312 15.628906 8.621094 16.804688 8.621094 18.242188 Z M 8.621094 18.242188 "/>
<path fill-rule="nonzero" fill="rgb(100%, 69.803922%, 0%)" fill-opacity="1" d="M 8.621094 5.832031 C 8.621094 7.28125 7.445312 8.445312 6 8.445312 C 4.546875 8.445312 3.378906 7.28125 3.378906 5.832031 C 3.378906 4.375 4.546875 3.214844 6 3.214844 C 7.445312 3.214844 8.621094 4.375 8.621094 5.832031 Z M 8.621094 5.832031 "/>
</svg>
