<?xml version="1.0" encoding="UTF-8"?>
<svg xmlns="http://www.w3.org/2000/svg" xmlns:xlink="http://www.w3.org/1999/xlink" width="10" height="25.678462" viewBox="0 0 10 25.678462">
<path fill-rule="nonzero" fill="rgb(0%, 0%, 0%)" fill-opacity="0.960784" d="M 2.566406 0.046875 L 0 1.316406 L 0.0507812 13.097656 L 2.617188 14.425781 L 7.753906 14.425781 L 10 13.097656 L 9.949219 1.316406 L 7.703125 0 Z M 2.566406 0.046875 "/>
<path fill-rule="nonzero" fill="rgb(100%, 69.803922%, 0%)" fill-opacity="1" d="M 7.183594 4.625 C 7.183594 5.832031 6.203125 6.804688 5 6.804688 C 3.789062 6.804688 2.816406 5.832031 2.816406 4.625 C 2.816406 3.410156 3.789062 2.445312 5 2.445312 C 6.203125 2.445312 7.183594 3.410156 7.183594 4.625 Z M 7.183594 4.625 "/>
<path fill-rule="nonzero" fill="rgb(17.647059%, 17.647059%, 17.647059%)" fill-opacity="1" d="M 7.183594 9.796875 C 7.183594 10.996094 6.203125 11.976562 5 11.976562 C 3.789062 11.976562 2.816406 10.996094 2.816406 9.796875 C 2.816406 8.597656 3.789062 7.617188 5 7.617188 C 6.203125 7.617188 7.183594 8.597656 7.183594 9.796875 Z M 7.183594 9.796875 "/>
<path fill-rule="nonzero" fill="rgb(100%, 100%, 100%)" fill-opacity="1" stroke-width="0.574176" stroke-linecap="round" stroke-linejoin="round" stroke="rgb(0%, 0%, 0%)" stroke-opacity="1" stroke-miterlimit="4" d="M 1.775032 15.087771 L 8.231121 15.087771 L 8.231121 25.529828 L 1.775032 25.529828 Z M 1.775032 15.087771 " transform="matrix(0.9947, 0, 0, 0.9947, 0, 0)"/>
<path fill="none" stroke-width="1.15357" stroke-linecap="round" stroke-linejoin="miter" stroke="rgb(0%, 0%, 0%)" stroke-opacity="1" stroke-miterlimit="4" d="M 2.438705 15.496185 L 4.975587 19.336852 L 7.614573 15.535456 " transform="matrix(0.9947, 0, 0, 0.9947, 0, 0)"/>
<path fill="none" stroke-width="1.14835" stroke-linecap="round" stroke-linejoin="miter" stroke="rgb(0%, 0%, 0%)" stroke-opacity="1" stroke-miterlimit="4" d="M 7.693114 25.211736 L 4.97166 21.367143 L 2.395508 25.133195 " transform="matrix(0.9947, 0, 0, 0.9947, 0, 0)"/>
</svg>
