<?xml version="1.0" encoding="UTF-8"?>
<svg xmlns="http://www.w3.org/2000/svg" xmlns:xlink="http://www.w3.org/1999/xlink" width="10" height="19.832031" viewBox="0 0 10 19.832031">
<path fill-rule="nonzero" fill="rgb(0%, 0%, 0%)" fill-opacity="0.960784" d="M 2.566406 0.046875 L 0 1.316406 L 0.0507812 18.503906 L 2.617188 19.832031 L 7.753906 19.832031 L 10 18.503906 L 9.949219 1.316406 L 7.703125 0 Z M 2.566406 0.046875 "/>
<path fill-rule="nonzero" fill="rgb(17.647059%, 17.647059%, 17.647059%)" fill-opacity="1" d="M 7.183594 10.03125 C 7.183594 11.230469 6.203125 12.210938 5 12.210938 C 3.789062 12.210938 2.816406 11.230469 2.816406 10.03125 C 2.816406 8.832031 3.789062 7.851562 5 7.851562 C 6.203125 7.851562 7.183594 8.832031 7.183594 10.03125 Z M 7.183594 10.03125 "/>
<path fill-rule="nonzero" fill="rgb(100%, 100%, 100%)" fill-opacity="1" d="M 7.183594 15.203125 C 7.183594 16.402344 6.203125 17.382812 5 17.382812 C 3.789062 17.382812 2.816406 16.402344 2.816406 15.203125 C 2.816406 14.003906 3.789062 13.023438 5 13.023438 C 6.203125 13.023438 7.183594 14.003906 7.183594 15.203125 Z M 7.183594 15.203125 "/>
<path fill-rule="nonzero" fill="rgb(100%, 69.803922%, 0%)" fill-opacity="1" d="M 7.183594 4.859375 C 7.183594 6.066406 6.203125 7.039062 5 7.039062 C 3.789062 7.039062 2.816406 6.066406 2.816406 4.859375 C 2.816406 3.644531 3.789062 2.679688 5 2.679688 C 6.203125 2.679688 7.183594 3.644531 7.183594 4.859375 Z M 7.183594 4.859375 "/>
</svg>
