<?xml version="1.0" encoding="UTF-8"?>
<svg xmlns="http://www.w3.org/2000/svg" xmlns:xlink="http://www.w3.org/1999/xlink" width="10" height="10" viewBox="0 0 10 10">
<rect x="-1" y="-1" width="12" height="12" fill="rgb(0%, 0%, 0%)" fill-opacity="1"/>
<path fill-rule="nonzero" fill="rgb(100%, 100%, 100%)" fill-opacity="1" d="M 8.542969 5 C 8.542969 6.957031 6.957031 8.542969 5 8.542969 C 3.042969 8.542969 1.457031 6.957031 1.457031 5 C 1.457031 3.042969 3.042969 1.457031 5 1.457031 C 6.957031 1.457031 8.542969 3.042969 8.542969 5 Z M 8.542969 5 "/>
<path fill-rule="nonzero" fill="rgb(0%, 0%, 0%)" fill-opacity="1" d="M 7.5 5 C 7.5 6.378906 6.378906 7.5 5 7.5 C 3.621094 7.5 2.5 6.378906 2.5 5 C 2.5 3.621094 3.621094 2.5 5 2.5 C 6.378906 2.5 7.5 3.621094 7.5 5 Z M 7.5 5 "/>
<path fill-rule="nonzero" fill="rgb(100%, 100%, 100%)" fill-opacity="1" d="M 6.457031 5 C 6.457031 5.804688 5.804688 6.457031 5 6.457031 C 4.195312 6.457031 3.542969 5.804688 3.542969 5 C 3.542969 4.195312 4.195312 3.542969 5 3.542969 C 5.804688 3.542969 6.457031 4.195312 6.457031 5 Z M 6.457031 5 "/>
</svg>
