<?xml version="1.0" encoding="UTF-8"?>
<svg xmlns="http://www.w3.org/2000/svg" xmlns:xlink="http://www.w3.org/1999/xlink" width="10" height="29.120523" viewBox="0 0 10 29.120523">
<path fill-rule="nonzero" fill="rgb(0%, 0%, 0%)" fill-opacity="0.960784" d="M 2.566406 0.046875 L 0 1.316406 L 0.0507812 27.789062 L 2.617188 29.121094 L 7.753906 29.121094 L 10 27.789062 L 9.949219 1.316406 L 7.703125 0 Z M 2.566406 0.046875 "/>
<path fill-rule="nonzero" fill="rgb(17.647059%, 17.647059%, 17.647059%)" fill-opacity="1" d="M 7.179688 4.304688 C 7.179688 5.515625 6.199219 6.476562 4.996094 6.476562 C 3.792969 6.476562 2.820312 5.515625 2.820312 4.304688 C 2.820312 3.097656 3.792969 2.125 4.996094 2.125 C 6.199219 2.125 7.179688 3.097656 7.179688 4.304688 Z M 7.179688 4.304688 "/>
<path fill-rule="nonzero" fill="rgb(0%, 78.431373%, 36.862745%)" fill-opacity="1" d="M 7.179688 9.476562 C 7.179688 10.683594 6.199219 11.65625 4.996094 11.65625 C 3.789062 11.65625 2.820312 10.683594 2.820312 9.476562 C 2.820312 8.261719 3.789062 7.296875 4.996094 7.296875 C 6.199219 7.296875 7.179688 8.261719 7.179688 9.476562 Z M 7.179688 9.476562 "/>
<path fill-rule="nonzero" fill="rgb(17.647059%, 17.647059%, 17.647059%)" fill-opacity="1" d="M 7.15625 14.863281 C 7.15625 16.0625 6.175781 17.042969 4.972656 17.042969 C 3.761719 17.042969 2.792969 16.0625 2.792969 14.863281 C 2.792969 13.664062 3.761719 12.683594 4.972656 12.683594 C 6.175781 12.683594 7.15625 13.664062 7.15625 14.863281 Z M 7.15625 14.863281 "/>
<path fill-rule="nonzero" fill="rgb(17.647059%, 17.647059%, 17.647059%)" fill-opacity="1" d="M 7.179688 19.820312 C 7.179688 21.019531 6.199219 22 4.996094 22 C 3.789062 22 2.820312 21.019531 2.820312 19.820312 C 2.820312 18.621094 3.789062 17.640625 4.996094 17.640625 C 6.199219 17.640625 7.179688 18.621094 7.179688 19.820312 Z M 7.179688 19.820312 "/>
<path fill-rule="nonzero" fill="rgb(100%, 69.803922%, 0%)" fill-opacity="1" d="M 7.179688 24.992188 C 7.179688 26.191406 6.199219 27.171875 4.996094 27.171875 C 3.789062 27.171875 2.820312 26.191406 2.820312 24.992188 C 2.820312 23.792969 3.789062 22.8125 4.996094 22.8125 C 6.199219 22.8125 7.179688 23.792969 7.179688 24.992188 Z M 7.179688 24.992188 "/>
</svg>
