<?xml version="1.0" encoding="UTF-8"?>
<svg xmlns="http://www.w3.org/2000/svg" xmlns:xlink="http://www.w3.org/1999/xlink" width="4" height="24" viewBox="0 0 4 24">
<path fill-rule="nonzero" fill="rgb(100%, 0%, 0%)" fill-opacity="1" d="M 2.570312 0.160156 L 3.507812 0.160156 C 3.675781 0.160156 3.816406 0.300781 3.816406 0.46875 L 3.816406 7.324219 C 3.816406 7.5 3.675781 7.640625 3.507812 7.640625 L 2.570312 7.640625 C 2.398438 7.640625 2.257812 7.5 2.257812 7.324219 L 2.257812 0.46875 C 2.257812 0.300781 2.398438 0.160156 2.570312 0.160156 Z M 2.570312 0.160156 "/>
<path fill-rule="nonzero" fill="rgb(100%, 0%, 0%)" fill-opacity="1" d="M 2.570312 16.359375 L 3.507812 16.359375 C 3.675781 16.359375 3.816406 16.5 3.816406 16.675781 L 3.816406 23.53125 C 3.816406 23.703125 3.675781 23.84375 3.507812 23.84375 L 2.570312 23.84375 C 2.398438 23.84375 2.257812 23.703125 2.257812 23.53125 L 2.257812 16.675781 C 2.257812 16.5 2.398438 16.359375 2.570312 16.359375 Z M 2.570312 16.359375 "/>
<path fill-rule="nonzero" fill="rgb(100%, 100%, 100%)" fill-opacity="1" d="M 2.570312 7.640625 L 3.507812 7.640625 C 3.675781 7.640625 3.816406 7.769531 3.816406 7.953125 L 3.816406 16.050781 C 3.816406 16.230469 3.675781 16.359375 3.507812 16.359375 L 2.570312 16.359375 C 2.398438 16.359375 2.257812 16.230469 2.257812 16.050781 L 2.257812 7.953125 C 2.257812 7.769531 2.398438 7.640625 2.570312 7.640625 Z M 2.570312 7.640625 "/>
</svg>
