<?xml version="1.0" encoding="UTF-8"?>
<svg xmlns="http://www.w3.org/2000/svg" xmlns:xlink="http://www.w3.org/1999/xlink" width="24" height="12.047059" viewBox="0 0 24 12.047059">
<path fill-rule="nonzero" fill="rgb(0%, 0%, 0%)" fill-opacity="1" d="M 7.53125 0 L 16 0 L 16 5.648438 L 7.53125 5.648438 Z M 7.53125 0 "/>
<path fill-rule="nonzero" fill="rgb(100%, 100%, 100%)" fill-opacity="1" d="M 8.46875 1.175781 L 10.824219 1.175781 L 10.824219 4.46875 L 8.46875 4.46875 Z M 8.46875 1.175781 "/>
<path fill-rule="nonzero" fill="rgb(100%, 100%, 100%)" fill-opacity="1" d="M 12.234375 1.175781 L 14.589844 1.175781 L 14.589844 4.46875 L 12.234375 4.46875 Z M 12.234375 1.175781 "/>
<path fill-rule="nonzero" fill="rgb(100%, 100%, 100%)" fill-opacity="1" stroke-width="1" stroke-linecap="butt" stroke-linejoin="miter" stroke="rgb(0%, 0%, 0%)" stroke-opacity="1" stroke-miterlimit="4" d="M 0.498047 6.001465 L 25.001953 6.001465 L 25.001953 12.301758 L 0.498047 12.301758 Z M 0.498047 6.001465 " transform="matrix(0.941176, 0, 0, 0.941176, 0, 0)"/>
<path fill-rule="nonzero" fill="rgb(0%, 0%, 0%)" fill-opacity="1" d="M 6.398438 11.578125 L 2.445312 11.578125 L 4.421875 5.648438 L 8.375 5.648438 Z M 6.398438 11.578125 "/>
<path fill-rule="nonzero" fill="rgb(0%, 0%, 0%)" fill-opacity="1" d="M 12.988281 11.578125 L 9.035156 11.578125 L 11.011719 5.648438 L 14.964844 5.648438 Z M 12.988281 11.578125 "/>
<path fill-rule="nonzero" fill="rgb(0%, 0%, 0%)" fill-opacity="1" d="M 19.578125 11.578125 L 15.625 11.578125 L 17.601562 5.648438 L 21.554688 5.648438 Z M 19.578125 11.578125 "/>
</svg>
