<?xml version="1.0" encoding="UTF-8"?>
<svg xmlns="http://www.w3.org/2000/svg" xmlns:xlink="http://www.w3.org/1999/xlink" width="21" height="9" viewBox="0 0 21 9">
<rect x="-2.1" y="-0.9" width="25.2" height="10.8" fill="rgb(0%, 0%, 0%)" fill-opacity="1"/>
<path fill-rule="nonzero" fill="rgb(100%, 100%, 100%)" fill-opacity="1" d="M 0.800781 0.800781 L 20.199219 0.800781 L 20.199219 8.199219 L 0.800781 8.199219 Z M 0.800781 0.800781 "/>
<path fill-rule="nonzero" fill="rgb(0%, 0%, 0%)" fill-opacity="1" d="M 10.140625 1.359375 C 9.976562 1.359375 9.753906 1.410156 9.453125 1.535156 C 8.730469 1.835938 7.988281 1.765625 7.226562 1.953125 C 6.851562 2.046875 6.480469 2.179688 6.148438 2.375 C 5.527344 2.730469 5.011719 3.144531 5.21875 3.664062 L 5.128906 3.664062 L 5.128906 3.859375 L 4.558594 3.859375 C 4.378906 4.417969 4.386719 4.867188 4.558594 5.40625 L 3.46875 6 L 4.015625 7.210938 L 4.558594 7.023438 L 5.792969 7.023438 L 5.792969 6.59375 L 6.117188 6.59375 C 6.152344 6.90625 6.410156 7.140625 6.722656 7.140625 C 7.035156 7.140625 7.292969 6.90625 7.328125 6.59375 L 7.726562 6.59375 C 7.757812 6.90625 8.019531 7.140625 8.328125 7.140625 C 8.640625 7.140625 8.902344 6.90625 8.933594 6.59375 L 9.335938 6.59375 C 9.371094 6.90625 9.628906 7.140625 9.941406 7.140625 C 10.253906 7.140625 10.511719 6.90625 10.546875 6.59375 L 11.71875 6.59375 C 11.617188 6.640625 11.550781 6.742188 11.550781 6.855469 C 11.550781 7.011719 11.679688 7.140625 11.839844 7.140625 C 11.996094 7.140625 12.125 7.011719 12.125 6.855469 C 12.125 6.746094 12.058594 6.644531 11.957031 6.59375 L 12.996094 6.59375 C 12.894531 6.640625 12.828125 6.742188 12.828125 6.855469 C 12.828125 7.011719 12.957031 7.140625 13.113281 7.140625 C 13.269531 7.140625 13.398438 7.011719 13.398438 6.855469 C 13.398438 6.742188 13.332031 6.640625 13.234375 6.59375 L 14.539062 6.59375 C 14.4375 6.640625 14.371094 6.742188 14.375 6.855469 C 14.371094 7.011719 14.5 7.140625 14.65625 7.140625 C 14.816406 7.140625 14.945312 7.011719 14.941406 6.855469 C 14.945312 6.742188 14.878906 6.640625 14.777344 6.59375 L 15.421875 6.59375 C 15.320312 6.644531 15.253906 6.746094 15.253906 6.855469 C 15.253906 7.011719 15.382812 7.140625 15.542969 7.140625 C 15.699219 7.140625 15.828125 7.011719 15.828125 6.855469 C 15.828125 6.742188 15.761719 6.640625 15.660156 6.59375 L 16.316406 6.59375 C 16.21875 6.640625 16.152344 6.742188 16.152344 6.855469 C 16.152344 7.011719 16.28125 7.140625 16.4375 7.140625 C 16.59375 7.140625 16.722656 7.011719 16.722656 6.855469 C 16.722656 6.742188 16.65625 6.640625 16.558594 6.59375 L 16.90625 6.59375 L 16.90625 6.328125 C 17.03125 6.1875 17.0625 6.007812 16.90625 5.859375 L 16.90625 3.679688 L 13.789062 3.679688 L 13.789062 4.828125 L 12.203125 4.828125 L 12.203125 3.460938 L 12.957031 3.460938 L 12.957031 3.257812 L 11.414062 3.257812 L 11.414062 3.753906 L 11.183594 3.992188 L 10.167969 3.992188 L 10.113281 3.621094 L 9.179688 3.617188 L 9.136719 3.859375 L 7.882812 3.859375 L 7.832031 3.589844 L 6.863281 3.589844 L 6.785156 3.855469 L 5.636719 3.855469 L 5.636719 3.652344 L 5.496094 3.65625 C 5.652344 2.796875 6.625 2.542969 7.167969 2.476562 C 8.105469 2.371094 8.714844 2.734375 9.648438 2.511719 C 10.375 2.339844 10.84375 1.367188 10.140625 1.359375 Z M 5.792969 5.425781 L 10.378906 5.425781 L 10.878906 5.882812 L 10.878906 6.375 L 10.53125 6.375 C 10.457031 6.109375 10.21875 5.925781 9.941406 5.925781 C 9.664062 5.925781 9.425781 6.109375 9.351562 6.375 L 8.917969 6.375 C 8.847656 6.109375 8.605469 5.925781 8.328125 5.925781 C 8.054688 5.925781 7.8125 6.109375 7.742188 6.375 L 7.3125 6.375 C 7.238281 6.109375 7 5.925781 6.722656 5.925781 C 6.445312 5.925781 6.207031 6.109375 6.132812 6.375 L 5.792969 6.375 Z M 5.792969 5.425781 "/>
</svg>
