<?xml version="1.0" encoding="UTF-8"?>
<svg xmlns="http://www.w3.org/2000/svg" xmlns:xlink="http://www.w3.org/1999/xlink" width="16" height="13.714286" viewBox="0 0 16 13.714286">
<path fill-rule="nonzero" fill="rgb(21.176471%, 0%, 98.039216%)" fill-opacity="1" d="M 0 0 L 16 0 L 16 13.714844 L 0 13.714844 Z M 0 0 "/>
<path fill-rule="nonzero" fill="rgb(100%, 100%, 100%)" fill-opacity="1" d="M 14.855469 5.484375 L 1.144531 12.570312 L 14.855469 12.570312 Z M 14.855469 5.484375 "/>
<path fill-rule="nonzero" fill="rgb(100%, 100%, 100%)" fill-opacity="1" d="M 8.054688 6.175781 C 8.054688 5.917969 8.089844 5.742188 8.15625 5.636719 C 8.222656 5.535156 8.328125 5.484375 8.464844 5.484375 C 8.53125 5.484375 8.585938 5.496094 8.625 5.519531 C 8.667969 5.542969 8.703125 5.570312 8.730469 5.605469 C 8.757812 5.640625 8.777344 5.679688 8.792969 5.71875 C 8.808594 5.757812 8.820312 5.804688 8.832031 5.855469 C 8.847656 5.957031 8.859375 6.0625 8.859375 6.167969 C 8.859375 6.414062 8.828125 6.589844 8.769531 6.703125 C 8.707031 6.816406 8.605469 6.875 8.457031 6.875 C 8.375 6.875 8.308594 6.855469 8.257812 6.820312 C 8.207031 6.785156 8.164062 6.730469 8.132812 6.660156 C 8.109375 6.613281 8.089844 6.542969 8.074219 6.460938 C 8.0625 6.371094 8.054688 6.277344 8.054688 6.175781 Z M 8.328125 6.175781 C 8.328125 6.347656 8.335938 6.464844 8.359375 6.527344 C 8.382812 6.589844 8.414062 6.621094 8.457031 6.621094 C 8.484375 6.621094 8.507812 6.605469 8.527344 6.578125 C 8.546875 6.554688 8.5625 6.511719 8.574219 6.453125 C 8.582031 6.394531 8.585938 6.308594 8.585938 6.183594 C 8.585938 6.007812 8.574219 5.886719 8.554688 5.828125 C 8.53125 5.765625 8.5 5.734375 8.453125 5.734375 C 8.410156 5.734375 8.378906 5.765625 8.355469 5.828125 C 8.335938 5.890625 8.328125 6.007812 8.328125 6.175781 Z M 9.160156 5.484375 L 9.300781 5.484375 L 9.054688 6.871094 L 8.914062 6.871094 Z M 9.351562 6.175781 C 9.351562 5.917969 9.386719 5.742188 9.453125 5.636719 C 9.519531 5.535156 9.621094 5.484375 9.761719 5.484375 C 9.824219 5.484375 9.878906 5.496094 9.921875 5.519531 C 9.964844 5.542969 10 5.570312 10.027344 5.605469 C 10.054688 5.640625 10.074219 5.679688 10.089844 5.71875 C 10.105469 5.757812 10.117188 5.804688 10.125 5.855469 C 10.144531 5.957031 10.152344 6.0625 10.152344 6.167969 C 10.152344 6.414062 10.125 6.589844 10.0625 6.703125 C 10.003906 6.816406 9.898438 6.875 9.753906 6.875 C 9.667969 6.875 9.601562 6.855469 9.550781 6.820312 C 9.5 6.785156 9.460938 6.730469 9.425781 6.660156 C 9.402344 6.613281 9.386719 6.542969 9.371094 6.460938 C 9.359375 6.371094 9.351562 6.277344 9.351562 6.175781 Z M 9.621094 6.175781 C 9.621094 6.347656 9.632812 6.464844 9.65625 6.527344 C 9.675781 6.589844 9.710938 6.621094 9.75 6.621094 C 9.78125 6.621094 9.804688 6.605469 9.824219 6.578125 C 9.84375 6.554688 9.859375 6.511719 9.867188 6.453125 C 9.878906 6.394531 9.882812 6.308594 9.882812 6.183594 C 9.882812 6.007812 9.871094 5.886719 9.847656 5.828125 C 9.828125 5.765625 9.792969 5.734375 9.75 5.734375 C 9.707031 5.734375 9.671875 5.765625 9.652344 5.828125 C 9.632812 5.890625 9.621094 6.007812 9.621094 6.175781 Z M 10.265625 6.175781 C 10.265625 5.917969 10.300781 5.742188 10.367188 5.636719 C 10.433594 5.535156 10.535156 5.484375 10.675781 5.484375 C 10.742188 5.484375 10.792969 5.496094 10.835938 5.519531 C 10.878906 5.542969 10.914062 5.570312 10.941406 5.605469 C 10.96875 5.640625 10.988281 5.679688 11.003906 5.71875 C 11.019531 5.757812 11.03125 5.804688 11.042969 5.855469 C 11.058594 5.957031 11.070312 6.0625 11.070312 6.167969 C 11.070312 6.414062 11.039062 6.589844 10.980469 6.703125 C 10.917969 6.816406 10.816406 6.875 10.667969 6.875 C 10.585938 6.875 10.519531 6.855469 10.46875 6.820312 C 10.417969 6.785156 10.375 6.730469 10.339844 6.660156 C 10.316406 6.613281 10.300781 6.542969 10.285156 6.460938 C 10.273438 6.371094 10.265625 6.277344 10.265625 6.175781 Z M 10.539062 6.175781 C 10.539062 6.347656 10.546875 6.464844 10.570312 6.527344 C 10.59375 6.589844 10.625 6.621094 10.667969 6.621094 C 10.695312 6.621094 10.71875 6.605469 10.738281 6.578125 C 10.757812 6.554688 10.773438 6.511719 10.78125 6.453125 C 10.792969 6.394531 10.796875 6.308594 10.796875 6.183594 C 10.796875 6.007812 10.785156 5.886719 10.765625 5.828125 C 10.742188 5.765625 10.710938 5.734375 10.664062 5.734375 C 10.621094 5.734375 10.585938 5.765625 10.566406 5.828125 C 10.546875 5.890625 10.539062 6.007812 10.539062 6.175781 Z M 10.539062 6.175781 "/>
</svg>
