<?xml version="1.0" encoding="UTF-8"?>
<svg xmlns="http://www.w3.org/2000/svg" xmlns:xlink="http://www.w3.org/1999/xlink" width="16" height="13.714286" viewBox="0 0 16 13.714286">
<path fill-rule="nonzero" fill="rgb(21.176471%, 0%, 98.039216%)" fill-opacity="1" d="M 0 0 L 16 0 L 16 13.714844 L 0 13.714844 Z M 0 0 "/>
<path fill-rule="nonzero" fill="rgb(100%, 100%, 100%)" fill-opacity="1" d="M 14.855469 1.144531 L 8 12.570312 L 14.855469 12.570312 Z M 14.855469 1.144531 "/>
<path fill-rule="nonzero" fill="rgb(100%, 100%, 100%)" fill-opacity="1" d="M 8.402344 6.164062 C 8.402344 5.914062 8.433594 5.738281 8.503906 5.636719 C 8.570312 5.535156 8.671875 5.484375 8.808594 5.484375 C 8.875 5.484375 8.929688 5.496094 8.972656 5.519531 C 9.015625 5.539062 9.050781 5.570312 9.074219 5.605469 C 9.101562 5.640625 9.125 5.675781 9.140625 5.714844 C 9.15625 5.753906 9.167969 5.800781 9.175781 5.851562 C 9.195312 5.949219 9.203125 6.054688 9.203125 6.160156 C 9.203125 6.402344 9.175781 6.578125 9.113281 6.691406 C 9.054688 6.800781 8.949219 6.855469 8.800781 6.855469 C 8.71875 6.855469 8.652344 6.839844 8.601562 6.804688 C 8.550781 6.769531 8.507812 6.714844 8.476562 6.648438 C 8.453125 6.597656 8.433594 6.53125 8.421875 6.449219 C 8.410156 6.363281 8.402344 6.269531 8.402344 6.164062 Z M 8.671875 6.167969 C 8.671875 6.335938 8.683594 6.453125 8.707031 6.511719 C 8.726562 6.574219 8.757812 6.605469 8.800781 6.605469 C 8.828125 6.605469 8.851562 6.59375 8.875 6.566406 C 8.894531 6.539062 8.910156 6.5 8.917969 6.441406 C 8.929688 6.386719 8.933594 6.296875 8.933594 6.175781 C 8.933594 6 8.921875 5.882812 8.898438 5.820312 C 8.878906 5.761719 8.84375 5.730469 8.800781 5.730469 C 8.753906 5.730469 8.722656 5.761719 8.703125 5.824219 C 8.683594 5.886719 8.671875 6 8.671875 6.167969 Z M 9.507812 5.484375 L 9.644531 5.484375 L 9.398438 6.855469 L 9.261719 6.855469 Z M 9.699219 6.164062 C 9.699219 5.914062 9.730469 5.738281 9.796875 5.636719 C 9.867188 5.535156 9.96875 5.484375 10.105469 5.484375 C 10.171875 5.484375 10.226562 5.496094 10.269531 5.519531 C 10.308594 5.539062 10.34375 5.570312 10.371094 5.605469 C 10.398438 5.640625 10.417969 5.675781 10.433594 5.714844 C 10.449219 5.753906 10.464844 5.800781 10.472656 5.851562 C 10.492188 5.949219 10.5 6.054688 10.5 6.160156 C 10.5 6.402344 10.46875 6.578125 10.410156 6.691406 C 10.347656 6.800781 10.246094 6.855469 10.097656 6.855469 C 10.015625 6.855469 9.949219 6.839844 9.898438 6.804688 C 9.847656 6.769531 9.804688 6.714844 9.773438 6.648438 C 9.75 6.597656 9.730469 6.53125 9.71875 6.449219 C 9.703125 6.363281 9.699219 6.269531 9.699219 6.164062 Z M 9.96875 6.167969 C 9.96875 6.335938 9.980469 6.453125 10 6.511719 C 10.023438 6.574219 10.054688 6.605469 10.097656 6.605469 C 10.125 6.605469 10.148438 6.59375 10.167969 6.566406 C 10.191406 6.539062 10.203125 6.5 10.214844 6.441406 C 10.222656 6.386719 10.230469 6.296875 10.230469 6.175781 C 10.230469 6 10.21875 5.882812 10.195312 5.820312 C 10.171875 5.761719 10.140625 5.730469 10.097656 5.730469 C 10.050781 5.730469 10.019531 5.761719 10 5.824219 C 9.976562 5.886719 9.96875 6 9.96875 6.167969 Z M 10.613281 6.164062 C 10.613281 5.914062 10.644531 5.738281 10.710938 5.636719 C 10.78125 5.535156 10.882812 5.484375 11.019531 5.484375 C 11.085938 5.484375 11.140625 5.496094 11.183594 5.519531 C 11.226562 5.539062 11.261719 5.570312 11.285156 5.605469 C 11.3125 5.640625 11.335938 5.675781 11.347656 5.714844 C 11.363281 5.753906 11.378906 5.800781 11.386719 5.851562 C 11.40625 5.949219 11.414062 6.054688 11.414062 6.160156 C 11.414062 6.402344 11.382812 6.578125 11.324219 6.691406 C 11.265625 6.800781 11.160156 6.855469 11.011719 6.855469 C 10.929688 6.855469 10.863281 6.839844 10.8125 6.804688 C 10.761719 6.769531 10.71875 6.714844 10.6875 6.648438 C 10.664062 6.597656 10.644531 6.53125 10.632812 6.449219 C 10.617188 6.363281 10.613281 6.269531 10.613281 6.164062 Z M 10.882812 6.167969 C 10.882812 6.335938 10.894531 6.453125 10.914062 6.511719 C 10.9375 6.574219 10.96875 6.605469 11.011719 6.605469 C 11.039062 6.605469 11.0625 6.59375 11.082031 6.566406 C 11.105469 6.539062 11.121094 6.5 11.128906 6.441406 C 11.136719 6.386719 11.144531 6.296875 11.144531 6.175781 C 11.144531 6 11.132812 5.882812 11.109375 5.820312 C 11.089844 5.761719 11.054688 5.730469 11.011719 5.730469 C 10.964844 5.730469 10.933594 5.761719 10.914062 5.824219 C 10.894531 5.886719 10.882812 6 10.882812 6.167969 Z M 10.882812 6.167969 "/>
</svg>
