<?xml version="1.0" encoding="UTF-8"?>
<svg xmlns="http://www.w3.org/2000/svg" xmlns:xlink="http://www.w3.org/1999/xlink" width="16" height="13.714286" viewBox="0 0 16 13.714286">
<path fill-rule="nonzero" fill="rgb(21.176471%, 0%, 98.039216%)" fill-opacity="1" d="M 0 0 L 16 0 L 16 13.714844 L 0 13.714844 Z M 0 0 "/>
<path fill-rule="nonzero" fill="rgb(100%, 100%, 100%)" fill-opacity="1" d="M 1.144531 5.484375 L 14.855469 12.570312 L 1.144531 12.570312 Z M 1.144531 5.484375 "/>
<path fill-rule="nonzero" fill="rgb(100%, 100%, 100%)" fill-opacity="1" d="M 11.84375 6.15625 C 11.84375 5.902344 11.878906 5.722656 11.945312 5.621094 C 12.011719 5.519531 12.113281 5.46875 12.253906 5.46875 C 12.316406 5.46875 12.371094 5.480469 12.414062 5.503906 C 12.457031 5.523438 12.492188 5.554688 12.519531 5.589844 C 12.546875 5.625 12.566406 5.664062 12.582031 5.703125 C 12.597656 5.742188 12.609375 5.789062 12.621094 5.839844 C 12.636719 5.941406 12.648438 6.042969 12.648438 6.152344 C 12.648438 6.398438 12.617188 6.574219 12.554688 6.6875 C 12.496094 6.800781 12.390625 6.855469 12.246094 6.855469 C 12.164062 6.855469 12.09375 6.839844 12.042969 6.804688 C 11.992188 6.765625 11.953125 6.714844 11.917969 6.644531 C 11.894531 6.59375 11.878906 6.527344 11.863281 6.441406 C 11.851562 6.355469 11.84375 6.261719 11.84375 6.15625 Z M 12.113281 6.160156 C 12.113281 6.328125 12.125 6.445312 12.148438 6.507812 C 12.171875 6.570312 12.203125 6.601562 12.246094 6.601562 C 12.273438 6.601562 12.296875 6.589844 12.316406 6.5625 C 12.335938 6.535156 12.351562 6.496094 12.359375 6.4375 C 12.371094 6.378906 12.375 6.289062 12.375 6.167969 C 12.375 5.992188 12.363281 5.871094 12.34375 5.808594 C 12.320312 5.746094 12.285156 5.71875 12.242188 5.71875 C 12.199219 5.71875 12.164062 5.75 12.144531 5.8125 C 12.125 5.875 12.113281 5.988281 12.113281 6.160156 Z M 12.949219 5.46875 L 13.089844 5.46875 L 12.839844 6.855469 L 12.703125 6.855469 Z M 13.140625 6.15625 C 13.140625 5.902344 13.171875 5.722656 13.242188 5.621094 C 13.308594 5.519531 13.410156 5.46875 13.546875 5.46875 C 13.613281 5.46875 13.667969 5.480469 13.710938 5.503906 C 13.753906 5.523438 13.789062 5.554688 13.816406 5.589844 C 13.839844 5.625 13.863281 5.664062 13.878906 5.703125 C 13.894531 5.742188 13.90625 5.789062 13.914062 5.839844 C 13.933594 5.941406 13.941406 6.042969 13.941406 6.152344 C 13.941406 6.398438 13.914062 6.574219 13.851562 6.6875 C 13.792969 6.800781 13.6875 6.855469 13.539062 6.855469 C 13.457031 6.855469 13.390625 6.839844 13.339844 6.804688 C 13.289062 6.765625 13.246094 6.714844 13.214844 6.644531 C 13.191406 6.59375 13.171875 6.527344 13.160156 6.441406 C 13.148438 6.355469 13.140625 6.261719 13.140625 6.15625 Z M 13.410156 6.160156 C 13.410156 6.328125 13.421875 6.445312 13.445312 6.507812 C 13.464844 6.570312 13.496094 6.601562 13.539062 6.601562 C 13.566406 6.601562 13.589844 6.589844 13.613281 6.5625 C 13.632812 6.535156 13.648438 6.496094 13.65625 6.4375 C 13.667969 6.378906 13.671875 6.289062 13.671875 6.167969 C 13.671875 5.992188 13.660156 5.871094 13.636719 5.808594 C 13.617188 5.746094 13.582031 5.71875 13.539062 5.71875 C 13.492188 5.71875 13.460938 5.75 13.441406 5.8125 C 13.421875 5.875 13.410156 5.988281 13.410156 6.160156 Z M 14.054688 6.15625 C 14.054688 5.902344 14.089844 5.722656 14.15625 5.621094 C 14.222656 5.519531 14.324219 5.46875 14.460938 5.46875 C 14.527344 5.46875 14.582031 5.480469 14.625 5.503906 C 14.667969 5.523438 14.703125 5.554688 14.730469 5.589844 C 14.757812 5.625 14.777344 5.664062 14.792969 5.703125 C 14.808594 5.742188 14.820312 5.789062 14.828125 5.839844 C 14.847656 5.941406 14.855469 6.042969 14.855469 6.152344 C 14.855469 6.398438 14.828125 6.574219 14.765625 6.6875 C 14.707031 6.800781 14.601562 6.855469 14.457031 6.855469 C 14.371094 6.855469 14.304688 6.839844 14.253906 6.804688 C 14.203125 6.765625 14.164062 6.714844 14.128906 6.644531 C 14.105469 6.59375 14.085938 6.527344 14.074219 6.441406 C 14.0625 6.355469 14.054688 6.261719 14.054688 6.15625 Z M 14.324219 6.160156 C 14.324219 6.328125 14.335938 6.445312 14.359375 6.507812 C 14.378906 6.570312 14.414062 6.601562 14.453125 6.601562 C 14.480469 6.601562 14.507812 6.589844 14.527344 6.5625 C 14.546875 6.535156 14.5625 6.496094 14.570312 6.4375 C 14.582031 6.378906 14.585938 6.289062 14.585938 6.167969 C 14.585938 5.992188 14.574219 5.871094 14.550781 5.808594 C 14.53125 5.746094 14.496094 5.71875 14.453125 5.71875 C 14.410156 5.71875 14.375 5.75 14.355469 5.8125 C 14.335938 5.875 14.324219 5.988281 14.324219 6.160156 Z M 14.324219 6.160156 "/>
</svg>
