<?xml version="1.0" encoding="UTF-8"?>
<svg width="13" height="13" version="1.1" viewBox="0 0 13 13" xmlns="http://www.w3.org/2000/svg">
 <path transform="scale(3.7795)" d="m0.07338 0.038241h3.299c0.019637 0 0.036173 0.015503 0.036173 0.03514v3.299c0 0.019637-0.016536 0.036173-0.036173 0.036173h-3.299c-0.019637 0-0.03514-0.016536-0.03514-0.036173v-3.299c0-0.019637 0.015503-0.03514 0.03514-0.03514z" fill="#fff" stroke="#000" stroke-linejoin="round" stroke-width=".068837"/>
 <path transform="scale(1.006 .99403)" d="m2.3333 8.8551h1.7201q0.67669 0 0.98666-0.25758 0.30997-0.25758 0.30997-0.72472v-0.013097q0-0.32307-0.11351-0.55445-0.10914-0.23139-0.34926-0.35363-0.24012-0.12661-0.61557-0.12661h-1.9384v-0.8033h1.9384q0.49333 0 0.74218-0.23139 0.25321-0.23139 0.25321-0.68543 0-0.47587-0.27941-0.71162-0.27941-0.23575-0.83823-0.23575h-1.8162v-0.82513h1.9777q0.61557 0 1.0303 0.20956t0.61994 0.59374q0.20519 0.38419 0.20519 0.91681 0 0.32743-0.12661 0.61557-0.12661 0.28378-0.38855 0.48897-0.25758 0.20083-0.64177 0.27068 0.38419 0.056755 0.6636 0.27504 0.27941 0.21392 0.42785 0.53699t0.14844 0.69852v0.013097q0 0.51516-0.22702 0.90808-0.22702 0.39292-0.6505 0.60684-0.42348 0.21392-0.98666 0.21392h-2.0519zm-0.52389-5.5227h0.88625v6.3478h-0.88625zm8.4172 1.8162h0.88625v4.5317h-0.88625zm-1.8424 2.7548q0 0.47587 0.24012 0.73782 0.24448 0.25758 0.68543 0.25758 0.43658 0 0.67669-0.23139 0.24012-0.23139 0.24012-0.65923l0.06112 0.94737q-0.1397 0.33616-0.45404 0.56318-0.31434 0.22702-0.77274 0.22702-0.75091 0-1.1613-0.48023-0.40602-0.4846-0.40602-1.3621v-2.7548h0.89062zm1.3709-4.571h0.89062v0.89062h-0.89062zm-1.8336 0h0.89062v0.89062h-0.89062z" stroke-width=".67058" style="font-variant-ligatures:none" aria-label="Bü
"/>
</svg>
