<?xml version="1.0" encoding="UTF-8" standalone="no"?>
<svg
   width="7.003447"
   height="28"
   viewBox="0 0 7.003447 28"
   version="1.1"
   id="svg7"
   sodipodi:docname="bue2-ds.svg"
   inkscape:version="1.4 (e7c3feb100, 2024-10-09)"
   xmlns:inkscape="http://www.inkscape.org/namespaces/inkscape"
   xmlns:sodipodi="http://sodipodi.sourceforge.net/DTD/sodipodi-0.dtd"
   xmlns="http://www.w3.org/2000/svg"
   xmlns:svg="http://www.w3.org/2000/svg">
  <defs
     id="defs7" />
  <sodipodi:namedview
     id="namedview7"
     pagecolor="#ffffff"
     bordercolor="#999999"
     borderopacity="1"
     inkscape:showpageshadow="0"
     inkscape:pageopacity="0"
     inkscape:pagecheckerboard="0"
     inkscape:deskcolor="#d1d1d1"
     inkscape:zoom="28.535714"
     inkscape:cx="3.5043805"
     inkscape:cy="14"
     inkscape:window-width="1920"
     inkscape:window-height="1008"
     inkscape:window-x="1920"
     inkscape:window-y="0"
     inkscape:window-maximized="1"
     inkscape:current-layer="svg7" />
  <path
     fill-rule="nonzero"
     fill="rgb(9.803922%, 0%, 0%)"
     fill-opacity="1"
     d="M 0 0 L 0 28 L 7.003906 28 L 7.003906 0 Z M 3.511719 1.882812 L 5.210938 4.488281 L 3.511719 7.09375 L 1.816406 4.472656 Z M 3.511719 8.171875 L 5.210938 10.777344 L 3.511719 13.382812 L 1.816406 10.757812 Z M 3.511719 14.457031 L 5.210938 17.0625 L 3.511719 19.667969 L 1.816406 17.042969 Z M 3.511719 20.742188 L 5.210938 23.347656 L 3.511719 25.953125 L 1.816406 23.332031 Z M 3.511719 20.742188 "
     id="path1"
     style="fill:#000000;fill-opacity:1" />
  <path
     fill-rule="nonzero"
     fill="rgb(100%, 100%, 100%)"
     fill-opacity="1"
     d="M 1.816406 4.46875 L 3.511719 1.882812 L 5.210938 4.492188 L 3.511719 7.09375 Z M 1.816406 4.46875 "
     id="path2" />
  <path
     fill-rule="nonzero"
     fill="rgb(100%, 100%, 100%)"
     fill-opacity="1"
     d="M 1.816406 10.757812 L 3.511719 8.171875 L 5.210938 10.777344 L 3.511719 13.382812 Z M 1.816406 10.757812 "
     id="path3" />
  <path
     fill-rule="nonzero"
     fill="rgb(100%, 100%, 100%)"
     fill-opacity="1"
     d="M 1.816406 17.042969 L 3.511719 14.457031 L 5.210938 17.0625 L 3.511719 19.667969 Z M 1.816406 17.042969 "
     id="path4" />
  <path
     fill-rule="nonzero"
     fill="rgb(100%, 100%, 100%)"
     fill-opacity="1"
     d="M 1.816406 23.332031 L 3.511719 20.746094 L 5.210938 23.351562 L 3.511719 25.953125 Z M 1.816406 23.332031 "
     id="path5" />
  <path
     fill="none"
     stroke-width="3.5"
     stroke-linecap="butt"
     stroke-linejoin="miter"
     stroke="rgb(100%, 100%, 100%)"
     stroke-opacity="1"
     stroke-miterlimit="4"
     d="M 4.595463 3.692309 L 43.138914 3.692309 L 43.138914 185.996724 L 4.595463 185.996724 Z M 4.595463 3.692309 "
     transform="matrix(0.147054, 0, 0, 0.147054, 0, 0)"
     id="path6" />
  <path
     fill="none"
     stroke-width="3.5"
     stroke-linecap="butt"
     stroke-linejoin="miter"
     stroke="rgb(100%, 100%, 100%)"
     stroke-opacity="1"
     stroke-miterlimit="4"
     d="M 4.595463 3.692309 L 43.138914 3.692309 L 43.138914 185.996724 L 4.595463 185.996724 Z M 4.595463 3.692309 "
     transform="matrix(0.147054, 0, 0, 0.147054, 0, 0)"
     id="path7" />
</svg>
