<?xml version="1.0" encoding="UTF-8" standalone="no"?>
<svg
   width="8.5"
   height="13.036842"
   viewBox="0 0 8.5 13.036842"
   version="1.1"
   id="svg6"
   sodipodi:docname="hl1-distant-repeated.svg"
   inkscape:version="1.4 (e7c3feb100, 2024-10-09)"
   xmlns:inkscape="http://www.inkscape.org/namespaces/inkscape"
   xmlns:sodipodi="http://sodipodi.sourceforge.net/DTD/sodipodi-0.dtd"
   xmlns="http://www.w3.org/2000/svg"
   xmlns:svg="http://www.w3.org/2000/svg">
  <defs
     id="defs6" />
  <sodipodi:namedview
     id="namedview6"
     pagecolor="#ffffff"
     bordercolor="#999999"
     borderopacity="1"
     inkscape:showpageshadow="0"
     inkscape:pageopacity="0"
     inkscape:pagecheckerboard="0"
     inkscape:deskcolor="#d1d1d1"
     inkscape:zoom="22.627417"
     inkscape:cx="-1.1048543"
     inkscape:cy="8.7725435"
     inkscape:window-width="1920"
     inkscape:window-height="1008"
     inkscape:window-x="1920"
     inkscape:window-y="0"
     inkscape:window-maximized="1"
     inkscape:current-layer="svg6"
     showguides="false" />
  <path
     fill="none"
     stroke-width="0.779498"
     stroke-linecap="round"
     stroke-linejoin="miter"
     stroke="#000000"
     stroke-opacity="1"
     stroke-miterlimit="4"
     d="M 0.40146779,0.38974899 H 6.3936568 V 6.3858453 H 0.40146779 Z m 0,0"
     id="path2-3" />
  <path
     fill-rule="nonzero"
     fill="#000000"
     fill-opacity="1"
     d="M 0.0117188,0 H 8.5 V 13.036842 H 0.0117188 Z m 0,0"
     id="path1"
     style="stroke-width:1.00127" />
  <path
     fill-rule="nonzero"
     fill="#ffffff"
     fill-opacity="1"
     d="m 2.5,7.036842 h 6 v 6 h -6 z m 0,0"
     id="path3-5"
     style="stroke-width:1.21886" />
  <path
     fill="none"
     stroke-width="0.634136"
     stroke-linecap="round"
     stroke-linejoin="miter"
     stroke="#000000"
     stroke-opacity="1"
     stroke-miterlimit="4"
     d="M 3.0620672,7.5966382 H 7.9379328 V 12.473487 H 3.0620672 Z m 0,0"
     id="path2-6" />
  <path
     fill-rule="nonzero"
     fill="#ffffff"
     fill-opacity="1"
     d="m 3.0620677,7.596639 h 4.8758646 v 4.876846 H 3.0620677 Z m 0,0"
     id="path3-7"
     style="stroke-width:0.813521" />
  <path
     d="m 5.5008074,8.2738557 c -0.9708766,0 -1.7599778,0.7887568 -1.7599778,1.7596433 0,0.970884 0.7891012,1.759645 1.7599778,1.759645 0.9708768,0 1.758363,-0.788761 1.758363,-1.759645 0,-0.9708866 -0.7874862,-1.7596433 -1.758363,-1.7596433 z"
     style="fill:none;stroke:#000000;stroke-width:0.622736;stroke-linecap:round;stroke-dasharray:none"
     id="path3" />
  <path
     fill-rule="nonzero"
     fill="rgb(41.176471%, 93.333333%, 44.313725%)"
     fill-opacity="1"
     d="M 7.664062 2.171875 C 7.664062 3.136719 6.882812 3.914062 5.925781 3.914062 C 4.960938 3.914062 4.183594 3.136719 4.183594 2.171875 C 4.183594 1.214844 4.960938 0.433594 5.925781 0.433594 C 6.882812 0.433594 7.664062 1.214844 7.664062 2.171875 Z M 7.664062 2.171875 "
     id="path2" />
</svg>
