<?xml version="1.0" encoding="UTF-8"?>
<svg xmlns="http://www.w3.org/2000/svg" xmlns:xlink="http://www.w3.org/1999/xlink" width="13" height="18.436635" viewBox="0 0 13 18.436635">
<path fill-rule="nonzero" fill="rgb(100%, 83.92157%, 0%)" fill-opacity="1" stroke-width="0.417785" stroke-linecap="round" stroke-linejoin="round" stroke="rgb(0%, 0%, 0%)" stroke-opacity="1" stroke-miterlimit="4" d="M 0.209616 0.209616 L 12.708938 0.209616 L 12.708938 18.112372 L 0.209616 18.112372 Z M 0.209616 0.209616 " transform="matrix(1.006305, 0, 0, 1.006305, 0, 0)"/>
<path fill-rule="nonzero" fill="rgb(100%, 83.92157%, 0%)" fill-opacity="1" stroke-width="0.493949" stroke-linecap="round" stroke-linejoin="round" stroke="rgb(100%, 100%, 100%)" stroke-opacity="1" stroke-miterlimit="4" d="M 0.450286 0.558976 L 12.468268 0.558976 L 12.468268 17.763012 L 0.450286 17.763012 Z M 0.450286 0.558976 " transform="matrix(1.006305, 0, 0, 1.006305, 0, 0)"/>
<path fill-rule="nonzero" fill="rgb(0%, 0%, 0%)" fill-opacity="1" d="M 8.769531 13.6875 L 8.121094 11.566406 L 4.878906 11.566406 L 4.230469 13.6875 L 2.199219 13.6875 L 5.339844 4.75 L 7.648438 4.75 L 10.800781 13.6875 Z M 7.023438 7.914062 C 6.980469 7.773438 6.929688 7.597656 6.863281 7.378906 C 6.796875 7.164062 6.730469 6.945312 6.660156 6.71875 C 6.59375 6.496094 6.542969 6.300781 6.5 6.132812 C 6.457031 6.300781 6.398438 6.507812 6.324219 6.757812 C 6.257812 6.996094 6.191406 7.230469 6.125 7.453125 C 6.066406 7.671875 6.023438 7.824219 5.988281 7.914062 L 5.351562 9.984375 L 7.671875 9.984375 Z M 7.023438 7.914062 "/>
</svg>
