<?xml version="1.0" encoding="UTF-8"?>
<svg xmlns="http://www.w3.org/2000/svg" xmlns:xlink="http://www.w3.org/1999/xlink" width="22.229904" height="19" viewBox="0 0 22.229904 19">
<path fill-rule="nonzero" fill="rgb(100%, 100%, 100%)" fill-opacity="1" stroke-width="9" stroke-linecap="round" stroke-linejoin="round" stroke="rgb(0%, 0%, 0%)" stroke-opacity="1" stroke-miterlimit="4" d="M 441.553693 -202.99389 C 271.154396 -202.99389 141.262439 -203.625584 4.500816 -204.888971 C 70.512777 -88.578422 155.791387 53.868442 221.803348 170.178991 C 290.18416 54.026365 444.870083 -202.99389 444.870083 -202.99389 Z M 441.553693 -202.99389 " transform="matrix(0.0494702, 0, 0, 0.0494702, 0, 10.358555)"/>
<path fill-rule="nonzero" fill="rgb(0%, 0%, 0%)" fill-opacity="1" d="M 8.546875 2.035156 L 7.335938 3.238281 L 7.335938 5.113281 L 8.527344 3.902344 L 8.527344 11.085938 L 9.820312 11.085938 L 9.820312 2.035156 Z M 8.546875 2.035156 "/>
<path fill-rule="nonzero" fill="rgb(0%, 0%, 0%)" fill-opacity="1" d="M 12.992188 2.042969 C 12.046875 2.046875 11.101562 2.691406 11.101562 3.960938 L 11.089844 3.960938 L 11.089844 9.203125 L 11.101562 9.203125 C 11.121094 11.757812 14.882812 11.734375 14.882812 9.203125 L 14.894531 9.203125 L 14.894531 3.960938 L 14.882812 3.960938 C 14.882812 2.671875 13.9375 2.035156 12.992188 2.042969 Z M 12.988281 3.179688 C 13.390625 3.175781 13.789062 3.433594 13.789062 3.960938 L 13.789062 9.203125 L 13.792969 9.203125 C 13.789062 10.230469 12.195312 10.230469 12.195312 9.175781 L 12.195312 3.960938 L 12.191406 3.960938 C 12.191406 3.445312 12.59375 3.183594 12.988281 3.179688 Z M 12.988281 3.179688 "/>
</svg>
