<?xml version="1.0" encoding="UTF-8"?>
<svg width="13" height="13" version="1.1" viewBox="0 0 13 13" xmlns="http://www.w3.org/2000/svg">
 <path transform="scale(3.7795)" d="m0.07338 0.038241h3.299c0.019637 0 0.036173 0.015503 0.036173 0.03514v3.299c0 0.019637-0.016536 0.036173-0.036173 0.036173h-3.299c-0.019637 0-0.03514-0.016536-0.03514-0.036173v-3.299c0-0.019637 0.015503-0.03514 0.03514-0.03514z" fill="#fff" stroke="#000" stroke-linejoin="round" stroke-width=".068837"/>
 <path d="m3.8563 9.4564q-0.60563 0-1.0678-0.26297-0.46219-0.26696-0.71719-0.74907-0.25102-0.4861-0.25102-1.1236v-1.6416q0-0.63751 0.25102-1.1196 0.255-0.4861 0.71719-0.74907 0.46219-0.26696 1.0678-0.26696t1.0678 0.26696q0.46219 0.26297 0.71321 0.74907 0.255 0.48211 0.255 1.1196v1.6416q0 0.63751-0.255 1.1236-0.25102 0.48211-0.71321 0.74907-0.46219 0.26297-1.0678 0.26297zm0-0.80087q0.3586 0 0.62954-0.15938 0.27492-0.16336 0.42235-0.45821 0.15141-0.29883 0.15141-0.6893v-1.6974q0-0.39047-0.15141-0.68532-0.14742-0.29883-0.42235-0.45821-0.27094-0.16336-0.62954-0.16336t-0.63352 0.16336q-0.27094 0.15938-0.42235 0.45821-0.14742 0.29485-0.14742 0.68532v1.6974q0 0.39047 0.14742 0.6893 0.15141 0.29485 0.42235 0.45821 0.27492 0.15938 0.63352 0.15938zm3.7493-0.011953h1.5699q0.61758 0 0.90048-0.23508 0.28289-0.23508 0.28289-0.66141v-0.011953q0-0.29485-0.1036-0.50602-0.09961-0.21117-0.31875-0.32274-0.21914-0.11555-0.5618-0.11555h-1.7691v-0.73313h1.7691q0.45024 0 0.67735-0.21117 0.2311-0.21117 0.2311-0.62555 0-0.4343-0.255-0.64946-0.255-0.21516-0.76501-0.21516h-1.6575v-0.75305h1.8049q0.5618 0 0.94032 0.19125 0.37852 0.19125 0.56579 0.54188 0.18727 0.35063 0.18727 0.83673 0 0.29883-0.11555 0.5618-0.11555 0.25899-0.35461 0.44625-0.23508 0.18328-0.58571 0.24703 0.35063 0.051797 0.60563 0.25102 0.255 0.19524 0.39047 0.49008t0.13547 0.63751v0.011953q0 0.47016-0.20719 0.82876-0.20719 0.3586-0.59368 0.55383-0.38649 0.19524-0.90048 0.19524h-1.8727zm-0.47813-5.0403h0.80884v5.7933h-0.80884z" stroke-width=".34" style="font-variant-ligatures:none" aria-label="OB"/>
</svg>
