<?xml version="1.0" encoding="UTF-8" standalone="no"?>
<svg
   width="11.814"
   height="21"
   viewBox="0 0 11.814001 21"
   version="1.1"
   id="svg6"
   sodipodi:docname="pf1-dv-only-transit.svg"
   inkscape:version="1.4 (e7c3feb100, 2024-10-09)"
   xmlns:inkscape="http://www.inkscape.org/namespaces/inkscape"
   xmlns:sodipodi="http://sodipodi.sourceforge.net/DTD/sodipodi-0.dtd"
   xmlns="http://www.w3.org/2000/svg"
   xmlns:svg="http://www.w3.org/2000/svg">
  <defs
     id="defs6" />
  <sodipodi:namedview
     id="namedview6"
     pagecolor="#ffffff"
     bordercolor="#999999"
     borderopacity="1"
     inkscape:showpageshadow="0"
     inkscape:pageopacity="0"
     inkscape:pagecheckerboard="0"
     inkscape:deskcolor="#d1d1d1"
     inkscape:zoom="27.366667"
     inkscape:cx="-1.9732034"
     inkscape:cy="11.492083"
     inkscape:window-width="1920"
     inkscape:window-height="1008"
     inkscape:window-x="1920"
     inkscape:window-y="0"
     inkscape:window-maximized="1"
     inkscape:current-layer="svg6" />
  <path
     fill-rule="nonzero"
     fill="#6a6a6a"
     fill-opacity="1"
     d="M 4.7031588,3.9852936 H 7.1090622 V 7.3754303 H 4.7031588 Z m 0,0"
     id="path1"
     style="stroke-width:1.3998" />
  <path
     fill-rule="nonzero"
     fill="#000000"
     fill-opacity="1"
     d="M 0.69514276,6.5169605 H 10.575751 V 20.925042 H 0.69514276 Z m 0,0"
     id="path2"
     style="stroke-width:1.3998" />
  <path
     fill-rule="nonzero"
     fill="#ffffff"
     fill-opacity="1"
     d="M 2.3956794,8.7806976 V 18.99485 h 1.6239844 v -4.363433 h 2.2145244 c 3.6799383,-0.0055 3.8111698,-5.8452518 0,-5.8507194 z m 3.8385088,1.6185164 c 1.5419661,0.0055 1.5638365,2.608218 0,2.613686 0,0 -0.00547,0 -0.00547,0 H 4.0196638 v -2.613686 z m 0,0"
     id="path3"
     style="stroke-width:1.3998" />
  <path
     fill-rule="nonzero"
     fill="#ffffff"
     fill-opacity="1"
     stroke-width="0.136211"
     stroke-linecap="round"
     stroke-linejoin="round"
     stroke="#000000"
     stroke-opacity="1"
     stroke-miterlimit="4"
     d="M 0.06632676,0.07023303 H 11.745894 V 4.4555388 H 0.06632676 Z m 0,0"
     id="path4" />
  <path
     fill-rule="nonzero"
     fill="#060000"
     fill-opacity="1"
     d="M 1.5208054,0.07023292 V 4.4500715 H 3.0026221 V 0.07023292 Z m 0,0"
     id="path5"
     style="stroke-width:1.3998" />
  <path
     fill-rule="nonzero"
     fill="#060000"
     fill-opacity="1"
     d="M 8.8424059,0.07023292 V 4.4500715 H 10.258608 V 0.07023292 Z m 0,0"
     id="path6"
     style="stroke-width:1.3998" />
</svg>
