<?xml version="1.0" encoding="UTF-8"?>
<svg width="18" height="12.7" version="1.1" viewBox="0 0 18 12.7" xmlns="http://www.w3.org/2000/svg">
 <g>
  <path transform="matrix(.10675 0 0 .10675 1.7254 -91.364)" d="m-14.662 857.34h165.61v115.99h-165.61zm0 0" fill="#fff" stroke="#000" stroke-linecap="round" stroke-linejoin="round" stroke-width="3"/>
  <path d="m6.5664 3.2148v0.83594h2.8398l-2.8398 4.6367v0.83594h3.9492v-0.83594h-2.8789l2.8789-4.6367v-0.83594z"/>
  <path d="m11.809 3.2148v6.3086h2.75v-0.007813c1.9414-0.14062 2.0547-2.2344 0.96094-3.1445 1.0938-0.91016 0.98047-3.0078-0.96094-3.1445v-0.011718zm0.83594 0.83594h1.7031c1.0977 0 1.2227 1.8984 0 1.8984h-1.7031zm0 2.7344h1.7031c1.2227 0 1.0977 1.9023 0 1.9023h-1.7031z"/>
 </g>
 <path transform="scale(.95735 1.0446)" d="m2.2111 5.9687h1.9315q0.27415 0 0.48183-0.12877t0.31984-0.36553q0.1163-0.23676 0.1163-0.54414 0-0.31153-0.1163-0.54829-0.11215-0.23676-0.31984-0.36553-0.20769-0.13292-0.48183-0.13292h-1.9315v-0.80582h1.9024q0.53998 0 0.9512 0.23261 0.41122 0.22846 0.63552 0.64798 0.22845 0.41953 0.22845 0.97197 0 0.55245-0.22845 0.97197-0.2243 0.41537-0.63552 0.64383-0.41122 0.22845-0.9512 0.22845h-1.9024zm-0.43614-2.891h0.84736v6.0395h-0.84736z" stroke-width=".35445" style="font-variant-ligatures:none" aria-label="P
"/>
</svg>
