<?xml version="1.0" encoding="UTF-8" standalone="no"?>
<svg
   width="11.753837"
   height="10.527"
   viewBox="0 0 11.753837 10.527"
   version="1.1"
   id="svg4"
   sodipodi:docname="sh1-light-normal.svg"
   inkscape:version="1.4 (e7c3feb100, 2024-10-09)"
   xmlns:inkscape="http://www.inkscape.org/namespaces/inkscape"
   xmlns:sodipodi="http://sodipodi.sourceforge.net/DTD/sodipodi-0.dtd"
   xmlns="http://www.w3.org/2000/svg"
   xmlns:svg="http://www.w3.org/2000/svg">
  <defs
     id="defs4" />
  <sodipodi:namedview
     id="namedview4"
     pagecolor="#ffffff"
     bordercolor="#999999"
     borderopacity="1"
     inkscape:showpageshadow="0"
     inkscape:pageopacity="0"
     inkscape:pagecheckerboard="0"
     inkscape:deskcolor="#d1d1d1"
     inkscape:zoom="44.388889"
     inkscape:cx="5.8573216"
     inkscape:cy="3.2778473"
     inkscape:window-width="1920"
     inkscape:window-height="1008"
     inkscape:window-x="1920"
     inkscape:window-y="0"
     inkscape:window-maximized="1"
     inkscape:current-layer="svg4" />
  <path
     fill-rule="nonzero"
     fill="#000000"
     fill-opacity="1"
     d="M 0.214844,2.910156 2.914062,0.214844 C 3.097656,0.0429688 3.3125,0.00390625 3.535156,0.00390625 L 8.425781,0 C 8.601562,0 8.746094,0.128906 8.84375,0.226562 l 2.660156,2.664063 c 0.152344,0.152344 0.25,0.347656 0.25,0.558594 v 3.695312 c 0,0.210938 -0.171875,0.382813 -0.382812,0.382813 H 0.382812 C 0.171875,7.527344 0,7.355469 0,7.144531 V 3.449219 C 0,3.238281 0.0625,3.058594 0.214844,2.910156 Z m 0,0"
     id="path2" />
  <path
     fill-rule="nonzero"
     fill="#ffffff"
     fill-opacity="1"
     d="M 4.064,5.8157311 C 4.064,6.5022982 3.5026223,7.062 2.8139999,7.062 2.1253775,7.062 1.564,6.5022982 1.564,5.8157311 1.564,5.1217 2.1253775,4.562 2.8139999,4.562 3.5026223,4.562 4.064,5.1217 4.064,5.8157311 Z m 0,0"
     id="path3"
     style="stroke-width:1.91329" />
  <path
     fill-rule="nonzero"
     fill="#ffffff"
     fill-opacity="1"
     d="M 7.3691552,2.3439998 C 7.3691552,3.0326223 6.8077778,3.594 6.1191554,3.594 5.4230483,3.594 4.8691552,3.0326223 4.8691552,2.3439998 4.8691552,1.6553774 5.4230483,1.094 6.1191554,1.094 c 0.6886224,0 1.2499998,0.5613774 1.2499998,1.2499998 z m 0,0"
     id="path4"
     style="stroke-width:1.91617" />
  <path
     fill-rule="nonzero"
     fill="#444444"
     fill-opacity="1"
     d="m 5.351562,7.527344 h 1.050782 v 3 H 5.351562 Z m 0,0"
     id="path1"
     style="stroke-width:1.22714" />
</svg>
