<?xml version="1.0" encoding="UTF-8" standalone="no"?>
<svg
   width="11.657144"
   height="15"
   viewBox="0 0 11.657144 15"
   version="1.1"
   id="svg24"
   sodipodi:docname="zp9-db.svg"
   inkscape:version="1.4 (e7c3feb100, 2024-10-09)"
   xmlns:inkscape="http://www.inkscape.org/namespaces/inkscape"
   xmlns:sodipodi="http://sodipodi.sourceforge.net/DTD/sodipodi-0.dtd"
   xmlns="http://www.w3.org/2000/svg"
   xmlns:svg="http://www.w3.org/2000/svg">
  <sodipodi:namedview
     id="namedview24"
     pagecolor="#ffffff"
     bordercolor="#999999"
     borderopacity="1"
     inkscape:showpageshadow="0"
     inkscape:pageopacity="0"
     inkscape:pagecheckerboard="0"
     inkscape:deskcolor="#d1d1d1"
     showgrid="true"
     inkscape:zoom="55.133333"
     inkscape:cx="5.8222491"
     inkscape:cy="6.9286578"
     inkscape:window-width="1920"
     inkscape:window-height="1013"
     inkscape:window-x="1920"
     inkscape:window-y="0"
     inkscape:window-maximized="1"
     inkscape:current-layer="svg24">
    <inkscape:grid
       id="grid38"
       units="px"
       originx="0"
       originy="0"
       spacingx="1"
       spacingy="1"
       empcolor="#0099e5"
       empopacity="0.30196078"
       color="#0099e5"
       opacity="0.14901961"
       empspacing="5"
       enabled="true"
       visible="true" />
  </sodipodi:namedview>
  <defs
     id="defs16">
    <inkscape:path-effect
       effect="copy_rotate"
       starting_point="6.8285718,7.5"
       origin="5.8285718,7.5"
       id="path-effect43"
       is_visible="true"
       lpeversion="1.2"
       lpesatellites=""
       method="normal"
       num_copies="8"
       starting_angle="0"
       rotation_angle="51.428571"
       gap="0"
       copies_to_360="true"
       mirror_copies="false"
       split_items="false"
       link_styles="false" />
    <inkscape:path-effect
       effect="copy_rotate"
       starting_point="6.4996722,9.4068924"
       origin="5.8285718,7.5"
       id="path-effect38"
       is_visible="true"
       lpeversion="1.2"
       lpesatellites=""
       method="normal"
       num_copies="7"
       starting_angle="-69.169719"
       rotation_angle="51.428571"
       gap="0"
       copies_to_360="true"
       mirror_copies="false"
       split_items="false"
       link_styles="false" />
    <filter
       id="filter-remove-color"
       x="0"
       y="0"
       width="1"
       height="1">
      <feColorMatrix
         color-interpolation-filters="sRGB"
         values="0 0 0 0 1 0 0 0 0 1 0 0 0 0 1 0 0 0 1 0"
         id="feColorMatrix1" />
    </filter>
    <mask
       id="mask-7">
      <g
         filter="url(#filter-remove-color)"
         id="g15">
        <rect
           x="-1.165714"
           y="-1.5"
           width="13.988573"
           height="18"
           fill="rgb(0%, 0%, 0%)"
           fill-opacity="0.99"
           id="rect15" />
      </g>
    </mask>
  </defs>
  <path
     fill-rule="nonzero"
     fill="#000000"
     fill-opacity="1"
     d="M 0,0 H 11.65625 V 15 H 0 Z"
     id="path17"
     sodipodi:nodetypes="ccccc" />
  <g
     transform="matrix(1.4927111,0,0,1.4883721,0.27463713,-2.9881116)"
     mask="url(#mask-7)"
     id="g35"
     style="display:none">
    <path
       id="path35"
       d="" />
  </g>
  <circle
     style="fill:#000000;fill-opacity:1;fill-rule:nonzero;stroke:none;stroke-width:6.087;stroke-dasharray:none;stroke-opacity:1"
     id="path37"
     cx="5.8285718"
     cy="7.5"
     r="1" />
  <path
     style="fill:#00f1a5;fill-opacity:1;fill-rule:nonzero;stroke:none;stroke-width:6.087;stroke-dasharray:none;stroke-opacity:1"
     id="path37-6"
     inkscape:path-effect="#path-effect43"
     sodipodi:type="arc"
     sodipodi:cx="5.8285718"
     sodipodi:cy="3"
     sodipodi:rx="1"
     sodipodi:ry="1"
     d="m 6.8285718,3 c 0,0.5522847 -0.4477153,1 -1,1 -0.5522848,0 -1,-0.4477153 -1,-1 0,-0.5522847 0.4477152,-1 1,-1 0.5522847,0 1,0.4477153 1,1 z M 3.3536981,3.6109127 c 0.3905243,0.3905243 0.3905243,1.0236893 0,1.4142136 -0.3905243,0.3905243 -1.0236893,0.3905243 -1.4142136,0 -0.3905243,-0.3905243 -0.3905243,-1.0236893 0,-1.4142136 0.3905243,-0.3905243 1.0236893,-0.3905243 1.4142136,0 z M 1.3285718,6.5 c 0.5522847,0 1,0.4477153 1,1 0,0.5522848 -0.4477153,1 -1,1 -0.55228475,0 -1,-0.4477152 -1,-1 0,-0.5522847 0.44771525,-1 1,-1 z m 0.6109127,3.4748737 c 0.3905243,-0.3905243 1.0236893,-0.3905243 1.4142136,0 0.3905243,0.3905243 0.3905243,1.0236893 0,1.4142133 -0.3905243,0.390525 -1.0236893,0.390525 -1.4142136,0 -0.3905243,-0.390524 -0.3905243,-1.023689 0,-1.4142133 z M 4.8285718,12 c 0,-0.552285 0.4477153,-1 1,-1 0.5522848,0 1,0.447715 1,1 0,0.552285 -0.4477152,1 -1,1 -0.5522847,0 -1,-0.447715 -1,-1 z m 3.4748737,-0.610913 c -0.3905243,-0.390524 -0.3905243,-1.023689 0,-1.4142133 0.3905243,-0.3905243 1.0236893,-0.3905243 1.4142136,0 0.3905239,0.3905243 0.3905239,1.0236893 0,1.4142133 -0.3905243,0.390525 -1.0236893,0.390525 -1.4142136,0 z M 10.328572,8.5 c -0.5522849,0 -1.0000002,-0.4477153 -1.0000002,-1 0,-0.5522848 0.4477153,-1 1.0000002,-1 0.552285,0 1,0.4477152 1,1 0,0.5522847 -0.447715,1 -1,1 z M 9.7176591,5.0251263 c -0.3905243,0.3905243 -1.0236893,0.3905243 -1.4142136,0 -0.3905243,-0.3905243 -0.3905243,-1.0236893 0,-1.4142136 0.3905243,-0.3905243 1.0236893,-0.3905243 1.4142136,0 0.3905239,0.3905243 0.3905239,1.0236893 0,1.4142136 z" />
</svg>
