<?xml version="1.0" encoding="UTF-8" standalone="no"?>
<svg
   width="11.999999"
   height="12"
   viewBox="0 0 11.999999 12"
   version="1.1"
   id="svg7646"
   sodipodi:docname="zs2v-{Q}.svg"
   inkscape:version="1.2.2 (b0a8486541, 2022-12-01)"
   xmlns:inkscape="http://www.inkscape.org/namespaces/inkscape"
   xmlns:sodipodi="http://sodipodi.sourceforge.net/DTD/sodipodi-0.dtd"
   xmlns="http://www.w3.org/2000/svg"
   xmlns:svg="http://www.w3.org/2000/svg">
  <defs
     id="defs7650" />
  <sodipodi:namedview
     id="namedview7648"
     pagecolor="#ffffff"
     bordercolor="#666666"
     borderopacity="1.0"
     inkscape:showpageshadow="2"
     inkscape:pageopacity="0.0"
     inkscape:pagecheckerboard="0"
     inkscape:deskcolor="#d1d1d1"
     showgrid="false"
     inkscape:zoom="57.314505"
     inkscape:cx="5.2691723"
     inkscape:cy="6.9179695"
     inkscape:window-width="1920"
     inkscape:window-height="1128"
     inkscape:window-x="0"
     inkscape:window-y="0"
     inkscape:window-maximized="1"
     inkscape:current-layer="text847" />
  <rect
     x="-1.2"
     y="-1.2"
     width="14.399999"
     height="14.4"
     fill="rgb(0%, 0%, 0%)"
     fill-opacity="1"
     id="rect7642" />
  <g
     aria-label="Q"
     id="text847"
     style="font-size:12.0045px;line-height:1.25;-inkscape-font-specification:sans-serif;font-variant-ligatures:none;text-align:center;letter-spacing:0px;word-spacing:0px;text-anchor:middle;stroke-width:0.900339">
    <path
       d="m 6.0058611,1.7327752 q -1.2895459,0 -2.0515504,0.9612979 -0.7561428,0.9612979 -0.7561428,2.6201229 0,1.6529634 0.7561428,2.6142613 0.7620045,0.9612979 2.0515504,0.9612979 1.2895459,0 2.0398272,-0.9612979 0.7561429,-0.9612979 0.7561429,-2.6142613 0,-1.658825 -0.7561429,-2.6201229 Q 7.295407,1.7327752 6.0058611,1.7327752 Z m 1.658825,7.7900298 1.5591783,1.705718 H 7.7936407 L 6.4982332,9.8276068 q -0.1934319,0.011723 -0.2989402,0.017585 -0.099647,0.00586 -0.1934319,0.00586 -1.8463953,0 -2.9542325,-1.2309302 Q 1.949653,7.3833311 1.949653,5.314196 q 0,-2.0749967 1.1019756,-3.3059269 1.1078372,-1.23679177 2.9542325,-1.23679177 1.8405337,0 2.9425094,1.23679177 1.1019755,1.2309302 1.1019755,3.3059269 0,1.5240088 -0.615465,2.6083997 Q 8.8252774,9.0069866 7.6646861,9.522805 Z"
       style="fill:#fefc5d;fill-opacity:1"
       id="path13708" />
  </g>
</svg>
