<?xml version="1.0" encoding="UTF-8" standalone="no"?>
<svg
   width="11.999999"
   height="12"
   viewBox="0 0 11.999999 12"
   version="1.1"
   id="svg6"
   sodipodi:docname="zs2-{Z}.svg"
   inkscape:version="1.2.2 (b0a8486541, 2022-12-01)"
   xmlns:inkscape="http://www.inkscape.org/namespaces/inkscape"
   xmlns:sodipodi="http://sodipodi.sourceforge.net/DTD/sodipodi-0.dtd"
   xmlns="http://www.w3.org/2000/svg"
   xmlns:svg="http://www.w3.org/2000/svg">
  <defs
     id="defs10" />
  <sodipodi:namedview
     id="namedview8"
     pagecolor="#ffffff"
     bordercolor="#666666"
     borderopacity="1.0"
     inkscape:showpageshadow="2"
     inkscape:pageopacity="0.0"
     inkscape:pagecheckerboard="0"
     inkscape:deskcolor="#d1d1d1"
     showgrid="false"
     inkscape:zoom="34.947842"
     inkscape:cx="7.4968863"
     inkscape:cy="3.3049251"
     inkscape:window-width="1920"
     inkscape:window-height="1128"
     inkscape:window-x="0"
     inkscape:window-y="0"
     inkscape:window-maximized="1"
     inkscape:current-layer="svg6" />
  <rect
     x="-1.2"
     y="-1.2"
     width="14.399999"
     height="14.4"
     fill="rgb(0%, 0%, 0%)"
     fill-opacity="1"
     id="rect2" />
  <g
     aria-label="?"
     id="text901"
     style="font-size:14.4037px;line-height:1.25;-inkscape-font-specification:sans-serif;font-variant-ligatures:none;text-align:center;letter-spacing:0px;word-spacing:0px;text-anchor:middle;fill:#ffffff;stroke-width:1.08028">
    <path
       d="M 4.9133922,9.5587469 H 6.3411027 V 11.345143 H 4.9133922 Z M 6.2989043,8.5248876 H 4.9555905 V 7.4417969 q 0,-0.7103387 0.1969256,-1.1674874 Q 5.3494417,5.8171608 5.9824168,5.212318 L 6.6153919,4.5863759 Q 7.0162761,4.2136239 7.1921025,3.8830703 7.374962,3.5525166 7.374962,3.2078969 q 0,-0.6259421 -0.4641818,-1.0127602 -0.4571486,-0.3868181 -1.2167187,-0.3868181 -0.5556115,0 -1.1885866,0.246157 -0.625942,0.246157 -1.3081485,0.7173717 V 1.4496327 Q 3.8584337,1.0487485 4.5336071,0.8518229 5.2158136,0.65489732 5.9402184,0.65489732 q 1.2940824,0 2.0747517,0.68220648 0.7877024,0.6822065 0.7877024,1.8004625 0,0.5345123 -0.2531901,1.0197932 -0.25319,0.4782478 -0.8861651,1.0830907 L 7.0444083,5.8452931 Q 6.7138547,6.1758467 6.5731935,6.3657393 6.4395655,6.5485987 6.383301,6.7244251 6.3411027,6.8721193 6.3200035,7.083111 6.2989043,7.2941027 6.2989043,7.6598217 Z"
       id="path1685" />
  </g>
</svg>
